<svg viewBox="0 0 178 21" fill="none" xmlns="http://www.w3.org/2000/svg">
<path d="M11.6843 16.3507C12.1688 16.3507 12.5725 16.5122 12.8955 16.8352C13.2184 17.1379 13.3799 17.5316 13.3799 18.016C13.3799 18.4803 13.2184 18.8739 12.8955 19.1969C12.5725 19.5199 12.1688 19.6814 11.6843 19.6814H1.93445C1.47017 19.6814 1.07654 19.5199 0.753563 19.1969C0.450773 18.8538 0.299377 18.4904 0.299377 18.1069C0.299377 17.7637 0.33975 17.4811 0.420494 17.2591C0.501238 17.0168 0.652633 16.7443 0.87468 16.4415L8.0811 7.11558H2.20696C1.72249 7.11558 1.31877 6.95409 0.995796 6.63111C0.672819 6.30814 0.511331 5.90442 0.511331 5.41995C0.511331 4.95567 0.672819 4.57214 0.995796 4.26935C1.31877 3.94637 1.72249 3.78488 2.20696 3.78488H11.5329C11.977 3.78488 12.3504 3.94637 12.6532 4.26935C12.9762 4.57214 13.1377 4.95567 13.1377 5.41995C13.1377 5.72274 13.1074 5.98516 13.0469 6.20721C12.9863 6.40907 12.845 6.6513 12.623 6.9339L5.35598 16.3507H11.6843Z" fill="#595C7A"/>
<path d="M30.2638 11.2033C30.2436 11.6877 30.0519 12.0813 29.6885 12.3841C29.3252 12.6869 28.9013 12.8383 28.4168 12.8383H18.4247C18.6669 14.0293 19.2221 14.9679 20.0901 15.6543C20.9581 16.3204 21.9371 16.6535 23.0271 16.6535C23.8548 16.6535 24.5007 16.5828 24.965 16.4415C25.4293 16.28 25.7926 16.1186 26.055 15.9571C26.3376 15.7754 26.5294 15.6543 26.6303 15.5937C26.9937 15.412 27.3368 15.3212 27.6598 15.3212C28.0837 15.3212 28.4471 15.4726 28.7499 15.7754C29.0527 16.0782 29.2041 16.4314 29.2041 16.8352C29.2041 17.3802 28.9214 17.8747 28.3562 18.3188C27.791 18.7831 27.0341 19.1767 26.0853 19.4997C25.1366 19.8227 24.1777 19.9842 23.2088 19.9842C21.5132 19.9842 20.0295 19.6309 18.7578 18.9244C17.5062 18.2179 16.5373 17.249 15.851 16.0176C15.1647 14.7661 14.8215 13.3632 14.8215 11.8088C14.8215 10.0728 15.1848 8.54879 15.9115 7.2367C16.6382 5.9246 17.5971 4.92539 18.7881 4.23907C19.979 3.53256 21.2508 3.1793 22.6032 3.1793C23.9355 3.1793 25.187 3.54265 26.3578 4.26935C27.5488 4.99605 28.4975 5.97507 29.2041 7.20642C29.9106 8.43776 30.2638 9.77004 30.2638 11.2033ZM22.6032 6.51C20.2616 6.51 18.8789 7.61014 18.455 9.81042H26.3881V9.59846C26.3074 8.75065 25.8935 8.02395 25.1467 7.41837C24.3998 6.81279 23.552 6.51 22.6032 6.51Z" fill="#595C7A"/>
<path d="M41.7117 3.1793C42.3173 3.1793 42.8219 3.35088 43.2256 3.69405C43.6495 4.03721 43.8615 4.44093 43.8615 4.90521C43.8615 5.53098 43.7 6.00535 43.377 6.32832C43.054 6.63111 42.6705 6.78251 42.2264 6.78251C41.9236 6.78251 41.5805 6.71186 41.1969 6.57056C41.1364 6.55037 40.9951 6.51 40.773 6.44944C40.5712 6.38888 40.3491 6.3586 40.1069 6.3586C39.582 6.3586 39.0774 6.52009 38.5929 6.84307C38.1085 7.16604 37.7047 7.6606 37.3818 8.32674C37.079 8.97269 36.9276 9.74986 36.9276 10.6582V17.8344C36.9276 18.3592 36.756 18.8033 36.4128 19.1666C36.0697 19.5098 35.6357 19.6814 35.1108 19.6814C34.586 19.6814 34.152 19.5098 33.8088 19.1666C33.4657 18.8033 33.2941 18.3592 33.2941 17.8344V5.32911C33.2941 4.80428 33.4657 4.37028 33.8088 4.02712C34.152 3.66377 34.586 3.48209 35.1108 3.48209C35.6357 3.48209 36.0697 3.66377 36.4128 4.02712C36.756 4.37028 36.9276 4.80428 36.9276 5.32911V5.72274C37.3919 4.89511 38.058 4.26935 38.926 3.84544C39.794 3.40135 40.7226 3.1793 41.7117 3.1793Z" fill="#595C7A"/>
<path d="M61.3062 11.5969C61.3062 13.2118 60.9429 14.6652 60.2162 15.9571C59.4895 17.2288 58.4903 18.2179 57.2186 18.9244C55.967 19.6309 54.5843 19.9842 53.0703 19.9842C51.5362 19.9842 50.1434 19.6309 48.8918 18.9244C47.6403 18.2179 46.6512 17.2288 45.9245 15.9571C45.1978 14.6652 44.8344 13.2118 44.8344 11.5969C44.8344 9.982 45.1978 8.5387 45.9245 7.26697C46.6512 5.97507 47.6403 4.97586 48.8918 4.26935C50.1434 3.54265 51.5362 3.1793 53.0703 3.1793C54.5843 3.1793 55.967 3.54265 57.2186 4.26935C58.4903 4.97586 59.4895 5.97507 60.2162 7.26697C60.9429 8.5387 61.3062 9.982 61.3062 11.5969ZM57.6728 11.5969C57.6728 10.6078 57.4608 9.72967 57.0369 8.9626C56.6332 8.17535 56.0781 7.56977 55.3715 7.14586C54.6852 6.72195 53.9182 6.51 53.0703 6.51C52.2225 6.51 51.4454 6.72195 50.7389 7.14586C50.0525 7.56977 49.4974 8.17535 49.0735 8.9626C48.6698 9.72967 48.4679 10.6078 48.4679 11.5969C48.4679 12.586 48.6698 13.4641 49.0735 14.2312C49.4974 14.9982 50.0525 15.5937 50.7389 16.0176C51.4454 16.4415 52.2225 16.6535 53.0703 16.6535C53.9182 16.6535 54.6852 16.4415 55.3715 16.0176C56.0781 15.5937 56.6332 14.9982 57.0369 14.2312C57.4608 13.4641 57.6728 12.586 57.6728 11.5969Z" fill="#595C7A"/>
<path d="M82.9939 3.48209C83.4783 3.48209 83.882 3.66377 84.205 4.02712C84.5482 4.37028 84.7198 4.81437 84.7198 5.35939C84.7198 5.54107 84.6794 5.77321 84.5987 6.05581L79.966 18.5308C79.8448 18.8941 79.6228 19.1868 79.2998 19.4089C78.997 19.6107 78.664 19.7117 78.3006 19.7117L78.0584 19.6814C77.372 19.641 76.8573 19.2575 76.5141 18.5308L73.9404 11.0821L71.4878 18.5308C71.1447 19.2575 70.6299 19.641 69.9436 19.6814L69.7014 19.7117C69.338 19.7117 68.9948 19.6107 68.6719 19.4089C68.3691 19.1868 68.1571 18.8941 68.036 18.5308L63.4033 6.05581C63.3226 5.83377 63.2822 5.60163 63.2822 5.35939C63.2822 4.85474 63.4437 4.42074 63.7667 4.05739C64.1098 3.67386 64.5539 3.48209 65.0989 3.48209C65.5027 3.48209 65.8458 3.58302 66.1284 3.78488C66.4312 3.96656 66.6432 4.24916 66.7643 4.6327L70.0344 13.5045L72.4265 7.02474C72.7494 6.27786 73.3046 5.90442 74.0918 5.90442C74.5157 5.90442 74.8387 5.99525 75.0607 6.17693C75.303 6.3586 75.5048 6.64121 75.6663 7.02474L77.9978 13.3531L81.2377 4.6327C81.3588 4.24916 81.5707 3.96656 81.8735 3.78488C82.1763 3.58302 82.5498 3.48209 82.9939 3.48209Z" fill="#595C7A"/>
<path d="M100.813 3.1793C101.337 3.1793 101.771 3.35088 102.115 3.69405C102.458 4.03721 102.629 4.4813 102.629 5.02632V17.8344C102.629 18.3592 102.458 18.8033 102.115 19.1666C101.771 19.5098 101.337 19.6814 100.813 19.6814C100.288 19.6814 99.8538 19.5098 99.5106 19.1666C99.1876 18.8235 99.0161 18.3895 98.9959 17.8646C98.4912 18.45 97.8049 18.9547 96.9369 19.3786C96.0891 19.7823 95.1908 19.9842 94.2421 19.9842C92.8492 19.9842 91.5876 19.6309 90.4572 18.9244C89.3268 18.1977 88.4285 17.1985 87.7623 15.9268C87.1164 14.6551 86.7934 13.2118 86.7934 11.5969C86.7934 9.982 87.1164 8.5387 87.7623 7.26697C88.4083 5.97507 89.2864 4.97586 90.3966 4.26935C91.527 3.54265 92.7685 3.1793 94.1209 3.1793C95.0899 3.1793 95.9982 3.36098 96.8461 3.72432C97.6939 4.06749 98.4105 4.51158 98.9959 5.0566V5.02632C98.9959 4.50149 99.1675 4.06749 99.5106 3.72432C99.8538 3.36098 100.288 3.1793 100.813 3.1793ZM94.6962 16.6535C96.0083 16.6535 97.0782 16.1791 97.9058 15.2304C98.7335 14.2614 99.1473 13.0503 99.1473 11.5969C99.1473 10.1435 98.7335 8.93232 97.9058 7.96339C97.0782 6.99446 96.0083 6.51 94.6962 6.51C93.4043 6.51 92.3446 6.99446 91.5169 7.96339C90.6893 8.93232 90.2755 10.1435 90.2755 11.5969C90.2755 13.0503 90.6792 14.2614 91.4867 15.2304C92.3143 16.1791 93.3842 16.6535 94.6962 16.6535Z" fill="#595C7A"/>
<path d="M105.628 17.1682C105.447 16.926 105.356 16.6232 105.356 16.2599C105.356 15.735 105.618 15.2909 106.143 14.9276C106.426 14.7459 106.718 14.6551 107.021 14.6551C107.445 14.6551 107.849 14.8468 108.232 15.2304C108.838 15.8561 109.464 16.3204 110.11 16.6232C110.776 16.926 111.573 17.0774 112.502 17.0774C114.076 17.0168 114.864 16.4213 114.864 15.2909C114.864 14.7055 114.591 14.2614 114.046 13.9586C113.521 13.6559 112.694 13.3531 111.563 13.0503C110.392 12.7273 109.433 12.4043 108.687 12.0813C107.96 11.7584 107.324 11.2739 106.779 10.6279C106.254 9.96181 105.992 9.07362 105.992 7.96339C105.992 6.99446 106.264 6.15674 106.809 5.45023C107.374 4.72353 108.101 4.16842 108.989 3.78488C109.898 3.38116 110.857 3.1793 111.866 3.1793C112.895 3.1793 113.925 3.37107 114.954 3.7546C115.984 4.13814 116.791 4.70335 117.377 5.45023C117.639 5.77321 117.77 6.13656 117.77 6.54028C117.77 7.00456 117.579 7.38809 117.195 7.69088C116.912 7.91293 116.589 8.02395 116.226 8.02395C115.782 8.02395 115.419 7.88265 115.136 7.60004C114.773 7.15595 114.298 6.8027 113.713 6.54028C113.148 6.27786 112.502 6.14665 111.775 6.14665C110.241 6.14665 109.474 6.70177 109.474 7.812C109.474 8.25609 109.615 8.61944 109.898 8.90204C110.18 9.16446 110.534 9.37642 110.958 9.5379C111.402 9.67921 112.017 9.86088 112.805 10.0829C113.895 10.3857 114.803 10.6986 115.53 11.0216C116.256 11.3446 116.872 11.8391 117.377 12.5053C117.881 13.1714 118.134 14.0495 118.134 15.1395C118.134 16.1286 117.841 16.9966 117.256 17.7435C116.67 18.4702 115.913 19.0253 114.985 19.4089C114.076 19.7924 113.138 19.9842 112.169 19.9842C110.836 19.9842 109.595 19.7621 108.444 19.318C107.294 18.8739 106.355 18.1573 105.628 17.1682Z" fill="#595C7A"/>
<path d="M128.986 16.2599C129.269 16.2599 129.521 16.4012 129.743 16.6838C129.986 16.9462 130.107 17.2994 130.107 17.7435C130.107 18.2886 129.804 18.7528 129.198 19.1364C128.613 19.4997 127.947 19.6814 127.2 19.6814C125.948 19.6814 124.889 19.419 124.021 18.8941C123.173 18.3491 122.749 17.2086 122.749 15.4726V7.11558H121.356C120.872 7.11558 120.468 6.95409 120.145 6.63111C119.822 6.30814 119.66 5.90442 119.66 5.41995C119.66 4.95567 119.822 4.57214 120.145 4.26935C120.468 3.94637 120.872 3.78488 121.356 3.78488H122.749V1.84702C122.749 1.32219 122.92 0.888186 123.264 0.545023C123.627 0.181674 124.071 0 124.596 0C125.101 0 125.524 0.181674 125.868 0.545023C126.211 0.888186 126.382 1.32219 126.382 1.84702V3.78488H128.532C129.017 3.78488 129.42 3.94637 129.743 4.26935C130.066 4.59232 130.228 4.99605 130.228 5.48051C130.228 5.94479 130.066 6.33842 129.743 6.66139C129.42 6.96418 129.017 7.11558 128.532 7.11558H126.382V15.3212C126.382 15.7451 126.493 16.058 126.715 16.2599C126.937 16.4415 127.24 16.5324 127.624 16.5324C127.785 16.5324 128.007 16.492 128.29 16.4113C128.532 16.3103 128.764 16.2599 128.986 16.2599Z" fill="#595C7A"/>
<path d="M147.95 11.2033C147.93 11.6877 147.738 12.0813 147.375 12.3841C147.011 12.6869 146.587 12.8383 146.103 12.8383H136.111C136.353 14.0293 136.908 14.9679 137.776 15.6543C138.644 16.3204 139.623 16.6535 140.713 16.6535C141.541 16.6535 142.187 16.5828 142.651 16.4415C143.115 16.28 143.479 16.1186 143.741 15.9571C144.024 15.7754 144.216 15.6543 144.317 15.5937C144.68 15.412 145.023 15.3212 145.346 15.3212C145.77 15.3212 146.133 15.4726 146.436 15.7754C146.739 16.0782 146.89 16.4314 146.89 16.8352C146.89 17.3802 146.608 17.8747 146.042 18.3188C145.477 18.7831 144.72 19.1767 143.771 19.4997C142.823 19.8227 141.864 19.9842 140.895 19.9842C139.199 19.9842 137.716 19.6309 136.444 18.9244C135.192 18.2179 134.224 17.249 133.537 16.0176C132.851 14.7661 132.508 13.3632 132.508 11.8088C132.508 10.0728 132.871 8.54879 133.598 7.2367C134.324 5.9246 135.283 4.92539 136.474 4.23907C137.665 3.53256 138.937 3.1793 140.289 3.1793C141.622 3.1793 142.873 3.54265 144.044 4.26935C145.235 4.99605 146.184 5.97507 146.89 7.20642C147.597 8.43776 147.95 9.77004 147.95 11.2033ZM140.289 6.51C137.948 6.51 136.565 7.61014 136.141 9.81042H144.074V9.59846C143.994 8.75065 143.58 8.02395 142.833 7.41837C142.086 6.81279 141.238 6.51 140.289 6.51Z" fill="#595C7A"/>
<path d="M152.585 19.6511C152 19.6511 151.545 19.4997 151.223 19.1969C150.92 18.8739 150.768 18.4198 150.768 17.8344V17.3196C150.768 16.7342 150.92 16.2901 151.223 15.9873C151.545 15.6644 152 15.5029 152.585 15.5029H152.979C153.564 15.5029 154.008 15.6644 154.311 15.9873C154.634 16.2901 154.795 16.7342 154.795 17.3196V17.8344C154.795 18.4198 154.634 18.8739 154.311 19.1969C154.008 19.4997 153.564 19.6511 152.979 19.6511H152.585Z" fill="#595C7A"/>
<path fill-rule="evenodd" clip-rule="evenodd" d="M162.251 0.756989C165.336 0.756989 166.207 3.01027 167.314 3.73453C168.343 3.01027 169.213 0.756989 172.378 0.756989C175.463 0.756989 177.916 3.33216 177.995 6.55113C178.232 11.2186 170.321 18.3004 167.314 20.3122C164.229 18.3004 156.397 11.2186 156.555 6.55113C156.713 3.33216 159.086 0.756989 162.251 0.756989Z" fill="#CC6E6B"/>
</svg>
