<svg viewBox="0 0 174 120" fill="none" xmlns="http://www.w3.org/2000/svg">
<path fill-rule="evenodd" clip-rule="evenodd" d="M77.283 0C96.1137 0 101.425 13.6423 108.185 18.0273C114.462 13.6423 119.773 0 139.086 0C157.917 0 172.885 15.5912 173.368 35.0801C174.817 63.3391 126.533 106.215 108.185 118.395C89.354 106.215 41.5529 63.3391 42.5186 35.0801C43.4842 15.5912 57.9694 0 77.283 0Z" fill="#CC6E6B"/>
<path d="M15.7896 120C10.7019 120 6.75445 118.686 3.94743 116.058C1.31585 113.255 0 109.314 0 104.234V99.7664C0 94.6861 1.31585 90.8321 3.94743 88.2044C6.75445 85.4015 10.7019 84 15.7896 84H19.2107C24.2984 84 28.158 85.4015 30.7896 88.2044C33.5966 90.8321 35 94.6861 35 99.7664V104.234C35 109.314 33.5966 113.255 30.7896 116.058C28.158 118.686 24.2984 120 19.2107 120H15.7896Z" fill="#595C7A"/>
</svg>
