<svg xmlns="http://www.w3.org/2000/svg" viewBox="0 0 100 100"><defs><style>.cls-1{fill:#927a6e;}.cls-2{fill:#8c7366;}.cls-3{fill:#988277;}.cls-4{fill:#978075;}.cls-5{fill:#c7bab4;}.cls-6{fill:#c2b4ad;}.cls-7{fill:#a69389;}.cls-8{fill:#c3b6af;}.cls-9{fill:#baaba4;}.cls-10{fill:#b8a8a0;}.cls-11{fill:#b1a098;}.cls-12{fill:#c0b2ab;}.cls-13{fill:#a49086;}.cls-14{fill:#bdafa7;}.cls-15{fill:#aa978e;}.cls-16{fill:#a28e84;}.cls-17{fill:#b3a39b;}.cls-18{fill:#9b857b;}.cls-19{fill:#a08c82;}.cls-20{fill:#90786c;}.cls-21{fill:#9f897f;}.cls-22{fill:#ae9c93;}.cls-23{fill:#b9a9a2;}.cls-24{fill:#b6a69e;}.cls-25{fill:#bcada6;}</style></defs><g id="Ebene_9" data-name="Ebene 9"><path class="cls-1" d="M54.88,99.11h-.26c-.1-.12-.22-.34-.32-.34s-.3.17-.46.27c-1.55-.09-3.1-.23-4.65-.27a13.64,13.64,0,0,0-1.76.27,19.6,19.6,0,0,1-2.41.21c-1.08,0-2.16-.11-3.25-.17l-.18-.54-.3.45-1.41.23a4.32,4.32,0,0,0-3.22-.09c-.5-.1-.87-.2-1.26-.24-.63-.07-1.24.31-1.93,0-.19-.09-.75.11-1.16,0-.05,0-.14.17-.21.26L31.84,99l-.38-.15a1.21,1.21,0,0,0-1.95.26l-.26-.05c0-.52-.41-.3-.67-.34s-.58-.06-.91-.09a6.59,6.59,0,0,0,2-1A5.11,5.11,0,0,0,31,95.15a2.56,2.56,0,0,1,.51-.84c.15-.22.36-.39.49-.62s.9-.35.73-1a2.46,2.46,0,0,1,0-1.08,7.53,7.53,0,0,1,.57-1.42,6.43,6.43,0,0,1,.49-.71l.22.1A3.88,3.88,0,0,1,34,87.48a8.52,8.52,0,0,0,.32-2.3c0-.31.21-.6.22-.91,0-.57-.09-1.15-.05-1.72s.25-.91.31-1.37A12,12,0,0,0,35,78.4a10.1,10.1,0,0,1,.38-3q.09-.51.15-1c0-.24,0-.49,0-.74.06-.76.43-1.51.06-2.29,0-.08.14-.26.21-.4,1.08,0,1.38.56,1,1.74.33,0,1.44-1,1.42-1.32a2.68,2.68,0,0,0-.1-.76.55.55,0,0,0-.43-.22,3,3,0,0,0-.57.15s-.13-.23-.1-.25.36-.25.54-.38l.44-.33-.31-.35-.48-1.66a2,2,0,0,0,1.66-1.47l.46.42-.17,1.38.28.09a2,2,0,0,1,.59-1s.17.07.26.11c-.09.14-.18.28-.26.42a1,1,0,0,0-.07.18c-.21.63-.43,1.26-.68,2,.24.14,1.18-.16.7.73l.62.44c-.47.24-.84.42-1.18.61-.1.06-.23.19-.21.26a.55.55,0,0,0,.23.33c.23.15.48.26.87.47.06,0,.43-.06.11-.51a.54.54,0,0,1-.05-.49c.41-.62,1.08-1,1.3-1.8,0,0,.2,0,.29-.1a2.17,2.17,0,0,0,.3-.23l-.08-.18L41,69.58l.51-1.87c1,.29.73,1.55,1.42,1.94L44,69.5l.52,1.82h.83l-.39,1.16-.13.52a1.2,1.2,0,0,0-.59,1.31.56.56,0,0,1-.14.38,1.2,1.2,0,0,0-.31,1.23c.09.32.14.66.22,1l-.48-.15a7,7,0,0,1,0,1.66,1.08,1.08,0,0,0,.43,1.22,3.46,3.46,0,0,1,1.3,2.4c0,.32-.16.65-.14,1,0,.57.22,1.12.24,1.69,0,1,0,2.07,0,3.1,0,.15.14.3.19.45A7.46,7.46,0,0,1,46,89.75c.12.93.1,1.87.2,2.8.12,1.15.46,1.37,1.64,1.19a.76.76,0,0,1,.83.9,9.42,9.42,0,0,0-.14,1.29.54.54,0,0,0,.76.59,1.49,1.49,0,0,1,1.49.29,2.79,2.79,0,0,0,1.85.49,3.88,3.88,0,0,0,1.1-.31c.27-.06.45-.3.67-.5a.45.45,0,0,1,.38-.13.89.89,0,0,1,.41.36,3.41,3.41,0,0,1,.31.74c.13.4.22.81.33,1.21l-.26-.07ZM42.75,71.18l0-.2-.54-.12,0,.24Zm0-1.48a1.33,1.33,0,0,0-.09.35c0,.07.06.13.1.2a.83.83,0,0,0,.21-.16S42.88,70,42.72,69.7ZM38,67.86s.08,0,.1,0,0-.07.05-.1-.08,0-.1,0S38,67.82,38,67.86Z"/><path class="cls-2" d="M35.85,70.93c-.07.14-.25.32-.21.4.37.78,0,1.53-.06,2.29,0,.25,0,.5,0,.74s-.09.68-.15,1a10.1,10.1,0,0,0-.38,3,12,12,0,0,1-.22,2.78c-.06.46-.28.91-.31,1.37s.07,1.15.05,1.72c0,.31-.18.6-.22.91a8.52,8.52,0,0,1-.32,2.3,3.88,3.88,0,0,0-.05,2.08l-.22-.1a6.43,6.43,0,0,0-.49.71,7.53,7.53,0,0,0-.57,1.42,2.46,2.46,0,0,0,0,1.08c.17.67-.52.66-.73,1s-.34.4-.49.62a2.56,2.56,0,0,0-.51.84,5.11,5.11,0,0,1-1.29,2.52,6.59,6.59,0,0,1-2,1c.33,0,.62,0,.91.09s.66-.18.67.34a18.38,18.38,0,0,0-2.57,0,25.92,25.92,0,0,0-2.86.7l-.55-.44.42-.58c.17,0,.4,0,.49.08.6.66,1,.1,1.48-.18.14-.08.46-.09.52,0,.31.44.64.11.92,0a.66.66,0,0,0,.18-.59,1.06,1.06,0,0,0-.56-.58,3.07,3.07,0,0,1-1.84-1.25l-.93-.1a3.24,3.24,0,0,0,.11-.75,1.46,1.46,0,0,0-.25-.52,3.17,3.17,0,0,0-.61.39c-.08.07-.07.3,0,.43.17.49-.11.79-.4,1.11l-.09.1-.08-1.14,0-.53.1-.67,0-.36.79-.26.37-1.23-.51-.19L23.84,91l-.19-.28.53-.85c.27-1.5.53-3,.8-4.5.05-.27.26-.54.22-.79-.11-.84.23-1.63.15-2.49a2.43,2.43,0,0,1,.47-2c.08-.1-.06-.41-.1-.62a8.46,8.46,0,0,1-.27-1.29,10.37,10.37,0,0,1,.16-1.45,9.81,9.81,0,0,0,.08-1.08c0-.41-.08-.83-.13-1.24l0-.25a2.91,2.91,0,0,1,0-.31l.24-2.27,0-.27.35-2.86c.31,0,.5.05.59.41,0,.16.42.23.65.33a1.64,1.64,0,0,0,0-.66c-.27-.61-.85-.44-1.35-.46l.14-.38c.21-.12.76-.08.23-.52v-.52l.18-.1-.3-.16h0l.41-.28L26.35,66v-.25h.2l.61.23a2.33,2.33,0,0,0,1,2.16c.16-.15.3-.38.49-.44.42-.13.87-.19,1.3-.28s.65-.27.63-.74,0-1,0-1.55A1.15,1.15,0,0,1,31.78,64a17.21,17.21,0,0,1,2,.57c-.18.73.17.87.76.71l.26.26.47,1-.5.4.64.37-.17,0c0,.37-.15.9,0,1.06.52.48.29,1.13.57,1.64Zm-1.27-2.1.23-.06-.13-.39c-.07,0-.2.06-.2.08S34.55,68.71,34.58,68.83Zm.08,7.72s-.06.08,0,.1.07,0,.11,0,.05-.08,0-.1S34.69,76.56,34.66,76.55Zm-1,10.4s-.08,0-.11,0,0,.06,0,.1.08,0,.11,0S33.59,87,33.61,87Z"/><path class="cls-2" d="M54.88,99.11l.71-.51.26.07c-.11-.4-.2-.81-.33-1.21a3.41,3.41,0,0,0-.31-.74.89.89,0,0,0-.41-.36.45.45,0,0,0-.38.13c-.22.2-.4.44-.67.5a3.88,3.88,0,0,1-1.1.31,2.79,2.79,0,0,1-1.85-.49,1.49,1.49,0,0,0-1.49-.29.54.54,0,0,1-.76-.59,9.42,9.42,0,0,1,.14-1.29.76.76,0,0,0-.83-.9c-1.18.18-1.52,0-1.64-1.19-.1-.93-.08-1.87-.2-2.8a7.46,7.46,0,0,0-.51-1.46c0-.15-.19-.3-.19-.45,0-1,0-2.07,0-3.1,0-.57-.2-1.12-.24-1.69,0-.31.16-.64.14-1a3.46,3.46,0,0,0-1.3-2.4,1.08,1.08,0,0,1-.43-1.22,7,7,0,0,0,0-1.66L44,77c-.08-.38-.13-.72-.22-1a1.2,1.2,0,0,1,.31-1.23.56.56,0,0,0,.14-.38A1.2,1.2,0,0,1,44.79,73c.28-.08.55-.16.72.23.06.13.29.19.44.29v.39c-.34.33-.35,1.25,0,1.37a3,3,0,0,0,.86.09l-.48.74c-.17.25-.32.51-.53.84.2.19-.1.88.63,1.1a2.21,2.21,0,0,1,0-.38,1.73,1.73,0,0,1,.1-.45s.25,0,.27,0a1.86,1.86,0,0,1,.13.46c0,.2.08.4.1.6s.14.56,0,.73c-.25.41-.07.68.13,1a2.93,2.93,0,0,1,.31.7c.11.34.18.7.29,1,0,.14.2.27.19.4,0,.62.57.85.81,1.3.41-.85-.14-1.49-.53-2s-.08-.58.2-.74c.21.19.36.43.55.47a9.33,9.33,0,0,0,1.33.1c0-.1,0-.29,0-.48,0-.38.25-.49.5-.28.49.42,1.11.71,1.44,1.33.13.25.42.42.64.63l.43-.72c.7-.27.69.44.92.86l.57-.39.55,1,.59.65-.07.51c-.17.1-.46.17-.48.3a2.57,2.57,0,0,0,.05.82,1.8,1.8,0,0,0-.36-.14c-.11,0-.29,0-.33,0a.46.46,0,0,0-.08.4,2.77,2.77,0,0,0,.7,1.06c.53.32.43.7.35,1.14,0,.21-.19.43-.15.62a7.47,7.47,0,0,0,.43,1.07,10,10,0,0,1-.48.92c-.21.3-.42.54,0,.86a.69.69,0,0,1,.17.48,6.93,6.93,0,0,1,0,.91l.15.09c.18-.26.46-.49.51-.76.13-.66.62-1,1-1.41a2.21,2.21,0,0,1-.16.87.66.66,0,0,0,.45,1,2.14,2.14,0,0,1,.43.26l.28.36.24-.23.39-.13c.77.09,1.22-.45,1.72-.82a3,3,0,0,0,.75.33c.38.13.85-.13,1.16.41s.47.61,1-.12c.12.34.21.61.31.87.16.44.39.64.87.33s.84-.27,1.19.4c.1.18.47.4.63.35.66-.2,1.29-.51,1.94-.75a.7.7,0,0,1,.57.06c.12.1.12.37.13.56s-.08.2-.16.38h.72l0,.22-2,.52-.27-.81c-.72.27-1.44.47-2.09.79s-1.25.59-1.43,1.06c-.42,1.11-1.43,1-2.19,1.22a4.9,4.9,0,0,1-3.25-.06c-.15-.06-.37.09-.56.14a3.39,3.39,0,0,0,.74.42,3.35,3.35,0,0,1,.52.41l-.38,0c-.06-.07-.14-.21-.18-.2-.85.25-1.67.73-2.6.25-.06,0-.21.12-.32.18ZM57.46,99c.17-.27.37-.45.34-.56a2.51,2.51,0,0,0-.4-.6c-.14.13-.42.29-.4.37A3.89,3.89,0,0,0,57.46,99Zm6.41-4.38v.22l.65,0v-.19ZM46.56,83.25l.18-.2-.38-.31c0,.06-.13.17-.12.18S46.45,83.14,46.56,83.25Zm1,6.52c-.12-.07-.19-.14-.25-.14s-.13.12-.12.16a.26.26,0,0,0,.17.14S47.43,89.85,47.52,89.77Zm-1-.12s0-.08,0-.1-.06,0-.1,0,0,.08,0,.1S46.47,89.64,46.5,89.65Z"/><path class="cls-1" d="M59.41,98.85a3.35,3.35,0,0,0-.52-.41,3.39,3.39,0,0,1-.74-.42c.19,0,.41-.2.56-.14a4.9,4.9,0,0,0,3.25.06c.76-.24,1.77-.11,2.19-1.22.18-.47.9-.79,1.43-1.06s1.37-.52,2.09-.79l.27.81,2-.52,0-.22h-.72c.08-.18.16-.28.16-.38s0-.46-.13-.56a.7.7,0,0,0-.57-.06c-.65.24-1.28.55-1.94.75-.16,0-.53-.17-.63-.35-.35-.67-.58-.79-1.19-.4s-.71.11-.87-.33c-.1-.26-.19-.53-.31-.87-.53.73-.63.77-1,.12s-.78-.28-1.16-.41a3,3,0,0,1-.75-.33c-.5.37-1,.91-1.72.82-.08-1.15-.08-2.27,1-3.08-1-.37-1.07-.6-.6-1,.72.53,1,.57,1.18.06s.64-.86,0-1.28c0,0,0-.21.05-.44.36.34.63.61.92.85s.92-.1.86-.44L62,87.37l.41-.39.39-.39,1,.25-.37-1.3.67-.21-.33-.56a.42.42,0,0,1,0-.12l.65-.52c0,.08.1.16.09.24,0,.47-.08.94,0,1.41,0,.13.3.37.41.35a4.7,4.7,0,0,1,2.1.45c.36.08.72.18,1.08.27l1.16.13a6.4,6.4,0,0,1,.89.37c.33.19.58.3.81-.14.05-.11.24-.15.37-.23l.52-.51a2.38,2.38,0,0,1,3,0l.34-1.12-1,.14-.18-2.18c1.33-1.81,1.34-1.86.62-2.9l.65-.05.27.78c.11.52-.14,1.13.37,1.56a.25.25,0,0,0,0,.12v.39l-.61,0,0,.19.64.27c.08.4.14.81.24,1.21a2.66,2.66,0,0,0,.28.59h0l.24.52,0,.14.1.51V87l.1.66.13.29.19.12a.21.21,0,0,1,0,.1l.09.29.08.35a.69.69,0,0,0,.06,1.07l.07,2.56L76.61,92l.22-.05.21-.82c-.33.08-.9.09-1,.25a1,1,0,0,1-1,.81,1.94,1.94,0,0,1,.22,1.9c-.21-.85-.78-.43-1.34-.27l.5-.89c-.94,0-1.22.8-1.85,1-.06,0,0,.35,0,.62l.84-.56A10.52,10.52,0,0,1,74,95.26c-.91-.15-1.4.38-1.13,1.25l.92.07A11.94,11.94,0,0,1,74,95.26L75.21,95c0,.2.07.66,0,.72-.64.3-.56.79-.47,1.32a2.46,2.46,0,0,0-.08.46c0,.53,0,1.06.07,1.59-1.25.7-2.59.12-3.88.29l-1.23-.2-.08.41h-.24c-.16-.5-.42-.76-1-.51-.17.08-.42,0-.63,0l-2.22-.07-.73,0c-.84-.07-1.68-.4-2.49.08-.39-.25-.78-.56-1.23-.09Zm4.37-11.57.17.24L64.6,87l-.16-.22Zm-2.51,2.49v-.19l-.61,0v.14Zm14.2-3.25a1.69,1.69,0,0,0-.1.36.52.52,0,0,0,.11.19.8.8,0,0,0,.21-.15S75.62,86.79,75.47,86.52ZM59.8,98.36l-.1.18.39.18.08-.14Z"/><path class="cls-3" d="M71.19,87c-.13.08-.32.12-.37.23-.23.44-.48.33-.81.14a6.4,6.4,0,0,0-.89-.37,3.65,3.65,0,0,1,.19-.74c.31-.68.27-1.24-.43-1.6l.42-1,1.07.25.11-.92L70,82.66l.19-2,.92,1.09-.65.37.62.36L71,83l.12,0,.61-.82-.23-1.61.26-1,.34-.44-.6-.2c-.54-.3-.54-.46,0-1.17l1.06.41c-.19-.28-.38-.44-.39-.61,0-.55-.35-.68-.8-.71l.26-.25c.25-.1.71.37.74-.21s-.4-.45-.75-.44h-.64v-.38c.44-.15.54-.47.25-.85-.16-.19-.34-.36-.46-.49l.61-.71c-.55-.05-1,0-1.11-.63,0,0-.13-.11-.21-.12-.27-.07-.55-.12-.83-.17l.13-.17a2.5,2.5,0,0,0-.5-.72,4.5,4.5,0,0,0-1-.41v-.13l.31-.81-.53-.29c.35-.24.65-.62.91-.59.57.07.58-.38.74-.64s-.06-.47-.2-.62a.85.85,0,0,1-.15-1.2c.31-.47.5-1,0-1.38l.32-.79-2.31-.27a1.73,1.73,0,0,0-.42-.14c-.41,0-.83,0-1.25,0v-.63h.64l.27-.12h.25a5.55,5.55,0,0,1,1,.27c.37.19.39,0,.4-.27h.65c.86.16,1,0,1-.89l-.17-1.68.27-.24-.36-.16-.07-.5.51-.84L69,59.15l0-.25.2-.24L69,58.5,69,58.25l.52-.15-.21-.38h0l.1-.9c0-.05,0-.09,0-.13.34,0,.74-.35,1,.15.28,1.18.56,2.36.85,3.54.24.93.5,1.86.77,2.84l.6-.33,1.92.18.06,1.27c-.6.22-.93,1-1.73.82H72c.09.6.15,1.14.25,1.68s.23,1.08.35,1.62l.24,1.06c0,.43,0,.87,0,1.31a.73.73,0,0,0,1,.75h0l-.23,2,.61.32v.78a1.84,1.84,0,0,0-.14.56,5.27,5.27,0,0,0,.17,1c.09.36.21.72.32,1.09l.15,1.15.36.93,0,.36.13.27v.38h-.13l-.65.05c.72,1,.71,1.09-.62,2.9l.18,2.18,1-.14-.34,1.12a2.38,2.38,0,0,0-3,0l-.7-.82-.2.11.18.57C71.06,86.55,71.13,86.76,71.19,87Zm-.71-3-.09.22a3.76,3.76,0,0,1,.56.3,5,5,0,0,1,.5.53l.44.43-.33-1.35-.48,0Zm2.09.71,0-.28-.67,0,0,.23Zm.05-4-.21-.17c-.09.12-.2.24-.28.37s.1.1.16.16Zm-.42-1c-.09.1-.18.16-.17.2a.28.28,0,0,0,.14.18s.15-.08.15-.13S72.27,79.93,72.2,79.81Z"/><path class="cls-4" d="M83.59,37.7c-1.3.31-2.58.68-3.88.92-.83.14-1.7,0-2.54.13a2.44,2.44,0,0,1-2.28-.8c.12-.26.23-.52.35-.79l.48-.73.39-.48-.19-.12-.25.4c-.14-.14-.41-.28-.4-.42a7.77,7.77,0,0,1,.21-.93c.06-.41.11-.84-.35-1.09a.08.08,0,0,0,0-.07,12.21,12.21,0,0,1,3.49-1.57c1.52-.4,3-.95,4.51-1.44a5,5,0,0,0,1.61.43,1.49,1.49,0,0,1,1.12.22c.12.11.22.31.35.33a3.4,3.4,0,0,1,2,1.22l.68-.28.31,1.67L88,35.61v.24l-.14.4a2.51,2.51,0,0,0-1.92.54,1.45,1.45,0,0,1-.45.22C84.88,37.25,84.23,37.47,83.59,37.7Z"/><path class="cls-3" d="M25.18,36.41,25,36.35c0-.41-.24-.52-.6-.47a1.38,1.38,0,0,1-.56.08q-2.62-.72-5.25-1.49a9.47,9.47,0,0,1-1-.42c-.5-.49-1.42-.23-1.77-1,0,0-.08,0-.12,0-.86,0-1.42-.56-2.1-.93a9.64,9.64,0,0,0-1.07-.37,2.12,2.12,0,0,1-.51-.33c-.11-.09-.18-.21-.29-.3a5.4,5.4,0,0,1-.93-.76,1.58,1.58,0,0,1-.22-.94,3.57,3.57,0,0,1,.35-.9l-.16-.13,2.07-.83a4.13,4.13,0,0,1,1.06,0c1.06.36,2.11.77,3.15,1.19.51.2,1,.48,1.51.68,1.14.43,2.29.83,3.44,1.25,0,.47.08.81.65.8a.54.54,0,0,1,.33.19L24,33a1.49,1.49,0,0,1-.16.32.73.73,0,0,0,.2,1.16.66.66,0,0,0,.48.05c.06,0,.11-.24.1-.36,0-.35-.07-.69-.11-1.07l.7-.15-.09.76,1.72.77c.6.47.29,1.1.32,1.67l-.12.13Z"/><path class="cls-5" d="M67.06.68A4.74,4.74,0,0,1,67.9.63c.61.07,1.21.23,1.83.27A19.61,19.61,0,0,1,77.42,3c1.56.8,3.08,1.68,4.64,2.45a2.31,2.31,0,0,1,1.16,1.86,7.64,7.64,0,0,1,.24,1.32,7.26,7.26,0,0,1-.06,1.14,2.13,2.13,0,0,0,0,.5c.14.67.31,1.33.46,2,.37,1.73.83,3.44,1.09,5.18.3,2.08.42,4.18.62,6.28a.69.69,0,0,0-.87.42c-.11.28-.18.57-.27.86A6.89,6.89,0,0,1,84,23.84c-.17-1.06-.23-2.13-.43-3.18-.4-2.17-.83-4.33-1.32-6.48s-1.12-4.49-1.63-6.75A1.91,1.91,0,0,0,79.31,6a20.81,20.81,0,0,1-3.38-1.57,10.6,10.6,0,0,0-2.46-1c-.79-.26-1.6-.45-2.4-.67.17-.31.36-.45.7-.18.08.05.28-.07.43-.1,0-.14,0-.37-.12-.39-.37-.13-.76-.2-1.14-.3a3.46,3.46,0,0,0-.53-.14,7.34,7.34,0,0,0-1.24,0c-.13,0-.23.27-.38.44-.06-.06-.14-.21-.26-.26a2,2,0,0,0-.5-.06,1.53,1.53,0,0,0,.19.45,3.29,3.29,0,0,0,.52.46c-.69.2-1.15-.31-1.69-.55Z"/><path class="cls-5" d="M75.09,33.72a.08.08,0,0,1,0,.07,3.21,3.21,0,0,1-1.68,1.27,4,4,0,0,1,.5,1.4c0,.7.36.62.85.67l-.43-.68c.33,0,.68-.11.73,0a1.86,1.86,0,0,1,.14.73c-.12.27-.23.53-.35.79l-.45-.41-.2,0c0,.45,0,.9,0,1.34,0,.17,0,.34,0,.51-.08,1.43-.18,2.85-.26,4.28a3.13,3.13,0,0,1-.41,1.82A3,3,0,0,0,73.41,47c-.06,1.33-.13,2.65-.13,4,0,.92.15,1.84.19,2.76,0,.51-.08,1-.08,1.53s.06,1.11.1,1.67l-1.2-.13c-.07-1.07-.15-2.14-.21-3.22A25.48,25.48,0,0,1,71.94,48a23.66,23.66,0,0,0,.15-5.32A18,18,0,0,1,72,39.36a29.27,29.27,0,0,1,1-3.84c0-.14.15-.28.13-.41a13,13,0,0,1,.55-4.88c.35-1.66.76-3.3,1.16-4.94.06-.24.16-.47.24-.71.3.61.66.81,1.17.2.06-.06.2,0,.3-.05-.39,1.34-.84,2.68-1.16,4a21.23,21.23,0,0,0-.5,3.26A7.67,7.67,0,0,0,75.09,33.72Z"/><path class="cls-5" d="M20.45,3.62a9.68,9.68,0,0,1,4.12-1.5c1.12-.18,2.23-.4,3.35-.6.14,0,.29,0,.43,0,.48-.07.95-.12,1.42-.23s1-.31,1.49-.48.88-.4,1.33-.51A6.62,6.62,0,0,1,33.93.15a23.4,23.4,0,0,0,3.84,0c1.88-.34,3.63.22,5.43.38.71.06,1.42,0,2.12.13,1.8.25,3.59.55,5.39.8a9.59,9.59,0,0,0,1.2,0,2.06,2.06,0,0,1-1.82.64,1.3,1.3,0,0,0-1.8.32l-1.06-.6-.14.2.68.7-.63-.08c-2.08-.27-4.17-.44-6.23-.84a20.58,20.58,0,0,0-5.53-.45A13.34,13.34,0,0,1,33.62.76c-.59-.26-.81.18-.93.49a6.35,6.35,0,0,0-.2,1.46l-.4-1.11a6.09,6.09,0,0,0-1.58-.15A7.7,7.7,0,0,0,27,2.61a4.32,4.32,0,0,1-1.58.64c-.6.14-1.25.08-1.84.21a6.34,6.34,0,0,0-3.76,2.28,2.5,2.5,0,0,1,0-.67C20.06,4.58,20.27,4.1,20.45,3.62Z"/><path class="cls-6" d="M12.05,23.43c.65-2.62,1.29-5.24,2-7.85.49-1.87.92-3.76,1.59-5.56a23,23,0,0,1,2-3.52c.05-.09.17-.12.26-.18.37.76,1,.34,1.59.41a2.53,2.53,0,0,1-.19.68c-.54.94-1.09,1.88-1.69,2.79a13.41,13.41,0,0,0-1.24,3.52,11.75,11.75,0,0,0-.4,1.55c-.21,1.11-.31,2.25-.6,3.34-.44,1.72-1,3.41-1.52,5.1a5.18,5.18,0,0,1-.3.63l-1-.61C12.32,23.64,12.18,23.53,12.05,23.43Z"/><path class="cls-7" d="M25.18,36.41l1.87-.17.19.27.23.59.28,3.34-.56.27c.75.41,1,.91.54,1.61-.09.14.06.41.1.66l.91-.4c.23.24.57.45.61,0,.06-.91.47-1.31,1.36-1.24h.06l-.12,2a3.26,3.26,0,0,0-.55,3,2.27,2.27,0,0,1,0,.82,5.61,5.61,0,0,0-.06.59c0,.57.08,1.15.12,1.72,0,.23,0,.46,0,.69a1.84,1.84,0,0,1-.32-.5c-.12-.55-.18-1.11-.28-1.66-.06-.31-.15-.6-.24-.93l.44-.28-1-1.86-.09,1.18a6.13,6.13,0,0,0-.76-.41c-.05,0-.22.17-.23.27,0,.35,0,.69,0,1.16a5.21,5.21,0,0,1,.44-.29l.57-.26a3,3,0,0,1,.05.73,3.52,3.52,0,0,1-.32.77c-.2,0-.72-.49-.81.28-.07,0-.19-.09-.2-.14-.06-.56-.09-1.12-.18-1.68-.06-.37-.2-.73-.29-1.09a6.56,6.56,0,0,0-.29-1.12c-.18-.38.16-.93-.39-1.18Z"/><path class="cls-8" d="M72.88,69.51l-.24-1.06c.44.1.42-.25.41-.47,0-1-.13-1.89-.21-2.83.8.19,1.13-.6,1.73-.82.21,1.16.49,2.32.61,3.49.13,1.35,0,2.71.16,4.06.09,1,.37,2,.53,3a35.23,35.23,0,0,1,.64,6.56h-.4L76,80.8l-.54,0-.15-.38V80c0-.09-.09-.18-.13-.27s0-.24,0-.36l-.36-.93-.15-1.15c.14-.57.27-1.14.36-1.49-.27-.33-.43-.51-.56-.71a1.93,1.93,0,0,1-.15-.4c0-.26,0-.52,0-.78,0-.72,0-1.44-.08-2.16,0-.06-.2-.12-.3-.18h0c0-.48-.21-1.07.61-1.13C74,70,73.63,69.39,72.88,69.51Z"/><path class="cls-9" d="M12.05,23.43c.13.1.27.21.41.3l1,.61c0,.23-.05.47-.1.7-.17.83-.36,1.66-.54,2.49l-2.07.83.16.13a3.57,3.57,0,0,0-.35.9,1.58,1.58,0,0,0,.22.94,5.4,5.4,0,0,0,.93.76c.11.09.18.21.29.3a2.12,2.12,0,0,0,.51.33,9.64,9.64,0,0,1,1.07.37c.68.37,1.24,1,2.1.93,0,0,.11,0,.12,0,.35.76,1.27.5,1.77,1a2.43,2.43,0,0,1-2.27-.37l-.06.4c-1.39-.53-2.88-.86-4-1.94a7.28,7.28,0,0,0-.94-.68,2.15,2.15,0,0,1-.44-3,8,8,0,0,0,1.56-3.18C11.63,24.64,11.84,24,12.05,23.43Z"/><path class="cls-4" d="M74,95.26l-.56-1.18-.84.56c0-.27,0-.6,0-.62.63-.25.91-1.09,1.85-1l-.5.89c.56-.16,1.13-.58,1.34.27a1.94,1.94,0,0,0-.22-1.9,1,1,0,0,0,1-.81c0-.16.62-.17,1-.25l-.21.82-.22.05.91.38c.08.7.19,1.4.24,2.11a2.52,2.52,0,0,1-.16.74c0,.13,0,.26,0,.4l0,.24c-.09.1-.27.19-.27.28,0,.63-.48.68-.89.75-.57.09-1.17.1-1.75.14-.09-.53-.17-1,.47-1.32.12-.06,0-.52,0-.72Z"/><path class="cls-10" d="M47.77,2.69,47.09,2l.14-.2,1.06.6a1.3,1.3,0,0,1,1.8-.32,2.06,2.06,0,0,0,1.82-.64H52l.13.77,1.31-.08L53,2.62l1.58-.34c-.16.87.69.09.88.52l1.09-.62L57,2.5l.18-.42h1.33l-.22.58-1.07.19s0,.18,0,.28c0,.41-.14.65-.6.64-.1,0-.21.2-.31.3l-4-.19a.75.75,0,0,0-.64-.57c-.71-.19-1.57.23-2.15-.49L49.31,3Zm2.29-.09.11-.14s-.09-.09-.12-.08-.08.08-.12.12Z"/><path class="cls-5" d="M58.24,2.66l.22-.58H57.13L57,2.5l-.39-.32-1.09.62c-.19-.43-1,.35-.88-.52L53,2.62l.47-.51-1.31.08L52,1.42c1.8,0,3.6,0,5.4-.12.78,0,1.55-.35,2.32-.38,1,0,2,.06,3.06.11,0,.21-.11.43-.16.65-.28.12-.64.18-.52.63a2.83,2.83,0,0,1-.56.13Z"/><path class="cls-9" d="M26.2,43.09c.55.25.21.8.39,1.18a6.56,6.56,0,0,1,.29,1.12c.09.36.23.72.29,1.09.09.56.12,1.12.18,1.68,0,.05.13.09.2.14a1.94,1.94,0,0,1,0,.24l.12.39.12,1.16-.08.79-.05,1.39-.1.41v.26l0,.39V54l.12.51v.65l-.12.65v.38c-.1.35-.39.69,0,1h0c0,.09.07.18.1.27l-.25.65-.22.66,0,.37-.35.79c0-1.49,0-3,0-4.46,0-2,0-4.07-.13-6.1-.09-1.85-.33-3.68-.49-5.52A5,5,0,0,1,26.2,43.09Z"/><path class="cls-11" d="M84.4,25c.09-.29.16-.58.27-.86a.69.69,0,0,1,.87-.42c.18.56.36,1.12.53,1.68.19,1-.13,2,.41,2.9a2.48,2.48,0,0,0-.14,1.87l-.52,1.21a1.49,1.49,0,0,0-1.12-.22,5,5,0,0,1-1.61-.43l2.32-.1a4.62,4.62,0,0,0-.07-.7c-.22-1.08-.46-2.16-.7-3.24l.66-1.44a3.43,3.43,0,0,0-.6.22c-.11.06-.18.19-.27.29Z"/><path class="cls-12" d="M72.29,56.83l1.2.13v.52l.15.38a4.76,4.76,0,0,1,.77,3c0,.74.07,1.48.1,2.22l-1.92-.18-.27-4.64c.19.1.38.21.58.3l.58.26c-.2-.44-.44-.73-.44-1,0-.75,0-.78-.75-.57Z"/><path class="cls-13" d="M25.61,76.74a10.37,10.37,0,0,0-.16,1.45,8.46,8.46,0,0,0,.27,1.29c0,.21.18.52.1.62a2.43,2.43,0,0,0-.47,2c.08.86-.26,1.65-.15,2.49,0,.25-.17.52-.22.79-.27,1.5-.53,3-.8,4.5a7.25,7.25,0,0,1-.32-1.55c0-.78.24-1.56.34-2.34a11.55,11.55,0,0,0,0-1.18c0-.16,0-.33.05-.49l.49-.16-.21-1.2,0-.22c.08-.12.22-.23.23-.36.1-.75.18-1.5.22-2.25a4,4,0,0,0-.13-.9c0-.07,0-.15,0-.22s.26-.07.27-.12c.07-.48.12-1,.16-1.45,0,0-.12-.09-.19-.14s.05-.24.07-.35Z"/><path class="cls-12" d="M15.27,34.08l.06-.4a2.43,2.43,0,0,0,2.27.37,9.47,9.47,0,0,0,1,.42q2.63.77,5.25,1.49a1.38,1.38,0,0,0,.56-.08c.36-.05.6.06.6.47A6.62,6.62,0,0,1,21.48,36c-.41-.1-.85,0-1.26-.15-.65-.17-1.29-.4-1.92-.62C17.29,34.84,16.28,34.45,15.27,34.08Z"/><path class="cls-14" d="M83.59,37.7c.64-.23,1.29-.45,1.93-.69a1.45,1.45,0,0,0,.45-.22,2.51,2.51,0,0,1,1.92-.54l.14-.4v-.24a5.53,5.53,0,0,1,.92.07c.59.16.79-.1.77-.63l.84.55c-.22,1-.48,1.25-1.53,1.29a20.39,20.39,0,0,0-2.6.15,23.33,23.33,0,0,0-2.28.62A2.64,2.64,0,0,1,83.59,37.7Z"/><path class="cls-14" d="M86.34,30.15a2.48,2.48,0,0,1,.14-1.87c-.54-.87-.22-1.93-.41-2.9.39.11.4.46.56.75.5.92.24,2.09,1.05,2.89.14.14.14.44.2.66l.51,1.78c-.1,0-.28,0-.29-.07C87.8,30.55,86.92,30.57,86.34,30.15Z"/><path class="cls-14" d="M61,99c.45-.47.84-.16,1.23.09.81-.48,1.65-.15,2.49-.08l.73,0,2.22.07c.21,0,.46.09.63,0,.58-.25.84,0,1,.51a4.37,4.37,0,0,1-.86.13c-1.82-.08-3.64-.15-5.46-.29A12.72,12.72,0,0,1,61,99Z"/><path class="cls-15" d="M74.69,97.08c.58,0,1.18,0,1.75-.14.41-.07.9-.12.89-.75,0-.09.18-.18.27-.28l.4,1c-.69,1.38-2,1.84-3.32,2.25,0-.53-.06-1.06-.07-1.59A2.46,2.46,0,0,1,74.69,97.08Zm.52.77-.16.19.56.43.14-.18Z"/><path class="cls-16" d="M67.06.68V2.05a.81.81,0,0,0-1,.69,4.57,4.57,0,0,1-.81,1.19l-.78-.31.46-1.37c.19-.27.21-.46-.21-.44V1.45l.66-.62c.38-.17.75-.41,1.18-.08C66.66.82,66.89.71,67.06.68Z"/><path class="cls-12" d="M24.23,84.78a11.55,11.55,0,0,1,0,1.18c-.1.78-.31,1.56-.34,2.34a7.25,7.25,0,0,0,.32,1.55l-.53.85.19.28-.41,1.57-.29,1.27-.41.15c.11-.88.2-1.77.34-2.65.33-2.1.69-4.21,1.05-6.31A.8.8,0,0,1,24.23,84.78Z"/><path class="cls-7" d="M26.84,59.94c.12-.27.23-.53.35-.79.09.26.17.52.26.78l.12,1-.13.65c-.09.77-.18,1.54-.25,2.31,0,.09.09.18.13.28s.09.27.13.4L27,64.5l-.37-.12.15,1.24-.25.14h-.2c.07-.94.15-1.88.23-2.82S26.75,60.94,26.84,59.94Z"/><path class="cls-16" d="M86.34,30.15c.58.42,1.46.4,1.76,1.24,0,.05.19.05.29.07l.47,1.17-.68.28a3.4,3.4,0,0,0-2-1.22c-.13,0-.23-.22-.35-.33Z"/><path class="cls-13" d="M32.1,99.18c.07-.09.16-.27.21-.26.41.07,1-.13,1.16,0,.69.33,1.3,0,1.93,0,.39,0,.76.14,1.26.24a4.32,4.32,0,0,1,3.22.09c-1.56.08-3.12.22-4.68.23C34.16,99.46,33.13,99.28,32.1,99.18Z"/><path class="cls-17" d="M19.43,6.73c-.55-.07-1.22.35-1.59-.41a6.55,6.55,0,0,1,.81-1.27,22.58,22.58,0,0,1,1.8-1.43c-.18.48-.39,1-.55,1.45a2.5,2.5,0,0,0,0,.67Z"/><path class="cls-14" d="M76.11,81.42h.4A16.56,16.56,0,0,1,77,83.32c.12,1,.13,1.92.18,2.88h-.5l0-.14c0-.22.26-.55-.24-.52h0a5,5,0,0,0,0-.87c-.15-.62.07-1.34-.52-1.83a.25.25,0,0,1,0-.12c0-.17.19-.42.13-.5C75.69,81.86,76,81.66,76.11,81.42Z"/><path class="cls-18" d="M23.69,98.76l-.42.58.55.44c-1,.35-1.14.32-1.5-.35l0-.31.16-1.4.14-.25a4.49,4.49,0,0,1,.77.59A2.43,2.43,0,0,1,23.69,98.76Z"/><path class="cls-19" d="M64.72,1.45v.36l-.14.37-.51,0c-.07,0-.17-.1-.2-.08-.63.46-1,.13-1.21-.45.05-.22.11-.44.16-.65l1.12-.1.08.32.14.07.08-.4Z"/><path class="cls-7" d="M89.72,35.05c0,.53-.18.79-.77.63a5.53,5.53,0,0,0-.92-.07l1.14-1.31Z"/><path class="cls-1" d="M55.93,99.12c.11-.06.26-.21.32-.18.93.48,1.75,0,2.6-.25,0,0,.12.13.18.2l-3,.9Z"/><path class="cls-12" d="M24.9,79.2a4,4,0,0,1,.13.9c0,.75-.12,1.5-.22,2.25,0,.13-.15.24-.23.36,0-.31,0-.62,0-.92C24.7,80.92,24.8,80.06,24.9,79.2Z"/><path class="cls-1" d="M26.16,68.08c.5,0,1.08-.15,1.35.46a1.64,1.64,0,0,1,0,.66c-.23-.1-.6-.17-.65-.33-.09-.36-.28-.42-.59-.41Z"/><path class="cls-12" d="M25.61,76.74l-.39.18c.11-.84.23-1.67.34-2.5.05.41.12.83.13,1.24A9.81,9.81,0,0,1,25.61,76.74Z"/><path class="cls-2" d="M29.51,99.15a1.21,1.21,0,0,1,1.95-.26l-.54.3H29.64Z"/><path class="cls-17" d="M64.72,1.45,64.24.92l-.08.4L64,1.25,63.94.93l1.44-.1Z"/><path class="cls-12" d="M25.15,77.27c.07,0,.19.1.19.14,0,.49-.09,1-.16,1.45,0,0-.17.08-.27.12Z"/><path class="cls-12" d="M22.65,97.47l-.14.25c0-.64.06-1.29.1-1.93,0,.38.05.76.08,1.14C22.67,97.11,22.66,97.29,22.65,97.47Z"/><path class="cls-12" d="M24.56,82.93l.21,1.2-.49.16C24.38,83.84,24.47,83.38,24.56,82.93Z"/><path class="cls-14" d="M69.49,99.63l.08-.41,1.23.2Z"/><path class="cls-9" d="M76.86,87.64l-.1-.66.42-.15v1.22L77,87.93C77,87.83,76.9,87.74,76.86,87.64Z"/><path class="cls-9" d="M77.45,89.86a.69.69,0,0,1-.06-1.07Z"/><path class="cls-13" d="M30.92,99.19l.54-.3.38.15Z"/><path class="cls-9" d="M76.65,86.21h.5c0,.13,0,.26,0,.39l-.41.13Z"/><path class="cls-7" d="M26.53,66.66v.52l-.19.11,0-.9h.1Z"/><path class="cls-13" d="M41.29,99l.3-.45.18.54Z"/><path class="cls-2" d="M53.84,99.05c.16-.1.31-.26.46-.27s.22.22.32.34Z"/><path class="cls-18" d="M22.73,94l.41-.15.43.15-.79.26Z"/><path class="cls-1" d="M26.34,67.29l.19-.11c.53.44,0,.4-.23.52Z"/><path class="cls-12" d="M22.74,94.59l-.1.67Z"/><path class="cls-13" d="M29.64,99.18h0Z"/><path class="cls-1" d="M26.41,66.39h-.1l0-.37.47.09Z"/><path class="cls-14" d="M76.75,86.72l.41-.13,0,.24-.42.15Z"/><path class="cls-5" d="M73.64,57.86l-.15-.38Z"/><path class="cls-15" d="M77.55,95.67c0-.14,0-.27,0-.4C77.59,95.4,77.57,95.53,77.55,95.67Z"/><path class="cls-9" d="M77.31,88.44l-.09-.29Z"/><path class="cls-13" d="M25.91,71.32l0,.27Z"/><path class="cls-12" d="M25.64,73.86a2.91,2.91,0,0,0,0,.31A2.91,2.91,0,0,1,25.64,73.86Z"/><path class="cls-12" d="M22.35,99.12l0,.31Z"/><path class="cls-3" d="M35.85,70.93V70c.12-.31.36-.64.33-.93-.09-.89-.3-1.76-.45-2.64a.48.48,0,0,1,.06-.31c.32-.56,0-.68-.46-.66h-.52l-.26-.26a2.31,2.31,0,0,0,.4-1.95l2.71-.12h.13l1.81.22a1.29,1.29,0,0,1,.86.91.59.59,0,0,0,.42.36,8.27,8.27,0,0,0,2.34.28c1-.14,1.28.58,1.73,1.1a2.26,2.26,0,0,1,.42,1,11.26,11.26,0,0,1,.16,1.3c.05.32.11.63.16,1-.27-.28-.47-.32-.52.15l-.15,1,.12,0,.16.89h-.83L44,69.5l-1.07.15c-.69-.39-.47-1.65-1.42-1.94L41,69.58l1.26-.37.08.18a2.17,2.17,0,0,1-.3.23c-.09,0-.28,0-.29.1-.22.76-.89,1.18-1.3,1.8a.54.54,0,0,0,.05.49c.32.45-.05.47-.11.51-.39-.21-.64-.32-.87-.47a.55.55,0,0,1-.23-.33c0-.07.11-.2.21-.26.34-.19.71-.37,1.18-.61L40,70.41c.48-.89-.46-.59-.7-.73.25-.73.47-1.36.68-2a1,1,0,0,1,.07-.18c.08-.14.17-.28.26-.42-.09,0-.24-.13-.26-.11a2,2,0,0,0-.59,1l-.28-.09.17-1.38-.46-.42a2,2,0,0,1-1.66,1.47l.48,1.66.31.35-.44.33c-.18.13-.37.24-.54.38s.08.26.1.25a3,3,0,0,1,.57-.15.55.55,0,0,1,.43.22,2.68,2.68,0,0,1,.1.76c0,.31-1.09,1.34-1.42,1.32C37.23,71.49,36.93,71,35.85,70.93Z"/><path class="cls-2" d="M44.92,72.48l.39-1.16h0l.43.06.08.72-.13.38Z"/><path class="cls-20" d="M44.92,72.48h.77l.26,1c-.15-.1-.38-.16-.44-.29-.17-.39-.44-.31-.72-.23Z"/><path class="cls-3" d="M42.75,71.18l-.54-.08,0-.24.54.12Z"/><path class="cls-3" d="M42.72,69.7c.16.27.24.36.22.39a.83.83,0,0,1-.21.16c0-.07-.1-.13-.1-.2A1.33,1.33,0,0,1,42.72,69.7Z"/><path class="cls-3" d="M38,67.86s0-.09.05-.1.07,0,.1,0,0,.09-.05.1S38,67.88,38,67.86Z"/><path class="cls-1" d="M35,63.29a2.31,2.31,0,0,1-.4,1.95c-.59.16-.94,0-.76-.71a17.21,17.21,0,0,0-2-.57,1.15,1.15,0,0,0-1.23,1.18c0,.52,0,1,0,1.55s-.21.66-.63.74-.88.15-1.3.28c-.19.06-.33.29-.49.44a2.33,2.33,0,0,1-1-2.16l-.61-.23.25-.14,1.8-.33c-.83-.66-.81-.67,0-1.11.2-.1.25-.49.36-.75h0c.62.07,1.12,0,1.06-.84,0-.1.24-.27.4-.35.37-.18.74-.33,1.12-.5l.13,0,1,.15.37,0c0,.13.09.26.14.38s-.13.32-.08.42c.38.78.6.86,1.44.63a1.67,1.67,0,0,1,.32,0Z"/><path class="cls-1" d="M22.65,97.47c0-.18,0-.36,0-.54l.09-.1a4.72,4.72,0,0,0,.48.41,2.43,2.43,0,0,0,.47.19,4,4,0,0,0,.15-.49c0-.25.05-.51.07-.77l.93.1a3.07,3.07,0,0,0,1.84,1.25,1.06,1.06,0,0,1,.56.58.66.66,0,0,1-.18.59c-.28.07-.61.4-.92,0-.06-.08-.38-.07-.52,0-.47.28-.88.84-1.48.18-.09-.09-.32-.06-.49-.08a2.43,2.43,0,0,0-.27-.7A4.49,4.49,0,0,0,22.65,97.47Z"/><path class="cls-1" d="M34.82,65.5h.52c.5,0,.78.1.46.66a.48.48,0,0,0-.06.31c.15.88.36,1.75.45,2.64,0,.29-.21.62-.33.93-.28-.51,0-1.16-.57-1.64-.18-.16,0-.69,0-1.06l.17,0-.64-.37.5-.4Z"/><path class="cls-18" d="M24,96.17c0,.26,0,.52-.07.77a4,4,0,0,1-.15.49,2.43,2.43,0,0,1-.47-.19,4.72,4.72,0,0,1-.48-.41c.29-.32.57-.62.4-1.11-.05-.13-.06-.36,0-.43a3.17,3.17,0,0,1,.61-.39,1.46,1.46,0,0,1,.25.52A3.24,3.24,0,0,1,24,96.17Z"/><path class="cls-21" d="M23.57,94l-.43-.15c.1-.42.19-.85.29-1.27l.51.19Z"/><path class="cls-1" d="M34.58,68.83c0-.12-.08-.24-.1-.37s.13,0,.2-.08l.13.39Z"/><path class="cls-1" d="M34.66,76.55s.09,0,.1,0,0,.07,0,.1-.1,0-.11,0S34.64,76.58,34.66,76.55Z"/><path class="cls-1" d="M33.61,87s0,.09,0,.1-.07,0-.11,0,0-.09,0-.1S33.57,86.93,33.61,87Z"/><path class="cls-1" d="M26.53,66.66l-.12-.26.3.16Z"/><path class="cls-1" d="M46,73.52l-.26-1,.13-.38a2.11,2.11,0,0,0,.31-.67,4.55,4.55,0,0,0-.18-1c.34.06.68.11,1,.19a4,4,0,0,1,.66.24l.15-.67c-.47-.31-1.16-.18-1.18-.92h0s.09,0,.12,0c.57-.28,1.09-1.1,1.75-.14,0,0,.16,0,.25,0,.61,0,1.2.07,1.33-.86l.21.19L50,70.05l1-.3c-.06-.16-.07-.2-.09-.24s-.14-.34-.22-.51c.16,0,.36-.16.47-.11s.18.28.22.45.09.54.14.81l-.36.25c.13.19.34.37.33.53a1,1,0,0,0,.55,1c.36.25.51.54.11.94a.35.35,0,0,0,.19.63,11.29,11.29,0,0,0,1.17.17l.6-.53.38.78V74c-.51-.1-.59.31-.59.62s.24.44.38.66l.36-.47s.08,0,.12,0l.13.13.94,1.59-1.09,1.24.19.2c.2-.2.43-.38.61-.6s.55-.24.69.08a5.13,5.13,0,0,1,.33,1.16c.14.79-.38,1.4-.5,1.88l-1,.28c-.18.08-.35.15-.52.24a2.37,2.37,0,0,1-.77.37,11.13,11.13,0,0,1-1.58-.08L52,79.09c.28,0,.61.09.71,0a1,1,0,0,0,.19-.76c0-.13-.41-.18-.63-.26s-.7-.08-.82-.27c-.4-.63-.61-.38-.81.11-.38-.22-.8-.24-.87-.82s-.47-.48-.85-.16a1.1,1.1,0,0,1-1.21.28,3,3,0,0,0-.21-1,1.87,1.87,0,0,1-.34-.92,1.25,1.25,0,0,0-.39-.64c-.24-.27-.53-.51-.8-.76Zm7,.85-.31.17c0,.15-.16.35-.1.43a3.49,3.49,0,0,0,.66.77c.08.07.29,0,.44,0a2.24,2.24,0,0,0-.14-.36c-.09-.16-.23-.29-.32-.45A5,5,0,0,1,52.94,74.37Z"/><path class="cls-20" d="M46,73.91c.27.25.56.49.8.76a1.25,1.25,0,0,1,.39.64,1.87,1.87,0,0,0,.34.92,3,3,0,0,1,.21,1,1.1,1.1,0,0,0,1.21-.28c.38-.32.8-.29.85.16s.49.6.87.82c.2-.49.41-.74.81-.11.12.19.54.18.82.27s.6.13.63.26a1,1,0,0,1-.19.76c-.1.11-.43,0-.71,0l.17,2.21a11.13,11.13,0,0,0,1.58.08A2.37,2.37,0,0,0,54.5,81c.17-.09.34-.16.52-.24l.12.39c.18.5.59.54,1,.51l-.13.91a.57.57,0,0,1-.65.65l-.55-1-.57.39c-.23-.42-.22-1.13-.92-.86l-.43.72c-.22-.21-.51-.38-.64-.63-.33-.62-.95-.91-1.44-1.33-.25-.21-.49-.1-.5.28,0,.19,0,.38,0,.48a9.33,9.33,0,0,1-1.33-.1c-.19,0-.34-.28-.55-.47-.28.16-.57.2-.2.74s.94,1.2.53,2c-.24-.45-.81-.68-.81-1.3,0-.13-.15-.26-.19-.4-.11-.35-.18-.71-.29-1a2.93,2.93,0,0,0-.31-.7c-.2-.31-.38-.58-.13-1,.1-.17,0-.48,0-.73s-.06-.4-.1-.6a1.86,1.86,0,0,0-.13-.46s-.26,0-.27,0a1.73,1.73,0,0,0-.1.45,2.21,2.21,0,0,0,0,.38c-.73-.22-.43-.91-.63-1.1.21-.33.36-.59.53-.84l.48-.74a3,3,0,0,1-.86-.09C45.6,75.16,45.61,74.24,46,73.91Z"/><path class="cls-4" d="M62.39,87l-.41.39.47.21c.06.34-.6.66-.86.44s-.56-.51-.92-.85c0,.23-.09.41-.05.44.64.42.14.89,0,1.28s-.46.47-1.18-.06c-.47.43-.37.66.6,1-1.09.81-1.09,1.93-1,3.08l-.39.13-.13-.14v-.25l.13-.39c0-.25.1-.55,0-.73-.4-.7-.39-1.63-1.19-2.12-.16-.11-.22-.4-.31-.62-.18-.41-.33-.83-.5-1.25a1,1,0,0,1,0-.59,1.73,1.73,0,0,1,.17-.65c.52-.87.53-.86-.18-1.49,0,0,0,0,0-.06.51,0,1.27-.14,1.11.67a2.06,2.06,0,0,0,.72,2.07l.43.43a4.71,4.71,0,0,1,.07-1A1.34,1.34,0,0,1,61,86.06C61.47,86.28,62.23,86.18,62.39,87Z"/><path class="cls-20" d="M56.57,84.78s0,0,0,.06c.71.63.7.62.18,1.49a1.73,1.73,0,0,0-.17.65,1,1,0,0,0,0,.59c.17.42.32.84.5,1.25.09.22.15.51.31.62.8.49.79,1.42,1.19,2.12.11.18,0,.48,0,.73l-.13.39v.25h-.39a2.14,2.14,0,0,0-.43-.26.66.66,0,0,1-.45-1,2.21,2.21,0,0,0,.16-.87c-.42.42-.91.75-1,1.41,0,.27-.33.5-.51.76l-.15-.09a6.93,6.93,0,0,0,0-.91.69.69,0,0,0-.17-.48c-.42-.32-.21-.56,0-.86a10,10,0,0,0,.48-.92,3.18,3.18,0,0,0,.53.31c.28.09.59.38.89-.05a10.37,10.37,0,0,0-1.08-.57c-.06,0-.23.2-.34.31a7.47,7.47,0,0,1-.43-1.07c0-.19.11-.41.15-.62.08-.44.18-.82-.35-1.14a2.77,2.77,0,0,1-.7-1.06.46.46,0,0,1,.08-.4c0-.06.22-.06.33,0a1.8,1.8,0,0,1,.36.14,2.57,2.57,0,0,1-.05-.82c0-.13.31-.2.48-.3l.13.39Z"/><path class="cls-4" d="M56.05,84.78l-.13-.39.07-.51-.59-.65a.57.57,0,0,0,.65-.65l.84-.33c.51.78.43,1-.26,1.61A3.43,3.43,0,0,0,56.05,84.78Z"/><path class="cls-1" d="M57.46,99a3.89,3.89,0,0,1-.46-.79c0-.08.26-.24.4-.37a2.51,2.51,0,0,1,.4.6C57.83,98.57,57.63,98.75,57.46,99Z"/><path class="cls-1" d="M63.87,94.64h.65v.19l-.65,0Z"/><path class="cls-1" d="M46.56,83.25c-.11-.11-.22-.21-.32-.33s.08-.12.12-.18l.38.31Z"/><path class="cls-1" d="M58.12,92.94h.39l.13.14-.24.23Z"/><path class="cls-1" d="M47.52,89.77c-.09.08-.15.16-.2.16a.26.26,0,0,1-.17-.14s.07-.16.12-.16S47.4,89.7,47.52,89.77Z"/><path class="cls-1" d="M46.5,89.65s-.09,0-.1-.05,0-.07,0-.1.09,0,.1,0S46.52,89.62,46.5,89.65Z"/><path class="cls-18" d="M56.05,84.78a3.43,3.43,0,0,1,.58-.92c.69-.57.77-.83.26-1.61l-.84.33.13-.91c.24-.31.06-.46-.23-.5a5.46,5.46,0,0,0-.81,0L55,80.77l1-.28c.12-.48.64-1.09.5-1.88a5.13,5.13,0,0,0-.33-1.16c-.14-.32-.4-.44-.69-.08s-.41.4-.61.6l-.19-.2,1.09-1.24-.94-1.59.66,0v-1a6.44,6.44,0,0,0,.71-.38,1.69,1.69,0,0,0,.3-.49,3.76,3.76,0,0,1,.63.56,2.91,2.91,0,0,1,.33.75,2,2,0,0,1,.37-.25c.21,0,.42,0,.64-.08,0,.19-.08.39-.11.58a6.43,6.43,0,0,0-.17,1.29,12.81,12.81,0,0,0,.25,1.61l.6,0a3,3,0,0,0,.95,3,2.34,2.34,0,0,0,0,.94c0,.12.46.08.7.11l-.17-.18L61,79.86a4,4,0,0,0,.33-.24c.15-.12.28-.26.42-.39.09.19.3.43.25.56-.16.46.09.63.42.71.7.15.93.49.55,1.15,0,0,0,.07.1.16.37-.16,1,0,1-.67,0-.46-.07-1-.69-1.17-.14,0-.34-.19-.36-.32-.18-.92-.82-1-1.67-1,.67-.24.91-.65.71-1.28V77c.11,0,.23,0,.32,0s.39-.23.58-.35c-.14-.17-.25-.4-.43-.49s-.55-.06-.6.32l-.47-.1.15-.13-.2-.67V75.2l.92-1.06-.69,0,.41-.7.13-.39a1.29,1.29,0,0,1,1.23.87l-.69.37,1.91.72,0,.17-.48.14-.12,1.28c.62-.33,1.11-.48,1.41.22l-.83,1.14a.8.8,0,0,1-.05-.52c0-.17,0-.35,0-.53a8.06,8.06,0,0,0-1.1,0c-.12,0-.24.23-.28.38s.17.19.28.27c.33.29.67.57,1.11.94-1,0-1.25.14-1.18.83,0,.2.24.38.37.56a5.71,5.71,0,0,0,.39-.47,5.94,5.94,0,0,0,.27-.57l.17,0c0,.15,0,.31.08.46l.15.52a3,3,0,0,0,.44-.34c.32-.35,1-.38,1.19,0s.22.56.34.87l-.69.61a3.62,3.62,0,0,1,.74.12,1.52,1.52,0,0,1,.39.29l.1-.61.32-.22-.26-1.57.44-.2c-.16-.24-.4-.45-.39-.66s.26-.39.52-.75H66.31l1.6-.76-1.14-.77-.42.62c-.13-.23-.29-.4-.28-.56s.26-.22.43-.26c.45-.11.9-.18,1.41-.27,0,.53.21.64.78.34a1,1,0,0,1,.89.34c.18.34-.13.57-.52.62-.65.08-.47.48-.36.89,1.24-.6,1.58-1.63.86-2.44.32-.3.53-.27.87.07a5.24,5.24,0,0,0,.5.44V76l-.52-.08c-.24,1.07.92,2.3-.67,3,.84.34.7,1,.77,1.7h.94l.23,1.61-.61.82L71,83l.14-.53-.62-.36.65-.37-.92-1.09-.19,2,.47.27-.11.92L69.3,83.6l-.42,1c.7.36.74.92.43,1.6a3.65,3.65,0,0,0-.19.74L68,86.85l-.31-1.65-.23,0-.38,1-.64-.11c.13-.47.13-.87-.54-.79-.07,0-.15-.07-.21-.13-.37-.36-.73-.73-1.11-1.08,0,0-.14,0-.21.06l-.65.52-1,.64c-.41-.05-.52-.3-.34-1a.38.38,0,0,0,0-.28A.3.3,0,0,0,62,84c-.14.32-.45.88-.38.94a4.35,4.35,0,0,1,1.12,1.7l-.39.39c-.16-.8-.92-.7-1.44-.92a1.34,1.34,0,0,0-2.05.88,4.71,4.71,0,0,0-.07,1l-.43-.43a2.06,2.06,0,0,1-.72-2.07c.16-.81-.6-.66-1.11-.67Z"/><path class="cls-4" d="M64.33,84.13c.07,0,.19-.09.21-.06.38.35.74.72,1.11,1.08.06.06.14.14.21.13.67-.08.67.32.54.79l.64.11.38-1,.23,0L68,86.85c-.36-.09-.72-.19-1.08-.27a4.7,4.7,0,0,0-2.1-.45c-.11,0-.4-.22-.41-.35,0-.47,0-.94,0-1.41C64.43,84.29,64.36,84.21,64.33,84.13Z"/><path class="cls-4" d="M62.78,86.59a4.35,4.35,0,0,0-1.12-1.7c-.07-.06.24-.62.38-.94a.3.3,0,0,1,.22,0,.38.38,0,0,1,0,.28c-.18.73-.07,1,.34,1l1-.64a.42.42,0,0,0,0,.12l.33.56-.67.21.37,1.3Z"/><path class="cls-4" d="M74,95.25l-.17,1.33-.92-.07C72.59,95.64,73.08,95.11,74,95.25Z"/><path class="cls-9" d="M76.11,81.42c-.12.24-.42.44-.15.8.06.08-.08.33-.13.5-.51-.43-.26-1-.37-1.56v-.4l.54,0Z"/><path class="cls-9" d="M75.84,82.84c.59.49.37,1.21.52,1.83a5,5,0,0,1,0,.87A2.66,2.66,0,0,1,76.1,85c-.1-.4-.16-.81-.24-1.21,0-.17,0-.34,0-.51Z"/><path class="cls-18" d="M71.19,87c-.06-.22-.13-.43-.2-.65l-.18-.57.2-.11.7.82Z"/><path class="cls-4" d="M63.78,87.28l.66-.46.16.22-.65.48Z"/><path class="cls-18" d="M75.85,83.23c0,.17,0,.34,0,.51l-.64-.27,0-.19Z"/><path class="cls-22" d="M75.47,80.76v.4l-.27-.78h.13Z"/><path class="cls-4" d="M61.27,89.77h-.61v-.14l.61,0Z"/><path class="cls-3" d="M75.47,86.52c.15.27.24.37.22.4a.8.8,0,0,1-.21.15.52.52,0,0,1-.11-.19A1.69,1.69,0,0,1,75.47,86.52Z"/><path class="cls-2" d="M59.8,98.36l.37.22-.08.14-.39-.18Z"/><path class="cls-9" d="M76.39,85.55c.5,0,.25.3.24.52Z"/><path class="cls-14" d="M76.86,87.64c0,.1.09.19.13.29C77,87.83,76.9,87.74,76.86,87.64Z"/><path class="cls-17" d="M65.24,64.45c.42,0,.84,0,1.25,0a1.73,1.73,0,0,1,.42.14c-.07.82-.15,1.64-.22,2.51l-.45.33c.85.25,1,.5.64.84-.55.49-.51,1.13-.61,1.74l-.63.76.43.73h-.68V72.7l.44.12-.72.83L64.46,73l-.13-.65V72.1L65,71l-.61-1.46L63.22,69l.8-1.25-1-.65.23.78-.7-.47c-.07.46-.09.84-.18,1.21-.18.76.2,1.78-.91,2.16-.06,0-.08.18,0,.12l.53.89-.77.23a.71.71,0,0,1-.76.81c-.55,0-1.1-.14-1.65-.21v-.13l-.13-.64v-.26l.2-.1-.2-.16v-.13c0-.23-.18-.49-.11-.68.28-.73-.11-.8-.67-.75v-.25c.62-.08.17-.52.25-.78l.72-.28L58,67.82a1.11,1.11,0,0,0-.23-1.16c-.16-.18-.14-.53-.19-.8l.16-.07-1.3-1.47.4-.37c.3.33.56.8.94,1a4,4,0,0,1,1.17.7s.08,0,.15,0c.14-.38.14-.93.86-.94-.1.17-.23.31-.2.39.11.29.2.69.42.81.43.21.41-.27.53-.52l.39-.85.91-.24a3.35,3.35,0,0,0,0,.72,1.7,1.7,0,0,0,.77,1.21.71.71,0,0,0,.84.75c.92-.06.05-.92.52-1.16l-.71-.37.26-.26c.11-.13.28-.23.32-.37.09-.33.12-.67.58-.67Zm-.51,2,.79,0-.29.79c.33-.28.52-.57.74-.6.55-.09.48-.45.57-1-.6.54-1,.43-1.25-.13,0-.07-.38-.09-.41,0-.27.47-.49,1-.73,1.44l.27.13Z"/><path class="cls-16" d="M64.33,72.1v.25l-.75.92.07.11.81-.38.65.65c.2.36,0,.36-.29.41s-.3.2-.43.32.1.24.14.24c.52-.08,1.16,0,1.51-.32a2.66,2.66,0,0,0,.59-1.43c0-.18-.19-.45-.32-.66-.27-.44-.25-.73.35-.76.25.12.38.59.78.26l.39-.39a4.5,4.5,0,0,1,1,.41,2.5,2.5,0,0,1,.5.72l-.13.17c.28,0,.56.1.83.17.08,0,.2.07.21.12.1.63.56.58,1.11.63l-.61.71c.12.13.3.3.46.49.29.38.19.7-.25.85a5.24,5.24,0,0,1-.5-.44c-.34-.34-.55-.37-.87-.07.72.81.38,1.84-.86,2.44-.11-.41-.29-.81.36-.89.39,0,.7-.28.52-.62a1,1,0,0,0-.89-.34c-.57.3-.79.19-.78-.34-.51.09-1,.16-1.41.27-.17,0-.43.17-.43.26s.15.33.28.56l.42-.62,1.14.77-1.6.76h1.57c-.26.36-.52.55-.52.75s.23.42.39.66l-.44.2.26,1.57-.32.22-.1.61a1.52,1.52,0,0,0-.39-.29,3.62,3.62,0,0,0-.74-.12l.69-.61c-.12-.31-.22-.59-.34-.87s-.87-.31-1.19,0a3,3,0,0,1-.44.34l-.15-.52c0-.15,0-.31-.08-.46l-.17,0a5.94,5.94,0,0,1-.27.57,5.71,5.71,0,0,1-.39.47c-.13-.18-.35-.36-.37-.56-.07-.69.13-.83,1.18-.83-.44-.37-.78-.65-1.11-.94-.11-.08-.3-.21-.28-.27s.16-.37.28-.38a8.06,8.06,0,0,1,1.1,0c0,.18,0,.36,0,.53a.8.8,0,0,0,.05.52l.83-1.14c-.3-.7-.79-.55-1.41-.22l.12-1.28.48-.14,0-.17-1.91-.72.69-.37A1.29,1.29,0,0,0,62.13,73l-.78-.63c.82.06,1-.28.92-.82a.81.81,0,0,1,.17-.46c.25-.35.53-.68.83-1.07.77.3,1,1,.66,2-.18-.21-.29-.43-.47-.53a1.55,1.55,0,0,0-.66-.11s-.15.21-.13.24.25.4.41.43A10.36,10.36,0,0,0,64.33,72.1Z"/><path class="cls-22" d="M68.07,42.32v.27l-.23.23.37.28c.16,1.16.28,2.33.48,3.49.27,1.52.62,3,.88,4.53.19,1.06.29,2.12.43,3.18l.36,2.53c-.26-.5-.66-.11-1-.15-.13-.72-.26-1.43-.38-2.16a2.35,2.35,0,0,1-.11-.93c.15-.53.29-1-.33-1.32a.21.21,0,0,1-.06-.17c.23-.66-.34-1-.61-1.38,0-.17,0-.34,0-.51l-.09-.27c0-.25,0-.51,0-.77l-.18-.5c0-.22-.07-.44-.1-.65.2-.3.42-.6-.12-.79-.09-1.16-.19-2.32-.28-3.49.12-.28.47-.59-.11-.78l0-.38.37-.12Z"/><path class="cls-13" d="M67.44,71.71c-.4.33-.53-.14-.78-.26-.1-.48.68-1.21-.39-1.43.1-.61.06-1.25.61-1.74.39-.34.21-.59-.64-.84l.45-.33c.07-.87.15-1.69.22-2.51l2.31.27-.32.79c.51.41.32.91,0,1.38a.85.85,0,0,0,.15,1.2c.14.15.28.5.2.62s-.17.71-.74.64c-.26,0-.56.35-.91.59l.53.29-.31.81-.61,0Z"/><path class="cls-15" d="M64.59,64.07c-.46,0-.49.34-.58.67,0,.14-.21.24-.32.37a3.62,3.62,0,0,1,0-.57c.06-.49-.15-.62-.61-.61a3.71,3.71,0,0,1-.95-.25l-.25-.13-.39-.26-.39.13h-.39c-.36-.49-.83-.36-1.3-.25h-.9l-.4.26a1,1,0,0,1-.35-.1c-.33-.29-.47-.12-.55.22l-.36,0v-.35a3.06,3.06,0,0,1,1.79-.91c1.2-.12,2.4-.66,3.62,0,.05,0,.19-.08.28-.13l3.87.88v.7h-.25l-.27.12h-.12c-.38-.68-.41-.7-.93-.54l.41.55v.12Z"/><path class="cls-8" d="M67.88,50.72c.27.43.84.72.61,1.38a.21.21,0,0,0,.06.17c.62.32.48.79.33,1.32a2.35,2.35,0,0,0,.11.93c.12.73.25,1.44.38,2.16,0,0,0,.08,0,.13-.45.23-.43.69-.53,1.09-.09-.43-.18-.85-.25-1.28-.25-1.77-.49-3.55-.73-5.32A3.76,3.76,0,0,1,67.88,50.72Z"/><path class="cls-13" d="M71.45,80.64h-.94c-.07-.67.07-1.36-.77-1.7,1.59-.75.43-2,.67-3l.52.08h.39l.26.65-.26.25.13.91c-.54.71-.54.87,0,1.17l.26.64Z"/><path class="cls-22" d="M72.88,69.51c.75-.12,1.1.52,1.65.93-.82.06-.61.65-.61,1.13a.73.73,0,0,1-1-.75C72.88,70.38,72.88,69.94,72.88,69.51Z"/><path class="cls-22" d="M67.57,63l1.94-.26c0,.93-.17,1-1,.89,0-.16,0-.32-.08-.47l-.16,0-.29.5h-.12l-.49-.19Z"/><path class="cls-22" d="M73.92,71.57c.1.06.3.12.3.18,0,.72.06,1.44.08,2.16l-.61-.32Z"/><path class="cls-22" d="M74.31,74.69a1.93,1.93,0,0,0,.15.4c.13.2.29.38.56.71-.09.35-.22.92-.36,1.49-.11-.37-.23-.73-.32-1.09a5.27,5.27,0,0,1-.17-1A1.84,1.84,0,0,1,74.31,74.69Z"/><path class="cls-13" d="M67.57,63l-.23.45.49.19c0,.28,0,.46-.4.27a5.55,5.55,0,0,0-1-.27V63Z"/><path class="cls-18" d="M70.48,84l.6.1.48,0,.33,1.35-.44-.43a5,5,0,0,0-.5-.53,3.76,3.76,0,0,0-.56-.3Z"/><path class="cls-18" d="M71.45,77.79l-.13-.91c.45,0,.78.16.8.71,0,.17.2.33.39.61Z"/><path class="cls-22" d="M68.83,57.9c.1-.4.08-.86.53-1.09,0,.3-.07.6-.1.9l-.17.06,0,.07.14-.12.21.38-.52.15Z"/><path class="cls-18" d="M71.58,76.63,71.32,76h.25c.35,0,.78,0,.75.44S71.83,76.53,71.58,76.63Z"/><path class="cls-22" d="M69.18,60.2c-.05-.35-.11-.7-.17-1.05l.68.21Z"/><path class="cls-13" d="M65.24,63.82l-.41-.55c.52-.16.55-.14.93.54Z"/><path class="cls-18" d="M71.71,79.6,71.45,79l.6.2Z"/><path class="cls-18" d="M72.57,84.74l-.67-.09,0-.23.67,0Z"/><path class="cls-15" d="M67.44,71.71l-.22-.49.61,0v.13Z"/><path class="cls-13" d="M64.59,64.07l.65-.13v.51Z"/><path class="cls-22" d="M74.81,78.44l.36.93Z"/><path class="cls-13" d="M68,63.68l.29-.5.16,0c0,.15,0,.31.08.47Z"/><path class="cls-18" d="M72.62,80.78l-.33.36c-.06-.06-.17-.15-.16-.16s.19-.25.28-.37Z"/><path class="cls-22" d="M69.34,61.1l-.09-.4.36.16Z"/><path class="cls-18" d="M72.2,79.81c.07.12.13.19.12.25s-.12.14-.15.13A.28.28,0,0,1,72,80S72.11,79.91,72.2,79.81Z"/><path class="cls-22" d="M69,58.9l0-.4.22.16Z"/><path class="cls-13" d="M65.88,63.81l.27-.12Z"/><path class="cls-22" d="M75.19,79.73c0,.09.08.18.13.27C75.27,79.91,75.23,79.82,75.19,79.73Z"/><path class="cls-15" d="M75.24,37.16a1.86,1.86,0,0,0-.14-.73c0-.09-.4,0-.73,0l.43.68c-.49-.05-.87,0-.85-.67a4,4,0,0,0-.5-1.4,3.21,3.21,0,0,0,1.68-1.27c.46.25.41.68.35,1.09a7.77,7.77,0,0,0-.21.93c0,.14.26.28.4.42a1.94,1.94,0,0,1,0,.2Z"/><path class="cls-5" d="M75.72,36.43a1.94,1.94,0,0,0,0-.2c.08-.14.17-.27.25-.4l.19.12Z"/><path class="cls-7" d="M88,35.85l-.14.4Z"/><path class="cls-13" d="M25.72,29.4c.17.68.34,1.35.49,2,.23,1,.43,2,.64,3l-1.72-.77.09-.76-.7.15c0,.38.09.72.11,1.07,0,.12,0,.34-.1.36a.66.66,0,0,1-.48-.05.73.73,0,0,1-.2-1.16A1.49,1.49,0,0,0,24,33l-1-1.29a.54.54,0,0,0-.33-.19c-.57,0-.68-.33-.65-.8.61.18,1.26.28,1.63.9,0,.06.22.12.27.08a.42.42,0,0,0,.18-.29,5.51,5.51,0,0,0-.06-.7c.64.21.45.74.47,1.19,0,.2.05.4.09.67l.74-1-.06-.42c.74-.21.71-.23.37-.86C25.52,30.08,25.69,29.7,25.72,29.4Z"/><path class="cls-10" d="M27.17,36.11c0,.14,0,.27.07.4l-.19-.27Z"/><path class="cls-23" d="M69.77,2.6h-.26l0-.6-.22,0-.14.65-.38,0a3.29,3.29,0,0,1-.52-.46A1.53,1.53,0,0,1,68,1.69a2,2,0,0,1,.5.06c.12.05.2.2.26.26.15-.17.25-.43.38-.44a7.34,7.34,0,0,1,1.24,0,3.46,3.46,0,0,1,.53.14c.38.1.77.17,1.14.3.07,0,.08.25.12.39-.15,0-.35.15-.43.1-.34-.27-.53-.13-.7.18l-.38,0c0-.18,0-.36.07-.54l-.18,0-.17.52h-.64Z"/><path class="cls-24" d="M75,24.58c.21-.92.36-1.85.62-2.75s.65-2,1-3c0-.1.16-.17.24-.26,0,.29.09.75.44.45s.45-.12.65,0L76.5,24.73c-.1,0-.24,0-.3.05C75.69,25.39,75.33,25.19,75,24.58Z"/><path class="cls-3" d="M37,8.72l-2-2c0-.1,0-.24,0-.31-.32-.43-.66-.85-1-1.27L32.8,3.73l-.17-.62-.13-.4h0a6.35,6.35,0,0,1,.2-1.46c.12-.31.34-.75.93-.49a13.34,13.34,0,0,0,1.76.56c.07.42,0,.92.61,1l.58,1.41,1.49,1.41a.87.87,0,0,0,.08.37,9.82,9.82,0,0,0,3.39,2.56c.21.1.44.13.65.22L44,9.19c.66.42,1.32.85,2,1.26.06,0,.17,0,.25,0l.6.47.3.72-2.91.21-1.76-.73c-.14-.15-.26-.37-.43-.44-.54-.22-1.13-.35-1.67-.58s-1-.57-1.5-.83S37.73,8.47,37,8.72Z"/><path class="cls-3" d="M27.59,52.94v-.26l.1-.41c0-.46,0-.93.05-1.39l.83.21c.11-.63-.35-.79-.75-1l-.12-1.16c.29-.16.44-.1.55.25.06.17.32.28.58.5l-.06-1.33-1.19.19a1.94,1.94,0,0,0,0-.24c.09-.77.61-.23.81-.28a3.52,3.52,0,0,0,.32-.77,3,3,0,0,0-.05-.73l-.57.26a5.21,5.21,0,0,0-.44.29c0-.47,0-.81,0-1.16,0-.1.18-.28.23-.27a6.13,6.13,0,0,1,.76.41l.09-1.18,1,1.86-.44.28c.09.33.18.62.24.93.1.55.16,1.11.28,1.66a1.84,1.84,0,0,0,.32.5c0,.12,0,.25,0,.37-.16.21-.41.41-.47.65s.24.34.37.52h0v.27S30,52,30,52l-.22.16.21.24,0,.64v.27l-.13.38v.64c-.16.34-.28.67.13.92l-.12.37-.25.14a1.49,1.49,0,0,0-1.44,1c-.05.2-.25.36-.38.54l-.25-.14h0c0-.34,0-.68,0-1v-.38l.57-.28-.45-.37v-.65c.42-.28-.09-.34-.12-.51v-.65ZM29,54c-.15.2-.32.34-.29.4a.92.92,0,0,0,.33.32s.23-.17.22-.24A1.79,1.79,0,0,0,29,54Z"/><path class="cls-9" d="M29.9,55.65l.12-.37c-.05-.31-.09-.61-.13-.92v-.64c0-.13.09-.25.13-.38l.2-.11L30,53.07c0-.21,0-.42,0-.64s0-.27,0-.4,0-.08,0-.12l.2-.17-.2-.1h0c0-.39.07-.78.1-1.17,0-.12,0-.25,0-.37s0-.46,0-.69c0-.57-.09-1.15-.12-1.72a5.61,5.61,0,0,1,.06-.59,2.27,2.27,0,0,0,0-.82,3.26,3.26,0,0,1,.55-3c.07.79.18,1.59.21,2.38.05,1.36.08,2.71.08,4.07,0,1.56,0,3.12-.08,4.68-.1,1.29-.4,2.57-.62,3.85,0,.06-.07.1-.11.15-.12-.15-.34-.3-.34-.45C29.79,57.17,29.85,56.41,29.9,55.65Z"/><path class="cls-10" d="M27.47,37.1c.16.72.31,1.45.46,2.17l.33,1.48h.2l.29-2.44.24.27a.41.41,0,0,0,0,.11l-.13,1v2l-.11.39v.51l-.91.4c0-.25-.19-.52-.1-.66.42-.7.21-1.2-.54-1.61l.56-.27Z"/><path class="cls-21" d="M28.85,41.68V41l.73.1-.08-.62c.38,0,.33-.16.3-.43s.19-.31.3-.46l.31.38c.09.12.16.25.24.38l.09.25,0,.66h-.06c-.89-.07-1.3.33-1.36,1.24,0,.5-.38.29-.61,0v-.51l.53-.06Z"/><path class="cls-3" d="M52.29,3.88V4c-.46,0-.51.26-.52.62s0,.73-.15.82c-.45.25-.4.64-.49,1,0,.13-.09.34-.17.36-.43.12-.27.4-.22.66h-.9c.33-.82.28-.91-.65-1-.45-.06-.9-.15-1.29-.22l-.34-.86c.38-.16.61-.35.33-.85-.11-.2.09-.58.17-.87a4,4,0,0,1,.22-.57l1-.13.19-.15c.58.72,1.44.3,2.15.49A.75.75,0,0,1,52.29,3.88Z"/><path class="cls-6" d="M59.53,4.42,56.3,4.07c.1-.1.21-.3.31-.3.46,0,.6-.23.6-.64l3.63.15-1.1.63.71.4-.64.11Z"/><path class="cls-5" d="M50.06,2.6l-.13-.1s.07-.11.12-.12.08.05.12.08Z"/><path class="cls-17" d="M62.37,3c.27-.34,0-.47-.23-.65-.12-.45.24-.51.52-.63.25.58.58.91,1.21.45,0,0,.13.05.2.08l-.21.86A2.08,2.08,0,0,1,62.37,3Z"/><path class="cls-3" d="M27.45,59.93c-.09-.26-.17-.52-.26-.78s0-.25,0-.37.15-.44.22-.66.17-.44.25-.65h.15c.26.37.59.73.16,1.2,0,0,0,.13,0,.18C27.82,59.21,27.63,59.57,27.45,59.93Z"/><path class="cls-7" d="M27.57,48.54l1.19-.19.06,1.33c-.26-.22-.52-.33-.58-.5-.11-.35-.26-.41-.55-.25Z"/><path class="cls-19" d="M27.81,50.09c.4.21.86.37.75,1l-.83-.21C27.76,50.61,27.78,50.35,27.81,50.09Z"/><path class="cls-7" d="M27.7,55.14l.45.37-.57.28Z"/><path class="cls-7" d="M27.57,56.17c0,.35,0,.69,0,1C27.18,56.86,27.47,56.52,27.57,56.17Z"/><path class="cls-7" d="M27.58,54c0,.17.54.23.12.51Z"/><path class="cls-7" d="M27.43,58.12c-.07.22-.15.44-.22.66C27.28,58.56,27.36,58.34,27.43,58.12Z"/><path class="cls-7" d="M27.68,52.27l-.1.41Z"/><path class="cls-7" d="M27.59,52.94l0,.39Z"/><path class="cls-7" d="M27.83,57.46h-.15c0-.09-.06-.18-.1-.27l.25.14Z"/><path class="cls-5" d="M84.64,26.67l-.21-.93c.09-.1.16-.23.27-.29a3.43,3.43,0,0,1,.6-.22Z"/><path class="cls-5" d="M72.32,58.24l0-1C73,57,73,57,73,57.77c0,.3.24.59.44,1l-.58-.26C72.7,58.45,72.51,58.34,72.32,58.24Z"/><path class="cls-1" d="M75.21,97.85l.54.44-.14.18L75.05,98Z"/><path class="cls-6" d="M54,9.28c.22-.12.44-.36.65-.35a3.39,3.39,0,0,0,2-.58c.86-.57,1.83-1,2.66-1.57a11.76,11.76,0,0,0,1.51-1.63l.35-.36h.36v.4l0,.05,0-.05c.37,0,.8.09.79-.51l1.27,0a7.22,7.22,0,0,1-.43.77c-.54.75-1.09,1.49-1.68,2.3,1.45-.11,2.35-2.09,2.51-3.34L64.1,4l.37-.37.78.31c-.17.41-.37.81-.51,1.24s-.27,1.11-.48,1.64A4.42,4.42,0,0,1,62.11,9c-1,.52-2,1.06-2.92,1.59a6.16,6.16,0,0,1-1,.51c-.91.27-1.83.48-2.74.74a3.32,3.32,0,0,0-.82.35,5.16,5.16,0,0,1-2.77.68c-1.63,0-3.26-.27-4.88-.28a5.18,5.18,0,0,1-2.71-.8l2.91-.21c-.07-.18-.19-.45-.3-.72a41,41,0,0,1,5.09.45,3.7,3.7,0,0,0,2.89-.86H53.59Z"/><path class="cls-17" d="M64.93,2.25l-.35-.07.14-.37C65.14,1.79,65.12,2,64.93,2.25Z"/><path class="cls-20" d="M27.83,57.46v-.12c.13-.18.33-.34.38-.54a1.49,1.49,0,0,1,1.44-1v.39l-.86.38.58.61-.56.36c.53.68.85,1.36-.05,1.95,0,0,0,0,0,.06s-.36.26-.35.35a8.37,8.37,0,0,0,.37,1.1l.64-.29h.12l.12.39v.38l-.24.4.12.26L29,63.42h-.52c.06-.49-.16-.7-.65-.64l.81-1.31-.16-.14-.52.28L27.57,61l-.12-1c.18-.36.37-.72.55-1.09,0-.05,0-.15,0-.18C28.42,58.19,28.09,57.83,27.83,57.46Z"/><path class="cls-2" d="M28,61.61l.52-.28.16.14-.81,1.31v.94l.65-.3H29c-.11.26-.16.65-.36.75-.85.44-.87.45,0,1.11l-1.8.33c-.05-.39-.09-.79-.15-1.24l.37.12.44.1c0-.13-.08-.27-.13-.4s-.14-.19-.13-.28c.07-.77.16-1.54.25-2.31Z"/><path class="cls-1" d="M28,61.61h-.52c0-.22.09-.43.13-.65Z"/><path class="cls-24" d="M29.63,61.47v-.38l0-.38h.11l2.75.29c0,.56.46.53.8.6a.59.59,0,0,0,.77-.47l1.16.09a3.77,3.77,0,0,0,.38.57c.3.32.55.29.65-.18.42,0,.4-.24.39-.52L37,61l.21.8.13,0,.1-.44H39.2c-.15.36-.8.61-.3,1.2.47-.58.8-1.31,1.64-1.25l.3.69h.24l.22-1h.89c.07.5.45.52.83.55a2.23,2.23,0,0,1,.43.16,2,2,0,0,1-.29.39,2.25,2.25,0,0,1-.45.19l0,.16h1.07c.13-.65.72-.75,1.3-.81s1.09-.76,1.37.26c.59-.38.59-.37,1.37-.23a.82.82,0,0,0,.62-.11,1.1,1.1,0,0,1,1.63.21c.22.34.41.31.63,0,.08-.12.34-.23.42-.19a5.79,5.79,0,0,1,.75.58c-.49.23-1.28-.3-1.43.66-.88-.7-3.47-.67-4.17.06l.36.38c.35-.21.55-.42.76-.43.81,0,1.64,0,2.53,0v.64l-1.21-.25c.26.55.16.85-.21.76L47.91,65c0-.58-.27-.8-.84-.76l-.06.49a5.59,5.59,0,0,0-1-.52c-.17,0-.4.11-.61.18.1.2.16.49.31.56.34.16.74.19,1.1.32a1.5,1.5,0,0,1,.43.33l-.11.12a1.79,1.79,0,0,0-.64-.24,1,1,0,0,0-.47.28c.21.46.45.89.71,1.36l1.16-1.88c0,.2.12.44.06.6-.32.72-.71,1.42-1,2.14a9.27,9.27,0,0,0-.34,1.28h0l-.65.38-.25-.38c-.05-.32-.11-.63-.16-1a11.26,11.26,0,0,0-.16-1.3A2.26,2.26,0,0,0,45,66c-.45-.52-.73-1.24-1.73-1.1a8.27,8.27,0,0,1-2.34-.28.59.59,0,0,1-.42-.36,1.29,1.29,0,0,0-.86-.91c-.07-.11-.12-.31-.2-.33a7.71,7.71,0,0,0-1.26-.14c-.11,0-.23.16-.35.25h-.13a3.71,3.71,0,0,0-.52-.65c-.58-.46-1.2-.23-1.8,0h-.66l-1.16-.26-.4-.37-.37,0c-.3-.41-.64-.54-1-.15l-.13,0c-.59,0-1.19,0-1.78,0C29.74,61.7,29.69,61.55,29.63,61.47Zm9.7,1.29c-.08,0-.14-.1-.17-.09s-.09.1-.13.15a.47.47,0,0,0,.15.06S39.27,62.81,39.33,62.76Z"/><path class="cls-7" d="M35.35,62.51c.6-.22,1.22-.45,1.8,0a3.71,3.71,0,0,1,.52.65L35,63.29h0v-.38Z"/><path class="cls-20" d="M45.7,69.25l.25.38v.78a4.55,4.55,0,0,1,.18,1,2.11,2.11,0,0,1-.31.67l-.08-.72-.43-.06-.16-.89-.12,0,.15-1C45.23,68.93,45.43,69,45.7,69.25Z"/><path class="cls-5" d="M37.8,63.17c.12-.09.24-.25.35-.25a7.71,7.71,0,0,1,1.26.14c.08,0,.13.22.2.33Z"/><path class="cls-16" d="M29.63,61.47c.06.08.11.23.17.23.59,0,1.19,0,1.78,0-.38.17-.75.32-1.12.5-.16.08-.41.25-.4.35.06.84-.44.91-1.06.84l.51-1.29-.12-.26Z"/><path class="cls-2" d="M35,62.91v.38a1.67,1.67,0,0,0-.32,0c-.84.23-1.06.15-1.44-.63,0-.1.05-.28.08-.42h.26l1.16.26Z"/><path class="cls-16" d="M31.71,61.71c.41-.39.75-.26,1,.15Z"/><path class="cls-16" d="M33.53,62.25h-.26c-.05-.12-.1-.25-.14-.38Z"/><path class="cls-19" d="M47.91,65l.63-1.06c.37.09.47-.21.21-.76l1.21.25,1.3.39a2,2,0,0,1,.24.54,10.84,10.84,0,0,1,0,1.14l.12.4v.51l-.12.27v.24l.24,1.3-.12,1.29c-.18.22.55.44,0,.66h-.13c-.05-.27-.07-.55-.14-.81s-.1-.38-.22-.45-.31.07-.47.11c.08.17.15.34.22.51s0,.08.09.24l-1,.3.25-1.6-.21-.19c-.13.93-.72.91-1.33.86-.09,0-.22,0-.25,0-.66-1-1.18-.14-1.75.14,0,0-.08,0-.12,0A9.27,9.27,0,0,1,46.94,68c.31-.72.7-1.42,1-2.14.06-.16,0-.4-.06-.6ZM50,67.53c.25.31.43.54.63.76l.23-.16c-.17-.23-.34-.45-.52-.67C50.3,67.44,50.23,67.47,50,67.53Z"/><path class="cls-13" d="M58.77,72.48v.13c0,.29.09.58.14.92,1.12-.68,1.34-.56,1.41.61,0,.55.3.72.9.54l.13.39-.47.23.47.29.2.67-.15.13.47.1L62,77v.39a1,1,0,0,1-1,.26l-.37-.4c-.23.3-.39.56-.59.77-.61.62-.61.62.16.94-.26.79.38.65.8.76v.13l-.35,1.49.17.18c-.24,0-.65,0-.7-.11a2.34,2.34,0,0,1,0-.94,3,3,0,0,1-.95-3l-.6,0a12.81,12.81,0,0,1-.25-1.61,6.43,6.43,0,0,1,.17-1.29c0-.19.07-.39.11-.58-.22,0-.43,0-.64.08a2,2,0,0,0-.37.25,2.91,2.91,0,0,0-.33-.75,3.76,3.76,0,0,0-.63-.56,1.69,1.69,0,0,1-.3.49,6.44,6.44,0,0,1-.71.38v1l-.66,0-.13-.13L54.49,74v-.12c.88,0,.68-.92,1.06-1.34,0,0,0-.08.05-.13L55,72.17l.67-.21L58,73.3l.15-.14-.28-.93Z"/><path class="cls-22" d="M55.66,72l-.67.21.61.27s0,.1-.05.13c-.38.42-.18,1.31-1.06,1.34l-.38-.78c-.23-.49-.49-1-.68-1.48a1.16,1.16,0,0,0-1.78-.78v-.71c.55-.22-.18-.44,0-.66l1.12.42c.16-.11.44-.33.75-.53s.63-.3.65.29c0,.11.21.28.34.3a5,5,0,0,0,.85,0c0-.13,0-.35,0-.4-.33-.23-.69-.41-1.09-.64a5,5,0,0,0,.32-.57c.1-.23.15-.48.24-.71a.34.34,0,0,1,.19-.16l1-.31c.3.81-.33.53-.73.57.06.33-.35.79.35.86.09.3.17.61.26.91s-.09.69-.13,1l.13.78Z"/><path class="cls-18" d="M51.65,70.16v.71a1.16,1.16,0,0,1,1.78.78c.19.5.45,1,.68,1.48l-.6.53a11.29,11.29,0,0,1-1.17-.17.35.35,0,0,1-.19-.63c.4-.4.25-.69-.11-.94a1,1,0,0,1-.55-1c0-.16-.2-.34-.33-.53l.36-.25Z"/><path class="cls-3" d="M46,70.41v-.78l.65-.38c0,.74.71.61,1.18.92l-.15.67A4,4,0,0,0,47,70.6C46.63,70.52,46.29,70.47,46,70.41Z"/><path class="cls-18" d="M54.49,74l.27.78s-.1,0-.12,0l-.36.47c-.14-.22-.38-.44-.38-.66S54,73.93,54.49,74Z"/><path class="cls-3" d="M52.94,74.37a5,5,0,0,0,.23.53c.09.16.23.29.32.45a2.24,2.24,0,0,1,.14.36c-.15,0-.36.1-.44,0a3.49,3.49,0,0,1-.66-.77c-.06-.08.06-.28.1-.43Z"/><path class="cls-1" d="M55.14,81.16a5.46,5.46,0,0,1,.81,0c.29,0,.47.19.23.5C55.73,81.7,55.32,81.66,55.14,81.16Z"/><path class="cls-1" d="M58.51,92.68l.13-.39Z"/><path class="cls-1" d="M56.05,89.7c.11-.11.28-.33.34-.31a10.37,10.37,0,0,1,1.08.57c-.3.43-.61.14-.89.05A3.18,3.18,0,0,1,56.05,89.7Z"/><path class="cls-15" d="M61.22,74.68c-.6.18-.87,0-.9-.54-.07-1.17-.29-1.29-1.41-.61,0-.34-.09-.63-.14-.92.55.07,1.1.17,1.65.21a.71.71,0,0,0,.76-.81l.77-.23-.53-.89c0,.06,0-.09,0-.12,1.11-.38.73-1.4.91-2.16.09-.37.11-.75.18-1.21l.7.47L63,67.09l1,.65L63.22,69l1.2.53L65,71l-.7,1.12A10.36,10.36,0,0,1,63.08,72c-.16,0-.29-.27-.41-.43s.09-.24.13-.24a1.55,1.55,0,0,1,.66.11c.18.1.29.32.47.53.39-1,.11-1.68-.66-2-.3.39-.58.72-.83,1.07a.81.81,0,0,0-.17.46c0,.54-.1.88-.92.82l.78.63-.13.39A1,1,0,0,0,61.22,74.68Z"/><path class="cls-16" d="M61,77.66a1,1,0,0,0,1-.26c.2.63,0,1-.71,1.28.85,0,1.49,0,1.67,1,0,.13.22.28.36.32.62.17.69.71.69,1.17,0,.64-.6.51-1,.67-.06-.09-.11-.14-.1-.16.38-.66.15-1-.55-1.15-.33-.08-.58-.25-.42-.71.05-.13-.16-.37-.25-.56-.14.13-.27.27-.42.39a4,4,0,0,1-.33.24v-.13a1.19,1.19,0,0,0-.62-1.48h.59Z"/><path class="cls-16" d="M61.22,74.68A1,1,0,0,1,62,73.39l-.41.7.69,0-.92,1.06a.53.53,0,0,1,0-.13Z"/><path class="cls-16" d="M62,77l-.13-.52c.05-.38.31-.47.6-.32s.29.32.43.49c-.19.12-.38.25-.58.35S62.11,77,62,77Z"/><path class="cls-15" d="M61.35,75.07a.53.53,0,0,0,0,.13v.39l-.47-.29Z"/><path class="cls-21" d="M29,38.59l-.24-.27c.07-2.14.16-4.27.2-6.4,0-1.45,0-2.89-.05-4.34.07-.09.2-.18.2-.27,0-.49,0-1,.06-1.46.06-1,.15-1.93.22-2.9l.26,0c0,.29-.07.6.39.67.13,0,.21.34.31.51l.22.35c0,.31-.09.61-.13.91l.12.39V26l-.08.15.38-.07c0,.12,0,.25,0,.38l-.53.61.69.09c0,1.08,0,2.16-.05,3.24,0,.38,0,.76,0,1.14-.05,1.09-.09,2.19-.13,3.29,0,1.37-.09,2.74-.13,4.11a1.75,1.75,0,0,0-1.37-.83Z"/><path class="cls-13" d="M66.91,39.09l0-.65v-.39c0-.21,0-.42,0-.64s.35-.41.36-.62c0-.56-.07-1.13,0-1.7,0-1.2.18-2.39.22-3.59a16.92,16.92,0,0,0-.11-1.73c.1-.69.21-1.37.31-2.05.29,0,.49,0,.49-.43a5.54,5.54,0,0,1,.21-.85c.1-.63.17-1.26.25-1.89l.43-.4a3.16,3.16,0,0,1,.23,2.91c-.21.47-.25.78.31,1.08-.57.14-.53.51-.64.91-.18.62,0,.72.51.72A19.89,19.89,0,0,1,69,32a18.87,18.87,0,0,0-.64,4.89c-.06,1.39-.09,2.78-.14,4.17l-.62.52-.23.13-.45-.42,0-.62.25-.26-.1-.76.62-.37,0-.16Z"/><path class="cls-16" d="M22.76,18.52A21.45,21.45,0,0,1,25,26.28c-.51-.37-1-.74-1.53-1.12-.11-.09-.25-.27-.22-.37.16-.53-.17-.57-.54-.59a24.61,24.61,0,0,0-1.21-3.86c.35-.7-.19-1.56-.31-2.46l.48-.53a5.47,5.47,0,0,1,.51.45C22.35,18,22.55,18.28,22.76,18.52Z"/><path class="cls-5" d="M51.91,62.13a5.79,5.79,0,0,0-.75-.58c-.08,0-.34.07-.42.19-.22.32-.41.35-.63,0a1.1,1.1,0,0,0-1.63-.21.82.82,0,0,1-.62.11c-.78-.14-.78-.15-1.37.23-.28-1-.88-.32-1.37-.26s-1.17.16-1.3.81H42.75l0-.16a2.25,2.25,0,0,0,.45-.19,2,2,0,0,0,.29-.39,2.23,2.23,0,0,0-.43-.16c-.38,0-.76-.05-.83-.55,1.26,0,2.53.1,3.78.05s2.41-.26,3.62-.33a18.07,18.07,0,0,1,2.44,0c1.73.14,3.45.31,5.18.46.39.8-.78.77-.65,1.31h-1l-.41-1-.6.43-1.08-.52-.11.67h-.91l-.09-.35h-.1l-.08.33Z"/><path class="cls-4" d="M22.66,24.2c.37,0,.7.06.54.59,0,.1.11.28.22.37.5.38,1,.75,1.53,1.12l.3,1,.12.4c0,.1,0,.21,0,.31s.1.32.14.47l.17.92c0,.3-.2.68-.08.9.34.63.37.65-.37.86l.06.42-.74,1c0-.27-.08-.47-.09-.67,0-.45.17-1-.47-1.19Q23.34,27.45,22.66,24.2Z"/><path class="cls-6" d="M30.68,39c0-1.37.08-2.74.13-4.11,0-1.1.08-2.2.13-3.29,0-.38,0-.76,0-1.14a10.24,10.24,0,0,1,.26,4.86,23,23,0,0,0-.2,3c0,.36-.08.71-.13,1.06Z"/><path class="cls-5" d="M62.54,62.1c-.09,0-.23.16-.28.13-1.22-.63-2.42-.09-3.62,0l-.21-1,.46-.29c.89,0,1.79,0,2.68.12A1,1,0,0,1,62.54,62.1Z"/><path class="cls-23" d="M69.4,29.77c-.51,0-.69-.1-.51-.72.11-.4.07-.77.64-.91-.56-.3-.52-.61-.31-1.08A3.16,3.16,0,0,0,69,24.15c.67-.08,1,.15,1,.79-.06,1.11-.2,2.23-.32,3.34C69.61,28.78,69.49,29.28,69.4,29.77Z"/><path class="cls-14" d="M67.3,29.77a16.92,16.92,0,0,1,.11,1.73c0,1.2-.17,2.39-.22,3.59,0,.57.07,1.14,0,1.7,0,.21-.23.42-.36.62a31.34,31.34,0,0,1-.15-3.49C66.81,32.53,67.09,31.15,67.3,29.77Z"/><path class="cls-9" d="M58.89,61l-.46.29.21,1a3.06,3.06,0,0,0-1.79.91c-.7-.38-.42.45-.57.53l-.62-.53-.13-.65h1c-.13-.54,1-.51.65-1.31l.08,0c.27-.08.7.71.83-.14Z"/><path class="cls-24" d="M29.38,23c-.07,1-.16,1.93-.22,2.9,0,.48,0,1-.06,1.46,0,.09-.13.18-.2.27-.1-.61-.22-1.22-.29-1.83s-.09-1.36-.14-2.05S28.66,22.84,29.38,23Z"/><path class="cls-8" d="M41.3,61l-.22,1h-.24l-.3-.69c-.84-.06-1.17.67-1.64,1.25-.5-.59.15-.84.3-1.2H37.45l-.1.44-.13,0L37,61,39.48,61l.05.24.21-.25Z"/><path class="cls-25" d="M37,8.72c.75-.25,1.3.22,1.9.52s1,.6,1.5.83,1.13.36,1.67.58c.17.07.29.29.43.44A4.21,4.21,0,0,1,40,10.26c-.45-.24-1-.37-1.4-.6S37.51,9,37,8.72Z"/><path class="cls-7" d="M30.68,39l.23.38c0,.08,0,.16-.05.24l-.09.54v.26h-.12c-.08-.13-.15-.26-.24-.38l-.31-.38c-.11.15-.32.32-.3.46s.08.47-.3.43h0c0-.53-.37-.35-.64-.38v-.4c.88-.13.88-.13.55-1.11L29,38.7a.41.41,0,0,1,0-.11l.32-.46A1.75,1.75,0,0,1,30.68,39Z"/><path class="cls-15" d="M29.73,60.71H29.4v-.51l-.17-.56a2.81,2.81,0,0,0,.35-1.23c.05-.74.05-1.48.06-2.22v-.39l.25-.14c0,.76-.11,1.52-.11,2.27,0,.15.22.3.34.45C30,59.15,29.86,59.93,29.73,60.71Z"/><path class="cls-8" d="M78,19.08c-.2-.16-.31-.32-.65,0s-.42-.16-.44-.45l.12-.73a.77.77,0,0,1,.1-.38c0-.06.22,0,.32,0A1,1,0,0,1,78,19.08Z"/><path class="cls-14" d="M68.56,24.55c-.08.63-.15,1.26-.25,1.89a5.54,5.54,0,0,0-.21.85c0,.38-.2.43-.49.43.16-.87.29-1.74.48-2.6C68.14,24.9,68.4,24.74,68.56,24.55Z"/><path class="cls-14" d="M32.8,3.73l1.13,1.42c.33.42.67.84,1,1.27.06.07,0,.21,0,.31A4,4,0,0,1,32.8,3.73Z"/><path class="cls-24" d="M30.56,24.46l-.22-.35c-.1-.17-.18-.49-.31-.51-.46-.07-.38-.38-.39-.67.44-.42.71-.38.83.16s.17.92.24,1.39Z"/><path class="cls-8" d="M34.05,61.13a.59.59,0,0,1-.77.47c-.34-.07-.8,0-.8-.6Z"/><path class="cls-23" d="M22.76,18.52c-.21-.24-.41-.49-.63-.72a5.47,5.47,0,0,0-.51-.45l.4-.27A1.4,1.4,0,0,1,22.76,18.52Z"/><path class="cls-8" d="M22,17.08l-.4.27-.48.53.12-1.25.18-.12Z"/><path class="cls-8" d="M36.24,61.61c-.1.47-.35.5-.65.18a3.77,3.77,0,0,1-.38-.57l.66-.06.37.45Z"/><path class="cls-11" d="M67.57,41.55l.62-.52-.1.91h-.52Z"/><path class="cls-14" d="M67.07,39.62c0,.25.07.51.1.76l-.27.14,0-1.17Z"/><path class="cls-13" d="M67.57,41.93h.52l0,.38-.77.14c0-.13,0-.26,0-.39Z"/><path class="cls-22" d="M67.07,39.62l-.14-.27,0-.26h.74l0,.16Z"/><path class="cls-24" d="M30.55,25.76l-.12-.39.27-.56c0,.32.08.63.13,1Z"/><path class="cls-17" d="M31,27.18l-.69-.09.53-.61C30.93,26.71,31,27,31,27.18Z"/><path class="cls-14" d="M67.29,42.07c0,.13,0,.26,0,.39l-.37.12v-.64Z"/><path class="cls-5" d="M58.12,61.05c-.13.85-.56.06-.83.14Z"/><path class="cls-5" d="M69.12,2.62,69.26,2l.22,0,0,.6Z"/><path class="cls-17" d="M30.7,24.81l-.27.56c0-.3.09-.6.13-.91l.15,0Z"/><path class="cls-8" d="M67.35,47.23c.54.19.32.49.12.79Z"/><path class="cls-14" d="M67,43c.58.19.23.5.11.78C67,43.48,67,43.22,67,43Z"/><path class="cls-22" d="M67.29,42.07l-.37-.13v-.26h.43l.23-.13v.38Z"/><path class="cls-5" d="M70.41,2.61l.17-.52.18,0c0,.18-.05.36-.07.54Z"/><path class="cls-8" d="M36.63,61.09c0,.28,0,.56-.39.52h0v-.47Z"/><path class="cls-24" d="M36.23,61.14v.47l-.37-.45Z"/><path class="cls-14" d="M67.34,41.68h-.43c0-.14,0-.28,0-.42Z"/><path class="cls-13" d="M68.22,43.1l-.37-.28.23-.23Z"/><path class="cls-8" d="M67.57,48.67l.18.5Z"/><path class="cls-6" d="M30.77,40.12l.09-.54Z"/><path class="cls-14" d="M66.92,38.05v0Z"/><path class="cls-17" d="M30.55,25.76h.28c0,.09,0,.19,0,.28l-.31,0Z"/><path class="cls-5" d="M32.5,2.71l.13.4Z"/><path class="cls-13" d="M25.55,28.48c0-.15-.09-.31-.14-.47C25.46,28.17,25.51,28.33,25.55,28.48Z"/><path class="cls-24" d="M39.74,61l-.21.25L39.48,61Z"/><path class="cls-13" d="M25.37,27.7l-.12-.4Z"/><path class="cls-22" d="M66.9,40.52l.27-.14-.25.26A.13.13,0,0,1,66.9,40.52Z"/><path class="cls-24" d="M30.56,26l.31,0v.06l-.38.07Z"/><path class="cls-8" d="M67.77,49.94l.09.27Z"/><path class="cls-6" d="M30.66,40.38h.12l0,.25Z"/><path class="cls-5" d="M69.77,2.6h0Z"/><path class="cls-15" d="M55.66,68.6c-.7-.07-.29-.53-.35-.86.4,0,1,.24.73-.57.33-.76.28-1.23-.06-1.47l.08-1.35.37,0,1.3,1.47-.16.07c0,.27,0,.62.19.8A1.11,1.11,0,0,1,58,67.82c-.51.37-.47.6.13.91-.08.26.37.7-.25.78-.25-.38-.48-.77-.75-1.14C56.54,67.58,56.08,67.66,55.66,68.6Z"/><path class="cls-8" d="M59,63.16h.39c.47.67.71.72,1.3.25h.39v1l-.39.85c-.12.25-.1.73-.53.52-.22-.12-.31-.52-.42-.81,0-.08.1-.22.2-.39-.72,0-.72.56-.86.94-.07,0-.13,0-.15,0a4,4,0,0,0-1.17-.7c-.38-.15-.64-.62-.94-1l0-.43.36,0v.17a2.52,2.52,0,0,1,.83,0C58.69,64,58.87,63.89,59,63.16Z"/><path class="cls-15" d="M66.27,70c1.07.22.29,1,.39,1.43-.6,0-.62.32-.35.76.13.21.36.48.32.66A2.66,2.66,0,0,1,66,74.3c-.35.29-1,.24-1.51.32,0,0-.16-.22-.14-.24s.27-.29.43-.32.49,0,.29-.41l.72-.83-.44-.12V71.51h.68l-.43-.73Z"/><path class="cls-12" d="M61.09,64.46V64.2l1-.52a3.71,3.71,0,0,0,.95.25c.46,0,.67.12.61.61a3.62,3.62,0,0,0,0,.57l-.26.26-.26.36-.39.42A1.7,1.7,0,0,1,62,64.94a3.35,3.35,0,0,1,0-.72Z"/><path class="cls-13" d="M55.66,68.6c.42-.94.88-1,1.46-.23.27.37.5.76.75,1.14v.25l-.26.52c-.27-.06-.51-.07-.46-.5,0-.18-.28-.53-.49-.57s-.48.19-.73.3Z"/><path class="cls-6" d="M64.73,66.4l-.31.66-.27-.13c.24-.48.46-1,.73-1.44,0-.06.38,0,.41,0,.28.56.65.67,1.25.13-.09.54,0,.9-.57,1-.22,0-.41.32-.74.6l.29-.79Z"/><path class="cls-15" d="M62.78,66.15l.39-.42.26-.36.71.37c-.47.24.4,1.1-.52,1.16A.71.71,0,0,1,62.78,66.15Z"/><path class="cls-13" d="M58.64,71.19v.65c-.31,0-.67-.34-.91.13-.48,0-.43-.24-.27-.58a5.62,5.62,0,0,0,.27-.85Z"/><path class="cls-5" d="M56.85,63.52l0,.43-.4.37-.37,0-.65-1.17h.25l.62.53c.15-.08-.13-.91.57-.53Z"/><path class="cls-15" d="M58.64,71.19l-.91-.65-.13-.26.26-.52c.56-.05,1,0,.67.75C58.46,70.7,58.6,71,58.64,71.19Z"/><path class="cls-7" d="M58.12,68.73c-.6-.31-.64-.54-.13-.91l.85.63Z"/><path class="cls-15" d="M57.73,72c.24-.47.6-.16.91-.13l.13.64-.91-.25Z"/><path class="cls-15" d="M64.46,73l-.81.38-.07-.11.75-.92Z"/><path class="cls-15" d="M58.64,71.58v-.26l.2.16Z"/><path class="cls-9" d="M59,63.16c-.15.73-.33.81-1,.57a2.52,2.52,0,0,0-.83,0v-.17c.08-.34.22-.51.55-.22a1,1,0,0,0,.35.1c.3.18.42.07.4-.26Z"/><path class="cls-9" d="M60.71,63.42c-.59.47-.83.42-1.3-.25C59.88,63.06,60.35,62.93,60.71,63.42Z"/><path class="cls-17" d="M62.13,63.68l-1,.52v-.26l.25-.25.53-.14Z"/><path class="cls-9" d="M61.35,63.69l-.25.25v-.52l.39-.13Z"/><path class="cls-8" d="M61.35,63.69l.14-.4.39.26Z"/><path class="cls-8" d="M58.51,63.16c0,.33-.1.44-.4.26Z"/><path class="cls-8" d="M69.27,57.72l-.14.12,0-.07.17-.06Z"/><path class="cls-6" d="M46,3.75c-1-.14-1.93-.32-2.9-.41-.77-.07-1.55,0-2.33,0l-2.65-.05a1.66,1.66,0,0,0-1.5.51L36,2.36a9.57,9.57,0,0,1,1.67-.29A35.07,35.07,0,0,1,42,2.23c1.59.2,3.15.61,4.72.93a1.69,1.69,0,0,1-.27.32A5,5,0,0,1,46,3.75Z"/><path class="cls-5" d="M54,9.28l-.37,1.2c-1.1.08-2.2.23-3.3.22s-1.92-.22-2.89-.31a11.11,11.11,0,0,0-1.15,0c-.08,0-.19.06-.25,0-.67-.41-1.33-.84-2-1.26l.15-.42a25.94,25.94,0,0,0,2.54.6,13,13,0,0,0,4.4.07A18.16,18.16,0,0,1,54,9.28Z"/><path class="cls-14" d="M44.16,8.77,44,9.19l-1.83-.86c-.21-.09-.44-.12-.65-.22a9.82,9.82,0,0,1-3.39-2.56.87.87,0,0,1-.08-.37c.94.66,1.85,1.36,2.83,2,.61.38,1.31.59,2,.91C43.3,8.26,43.73,8.53,44.16,8.77Z"/><path class="cls-16" d="M46,3.75a5,5,0,0,0,.51-.27,1.69,1.69,0,0,0,.27-.32l1.55-.06a4,4,0,0,0-.22.57c-.08.29-.28.67-.17.87.28.5,0,.69-.33.85l.34.86c.39.07.84.16,1.29.22.93.12,1,.21.65,1-.68,0-1.36,0-2,0a1.63,1.63,0,0,1-.74-.4,5.29,5.29,0,0,1-.77-.8,1.79,1.79,0,0,1-.45-.8A13,13,0,0,1,46,3.75Z"/><path class="cls-7" d="M30.14,50.47c0,.39-.07.78-.1,1.17-.13-.18-.4-.39-.37-.52S30,50.68,30.14,50.47Z"/><path class="cls-7" d="M29,54a1.79,1.79,0,0,1,.26.48c0,.07-.2.25-.22.24a.92.92,0,0,1-.33-.32C28.64,54.32,28.81,54.18,29,54Z"/><path class="cls-15" d="M29.89,54.36c0,.31.08.61.13.92C29.61,55,29.73,54.7,29.89,54.36Z"/><path class="cls-7" d="M30,52c0,.13,0,.27,0,.4l-.21-.24Z"/><path class="cls-7" d="M30,51.64l.2.1-.2.17Z"/><path class="cls-15" d="M29.91,53.72v0Z"/><path class="cls-7" d="M30,53.07l.21.16-.2.11A2.44,2.44,0,0,0,30,53.07Z"/><path class="cls-21" d="M29,38.7l.42-.08c.33,1,.33,1-.55,1.11C28.91,39.39,29,39.05,29,38.7Z"/><path class="cls-7" d="M29.51,40.51l.08.62-.73-.1v-.39l.64-.13Z"/><path class="cls-21" d="M29.51,40.51l-.64.13v-.51C29.14,40.16,29.54,40,29.51,40.51Z"/><path class="cls-7" d="M28.85,41.68l.42.33-.53.06Z"/><path class="cls-13" d="M50.74,7.49c-.05-.26-.21-.54.22-.66.08,0,.14-.23.17-.36.09-.38,0-.77.49-1,.16-.09.14-.54.15-.82s.06-.65.52-.62a4.14,4.14,0,0,1,.37.84,8.67,8.67,0,0,1,0,1.35,1,1,0,0,1-.95,1.15C51.41,7.41,51.07,7.44,50.74,7.49Z"/><path class="cls-19" d="M63.86,3.07,64.1,4l-.16.39-.4.27-1.27,0-.78.11h-.36c0-.09,0-.18,0-.27a.16.16,0,0,0,.08-.1c.41-.37,1-.61.87-1.33L62.37,3A2.08,2.08,0,0,0,63.86,3.07Z"/><path class="cls-17" d="M62.12,3.09c.13.72-.46,1-.87,1.33L61,3.66H60.8l-.09.73-.26-.08-.71-.4,1.1-.63Z"/><path class="cls-6" d="M60.71,4.39l.09-.73H61l.24.76a.16.16,0,0,1-.08.1Z"/><path class="cls-17" d="M59.53,4.42h0Z"/><path class="cls-17" d="M61.49,4.78l.78-.11c0,.6-.42.5-.79.51h0Z"/><path class="cls-17" d="M61.48,5.18l0,.05,0-.05Z"/><path class="cls-3" d="M29.64,56.18c0,.74,0,1.48-.06,2.22a2.81,2.81,0,0,1-.35,1.23l.17.56a.57.57,0,0,1-.66-.65s0,0,0-.06c.9-.59.58-1.27.05-1.95l.56-.36-.58-.61Z"/><path class="cls-1" d="M28.74,59.54a.57.57,0,0,0,.66.65v.51l-.64.29a8.37,8.37,0,0,1-.37-1.1C28.38,59.8,28.62,59.66,28.74,59.54Z"/><path class="cls-1" d="M28.48,63.42l-.65.3v-.94C28.32,62.72,28.54,62.93,28.48,63.42Z"/><path class="cls-16" d="M29.52,60.7h.11c0,.13,0,.26,0,.38Z"/><path class="cls-1" d="M29.39,61.87l.12.26Z"/><path class="cls-15" d="M55.66,63.17h-.25c-1.06.06-2.12-.36-3.18,0-.13.05-.36-.18-.7-.36l-.27.94L50,63.42v-.64c-.89,0-1.72,0-2.53,0-.21,0-.41.22-.76.43l-.36-.38c.7-.73,3.29-.76,4.17-.06.15-1,.94-.43,1.43-.66h1.42l2.2.4h0Z"/><path class="cls-12" d="M47.91,65v.24l-1.16,1.88c-.26-.47-.5-.9-.71-1.36a1,1,0,0,1,.47-.28,1.79,1.79,0,0,1,.64.24l.11-.12a1.5,1.5,0,0,0-.43-.33c-.36-.13-.76-.16-1.1-.32-.15-.07-.21-.36-.31-.56.21-.07.44-.23.61-.18a5.59,5.59,0,0,1,1,.52l.06-.49C47.64,64.19,47.93,64.41,47.91,65Z"/><path class="cls-3" d="M35,62.91l-.26-.4h.66Z"/><path class="cls-8" d="M39.33,62.76c-.06.05-.1.11-.15.12a.47.47,0,0,1-.15-.06s.07-.12.13-.15S39.25,62.72,39.33,62.76Z"/><path class="cls-9" d="M51.26,63.81l.27-.94c.34.18.57.41.7.36,1.06-.41,2.12,0,3.18,0,.22.39.44.78.65,1.17,0,.43-.05.85-.08,1.35.34.24.39.71.06,1.47l-1,.31a.34.34,0,0,0-.19.16c-.09.23-.14.48-.24.71a5,5,0,0,1-.32.57c.4.23.76.41,1.09.64.07,0,0,.27,0,.4a5,5,0,0,1-.85,0c-.13,0-.33-.19-.34-.3,0-.59-.31-.5-.65-.29s-.59.42-.75.53l-1.12-.42.12-1.29.19,0,.32-1.47-.75.21v-.24l.12-.27c0-.17,0-.34,0-.51l-.12-.4a10.84,10.84,0,0,0,0-1.14A2,2,0,0,0,51.26,63.81Z"/><path class="cls-22" d="M51.53,66.91l.75-.21L52,68.17l-.19,0Z"/><path class="cls-1" d="M50,67.53c.26-.06.33-.09.34-.07.18.22.35.44.52.67l-.23.16C50.4,68.07,50.22,67.84,50,67.53Z"/><path class="cls-22" d="M51.52,65.49l.12.4Z"/><path class="cls-22" d="M51.65,66.4l-.12.27Z"/><path class="cls-21" d="M57.73,72l.13.26.28.93L58,73.3,55.66,72c.08-.21.17-.43.26-.64.49-.27.49-.28-.13-.78,0-.34.09-.69.13-1,.25-.11.52-.34.73-.3s.52.39.49.57c0,.43.19.44.46.5l.13.26a5.62,5.62,0,0,1-.27.85C57.3,71.73,57.25,72,57.73,72Zm-1.26-.5.05.23.4-.13a2,2,0,0,0-.08-.2A2.24,2.24,0,0,0,56.47,71.47Z"/><path class="cls-18" d="M61,77.66l0,.59h-.59A1.19,1.19,0,0,1,61,79.73c-.42-.11-1.06,0-.8-.76-.77-.32-.77-.32-.16-.94.2-.21.36-.47.59-.77Z"/><path class="cls-16" d="M55.79,70.54c.62.5.62.51.13.78Z"/><path class="cls-9" d="M55.53,62.52l-2.2-.4c0-.19.06-.39.11-.67l1.08.52.6-.43Z"/><path class="cls-24" d="M52.42,62.13h-.27c0-.11.06-.22.08-.33h.1Z"/><path class="cls-13" d="M56.47,71.47a2.24,2.24,0,0,1,.37-.1,2,2,0,0,1,.08.2l-.4.13Z"/></g></svg>