<svg xmlns="http://www.w3.org/2000/svg" viewBox="0 0 100 100"><defs><style>.cls-1{fill:#70b0b2;}.cls-2{fill:#62a9ab;}.cls-3{fill:#93c4c5;}.cls-4{fill:#91c2c4;}.cls-5{fill:#a2cbcd;}.cls-6{fill:#67abad;}.cls-7{fill:#89bebf;}.cls-8{fill:#9cc9ca;}.cls-9{fill:#83bbbc;}.cls-10{fill:#8ec1c2;}.cls-11{fill:#96c5c7;}.cls-12{fill:#99c7c8;}.cls-13{fill:#6aadaf;}.cls-14{fill:#a9cfd1;}.cls-15{fill:#f1f8f8;}.cls-16{fill:#52a1a3;}.cls-17{fill:#a5cdcf;}.cls-18{fill:#e9f3f3;}.cls-19{fill:#eef6f6;}.cls-20{fill:#e1eeef;}.cls-21{fill:#74b2b4;}</style></defs><g id="Ebene_3" data-name="Ebene 3"><path class="cls-1" d="M58.93,40.7l2.78-.21c.45.1,1,.42,1.32.25a5.57,5.57,0,0,1,3.51-1l-.72.85,1,1.51c.84-.79,2.63.27,2.67-1.6l-1.09-1.22.51-.84,2.2-.28.08-.62,2.49-.26a.74.74,0,0,0,0,.21c.23.17.44.47.67.49a2.64,2.64,0,0,0,.94-.3,4.8,4.8,0,0,0,.77.67,7.69,7.69,0,0,0,1.25.36c-.92.55-1.55,1.17-2.29.26-.06-.07-.4.11-.61.17.12.19.21.51.38.56a11.18,11.18,0,0,0,1.43.19c-1.38.26-2.75.5-4.12.78-.67.13-1.32.34-2.29.6.75.75,1.21,1.23,1.69,1.69.8.76,1.61,1.5,2.42,2.24-.22.35-.64.69-.65,1,0,1.64,1,2.67,2.24,3.56a1.7,1.7,0,0,0,0,.22V51l-.22.46c.07.44.17.87.2,1.32s0,1.2,0,1.81l-.49.17c-.45-.62-.87-1.28-1.37-1.87a5.13,5.13,0,0,0-1-.76l-1-3c.9-.9.86-1.38,0-2.24a2.32,2.32,0,0,0-2.68-.78c0-1.64-1.35-1.73-2.3-2.26l-.7-1,.1-1.24L63.79,43l-1.86.41c0-.51.1-.93-.77-.83a2.71,2.71,0,0,1-1.72-.78c-.44-.37-.66-.6-1.07-.05-.12.16-.42.17-.58.31s-.59.58-.88.87a15.68,15.68,0,0,0,1.57,1.49c.45.34.76.1,1-.42s.91-1.19,1.74-.54L60.85,45a6.93,6.93,0,0,0-.33,1.16,2.13,2.13,0,0,0,.23.73l-.07.66c-.51.35-.57.68.06,1l.07,1.12-1-.15c.18,1.11.35,2.09.5,3.08,0,.18.08.47,0,.54-.94.75-.53,1.78-.63,2.71-.33-.07-.65-.15-1-.2a5.23,5.23,0,0,0-.69,0c0,.27,0,.64.12.79a4.1,4.1,0,0,0,1,.58c.23.12.48.22.72.33l-.05.29-1.48.31a5.82,5.82,0,0,0,.75.87c1,.72,2-.17,3,0l.55.53-.76,1.46,1.51-.17.41.71-1.4.48.05.36,2.25,1.45a1.6,1.6,0,0,1,0,.21l-.36.72.42.18.38-.86.44,0,.45.25v.69c-1.41,1,0,2.43-.41,3.7-.25-.16-.44-.37-.61-.36-1.28,0-1.2-.49-.69-1.36.3-.51-.25-1.49-.81-1.46a4.12,4.12,0,0,0-1.12.38c-.22-.25-.45-.49-.68-.74l-2.06-2.91-1.19-1.85c-.2-.91-.74-.64-1.21-.59l-.11.37.88.25-.24.23-1.38.28C55,61,53.5,61.45,52,61.8a2.81,2.81,0,0,1-1.46.08c-1-.31-1.86-.81-2.81-1.17-.69-.26-1.42-.42-2.13-.63-.64-2-1-2.27-2.05-2.4l-2.4-1.17c.13-.31.27-.61.38-.93,0,0-.29-.21-.36-.17-.61.33-1.19.7-1.78,1.05L39,56.37c-.45-1.86-1.8-2.4-3.53-2.39L32.3,51.64c-.37-.53-.74-1.06-1.13-1.6l1-.49-.87-1.18,2-.16,4.85,2.32a4.76,4.76,0,0,1,.62.49c.06.78-.31,1.93.83,1.5a5.52,5.52,0,0,0,.9.94c.5.28,1.06.46,1.59.69a13.56,13.56,0,0,0,2.67,1.1c.74.14,1.37.14,1.72.94.11.23.55.3.84.45l.42-.86c1.58.44,2.89-.61,4.35-.78l.48-.14,1.16-.13.24-.08c.91-.08,1.81-.23,2.71-.22s1-.47,1-1.15c-.07-1-.23-2-.21-2.94a26.39,26.39,0,0,1,.35-2.78c.12-1,.24-1.9.4-3.11l-2.56.63c-.79-.41-1.41.06-2,.4l-.78-.16-3.2.25-.47.17-.45,0-.69.18-2.3,0-.71-.14-1.7-.21-1.42-.81-.31,0-.25-.16h0L40,43l-1.62.51-3.58-1.18c-.25-.73-.82-.57-1.36-.49l-1.33-.72-.56-.28-.46-.08-.46-.17L26.57,39l-.69-.22-.23-.55-.27.28-.9.07a18.5,18.5,0,0,0-3-1.09c-1.83-.35-3.7-.49-5.55-.72l0,.41a9.32,9.32,0,0,0-1.21.31,2.79,2.79,0,0,0-.63.45h-.63l-.25-.05a12.58,12.58,0,0,0-1.63.26,16.17,16.17,0,0,0-1.62.66c.12-1.79.48-2.35,1.73-2.66l-.13-1,.23-.19,1.64-.2a6,6,0,0,0,2.33,0,6.31,6.31,0,0,1,3.54-.21c1.56.19,3.13.39,4.68.67,1.09.2,2.14.55,3.21.83l1.61.3,2.52.6,1.83.52c.73.52,1.42,1.11,2.19,1.55a8.78,8.78,0,0,0,1.71.56c0,.72.11,1.25.95.47A1.24,1.24,0,0,1,39,40a4.73,4.73,0,0,1,1,.48,2.13,2.13,0,0,0,.54.38c1.72.51,3.43,1,5.15,1.48l1,.39,2.59-.23.68-.08c1.93-.35,3.87-.69,5.8-1.06a3.58,3.58,0,0,0,.88-.43Zm.2,19.78.52,0,.1-.93-.62-.06ZM28.29,38.57l-.19-.08c0,.06-.09.14-.07.19a.2.2,0,0,0,.18.07S28.26,38.64,28.29,38.57Z"/><path class="cls-2" d="M76.19,39.93a11.18,11.18,0,0,1-1.43-.19c-.17-.05-.26-.37-.38-.56.21-.06.55-.24.61-.17.74.91,1.37.29,2.29-.26A7.69,7.69,0,0,1,76,38.39a4.8,4.8,0,0,1-.77-.67l.71-1,.45-.12.22.2v1.24l.92-.79.92-.22a3.51,3.51,0,0,1,2.83.53c.38.31,1.17.12,1.76.16l5.07.77-.47-1.28,1,.2c.07.28.11.79.21.8,1.1.11,1.06.87,1,1.38.69.21,1.21.36,1.73.53.28.09.55.33.82.31,1.23-.06,2.47-.2,3.71-.31l-.11-1,.9-.29.7-.19a1.58,1.58,0,0,1,2.22-.21c.44.33.13,2-.4,2.46l-.75.4L95.72,43l-.46.2-.7.43L92,43.5l-1.14-.27-.47-.17-1.48-.84-1-.56a.35.35,0,0,0-.16-.08L87,41.29l-.46-.11c-.84-.32-1.66-.69-2.52-1a7.77,7.77,0,0,0-1.46-.17l1,1.33,2.21,3.22c.41.54.82,1.07,1.22,1.61l3.22,6.58c0,.39.07.78.1,1.16l1.21,2.24c-.18,1.1-.37,2.2-.53,3.31,0,.32.06.66,0,1,0,1.06-.11,2.13-.16,3.19a14.28,14.28,0,0,1-.11,2.18c-.17.75,0,1.17.75,1.36l.83.64c0,.16,0,.31,0,.47l-.68.23c-.52.43-1.39.63-1.09,1.61l-.06.68-.16.46q-1,2.72-1.94,5.42L88,77.87l-.78,2.26-.31.08-2.55.18-.58,1.15,1.17.86L83.39,83c-.27-.54-.42-.84-.56-1.14l1.11-2.07.93-.5-.43-.4.24-.68.08-.24V77.5c.19-.16.57-.39.54-.47-.28-.73.16-1.08.64-1.46.11-.09.09-.35.13-.53l2-6.45-.21-3A39.51,39.51,0,0,0,87.36,60c-.29-1.26.15-2.78-1.09-3.77-.16-.87-.32-1.73-.47-2.6a9.42,9.42,0,0,0-2.48-4.42,20.81,20.81,0,0,1-2.61-3.1c-1.15-1.66-2.13-3.42-3.24-5.09A6.64,6.64,0,0,0,76.19,39.93Zm1.66-.46c0-.07.09-.15.07-.19s-.12-.06-.18-.09-.09.14-.07.19S77.78,39.44,77.85,39.47Z"/><path class="cls-3" d="M73,33.57,66.74,31a3.76,3.76,0,0,0-.67-.12h-.46c-2.06,0-4.12-.11-6.17.06A12.38,12.38,0,0,0,56.55,32c-1.66.61-3.33,1.18-5,1.76a3.43,3.43,0,0,1-2.5.19l-1.15-.77c0-2-.52-2.39-2.26-1.7h-.49l-.2-.16-2.09-.68-.47-.2,0-.07c0-.17,0-.46.13-.5a3.27,3.27,0,0,1,1.53-.47c1.82.3.64-.73.61-1.25l1.37.51c0,.47-.06.94-.1,1.59l1.49-1a7.49,7.49,0,0,1,1.09.57,2.88,2.88,0,0,0,3.64.22c1.22-.71,2.51-1.29,3.77-1.93l.45-.26a32.34,32.34,0,0,1,3.47-.94,24.24,24.24,0,0,1,8.48-.28c2,.4,4.33.76,5.83,2.6.12.15.4.17.61.25l.24.43c-.34.53-.56,1.32-1.05,1.56C72.59,32.18,72.55,32.09,73,33.57Z"/><path class="cls-4" d="M32.75,28.77h-.11l-.11,0c-.21-.56-.45-.58-.7,0l-.48,0-.44.19c-1.18.48-2.37.94-3.53,1.44A23.42,23.42,0,0,1,23,32.3a25.36,25.36,0,0,1-5.72.26c-.52,0-1-.69-1.49-1,.74-2.51,2.83-2.64,4.75-3.17,1.75-.5,3.41-1.32,5.14-1.94,1-.38,2.11-.65,3.17-1l.3,1.3.33.07L30.1,26l-.28-.11L30,25l1.83-.45-.89,1.63a17,17,0,0,1,1.59.89,16.88,16.88,0,0,1,1.37,1.14Zm-2.06-.65,1.64-.22L31.26,27l-.57,1.11-.06.1Z"/><path class="cls-1" d="M82.83,81.82c.14.3.29.6.56,1.14l1.53-.56-1.17-.86.58-1.15,2.55-.18c0,.13,0,.26,0,.39s-.2.51-.31.77c-.53,0-.91.14-.33.69-.88,1.38-1.77,2.75-2.65,4.12a7.69,7.69,0,0,0,.07-1.35,1.41,1.41,0,0,0-.44-.67c-.73.36-1.89.64-2,1.2a31.79,31.79,0,0,0-.69,5c1-.36,1.52-.58.95-1.54a1.83,1.83,0,0,1,0-1.69,5,5,0,0,1,2-.71l-2.47,7-.23,0c0-.34-.1-.68-.14-1l-.42-.42-1-1.18-.15-.7c0-.16,0-.31,0-.47s-.13-.61-.19-.91l-.06-.63c.09-.32.18-.63.26-1h.48l.17.6.18,0,.11-.58c.39-1.4-.72-1-1.37-1.14L77.83,85l-.27-.68.62-1.11-1.43-1.59-.86.23-.63,0c0-.37-.07-.74-.11-1.12.54-1-.13-2-1.35-2l.14-.31-1.44-.72-1.14-1.16v-.44c.41-1,.85-2,2.2-1.84L75.94,76a3,3,0,0,1,1.27,3.49c-.17.64,1.21,1.87,2,1.93h.22l.46.69.22.23,1.27,2.3.59-1.37ZM72.76,76.61c-.18-.1-.3-.23-.39-.21a.41.41,0,0,0-.27.27c0,.07.17.26.24.25S72.57,76.77,72.76,76.61Z"/><path class="cls-5" d="M32.75,28.77l1.15-.61A16.88,16.88,0,0,0,32.53,27a17,17,0,0,0-1.59-.89l.89-1.63a3.35,3.35,0,0,1,2.93.07,21.3,21.3,0,0,0,3,.82c.94.27,1.86.6,2.79.91l.69.18c1,.4,1.9.79,2.84,1.21a3.61,3.61,0,0,1,.6.45c0,.52,1.21,1.55-.61,1.25a3.27,3.27,0,0,0-1.53.47c-.1,0-.09.33-.13.5l-.68-.28-1.64-.59c-1.18-.25-2.35-.54-3.54-.73a11.91,11.91,0,0,0-1.89,0C34,28.73,33.4,28.76,32.75,28.77Z"/><path class="cls-6" d="M11.61,35.22l.13,1c-1.25.31-1.61.87-1.73,2.66l-1.87.41-.23,0a9.14,9.14,0,0,1-5-1,6.86,6.86,0,0,1-1.35-1.39c-.41-.44-.81-.88-1.2-1.34-.14-.15-.4-.4-.36-.49.39-.82.19-2,1.5-2.24l1.38.28a2.33,2.33,0,0,0,2,1.24,6.37,6.37,0,0,1,2.33.84C8.68,35.94,10.14,35.43,11.61,35.22Z"/><path class="cls-7" d="M55.24,63.08A12.73,12.73,0,0,1,55,65.71C54.47,67,53.21,67.17,52,67.17c-1.49,0-3-.11-4.46-.23a2.43,2.43,0,0,1-1.87-3.54.87.87,0,0,1,.66-.31C49.27,63.07,52.2,63.08,55.24,63.08Z"/><path class="cls-8" d="M52,9.14a25.57,25.57,0,0,1-.84,3.48,22.07,22.07,0,0,1-2,4.17,9.39,9.39,0,0,1-2.31,2.12,1.08,1.08,0,0,1-1-.06c-.25-.4-.71-.75-.3-1.49a15.58,15.58,0,0,0,.86-3,13.21,13.21,0,0,1,.81-2.15c.44-.88,1-1.71,1.49-2.56.36.4.66.93,1.11,1.16.24.13,1.09-.34,1.08-.39C50.53,9.3,51.49,9.43,52,9.14Z"/><path class="cls-8" d="M59.39,9.39c-.39,1.1-.81,2.19-1.14,3.31a10.81,10.81,0,0,0,.29,5.5,6.07,6.07,0,0,1,.31,1.65c0,.4-.36,1.09-.6,1.11-.59.05-1.39.65-1.81-.44a13.67,13.67,0,0,1-.81-7.69c.23-1.14.44-2.67,1.71-3.47L58,9l.92,0Z"/><path class="cls-9" d="M62.41,65.59a4.12,4.12,0,0,1,1.12-.38c.56,0,1.11,1,.81,1.46-.51.87-.59,1.41.69,1.36.17,0,.36.2.61.36.46-1.27-1-2.66.41-3.7l.75,1.59c-.09.5-.41,1.27-.22,1.44A37.51,37.51,0,0,0,69.75,70v.22l-1,1.14-1.16-.15-.1.18-2.21-2.08-.43-.35c-.76-.08-.86.43-.92,1l-.45.1a16.85,16.85,0,0,1,0-1.88A2.74,2.74,0,0,0,62.41,65.59Z"/><path class="cls-9" d="M73,33.57c-.42-1.48-.38-1.39,1-2.09.49-.24.71-1,1.05-1.56l.48-.08,0,.1.47.22,1.14.48c.83,1.32.33,2.16-.74,3.07C75,34.87,74.08,33.82,73,33.57Z"/><path class="cls-10" d="M33.25,48.21l-2,.16.87,1.18-1,.49c.39.54.76,1.07,1.13,1.6a33.86,33.86,0,0,1-3.47-1.21c-.76-.36-1-2.53-.36-3.12.16-.16.62-.11.9,0,.86.23,1.61,1,2.64.34C32.23,47.49,32.82,48,33.25,48.21Z"/><path class="cls-11" d="M14.14,38a2.79,2.79,0,0,1,.63-.45A9.32,9.32,0,0,1,16,37.22l0-.41c1.85.23,3.72.37,5.55.72a18.5,18.5,0,0,1,3,1.09l-.22.47-3,2.84a16,16,0,0,1,0-1.86c0-.4.38-.78.38-1.17s-.25-.84-.48-.9a13.49,13.49,0,0,0-3-.48,15.78,15.78,0,0,0-2.43.4A14.26,14.26,0,0,1,14.14,38Z"/><path class="cls-7" d="M87.67,37.22l.47,1.28-5.07-.77c-.43-.24-.88-.45-1.29-.73s-1-.76-1.48-1.15a.14.14,0,0,1,0-.16l.71,0A14.24,14.24,0,0,1,87.67,37.22Z"/><path class="cls-3" d="M47.69,55.78l-.42.86c-.29-.15-.73-.22-.84-.45-.35-.8-1-.8-1.72-.94A13.56,13.56,0,0,1,42,54.15c-.53-.23-1.09-.41-1.59-.69a5.52,5.52,0,0,1-.9-.94c-1.14.43-.77-.72-.83-1.5,1.24.64,2.48,1.27,3.72,1.92.57.3,1.1.65,1.66,1C45.29,54.53,46.49,55.15,47.69,55.78Z"/><path class="cls-12" d="M40.05,40.48A4.73,4.73,0,0,0,39,40a1.24,1.24,0,0,0-1,.07c-.84.78-.92.25-.95-.47l1-.06.67-3.82,1.8-.71C40.53,36.84,41,38.72,40.05,40.48Z"/><path class="cls-7" d="M96,39.18l.11,1c-1.24.11-2.48.25-3.71.31-.27,0-.54-.22-.82-.31-.52-.17-1-.32-1.73-.53.08-.51.12-1.27-1-1.38-.1,0-.14-.52-.21-.8a4.91,4.91,0,0,1,3.79,1.25L93,39l.82.15c.44.65.89.51,1.34,0Z"/><path class="cls-9" d="M52,9.14c-.51.29-1.47.16-1.18,1.25,0,0-.84.52-1.08.39-.45-.23-.75-.76-1.11-1.16.37-.84.75-1.68,1.13-2.52l1.15-.51C51.9,7.18,52.62,7.88,52,9.14Z"/><path class="cls-7" d="M49.33,42.5l-2.59.23c0-.15,0-.29,0-.44a30.46,30.46,0,0,1,.08-3.45c0-.3.72-.6,1.15-.73.21-.06.66.23.77.47A6.84,6.84,0,0,1,49.1,40C49.17,40.84,49.25,41.67,49.33,42.5Z"/><path class="cls-8" d="M71.16,37.58l-.08.62-2.2.28-.51.84-1.83.46a5.57,5.57,0,0,0-3.51,1c-.28.17-.87-.15-1.32-.25a17,17,0,0,1,5.34-2.14C68.41,38,69.7,37.38,71.16,37.58Z"/><path class="cls-8" d="M91.48,67.23c-.73-.19-.92-.61-.75-1.36a14.28,14.28,0,0,0,.11-2.18c0-1.06.12-2.13.16-3.19,0-.33-.08-.67,0-1,.16-1.11.35-2.21.53-3.31,0,3,.65,5.94.29,8.93,0,.16,0,.32,0,.48s0,.6,0,.91L91.6,67Z"/><path class="cls-12" d="M39.42,56.46c.59-.35,1.17-.72,1.78-1.05.07,0,.36.15.36.17-.11.32-.25.62-.38.93l2.4,1.17c1.1.13,1.41.44,2.05,2.4L44,59.42l-1.41-.89-2-1-.77-.6Z"/><path class="cls-3" d="M87.19,80.13,88,77.87l2,1.7.62.46,1,1.11c-.39.15-.82.49-1.15.41a21,21,0,0,1-2.67-.91Z"/><path class="cls-2" d="M83.33,86.41a5,5,0,0,0-2,.71,1.83,1.83,0,0,0,0,1.69c.57,1,.1,1.18-.95,1.54a31.79,31.79,0,0,1,.69-5c.16-.56,1.32-.84,2-1.2a1.41,1.41,0,0,1,.44.67,7.69,7.69,0,0,1-.07,1.35Z"/><path class="cls-10" d="M53.52,45.48c.64-.34,1.26-.81,2-.4,0,1.13.93,2.27-.09,3.37l-1,.49-1-3C53.49,45.78,53.51,45.63,53.52,45.48Z"/><path class="cls-13" d="M67.64,71.16l1.16.15,1-1.14.48-.11.34-.19c.34.79.67,1.58,1,2.37a2.72,2.72,0,0,1-.43-.15c-1-.55-1.33-.37-1.41.77a9.9,9.9,0,0,1-.22,1.21l-.29,0c-.12-.17-.39-.38-.36-.53.21-1.14-.63-1.63-1.32-2.23A.27.27,0,0,0,67.64,71.16Z"/><path class="cls-4" d="M33.2,37.49,31.37,37c.16-.64.3-1.29.51-1.91s.31-1.06,1.06-.5a6.81,6.81,0,0,0,1.45.65l-.56,1.1-.16.5-.08.42Z"/><path class="cls-3" d="M58.93,40.7l-2.24.23c.22-1,.43-2,.65-3l.93-.61c1,.14.64.9.66,1.48S58.94,40.05,58.93,40.7Z"/><path class="cls-10" d="M69.22,74.09l.29,0,.23.23,1.15,1.82h.47v.44c-1.39,0-1.18,1.31-1.66,2-1.63-.51-.5-1.62-.6-2.41A10.56,10.56,0,0,1,69.22,74.09Z"/><path class="cls-3" d="M41.8,44.77l1.42.81c-.35,1.14-.69,2.28-1.11,3.68A4.9,4.9,0,0,1,41.8,44.77Z"/><path class="cls-5" d="M33.48,41.82c.54-.08,1.11-.24,1.36.49l-1.68,2.92-.41.05c-.11-.39-.39-.83-.29-1.15A20.54,20.54,0,0,1,33.48,41.82Z"/><path class="cls-14" d="M35.47,54c1.73,0,3.08.53,3.53,2.39-.22,0-.52.08-.66,0C37.37,55.57,36.43,54.77,35.47,54Z"/><path class="cls-1" d="M80.3,35.85c.49.39,1,.8,1.48,1.15s.86.49,1.29.73c-.59,0-1.38.15-1.76-.16A3.51,3.51,0,0,0,78.48,37l.69-1.13Z"/><path class="cls-3" d="M72.5,77.71l1.44.72-.14.31c1.22,0,1.89,1,1.36,2l-.57-.26Z"/><path class="cls-3" d="M75.89,81.87l.86-.23,1.43,1.59-.62,1.11Z"/><path class="cls-14" d="M45.65,31.47c1.74-.69,2.28-.28,2.26,1.7Z"/><path class="cls-15" d="M83.53,41.39l-1-1.33a7.77,7.77,0,0,1,1.46.17c.86.26,1.68.63,2.52,1a9.89,9.89,0,0,1-1.74-.31C84.12,40.63,83.68,40.59,83.53,41.39Z"/><path class="cls-3" d="M38.42,43.49,40,43l1.21,1.61Z"/><path class="cls-7" d="M79.17,35.91,78.48,37l-.92.22-.92-.45-.22-.2Z"/><path class="cls-16" d="M79.4,87.09h-.48L78.35,87c0-.29,0-.58-.08-.87l.22-.22c.65.14,1.76-.26,1.37,1.14Z"/><path class="cls-17" d="M30,25l-.18.94.28.11-.62.82-.33-.07-.3-1.3Z"/><path class="cls-9" d="M59.67,61.94l2.06,2.91A5,5,0,0,1,59.67,61.94Z"/><path class="cls-18" d="M92,43.5l2.54.16C94,44.32,93,44.26,92,43.5Z"/><path class="cls-14" d="M47.46,29.26l-1.49,1c0-.65.07-1.12.1-1.59Z"/><path class="cls-15" d="M77.1,30.64,76,30.16c0-.07,0-.14,0-.21l1.16-.39C77.1,29.92,77.1,30.28,77.1,30.64Z"/><path class="cls-15" d="M24.26,39.09l.22-.47.9-.07.5.27.69.22c-.46.38-.89.94-1.47.09C25,39,24.55,39.1,24.26,39.09Z"/><path class="cls-2" d="M75.26,37.72a2.64,2.64,0,0,1-.94.3c-.23,0-.44-.32-.67-.49l.72-.43.9-.16C75.27,37.2,75.27,37.46,75.26,37.72Z"/><path class="cls-15" d="M74.59,80.45l.57.26c0,.38.06.75.1,1.12C74,81.85,74.2,81.2,74.59,80.45Z"/><path class="cls-15" d="M90.49,70.18c-.3-1,.57-1.18,1.09-1.61A1.41,1.41,0,0,1,90.49,70.18Z"/><path class="cls-16" d="M58,60.12l-.88-.25.11-.37c.47,0,1-.32,1.21.59Z"/><path class="cls-15" d="M2.88,33.15,1.5,32.87C2,32.06,2.35,32.12,2.88,33.15Z"/><path class="cls-15" d="M42.63,58.53l1.41.89C43.39,59.4,42.66,59.52,42.63,58.53Z"/><path class="cls-19" d="M13.48,34.83l-1.64.2Z"/><path class="cls-3" d="M78.35,87l.57.06c-.08.32-.17.63-.26,1C78.56,87.71,78.46,87.38,78.35,87Z"/><path class="cls-1" d="M75.26,37.72c0-.26,0-.52,0-.78l.7-.21Z"/><path class="cls-3" d="M78.49,86l-.22.22c-.15-.38-.29-.77-.44-1.15Z"/><path class="cls-15" d="M92.26,68.34c0-.16,0-.31,0-.47l.57.55-.31.29Z"/><path class="cls-19" d="M95.13,39.16c-.45.49-.9.63-1.34,0Z"/><path class="cls-18" d="M87.89,41.66l1,.56Z"/><path class="cls-20" d="M78.72,88.68c.06.3.13.61.19.91C78.85,89.29,78.78,89,78.72,88.68Z"/><path class="cls-15" d="M39.87,57l.77.6Z"/><path class="cls-19" d="M86.19,82.06c-.58-.55-.2-.66.33-.69Z"/><path class="cls-15" d="M46.76,42.29c0,.15,0,.29,0,.44l-1-.39Z"/><path class="cls-15" d="M75.52,29.84l-.48.08-.24-.43Z"/><path class="cls-15" d="M87,41.29l.76.29Z"/><path class="cls-7" d="M97.57,38.7l-.7.19Z"/><path class="cls-8" d="M74.37,37.1l-.72.43a.74.74,0,0,1,0-.21Z"/><path class="cls-18" d="M81,35.67l-.71,0Z"/><path class="cls-19" d="M44.92,45.79l.71.14Z"/><path class="cls-19" d="M87.19,80.13l.55.51-.91,0c0-.13,0-.26,0-.39Z"/><path class="cls-20" d="M78.93,90.06l.15.7Z"/><path class="cls-5" d="M31.83,28.73c.25-.55.49-.53.7,0Z"/><path class="cls-19" d="M47.93,46l.69-.18Z"/><path class="cls-19" d="M98.64,41.35l.75-.4Z"/><path class="cls-5" d="M30.91,28.94l.44-.19Z"/><path class="cls-18" d="M65.61,30.86h0Z"/><path class="cls-15" d="M56.41,27.86l-.45.26Z"/><path class="cls-20" d="M80.07,91.94l.42.42Z"/><path class="cls-3" d="M76,30c0,.07,0,.14,0,.21l-.47-.22Z"/><path class="cls-19" d="M49.07,45.74l.47-.17Z"/><path class="cls-15" d="M64.9,68.91l.43.35Z"/><path class="cls-15" d="M91.6,67l.21-.46Z"/><path class="cls-15" d="M63.53,70l.45-.1-.21.41Z"/><path class="cls-18" d="M95.26,43.23l.46-.2Z"/><path class="cls-15" d="M91.77,65.61c0-.16,0-.32,0-.48C91.78,65.29,91.77,65.45,91.77,65.61Z"/><path class="cls-19" d="M93,39l-.55-.32Z"/><path class="cls-18" d="M90.41,43.06l.47.17Z"/><path class="cls-15" d="M90.27,71.32l.16-.46Z"/><path class="cls-18" d="M30.67,40.57l.46.17Z"/><path class="cls-18" d="M31.59,40.82l.56.28Z"/><path class="cls-19" d="M52.52,54.86,52,55Z"/><path class="cls-19" d="M53.92,54.65l-.24.08Z"/><path class="cls-15" d="M67.64,71.16a.27.27,0,0,1-.1.17h0A1.62,1.62,0,0,1,67.64,71.16Z"/><path class="cls-20" d="M7.91,39.3l.23,0Z"/><path class="cls-11" d="M13.26,37.94l.25.05Z"/><path class="cls-3" d="M41.24,44.58l.25.16Z"/><path class="cls-14" d="M45,31.31l.2.16Z"/><path class="cls-3" d="M73,57.15l-.42-5a5.13,5.13,0,0,1,1,.76c.5.59.92,1.25,1.37,1.87l.49-.17c0-.61,0-1.21,0-1.81s-.13-.88-.2-1.32l.22-.46c0-.3,0-.61,0-.91.82.36.69,1.09.69,1.77a3.47,3.47,0,0,0,.08,1c.69,1.91,1.41,3.82,2.13,5.73l-1.14-.24c-.41,2,1,5,2.36,5.13-.15-1.2-.28-2.39-.42-3.57a7.35,7.35,0,0,1,1.16.68,33.71,33.71,0,0,0,3.24,2.88,38.08,38.08,0,0,0,4.32,2.2l.21,3a14.23,14.23,0,0,1-7.94-4.15c-.06.67-.09,1-.12,1.4-.82-.38-1.33.09-1.79.67-.54-1.68-1.11-3.35-1.62-5-.4-1.33-.73-2.68-1.1-4l-.18,0L75.08,59l-.41.21.29.24c0,.15,0,.3,0,.45l-1.28-.76-.9.53h-.21c0-.3,0-.6,0-.91C73.69,58.47,72.75,57.66,73,57.15Z"/><path class="cls-8" d="M71.56,49.15l-1.79-2.68c0,1.18.09,2.33,0,3.46-.25,2.58-.51,5.16-1,7.7a14.08,14.08,0,0,1-1.31,2.93c-.33.74-.6,1.51-.89,2.27h-.8c1.22-1.87,1-4,1.21-6.1a29.62,29.62,0,0,0,.41-4.39c-.08-1.93-.48-3.84-.69-5.77-.1-.89-.1-1.8-.14-2.7,1,.53,2.31.62,2.3,2.26a2.32,2.32,0,0,1,2.68.78C72.42,47.77,72.46,48.25,71.56,49.15Z"/><path class="cls-4" d="M76.18,51.83c0-.68.13-1.41-.69-1.77a1.7,1.7,0,0,1,0-.22l.47-.69.69-.23.3-.26c.53.47,1.09.91,1.59,1.4a15,15,0,0,0,7.27,3.61c.15.87.31,1.73.47,2.6C82.28,56.18,79.07,54.37,76.18,51.83Z"/><path class="cls-8" d="M60.81,49.6l.63,7.09h-.65l-.7-.45-.46-.46c.1-.93-.31-2,.63-2.71.09-.07,0-.36,0-.54-.15-1-.32-2-.5-3.08Z"/><path class="cls-16" d="M60.79,56.69h.65c.21.68.42,1.36.62,2-1-.18-2,.71-3,0a5.82,5.82,0,0,1-.75-.87l1.48-.31.05-.29c-.24-.11-.49-.21-.72-.33a4.1,4.1,0,0,1-1-.58c-.15-.15-.09-.52-.12-.79a5.23,5.23,0,0,1,.69,0c.34.05.66.13,1,.2l.46.46Z"/><path class="cls-16" d="M61.93,43.42l-.67,0c-.83-.65-1.39-.11-1.74.54s-.59.76-1,.42a15.68,15.68,0,0,1-1.57-1.49c.29-.29.57-.6.88-.87s.46-.15.58-.31c.41-.55.63-.32,1.07.05a2.71,2.71,0,0,0,1.72.78C62,42.49,61.93,42.91,61.93,43.42Z"/><path class="cls-7" d="M76,49.15l-.47.69c-1.23-.89-2.26-1.92-2.24-3.56,0-.35.43-.69.65-1l3,3.42-.3.26Z"/><path class="cls-16" d="M66.54,39.78l1.83-.46,1.09,1.22c0,1.87-1.83.81-2.67,1.6l-1-1.51Z"/><path class="cls-9" d="M63.77,61.26l.9,2.29L62.42,62.1l-.05-.36Z"/><path class="cls-8" d="M65.88,42.86,63.79,43,66,41.62Z"/><path class="cls-9" d="M62.61,59.26l.75,1.29-1.51.17Z"/><path class="cls-9" d="M65.79,62.83h.8L66.05,64l-.45-.25C65.66,63.44,65.73,63.14,65.79,62.83Z"/><path class="cls-8" d="M60.85,45c.65.66.18,1.27-.1,1.89a2.13,2.13,0,0,1-.23-.73A6.93,6.93,0,0,1,60.85,45Z"/><path class="cls-16" d="M59.13,60.48v-1l.62.06-.1.93Z"/><path class="cls-9" d="M64.72,63.76l.44,0-.38.86-.42-.18Z"/><path class="cls-8" d="M60.68,47.52l.06,1C60.11,48.2,60.17,47.87,60.68,47.52Z"/><path class="cls-11" d="M25.88,38.82l-.5-.27.27-.28Z"/><path class="cls-11" d="M28.29,38.57c0,.07,0,.16-.08.18a.2.2,0,0,1-.18-.07s0-.13.07-.19Z"/><path class="cls-7" d="M75.48,51l-.22.46Z"/><path class="cls-3" d="M79.17,81.37c-.75-.06-2.13-1.29-2-1.93A3,3,0,0,0,75.94,76a18.34,18.34,0,0,0,.92-2.32c.48-1.83.85-3.69,1.27-5.54.16.21.51.54.46.61-.42.64-.16,1.1.25,1.61.15.19,0,.58.08.88.1,1,.2,2,.29,3h.35c.1-.31.24-.61.31-.93.19-.91.42-1.83.52-2.76.11-1.16.1-2.33.14-3.5l1-.42a7.2,7.2,0,0,0,.33,1.71c.52,1.11,1.14,2.18,1.74,3.25.71,1.25,1.22,2.65,2.51,3.48,0,.18,0,.44-.13.53-.48.38-.92.73-.64,1.46,0,.08-.35.31-.54.47L81,72.8v4.46l-.85-.61-.78.84c-.1-.4-.21-.79-.31-1.19-1.68,1.78-1.71,2.51-.14,4.61Z"/><path class="cls-1" d="M76.64,36.81l.92.45-.92.79Z"/><path class="cls-1" d="M83.94,79.75l.5-.9.43.4Z"/><path class="cls-1" d="M77.85,39.47c-.07,0-.17,0-.18-.09s0-.12.07-.19.16,0,.18.09S77.88,39.4,77.85,39.47Z"/><path class="cls-3" d="M84.68,78.17c0-.08,0-.16.08-.24C84.73,78,84.71,78.09,84.68,78.17Z"/><path class="cls-5" d="M30.69,28.12,31.26,27l1.07.89-1.64.22Z"/><path class="cls-5" d="M30.69,28.12l-.06.1.06-.1Z"/><path class="cls-16" d="M72.73,72.92l.83,1.35c-1.35-.11-1.79.85-2.2,1.84h-.47c0-.26,0-.53.07-.78.11-.85-.33-1.22-1.22-1l-.23-.23a9.9,9.9,0,0,0,.22-1.21c.08-1.14.39-1.32,1.41-.77a2.72,2.72,0,0,0,.43.15c0,.07,0,.14,0,.22l.48.42Z"/><path class="cls-3" d="M81.27,78.61c-.13.53-.25,1.07-.38,1.6-.9.31-.91,1.12-1,1.86l-.46-.69.23-.48-.18-2.49Zm-.73.88-.15-.3a1,1,0,0,0-.25.25s.09.19.16.21S80.45,79.55,80.54,79.49Z"/><path class="cls-10" d="M81.1,82l.83,1.24-.59,1.37-1.27-2.3Z"/><path class="cls-14" d="M81.1,82l-1,.31-.22-.23c.13-.74.14-1.55,1-1.86,0,.31.07.62.11.94,0,0-.09.06-.08.07a1,1,0,0,0,.1.16Z"/><path class="cls-10" d="M72.76,76.61c-.19.16-.3.29-.42.31s-.25-.18-.24-.25a.41.41,0,0,1,.27-.27C72.46,76.38,72.58,76.51,72.76,76.61Z"/><path class="cls-3" d="M79.4,87.09h.46l-.11.58-.18,0Z"/><path class="cls-14" d="M79.62,80.9l-.23.48h-.22l-.23-.46Z"/><path class="cls-8" d="M66.8,66.28l.43.87c0,.2.1.41.14.61l.31-.34C69,67.8,69.23,69.08,70,70h-.22a37.51,37.51,0,0,1-3.17-2.23C66.39,67.55,66.71,66.78,66.8,66.28Z"/><path class="cls-7" d="M69.75,70H70l.26.11-.48.11Z"/><path class="cls-7" d="M72.73,72.92l-.66,0-.48-.42c0-.08,0-.15,0-.22-.33-.79-.66-1.58-1-2.37.08-.3.15-.6.22-.9L72.5,67.5l1.28.41c0,.14,0,.28,0,.42-.93.17-.93.17-1,.7h.81c-.11.6-.22,1.21-.32,1.81,0,.16-.09.32-.13.48C73,71.85,72.89,72.38,72.73,72.92Z"/><path class="cls-13" d="M69.74,74.3c.89-.18,1.33.19,1.22,1,0,.25,0,.52-.07.78Z"/><path class="cls-5" d="M73.78,67.91,72.5,67.5,70.79,69q.61-3,1.22-5.89c.85-.22,1.36-.64,1.06-1.62-.17-.56-.06-.87.65-.77a5.06,5.06,0,0,0,1.22-.13Q74.37,64.24,73.78,67.91Z"/><path class="cls-10" d="M74.94,60.56a5.06,5.06,0,0,1-1.22.13c-.71-.1-.82.21-.65.77.3,1-.21,1.4-1.06,1.62.12-1,.23-2,.34-2.95l.39-.47.9-.53,1.28.76C74.93,60.11,74.94,60.34,74.94,60.56Z"/><path class="cls-5" d="M73,57.15c-.23.51.71,1.32-.41,1.6C72.71,58.22,72.84,57.69,73,57.15Z"/><path class="cls-9" d="M67.68,67.42l-.31.34c0-.2-.09-.41-.14-.61Z"/><path class="cls-5" d="M72.74,59.66l-.39.47.18-.47Z"/><path class="cls-1" d="M78.13,68.09c0-.52.09-1,.14-1.58.46-.58,1-1.05,1.79-.67.16.39.32.79.47,1.18,0,1.17,0,2.34-.14,3.5-.1.93-.33,1.85-.52,2.76-.07.32-.21.62-.31.93h-.35c-.09-1-.19-2-.29-3,0-.3.07-.69-.08-.88-.41-.51-.67-1-.25-1.61C78.64,68.63,78.29,68.3,78.13,68.09Z"/><path class="cls-21" d="M78.39,58.53c.26.44.53.88.8,1.32.14,1.18.27,2.37.42,3.57-1.41-.17-2.77-3.12-2.36-5.13Z"/><path class="cls-5" d="M75.08,59l-.12.45-.29-.24Z"/><path class="cls-3" d="M76,49.15l.69-.23Z"/><path class="cls-1" d="M60.79,56.69l-.7-.45Z"/><path class="cls-14" d="M79.44,78.41c0-.31,0-.61,0-.92l.78-.84.85.61c.08.45.17.9.25,1.35Z"/><path class="cls-10" d="M81,81.38a1,1,0,0,1-.1-.16s0,0,.08-.07Z"/><path class="cls-5" d="M73.65,69h-.81c0-.53,0-.53,1-.7C73.74,68.56,73.7,68.79,73.65,69Z"/><path class="cls-5" d="M73.2,71.32c0-.16.08-.32.13-.48C73.28,71,73.24,71.16,73.2,71.32Z"/><path class="cls-13" d="M71.59,72.46l.48.42Z"/><path class="cls-14" d="M80.54,79.49c-.09.06-.18.17-.24.16s-.18-.18-.16-.21a1,1,0,0,1,.25-.25Z"/></g></svg>