<svg xmlns="http://www.w3.org/2000/svg" viewBox="0 0 100 100"><defs><style>.cls-1{fill:#bd9f9e;}.cls-2{fill:#9b6d6c;}.cls-3{fill:#986a68;}.cls-4{fill:#936160;}.cls-5{fill:#c4a9a8;}.cls-6{fill:#a57c7b;}.cls-7{fill:#ba9b99;}.cls-8{fill:#9f7473;}.cls-9{fill:#b79896;}.cls-10{fill:#a37978;}.cls-11{fill:#a7807e;}.cls-12{fill:#ab8685;}.cls-13{fill:#c0a3a2;}.cls-14{fill:#cbb3b2;}.cls-15{fill:#c7adac;}.cls-16{fill:#cdb6b6;}.cls-17{fill:#c9b0af;}.cls-18{fill:#d2bebe;}.cls-19{fill:#b39290;}.cls-20{fill:#9d716f;}.cls-21{fill:#b69694;}.cls-22{fill:#bb9d9b;}.cls-23{fill:#ae8a89;}</style></defs><g id="Ebene_5" data-name="Ebene 5"><path class="cls-1" d="M93.76,43.76l-1.31.9c-.28-.34-.49-.45-1-.14a13,13,0,0,1-2.17,1l.13,1a3.25,3.25,0,0,1-.95.21c-.49,0-.57.15-.57.58s0,.81-.18.86a2.66,2.66,0,0,1-1.16,0c-.44-.05-.87-.18-1.31-.27l-.07.35.86.23-.69,1.31-.69-.36L83.5,50l-.5.17L81.29,51l1.07.22c-.25,1.35-1.9,1.13-2.22,2.27-.33-1-.33-1-.83-1.09v1.39l1.31.57-2,1.71-.38.31-1.5.71c-1.07,0-1.09,0-1,1.05l-.56.3-.31-.5c-.13.11-.32.2-.39.35a8.48,8.48,0,0,0-.32,1l-.21.49H72.76L71,59.18l-.66.94,1.49.08-1.38,1.16.14.21.9.1c-.86.81-1.66,1.68-2.57,2.4-1.29,1-2.66,1.94-4,2.89a5,5,0,0,1-.65.33l-.58.49h0c-1.19-.15-1.39-1.24-2-2.25L60.6,66.85v0l-1.55,1.3-1,.13a3.26,3.26,0,0,1,.43-.6c1.3-1.07,2.63-2.11,3.91-3.21s2.48-2.29,3.78-3.37c2.33-1.94,4.7-3.84,7.08-5.72.82-.64,1.73-1.15,2.59-1.72l.2,1.28-.52.06c.74.4,1.35.24,1.25-.24s-.07-1.13-.84-1.12a3.33,3.33,0,0,1,.4-.51c1.17-1,2.34-2,3.53-3s2.14-1.84,3.27-2.69a37.52,37.52,0,0,0,3.24-2.56A48.34,48.34,0,0,1,91,41.31a4.3,4.3,0,0,0,.59.34c.44.16.89.69,1.35,0h.83l.51.85v.87l-.13,0ZM81.71,51.58c-.18,0-.29-.12-.35-.09s-.12.17-.17.25.18.14.25.13S81.57,51.73,81.71,51.58Z"/><path class="cls-2" d="M19.37,40.53l.34,0c0,.05,0,.1,0,.15a3.56,3.56,0,0,0-.11,1.2c.05.26.42.46.68.64.08,0,.28-.1.42-.16l-.36-.67c0-.05,0-.11,0-.16l.29-.68h.34a11.46,11.46,0,0,0,1.71.87c.18.06.55-.33.78-.57.08-.08,0-.35-.07-.54,1.16.12,1.18.09.89-1.08l1.34-.57.16.29-.66.7.47.64a1.84,1.84,0,0,0-.42.9c0,.12-.11.29-.21.33-.52.2-.31.57-.23.92,0,.05,0,.1,0,.16l-2-.76a7.43,7.43,0,0,0,0,1.21,3.92,3.92,0,0,0,.36.91c-.6.46-1.18.94-1.79,1.37-.78.55-1.58,1.08-2.39,1.59-.63.4-1.3.74-1.93,1.14-1.13.7-2,1.89-3.44,2-.08,0-.15.22-.22.33l-.29.23-1.46-.1c-.11,1.5-1.78,1.43-2.18,2.38L8,52.36l-.38.45a3.81,3.81,0,0,1,.79.46c.17.15.35.59.3.63a11.24,11.24,0,0,1-1.3.86s-.2-.12-.23-.21a11.72,11.72,0,0,0-.62-1.69,2.42,2.42,0,0,0-1-.87c-.1-.05-.44.37-.69.54a3.28,3.28,0,0,1-.54.24l.53-1.41H4.16c.33-.29.64-.61,1-.87,1.21-.87,2.44-1.72,3.67-2.57.49-.35,1-.66,1.49-1a.8.8,0,0,0,.19-.46c.7-.37,1.32-.64,1.88-1,1.23-.8,2.43-1.64,3.63-2.47l.19.39a6.22,6.22,0,0,0,1.06.39c.21,0,.58,0,.66-.14a7,7,0,0,0,.41-1.22v-1l.23-.16.3-.16.13-.16Z"/><path class="cls-3" d="M63.73,13.8l.32,0,2.44,1.06.65-.77,2.53.73c.41.27,1,.86,1.19.76.79-.35,1,.19,1.31.6s.66.87,1.31.7l.3.36c.21.42.44.84.63,1.26s.44,1.07.67,1.6a5.22,5.22,0,0,1,.71,1.69c0,1.48-.08,3-.15,4.44a1.56,1.56,0,0,1-.15.39h-.17c-.58-.28-1.59-.16-1-1.53l-1.51.59c-.36.14-.72.26-1.08.38l-.15-1c.61.08.69-.15.59-.74a11.32,11.32,0,0,1,0-2l.3-.09c-.23-.2-.48-.39-.7-.61s-.6-.51-.65-.8c-.18-.91-1-1.06-1.59-1.48A4.48,4.48,0,0,0,68,19c-.43-.12-1.08-.15-1.21-.43-.29-.59-.68-.44-1.1-.4l-.62-.45-.15-1.1a9.43,9.43,0,0,0-2.18-.06c-.39.07-1.1-.45-1.23.43l-.87.37a3.79,3.79,0,0,1-.69.3c-.64.15-1.31.21-2,.39-1.07.3-1.07.33-1.15-.68,0-.38-.12-.88.08-1.12s.7-.22,1.08-.32c-.15-1-.12-1.1,1.08-1.15.47,0,.59-.22.57-.62l.5,0,.57.64A1.59,1.59,0,0,1,62.84,14C63.09,14.07,63.43,13.87,63.73,13.8Z"/><path class="cls-4" d="M24.14,74.05l-.85,0-.34.05c-.35.19-.7.4-1.06.56-.12,0-.31-.06-.47-.09l-.21-.26-.14.25a2.88,2.88,0,0,0-.85.23c-.32.19-.57.52-.89.73a2.23,2.23,0,0,1-.66.22c-.83-.22-1.13,0-1.68,1.25l-.26.19-2.27.52.59-.76a1.26,1.26,0,0,1-1.59-.62c.14-.84,1.44-1.17,1-2.25l.22-.66.28-.89.3-1.83L15.58,69a1.52,1.52,0,0,0,2.34,0c.06,0,.17,0,.25,0L19,70.34a3.93,3.93,0,0,0,2.66-2,1.29,1.29,0,0,1,1.85-.23c.84,1.07,2.08,1,3.25,1.2h.51v.18c0,.94.07,1.84.59,2.06a5.1,5.1,0,0,1-.46,1,1.6,1.6,0,0,1-.93.47c-.73.09-1.48.09-2.22.13Z"/><path class="cls-5" d="M29.38,34.63c.83-.67,1.64-1.36,2.49-2s2-1.51,3-2.25L40,26.61c.47-.35.91-.73,1.37-1.1l.33.48c0,.34-.08.77.09,1a.73.73,0,0,1-.1,1.11c-.17.16-.49.16-.74.23l-.1-.89a.89.89,0,0,0-.63,1.06,1.32,1.32,0,0,1,0,.56,1.4,1.4,0,0,0,1.29,1.88,4.6,4.6,0,0,1-.65.74c-.49.37-1.06.65-1.53,1-1.69,1.35-3.32,2.79-5,4.1-1.2.91-2.53,1.67-3.8,2.5L30,38.62l.52-.68c.1-.08.28-.15.3-.25.12-.83.77-.91,1.38-.94A1.85,1.85,0,0,0,34,34.16c0-.12-.45-.11-.69-.16-.09.49-.69.75-.51,1.41.07.28-.31.68-.48,1L32,36.28a2.55,2.55,0,0,0,.26-.81,1.53,1.53,0,0,0-.27-.72c-.56.14-1.29,0-1.53.77l-.31,0C30.25,34.89,29.71,34.85,29.38,34.63Z"/><path class="cls-6" d="M6.19,74.68c-1.08-.43-1.23-1.6-1.85-2.39a14.45,14.45,0,0,1-1.71-2.51,26.2,26.2,0,0,1-1.34-3.45C.87,65.1.49,63.85.17,62.6A9.07,9.07,0,0,1,0,60.94,10.59,10.59,0,0,1,1,56.4c.1-.24.4-.39.61-.58a4.88,4.88,0,0,1,.31,1c.08.88.36,1.21,1.14,1s1,.16.95.85a12.28,12.28,0,0,0-.29,2.07c0,.84.33,1.68.28,2.51A6.5,6.5,0,0,0,5.24,67c.59,1,1.12,2.13,1.68,3.2L6.37,71l-.21-.77-.32.17a2.82,2.82,0,0,0,0,1.09A4.7,4.7,0,0,1,6.19,74.68Z"/><path class="cls-3" d="M24.14,74.05l.05-.87c.74,0,1.49,0,2.22-.13a1.6,1.6,0,0,0,.93-.47,5.1,5.1,0,0,0,.46-1c-.52-.22-.62-1.12-.59-2.06l.35-.34.31.12.07.54-.13.42.22.06c.07-.16.13-.33.19-.5l0-.4.67.09c.05.12.06.31.15.37q1.55.9,3.12,1.74c.1,0,.31-.12.47-.19l1,.82-.3.29.48.22,0,.33c-.17,1.09.9,1.36,1.35,2l.69.38.26.14c-.53.6,0,.83.35,1.19.18.19.17.54.25.82l-.51.39a8.79,8.79,0,0,1,.35.82,1,1,0,0,1-.06.44c-.12,0-.29,0-.37-.07a5.35,5.35,0,0,1-.45-.5,12.79,12.79,0,0,0-1.36-1.39c-.21-.16-.63-.06-.94,0a.84.84,0,0,0,0,.61c.48.51,1,1,1.57,1.48a4.08,4.08,0,0,1-.28.49c-.15.18-.35.5-.5.48-.34,0-.93-.24-.93-.39,0-.83-.74-1.36-.86-2-.2-1.15-.9-1.38-1.82-1.47-.83-.74-1.62-1.51-2.48-2.2a1.79,1.79,0,0,0-1.06-.34C26.11,73.93,25.13,74,24.14,74.05Z"/><path class="cls-7" d="M87,27.8l.44.08.49,1h.69l.18.67a2.07,2.07,0,0,0-.49-.07,2.45,2.45,0,0,0-.92.24.79.79,0,0,0-.16.64,6.56,6.56,0,0,0,1.08.42l.25-.63.42.26c.31.87.6,1.76.92,2.63a11.16,11.16,0,0,0,.5,1l-.91,1.77h-1c-.08-.23-.08-.58-.24-.68C87.06,34.44,87,33.11,86.54,32l-.34-.37h0a.64.64,0,0,0-.39-1c-.71-.21-1.22-1.29-2.16-.51a2.92,2.92,0,0,0-.9-.31c-.66,0-1.32.09-2,.14l0-1.53-.32-.08c-.28.75-.6,1.41-1.54,1.33-.08,0-.21.49-.32.76l-1.88.64-.31-1,2.27-1.31c.07-.5.11-.76.13-1a2.3,2.3,0,0,0-.05-.45,2.58,2.58,0,0,0-.42.13c-.37.22-.71.45-1,.62l-.71-1.34c.87-.17,1.73-.43,2.6-.51,1.37-.13,2.75-.14,4.13-.2l.57,1.4a7.16,7.16,0,0,0-.74.49,1.71,1.71,0,0,0-.26.44,1.57,1.57,0,0,0,.51.09c.38-.07.75-.19,1.19-.31,0-.61.44-.83,1.07-.75a4,4,0,0,0,.59,0h0l-.29.62.11.18Z"/><path class="cls-8" d="M52.1,77.11a.25.25,0,0,1-.12.08l-.77.28-1.48,1.06c-.82.35-1.57.53-2.2-.4s-1.26-.78-2,0a20.41,20.41,0,0,1-2,1.78V78.78a4.07,4.07,0,0,1,.57-.6q2.18-1.46,4.36-2.86c.67-.44,1.38-.83,2-1.27s1.17-.86,1.77-1.28c1.56-1.12,3.13-2.22,4.69-3.33L58,69l1.32.3-.86,1c-.13.09-.3.15-.37.27-.29.47-.55,1-.82,1.44l-.36.33-.53,1.29-.64.26-.7.33a3.2,3.2,0,0,0-.54.41c-.27.34-1,.4-.65,1.12l-.33.19c-.27,0-.63,0-.79.15A4.22,4.22,0,0,0,52.1,77.11Z"/><path class="cls-4" d="M30.63,76.48c.92.09,1.62.32,1.82,1.47.12.67.84,1.2.86,2,0,.15.59.35.93.39.15,0,.35-.3.5-.48A4.08,4.08,0,0,0,35,79.4c-.55-.51-1.09-1-1.57-1.48a.84.84,0,0,1,0-.61c.31,0,.73-.15.94,0a12.79,12.79,0,0,1,1.36,1.39,5.35,5.35,0,0,0,.45.5c.08.07.25.05.37.07a1,1,0,0,0,.06-.44,8.79,8.79,0,0,0-.35-.82l.51-.39c.08.11.27.25.25.33-.2.69.19.85.74.91A6.65,6.65,0,0,0,38.37,80c.45.55,1,1,1.46,1.54l.36,0L42,80.23h.18v.84a5.58,5.58,0,0,1-.53,2.42c-.19.46-.41.81-1,.54-.1-.05-.38.11-.46.25-.26.44-.48.92-.78,1.52-.81-.77-1.64-1.38-2.71-.63-.92-1-1.92-1.91-2.75-3a25.78,25.78,0,0,1-1.52-2.61c-.4-.64-.9-1.21-1.3-1.85A7.94,7.94,0,0,1,30.63,76.48Zm7.08,4.62.28-.16a10.43,10.43,0,0,0-.44-1.22c0-.09-.36-.15-.5-.09a.51.51,0,0,0-.15.46A9.68,9.68,0,0,0,37.71,81.1Zm1,1L39,82l-.23-1-.74.61Z"/><path class="cls-5" d="M46.48,22.33c.67-.43,1.36-.85,2-1.29l5.13-3.39a1.51,1.51,0,0,1,.39-.07c-.35.37-.72.72-1.06,1.11a2.2,2.2,0,0,0-.47.75,6,6,0,0,0-.1,1.13c.16,0,.39.15.56.09.69-.26,1.14-1,2.13-.69.51.14,1.22-.49,1.86-.71.18-.06.43.1.64.16a10.34,10.34,0,0,1-.84.64c-.56.32-1.18.55-1.72.91-1,.63-1.89,1.31-2.82,2a6.15,6.15,0,0,1-.91.74c-1,.42-2,.73-3,1.14a2,2,0,0,0-.68.66,14.32,14.32,0,0,1-1.26,1.6c-.77.7-1.64,1.29-2.47,1.92a1.51,1.51,0,0,0-1.7-.46c.17-.94.9-.58,1.22-.6l1.23-1.06c0-.09-.17-.37-.09-.48a4.55,4.55,0,0,1,.91-.95c.31-.24.44-.41.07-.71s-.3-.58.16-.81C46.36,23.61,46.86,23.16,46.48,22.33Z"/><path class="cls-2" d="M6.19,74.68a4.7,4.7,0,0,0-.32-3.15,2.82,2.82,0,0,1,0-1.09l.32-.17.21.77.55-.87c.26.25.53.49.77.75,1.08,1.15,2.12,2.32,3.23,3.43a1.85,1.85,0,0,0,2.8-.28l.7,0c.48,1.08-.82,1.41-1,2.25a1.26,1.26,0,0,0,1.59.62l-.59.76,2.27-.52c-1.08.72-2,1.81-3.5,1.66-.13-.24-.2-.58-.4-.69a12.69,12.69,0,0,0-1.61-.67c-.56-.21-1.15-.39-1.2-1.15l-1.27.84a.15.15,0,0,1-.12-.07c-.08-.35,0-.84-.26-1a17.48,17.48,0,0,0-2-1.17Z"/><path class="cls-4" d="M4,58.71c.06-.69-.11-1.05-.95-.85s-1.06-.15-1.14-1a4.88,4.88,0,0,0-.31-1l.17-.66c.46-.18.8-.45.7-1l0-.34c.13-.07.39-.18.38-.21-.17-.68.28-.65.71-.68a4.5,4.5,0,0,0,.73-.15,3.28,3.28,0,0,0,.54-.24c.25-.17.59-.59.69-.54a2.42,2.42,0,0,1,1,.87,11.72,11.72,0,0,1,.62,1.69c0,.09.2.23.23.21a11.24,11.24,0,0,0,1.3-.86c.05,0-.13-.48-.3-.63a3.81,3.81,0,0,0-.79-.46L8,52.36l1.28.83c.4-.95,2.07-.88,2.18-2.38l1.46.1c-.05.7-.75.6-1.11.9-.8.68-1.58,1.38-2.34,2.11a2.43,2.43,0,0,0-.36.7,9,9,0,0,0-.79.84c-.24.32-.36.95-.62,1-1,.18-1.08.8-.93,1.6l-1-.22c-.1-.67-.47-.59-.78-.22a4,4,0,0,0-.44,1.06Z"/><path class="cls-2" d="M42.23,80.74c0-.16,0-.33,0-.5.67,0,.75-.38.65-.91h0l.39-.26.32-.3v1.16a20.41,20.41,0,0,0,2-1.78c.71-.81,1.36-.92,2,0s1.38.75,2.2.4c-.1.17-.15.41-.31.52-.77.55-1.6,1-2.35,1.62a3,3,0,0,0-.56.94l-.34.34-.39.27c-.25.22-.5.44-.76.65s-.51.37-.77.55A11.88,11.88,0,0,1,43,84.61c-.88.59-1.8,1.09-2.71,1.64s-1.52,0-2.27-.15c-.56-.1-1.12-.22-1.25-.92,1.07-.75,1.9-.14,2.71.63.3-.6.52-1.08.78-1.52.08-.14.36-.3.46-.25.6.27.82-.08,1-.54a5.58,5.58,0,0,0,.53-2.42l.48,0Zm1.48-.14-.08.26.51.17.08-.3Zm.63,1.09c-.13-.09-.23-.21-.28-.19s-.16.13-.23.21.13.19.2.19S44.2,81.8,44.34,81.69Z"/><path class="cls-9" d="M93.74,41.68h-.83c-.29-.21-.57-.44-.87-.63a3.87,3.87,0,0,0-.55-.25l1.19-1a20,20,0,0,1-2.05-1.16,7.4,7.4,0,0,1-1-1.11c.59-.57-.15-1.06-.1-1.6h0l1.25-.5.15-.56c.68.57,1.35,1.15,2,1.71a.85.85,0,0,0,.51.25c1.31,0,2.63,0,3.93-.16a12.54,12.54,0,0,0,2-.54c1,1.21.76,2.06-.86,2.92l-1.68-.8c.14-.47.07-1-.62-1.11S95,37,94.85,37.75l.93.61-.09.17H94.9l.48.64-.11.17-1.22-.5a1.54,1.54,0,0,0,.31,1.64c.35.41.67,1.05,1.43.69-.06.17-.13.34-.18.51s-.08.37-.12.55l-.72.5v-.19l-.7-1.23Z"/><path class="cls-10" d="M30.47,37.94l-.52.68c-.29.22-.6.64-.87.61-.79-.07-.89.5-1.24,1a3,3,0,0,1-2.05,1.51c0,.42.18,1.06-.73.9-.12,0-.26.07-.39.12-.08-.35-.29-.72.23-.92.1,0,.17-.21.21-.33a1.84,1.84,0,0,1,.42-.9l-.47-.64.66-.7-.16-.29-1.34.57c.29,1.17.27,1.2-.89,1.08,0,.19.15.46.07.54-.23.24-.6.63-.78.57a11.46,11.46,0,0,1-1.71-.87,5.31,5.31,0,0,1-.1-.68,1.27,1.27,0,0,1,.1-.37l.85-.43.2.59.8-.43c.27.15.71.64.87-.21l.3-.73,0,0,0,0,1.87-.32.72-1.18.68-.35c.92-.53,1.67-1.49,2.93-1.22l.31,0c.44.52.37.93-.17,1.25a9.36,9.36,0,0,0-.81.54Z"/><path class="cls-11" d="M57.59,19.42c-.21-.06-.46-.22-.64-.16-.64.22-1.35.85-1.86.71-1-.27-1.44.43-2.13.69-.17.06-.4-.06-.56-.09a6,6,0,0,1,.1-1.13,2.2,2.2,0,0,1,.47-.75c.34-.39.71-.74,1.06-1.11.75-.6,1.5-1.21,2.27-1.8,1-.77,1.81-1.94,3.34-1.66,0,.4-.1.6-.57.62-1.2,0-1.23.12-1.08,1.15-.38.1-.89.08-1.08.32s-.11.74-.08,1.12c.08,1,.08,1,1.15.68.64-.18,1.31-.24,2-.39a3.79,3.79,0,0,0,.69-.3l.87-.37c.54.36.47.63-.12.87a2.43,2.43,0,0,0-1.57,1.51,2.5,2.5,0,0,1-.8.26A11.3,11.3,0,0,1,57.59,19.42Z"/><path class="cls-12" d="M76.61,26.7,77.32,28c.26-.17.6-.4,1-.62a2.58,2.58,0,0,1,.42-.13,2.3,2.3,0,0,1,.05.45c0,.26-.06.52-.13,1l-2.27,1.31c.11.36.21.67.31,1l-1,.12-1.08-.78,2.13-1.79s-.21-.24-.17-.38c.19-.71-.08-1-.77-1.07-.12,0-.21-.31-.32-.48a1.56,1.56,0,0,0,.15-.39c.07-1.48.2-3,.15-4.44a5.22,5.22,0,0,0-.71-1.69c-.23-.53-.43-1.07-.67-1.6s-.42-.84-.63-1.26c1.44.44,1.81,1.82,2.52,2.89s.34,2.25.28,3.41S76.6,25.67,76.61,26.7Z"/><path class="cls-7" d="M46.48,22.33c.38.83-.12,1.28-.76,1.61-.46.23-.57.46-.16.81s.24.47-.07.71a4.55,4.55,0,0,0-.91.95c-.08.11.07.39.09.48L43.44,28c-.32,0-1-.34-1.22.6l-.16.17-1,.44.63.81.36.42-.51.54a1.4,1.4,0,0,1-1.29-1.88,1.32,1.32,0,0,0,0-.56.89.89,0,0,1,.63-1.06l.1.89c.25-.07.57-.07.74-.23a.73.73,0,0,0,.1-1.11c-.17-.22-.07-.65-.09-1,.63-.26.88,0,.86.63s.44.63.83.53c.17,0,.27-.39.39-.6a2.8,2.8,0,0,1,.31-.57,3.76,3.76,0,0,1,.59-.43L44,24.48l.86-.46-.09-.71Z"/><path class="cls-13" d="M59.29,69.31,58,69l-.45-.23.17-.16.38-.36,0,0,1-.13,1.55-1.3v0l1.14-1.32c.59,1,.79,2.1,2,2.25L59,71.72l-.12-.57.8-.4c0-.27-.17-.6-.07-.7.56-.56,1.17-1.06,1.76-1.58.15-.14.41-.24.44-.39s-.19-.33-.17-.3L60,68.35l.06.62Z"/><path class="cls-12" d="M95.79,41.17c-.76.36-1.08-.28-1.43-.69a1.54,1.54,0,0,1-.31-1.64l1.22.5.11-.17-.48-.64h.79l.09-.17-.93-.61c.13-.8.8-.74,1.39-.66s.76.64.62,1.11l1.68.8-.56.29v.17l-.27,1.39-.56,0h0l.31-.89c-1.23-.28-1.58,0-1.67,1.23Z"/><path class="cls-14" d="M84.7,49.36l.69.36.69-1.31-.86-.23.07-.35c.44.09.87.22,1.31.27a2.66,2.66,0,0,0,1.16,0c.15-.05.18-.56.18-.86s.08-.62.57-.58a3.25,3.25,0,0,0,.95-.21l-.13-1a13,13,0,0,0,2.17-1c.46-.31.67-.2,1,.14-1,.89-1.9,1.85-2.94,2.66-1.39,1.08-2.86,2-4.3,3L84.7,50Z"/><path class="cls-15" d="M44.8,23.31l.09.71-.86.46.67,1.07a3.76,3.76,0,0,0-.59.43,2.8,2.8,0,0,0-.31.57c-.12.21-.22.56-.39.6-.39.1-.85.05-.83-.53s-.23-.89-.86-.63l-.33-.48A10.25,10.25,0,0,1,44.8,23.31Z"/><path class="cls-16" d="M80.62,54.32l-1.31-.57V52.36c.5.06.5.06.83,1.09.32-1.14,2-.92,2.22-2.27L81.29,51,83,50.21l-.07.84.81.43Z"/><path class="cls-12" d="M8.75,77.19,10,76.35c.05.76.64.94,1.2,1.15a12.69,12.69,0,0,1,1.61.67c.2.11.27.45.4.69A5.66,5.66,0,0,1,8.75,77.19Z"/><path class="cls-17" d="M86.27,27.32a4,4,0,0,1-.59,0c-.63-.08-1,.14-1.07.75-.44.12-.81.24-1.19.31a1.57,1.57,0,0,1-.51-.09,1.71,1.71,0,0,1,.26-.44,7.16,7.16,0,0,1,.74-.49L83.34,26A3.93,3.93,0,0,1,86.27,27.32Z"/><path class="cls-13" d="M46.51,81.61a3,3,0,0,1,.56-.94c.75-.58,1.58-1.07,2.35-1.62.16-.11.21-.35.31-.52l1.48-1.06.56,0c-.76.65-1.49,1.34-2.28,2C48.52,80.2,47.5,80.89,46.51,81.61Z"/><path class="cls-14" d="M71.52,61.67l-.9-.1-.14-.21,1.38-1.16-1.49-.08.66-.94,1.73.58.34.86-.85.68-.51.3Z"/><path class="cls-1" d="M59.29,69.31l.78-.34L60,68.35l1.58-.57s.2.15.17.3-.29.25-.44.39c-.59.52-1.2,1-1.76,1.58-.1.1,0,.43.07.7l-.8.4.12.57-.17.16c-.35,0-.61,0-.42-.54a3.28,3.28,0,0,0,.07-1Z"/><path class="cls-13" d="M58.43,70.34a3.28,3.28,0,0,1-.07,1c-.19.49.07.53.42.54l-2.43,1.79c.18-.43.36-.86.53-1.29l.36-.33c.27-.48.53-1,.82-1.44C58.13,70.49,58.3,70.43,58.43,70.34Z"/><path class="cls-12" d="M73.48,16.93c-.65.17-1-.29-1.31-.7s-.52-1-1.31-.6c-.24.1-.78-.49-1.19-.76,1.19-.21,2.29-.23,2.92,1.11A4.66,4.66,0,0,0,73.48,16.93Z"/><path class="cls-11" d="M18.34,42.37a7,7,0,0,1-.41,1.22c-.08.13-.45.18-.66.14a6.22,6.22,0,0,1-1.06-.39L16,43l1.09-.82Z"/><path class="cls-12" d="M4.36,52.77a4.5,4.5,0,0,1-.73.15c-.43,0-.88,0-.71.68,0,0-.25.14-.38.21a3.38,3.38,0,0,1,1.62-2.45h.73Z"/><path class="cls-9" d="M30.14,35.5c-1.26-.27-2,.69-2.93,1.22.06-.27.12-.54.19-.8l2-1.29C29.71,34.85,30.25,34.89,30.14,35.5Z"/><path class="cls-9" d="M26.53,37.07l-.72,1.18-1.87.32,2.41-1.86Z"/><path class="cls-17" d="M89,30.43l-.42-.26-.25.63a6.56,6.56,0,0,1-1.08-.42.79.79,0,0,1,.16-.64,2.45,2.45,0,0,1,.92-.24,2.07,2.07,0,0,1,.49.07Z"/><path class="cls-13" d="M83.74,51.48l-.81-.43.07-.84.5-.17h1.2l.51.33h0c-.4.09-1-.07-.82.72Z"/><path class="cls-11" d="M67.14,14.14l-.65.77-2.44-1.06Z"/><path class="cls-11" d="M63.73,13.8c-.3.07-.64.27-.89.19a1.59,1.59,0,0,0-2.13.72l-.57-.64a2.64,2.64,0,0,1,2.41-.42C62.94,13.71,63.34,13.75,63.73,13.8Z"/><path class="cls-12" d="M6.41,74.94a17.48,17.48,0,0,1,2,1.17c.22.17.18.66.26,1Z"/><path class="cls-18" d="M95.49,42.23c0-.18.07-.37.12-.55s.12-.34.18-.51h0c.4-.32.79-.68,1.36-.34h0v.35Z"/><path class="cls-17" d="M90.88,34.82l-.15.56-1.25.5.91-1.77Z"/><path class="cls-2" d="M17,77c.55-1.25.85-1.47,1.68-1.25Z"/><path class="cls-11" d="M23.63,39.3c-.16.85-.6.36-.87.21l-.8.43-.2-.59,1.33-.28.54.23Z"/><path class="cls-11" d="M20.91,39.78a1.27,1.27,0,0,0-.1.37,5.31,5.31,0,0,0,.1.68h-.34l-.87-.17s0-.1,0-.15C20.11,40.26,20.21,39.52,20.91,39.78Z"/><path class="cls-13" d="M53.82,75.79c-.39-.72.38-.78.65-1.12a3.2,3.2,0,0,1,.54-.41l.39,0Z"/><path class="cls-13" d="M52.1,77.11a4.22,4.22,0,0,1,.6-1c.16-.16.52-.11.79-.15C53.36,76.76,52.71,76.92,52.1,77.11Z"/><path class="cls-17" d="M88.61,28.9h-.69l-.49-1C88.35,27.61,88.3,28.46,88.61,28.9Z"/><path class="cls-16" d="M74.13,59.26a8.48,8.48,0,0,1,.32-1c.07-.15.26-.24.39-.35l.31.5Z"/><path class="cls-18" d="M75.71,58.1c-.09-1.05-.07-1.07,1-1.05Z"/><path class="cls-16" d="M73.1,60.62l-.34-.86h1.16Z"/><path class="cls-12" d="M2.49,54.15c.1.56-.24.83-.7,1l-.08-.86Z"/><path class="cls-5" d="M26.53,37.07l-.18-.36,1-.8c-.07.27-.13.54-.19.81Z"/><path class="cls-17" d="M87,27.8l-.9.32L86,27.94l.29-.62Z"/><path class="cls-10" d="M18.34,42.37l-1.23-.24a.1.1,0,0,1,.07-.1l1.17-.18Z"/><path class="cls-11" d="M18.35,41.85,17.18,42l1.17-.69Z"/><path class="cls-18" d="M94.76,42.54v.19l-.51.67v-.87Z"/><path class="cls-14" d="M84.38,51.1c-.2-.79.42-.63.82-.72Z"/><path class="cls-13" d="M44.25,83.42c.26-.18.52-.36.77-.55C44.77,83.06,44.51,83.24,44.25,83.42Z"/><path class="cls-9" d="M23.93,38.57l-.3.73h0l-.22-.41Z"/><path class="cls-13" d="M63.72,67.78l.58-.49Z"/><path class="cls-1" d="M51.77,77.5l-.56,0,.77-.28Z"/><path class="cls-1" d="M55.4,74.28l-.39,0,.7-.33Z"/><path class="cls-16" d="M71.74,61.6l.51-.3Z"/><path class="cls-10" d="M23.41,38.89l.22.41-.54-.23Z"/><path class="cls-9" d="M97.15,41.18v-.35l.56,0Z"/><path class="cls-11" d="M19.37,40.53l-.36.33Z"/><path class="cls-3" d="M23,74.12l.34-.05Z"/><path class="cls-18" d="M78.21,56.34l.38-.31Z"/><path class="cls-2" d="M21.07,74.58l.14-.25.21.26Z"/><path class="cls-13" d="M45.78,82.22l.39-.27Z"/><path class="cls-14" d="M93.76,43.76l.37-.34Z"/><path class="cls-11" d="M18.88,41l-.3.16Z"/><path class="cls-9" d="M98,39.46v0Z"/><path class="cls-17" d="M75.83,53.61a.1.1,0,0,1,.09,0c.77,0,.75.7.84,1.12s-.51.64-1.25.24l.52-.06Z"/><path class="cls-16" d="M91,41.31l.52-.51a3.87,3.87,0,0,1,.55.25c.3.19.58.42.87.63-.46.66-.91.13-1.35,0A4.3,4.3,0,0,1,91,41.31Z"/><path class="cls-14" d="M94.76,42.54h-.51l-.51-.85.32-.37Z"/><path class="cls-16" d="M84.7,50H83.5l1.2-.68Z"/><path class="cls-16" d="M81.71,51.58c-.14.15-.19.27-.27.29s-.17-.08-.25-.13.09-.2.17-.25S81.53,51.53,81.71,51.58Z"/><path class="cls-7" d="M9.09,54.62a2.43,2.43,0,0,1,.36-.7c.76-.73,1.54-1.43,2.34-2.11.36-.3,1.06-.2,1.11-.9l.29-.23,0,0L13,51.5l.4.27c-.67.67-1.3,1.4-2,2a11.6,11.6,0,0,1-1.58.78c-.21.12-.5.52-.46.56.68.88,1.38,1.75,2.14,2.56a8.59,8.59,0,0,0,1.16.76c.38.29.68.68,1.08.93a.72.72,0,0,0,.69-.12A2.55,2.55,0,0,1,16.77,58l.55.19.14.27.21-.27c.37,0,.19-1,.85-.52l.09,1.1h.08v1.45c-.9,1-2.16.95-3.43,1.09.1.29.16.53.25.75s.28.68.43,1,.25.48.37.73l1.32,2.75-1.77-.68c.08-.4.3-.79.18-1-.52-.74-.3-1.81-1.26-2.42-.35-.23-.58-.8-1.14-.94-.11,0-.17-.2-.26-.3a37.78,37.78,0,0,0-3.3-3.5c-.57-.48-.49-1.16-1-1.56C8.44,55.7,8.86,55.16,9.09,54.62Z"/><path class="cls-7" d="M24.67,42.72c.13,0,.27-.14.39-.12.91.16.73-.48.73-.9a3,3,0,0,0,2.05-1.51c.35-.46.45-1,1.24-1,.27,0,.58-.39.87-.61l.56.69-.22.33-.34.17c-1.5,1.24-2.94,2.56-4.52,3.69-1.77,1.27-3.7,2.34-5.51,3.56-1.36.92-2.63,2-4,2.94-.61.44-1.25.85-1.87,1.27l-.86-.55,0,0c.07-.11.14-.33.22-.33,1.48-.12,2.31-1.31,3.44-2,.63-.4,1.3-.74,1.93-1.14.81-.51,1.61-1,2.39-1.59.61-.43,1.19-.91,1.79-1.37.47-.29.95-.56,1.4-.88.15-.1.21-.32.3-.48S24.67,42.77,24.67,42.72Z"/><path class="cls-10" d="M24.66,42.88c-.09.16-.15.38-.3.48-.45.32-.93.59-1.4.88a3.92,3.92,0,0,1-.36-.91,7.43,7.43,0,0,1,0-1.21Z"/><path class="cls-10" d="M19.7,40.66l.87.17-.29.68c0,.05,0,.11,0,.16l.36.67c-.14.06-.34.2-.42.16-.26-.18-.63-.38-.68-.64A3.56,3.56,0,0,1,19.7,40.66Z"/><path class="cls-8" d="M68.33,30.26a4.51,4.51,0,0,1,.49-.64c.41-.39.86-.75,1.29-1.12l1.09-.3c-.07.34-.14.68-.2,1s-.29.8-.15,1a1.32,1.32,0,0,0,1,.37,8.66,8.66,0,0,0,1.54-.38l.55-.8.4.51c.15-.17.43-.35.42-.51s-.3-.33-.46-.5a12.61,12.61,0,0,0,.8-1.25,4.28,4.28,0,0,0,.21-1h.17c.11.17.2.47.32.48.69.07,1,.36.77,1.07,0,.14.15.34.17.38l-2.13,1.79,1.08.78L73,31.46a4.16,4.16,0,0,1-2.49,1.69c.11-.68-.54-.61-.85-.86Z"/><path class="cls-4" d="M75.32,26.67a4.28,4.28,0,0,1-.21,1,12.61,12.61,0,0,1-.8,1.25l-.36.5-.55.8a8.66,8.66,0,0,1-1.54.38,1.32,1.32,0,0,1-1-.37c-.14-.18.08-.65.15-1s.13-.68.2-1c0-.85-.09-1.7-.13-2.55,0-.26,0-.51,0-.77l.49.24.15,1c.36-.12.72-.24,1.08-.38l1.51-.59C73.73,26.51,74.74,26.39,75.32,26.67Z"/><path class="cls-11" d="M71.58,25.12l-.49-.24a23.53,23.53,0,0,0-.56-2.38,7.58,7.58,0,0,0-1-1.83,1.22,1.22,0,0,0-.89-.31,4,4,0,0,1-3-1.9c0-.09,0-.22,0-.33.42,0,.81-.19,1.1.4.13.28.78.31,1.21.43a4.48,4.48,0,0,1,1.52.42c.56.42,1.41.57,1.59,1.48,0,.29.41.55.65.8s.47.41.7.61l-.3.09a11.32,11.32,0,0,0,0,2C72.27,25,72.19,25.2,71.58,25.12Z"/><path class="cls-19" d="M65.05,17.68c-.67-.33-1.09.22-1.61.44-.82.35-1.68.62-2.53.91-.37.12-.74.2-1.11.3a2.43,2.43,0,0,1,1.57-1.51c.59-.24.66-.51.12-.87.13-.88.84-.36,1.23-.43a9.43,9.43,0,0,1,2.18.06Z"/><path class="cls-20" d="M18.71,68.16c.62-.55,1.24-1.1,1.87-1.64.23-.19.49-.34.73-.51,0,.22,0,.5-.07.64a10.35,10.35,0,0,1-1,1c.88.44,1.55.21,2.12-.94a2.75,2.75,0,0,1,2-1.28c.94-.29,1-.28.8-1.22-.06-.24-.12-.49-.19-.73,2.12-1.69,4.23-3.39,6.35-5.07.38-.3.79-.57,1.18-.85-.06.27,0,.66-.18.78-.58.43-.12.52.09.72.26-.25.46-.6.68-.62,1-.09,2.11-.09,3.16-.12a2.62,2.62,0,0,0,1.81-.75l-1.64-.77c1.79,0,2.76-.9,2.65-2.29l1,.68,0,.47c-.78,0-.66.54-.68,1a7.17,7.17,0,0,1-1.54,1.73,1.61,1.61,0,0,0-.88,1.06c-.14.62-.64.71-1,1-.61.42-1.41.74-1.77,1.32-.55.9-1.48,1.32-2.14,2.07a21.73,21.73,0,0,1-2.39,2.08c-.08.06-.1.2-.14.3l-.3.39-.38.3c-.58.54-1.17,1.06-1.72,1.64a2.31,2.31,0,0,0-.31.77c-1.17-.19-2.41-.13-3.25-1.2a1.29,1.29,0,0,0-1.85.23,3.93,3.93,0,0,1-2.66,2L18.17,69l.36-.5Z"/><path class="cls-6" d="M18.53,68.48l-.36.5c-.08,0-.19,0-.25,0a1.52,1.52,0,0,1-2.34,0c-.15.7-.25,1.21-.36,1.72-.38,0-.76-.07-.58-.62s-.18-.59-.57-.6l-.15-.69L15,68.66l-1.29-.54-.37-.68c.74-.78,0-.84-.5-1l-.33-.52.26-1.72-.78.36c-.09-.14-.18-.29-.28-.42C10.62,62.55,9.52,61,8.34,59.44a11.75,11.75,0,0,0-1.59-1.38c-.15-.8-.1-1.42.93-1.6.26-.05.38-.68.62-1a9,9,0,0,1,.79-.84c-.23.54-.65,1.08,0,1.63.47.4.39,1.08,1,1.56a37.78,37.78,0,0,1,3.3,3.5c.09.1.15.28.26.3.56.14.79.71,1.14.94,1,.61.74,1.68,1.26,2.42.12.16-.1.55-.18,1l1.77.68c0,.09.05.18.08.27C17.81,67.49,17.4,68.37,18.53,68.48Z"/><path class="cls-21" d="M14.07,69.49c.39,0,.77,0,.57.6s.2.59.58.62l-.3,1.83-.6.37Z"/><path class="cls-21" d="M14.42,74.09l-.7,0,.57-.84.35.2Z"/><path class="cls-10" d="M14.64,73.43l-.35-.2,0-.32.6-.37C14.83,72.84,14.73,73.13,14.64,73.43Z"/><path class="cls-20" d="M27.22,69.31l.34-.16-.34.34Z"/><path class="cls-9" d="M30.47,37.94l-1-.63a9.36,9.36,0,0,1,.81-.54c.54-.32.61-.73.17-1.25.24-.78,1-.63,1.53-.77a1.53,1.53,0,0,1,.27.72,2.55,2.55,0,0,1-.26.81l.33.16c.17-.35.55-.75.48-1-.18-.66.42-.92.51-1.41.24,0,.66,0,.69.16a1.85,1.85,0,0,1-1.85,2.59c-.61,0-1.26.11-1.38.94C30.75,37.79,30.57,37.86,30.47,37.94Z"/><path class="cls-7" d="M36.15,74.91a9,9,0,0,1,1.66,3.58,1.27,1.27,0,0,1,0,.38c-.55-.06-.94-.22-.74-.91,0-.08-.17-.22-.25-.33-.08-.28-.07-.63-.25-.82-.33-.36-.88-.59-.35-1.19l-.26-.14Z"/><path class="cls-19" d="M28.93,69.48a7.55,7.55,0,0,1,3.74,1.92c-.16.07-.37.24-.47.19q-1.58-.84-3.12-1.74C29,69.79,29,69.6,28.93,69.48Z"/><path class="cls-1" d="M36.15,74.91l-.22.57-.69-.38a1.31,1.31,0,0,0-1-1.48l.56-.45Z"/><path class="cls-19" d="M34.78,73.17l-.56.45a1.31,1.31,0,0,1,1,1.48c-.45-.68-1.52-.95-1.35-2l.51-.2Z"/><path class="cls-1" d="M34.4,72.86l-.51.2c0-.11,0-.22,0-.33v-.37Z"/><path class="cls-19" d="M33.88,72.36v.37l-.48-.22.3-.29Z"/><path class="cls-20" d="M28.22,69.79c-.06.17-.12.34-.19.5l-.22-.06c0-.14.09-.28.13-.42Z"/><path class="cls-19" d="M28.22,69.79l-.28,0c0-.18-.05-.36-.07-.54l.39.12Z"/><path class="cls-14" d="M80.78,29.93l-2.23.48c.11-.27.24-.77.32-.76.94.08,1.26-.58,1.54-1.33l.32.08Z"/><path class="cls-17" d="M86.2,31.65c-.63-.3-1.27-.58-1.88-.92a3.61,3.61,0,0,1-.67-.63c.94-.78,1.45.3,2.16.51A.64.64,0,0,1,86.2,31.65Z"/><path class="cls-17" d="M89.58,37.48c-.37-.53-.74-1.07-1.12-1.6h1C89.43,36.42,90.17,36.91,89.58,37.48Z"/><path class="cls-17" d="M86.54,32c-.11-.13-.22-.25-.34-.37C86.32,31.77,86.43,31.89,86.54,32Z"/><path class="cls-1" d="M57,69.44l.51-.66L58,69Z"/><path class="cls-1" d="M57.24,72.05l-.36.33Z"/><path class="cls-3" d="M37.71,81.1a9.68,9.68,0,0,1-.81-1,.51.51,0,0,1,.15-.46c.14-.06.46,0,.5.09A10.43,10.43,0,0,1,38,80.94Z"/><path class="cls-3" d="M38.74,82.14,38,81.62l.74-.61L39,82Z"/><path class="cls-8" d="M42,80.23l.83-.9c.1.53,0,.93-.65.91Z"/><path class="cls-8" d="M42.23,80.74l.48.31-.48,0Z"/><path class="cls-2" d="M39.83,81.57l.36,0Z"/><path class="cls-1" d="M43.92,29l-1.16.75-.7-1,.16-.17A1.51,1.51,0,0,1,43.92,29Z"/><path class="cls-6" d="M5.74,57.84l-1.22.84A4,4,0,0,1,5,57.62C5.27,57.25,5.64,57.17,5.74,57.84Z"/><path class="cls-8" d="M43.71,80.6l.51.13-.08.3-.51-.17Z"/><path class="cls-8" d="M44.34,81.69c-.14.11-.23.21-.31.21s-.13-.12-.2-.19.14-.19.23-.21S44.21,81.6,44.34,81.69Z"/><path class="cls-8" d="M42.86,79.34l.39-.26Z"/><path class="cls-18" d="M42.06,28.72l.7,1-.72.63L41.68,30l-.63-.81Z"/><path class="cls-1" d="M57.69,68.62l.38-.36Z"/><path class="cls-9" d="M97.15,40.83c-.57-.34-1,0-1.36.34.09-1.24.44-1.51,1.67-1.23Z"/><path class="cls-5" d="M41.69,52.69c.71-.68,1.38-1.41,2.14-2,1.14-.9,2.36-1.7,3.52-2.58.91-.7,1.8-1.44,2.69-2.17C51.18,45,52.3,44,53.45,43.12a3.57,3.57,0,0,1,.73-.37c.19,1.14.46,1.32,2,1.32l-.18.48c-2.28,2-4.55,4.06-6.85,6.05-.53.46-1.2.76-1.76,1.19s-.81.78-1.25,1.13a13.34,13.34,0,0,1-1.19.76c0-.76-.08-1.51-.62-1.82-.65.45-1.13.75-1.57,1.09S42,53.22,41.69,52.69Z"/><path class="cls-1" d="M56.22,44.07c-1.58,0-1.85-.18-2-1.32,1.48-1.28,3-2.55,4.44-3.84.92-.81,1.81-1.64,2.71-2.46v.62l-.16.36v.32l-.17.37.85,2-2.33,1.92a1.44,1.44,0,0,0-1.84.8l.43.37-.33.34c-.47,0-1,0-1.42.07C56.3,43.65,56.26,43.92,56.22,44.07Z"/><path class="cls-22" d="M61.33,37.07v-.62c.27-.2.54-.4.8-.61,0,.2.08.39.13.58s.11.38.16.57c.15-.12.37-.21.43-.37.2-.53.35-1.08.51-1.63l.64-.5.58-.63c.77-.6,1.54-1.2,2.32-1.79,1.15.27.41,1.29.66,1.89a7.12,7.12,0,0,0,1.33-.16,1.16,1.16,0,0,0,.58-.52c0-.06-.22-.31-.36-.46a5.47,5.47,0,0,0-.44-.41l1-.12c.31.25,1,.18.85.86-1.21,2-3.56,2.59-5.1,4.17a2.09,2.09,0,0,0,0-.67,2.45,2.45,0,0,0-.46-.57,3.27,3.27,0,0,0-.35.59c0,.13.06.31.09.47l-1.25.65.3-1.25c-1,.64-1.06,1-.42,1.72a1.52,1.52,0,0,1,.22.5l-.63.23,0,0-.18-.21-.32-.31-.69-.36v-.66Z"/><path class="cls-5" d="M29.42,66.22c0-.1.06-.24.14-.3A21.73,21.73,0,0,0,32,63.84c.66-.75,1.59-1.17,2.14-2.07.36-.58,1.16-.9,1.77-1.32.4-.27.9-.36,1-1a1.61,1.61,0,0,1,.88-1.06,7.17,7.17,0,0,0,1.54-1.73l.35-.33.55,0c.3-.6.4-1.15.71-1.32s.79.11,1.28.21l1-2.14,1.25,1.23-2.72,2.35c-.76.66-1.52,1.34-2.3,2s-1.6,1.25-2.42,1.85c-1.29,1-2.61,1.86-3.86,2.86a7.79,7.79,0,0,0-1,1.39A5.69,5.69,0,0,1,29.42,66.22Z"/><path class="cls-22" d="M44.44,54.3l-1.25-1.23-1,2.14c-.49-.1-1-.37-1.28-.21s-.41.72-.71,1.32l-.55,0,.33-.69,0-.47c.71-.55.28-.93-.2-1.29l1.86-1.21c.27.53.6.67,1.11.26s.92-.64,1.57-1.09c.54.31.59,1.06.62,1.82Z"/><path class="cls-13" d="M63.54,38.76a1.52,1.52,0,0,0-.22-.5c-.64-.68-.59-1.08.42-1.72l-.3,1.25,1.25-.65c0-.16-.13-.34-.09-.47a3.27,3.27,0,0,1,.35-.59,2.45,2.45,0,0,1,.46.57,2.09,2.09,0,0,1,0,.67Z"/><path class="cls-18" d="M61.68,38.08l.69.36c0,.37-.19.88.5.86l-1,.85c-.29-.68-.57-1.36-.85-2Z"/><path class="cls-16" d="M58.11,43.24l-.43-.37a1.44,1.44,0,0,1,1.84-.8Z"/><path class="cls-16" d="M56.22,44.07c0-.15.08-.42.14-.42.47,0,1,0,1.42-.07-.26.9-1.1.75-1.74,1Z"/><path class="cls-13" d="M62.87,39.3c-.69,0-.47-.49-.5-.86l.32.31.18.21,0,0A2.91,2.91,0,0,1,62.87,39.3Z"/><path class="cls-5" d="M28.74,66.91l.38-.3Z"/><path class="cls-21" d="M16.77,58c.44-.5.87-1,1.34-1.51.27-.27.7-.41.94-.7.65-.77,1.51-.47,2.27-.47.43,0,.66.41.4.89-.43.78-.86,1.57-1.28,2.36,0-.27,0-.54-.05-.81s0-.71-.12-.75a1.36,1.36,0,0,0-.86.1,6.33,6.33,0,0,0-.89.56c-.66-.45-.48.5-.85.52h-.35Z"/><path class="cls-5" d="M18.52,57.71a6.33,6.33,0,0,1,.89-.56,1.36,1.36,0,0,1,.86-.1c.11,0,.1.49.12.75s0,.54.05.81l-1.75,1.66V58.82h-.08Z"/><path class="cls-18" d="M14.09,51.27l-.65.5L13,51.5l.19-.78Z"/><path class="cls-5" d="M17.32,58.23h.35l-.21.27Z"/><path class="cls-5" d="M30.29,39.64l-.34.17Z"/><path class="cls-7" d="M34.27,45.75a2.24,2.24,0,0,1,.52-3.23c1.45-.79,3-1.51,4.41-2.28a2.21,2.21,0,0,1,2.22.3c.13.06.15.68,0,.79-1.39,1.12-2.86,2.16-4.23,3.31a2.92,2.92,0,0,1-2.23.77C34.75,45.4,34.5,45.63,34.27,45.75Z"/><path class="cls-6" d="M39.83,53.9c.48.36.91.74.2,1.29l-1-.68c.11,1.39-.86,2.29-2.65,2.29l1.64.77a2.62,2.62,0,0,1-1.81.75c-1,0-2.11,0-3.16.12-.22,0-.42.37-.68.62-.21-.2-.67-.29-.09-.72.16-.12.12-.51.18-.78A28.11,28.11,0,0,1,39,53.4C39.55,53.15,39.9,53.11,39.83,53.9Z"/><path class="cls-9" d="M59.29,28,56,31a3,3,0,0,1-2.73.12,1.44,1.44,0,0,1,0-1.93,8.64,8.64,0,0,1,3.74-2.31,1.24,1.24,0,0,1,1.85.71C59,27.71,59.12,27.81,59.29,28Z"/><path class="cls-13" d="M30.12,50.38c-.79.64-1.54,1.35-2.38,1.91-.64.43-1.45.59-2.07,1s-1.22.23-1.67-.3a1.35,1.35,0,0,1,.45-1.79c1.11-.74,2.27-1.4,3.41-2.1.31,1.41.48,1.52,1.84,1.26A2.91,2.91,0,0,1,30.12,50.38Z"/><path class="cls-9" d="M64.93,24.17c-.1.13-.17.32-.3.39-.71.35-1.44.7-2.18,1a1.56,1.56,0,0,1-2-1.2c0-.13,0-.33.06-.4.88-.75,1.75-1.51,2.68-2.2.25-.19.67-.15,1-.22.09.39-.77.92,0,1.11C65.17,22.91,65,23.51,64.93,24.17Z"/><path class="cls-13" d="M47.24,37.13a9.72,9.72,0,0,1-1.3,1c-.66.35-1.14-.15-1.53-.57s-.7-1-.22-1.52A10.74,10.74,0,0,1,46,34.63c.68-.44,1.42-.8,2.13-1.19a2.71,2.71,0,0,1-1,2l.21,1.46h0l-.21,0Z"/><path class="cls-10" d="M25,63.48c.07.24.13.49.19.73.23.94.14.93-.8,1.22a2.75,2.75,0,0,0-2,1.28c-.57,1.15-1.24,1.38-2.12.94a10.35,10.35,0,0,0,1-1c.11-.14.06-.42.07-.64C22.2,64.67,23.77,64.34,25,63.48Z"/><path class="cls-9" d="M47.37,36.94l-.21-1.46a2.71,2.71,0,0,0,1-2,1.85,1.85,0,0,1,2.54.2,4.07,4.07,0,0,1-2,2.46c-.67-.47-.72-.05-.7.48Z"/><path class="cls-23" d="M69.7,32.29l-1,.12a5.47,5.47,0,0,1,.44.41c.14.15.39.4.36.46a1.16,1.16,0,0,1-.58.52,7.12,7.12,0,0,1-1.33.16c-.25-.6.49-1.62-.66-1.89l1.43-1.81Z"/><path class="cls-23" d="M30.12,50.38a2.91,2.91,0,0,0-.42,0c-1.36.26-1.53.15-1.84-1.26.62-1,1.63-.86,2.56-.84a.87.87,0,0,1,.62.57,1.53,1.53,0,0,1-.34.85A6.19,6.19,0,0,1,30.12,50.38Z"/><path class="cls-12" d="M64.93,24.17c.07-.66.24-1.26-.75-1.52-.72-.19.14-.72,0-1.11.52-.82,1-.23,1.47.06A1.29,1.29,0,0,1,66,23.3,8.59,8.59,0,0,1,64.93,24.17Z"/><path class="cls-12" d="M71.07,25.65c0,.85.09,1.7.13,2.55l-1.09.3Z"/><path class="cls-13" d="M63.36,35c-.16.55-.31,1.1-.51,1.63-.06.16-.28.25-.43.37-.05-.19-.11-.38-.16-.57s-.09-.38-.13-.58l.39-.31.16-.06Z"/><path class="cls-7" d="M18.53,68.48c-1.13-.11-.72-1-.82-1.61l1,1.29Z"/><path class="cls-13" d="M48,36.58c0-.53,0-.95.7-.48Z"/><path class="cls-13" d="M64.58,33.86l-.58.63Z"/><path class="cls-9" d="M47.24,37.13,47.16,37l.21,0Z"/><path class="cls-22" d="M62.68,35.47l-.16.06Z"/><path class="cls-11" d="M74,29.39l.36-.5c.16.17.44.32.46.5s-.27.34-.42.51Z"/><path class="cls-6" d="M40,55.66l-.33.69-.35.33C39.34,56.2,39.22,55.63,40,55.66Z"/><path class="cls-21" d="M12.55,65.9,12,64.54l.78-.36Z"/><path class="cls-21" d="M13.38,67.44c-.6-.12-.56-.57-.5-1C13.39,66.6,14.12,66.66,13.38,67.44Z"/><path class="cls-21" d="M13.92,68.8l-.17-.68,1.29.54Z"/><path class="cls-12" d="M10,69.33l-1,0,.5-.58L8.72,68l-.62.9a1.72,1.72,0,0,1-1.23-1.31,9.84,9.84,0,0,0-1-2A2.62,2.62,0,0,1,7,62.59c.17-.06.51-.09.54,0,.35.68,1,.53,1.58.74a2.25,2.25,0,0,1,1,1c.55,1,1,2,1.47,3-.23,0-.65-.06-.67,0C10.66,68,9.64,68.37,10,69.33Z"/><path class="cls-7" d="M10,69.33c-.36-1,.66-1.34.89-2,0-.07.44,0,.67,0C11.9,68.42,11.42,69.06,10,69.33Z"/><path class="cls-22" d="M8.1,68.93l.62-.9.76.68-.5.58Z"/><path class="cls-13" d="M61.68,38.08l-.68,0c0-.13.11-.25.17-.37h.5Z"/><path class="cls-18" d="M61.67,37.76h-.5v-.32h.5Z"/><path class="cls-13" d="M61.67,37.42h-.5c.06-.12.11-.24.16-.36Z"/><path class="cls-18" d="M62.87,39l-.18-.21Z"/></g></svg>