<svg xmlns="http://www.w3.org/2000/svg" viewBox="0 0 100 100"><defs><style>.cls-1{fill:#b2a199;}.cls-2{fill:#a8958c;}.cls-3{fill:#c5b8b1;}.cls-4{fill:#aa978e;}.cls-5{fill:#af9d95;}.cls-6{fill:#b6a69f;}.cls-7{fill:#b09e96;}.cls-8{fill:#bdaea7;}.cls-9{fill:#a59188;}.cls-10{fill:#a7948b;}.cls-11{fill:#b5a49d;}.cls-12{fill:#b4a39b;}.cls-13{fill:#beb0a9;}.cls-14{fill:#d1c6c1;}.cls-15{fill:#cabfb9;}.cls-16{fill:#c3b5af;}.cls-17{fill:#cdc2bd;}.cls-18{fill:#b9a9a2;}.cls-19{fill:#bbaca5;}.cls-20{fill:#c8bcb6;}.cls-21{fill:#a18c82;}.cls-22{fill:#9c867c;}.cls-23{fill:#c1b2ac;}.cls-24{fill:#a28e85;}.cls-25{fill:#967f73;}.cls-26{fill:#ac9991;}.cls-27{fill:#998278;}</style></defs><g id="Ebene_12" data-name="Ebene 12"><path class="cls-1" d="M56.74,5.57c-.81-.37-1.46.07-2.13.41V4.1a2.15,2.15,0,0,0-1.27,2.35l-3.2,0c-.27-1.35-.66-1.55-1.51-.82-1.46,0-.79-1.14-.94-1.92h-1.4c.1-.22.33-.48.28-.65-.13-.37-.32-.87-.62-1s-1-.62-1.25.15c-.44,1.17,0,2.09,1.36,2.57-.05,1,.55,1.16,1.35,1.16a2.18,2.18,0,0,1,.61.2c-.29,2-.59,3.94-.85,5.92a11.65,11.65,0,0,0,0,1.45c-.41-.19-.7-.36-.87.35-.24,1-.33,1.89.72,2.5l-.3.78h-.19c-.25-.78-1-.39-1.48-.63h0l-1.13-.88a21.84,21.84,0,0,0-.67-4c-.81-2.2-.69-4.44-.73-6.69,0-.49,0-1,.06-1.47l-1.42-.53.48-.73,0-.09-.06.09L39.46.65,40.75.52l.38,1.06L42,.12A3.39,3.39,0,0,1,42.65,0c1.3,0,2.6.05,3.9.11a21,21,0,0,1,4,.33c.64.16,1.75.33,1.7,1.51a5.34,5.34,0,0,1-1.2.32,2,2,0,0,0-1.84,1.44c-.06.12.27.59.5.68C50.9,4.88,51.94,4.08,53,4l-.56-1.83a12.19,12.19,0,0,1,2.13-.37,17.71,17.71,0,0,1,6.2,1.4c.16.81.31,1.62.41,2.12l-1.7.83L58.67,6a5.4,5.4,0,0,0-.64-.9C57.48,4.55,57,4.75,56.74,5.57Z"/><path class="cls-2" d="M45,16.46c.48.24,1.23-.15,1.48.63l.48.61,1.24,0-.29,1.6a5.2,5.2,0,0,0-1.72-.66c-.23,0-.41.75-.54,1l1.2,1.26a6.89,6.89,0,0,1,1.56-.48c.33,0,.68.33,1,.51-.22.21-.47.61-.67.58-1.37-.17-1.92.79-2.51,1.74l-1.44-1.13-.22.24L45,23.74c-.31-.14-.43-.23-.56-.23a7.69,7.69,0,0,0-.83,0,4.42,4.42,0,0,0,.39.75,7.42,7.42,0,0,0,.76.72,2.44,2.44,0,0,1-2.4,1.58l.73,2.35-.68-.09-.86-.65-.07-1a17.39,17.39,0,0,1-2.06,0A9.19,9.19,0,0,1,38,26.7a47.38,47.38,0,0,1-.65-4.7,9.8,9.8,0,0,1,.56-2.89c.06-.21.49-.41.78-.46,1.44-.27,2.88-.55,4.33-.7.93-.1,1-.59.92-1.3,0-.36,0-.72,0-1.07.38.29.76.58,1.13.88-.73.24-.73.24-.15,1Z"/><path class="cls-3" d="M24,63.81l0-.43a2.18,2.18,0,0,1,2.14.83c.1.14.36.17.55.26l-.79,1.08c.65.89.65.89,1.86.4L27.26,77c-.4.41-.72,1-1.2,1.19-1,.32-.65.89-.58,1.35l1.85-.46.19.91L25.8,81.32l-2.07.86c-.15-2.65-.45-5.3-.44-8,0-3,.28-6,.44-9a4.69,4.69,0,0,1,.17-.72l.89-.4-.13-.29Zm2.35,4.8c-.55-.3-.93-.67-1.26-.63s-.93.65-.88.75a6.58,6.58,0,0,0,1,1.21Zm-.65,12c-.24-.16-.41-.35-.56-.34a.54.54,0,0,0-.31.39.51.51,0,0,0,.36.34C25.29,81,25.43,80.83,25.65,80.65Z"/><path class="cls-4" d="M68,60l-.61,3.61c-2.22.35-3.27,1.47-3,3.26a7.26,7.26,0,0,1,.55-.49c.46-.32,1-.33,1.07.27.27,1.35.75.61,1.22.19-.07.48-.13,1-.2,1.46l-1.87.43L64.54,68c.1.89.1.89-.5,1.12a6.83,6.83,0,0,1-.5-3.42,37.86,37.86,0,0,0,.12-4.27c1.12,0,2.26,0,2.85-1.23-1.13-1-1.13-1.53,0-2.64l-.59-1.15c1.36-.46.63-1.34.5-2.38-.53.38-1.11.58-1.27,1a1.63,1.63,0,0,1-1.6,1.12l0-.39,0-.45-.56-2.16a1.19,1.19,0,0,0,.32,0l1.7-.06a14.5,14.5,0,0,1-.41-1.57,14.17,14.17,0,0,1-.09-1.6l-1.2-2-1.34.28-.11-.58.11-.06c1-.37-.05-1,.2-1.49l2.84-.23.2.19-1,.74,1.74,2.53c-.23.55-.56,1.27.29,1.89.18.14.07.65.1,1s-.07.63.07.77a4.88,4.88,0,0,1,1.52,3.08c0,.11.17.21.27.31,0,.55,0,1.1,0,1.65l-.57.72C67,59.43,67.08,59.73,68,60Z"/><path class="cls-5" d="M42.45,28.83l.68.09-.73-2.35A2.44,2.44,0,0,0,44.8,25l2.6-.76.28.32a6.76,6.76,0,0,1,1.41-1.38,6.82,6.82,0,0,1,1.9-.38l0-.35L50,21.74c.56-1-.24-2.6,1.22-3.16l.66.87.64.2c.39.45.14.55-.3.66a3.23,3.23,0,0,0-.8.5l.19.31,1.79-.41c.22.21.41.52.68.61.84.32.72.71.43,1.45-.18.48.24,1.19.39,1.79,0,.15-.07.3-.11.45l-.12.63a2.56,2.56,0,0,0-.59,2c.15.71-.33,1.19-1.15,1.14-.83-.7-.3-1.45,0-2.19-1.35.05-1.16-1.11-1.58-1.62l1.43-1.45c-1.93.18-1.93.18-2,1.68,0,.15-.09.41-.2.44a.86.86,0,0,1-.55-.11c-.55-.24-1.08-.5-1.64-.76l-.4,1.63-1.39.62,1,1.56V29H46.08l-.17-.32-.26.33-1.29.43-1.7-.21L42.45,29Zm2.32-2.49c-.06-.13-.08-.23-.15-.29s-.14,0-.22.05,0,.2.09.26S44.64,26.35,44.77,26.34Z"/><path class="cls-6" d="M24.55,53.37a16.05,16.05,0,0,1,1.13-6.43c.08-.25.27-.66.45-.67,1.75-.18,2.11-1.89,3.14-2.85,1.3-1.21,2.54-2.47,4.41-2.74-.17,1,.51,1.36,1.3,1.59l0,.79c-1.76.62-2.82,2.12-4.15,3.29a4.32,4.32,0,0,0-1,1.17c-.32.63-.51,1.32-.77,2-.16.42-.37.81-.54,1.22-.25.62-.48,1.23-.72,1.85a5.63,5.63,0,0,0-.52-.73,3.73,3.73,0,0,0-.87-.77c-.08-.05-.37.22-.56.35l.7.79a7.75,7.75,0,0,0-1.21.55c-.14.09-.12.4-.18.61Z"/><path class="cls-7" d="M64.92,45.88l-2.84.23c-.14.08-.4.17-.4.24,0,.42.13.84.2,1.25l-.11.06a21.47,21.47,0,0,0-1.63-2c-1.45-1.45-3-2.84-4.46-4.25a1.93,1.93,0,0,0-.24-2.49c-.15-.14-.13-.45-.19-.68h0L56.47,38c1.41,1.31,2.82,2.62,4.25,3.91.7.62,1.43,1.19,2.15,1.79l-.08.15.22,0Z"/><path class="cls-1" d="M51.83,19.45l-.66-.87c-1.46.56-.66,2.17-1.22,3.16l1.08.7,0,.35a6.82,6.82,0,0,0-1.9.38,6.76,6.76,0,0,0-1.41,1.38l-.28-.32L44.8,25a7.42,7.42,0,0,1-.76-.72,4.42,4.42,0,0,1-.39-.75,7.69,7.69,0,0,1,.83,0c.13,0,.25.09.56.23l-.44-1.35.22-.24,1.44,1.13c.59-1,1.14-1.91,2.51-1.74.2,0,.45-.37.67-.58-.34-.18-.69-.53-1-.51a6.89,6.89,0,0,0-1.56.48l-1.2-1.26c.13-.24.31-1,.54-1a5.2,5.2,0,0,1,1.72.66l.29-1.6,1.92-.21.49.14,1-.18C51.7,18.14,51.77,18.79,51.83,19.45Z"/><path class="cls-8" d="M59.52,6.15l1.7-.83c-.1-.5-.25-1.31-.41-2.12l8.52,1.31c-.27.69-1.19,1.19-.64,2.13l-.54.26A32.12,32.12,0,0,1,59.52,6.15Zm8.13-.78.16-.3-.65-.34L67,5ZM67,6l-.08.15.36.18a1.28,1.28,0,0,0,.07-.16Z"/><path class="cls-9" d="M47.57,28.62l-1-1.56,1.39-.62.4-1.63c.56.26,1.09.52,1.64.76a.86.86,0,0,0,.55.11c.11,0,.2-.29.2-.44,0-1.5,0-1.5,2-1.68L51.26,25c.42.51.23,1.67,1.58,1.62-.26.74-.79,1.49,0,2.19.07.3.15.6.23.9-.12,1.07-1.18.85-1.77,1.28L50.77,31a5.48,5.48,0,0,0-.44-1.15,2.19,2.19,0,0,0-.93-.93A7.77,7.77,0,0,0,47.57,28.62Z"/><path class="cls-3" d="M66.74,89.84c.9,2.45,0,4.41-1.76,6.07a6.1,6.1,0,0,1-3.08,1.88l-.27-.33A9.63,9.63,0,0,0,62.42,96c0-.1-.51-.56-.78-.55a9.48,9.48,0,0,0-1.71.36l.09.35h1.17a4.69,4.69,0,0,1-.65,1.06c-.07.07-.53-.21-.75-.41s-.63-.69-1-1.13l-2.67.83.67-1,1.42-.33c1.74-.39,3-1.62,4.36-2.6a7.52,7.52,0,0,0,.4,1.27,16,16,0,0,0,1,1.48c.17-.39.34-.78.5-1.17a3.17,3.17,0,0,0,.14-.4c.16-.51.27-1,1-.51.12.09.51-.21.81-.35A2,2,0,0,1,66.74,89.84Z"/><path class="cls-10" d="M66.39,87.78l-.12.58-.34.22a1.82,1.82,0,0,0-1.7,1.59c-.14.78-.48.85-1.09.53l.51-6.36a11.33,11.33,0,0,0,.9-1.9,1,1,0,0,1,1.16-.91l1,2.16c-.06.84-.12,1.69-.17,2.53h-1.2l.28,1.33Z"/><path class="cls-11" d="M37.35,36.52l.87-5.78,3,.25c-.07.58-.14,1.16-.22,1.73-.22,1.55-.43,3.1-.65,4.65Z"/><path class="cls-1" d="M70.83,4.91l.63.07.45.12a20.79,20.79,0,0,0,3,.66c.93.07,1.47.33,1.56,1.3,0,.14.18.27.27.4C75.59,9,75.07,9.17,73.34,8.62c-1-.33-2.1-.48-3.16-.71L70,7.5,70.19,6ZM71.16,6c-.16.45-.32.88-.46,1.31,0,0,.17.08.26.13l.39-1.3Z"/><path class="cls-3" d="M37.35,36.52l3,.85c-.27.5-.48,1.36-.82,1.42-.85.14-1,.66-1.3,1.29-.16.37-.57.63-.87.94L37,40.89l.11.32-.21.43-.23.21a.5.5,0,0,1-.21,0l-.58-1.3L35,42.27c-.79-.23-1.47-.57-1.3-1.59C35.35,39.69,36.21,38,37.35,36.52Z"/><path class="cls-3" d="M25,89.2c-.19-.8-.76-1.63.16-2.43-1.22-.69-1-2-1.33-3.06.82-.68,1.35-.49,1.56.6l.48-.19.31-.12.44,1.8.29-.08.18-2.26c.23-.66-.16-.71-.65-.66l-.21-.61.38-1,1.1.33c.11,1.79,0,3.62.66,5.34a1.17,1.17,0,0,1,0,.42l-.86.21-1.22-.76c-.26.71-.46,1.34-.73,1.94C25.48,88.9,25.19,89,25,89.2Z"/><path class="cls-7" d="M55.41,35l.09.84-.64.32.06.24.78.06h0l-.45,1.73h0l-2.18.24L51.5,31.64a7.35,7.35,0,0,0,.85.51,8,8,0,0,0,1,.3c.33.51.61,1,1,1.51A11.12,11.12,0,0,0,55.41,35Z"/><path class="cls-12" d="M63.14,90.7c.61.32,1,.25,1.09-.53a1.82,1.82,0,0,1,1.7-1.59l.64.83c.06.15.12.29.17.43a2,2,0,0,0-.36,3.1c-.3.14-.69.44-.81.35-.72-.52-.83,0-1,.51a3.17,3.17,0,0,1-.14.4c-.16.39-.33.78-.5,1.17a16,16,0,0,1-1-1.48,7.52,7.52,0,0,1-.4-1.27Z"/><path class="cls-12" d="M24.55,53.37h.62l1.33-.27.49.45.76-.82-.43,4.49c-.85,1-2.1,1.1-3.22,1.49v-.64c.47,0,.79-.09.49-.68a6.32,6.32,0,0,1-.32-.86Z"/><path class="cls-13" d="M25.75,93.52c-.24-1.15-.47-2.31-.71-3.47.88-.71,1.22.56,1.89.52.27-.6.53-1.2.79-1.8.21.65.41,1.3.69,2.15l-.47.42-.82-.13c.69,1.75.69,1.75,1.67,1.84,0,.48,0,1,.69.83l.16.66a1.2,1.2,0,0,0-.39.13c-1.42,1-2,.74-2.4-.91C26.65,92.9,26.25,93,25.75,93.52Z"/><path class="cls-8" d="M68.13,56.38c-.1-.1-.26-.2-.27-.31A4.88,4.88,0,0,0,66.34,53c-.14-.14,0-.51-.07-.77s.08-.85-.1-1c-.85-.62-.52-1.34-.29-1.89l-1.74-2.53,1-.74a12.58,12.58,0,0,1,2.69,6.79C67.89,54,68,55.21,68.13,56.38Z"/><path class="cls-6" d="M56.76,95.55l-.67,1,2.67-.83c.4.44.69.81,1,1.13s.68.48.75.41a4.69,4.69,0,0,0,.65-1.06H60l-.09-.35a9.48,9.48,0,0,1,1.71-.36c.27,0,.81.45.78.55a9.63,9.63,0,0,1-.79,1.45l.27.33-.68.16-.65.11h-.4a6.91,6.91,0,0,1-1.06-1c-.61-.82-.79-.31-1.08,0l-2,.71-1.27-.63.93,1.51-.82.29c-.18-.51-.37-1-.56-1.55l.22,0,.33-1.67Z"/><path class="cls-14" d="M66.74,83.69c-.35-.72-.69-1.44-1-2.16.28-.51.57-1,1-1.74l-1.19.45c-.31-.75.1-1.53-.28-2.39s.14-1.87.25-2.82c.56,0,1.26.23,1-.7a3.49,3.49,0,0,1,.56-.26C66.91,77.27,66.83,80.48,66.74,83.69Z"/><path class="cls-3" d="M67,74.07a3.49,3.49,0,0,0-.56.26c.29.93-.41.66-1,.7-.11,1-.58,2.06-.25,2.82s0,1.64.28,2.39L63.78,82c.07-.4.14-.8.23-1.2s.33-.84.23-1.17c-.48-1.59.06-3.12.19-4.66.62,0,.93-.18.74-.91a1.08,1.08,0,0,1,1.13-1.35c.24,0,.47-.07.7-.1Z"/><path class="cls-15" d="M51.83,19.45c-.06-.66-.13-1.31-.19-2,.61-.58,1.12-.44,1.77,0,1.17.85,1.41,2,1.7,3.31a5.41,5.41,0,0,1-.26,3.73c-.15-.6-.57-1.31-.39-1.79.29-.74.41-1.13-.43-1.45-.27-.09-.46-.4-.68-.61l-.3-2-.23,0-.35.95Z"/><path class="cls-10" d="M35.85,98.94l-.8,0L35,98l-.27.23L33.28,97.1l1.07-.88,4.92.64,0,.44-.4.45h0l-.44.42-.64.42-1.06.22Z"/><path class="cls-16" d="M54.82,95.81l-.33,1.67-.22,0c.19.52.38,1,.56,1.55l-.44,0c-1.08-1.58-2-1.6-2.75-.06l-.46,0-1.89-.62c-.1-.52-.18-.9-.26-1.28.34-.22.66-.59,1-.65.86-.15,1.75-.16,2.62-.23l-.76,1.14,1.71-.19-.53-1,.42-.16.8.84.08-1Z"/><path class="cls-17" d="M49,97.09l.26,1.28,1.89.62c-1.59.41-3.11,1.28-4.86.92L45,99.12l1.59-1.68Z"/><path class="cls-15" d="M24.1,58.7c1.12-.39,2.37-.51,3.22-1.49.08.64.15,1.28.23,1.91-.47-.41-.95-.49-1.31.1a11.49,11.49,0,0,0-.72,1.5c-.34.82-.27,2-1.56,2.05Z"/><path class="cls-1" d="M67.3,66.83c-.47.42-1,1.16-1.22-.19-.11-.6-.61-.59-1.07-.27a7.26,7.26,0,0,0-.55.49c-.31-1.79.74-2.91,3-3.26Z"/><path class="cls-18" d="M30.29,98l-1.76-.6.54-1.9.26.06.23.83.38,0-.08-1.61L32,95.6l.63,1.29-.21,1.2-.6,0L30.39,96.6l-.32.22Z"/><path class="cls-18" d="M24,62.77c1.29-.1,1.22-1.23,1.56-2.05a11.49,11.49,0,0,1,.72-1.5c.36-.59.84-.51,1.31-.1-.07.38-.13.76-.2,1.14-.39.19-1.13.42-1.12.55a6.14,6.14,0,0,0,.57,1.48l-1.43.36c1.45.52,1.59.77,1.3,1.82-.19-.09-.45-.12-.55-.26A2.18,2.18,0,0,0,24,63.38C24,63.18,24,63,24,62.77Z"/><path class="cls-19" d="M39.24,97.3l0-.44,1.69,0,.09,1.19h.24l.31-1h.85c.3.89-.2,2,.83,2.7l-3.37-.21-.63-1,.24-.12,1.25.83.29-.44-1.81-1.08Z"/><path class="cls-20" d="M29.86,94.75l.08,1.61-.38,0-.23-.83-.26-.06-.54,1.9c-1.09-.57-2.13-1.17-2.3-2.59a5.87,5.87,0,0,0-.48-1.28c.5-.56.9-.62,1.1.24.38,1.65,1,1.87,2.4.91a1.2,1.2,0,0,1,.39-.13Z"/><path class="cls-4" d="M52.48,2.17,53,4c-1.1.08-2.14.88-3.35.39-.23-.09-.56-.56-.5-.68A2,2,0,0,1,51,2.27,5.34,5.34,0,0,0,52.23,2Z"/><path class="cls-10" d="M41.21,31l-3-.25c0-.13,0-.27,0-.41l.57-.7L38,29.25c0-.64,0-1.28,0-1.92a4.55,4.55,0,0,0,.47.84,10.46,10.46,0,0,0,.89.87l.77-.89.58,0c.12.3.44.74.34.86-.6.77,0,1.29.29,1.88Z"/><path class="cls-19" d="M27.09,83.46l-.18,2.26-.29.08L26.18,84l-.31.12-.48.19c-.21-1.09-.74-1.28-1.56-.6,0-.51-.06-1-.1-1.53l2.07-.86c.14.29.28.58.43.87l.21.61Z"/><path class="cls-16" d="M55.65,98.69l-.93-1.51,1.27.63,2-.71c.29-.31.47-.82,1.08,0a6.91,6.91,0,0,0,1.06,1,10.39,10.39,0,0,1-1.68.5C57.55,98.67,56.6,98.65,55.65,98.69Z"/><path class="cls-11" d="M27.72,88.77l-.79,1.8c-.67,0-1-1.23-1.89-.52,0-.29,0-.57,0-.85.19-.17.48-.3.58-.52.27-.6.47-1.23.73-1.94l1.22.76C27.59,87.92,27.66,88.35,27.72,88.77Z"/><path class="cls-8" d="M46.58,97.44,45,99.12l1.33.79-1.73-.09c-.84-.54-1.36-1.2-.87-2.26a1.45,1.45,0,0,0,0-.42Z"/><path class="cls-1" d="M64,69.15c.6-.23.6-.23.5-1.12l.69.69,1.87-.43c0,.64-.11,1.28-.16,1.91l-2.6.08Z"/><path class="cls-16" d="M64.34,70.28l2.6-.08,0,1.3-1.26-.45.16,1.19-1.6.53C64.29,71.94,64.31,71.11,64.34,70.28Z"/><path class="cls-21" d="M40.75,28.19l-.58,0L39.4,29a10.46,10.46,0,0,1-.89-.87,4.55,4.55,0,0,1-.47-.84L38,26.7a9.19,9.19,0,0,0,1.5.45,17.39,17.39,0,0,0,2.06,0c0,.35,0,.68.07,1Z"/><path class="cls-8" d="M41.6,2.16l-.48.73H38.35C38.89,2,37.87.79,39.46.65l2.13,1.51Z"/><path class="cls-15" d="M39.25,97.74l1.81,1.08-.29.44-1.25-.83-.24.12.63,1a5.39,5.39,0,0,1-1.15.34,3.72,3.72,0,0,1-1-.15c0-.4,0-.8,0-1.2l.64-.42.44-.42h.42Z"/><path class="cls-5" d="M53.33,32.45a8,8,0,0,1-1-.3,7.35,7.35,0,0,1-.85-.51c0-.21-.1-.43-.16-.64.59-.43,1.65-.21,1.77-1.28l1.22,1.65c-.26.15-.52.3-.79.44Z"/><path class="cls-22" d="M48,6.09a2.18,2.18,0,0,0-.61-.2c-.8,0-1.4-.19-1.35-1.16.08-.35.15-.71.23-1.07h1.4c.15.78-.52,1.93.94,1.92l.2.59Z"/><path class="cls-17" d="M64.27,72.77l1.6-.53-.16-1.19L67,71.5l0,1.06c-.23,0-.46.08-.7.1A1.08,1.08,0,0,0,65.17,74c.19.73-.12.9-.74.91C64.38,74.2,64.32,73.48,64.27,72.77Z"/><path class="cls-3" d="M70.19,6,70,7.5c-.27-.51-.53-1-1.28-.86-.55-.94.37-1.44.64-2.13l.86.25Z"/><path class="cls-19" d="M53.33,32.45l.21-.64,1,.2.89,3A11.12,11.12,0,0,1,54.31,34C53.94,33.49,53.66,33,53.33,32.45Z"/><path class="cls-14" d="M32.42,98.09l.21-1.2.65.21,1.44,1.17L35,98l.06.88Z"/><path class="cls-20" d="M43.74,97.14a1.45,1.45,0,0,1,0,.42c-.49,1.06,0,1.72.87,2.26H43.28c-1-.67-.53-1.81-.83-2.7Z"/><path class="cls-16" d="M47,16.31c-1-.61-1-1.49-.72-2.5.17-.71.46-.54.87-.35Z"/><path class="cls-23" d="M53.34,6.45A2.15,2.15,0,0,1,54.61,4.1V6Z"/><path class="cls-12" d="M51.64,99c.8-1.54,1.67-1.52,2.75.06Z"/><path class="cls-14" d="M30.29,98l-.22-1.17.32-.22,1.43,1.47Z"/><path class="cls-13" d="M56.74,5.57c.27-.82.74-1,1.29-.5a5.4,5.4,0,0,1,.64.9Z"/><path class="cls-1" d="M66.39,87.78l-.74-.23-.28-1.33h1.2Z"/><path class="cls-8" d="M48.83,6.17l-.2-.59c.85-.73,1.24-.53,1.51.82Z"/><path class="cls-8" d="M68,60c-1-.26-1.06-.56-.49-1.24l.57-.72C68.08,58.69,68.06,59.34,68,60Z"/><path class="cls-18" d="M68.69,6.64c.75-.19,1,.35,1.28.86l.21.41-2-1Z"/><path class="cls-18" d="M55.25,38.22l.45-1.73c.25.51.51,1,.77,1.52Z"/><path class="cls-8" d="M42,.12l-.9,1.46L40.75.52Z"/><path class="cls-15" d="M35.85,98.94l.84-.13.67,1C36.51,100.12,36.39,99.15,35.85,98.94Z"/><path class="cls-11" d="M37.36,99.79l-.67-1,1.06-.22c0,.4,0,.8,0,1.2Z"/><path class="cls-15" d="M24.27,56.52a6.32,6.32,0,0,0,.32.86c.3.59,0,.68-.49.68Z"/><path class="cls-11" d="M38,29.25l.81.38-.57.7Z"/><path class="cls-18" d="M70.19,6V4.76l.64.15Z"/><path class="cls-3" d="M66.57,89.41l-.64-.83.34-.22Z"/><path class="cls-15" d="M24,63.81l.71,0,.13.29-.89.4C23.92,64.24,23.93,64,24,63.81Z"/><path class="cls-18" d="M55.7,36.49l-.78-.06-.06-.24.64-.32C55.57,36.07,55.64,36.28,55.7,36.49Z"/><path class="cls-7" d="M54.52,32l-1-.2c.27-.14.53-.29.79-.44C54.4,31.58,54.46,31.8,54.52,32Z"/><path class="cls-16" d="M60.57,98.06l.65-.11Z"/><path class="cls-15" d="M54.62,25.64l.12-.63Z"/><path class="cls-15" d="M47,17.7l-.48-.61h.19C46.78,17.29,46.88,17.5,47,17.7Z"/><path class="cls-18" d="M71.91,5.1,71.46,5Z"/><path class="cls-15" d="M50.62,17.67l-.49-.14Z"/><path class="cls-2" d="M46.29,3.66c-.08.36-.15.72-.23,1.07-1.31-.48-1.8-1.4-1.36-2.57.3-.77.91-.3,1.25-.15s.49.63.62,1C46.62,3.18,46.39,3.44,46.29,3.66Z"/><path class="cls-8" d="M41.59,2.16l.06-.09,0,.09Z"/><path class="cls-7" d="M40.75,28.19h.84l.86.65V29c-.92-.07-1,.39-.74,1.11a3.4,3.4,0,0,1,.09,1l-.42-.18c-.27-.59-.89-1.11-.29-1.88C41.19,28.93,40.87,28.49,40.75,28.19Z"/><path class="cls-1" d="M45,16.46l-.15,1c-.58-.73-.58-.73.15-1Z"/><path class="cls-15" d="M27.35,60.26l0,0,.39.53c0,1.71,0,3.42,0,5.13-1.21.49-1.21.49-1.86-.4l.79-1.08c.29-1,.15-1.3-1.3-1.82l1.43-.36a6.14,6.14,0,0,1-.57-1.48C26.22,60.68,27,60.45,27.35,60.26Z"/><path class="cls-11" d="M26.3,68.61l-1.16,1.33a6.58,6.58,0,0,1-1-1.21c-.05-.1.54-.7.88-.75S25.75,68.31,26.3,68.61Z"/><path class="cls-14" d="M27.26,77c0,.69,0,1.39.07,2.08l-1.85.46c-.07-.46-.46-1,.58-1.35C26.54,78.08,26.86,77.45,27.26,77Z"/><path class="cls-14" d="M27.52,80c.06.5.13,1,.19,1.5l-1.1-.33-.38,1c-.15-.29-.29-.58-.43-.87Z"/><path class="cls-19" d="M25.65,80.65c-.22.18-.36.38-.51.39a.51.51,0,0,1-.36-.34.54.54,0,0,1,.31-.39C25.24,80.3,25.41,80.49,25.65,80.65Z"/><path class="cls-24" d="M63.66,61.46c0-1.77-.08-3.55-.11-5.32A1.63,1.63,0,0,0,65.15,55c.16-.38.74-.58,1.27-1,.13,1,.86,1.92-.5,2.38l.59,1.15c-1.13,1.11-1.13,1.66,0,2.64C65.92,61.49,64.78,61.45,63.66,61.46ZM64,57.21a13.51,13.51,0,0,0,0,1.94c0,.23.42.44.69.57.06,0,.47-.42.43-.5C64.83,58.55,64.43,57.91,64,57.21Z"/><path class="cls-6" d="M62.9,53.14c-.16-.56-.35-1.11-.47-1.67-.17-.77-.28-1.56-.41-2.34l.84-.06c.07,1.09.89.86,1.56.89a14.17,14.17,0,0,0,.09,1.6,14.5,14.5,0,0,0,.41,1.57l-1.7.06A1.19,1.19,0,0,1,62.9,53.14Z"/><path class="cls-7" d="M64.42,50c-.67,0-1.49.2-1.56-.89l-.84.06c-.05-.29-.09-.59-.14-.89L63.22,48Z"/><path class="cls-10" d="M61.88,47.6c-.07-.41-.17-.83-.2-1.25,0-.07.26-.16.4-.24C61.83,46.58,62.84,47.23,61.88,47.6Z"/><path class="cls-24" d="M63.5,55.75c0-.15,0-.3,0-.45C63.48,55.45,63.49,55.6,63.5,55.75Z"/><path class="cls-16" d="M49.07,31a16.08,16.08,0,0,1-7.27.13,3.4,3.4,0,0,0-.09-1c-.24-.72-.18-1.18.74-1.11l.21.22.64,1,1.06-.79L45.65,29h1.92Z"/><path class="cls-7" d="M49.07,31,47.57,29v-.42a7.77,7.77,0,0,1,1.83.25,2.19,2.19,0,0,1,.93.93A5.48,5.48,0,0,1,50.77,31Z"/><path class="cls-6" d="M52.47,19.65l.35-.95.23,0,.3,2-1.79.41-.19-.31a3.23,3.23,0,0,1,.8-.5C52.61,20.2,52.86,20.1,52.47,19.65Z"/><path class="cls-7" d="M44.36,29.47l-1.06.79-.64-1Z"/><path class="cls-2" d="M44.77,26.34c-.13,0-.24.05-.28,0s-.06-.17-.09-.26.19-.08.22-.05S44.71,26.21,44.77,26.34Z"/><path class="cls-7" d="M46.08,29h-.43l.26-.33Z"/><path class="cls-8" d="M27.81,52.56l-.06.16-.76.82-.49-.45-1.33.27c.06-.21,0-.52.18-.61a7.75,7.75,0,0,1,1.21-.55l-.7-.79c.19-.13.48-.4.56-.35a3.73,3.73,0,0,1,.87.77A5.63,5.63,0,0,1,27.81,52.56Z"/><path class="cls-17" d="M36.48,41.87c-.47.45-.41,1.58-1.52,1.19,0-.26,0-.52,0-.79l.92-1.7Z"/><path class="cls-18" d="M54.76,40.37c-.56-.64-1.12-1.28-1.69-1.91l2.18-.24c.06.23,0,.54.19.68a1.93,1.93,0,0,1,.24,2.49L55,40.78l.32-.29Z"/><path class="cls-3" d="M67.65,5.37,67,5l.15-.31.65.34Z"/><path class="cls-3" d="M67,6l.35.17a1.28,1.28,0,0,1-.07.16l-.36-.18Z"/><path class="cls-20" d="M63.65,84.34c0-.8.08-1.59.13-2.39l1.72-1.71,1.19-.45c-.41.73-.7,1.23-1,1.74a1,1,0,0,0-1.16.91A11.33,11.33,0,0,1,63.65,84.34Z"/><path class="cls-18" d="M71.16,6l.19.14L71,7.46c-.09,0-.27-.12-.26-.13C70.84,6.9,71,6.47,71.16,6Z"/><path class="cls-17" d="M37.34,41l-.21.19L37,40.89Z"/><path class="cls-17" d="M36.92,41.64l-.23.21Z"/><path class="cls-14" d="M28.39,87.29l.87,5.53-.47,0L28.64,92l-.7-.64.47-.42c-.28-.85-.48-1.5-.69-2.15-.06-.42-.13-.85-.19-1.27Z"/><path class="cls-14" d="M27.09,83.46l-.65-.66C26.93,82.75,27.32,82.8,27.09,83.46Z"/><path class="cls-3" d="M27.94,91.34l.7.64c0,.24.1.55.15.86v.21c-1-.09-1-.09-1.67-1.84Z"/><path class="cls-20" d="M28.79,93.05v-.21l.47,0c.07.35.14.71.22,1.06C28.77,94,28.78,93.53,28.79,93.05Z"/><path class="cls-3" d="M32,95.6l2.35.62-1.07.88-.65-.21Z"/><path class="cls-11" d="M39.25,97.74h-.42l.41-.45C39.24,97.45,39.25,97.59,39.25,97.74Z"/><path class="cls-11" d="M38.83,97.75l-.44.42Z"/><path class="cls-11" d="M52.67,96.21l.42-.06.53,1-1.71.19Z"/><path class="cls-11" d="M53.51,96l.88-.13c0,.24,0,.47-.08,1Z"/><path class="cls-20" d="M41,96.88l.64.23-.31,1h-.24Z"/><path class="cls-25" d="M49.7,95.6l-1.49,0c-.28-.8-.57-.36-.85,0l-.39,0-1.31-.41h0L45,95l-.39,0a3.33,3.33,0,0,0-2.93-.61c-.53-.39-.92-.89-1.39-1-1.33-.26-2.69-.34-4-.49l-1.49-1.08-.43-.62c.16-.08.42-.27.46-.23.93,1,2.22,1,3.37,1.33.71.23,1.07.05,1.31-.61a1.21,1.21,0,0,1,1.22-1c.69,0,.8-.46.55-1L41,89l1.57-.7.23.25c.7-.89,1.37-1.74,2-2.6.1-.12.2-.36.15-.43a.65.65,0,0,0-.48-.26c-.18,0-.36.17-.63.31l-.32-.94c.68-.18,1.47-.11,1.45-1.15L41.78,84l-.43-.83c-.34,1-.7,2-.4,2.62.5,1.09-.3,1-.8,1.25l.07.85c-1.11-.22-1.11-.22-.58-1.63l-.91-1.12-.44,3.22-.36.1c-.17-.31-.54-.73-.45-.91.52-1.06-.15-1.82-.54-2.65a8.5,8.5,0,0,1-.3-.81l1.61.43.14-.23c-.24-.2-.49-.39-.72-.6s-.46-.35-.52-.58c-.2-.67-.26-1.38-.48-2-.38-1.08-.25-2.58-2-2.6-.37.56-.75,1.11-1.11,1.68a.5.5,0,0,0,0,.4,8.77,8.77,0,0,0,.84,2.37c.6.88.07,1.48,0,2H32.83l-.64-1.49.23-1.07-.22-1.92.18-2.75-.25-1.54c0-.13,0-.27,0-.4-.11-.66-.23-1.32-.34-2a.26.26,0,0,0,0-.15l0-.15.16-.38.39-.32-.46-3.63c1,.16,1.2,0,1.17-1.07L32,68.51a16.21,16.21,0,0,1-.39-1.81c-.17-1.75-.3-3.5-.41-5.26,0-.89,0-1.79,0-2.69l0-.68h0l1.13.42a5,5,0,0,0-.5.9,1.86,1.86,0,0,0,.43,2.09v.43l-.13.83a9.58,9.58,0,0,1,1.13-.15.51.51,0,0,1,.38.29.46.46,0,0,1-.19.42c-1.31.34-.64,1.26-.45,1.87.13.44.68.74,1,1.1l.34-.23a5.46,5.46,0,0,1-.07-.9,2.1,2.1,0,0,1,.17-.86c.22-.48.57-.91,0-1.43-.08-.08.09-.41.15-.62.6.17.75-.37,1.1-.63a1.52,1.52,0,0,1,1.12-.06c.57.15,1.9-.58,1.92-1.13a2,2,0,0,0-2-1.86c-.95.18-1.36-.31-1.74-1-.12-.2-.29-.37-.43-.56v-.42a2.61,2.61,0,0,1,.6-.19,4.81,4.81,0,0,1,.76,0c-.1.25-.19.51-.29.76s-.12.24-.36.71a11.55,11.55,0,0,0,1.38-.3c.29-.11.5-.41.78-.52.93-.39,1-.51.24-1.18a.82.82,0,0,1-.2-.7c0-.13.52-.3.6-.23a5.33,5.33,0,0,1,1.17,1.3c.44.83.75,1.73,1.18,2.75-.91.68.43,1.69.17,2.66,0,.05.29.26.38.23s.38-.25.38-.38c0-.75.5-.95,1.1-1.06L42.81,63c-.61.74-1.21.93-2.66.7-.24,0-.66,0-.74.12a1.37,1.37,0,0,0-.06.9.71.71,0,0,0,.29.36c-.18.49-.47.88-.41,1.18.24,1.06,1.07.15,1.83.5l-.83,1.35c.19.37.41.83.67,1.28a.69.69,0,0,0,.38.32c.57.11,1.15.17,1.78.25l.78-4c1.9.6.49,2,.82,3l1,.07v.63l-1.09.36a3.64,3.64,0,0,0,.75.47c1,.3,1.25.72.87,1.72a2.92,2.92,0,0,0,.76,3v.43L48,76.84l.43,1.48h0a5.92,5.92,0,0,1-.56,1.34A1.07,1.07,0,0,0,48,81.26c.21.21.41.43.62.65a4.84,4.84,0,0,1-1.1.86,5.67,5.67,0,0,1-1.56.14l1.57,1.39-1.42.46,2.29,2.13.23-.19-.36-1.3c.87,0,1.59,1.31,2.29.25a3.32,3.32,0,0,0,.21-2c0-.13-.85-.18-1.46-.29-.43-.81-.33-1,.94-1.8a2.9,2.9,0,0,1-1-3l1.06-.2.21.21a3,3,0,0,1,.37.74c.18,1.12,1.68,2.19.06,3.34l1.27,1.49.43-.84c1.53.66,1.53.66.48,2a2.85,2.85,0,0,0,.38.31l2.77,1.54-.25,1L55,87.74l-.17.25c.41.43,1,.8,1.19,1.31.41,1.06.86,1.81,2,1.26l.74,1.85a2.25,2.25,0,0,1-3.08,0c-.54-.39-.91-.37-1.21.35a2.16,2.16,0,0,1-1,.86,7,7,0,0,1-1.33.55c-.41.15-.82.26-1.23.39l-.1-.22ZM43.94,92l-1,.14-.56-.91c-.47.17-1,.51-1.19.38-1.09-.59-1.07.2-1.34,1.06a6.9,6.9,0,0,1,1.88-.1,7.33,7.33,0,0,1,1.79.9c.59.34,1.08,1.35,1.85.57a25.36,25.36,0,0,0,2.11-2.83l-1.32-1.56c0,1.72-.28,2.61-.95,3l-.88-1.55-.27.09-.11.77ZM32.86,70.59a24.24,24.24,0,0,0,0,2.45.84.84,0,0,0,.62.55,6.35,6.35,0,0,0,4.17-2.33c-.5-.21-1-.36-1.38-.59a.82.82,0,0,1-.4-.6c0-.15.27-.39.47-.46,1.09-.41,1.12-.47.41-1.58l-1.73,1.79c-.14-1.32-.14-1.32-1.06-1.11L34.31,70Zm1.64-3.45c.81-.45,1.68.61,2.14-.46l-1.78-.62Zm8.45,5-.48.06c0,.35-.14.82,0,1s.68.27,1,.4Zm-.54-1.37-.24.39.74.55.32-.51Zm-4-4.86c-.18-.17-.26-.3-.37-.33s-.26.14-.25.2a.41.41,0,0,0,.22.28C38.11,66.14,38.24,66,38.43,66Zm3.3,4.84c-.06,0-.13-.08-.18-.07s0,.11-.08.17.13.09.18.07S41.7,70.86,41.73,70.8Z"/><path class="cls-16" d="M31.94,69.16c.15,1.21.31,2.42.46,3.63l-.39.32c-.06.13-.11.26-.16.38-.18-1-.93-.94-1.67-.95v-1l1-.53-.11-.35h-1c-.07-3-.11-6-.21-9-.05-1.56-.19-3.11-.29-4.66l.49,0h0l1.05.64,0,.43h0l-.39.26.36.42c0,.9,0,1.8,0,2.69.11,1.76.24,3.51.41,5.26a14.28,14.28,0,0,0,.4,1.81C32,68.73,31.94,68.94,31.94,69.16Zm-.64,1.1s0-.07,0-.09-.05,0-.08,0l0,.09S31.28,70.26,31.3,70.26Z"/><path class="cls-22" d="M58.67,92.41l-.74-1.85c-1.09.55-1.54-.2-2-1.26-.2-.51-.78-.88-1.19-1.31l.17-.25,1.1.34.25-1c1,.39.62-.47.63-.8.06-1.66,0-1.66,1.28-1.84l.87.93a3.28,3.28,0,0,0-.33,1.2,8.1,8.1,0,0,0,1.62,3.49l.52.66.06.74Z"/><path class="cls-3" d="M31.82,73.64a.26.26,0,0,1,0,.15c-.09.24-.18.47-.26.71l-1-.48a5.47,5.47,0,0,0-.06.6,2.92,2.92,0,0,0,.09.42l.76-.34v.63l-.17.45h1c0,.13,0,.27,0,.4-.61.62-.57,1.14.25,1.54l-.18,2.75L31.41,82l1,.37c-.08.36-.15.71-.23,1.07l-1,1.47c.19.83.94.63,1.58.67v.83c-.37.19-1,.64-1.07.53-.56-.47-.91,0-1.33.13l-.24-7.69c.61-.24,1.35-.41.87-1.41l-.76.16c0-.29-.09-.58-.13-.87.88-.14,1.08-.58.59-1.29a7.69,7.69,0,0,0-.53-.63c0-.71,0-1.42,0-2.13Z"/><path class="cls-26" d="M58.5,45.86a9,9,0,0,1,.74,1.49,14.14,14.14,0,0,1,.24,2c-.29.31.42,1.15-.58,1.07-1.1.09-.29.86-.45,1.27-.48-.61-1.24-1.17-1.35-1.84-.13-.84-.58-.89-1.11-.9a19.48,19.48,0,0,0-2,.18l0-.42.45-1.84.93-.36-.11-1c.32,0,.65.07,1,.08a3.29,3.29,0,0,0,.54,0Z"/><path class="cls-15" d="M62.13,69.39c0,.9.13,1.8.09,2.7-.08,1.83-.24,3.66-.35,5.48q-.28,4.46-.55,8.9c-.23-.64-.47-1.29-.7-1.94s-.17-1.29-.25-1.93l-.18-1.06V79.87c.21-1.22.41-2.45.62-3.67l0-.38.31-.21-.31-.32-.06-1V72.56l.08-.62.73-.32-.37-.55v-.85Z"/><path class="cls-12" d="M36.26,92.84c1.35.15,2.71.23,4,.49.47.09.86.59,1.39,1a3.33,3.33,0,0,1,2.93.61,2.18,2.18,0,0,0-.39.56,4,4,0,0,0-.11.86l-1.88-.11c0-.86-.42-1.2-1.32-1l-.18.86L38,95.57c.09-.5.2-.82.89-.66a6.28,6.28,0,0,0,1.77-.1l.08-.29a6.21,6.21,0,0,0-2-.52,1.45,1.45,0,0,0-1.37,1.21l-1.08-.41C36.25,94.15,36.25,93.49,36.26,92.84Z"/><path class="cls-12" d="M58.67,92.41l2.29-1a1.27,1.27,0,0,1-.75,2,34.78,34.78,0,0,1-4.32.87c.29-.68.07-1.14-.7-1.46L54,94.49a10.66,10.66,0,0,1-1.7.76,23.89,23.89,0,0,1-2.56.35l1.07-1.21.1.22c.41-.13.82-.24,1.23-.39a7,7,0,0,0,1.33-.55,2.16,2.16,0,0,0,1-.86c.3-.72.67-.74,1.21-.35A2.25,2.25,0,0,0,58.67,92.41Z"/><path class="cls-16" d="M48.43,44l3,.18c.11.34.21.68.35,1,.3.72.62,1.44.93,2.17l-.44.22h-.64l-1.7.2v-.64c.68-.26.34-.53-.06-.6-.82-.13-1.66-.16-2.5-.23v-.23Z"/><path class="cls-6" d="M52.7,47.39c-.31-.73-.63-1.45-.93-2.17-.14-.33-.24-.67-.35-1l5.11.41.21.84a3.29,3.29,0,0,1-.54,0c-.32,0-.65,0-1-.08l.11,1-.93.36L54,48.68Z"/><path class="cls-5" d="M32.14,47.52l.51-1.62,2.76-1.27a5.06,5.06,0,0,0,.4.87c1-.3,1.31.75,2,1,.27.12.39.56.58.85-.92-.85-1.73-.14-2.55.2H34.13a.8.8,0,0,0-1.28,0h-.64Z"/><path class="cls-26" d="M60.62,84.53c.23.65.47,1.3.7,1.94,0,.12,0,.23,0,.35-.71.37-.74.81-.14,1.32l0,1.26-.79.66a8.1,8.1,0,0,1-1.62-3.49,3.28,3.28,0,0,1,.33-1.2Z"/><path class="cls-5" d="M34.34,91.14l.43.62-1.19,0-.53,1a3.47,3.47,0,0,1-2.35-3.21c1.35.72.88-1.18,1.39-1.19l1.41.77.52,1-.74.45a5.67,5.67,0,0,0,.64.45A1,1,0,0,0,34.34,91.14Z"/><path class="cls-23" d="M62.13,69.39l-.94.83-.38-.86L60.36,63l0-.62.79,0C61.5,64.67,61.81,67,62.13,69.39Z"/><path class="cls-15" d="M40.57,44.36A8.7,8.7,0,0,1,45.44,44a5.66,5.66,0,0,1,.29.88,1.42,1.42,0,0,1,0,.89,1.65,1.65,0,0,1-2,0c-.33-.36-.61-.77-.91-1.15l-.16.45a11.45,11.45,0,0,1-1.14.22,6,6,0,0,1-1,0C40.55,45,40.56,44.66,40.57,44.36Z"/><path class="cls-23" d="M40.55,45.25a6,6,0,0,0,1,0A11.45,11.45,0,0,0,42.64,45l.16-.45c.3.38.58.79.91,1.15a1.65,1.65,0,0,0,2,0,1.42,1.42,0,0,0,0-.89,5.66,5.66,0,0,0-.29-.88l1.27-.12.41.66h-.77l-.18,1.59h1.19v.23a4.1,4.1,0,0,1-.9.18c-1.77-.05-3.53-.13-5.29-.2Z"/><path class="cls-19" d="M33.5,89.21l-1.41-.77c-.51,0,0,1.91-1.39,1.19l-.33-2.55c.42-.11.77-.6,1.33-.13.12.11.7-.34,1.08-.53,0,.15,0,.3.07.44Z"/><path class="cls-6" d="M38.39,47.4c-.19-.29-.31-.73-.58-.85-.69-.3-1-1.35-2-1a5.06,5.06,0,0,1-.4-.87l1.93-.46.8,1.65.69-.35c.43.13,1.2-.64,1.26.47-.58,0-1,.05-.62.78l-.44.89Z"/><path class="cls-19" d="M33.05,92.84l.53-1,1.19,0,1.49,1.08c0,.65,0,1.31,0,2-.6-.39-1.2-.81-1.82-1.19C34,93.33,33.51,93.1,33.05,92.84Z"/><path class="cls-3" d="M58.9,50.4c1,.07.29-.77.58-1.08.94.87.83,2.1,1.09,3.2l-.42.85-1.07.22-.18-.65-.22-.44v-.41A2,2,0,0,0,59,51.4,4.29,4.29,0,0,0,58.9,50.4Z"/><path class="cls-11" d="M29.94,53.35l1-3.41h.88l-.27,3.43Z"/><path class="cls-15" d="M47.36,46.11H46.17l.18-1.59h.77l-.41-.66,1.72.17C48.07,44.72,47.71,45.41,47.36,46.11Z"/><path class="cls-23" d="M60.94,57.87c.06,1.13.13,2.27.19,3.41-.2.18-.39.37-.61.56l-.33-.8v-.42l-.25-1.07V58.7l.45-.87Z"/><path class="cls-17" d="M60.15,53.37l.42-.85.36,3.87-1.4-.68c.13-.57.27-1.14.4-1.7Z"/><path class="cls-12" d="M40.09,45.94c-.06-1.11-.83-.34-1.26-.47-.07-.5-.15-1-.22-1.49l2,.38c0,.3,0,.59,0,.89.2.36.41.71.62,1.07Z"/><path class="cls-16" d="M29.58,56.32l.06-1.25c.31-.26,1.05.58,1.08-.42h.6l-.19,1.26-.38.27.37.38,0,.63L30.08,57h0Z"/><path class="cls-20" d="M44.12,96.34a4,4,0,0,1,.11-.86,2.18,2.18,0,0,1,.39-.56L45,95l.66.2h0l1.31.41.39,0v.19Z"/><path class="cls-12" d="M59.53,55.71l1.4.68c0,.34-.09.68-.14,1l-.4.41-.45.87-.22-.22Z"/><path class="cls-18" d="M37.32,95.21A1.45,1.45,0,0,1,38.69,94a6.21,6.21,0,0,1,2,.52l-.08.29a6.28,6.28,0,0,1-1.77.1c-.69-.16-.8.16-.89.66Z"/><path class="cls-13" d="M30.72,54.65c0,1-.77.16-1.08.42l.3-1.72,1.57,0c-.05.28-.09.56-.14.84h-.82Z"/><path class="cls-13" d="M54,94.49l1.23-1.62c.77.32,1,.78.7,1.46Z"/><path class="cls-20" d="M38.61,44c.07.49.15,1,.22,1.49l-.69.35-.8-1.65Z"/><path class="cls-27" d="M31,49.51l.2-.62.18-.21.21-.22H32l.4,1,.45-1.23h0l.43.86v.64l-1.69-.22Z"/><path class="cls-3" d="M56.74,45.46l-.21-.84a1.6,1.6,0,0,1,2,1.24Z"/><path class="cls-12" d="M60.19,61l.33.8c.22-.19.41-.38.61-.56,0,.35,0,.69,0,1l-.79,0a1.06,1.06,0,0,0-.15-.15L59,61.46Z"/><path class="cls-16" d="M40.74,96.1l.18-.86c.9-.21,1.32.13,1.32,1Z"/><path class="cls-17" d="M31.82,73.64l-1.66-.42c0-.22,0-.45,0-.68.74,0,1.49,0,1.67.95Z"/><path class="cls-17" d="M30.17,75.35a7.69,7.69,0,0,1,.53.63c.49.71.29,1.15-.59,1.29Z"/><path class="cls-17" d="M30.24,78.14,31,78c.48,1-.26,1.17-.87,1.41C30.16,79,30.2,78.55,30.24,78.14Z"/><path class="cls-15" d="M60.38,90.06l.79-.66c.16.49.7,1.06-.27,1.32Z"/><path class="cls-17" d="M30.09,70.64h1l.11.35-1,.53Z"/><path class="cls-15" d="M61.2,88.14c-.6-.51-.57-1,.14-1.32C61.29,87.26,61.25,87.7,61.2,88.14Z"/><path class="cls-12" d="M47.35,95.8v-.19c.28-.35.57-.79.85,0Z"/><path class="cls-5" d="M32,48.47h-.43l.57-.94.07.09c0,.21,0,.42,0,.63Z"/><path class="cls-13" d="M29.58,56.32l.5.67-.49,0C29.59,56.79,29.58,56.56,29.58,56.32Z"/><path class="cls-5" d="M31,49.51h.61c0,.14,0,.28,0,.42H30.9C30.93,49.8,31,49.65,31,49.51Z"/><path class="cls-17" d="M60.39,57.83l.4-.41.15.44Z"/><path class="cls-7" d="M54.76,40.37l.58.12-.32.29Z"/><path class="cls-18" d="M27.7,60.82l-.39-.53Z"/><path class="cls-5" d="M31.36,48.68l-.18.21Z"/><path class="cls-4" d="M64,57.21c.42.7.82,1.34,1.15,2,0,.08-.37.53-.43.5-.27-.13-.65-.34-.69-.57A13.51,13.51,0,0,1,64,57.21Z"/><path class="cls-4" d="M59.72,58.48l.22.22v.85h-.21l-3.61,1.32.09.3h1.46L57.09,64l1.7-.41c-.14.79-1.61,1.82-2.16,1.62a.2.2,0,0,1-.09,0c-.13-.11-.32-.35-.39-.32a2.58,2.58,0,0,0-.55.45,11.11,11.11,0,0,0,1,.79c.1.07.3,0,.71-.07V71.8l.51.63c-1,1-.79,2.06-.24,3.12-.43.28-.83.46-1.07-.21l-.18-1c-.29.1-.72.11-.84.3a16.44,16.44,0,0,0-.84,2l1.43-.18,1.18.45-1,1-1.53,1.23.3,1c-.38-.23-.57-.29-.65-.41-.4-.71-.76-1.45-1.16-2.16-.55-1-.9-1-1.67-.19-.36.38-.71.77-1.06,1.16l-.21-.21c-.21-.15-.42-.3-.64-.44l-.42-.43V76.41l.93.36L51.81,75l1.13-1.74,1.59.31.17-.42-2.35-1.6L51.21,72a4.47,4.47,0,0,1,.26-1,1,1,0,0,0-.35-1.37c-1-.7-2.22-.38-3.34-.51V68.09l.76.26,2-.8L51,66.16l2.18-1.59c-1.52-.63.72-1.24,0-2a5.29,5.29,0,0,0-1.15.93,6.67,6.67,0,0,0-.55,1.61l-1-1.72a2,2,0,0,1-2.94-.29c-.14-.25-.29-.75-.19-.83s.73-.37.92-.25c.76.48,1.07-.1,1.36-.52a14.6,14.6,0,0,0,.9-1.85l1.24.56-1,1.67,3.43-1.8-3.75-1.56a1.55,1.55,0,0,0,1.48-1.79c0-.9-.38-1.43-1.27-1.49a2.45,2.45,0,0,0-.84.25,7.76,7.76,0,0,0,.77.93c.1.09.38,0,.59,0,.28,1.14-.48.88-.93.84l-.73,1.26-.29-.15-.39-2.27c-.61-.13-1.32-.08-1.62-.4a4.31,4.31,0,0,1-1-1.93c-.28-1.32-.32-1.4-1.84-1l.61.64a1.91,1.91,0,0,1-2.7.38l-1.3-1,.66-1.11c-.45-.37-.78-.52-.92-.78-.31-.61-.62-.57-1-.14a4.3,4.3,0,0,1-.53.42,10.42,10.42,0,0,1-1.27-.75,6,6,0,0,1-.71-.87l1.73,0c.94.16,1.81.76,2.82,0,.38-.31.94.14,1,.83a5.53,5.53,0,0,0,.42,1.27l.63-1.17.89.21,1.47,1.16.28-.2-.08-1c.09-.44,0-1.07.3-1.29a8.16,8.16,0,0,1,1.84-.86,4.93,4.93,0,0,0,.92.4,4.76,4.76,0,0,0,1,0l.84.87,1.09.84c.26,1.37,1.51,1.28,2.5,1.67a2.44,2.44,0,0,0-.21.8,5,5,0,0,0,.25,1c.33-.1.79-.1,1-.32a2.07,2.07,0,0,0,.54-2.3l1-.21L57.24,53c.57.44,1.31.73,1.34,1.09.08.92-.85.5-1.33.69a1.6,1.6,0,0,1-.21.05c-.95.24-1.15.61-.56,1.37a1.42,1.42,0,0,1-.12,2.2c1.06,1.13,1,1.12,2.29.39A5.13,5.13,0,0,1,59.72,58.48Z"/><path class="cls-27" d="M37.12,49.53a6,6,0,0,0,.71.87,10.42,10.42,0,0,0,1.27.75,4.3,4.3,0,0,0,.53-.42c.43-.43.74-.47,1,.14.14.26.47.41.92.78l-.66,1.11,1.3,1-.78.81.69,1.73.47-1.17c1.35.35,1.66.71,1.73,2.36,0,.74.31,1,1,1a9,9,0,0,1,1.36.14l-.45,1.13-1.48-.52c-1.3-.47-2.1-.07-2.36,1.16h0c-.6.11-1.09.31-1.1,1.06,0,.13-.22.33-.38.38s-.39-.18-.38-.23c.26-1-1.08-2-.17-2.66-.43-1-.74-1.92-1.18-2.75a5.33,5.33,0,0,0-1.17-1.3c-.08-.07-.56.1-.6.23a.82.82,0,0,0,.2.7c.71.67.69.79-.24,1.18-.28.11-.49.41-.78.52a11.55,11.55,0,0,1-1.38.3c.24-.47.31-.59.36-.71s.19-.51.29-.76a4.81,4.81,0,0,0-.76,0,2.61,2.61,0,0,0-.6.19c0-.85.92-1.6.32-2.8-.66,1-1.24,1.76-1.69,2.59-.29.55,0,.88.65.77l.72-.14c.14.19.31.36.43.56.38.68.79,1.17,1.74,1a2,2,0,0,1,2,1.86c0,.55-1.35,1.28-1.92,1.13a1.52,1.52,0,0,0-1.12.06c-.35.26-.5.8-1.1.63-.06.21-.23.54-.15.62.53.52.18.95,0,1.43a2.1,2.1,0,0,0-.17.86,5.46,5.46,0,0,0,.07.9l-.34.23c-.36-.36-.91-.66-1-1.1-.19-.61-.86-1.53.45-1.87a.46.46,0,0,0,.19-.42.51.51,0,0,0-.38-.29,9.58,9.58,0,0,0-1.13.15l.13-.83a1.38,1.38,0,0,0,.59-2c-.13-.12-.36-.12-.54-.18a2.53,2.53,0,0,0-.12.53c0,.43,0,.85.07,1.27a1.86,1.86,0,0,1-.43-2.09,5,5,0,0,1,.5-.9l-1.13-.42,0-.43c0-.14,0-.28,0-.43s0-.42,0-.63,0-.43,0-.65c.06-.42.13-.84.19-1.26,0-.14,0-.29.05-.44s.09-.56.14-.84L31.78,50l.9,1.13a2.69,2.69,0,0,1,1,.48c.22.15.42.32.63.49.15-.25.42-.49.42-.74a9.21,9.21,0,0,0-.18-1.56c.55-.53.45-.84-.43-1.3V47.6h1.71Zm-.28,7,.44-3.23C35.73,54.66,35.69,55.37,36.84,56.55Zm-4.53-3.82c.42,1.09,1,1.18,1.59,1,.13-.05.12-.48.17-.73Zm4.38-.57c-.44-.31-.68-.59-1-.64-.12,0-.46.43-.45.66s.37.48.59.5S36.31,52.41,36.69,52.16Zm-2.06,7.18c-.16-.17-.28-.38-.35-.37a1.88,1.88,0,0,0-.5.27c.11.15.2.41.32.43S34.4,59.49,34.63,59.34Zm-1.22-1c0-.06,0-.15-.08-.17s-.11,0-.17.06,0,.15.07.17S33.35,58.36,33.41,58.33Zm4.91-6.09c-.06,0-.13-.08-.18-.06s0,.11-.08.17.14.08.18.06S38.29,52.3,38.32,52.24Z"/><path class="cls-27" d="M33.5,89.21l-.65-2.35c.78-.26.78-.8,0-1.49v-.43h1.55c.08-.57.61-1.17,0-2a8.77,8.77,0,0,1-.84-2.37.5.5,0,0,1,0-.4c.36-.57.74-1.12,1.11-1.68,1.72,0,1.59,1.52,2,2.6.22.66.28,1.37.48,2,.06.23.32.4.52.58s.48.4.72.6l-.14.23-1.61-.43a8.5,8.5,0,0,0,.3.81c.39.83,1.06,1.59.54,2.65-.09.18.28.6.45.91l.36-.1.44-3.22.91,1.12c-.53,1.41-.53,1.41.58,1.63L40.15,87c.5-.25,1.3-.16.8-1.25-.3-.65.06-1.6.4-2.62l.43.83L45,83.49c0,1-.77,1-1.45,1.15l.32.94c.27-.14.45-.3.63-.31a.65.65,0,0,1,.48.26c0,.07,0,.31-.15.43-.65.86-1.32,1.71-2,2.6l-.23-.25L41,89l.29.63c.25.57.14,1-.55,1a1.21,1.21,0,0,0-1.22,1c-.24.66-.6.84-1.31.61-1.15-.37-2.44-.38-3.37-1.33,0,0-.3.15-.46.23a1,1,0,0,1-.42,0,5.67,5.67,0,0,1-.64-.45l.74-.45Z"/><path class="cls-9" d="M50.55,78.55c.35-.39.7-.78,1.06-1.16.77-.81,1.12-.78,1.67.19.4.71.76,1.45,1.16,2.16.08.12.27.18.65.41l-.3-1,1.53-1.23.47.24c.78.35,1.93-.19,2.37,1a4.72,4.72,0,0,0,.57-.16l.46.9v1.67l-.78-.14c-.36,1,.38,1,1,1.2.08.64.16,1.29.25,1.93l-1.53.84-.87-.93c-1.24.18-1.22.18-1.28,1.84,0,.33.4,1.19-.63.8l-2.77-1.54a2.85,2.85,0,0,1-.38-.31c1.05-1.29,1.05-1.29-.48-2l-.43.84L51,82.63c1.62-1.15.12-2.22-.06-3.34A3,3,0,0,0,50.55,78.55Zm6.56,2.39-.38-.32a4.31,4.31,0,0,0-.9.49c-.37.33-.88.7-1,1.13a5.58,5.58,0,0,0,.06,2.3c.06.24.79.32,1.3.5-.1-.58-.26-.91-.18-1.15C56.36,82.89,56.75,81.92,57.11,80.94Zm-5.64-.7a19.94,19.94,0,0,0,2.1,0c.12,0,.35-.55.27-.66a10.36,10.36,0,0,0-1.1-1.22Z"/><path class="cls-27" d="M45.64,69.16l-1-.07c-.33-1,1.08-2.45-.82-3l-.78,4c-.63-.08-1.21-.14-1.78-.25a.69.69,0,0,1-.38-.32c-.26-.45-.48-.91-.67-1.28l.83-1.35c-.76-.35-1.59.56-1.83-.5-.06-.3.23-.69.41-1.18a.71.71,0,0,1-.29-.36,1.37,1.37,0,0,1,.06-.9c.08-.14.5-.16.74-.12,1.45.23,2.05,0,2.66-.7l-.36-2.63h0l3.84-.22c0,.76,0,1.51-.92,1.79-.17.05-.31.37-.34.59-.18,1,.11,1.27,1.59,1.45L46,65.17l-.59-.74-.76.8c.81.86,2,1.45,1.68,2.86l-.21.21-.43.43Z"/><path class="cls-24" d="M45.64,69.16v-.43l.43-.43.21-.21a10.59,10.59,0,0,0,.87.9,1.66,1.66,0,0,0,.62.16c1.12.13,2.31-.19,3.34.51A1,1,0,0,1,51.47,71a4.47,4.47,0,0,0-.26,1l1.14-.41,2.35,1.6-.17.42-1.59-.31L51.81,75,50.2,76.77l-.93-.36-1.18-1.1-1.16.46v-.43c-.06-.42-.12-.84-.19-1.35.71-.79,2.47.9,2.92-.8-.42-.45-1-.77-1-1.1,0-.75.47-1.66-1-1.31-.1,0-.23-.27-.38-.33-.56-.24-1.13-.44-1.7-.66Z"/><path class="cls-27" d="M49.28,78.54a2.9,2.9,0,0,0,1,3c-1.27.75-1.37,1-.94,1.8.61.11,1.44.16,1.46.29a3.32,3.32,0,0,1-.21,2c-.7,1.06-1.42-.22-2.29-.25l.36,1.3-.23.19L46.1,84.76l1.42-.46L46,82.91a5.67,5.67,0,0,0,1.56-.14,4.84,4.84,0,0,0,1.1-.86c-.21-.22-.41-.44-.62-.65a1.07,1.07,0,0,1-.13-1.59,5.92,5.92,0,0,0,.56-1.34Z"/><path class="cls-27" d="M32.86,70.59,34.31,70,34,68.71c.92-.21.92-.21,1.06,1.11L36.78,68c.71,1.11.68,1.17-.41,1.58-.2.07-.48.31-.47.46a.82.82,0,0,0,.4.6c.42.23.88.38,1.38.59a6.35,6.35,0,0,1-4.17,2.33.84.84,0,0,1-.62-.55A24.24,24.24,0,0,1,32.86,70.59Z"/><path class="cls-21" d="M45.64,69.79c.57.22,1.14.42,1.7.66.15.06.28.35.38.33,1.44-.35,1,.56,1,1.31,0,.33.55.65,1,1.1-.45,1.7-2.21,0-2.92.8.07.51.13.93.19,1.35a2.92,2.92,0,0,1-.76-3c.38-1,.14-1.42-.87-1.72a3.64,3.64,0,0,1-.75-.47Z"/><path class="cls-27" d="M43.94,92l.11-.77.27-.09.88,1.55c.67-.43.92-1.32.95-3l1.32,1.56A25.36,25.36,0,0,1,45.36,94c-.77.78-1.26-.23-1.85-.57a7.33,7.33,0,0,0-1.79-.9,6.9,6.9,0,0,0-1.88.1c.27-.86.25-1.65,1.34-1.06.23.13.72-.21,1.19-.38l.56.91,1-.14.29,1,.43-.27Z"/><path class="cls-22" d="M34.56,57l-.72.14c-.66.11-.94-.22-.65-.77.45-.83,1-1.59,1.69-2.59.6,1.2-.32,1.95-.32,2.8Z"/><path class="cls-21" d="M49.28,78.54l-.86-.21h0a6.93,6.93,0,0,0,.16-1c0-.38,0-.85-.59-.48l-1.06-1.07,1.16-.46,1.18,1.1c0,.35,0,.71,0,1.06l-.08.43h.5c.22.14.43.29.64.44Z"/><path class="cls-19" d="M32.83,84.94v.43l-.07.22c-.64,0-1.39.16-1.58-.67l1-1.47C32.4,84,32.62,84.45,32.83,84.94Z"/><path class="cls-22" d="M32.21,61.47c0-.42-.06-.84-.07-1.27a2.53,2.53,0,0,1,.12-.53c.18.06.41.06.54.18a1.38,1.38,0,0,1-.59,2Z"/><path class="cls-11" d="M32.42,82.38l-1-.37.79-1.55C32.27,81.1,32.35,81.74,32.42,82.38Z"/><path class="cls-27" d="M34.5,67.14l.36-1.08,1.78.62C36.18,67.75,35.31,66.69,34.5,67.14Z"/><path class="cls-27" d="M43,72.19l.6,1.48c-.36-.13-.83-.15-1-.4s0-.67,0-1Z"/><path class="cls-12" d="M31.36,75.33V74.7l.22-.2c.08-.24.17-.47.26-.71.11.66.23,1.32.34,2h-.62C31.5,75.62,31.43,75.48,31.36,75.33Z"/><path class="cls-22" d="M31.94,69.16c0-.22,0-.43,0-.65l1.15-.42C33.14,69.15,32.94,69.32,31.94,69.16Z"/><path class="cls-24" d="M48,76.84c.62-.37.6.1.59.48a6.93,6.93,0,0,1-.16,1C48.28,77.83,48.14,77.33,48,76.84Z"/><path class="cls-27" d="M42.41,70.82l.82.43-.32.51-.74-.55Z"/><path class="cls-12" d="M32.38,77.71c-.82-.4-.86-.92-.25-1.54C32.22,76.68,32.3,77.19,32.38,77.71Z"/><path class="cls-12" d="M47,95.57l-1.31-.41Z"/><path class="cls-27" d="M38.43,66c-.19.08-.32.18-.4.15a.41.41,0,0,1-.22-.28c0-.06.18-.21.25-.2S38.25,65.79,38.43,66Z"/><path class="cls-27" d="M31.12,58.75l-.36-.42.39-.26Z"/><path class="cls-12" d="M45.67,95.16,45,95Z"/><path class="cls-27" d="M41.73,70.8c0,.06,0,.15-.08.17s-.12,0-.18-.07,0-.15.08-.17S41.67,70.78,41.73,70.8Z"/><path class="cls-17" d="M32,73.11l.39-.32Z"/><path class="cls-13" d="M31.14,57.2c0,.15,0,.29,0,.43L30.08,57Z"/><path class="cls-17" d="M31.3,70.26s-.07,0-.08,0l0-.09s.07,0,.08,0S31.29,70.23,31.3,70.26Z"/><path class="cls-17" d="M31.58,74.5l-.22.2L30.6,75a2.92,2.92,0,0,1-.09-.42,5.47,5.47,0,0,1,.06-.6Z"/><path class="cls-25" d="M32.77,85.59l.07-.22c.79.69.79,1.23,0,1.49,0-.14-.05-.29-.07-.44S32.77,85.87,32.77,85.59Z"/><path class="cls-17" d="M31.36,75.33c.07.15.14.29.2.44h-.37Z"/><path class="cls-24" d="M59.72,58.48a5.13,5.13,0,0,0-1.07.33c-1.24.73-1.23.74-2.29-.39a1.42,1.42,0,0,0,.12-2.2c-.59-.76-.39-1.13.56-1.37a1.6,1.6,0,0,0,.21-.05c.48-.19,1.41.23,1.33-.69,0-.36-.77-.65-1.34-1.09l.13-1.78-1,.21c.08-.63-.17-.83-.82-.89a12.51,12.51,0,0,1-2.19-.6L54,49.1a19.48,19.48,0,0,1,2-.18c.53,0,1,.06,1.11.9.11.67.87,1.23,1.35,1.84l.22.43c0,.13,0,.27,0,.41l.22.44.18.65.85.42c-.13.56-.27,1.13-.4,1.7C59.59,56.63,59.66,57.56,59.72,58.48Z"/><path class="cls-15" d="M54,49.1c-.22.29-.44.58-.67.86,0,.87-.59.6-1,.63l-1.09-.84a1.47,1.47,0,0,1,0-.19c1.29,0,1.05-.79.88-1.57,0-.11.1-.26.15-.38l.44-.22L54,48.68C54,48.82,54,49,54,49.1Z"/><path class="cls-11" d="M58.67,52.09l-.22-.43c.16-.41-.65-1.18.45-1.27a4.44,4.44,0,0,1,.13,1A2,2,0,0,1,58.67,52.09Z"/><path class="cls-24" d="M57.6,75.55c-.55-1.06-.79-2.1.24-3.12l-.51-.63V66c-.41,0-.61.14-.71.07a11.11,11.11,0,0,1-1-.79,2.58,2.58,0,0,1,.55-.45c.07,0,.26.21.39.32a.2.2,0,0,0,.09,0c.55.2,2-.83,2.16-1.62l-1.7.41.58-2.85H56.21l-.09-.3,3.61-1.32c.15.36.3.71.46,1.07V61L59,61.46l1.29.73a1.06,1.06,0,0,1,.15.15l0,.62c-.66,0-.86.23-.67.92a1.36,1.36,0,0,1-.62,1.63,2,2,0,0,0-1,2.38c.37.19.91.33.92.5.07,1.37.91,1.17,1.79,1l.38.86c0,.28,0,.57,0,.85l-.36.87c0,.21-.06.41-.08.62-.52.28-1,.57-1.54.86l.12.32,1.43.54.06,1v.53c0,.13,0,.25,0,.38a2.35,2.35,0,0,0-1.56-.94,4.17,4.17,0,0,0-1.22.29Z"/><path class="cls-4" d="M58,75.55a4.17,4.17,0,0,1,1.22-.29,2.35,2.35,0,0,1,1.56.94c-.21,1.22-.41,2.45-.62,3.67l-.46-.9V76.72Z"/><path class="cls-4" d="M60.77,74.28l-1.43-.54-.12-.32c.51-.29,1-.58,1.54-.86C60.76,73.13,60.77,73.71,60.77,74.28Z"/><path class="cls-26" d="M60.37,82.6c-.58-.16-1.32-.19-1-1.2l.78.14Z"/><path class="cls-23" d="M60.84,71.94l.36-.87c.12.18.25.36.37.55Z"/><path class="cls-4" d="M60.83,75.82v-.53c.11.1.21.21.31.32Z"/><path class="cls-12" d="M48.21,47.4l.43,0c.24.68.54,1.2,1.28.44l1.7-.2c.2,1-.24,1.46-1.28,1.27a4.76,4.76,0,0,1-1,0,4.93,4.93,0,0,1-.92-.4Z"/><path class="cls-8" d="M50.34,48.88c1,.19,1.48-.22,1.28-1.27h.64c0,.12-.18.27-.15.38.17.78.41,1.59-.88,1.57a1.47,1.47,0,0,0,0,.19Z"/><path class="cls-13" d="M49.92,47.81c-.74.76-1,.24-1.28-.44l1.28-.2Z"/><path class="cls-22" d="M37.12,49.53,35.84,47.6c.82-.34,1.63-1.05,2.55-.2l.64.21c-.06.29-.12.58-.19.86v1Z"/><path class="cls-22" d="M34.13,47.6v.85l-.85.65-.43-.86V47.6A.8.8,0,0,1,34.13,47.6Z"/><path class="cls-27" d="M32.85,47.6v.64H32.2c0-.21,0-.42,0-.63Z"/><path class="cls-4" d="M60.81,69.36c-.88.2-1.72.4-1.79-1,0-.17-.55-.31-.92-.5a2,2,0,0,1,1-2.38,1.36,1.36,0,0,0,.62-1.63c-.19-.69,0-.93.67-.92Z"/><path class="cls-4" d="M38.84,48.47c.07-.28.13-.57.19-.86l.44-.89.63.27C40,47.78,39.78,48.42,38.84,48.47Z"/><path class="cls-11" d="M59.93,54l-.85-.42,1.07-.22Z"/><path class="cls-11" d="M58.9,52.94l-.22-.44Z"/><path class="cls-22" d="M34.56,49.75a9.21,9.21,0,0,1,.18,1.56c0,.25-.27.49-.42.74-.21-.17-.41-.34-.63-.49a2.69,2.69,0,0,0-1-.48L31.78,50h-.2c0-.14,0-.28,0-.42l1.69.22Z"/><path class="cls-12" d="M60.19,60.62c-.16-.36-.31-.71-.46-1.07h.21C60,59.91,60.11,60.26,60.19,60.62Z"/><path class="cls-11" d="M31.37,54.22c0,.15,0,.3-.05.44h-.6l-.17-.43Z"/><path class="cls-11" d="M31.13,55.92c0,.22,0,.44,0,.65l-.37-.38Z"/><path class="cls-4" d="M34.56,49.75H33.28V49.1l.85-.65C35,48.91,35.11,49.22,34.56,49.75Z"/><path class="cls-22" d="M32.2,48.24h.65l-.45,1.23-.4-1Z"/><path class="cls-21" d="M47.78,69.15a1.66,1.66,0,0,1-.62-.16,10.59,10.59,0,0,1-.87-.9c.28-1.41-.87-2-1.68-2.86l.76-.8.59.74L46.62,64c-1.48-.18-1.77-.46-1.59-1.45,0-.22.17-.54.34-.59,1-.28.92-1,.92-1.79v-.42l.45-1.13a9,9,0,0,0-1.36-.14c-.72,0-1-.24-1-1-.07-1.65-.38-2-1.73-2.36l-.47,1.17-.69-1.73.78-.81a1.91,1.91,0,0,0,2.7-.38l-.61-.64c1.52-.4,1.56-.32,1.84,1a4.31,4.31,0,0,0,1,1.93c.3.32,1,.27,1.62.4l.39,2.27.29.15.73-1.26c.45,0,1.21.3.93-.84-.21,0-.49.13-.59,0a7.76,7.76,0,0,1-.77-.93,2.45,2.45,0,0,1,.84-.25c.89.06,1.27.59,1.27,1.49a1.55,1.55,0,0,1-1.48,1.79l3.75,1.56-3.43,1.8,1-1.67-1.24-.56a14.6,14.6,0,0,1-.9,1.85c-.29.42-.6,1-1.36.52-.19-.12-.68.06-.92.25s0,.58.19.83a2,2,0,0,0,2.94.29l1,1.72A6.67,6.67,0,0,1,52,63.54a5.29,5.29,0,0,1,1.15-.93c.75.72-1.49,1.33,0,2L51,66.16c.07-.68-.39-.65-.85-.63H49.06l-1.34-.12c-.38.92-1,1.83.07,2.69Z"/><path class="cls-11" d="M38.84,48.47c.94,0,1.2-.69,1.26-1.48a4.92,4.92,0,0,1,1.09.24,4,4,0,0,0,3.31.23,2.86,2.86,0,0,1,.93,0,10,10,0,0,1,.3,1.5,4.36,4.36,0,0,1-.21,1.1L45.28,50l-.17-1a9.1,9.1,0,0,1-1.06.34c-.35.06-.72.05-1.19.08l.86,1-.63,1.17a5.53,5.53,0,0,1-.42-1.27c-.06-.69-.62-1.14-1-.83-1,.81-1.88.21-2.82,0C38.85,49.16,38.85,48.82,38.84,48.47Z"/><path class="cls-1" d="M52.27,50.59c.45,0,1.09.24,1-.63a12.51,12.51,0,0,0,2.19.6c.65.06.9.26.82.89a2.07,2.07,0,0,1-.54,2.3c-.18.22-.64.22-1,.32a5,5,0,0,1-.25-1,2.44,2.44,0,0,1,.21-.8C53.78,51.87,52.53,52,52.27,50.59Z"/><path class="cls-21" d="M58,75.55l1.7,1.17V79a4.72,4.72,0,0,1-.57.16c-.44-1.18-1.59-.64-2.37-1l-.47-.24,1-1-1.18-.45c-.19-.49-.54-1,.43-1.07.24.67.64.49,1.07.21Z"/><path class="cls-13" d="M43.72,50.39l-.86-1c.47,0,.84,0,1.19-.08A9.1,9.1,0,0,0,45.11,49l.17,1,.24.07a4.36,4.36,0,0,0,.21-1.1,10,10,0,0,0-.3-1.5l2.78,0,.21,1.06a8.16,8.16,0,0,0-1.84.86c-.27.22-.21.85-.3,1.29H44.61Z"/><path class="cls-24" d="M50.13,65.53c.46,0,.92,0,.85.63l-.43,1.39-2,.8-.76-.26c-1.09-.86-.45-1.77-.07-2.69l1.34.12a5.74,5.74,0,0,0-.82.63,3,3,0,0,0-.35.77c.67-.2,1.06-.44,1.41-.39C50.19,66.63,50.38,66.3,50.13,65.53Z"/><path class="cls-9" d="M56.53,75.34c-1,0-.62.58-.43,1.07l-1.43.18a16.44,16.44,0,0,1,.84-2c.12-.19.55-.2.84-.3Z"/><path class="cls-24" d="M49.7,77.9h-.5l.08-.43Z"/><path class="cls-25" d="M46.29,59.77v.42l-3.84.22c.26-1.23,1.06-1.63,2.36-1.16Z"/><path class="cls-25" d="M36.84,56.55c-1.15-1.18-1.11-1.89.44-3.23Z"/><path class="cls-22" d="M32.31,52.73l1.76.24c0,.25,0,.68-.17.73C33.28,53.91,32.73,53.82,32.31,52.73Z"/><path class="cls-22" d="M36.69,52.16c-.38.25-.62.53-.83.52s-.59-.32-.59-.5.33-.69.45-.66C36,51.57,36.25,51.85,36.69,52.16Z"/><path class="cls-22" d="M34.63,59.34c-.23.15-.39.34-.53.33s-.21-.28-.32-.43a1.88,1.88,0,0,1,.5-.27C34.35,59,34.47,59.17,34.63,59.34Z"/><path class="cls-22" d="M33.41,58.33c-.06,0-.14.08-.18.06s0-.11-.07-.17.13-.08.17-.06S33.39,58.27,33.41,58.33Z"/><path class="cls-22" d="M38.32,52.24c0,.06,0,.16-.08.17s-.12,0-.18-.06,0-.16.08-.17S38.26,52.22,38.32,52.24Z"/><path class="cls-5" d="M57.11,80.94c-.36,1-.75,2-1.06,3-.08.24.08.57.18,1.15-.51-.18-1.24-.26-1.3-.5a5.58,5.58,0,0,1-.06-2.3c.08-.43.59-.8,1-1.13a4.31,4.31,0,0,1,.9-.49Z"/><path class="cls-4" d="M51.47,80.24l1.27-1.91a10.36,10.36,0,0,1,1.1,1.22c.08.11-.15.64-.27.66A19.94,19.94,0,0,1,51.47,80.24Z"/><path class="cls-21" d="M46.08,68.3l-.43.43Z"/><path class="cls-25" d="M43.94,92l.72.75-.43.27-.29-1Z"/><path class="cls-2" d="M50.13,65.53c.25.77.06,1.1-.83,1-.35,0-.74.19-1.41.39a3,3,0,0,1,.35-.77,5.74,5.74,0,0,1,.82-.63Z"/></g></svg>