<svg xmlns="http://www.w3.org/2000/svg" viewBox="0 0 100 100"><defs><style>.cls-1{fill:#a7807f;}.cls-2{fill:#b89896;}.cls-3{fill:#bc9d9c;}.cls-4{fill:#b59493;}.cls-5{fill:#b49290;}.cls-6{fill:#a07674;}.cls-7{fill:#9d716f;}.cls-8{fill:#a47a79;}.cls-9{fill:#9b6e6c;}.cls-10{fill:#ba9b9a;}.cls-11{fill:#c6adab;}.cls-12{fill:#a57c7b;}.cls-13{fill:#c2a7a6;}.cls-14{fill:#c9b1b0;}.cls-15{fill:#ab8584;}.cls-16{fill:#b18e8c;}.cls-17{fill:#ccb5b4;}.cls-18{fill:#c1a4a3;}.cls-19{fill:#f3eded;}</style></defs><g id="Ebene_15" data-name="Ebene 15"><path class="cls-1" d="M88.89,97l-2.82-2.19a1.68,1.68,0,0,0,1.2-2l-2.92-2.92.24-.24c-.5-.27-1.65.16-1.22-1.1.09-.28.2-.56.31-.84a9.77,9.77,0,0,0-1.24.31c-.45.17-.87.43-1.3.64l-.87.4-.34-.34.88-.74c-.4-2-2.06-1.7-3.39-2L73,80.66a2.4,2.4,0,0,0-.46-.58c-1.53-1-1.52-2.63-1.52-4.09,0-1.84-1.11-2.88-2.23-4a6.55,6.55,0,0,0-.78-.61l1.3-.45c-.44-.48-.71-1-1.07-1.11a4.48,4.48,0,0,1-3-1.86c-.48-.67-.71-.53-1.05,0l-.52-1c0-.24,0-.48,0-.72l-.15-.52c.2-.66.29-1.24-.73-1.06h-.35c-.41-.5-.82-1-1.21-1.5s-.58-.87-.92-1.26S59.5,61,59.07,60.6l.15-.24-2.29-.06-2.15-2.71.45-.5h0c.06.06.11.16.18.17a4.91,4.91,0,0,1,3.48,2.35c.18.31,1.07.21,1.63.3.29.32.56.68.88,1a5.87,5.87,0,0,0,.84.51l1.8,2,.67,1.76c1-.09,1.84.15,1.4,1.73l.9-.41.91.83c.1.19.15.47.32.58,1.35.91,2.74,1.76,4.09,2.68.31.21.69.57.71.88.07,1,.41,1.32,1.49.66-1,.94-.94,1.71,0,2.43A5.15,5.15,0,0,0,75.19,76c1.46,1.67,3,3.27,4.49,4.9l5.58,6c-.57.67-.08,1.13.34,1.58.69.74,2.08.74,2.18,2.11,0,0,.21.12.32.11,1.32-.07,1.45,1,2,1.82l-1.51.28,1,1.06c.08.31,0,.74.25.91.88.78,1.82,1.49,2.8,2.26l-.86.86a2.24,2.24,0,0,0,2.41-.6c.5-.51,1-1,1.57-1.48,0,.25,0,.58-.09.75-.39.5-.9.91-1.3,1.41a2,2,0,0,1-3,.57c-.13-.08-.42.1-.64.16l-.37-.64.09-1.14C89.92,97.08,89.33,96.08,88.89,97Zm-.75-1.45.48,0-.07-1-.38,0Z"/><path class="cls-2" d="M44.55,40.42l.7-.85-1-1.71c-.13-.2-.25-.48-.44-.57-1.81-.84-2.05-2.38-.53-3.55,1.83-1.41,3.63-2.85,5.49-4.21.3-.22.85-.1,1.28-.14a3.3,3.3,0,0,1,0,1.25c-.4,1-.93,1.91-1.49,3,.74,0,1.42.06,2.09.13,2,.2,2.61,1.46,1.49,3a2.29,2.29,0,0,1-1.22.58,17.67,17.67,0,0,1-1.84.23,25.42,25.42,0,0,1,2.85,2.14,2.88,2.88,0,0,1,.74,1.84c0,1.57-.78,2-2.23,1.51-1.24-.45-2.49-.82-3.74-1.23l-1.77-.67-.25.31Z"/><path class="cls-3" d="M15.65,12.21,15.1,11c-.86.18-.94.14-2.72-1.74,0,1.07.09,1.89.08,2.7,0,.38,0,.88-.26,1.09s-.71.06-1.07,0c-2.1-.4-4.19-.84-6.29-1.24a9.71,9.71,0,0,0-1.2,0c-.31-2.22.56-3,2.64-2.48.87.22,1.77.31,2.91.51C8.19,8,5.89,7.33,6.29,5c2.76.42,4.39,2.31,6.14,4.22.2-1.1-1-2.55.9-3.19l1.19,2c.1-.6.17-.87.19-1.15.14-1.56.27-3.12.41-4.68,0-.17,0-.38.11-.48C15.8,1.14,16.4.57,17,0a10.81,10.81,0,0,1,.62,2.49c0,2-.09,4-.12,6.07,0,.24.28.48.42.72l-.12.47-.23,0,.06.2v0a15.43,15.43,0,0,1-1,1.71,3.4,3.4,0,0,1-.91.65Zm-1-4s0-.08,0-.1-.06,0-.1,0a.33.33,0,0,0,0,.1Z"/><path class="cls-4" d="M36.17,49.42c-.12,0-.29,0-.35,0-.65.7-1.36,1.31-2.37.86-.62-.27-1.06-2.17-.81-3.09,0-.22.07-.45.15-1-.43.42-.7.57-.77.79-.52,1.45-1.75,1.12-2.8,1.11-.58,0-.8-1.7-.47-2.31.8-1.42,1.44-2.93,2.25-4.34,1-1.77,1.5-4.07,4.19-4.34a7.14,7.14,0,0,1,0-.93c.08-.91.31-1.36,1.49-1.13a3.07,3.07,0,0,1,2.71,2.13L38,37.74l-2.53.12,1,1.7c-.31.51-.9,1-.88,1.52C35.68,43.86,36,46.64,36.17,49.42Z"/><path class="cls-2" d="M12.78,16.86c1.77.43,1.81.5,1.4,2.29,2.64-.34,3-.23,3.57,1.17l-2.21.91,1.54.82-.73.51-2.07,1.62c-.79.64-1.55,1.33-2.38,1.92a24.44,24.44,0,0,1-2.49,1.53c-.65.35-1.08,0-1.12-.65,0-1-.21-2,.75-2.8a2.66,2.66,0,0,0,.73-1.7c-.44.27-.9.52-1.31.83q-3.26,2.37-4-1.48l6.19-4.16-1,1.46c1,.76,1.63.71,2.23-.31A14.82,14.82,0,0,0,12.78,16.86Z"/><path class="cls-5" d="M26.6,35a26.34,26.34,0,0,1,3.12-2.54A3,3,0,0,1,32,32.18c.85.34.62,1.26.62,2.19,0,3.61-3,5.64-4.17,8.62a1.69,1.69,0,0,1-2,.95A1.49,1.49,0,0,1,25,42.56c-.05-.27-.41-.56-.69-.69a1.6,1.6,0,0,1-.89-2.3C24.54,37.88,25.74,36.25,26.6,35Z"/><path class="cls-6" d="M36.17,49.42c-.22-2.78-.49-5.56-.61-8.34,0-.5.57-1,.88-1.52l2.33-.38.85,0c.46.74.87,1.42,1.28,2.09.13,1,.25,2,.38,3a4.69,4.69,0,0,1-.08.84c-.17.73-.16,1.67-.62,2.11-.71.69-1.11,1.12-.22,1.87-.22,1.08-.44,2.16-.68,3.32a6.19,6.19,0,0,0-.81-.17C36.42,52.32,36.24,52.13,36.17,49.42Z"/><path class="cls-7" d="M15.37,32.29a1.18,1.18,0,0,1,.11-.19l.21-.54.18-.86,0-.71.37-.39v-.88l-1.42-.14-.29-1c.8-1.18,1.62-2.37,2.51-3.67,1.39,1.15,1.29-.43,2-1.16l1.84,1.85c-.38-1.21.32-1.09.89-1.14h.66l.36,1.79-2.31,1A28.65,28.65,0,0,0,23,27.89c.43.22,1.12-.09,1.29.67l-.29.58-.39.14c-.37,0-.83,0-1.09.19A36.85,36.85,0,0,0,19.6,32c-.17.16,0,.64,0,1l.15.18-1.92.89Z"/><path class="cls-6" d="M60.56,59.9c-.56-.09-1.45,0-1.63-.3a4.91,4.91,0,0,0-3.48-2.35c-.07,0-.12-.11-.18-.17l.73-.83c-.16-.09-.38-.3-.48-.26-.85.38-1.05-.31-1.41-.78-.24-.31-.51-.6-.78-.89-1-1.08-1.91-2.17-2.88-3.24a5.59,5.59,0,0,0-.71-.55l-.35.81-.67-.45-.35-.33c-.69-1.1-1.42-2.17-2-3.3a3.15,3.15,0,0,1,.83-3.15c.62-.47,1-.18,1.24.41.56,1.53,1.89,2.25,3.09,3.16A40.32,40.32,0,0,1,55,51l.93,1.21,1,1.55c0,.36-.19.8,0,1.05.4.65,1,1.2,1.42,1.83C59.07,57.69,59.81,58.8,60.56,59.9Z"/><path class="cls-8" d="M17.78,9.75l.12-.47c.34-1.69.59-3.41,1-5.07a2.87,2.87,0,0,1,4.39-1.46,1.2,1.2,0,0,1,.11,1.11,10.62,10.62,0,0,1-1.14,1.57l.41.12a11.77,11.77,0,0,1-.05,1.57c-.09.56-.28,1.1-.42,1.65-.13.2-.38.41-.37.6.09,1.16.25,2.31.38,3.46-.26.51-.53,1-.78,1.53-.65,1.27-1.37,1.14-2.56.44-1.44-.86-1.44-1.84-1.16-3.18a6.26,6.26,0,0,0-.13-1.71v0Z"/><path class="cls-9" d="M39.57,19.28l.38.33.21,2.28-1-.31c-.34.38-.66.74-1,1.11s-.6.74-1,1.24l1.48.23c-.47.47-.77.75-1.06,1.05a9.92,9.92,0,0,0-1.29,1.47,3.19,3.19,0,0,1-4.25,1.13c-.29-.19-.59-.89-.47-1.12.57-1.07-.18-1.4-.84-1.81-.3-1.32.12-1.92,1.43-2.08a1,1,0,0,0,.55-.24c.92-.87,2-1.65,2.26-3a3.12,3.12,0,0,1,2.67-1.35c.06.27.12.54.19.91l.69-.59Z"/><path class="cls-10" d="M37.68,27.54l3-2.32,2.4.18c.62,1.3-.83,1.84-1.38,3.09,2-1.11,3.44-2.68,6-1.89a8.76,8.76,0,0,1-1.28,2.58c-1.9,1.8-4,3.46-6,5.12a1.23,1.23,0,0,1-1-.34,3.7,3.7,0,0,1,0-2,19.62,19.62,0,0,1,1.72-2.74l-1.3.75a3.94,3.94,0,0,1,.31-1.28c.55-.8.16-1.16-.48-1.52C38.81,28.15,38.69,28.17,37.68,27.54Z"/><path class="cls-2" d="M19.72,33.16,19.57,33c1.32-.46,2.64-1.21,3.94,0l2.08-1.16-.17-.33-2.55.27.72-2.46.39-.14c.16.15.32.44.47.43.31,0,.66-.36.91-.29a6.24,6.24,0,0,1,2.25.91c.18.15-.14,1.37-.56,1.76-2.1,2-4.23,4-5.41,6.62-.22,0-.33,0-.37,0-.73-.65-2.37-.41-2.13-2,.15-1,.53-2,.78-3C20,33.46,19.79,33.3,19.72,33.16Z"/><path class="cls-10" d="M12.78,16.86a14.82,14.82,0,0,1-.84,2c-.6,1-1.18,1.07-2.23.31l1-1.46,1.35-1.22,0-.26c-.81.08-1.62.18-2.43.22-1.85.08-3.71.23-5.55.18-1.3,0-2.32-1.74-1.72-2.73a1.69,1.69,0,0,1,1.24-.67q3,.09,5.9.4a6.73,6.73,0,0,1,2.69.69c.39.23.38,1.17.53,1.79A7.14,7.14,0,0,1,12.78,16.86Z"/><path class="cls-8" d="M95.75,95.8c-.53.49-1.07,1-1.57,1.48a2.24,2.24,0,0,1-2.41.6l.86-.86c-1-.77-1.92-1.48-2.8-2.26-.2-.17-.17-.6-.25-.91l.53-.51.88.17c.89.12,1-.5,1.06-1.14l.35-.26c.22-.28.41-.59.65-.84a8.56,8.56,0,0,1,.89-.7c.12.36.25.71.34,1.08a2.85,2.85,0,0,1,0,.59l.22.05,1.22-2.5,2,2.66c.06.24.11.49.17.73l-.12.74-.78.65-.53.51-.36.35-.59-.32-.12.16.38.53Z"/><path class="cls-11" d="M79.75,74.82Q82.87,77.7,86,80.57l-.92.69,1,1.53-.22.21-1.94-1.63-1.32.52c-2-2.1-3.91-4.19-5.85-6.29-.48-.53-.9-1.11-1.35-1.67a6,6,0,0,1,1,0C77.53,74.2,78.37,75.53,79.75,74.82Z"/><path class="cls-4" d="M28.3,23.65c-1.08-.46-1.53-1.27-1-2.11,1.07-1.75,2.23-3.42,4.28-4.23A22,22,0,0,0,33.75,16c.59-.33,1.23-.87,1.88-.11s.09,1.35-.37,1.85a11.82,11.82,0,0,1-1.68,1.39C32,20.24,30.47,21.35,29,22.53A3.89,3.89,0,0,0,28.3,23.65Z"/><path class="cls-4" d="M82.56,81.89l1.32-.52L85.82,83l.22-.21-1-1.53.92-.69,3.24,3.07.41.34,2.86,2.71c-.18,1.08-1.05,1.23-1.86,1.22s-.51-.72-.5-1.21a.54.54,0,0,0-.32-.42.54.54,0,0,0-.47.25c-.18.53-.28,1.07-.42,1.61L87.73,87c0-.35.07-.71.1-1.06-.63,0-.87-1.33-1.75-.53Z"/><path class="cls-4" d="M33.33,12.86a10.48,10.48,0,0,1-1.47,2.43c-1.58,1.5-3.33,2.82-5,4.24a10,10,0,0,0-.95,1.1c-.17.21-.43.58-.54.54a1.33,1.33,0,0,1-.7-.58,2.69,2.69,0,0,1,.92-3.19c1.86-1.55,3.67-3.16,5.57-4.65.43-.33,1.17-.26,1.76-.37Z"/><path class="cls-2" d="M40.36,49.18c-.89-.75-.49-1.18.22-1.87.46-.44.45-1.38.62-2.11a4.69,4.69,0,0,0,.08-.84c1.5-.75,2.53-.2,2.55,1.45,0,2.11,0,4.21-.13,6.31,0,.71-.19,1.61-1.21,1.52a1.39,1.39,0,0,1-1-.82,23.24,23.24,0,0,1-.32-3c0-.36-.1-.71-.17-1.24Z"/><path class="cls-12" d="M21.72,23.43c-.57.05-1.27-.07-.89,1.14L19,22.72c-.7.73-.6,2.31-2,1.16-.89,1.3-1.71,2.49-2.51,3.67.07.26.18.65.29,1h-.85a1.82,1.82,0,0,1-.07-2.6c.34-.44.29-1.19.42-1.79l2.07-1.62.73-.51-1.54-.82,2.21-.91L18.53,22l2.16-1.18C21.88,21.33,21.6,22.46,21.72,23.43Z"/><path class="cls-2" d="M22.94,19.1l-.77,0-.36-.34c-.15-1.87.86-3.16,2.06-4.41s2.4-2.61,3.51-4a1.18,1.18,0,0,1,1.8-.23c.19.16.08,1-.17,1.36C27.6,13.33,26.1,15.13,24.63,17l-.33.37-1.15,1.29a7.14,7.14,0,0,1,.07-.93c.09-.48.24-.95.37-1.42l0-.12h-.07l0,.12C23.14,17.15,21.55,17.79,22.94,19.1Z"/><path class="cls-3" d="M79.75,74.82c-1.38.71-2.22-.62-3.35-.86a6,6,0,0,0-1,0l-.81.58c-.92-.72-.94-1.49,0-2.43-1.08.66-1.42.34-1.49-.66,0-.31-.4-.67-.71-.88-1.35-.92-2.74-1.77-4.09-2.68-.17-.11-.22-.39-.32-.58l.68-.33a1.1,1.1,0,0,1,1.77.29C71.82,69.06,74,69.81,75.84,71l.37.33.83.9c0,1.15.36,1.44,1.13,1Z"/><path class="cls-13" d="M40.9,41.32c-.41-.67-.82-1.35-1.28-2.09l-.85,0c-.12-.23-.41-.61-.35-.69.59-.68-.17-.56-.41-.75l1.36-.57c.46.25.91.52,1.37.75.18.09.53.06.56.16.53,1.57,2.24,1.46,3.25,2.34,0,.38.07.76.11,1.14l.25-.31,1.77.67c-.77.31-1.49.61-1.53,1.65,0,.29-.44.69-.76.8s-.7-.34-.76-.61C43.26,42.3,41.71,42.23,40.9,41.32Z"/><path class="cls-14" d="M21.72,23.43c-.12-1,.16-2.1-1-2.66l-.79-1.7c-1.86.22-2.88-.9-3.34-2.78-.09-.35-.59-.6-.9-.9L17,14,19,16.53c1.25.79,1.56,2.25,2.27,3.4s.57,1.28,1.67.54a3.94,3.94,0,0,1,1.88,2.73,1.38,1.38,0,0,0,.52.79.92.92,0,0,1,.12,1.55l-1.19-.84a9.11,9.11,0,0,0-.6-1.44c-.15-.26-.51-.39-.78-.58l-.47.75Z"/><path class="cls-8" d="M30.76,24.88c.66.41,1.41.74.84,1.81-.12.23.18.93.47,1.12a3.19,3.19,0,0,0,4.25-1.13,9.92,9.92,0,0,1,1.29-1.47c.29-.3.59-.58,1.06-1.05l-1.48-.23c.41-.5.7-.88,1-1.24s.63-.73,1-1.11l1,.31c.11.23.21.47.32.7-.27,2.4-2.27,3.56-3.71,5.11-.93,1.18-1.87,2.35-2.8,3.52L33.62,31c-.19-.71.44-1.66-.77-2.07a12.07,12.07,0,0,1-2.14-1.23l-.06-1.28Z"/><path class="cls-5" d="M80.27,89.08l.87-.4c.43-.21.85-.47,1.3-.64a9.77,9.77,0,0,1,1.24-.31c-.11.28-.22.56-.31.84-.43,1.26.72.83,1.22,1.1l-.24.24,2.92,2.92a1.68,1.68,0,0,1-1.2,2c-1.6-1.49-3.21-3-4.8-4.49A13.68,13.68,0,0,1,80.27,89.08Z"/><path class="cls-4" d="M34,31.22c.93-1.17,1.87-2.34,2.8-3.52l.91-.16c1,.63,1.13.61,1.92-.38.64.36,1,.72.48,1.52A3.94,3.94,0,0,0,39.77,30l-1.71,1.18c-.48-.74-1-.89-1.81-.37a8.19,8.19,0,0,1-2.14.64L34,31.33Z"/><path class="cls-4" d="M22.24,12.83c-.13-1.15-.29-2.3-.38-3.46,0-.19.24-.4.37-.6A3.81,3.81,0,0,0,23.11,8c.5-.85,1-1.73,2.14-1.07s.23,1.49,0,2a28.88,28.88,0,0,1-2.31,3.63C22.8,12.72,22.47,12.74,22.24,12.83Z"/><path class="cls-3" d="M60.56,59.9c-.75-1.1-1.49-2.21-2.26-3.29-.45-.63-1-1.18-1.42-1.83-.16-.25,0-.69,0-1.05.29.74.52,1.4,1.62,1.32a1.27,1.27,0,0,1,1.38,1.27A1.75,1.75,0,0,0,61.57,58c1,.11,1.23.65,1.09,1.52-1,.42-.69,1.13-.38,1.83a5.87,5.87,0,0,1-.84-.51C61.12,60.58,60.85,60.22,60.56,59.9Z"/><path class="cls-3" d="M15.37,32.29l2.43,1.76-3.14,3.61-.39-.07a18.43,18.43,0,0,1-.38-1.91A3.28,3.28,0,0,1,15.37,32.29Z"/><path class="cls-2" d="M30.71,27.69a12.07,12.07,0,0,0,2.14,1.23c1.21.41.58,1.36.77,2.07l-3-1.29s-.15.26-.3.47c-.51.67-1,.66-1.38-.11a7.17,7.17,0,0,1-.64-1.58,3.22,3.22,0,0,1,.18-1.11,4.52,4.52,0,0,1,.95.5,5.38,5.38,0,0,1,.77,1Z"/><path class="cls-14" d="M89,88.14c.13-.54.23-1.08.41-1.61a.54.54,0,0,1,.47-.25.54.54,0,0,1,.32.42c0,.49-.38,1.2.5,1.21s1.68-.14,1.86-1.22L95,89.47a13.41,13.41,0,0,1-1.39-.34c-.51-.19-1-.46-1.7-.79L92.13,90l-.93.54Z"/><path class="cls-15" d="M24.23,24.7l1.19.84c-.11.21-.37.5-.31.62.58,1.12-.16,1.74-.84,2.4-.17-.76-.86-.45-1.29-.67a28.65,28.65,0,0,1-2.55-1.63l2.31-1C23.61,26.11,23.8,25.07,24.23,24.7Z"/><path class="cls-2" d="M30.76,24.88l-.11,1.53c-.44-.16-1.17-.24-1.25-.52a2.7,2.7,0,0,1,0-1.94,6.34,6.34,0,0,1,1.81-1.84c1.21-.91,2.51-1.7,3.77-2.54-.29,1.34-1.34,2.12-2.26,3a1,1,0,0,1-.55.24C30.88,23,30.46,23.56,30.76,24.88Z"/><path class="cls-1" d="M49.39,51.34l.35-.81a5.59,5.59,0,0,1,.71.55c1,1.07,1.92,2.16,2.88,3.24.27.29.54.58.78.89.36.47.56,1.16,1.41.78.1,0,.32.17.48.26l-.73.83h0l-1-.08Z"/><path class="cls-10" d="M56.93,60.3l2.29.06-.15.24c.43.42.88.83,1.28,1.29s.6.84.92,1.26.8,1,1.21,1.5l-.51.5a31.68,31.68,0,0,1-2.64-2.07C58.45,62.23,57.72,61.23,56.93,60.3Z"/><path class="cls-16" d="M17,14l-1.35,1.39A11.58,11.58,0,0,1,13.61,14c-.16-.18.16-1.11.51-1.4s1-.25,1.53-.35l0,.07Z"/><path class="cls-5" d="M91.2,90.51l.93-.54-.19-1.63c.71.33,1.19.6,1.7.79a13.41,13.41,0,0,0,1.39.34l.72.32-1.22,2.5-.22-.05a2.85,2.85,0,0,0,0-.59c-.09-.37-.22-.72-.34-1.08a8.56,8.56,0,0,0-.89.7c-.24.25-.43.56-.65.84Z"/><path class="cls-5" d="M96.08,95.43l.36-.35.36.37a4.48,4.48,0,0,1-2.61,3.84c-1.77,1-2,1-3.49-.6.22-.06.51-.24.64-.16a2,2,0,0,0,3-.57c.4-.5.91-.91,1.3-1.41.13-.17.07-.5.09-.75h0Z"/><path class="cls-17" d="M62.28,61.38c-.31-.7-.66-1.41.38-1.83.32,1.78,1.63,2.64,3.1,3.41.42.23.61.9.9,1.37a7.73,7.73,0,0,1-1.08-.26c-.52-.2-1-.46-1.5-.7Z"/><path class="cls-10" d="M14.48,32.16l-1.83,1.08c-.12-.7-.22-1.4-.36-2.09s0-1.44.92-1.69l.31.85.66-.47.23.15-.51,1.59Z"/><path class="cls-13" d="M64.21,68c.34-.56.57-.7,1.05,0a4.48,4.48,0,0,0,3,1.86c.36.06.63.63,1.07,1.11l-1.3.45Z"/><path class="cls-18" d="M22.9,20.47c-1.1.74-1,.53-1.67-.54s-1-2.61-2.27-3.4c1.37-.53,1.68.72,2.3,1.4a3.46,3.46,0,0,1,.43.86c0,.21.07.41.1.62Z"/><path class="cls-4" d="M40.48,22.59c-.11-.23-.21-.47-.32-.7L40,19.61l1.49-.23C42.13,21.22,42,21.79,40.48,22.59Z"/><path class="cls-5" d="M77.42,86c1.33.35,3,.1,3.39,2l-.88.74Z"/><path class="cls-3" d="M64.08,63.37c.49.24,1,.5,1.5.7a7.73,7.73,0,0,0,1.08.26L67,65c0,.47,0,1,0,1.42l-.9.41c.44-1.58-.37-1.82-1.4-1.73Z"/><path class="cls-2" d="M34.11,31.41a8.19,8.19,0,0,0,2.14-.64c.83-.52,1.33-.37,1.81.37a20.76,20.76,0,0,0-2.47,1C34.58,32.77,34.27,32.3,34.11,31.41Z"/><path class="cls-10" d="M13.93,28.57h.85l1.42.14v.88l-.5,0,.13.42c0,.23,0,.47,0,.71l-.36.7c-1.15-.24-.72-1-.55-1.63l-1.21-.83Z"/><path class="cls-3" d="M13.75,28.94l1.21.83c-.17.61-.6,1.39.55,1.63l.18.16-.21.54-1,.06-.58-.58L14.41,30l-.23-.15-.66.47-.31-.85Z"/><path class="cls-16" d="M43,25.4l-2.4-.18c.59-.45,1-1.19,2-.88C43.38,24.56,43.36,24.87,43,25.4Z"/><path class="cls-13" d="M62,65.15l.51-.5h.35l.73,1.06.15.52-.35.35Z"/><path class="cls-17" d="M67.05,66.45c0-.47,0-1,0-1.42L68.64,67l-.68.33Z"/><path class="cls-5" d="M88.88,97c.45-.93,1,.07,1.54-.1l-.09,1.14Z"/><path class="cls-18" d="M23.59,16.26c-.13.47-.28.94-.37,1.42a7.14,7.14,0,0,0-.07.93l-.21.49C21.55,17.79,23.14,17.15,23.59,16.26Z"/><path class="cls-11" d="M78.17,73.25c-.77.43-1.08.14-1.13-1Z"/><path class="cls-4" d="M39.57,19.28l-1-.74h0l.23-.24C39.5,18.24,39.67,18.65,39.57,19.28Z"/><path class="cls-3" d="M55.93,52.18,55,51Z"/><path class="cls-4" d="M38.55,18.54l-.69.59c-.07-.37-.13-.64-.19-.91l.88,0v.36Z"/><path class="cls-10" d="M54.25,57l1,.08-.45.5Z"/><path class="cls-1" d="M96.8,95.45l-.36-.37.53-.51.17.17Z"/><path class="cls-5" d="M97.14,94.74,97,94.57l.78-.65Z"/><path class="cls-14" d="M21.79,19.41c0-.21-.07-.41-.1-.62a.15.15,0,0,1,.12-.07l.36.34Z"/><path class="cls-5" d="M97.87,93.18c-.06-.24-.11-.49-.17-.73C97.76,92.69,97.81,92.94,97.87,93.18Z"/><path class="cls-11" d="M76.21,71.34,75.84,71Z"/><path class="cls-11" d="M89.65,84l-.41-.34Z"/><path class="cls-10" d="M63.36,66.58l.35-.35c0,.24,0,.48,0,.72Z"/><path class="cls-18" d="M24.3,17.32l.33-.37Z"/><path class="cls-1" d="M48.37,50.56l.35.33Z"/><path class="cls-9" d="M38.54,18.55v-.36l.22.12Z"/><path class="cls-5" d="M85.26,86.89c1.94,1.67,3.88,3.35,5.83,5a4.28,4.28,0,0,0,1,.47C92,93,91.88,93.63,91,93.51l-.88-.17-.53.51-1-1.06,1.51-.28c-.57-.77-.7-1.89-2-1.82-.11,0-.32-.06-.32-.11-.1-1.37-1.49-1.37-2.18-2.11C85.18,88,84.69,87.56,85.26,86.89Z"/><path class="cls-5" d="M88.14,95.56l0-1,.38,0,.07,1Z"/><path class="cls-10" d="M63.56,65.71l-.73-1.06C63.85,64.47,63.76,65.05,63.56,65.71Z"/><path class="cls-19" d="M38,37.74c.24.19,1,.07.41.75-.06.08.23.46.35.69l-2.33.38-1-1.7Z"/><path class="cls-1" d="M23.59,29.28l-.72,2.46,2.55-.27.17.33L23.51,33c-1.3-1.19-2.62-.44-3.94,0,0-.33-.14-.81,0-1a36.85,36.85,0,0,1,2.9-2.54C22.76,29.27,23.22,29.33,23.59,29.28Z"/><path class="cls-19" d="M24.23,24.7c-.43.37-.62,1.41-1.49.52l-.36-1.79c.16-.25.32-.5.47-.75.27.19.63.32.78.58A9.11,9.11,0,0,1,24.23,24.7Z"/><path class="cls-1" d="M15.69,31.56l-.18-.16.36-.7Z"/><path class="cls-1" d="M15.83,30l-.13-.42.5,0Z"/><path class="cls-1" d="M96.08,95.43l-.33.37c-.13-.18-.26-.35-.38-.53l.12-.16Z"/><path class="cls-1" d="M90.11,93.34l.88.17Z"/><path class="cls-14" d="M87.73,87l-1.65-1.59c.88-.8,1.12.49,1.75.53C87.8,86.25,87.76,86.61,87.73,87Z"/><polygon class="cls-18" points="23.59 16.26 23.55 16.14 23.62 16.14 23.59 16.26"/></g></svg>