<svg xmlns="http://www.w3.org/2000/svg" viewBox="0 0 100 100"><defs><style>.cls-1{fill:#8fc2c3;}.cls-2{fill:#91c2c4;}.cls-3{fill:#51a0a2;}.cls-4{fill:#5ea7a9;}.cls-5{fill:#6caeb0;}.cls-6{fill:#85bbbd;}.cls-7{fill:#62a9ab;}.cls-8{fill:#73b2b4;}.cls-9{fill:#93c4c5;}.cls-10{fill:#8ec1c2;}.cls-11{fill:#b1d4d5;}.cls-12{fill:#a3cdce;}.cls-13{fill:#e9f3f3;}.cls-14{fill:#e4f0f1;}.cls-15{fill:#eff6f7;}.cls-16{fill:#66abad;}.cls-17{fill:#78b5b6;}.cls-18{fill:#a8cfd1;}.cls-19{fill:#8bbfc1;}.cls-20{fill:#4c9da0;}.cls-21{fill:#71b1b3;}.cls-22{fill:#88bdbf;}.cls-23{fill:#97c6c7;}</style></defs><g id="Ebene_5" data-name="Ebene 5"><path class="cls-1" d="M90.7,18.54c-.11.74-.21,1.48-.31,2.22,0,.22-.07.43-.1.64s0,.33-.07.5l-.3.29c-.07.15-.13.31-.2.47V23c-.1.63-.2,1.27-.29,1.9l-.12.33c-.35,1.22-.71,2.44-1,3.68a10.67,10.67,0,0,0-.2,1.38c-.09-.14-.23-.28-.24-.43C87.7,28.5,87.12,28.06,86,28c.06-.44.11-.89.17-1.33l.87-6.05c0-.31,0-.62.1-1.13a31.07,31.07,0,0,1-2.37,3.42A23.63,23.63,0,0,1,80.26,27a5.36,5.36,0,0,1-3.92,1.17c-.93-.17-1.8-.6-2.72-.83-1.54-.38-2.1-1.78-2.45-2.92s-.45-2.74-.89-4.08c-.17-.51-.36-.8-.94-.6a1.51,1.51,0,0,1-.47.05,1.38,1.38,0,0,0-1.5,1.12c-.08.26-.37.46-.56.68v-.75c-1.22-.41-1.25-.4-1.31.54l-1-.52c.29.55.48.93.7,1.28,0,.05.23,0,.37,0l-.09-.74c.65-.1.84.26.82.83-.09.27-.18.54-.29.8s-.22.53-.32.8c-.18.52-.3,1.06-.52,1.57s-.5.69-.64,1.08a3,3,0,0,1-1.86,1.7,3.68,3.68,0,0,0-.49.23,4.49,4.49,0,0,1-3.75.78,30.62,30.62,0,0,1-4.67-1.6,8.22,8.22,0,0,1-2.9-2.13,9.64,9.64,0,0,0-2.68-2.23,5.79,5.79,0,0,0-1.86-.81,6.33,6.33,0,0,0-3.82.56l.67-1-.33-.25.44-.65-1.19-.85c-.37.57-1.36.66-1.43,1.61a.52.52,0,0,1-.46.17A12.43,12.43,0,0,1,39,21.23c.55-.87,1.58-.83,2.38-1.22a6.55,6.55,0,0,1,1.74-.33l.81-.26.44-.05c-.13.22-.34.42-.37.65s.2.34.31.52c.62-.47,1.69-.37,1.84-1.44,1.53-.31,2.63.54,3.73,1.4.83.66,1.68,1.31,2.5,2a2.1,2.1,0,0,1,.65.75A4.41,4.41,0,0,0,56,25.7c.17.14.35.27.53.4l.63.36c.09.24.18.49.29.77l.49-.45A4,4,0,0,0,60.6,26a2.27,2.27,0,0,0,.33-.42c.2-.28.4-.56.59-.85.83-1.7,1.66-3.41,2.5-5.11a4,4,0,0,1,3.08-2.38,14.33,14.33,0,0,1,3.83-.36c2.26.28,3,1.28,3.29,3.34l.06.54.21.39c.22,1,.45,2,.68,2.95l.08.34a.25.25,0,0,0,.06.14c.28.25.56.48.87,0,1.27.24,2-.74,2.76-1.39a29.72,29.72,0,0,0,3.92-4.52c1-1.25,1.45-2.7,2.33-3.94a2.26,2.26,0,0,0,.34-.95c.26-1.64.49-3.28.73-4.92l.29-.31.93.46c-.91.59-.07.92,0,1.37a10.89,10.89,0,0,1,.07,1.47c-.77.45-.8.64-.21,2a4,4,0,0,0-.15,1.27,8.38,8.38,0,0,0,.18,2,1.89,1.89,0,0,1,0,1.61c-.17.31,0,.82.06,1.24l.3,0c.12-.33.41-.69.33-1a1.1,1.1,0,0,1,.33-1.12,1.86,1.86,0,0,0,.14-2.55,1.81,1.81,0,0,0,1-1.8c0-.63.3-.71.8-.52l.21,1.11c0,.53.07,1.06.1,1.59v2.53Z"/><path class="cls-1" d="M68.82,89.68l-2,3.21c-.21.34-.4.7-.6,1-.08-.11-.24-.27-.21-.33.3-.6-.52-1.37.27-1.91.07,0,0-.33,0-.63l-.33.35-1.09-.52c.51-.76,1.1-1.48,1.54-2.29a48.06,48.06,0,0,0,2.52-5.15,26.74,26.74,0,0,0,.93-4.21c.11-.56.16-1.14.31-1.69A28.82,28.82,0,0,0,71.31,73c.27-3,.83-6,.59-9.12-.16-2.12,0-4.26,0-6.39.73,0,1.51.06,1.9-.85a.63.63,0,0,1,1-.26.73.73,0,0,0,.48.09c.22-.5.41-1,.61-1.56l-.55-.24.23-.71c1.93,1.28,2.8,1.15,4.42-.57a21,21,0,0,0,1.88-2.88,2.26,2.26,0,0,0,.08-2.58,6.93,6.93,0,0,1-.57-1.86c-.13-.64.11-1,.82-1.12.38-.06.71-.41,1.06-.62l1.37.77a4.76,4.76,0,0,1,.44-.82c.43-.48.91-.93,1.36-1.4a2.32,2.32,0,0,0,.28-.49l-.75-.28V40.74c.77.56,1.55,1.09,1,2.27a2.79,2.79,0,0,0-.09,1c0,1.15-1.12,1.5-1.7,2.23a1.07,1.07,0,0,0-.21.92A5.51,5.51,0,0,1,85.06,52a28.86,28.86,0,0,1-1.41,2.55c-.22.41-.38.86-.6,1.27-.12.23-.28.53-.48.59-.75.24-.71.79-.59,1.34a4.81,4.81,0,0,1-.45,3.43c-.3.56-.47,1.18-.75,1.75s-.38,1.14-1.06,1.39a.92.92,0,0,0-.46.69A2.51,2.51,0,0,1,77.91,67a8,8,0,0,1-2.24.5,4.83,4.83,0,0,1-.85,0c-.19,1.21-.38,2.34-.54,3.48-.07.48,0,1-.09,1.46a36.62,36.62,0,0,1-.53,4.19,16.33,16.33,0,0,1-1,3.9,6.09,6.09,0,0,0-.73,2.69c0,1.19-.73,1.85-1.2,2.73S70,87.41,69.6,88.15c-.08.16-.2.3-.29.45-.45-.06-.54.09-.26.45l-.06.31Zm5.71-24.4a3.78,3.78,0,0,0,.61-.44c.38-.43.69-.94,1.11-1.33a8.45,8.45,0,0,0,2.48-4.74c.69.22,1.19-.27,1.64-.59a8.39,8.39,0,0,0,1.32-1.38l-.07-1.55L80.08,55l-.91,1.34-.32-1-.24-.08c-.19.36-.55.71-.54,1.06A7.8,7.8,0,0,0,78.49,58c-1.33.2-2.4-.44-3.58-1.24-.08.6-.18,1-.2,1.5,0,1.2,0,2.4,0,3.59s-.11,2.29-.16,3.44c-.54,0-1.29.82-1.47-.55-.29.65-.64,1.16-.29,1.77a2,2,0,0,0,1.67,1Z"/><path class="cls-2" d="M48.23,100a5.9,5.9,0,0,1-3.34-.68c-1.51-.72-3-1.42-4.58-2.06a18.83,18.83,0,0,1-2.44-.8A28.1,28.1,0,0,1,34.56,94c-2.08-1.73-3.62-4-5.47-5.9-.33-.35-.8-.57-1.16-.9s-.93-1-1.45-1.4a1,1,0,0,0-.81-.16,4,4,0,0,1-4.52-1.74c-.36-.56-.89-1-1.26-1.56a13.22,13.22,0,0,1-1.58-2.71,9.61,9.61,0,0,1-.31-2.7c0-.55-.05-.93-.74-1a1.12,1.12,0,0,1-.93-1.34c.09-.52.18-1,.29-1.6-.54-.49-.89-.35-1.07.36l-.31-.07a2.94,2.94,0,0,1-1.37-2.85h1.69A1.74,1.74,0,0,1,15.91,68c.16.68.26,1.38.48,2,.34,1,.61,2.08,2,2.17.21,0,.39.2.59.32l-1,1.36.16.19c.23-.14.54-.23.66-.44a3.4,3.4,0,0,0,.28-1l1.74,0L20,73c.21.61.42,1.3.7,2,.07.18.36.28.55.42l-1.36.69c.09-.5.18-1,.25-1.38a7.74,7.74,0,0,0-.81-.41c.09,0,.16,0,.18,0a.72.72,0,0,0,0-.21,1.94,1.94,0,0,0-.23.25l-1.86.15-.12-.42-.19.12.31.3.74,1.82c.43-.5.79-.46,1.12,0,.06.08.3,0,.45.06A4.8,4.8,0,0,1,20.29,78a4.14,4.14,0,0,0,.83,2.64c.75,1.11,1.57,2.15,3.22,2a7.88,7.88,0,0,1-.83-1.6c-.47-1.73-.9-3.47-1.24-5.23-.12-.62-.35-.67-.82-.51-.22-1.2.95-.3,1.28-.87L22,73.92l-.38-1.06c0-.58-.11-1.16-.12-1.73,0-2.19,0-4.37,0-6.56l-2.26-.31a10.44,10.44,0,0,1,1.22-.91c.69-.36.82.48,1.27.65s.95.52,1.41,0,0-.93-.19-1.47l-.72.65-.73-.44.78-1.06c1.51.27,1.69.21,1.69-.54l.85-.51-.08-.21a2,2,0,0,1-.66-.07,1.52,1.52,0,0,1-.67-.54A5.85,5.85,0,0,1,23,58.64v-.5a1.63,1.63,0,0,1,.34.19c1.1,1,2.28,1.79,3.89,1.25.21-.07.48,0,.7,0,.84-.19,1.67-.42,2.5-.63l.95-.62.48-.32h.31a1,1,0,0,0,1.29-.93c.5-.11.76.17.93.59-1,.67-1.93,1.36-2.93,2a2.32,2.32,0,0,1-1.06.22c-.57,0-1.14,0-1.71,0-.42,0-.88.22-1.24.1-.94-.3-1.11.21-1.33.93a4.54,4.54,0,0,1-2.19,3c-.75.35-.72.72-.41,1.27a5.8,5.8,0,0,1,.68,3.59,15.17,15.17,0,0,0,.31,5c.26,1.22.23,2.49.4,3.74.3,2.24,1.81,3.9,2.92,5.75a17.66,17.66,0,0,0,1.78,2.2c.94,1.09,1.85,2.21,2.83,3.25a36.57,36.57,0,0,0,5.9,4.7c-.16.46-.32.93.31,1.19.59-.13.42-.54.34-.92a9.26,9.26,0,0,1,.9.26l7.35,3-.54.38-.73.47.67.74C47.16,99,48.14,99,48.23,100ZM27.3,84.18c-.43-.5-.88-1.07-1.38-1.6a.61.61,0,0,0-.56,0c-.39.19-.76.45-1.11.66L25.62,85ZM15.14,71.64a1.29,1.29,0,0,0-.36-.3c-.06,0-.18.11-.27.17a2,2,0,0,0,.3.36S15,71.75,15.14,71.64Zm2.06,1.87.15.15.25-.32-.1-.1ZM15.81,71s.09.06.13,0S16,71,16,71s-.1-.06-.13,0S15.83,71,15.81,71Z"/><path class="cls-3" d="M33.51,57.06a1,1,0,0,1-1.29.93l-.12-.25-.19.26-.48.32c0-.4-.13-.75-.56-.6-.22.08-.34.49-.45.77-.05.12,0,.3.06.45-.83.21-1.66.44-2.5.63-.22,0-.49-.06-.7,0-1.61.54-2.79-.24-3.89-1.25a1.63,1.63,0,0,0-.34-.19c-.23,0-.55,0-.66-.13-1-1.1-2-2.19-1.9-3.82,0-.28-.08-.57-.07-.86a26,26,0,0,1,.17-4.76,10.59,10.59,0,0,1,1.76-3.64c.52-.76.08-1.08-.24-1.53s-.75-.28-1.13,0c-.07,0-.2,0-.3.07-.36-.58-.71-1.17-1.08-1.74-.14-.2-.33-.37-.49-.56a3.07,3.07,0,0,0-.49.68,2.85,2.85,0,0,0-.09.77c-.63-.21-1.17-.38-1.7-.57-.07,0-.09-.17-.14-.26.6-.47.92-1.26,1.9-1.33a1.08,1.08,0,0,0,.92-1.4l0-.27,0-.5c-.06-.2-.12-.4-.17-.6l-.06-1.11c.56-.38.68-.88.29-1.28l0-.33,0,0,.93,0,1.68.3-.83.61c.23.15.43.38.53.34.88-.34,1.07.27,1.28.86-.61.82.07,2.52,1.17,3l.45.8.37.46a1,1,0,0,0,1.45.08,2.33,2.33,0,0,1,1-.38,8.33,8.33,0,0,1,4.12.06,6.3,6.3,0,0,0,1.5.27,1.8,1.8,0,0,1,1.44,1.11,1.51,1.51,0,0,1-.84,1.78,10,10,0,0,0-1,.24c-1.19.61-2.77-.41-3.77.92a.13.13,0,0,1-.14,0c-.57-.42-.8.16-1.13.44l-.07-.2-1,.11c-1.41-.07-2.13.58-1.72,1.61L23.72,48l1.06.8-.06.32-.09.17h0l-.77-.3c-.19,1-.36,1.76-.52,2.57l-1,.53c1.37,1.22,2.12,2.46.76,4.08.51.14,1,.62,1.37-.18a14,14,0,0,0,.42-1.4l-.21,0,.12-.83.81.85.17.09,1.27.42c.06.27-.5.84.27.76,1.12-.12,1.28-.07,1.56,1,.64.07.63.07.85-.45A1.09,1.09,0,0,1,30,56,2.72,2.72,0,0,1,33,56.1c.06.07.06.18.11.27S33.37,56.83,33.51,57.06Zm-7.19-.35c.07-.08.35-.32.31-.38a8.63,8.63,0,0,0-.86-1.13c0-.05-.36.06-.44.18S25.85,56.73,26.32,56.71Zm1.7.8h.3c.07-.22.23-.47.18-.66s-.35-.22-.54-.32l-.18.12Zm2.22-1.22,0,.26a2.18,2.18,0,0,0,.43.05s.05-.17.08-.26Z"/><path class="cls-4" d="M16.69,41.82c0,.09.07.23.14.26.53.19,1.07.36,1.7.57a2.85,2.85,0,0,1,.09-.77,3.07,3.07,0,0,1,.49-.68c.16.19.35.36.49.56.37.57.72,1.16,1.08,1.74a9.93,9.93,0,0,0-1.37.92c-.73.67-1.36,1.44-2.08,2.11a9.45,9.45,0,0,0-2.45,3.69l-.1.33v.3l-.43.2c-.06.52-.1.89-.14,1.26a2.78,2.78,0,0,0-.08.85c.1.55.47,1.09-.14,1.58-.06,0,0,.41.12.5.42.35.37.78.33,1.25a1,1,0,0,0,.14.59c.32.54.69,1.06,1,1.59.66,1,.92,1.1,1.89.7l.88.54.45.56.21-.27.44,0,1.26.14v-.6L23,58.64a5.85,5.85,0,0,0,.35,1.17,1.52,1.52,0,0,0,.67.54,2,2,0,0,0,.66.07l.08.21-.85.51c0,.75-.18.81-1.69.54l-.78,1.06.73.44.72-.65c.23.54.65.94.19,1.47s-1,.19-1.41,0-.58-1-1.27-.65a10.44,10.44,0,0,0-1.22.91l-.78.23a2.87,2.87,0,0,0-.7-.57,1.61,1.61,0,0,0-.79,0,2.67,2.67,0,0,0-.59.23l-.45.08-.49-.8a2.64,2.64,0,0,1-.49-2.09c0-.12-.2-.37-.37-.45-.83-.43-1,.15-1.19.79-.88-.41-1-.79-.62-1.73a2.13,2.13,0,0,0,.6.12,1.62,1.62,0,0,0,.48-.26c-.16-.12-.33-.33-.49-.33-.49,0-1,.08-1.51.13V58.45l-1,.18h0l-.11-.16,0-.2c-.2-.57-.41-1.14-.62-1.71l0-.15C10,55.7,9.93,55,9.86,54.17c.14.16.3.25.31.37.08.59.5.61.94.59s.52-.36.42-.77c0-.09.11-.22.16-.34a.88.88,0,0,0-.34-1.16c-.46-.36-.87-.79-1.27-1.16l.9-1.42-1.2.12c0-.11,0-.22,0-.32s.07-.21.1-.31l0-.32,1.49.15c.28-.76.6-1.59.86-2.3l-.62-1,.43-.48c.08,0,.21.08.25,0,.39-.38.78-.76,1.14-1.16s.66-.82,1-1.23l.92-.84Zm-5.63,9.72c-.15-.07-.24-.15-.29-.13s-.13.14-.19.22.15.15.21.14S10.93,51.66,11.06,51.54Z"/><path class="cls-5" d="M48.23,100c-.09-.94-1.07-1-1.54-1.53L46,97.69l.73-.47.54-.38a.16.16,0,0,1,.11,0,14.72,14.72,0,0,1,2.65-.05,1.36,1.36,0,0,0,1.67-.7L52,96c.27,0,.7.48.71-.25l1.31.4v.28c.25-.17.47-.43.74-.49a3,3,0,0,1,.94.06c.76.34,1.41-.13,2.09-.33l.31,0,1.08.36V95l.34-.12c.29,0,.59,0,.88,0,.74.1,1.16-.33,1-1l.17-.13a1.51,1.51,0,0,0,1.35-.22c.87-.41.84-1.22,1.18-1.87l.75-.8,1.1.52.33-.35c0,.3.11.58,0,.63-.79.54,0,1.31-.27,1.91,0,.06.13.22.21.33-.35.47-.71.93-1.06,1.39-.11.12-.22.23-.34.34l-.74.67-1,.41a2.6,2.6,0,0,0-.71.26,6.46,6.46,0,0,1-3.55,1.58l-.5.27H56.63l-.46.17c-.91.2-1.81.42-2.73.58s-1.8.28-2.71.34S49.07,100,48.23,100Z"/><path class="cls-5" d="M90.36,13c-.5-.19-.76-.11-.8.52a1.81,1.81,0,0,1-1,1.8,1.86,1.86,0,0,1-.14,2.55A1.1,1.1,0,0,0,88.08,19c.08.27-.21.63-.33,1l-.3,0c0-.42-.23-.93-.06-1.24a1.89,1.89,0,0,0,0-1.61,8.38,8.38,0,0,1-.18-2,4,4,0,0,1,.15-1.27c-.59-1.34-.56-1.53.21-2a10.89,10.89,0,0,0-.07-1.47c-.08-.45-.92-.78,0-1.37l-.93-.46a.23.23,0,0,0-.14,0c0-.32.09-.64.13-1V7.3L86.47,6l-.54-.64-.15-.17A.94.94,0,0,0,85,4.1l-.38-.54a2.06,2.06,0,0,0-.42-.67c-.71-.54-1.48-1-2.17-1.56-.18-.15-.17-.57-.16-.86,0-.07.35-.14.55-.2l.81-.22L85,.18c0,.31.07.62.49.3l1,.75A1.83,1.83,0,0,0,88.63,3l1.23,1.74L89.64,5l.42.25h0l.11.16,0,.47c-.14.24-.6.51.07.66,0,.09,0,.19,0,.28l-.2.17.21.17c.08.58.17,1.15.26,1.73s0,1,0,1.43c0,.16,0,.31,0,.47s0,.32,0,.48l-.12.29-.71.08,0,.19.74.24Zm-2.19,3.26c-.14-.09-.23-.17-.31-.17s-.15.14-.14.2a.29.29,0,0,0,.21.16C88,16.45,88.06,16.35,88.17,16.25Z"/><path class="cls-6" d="M39,21.23a12.43,12.43,0,0,0,1.18.76.52.52,0,0,0,.46-.17c.07-.95,1.06-1,1.43-1.61l1.19.85-.44.65.33.25-.67,1-.31,0-.32.11-1.58.51-.3.21c-.14.22-.24.52-.44.65a3,3,0,0,0-1.14,3.14c.11,1,.37,2,.57,3-1,.66-1.84,0-2.62-.45l-.3.74-.42-.38a4.73,4.73,0,0,1-1.2-.17,8.19,8.19,0,0,0-4.27-.43,2.23,2.23,0,0,1-.66-.11l.56-.46-.44-.54,4.19.56.76.14.55.26.11-.44a6.41,6.41,0,0,1,.3-4.1A6.24,6.24,0,0,1,39,21.23Zm-7.29,8.26a1.06,1.06,0,0,0-.22-.15s-.09,0-.14.05.07.14.12.16S31.63,29.52,31.75,29.49Z"/><path class="cls-7" d="M86.07,39.46l-.75,1-.06.28-.55.3.12,1-.8.47-.47.16a11.81,11.81,0,0,1-1.31,1.05,12.82,12.82,0,0,1-1.53.76l-.21-.16-.12.26-.47.15c-.51-.31-1-.82-1.65-.47a13.7,13.7,0,0,1-1.16.77,1.22,1.22,0,0,1-1-.1,7.05,7.05,0,0,1-1.06-.82l-1.21.3a3,3,0,0,1,.71-2A.8.8,0,0,1,75,42c.8-.24,1.61-.46,2.41-.69l1-.69c.69-.09.73-.13.53-.95a.08.08,0,0,1,0-.09,1.66,1.66,0,0,0,.61-.12c.46-.33.71-.2.84.32,0,.12.09.25.13.37l.24-.12.37-.74c.36.24.67.62,1,.67.57.08,1.19-.33,1.73.22a.72.72,0,0,0,.44-.26C84.79,39.25,85.39,39.25,86.07,39.46Z"/><path class="cls-8" d="M86.07,39.46c-.68-.21-1.28-.21-1.69.5a.72.72,0,0,1-.44.26c-.54-.55-1.16-.14-1.73-.22-.37,0-.68-.43-1-.67l-.37.74-.24.12c0-.12-.1-.25-.13-.37-.13-.52-.38-.65-.84-.32a1.66,1.66,0,0,1-.61.12l.93-.71a13.58,13.58,0,0,0,2-1.54A15.17,15.17,0,0,0,85,31.56c.37-1.17.68-2.36,1-3.54,1.08,0,1.66.48,1.81,1.82,0,.15.15.29.24.43l-.12.94-.28.49h0a2.31,2.31,0,0,0-.84,2.43c-.51,1.08-1,2.1-1.53,3.25a1.11,1.11,0,0,0-.38.12,8,8,0,0,0-.73.57,6.9,6.9,0,0,0,.68.53c.41.27.83.52,1.25.77A.11.11,0,0,1,86.07,39.46Z"/><path class="cls-9" d="M83.23.05l-.81.22c-.2.06-.55.13-.55.2,0,.29,0,.71.16.86.69.56,1.46,1,2.17,1.56a2.06,2.06,0,0,1,.42.67,8,8,0,0,1-.79-.36,4.65,4.65,0,0,0-2.61-.51,1.92,1.92,0,0,0-1.57,1.9l.09.33c0,.44.11,1-.11,1.3-.42.57-1.3.32-1.65-.36-.14-.27-.32-.52-.48-.78l-.12-.33a2.57,2.57,0,0,1,.7-2.85A4.8,4.8,0,0,1,80.68.06,16.69,16.69,0,0,1,83.23.05Z"/><path class="cls-6" d="M20.49,35l-.93,0c.17-.48.3-1,.51-1.42a3.38,3.38,0,0,1,.58-.68c.08-.26.16-.52.25-.78a1.55,1.55,0,0,1,1.54-1c.33,0,.65-.42,1-.57.8-.34,1.63-.63,2.44-.94s1.43-.56,2.16-.83a3,3,0,0,1,.52-.09c.12.36.24.72.35,1.07,0,.07-.05.19-.1.2-.89.2-1.8.33-2.67.57a4.53,4.53,0,0,0-1.94.82,32.26,32.26,0,0,1-2.69,2C21,33.81,20.32,34.17,20.49,35Z"/><path class="cls-10" d="M86.14,39.37c-.42-.25-.84-.5-1.25-.77a6.9,6.9,0,0,1-.68-.53,8,8,0,0,1,.73-.57,1.11,1.11,0,0,1,.38-.12c.55-1.15,1-2.17,1.53-3.25a2.31,2.31,0,0,1,.84-2.43c0,.79,0,1.58,0,2.37v.79A9.6,9.6,0,0,1,86.14,39.37Z"/><path class="cls-8" d="M9.78,50.4l1.2-.12-.9,1.42c.4.37.81.8,1.27,1.16A.88.88,0,0,1,11.69,54c0,.12-.18.25-.16.34.1.41.14.75-.42.77s-.86,0-.94-.59c0-.12-.17-.21-.31-.37.07.81.12,1.53.18,2.24a6.23,6.23,0,0,1-.52-5.57A3.37,3.37,0,0,1,9.78,50.4Z"/><path class="cls-2" d="M13.42,67.5a3.63,3.63,0,0,1,.08-2.71A5.25,5.25,0,0,0,14,63.24c0-.2-.25-.44-.39-.66l1.22.79c.27.59.48,1.15-.47,1.34-.07,0-.1.3-.15.46l.18.13,1.53-1-.26,2.23-1.09-1-.89.66,1,.87,0-.21.94-.06,0,.3a1.82,1.82,0,0,0-1.25,2l-.65.21c-.11-.26-.23-.52-.35-.78A.63.63,0,0,0,13.42,67.5Z"/><path class="cls-8" d="M11.68,46.28l.62,1c-.26.71-.58,1.54-.86,2.3L10,49.45A7.88,7.88,0,0,1,11.68,46.28Z"/><path class="cls-9" d="M13.75,69.39l.65-.21a1.82,1.82,0,0,1,1.25-2c.09.27.18.54.26.81a1.74,1.74,0,0,0-.35,2.38H13.87Z"/><path class="cls-8" d="M14.8,63.37l-1.22-.79-.12-.45.35-.3-.44-.19h0c.15-.64.36-1.22,1.19-.79.17.08.4.33.37.45a2.64,2.64,0,0,0,.49,2.09Z"/><path class="cls-2" d="M16.69,41.82l-1.28.79c.51-.57,1-1.15,1.54-1.69a6.52,6.52,0,0,1,1-.87c.49-.35,1-.64,1.54-1a1.08,1.08,0,0,1-.92,1.4C17.61,40.56,17.29,41.35,16.69,41.82Z"/><path class="cls-8" d="M10.83,58.63l1-.18v1.12c.53,0,1-.13,1.51-.13.16,0,.33.21.49.33a1.62,1.62,0,0,1-.48.26,2.13,2.13,0,0,1-.6-.12c-.41.94-.26,1.32.62,1.73h0V62c-.28-.19-.64-.31-.81-.56C11.94,60.53,11.4,59.57,10.83,58.63Z"/><path class="cls-11" d="M46.19,19.1c-.15,1.07-1.22,1-1.84,1.44-.11-.18-.33-.36-.31-.52s.24-.43.37-.65Z"/><path class="cls-9" d="M15.55,73.27c.18-.71.53-.85,1.07-.36-.11.56-.2,1.08-.29,1.6l-.63-.66Z"/><path class="cls-12" d="M88.63,3a1.83,1.83,0,0,1-2.18-1.78l.27.05.3.35c.3.27.59.54.9.8S88.39,2.82,88.63,3Z"/><path class="cls-12" d="M28.91,29.81c-.11-.35-.23-.71-.35-1.07l1.09.05.44.54-.56.46Z"/><path class="cls-8" d="M14.49,43.45c-.33.41-.64.84-1,1.23s-.75.78-1.14,1.16c0,0-.17,0-.25,0A6.18,6.18,0,0,1,14.49,43.45Z"/><path class="cls-6" d="M19.56,35.33c.39.4.27.9-.29,1.28l-.2-.17v-.31l.15-.33a.36.36,0,0,0,0-.11Z"/><path class="cls-8" d="M10.07,56.56c.21.57.42,1.14.62,1.71C10.49,57.7,10.28,57.13,10.07,56.56Z"/><path class="cls-13" d="M90.67,15.69c0-.53-.07-1.06-.1-1.59C91.08,14.6,90.89,15.14,90.67,15.69Z"/><path class="cls-13" d="M85,4.1a.94.94,0,0,1,.78,1.13Z"/><path class="cls-13" d="M90.55,10.3c0-.48,0-1,0-1.43A.93.93,0,0,1,90.55,10.3Z"/><path class="cls-14" d="M57.89,26.78l-.49.45c-.11-.28-.2-.53-.29-.77Z"/><path class="cls-1" d="M90.41,12.05l-.74-.24,0-.19.71-.08Z"/><path class="cls-14" d="M19.07,36.44l.2.17.06,1.11C19.24,37.3,19.16,36.87,19.07,36.44Z"/><path class="cls-9" d="M13.42,67.5a.63.63,0,0,1,0,1.11C13.41,68.24,13.41,67.87,13.42,67.5Z"/><path class="cls-14" d="M63.11,96.75l1-.41C63.84,96.69,63.67,97.19,63.11,96.75Z"/><path class="cls-15" d="M35.26,29.31l-.11.44-.55-.26Z"/><path class="cls-13" d="M61.52,24.71c-.19.29-.39.57-.59.85C61.13,25.28,61.33,25,61.52,24.71Z"/><path class="cls-1" d="M90.28,6.52c-.67-.15-.21-.42-.07-.66Z"/><path class="cls-13" d="M85.93,5.4l.54.64Z"/><path class="cls-14" d="M87.67,34.86v0Z"/><path class="cls-13" d="M15.55,73.27l.15.58c-.15-.22-.3-.44-.46-.65Z"/><path class="cls-11" d="M44,19.42l-.81.26Z"/><path class="cls-14" d="M20.9,32.15c-.09.26-.17.52-.25.78C20.73,32.67,20.81,32.41,20.9,32.15Z"/><path class="cls-13" d="M21.57,25.81l.36-.77Z"/><path class="cls-12" d="M85.46.48C85,.8,85,.49,85,.18Z"/><path class="cls-4" d="M13.36,62v-.37l.44.19-.35.3Z"/><path class="cls-15" d="M69.05,89.05c-.28-.36-.19-.51.26-.45C69.22,88.75,69.13,88.9,69.05,89.05Z"/><path class="cls-13" d="M90.29,21.4c0-.21.07-.42.1-.64C90.36,21,90.32,21.19,90.29,21.4Z"/><path class="cls-15" d="M76.18,24.6c-.31.44-.59.21-.87,0Z"/><path class="cls-15" d="M21.61,17.59c.06-.21.12-.42.17-.63C21.73,17.17,21.67,17.38,21.61,17.59Z"/><path class="cls-14" d="M19.56,35.33l-.3.36.25-.69C19.53,35.11,19.55,35.22,19.56,35.33Z"/><path class="cls-10" d="M85.26,40.72l.06-.28.61.3v.15Z"/><path class="cls-1" d="M90.06,5.23,89.64,5l.22-.23Z"/><path class="cls-14" d="M56.48,26.1c-.18-.13-.36-.26-.53-.4C56.12,25.84,56.3,26,56.48,26.1Z"/><path class="cls-10" d="M87.69,31.7l.28-.49Z"/><path class="cls-6" d="M19.5,38.32l0,.5Z"/><path class="cls-13" d="M90.53,11.25c0-.16,0-.32,0-.48l.25.22Z"/><path class="cls-13" d="M89.92,22.19l.3-.29Z"/><path class="cls-14" d="M58.35,98.86l.5-.27Z"/><path class="cls-14" d="M56.17,99l.46-.17Z"/><path class="cls-13" d="M89.32,25.21l.12-.33Z"/><path class="cls-15" d="M79.74,4.92l-.09-.33Z"/><path class="cls-15" d="M77.38,4.75l.12.33Z"/><path class="cls-15" d="M87,1.63l-.3-.35Z"/><path class="cls-15" d="M75.25,24.42l-.08-.34Z"/><path class="cls-1" d="M90.33,7.14,90.12,7l.2-.17C90.32,6.92,90.32,7,90.33,7.14Z"/><path class="cls-13" d="M86.53,7.3v0Z"/><path class="cls-13" d="M86.41,8.56a.23.23,0,0,1,.14,0l-.29.31Z"/><path class="cls-14" d="M64.81,95.67c.12-.11.23-.22.34-.34C65,95.45,64.93,95.56,64.81,95.67Z"/><path class="cls-14" d="M19.22,35.8l-.15.33Z"/><path class="cls-13" d="M89.73,23v0Z"/><path class="cls-13" d="M21.07,26.11l.39-.24Z"/><path class="cls-15" d="M68.82,89.68l.17-.32Z"/><path class="cls-13" d="M90.7,18.54l0-.32Z"/><path class="cls-13" d="M74.49,21.13l-.21-.39Z"/><path class="cls-8" d="M9.92,49.77c0,.1-.07.2-.1.31C9.85,50,9.89,49.87,9.92,49.77Z"/><path class="cls-1" d="M90.17,5.39l-.11-.16Z"/><path class="cls-8" d="M10.72,58.47l.11.16Z"/><path class="cls-11" d="M66.81,21.6c-.16.21-.32.42-.49.62,0-.57-.17-.93-.82-.83h0c.06-.94.09-.95,1.31-.54Z"/><path class="cls-12" d="M65.5,21.39l.09.74c-.14,0-.34.07-.37,0-.22-.35-.41-.73-.7-1.28l1,.52Z"/><path class="cls-7" d="M74.92,50.57c.21,1.13.41,2.27.61,3.4-.06.23-.13.45-.22.71l.55.24c-.2.54-.39,1.06-.61,1.56a.73.73,0,0,1-.48-.09.63.63,0,0,0-1,.26c-.39.91-1.17.8-1.9.85a4.58,4.58,0,0,1-3.68-1.11A8.34,8.34,0,0,1,68,54.9c0-.4.34-.79.34-1.19,0-.68.25-.83.84-.64a10.39,10.39,0,0,0,1,1c.39.29.68.19.87-.33a12.66,12.66,0,0,0,.69-6.16c-.23-1.75-.41-3.52-.61-5.28l1.35,1.2,1.13,1c.07.27.14.54.22.8.17.51.61,1.13.46,1.5a4.87,4.87,0,0,0,0,3.11C74.3,50.19,74.69,50.36,74.92,50.57Z"/><path class="cls-7" d="M78.73,58.77,78.49,58a7.8,7.8,0,0,1-.42-1.68c0-.35.35-.7.54-1.06l.24.08.32,1L80.08,55l1.54.3.07,1.55a8.39,8.39,0,0,1-1.32,1.38C79.92,58.5,79.42,59,78.73,58.77Z"/><path class="cls-8" d="M83.23,44.34l.18-.45c.64.1,1.3.29,1.89-.3l-.48-.33a2.12,2.12,0,0,0,.33-.7c0-.18-.21-.38-.32-.57h0l-.12-1,.55-.3.67.17v1.23l.75.28a2.32,2.32,0,0,1-.28.49c-.45.47-.93.92-1.36,1.4a4.76,4.76,0,0,0-.44.82Z"/><path class="cls-16" d="M74.53,65.28l-.09,2.26a2,2,0,0,1-1.67-1c-.35-.61,0-1.12.29-1.77.18,1.37.93.58,1.47.55Z"/><path class="cls-4" d="M37.92,55.6l-.78.16-.22-.22-.09.42-.31.21-1-.84-.31.77c-.17.47-.86.75-.5,1.41l-.31.14c-.17-.42-.43-.7-.93-.59-.14-.23-.28-.46-.4-.69s0-.2-.11-.27A2.72,2.72,0,0,0,30,56a1.09,1.09,0,0,0-.25.38c-.22.52-.21.52-.85.45-.28-1-.44-1.08-1.56-1-.77.08-.21-.49-.27-.76l3.3-.63c.1.16.18.45.31.47.7.12,1.43.38,2.08-.2.15-.13.34-.35.5-.33,1.34.12,1.72-.78,2-1.81l.14-.16,3,.18h.31l.89.11.06.2a2,2,0,0,1-.67.22c-.56,0-.74.16-.64.74a2.7,2.7,0,0,1-.24,1C38.06,55.12,38,55.36,37.92,55.6Z"/><path class="cls-5" d="M27.3,84.18,25.62,85l-1.37-1.83c.35-.21.72-.47,1.11-.66a.61.61,0,0,1,.56,0C26.42,83.11,26.87,83.68,27.3,84.18Z"/><path class="cls-17" d="M19.91,76.11c0,.08-.07.17-.11.25s-.39,0-.45-.06c-.33-.47-.69-.51-1.12,0l-.74-1.82h0l1.9-.16.77.42C20.09,75.1,20,75.61,19.91,76.11Z"/><path class="cls-17" d="M21.45,75.24l-.18.18c-.19-.14-.48-.24-.55-.42-.28-.66-.49-1.35-.7-2l.82-.36.76.18L22,73.92l.75.45C22.4,74.94,21.23,74,21.45,75.24Z"/><path class="cls-4" d="M30.48,58.94c0-.15-.11-.33-.06-.45.11-.28.23-.69.45-.77.43-.15.58.2.56.6Z"/><path class="cls-11" d="M38.39,93.35l.65.27c.08.38.25.79-.34.92C38.07,94.28,38.23,93.81,38.39,93.35Z"/><path class="cls-9" d="M19,72.5l.14.15a3.43,3.43,0,0,1-.28,1c-.12.21-.43.3-.66.44L18,73.86Z"/><path class="cls-9" d="M15.14,71.64c-.15.11-.3.25-.33.23a2,2,0,0,1-.3-.36c.09-.06.21-.19.27-.17A1.29,1.29,0,0,1,15.14,71.64Z"/><path class="cls-9" d="M17.2,73.51l.3-.27.1.1-.25.32Z"/><path class="cls-9" d="M17.49,74.47l-.31-.3.19-.12.12.42Z"/><path class="cls-4" d="M31.91,58l.19-.26.12.25Z"/><path class="cls-9" d="M15.81,71s0-.12.06-.13.08,0,.13,0,0,.11-.06.13S15.85,71.05,15.81,71Z"/><path class="cls-17" d="M19.3,74.33l.28-.26a.72.72,0,0,1,0,.21S19.44,74.3,19.3,74.33Z"/><path class="cls-4" d="M39.09,32.87a2.23,2.23,0,0,1-2.2,1.76c-1,.09-1.5-.45-2.21-.89A5.23,5.23,0,0,0,32.39,33a8.79,8.79,0,0,0-8.24,3.67c-.61.84-.31,1.76-.08,2.66.07.25.17.49.25.74-1.1-.44-1.78-2.14-1.17-3-.21-.59-.4-1.2-1.28-.86-.1,0-.3-.19-.53-.34l.83-.61L20.49,35c-.17-.84.55-1.2,1-1.57a32.26,32.26,0,0,0,2.69-2,4.53,4.53,0,0,1,1.94-.82c.87-.24,1.78-.37,2.67-.57.05,0,.07-.13.1-.2l.62,0a2.23,2.23,0,0,0,.66.11,8.19,8.19,0,0,1,4.27.43,4.73,4.73,0,0,0,1.2.17l.42.38.3-.74c.78.49,1.6,1.11,2.62.45l0,.47c-.43.32-.62.67-.22,1.17A2.48,2.48,0,0,1,39.09,32.87Z"/><path class="cls-16" d="M24.63,49.28a2.46,2.46,0,0,1-.19.84c-.81,1.3-.31,2.45.33,3.6l-.12.83.21,0a14,14,0,0,1-.42,1.4c-.34.8-.86.32-1.37.18,1.36-1.62.61-2.86-.76-4.08l1-.53c.16-.81.33-1.62.52-2.57Z"/><path class="cls-16" d="M26.75,45.82c-.65,1-1.31,2-2,3L23.72,48,25,47.43C24.62,46.4,25.34,45.75,26.75,45.82Z"/><path class="cls-4" d="M26.32,56.71c-.47,0-1.18-1.07-1-1.33s.4-.23.44-.18a8.63,8.63,0,0,1,.86,1.13C26.67,56.39,26.39,56.63,26.32,56.71Z"/><path class="cls-4" d="M28,57.51l-.24-.85.18-.12c.19.1.5.17.54.32s-.11.44-.18.66Z"/><path class="cls-4" d="M30.24,56.29l.47.05c0,.09-.05.26-.08.26a2.18,2.18,0,0,1-.43-.05Z"/><path class="cls-4" d="M24.77,40.88l.36.46Z"/><path class="cls-16" d="M24.72,49.12l-.09.17Z"/><path class="cls-16" d="M25.58,54.57l.17.09Z"/><path class="cls-6" d="M14.67,50.85a34.38,34.38,0,0,0-.15,3.65,5.46,5.46,0,0,0,.7,2.19,5.42,5.42,0,0,0,2.18,2.68c-1,.4-1.23.3-1.89-.7-.35-.53-.72-1.05-1-1.59a1,1,0,0,1-.14-.59c0-.47.09-.9-.33-1.25-.11-.09-.18-.45-.12-.5.61-.49.24-1,.14-1.58a2.78,2.78,0,0,1,.08-.85c0-.37.08-.74.14-1.26Z"/><path class="cls-9" d="M15.91,64.19a.22.22,0,0,1,0,.14l-1.53,1-.18-.13c.05-.16.08-.45.15-.46.95-.19.74-.75.47-1.34l.62,0Z"/><path class="cls-9" d="M18.44,64.49l-2.08-.38a2.67,2.67,0,0,1,.59-.23,1.61,1.61,0,0,1,.79,0A2.87,2.87,0,0,1,18.44,64.49Z"/><path class="cls-6" d="M19.38,60.16l1.26-.46v.6Z"/><path class="cls-6" d="M18.28,59.91l.66.29-.21.27Z"/><path class="cls-8" d="M11.06,51.54c-.13.12-.19.22-.27.23s-.14-.09-.21-.14.11-.18.19-.22S10.91,51.47,11.06,51.54Z"/><path class="cls-6" d="M14.78,50.22c0,.11-.07.22-.1.33C14.71,50.44,14.75,50.33,14.78,50.22Z"/><path class="cls-9" d="M61.52,93.79c.83-.72,1.38-1.76,2.53-2.09-.34.65-.31,1.46-1.18,1.87A1.51,1.51,0,0,1,61.52,93.79Z"/><path class="cls-2" d="M47.4,96.79a1.87,1.87,0,0,1,.54-.25c1.26-.18,2.52-.34,3.78-.5a1.36,1.36,0,0,1-1.67.7A14.72,14.72,0,0,0,47.4,96.79Z"/><path class="cls-9" d="M59.48,94.92l1.87-1c.17.72-.25,1.15-1,1C60.07,94.93,59.77,94.94,59.48,94.92Z"/><path class="cls-9" d="M58.06,95.59,59.14,95V96Z"/><path class="cls-9" d="M55.66,96l2.09-.33C57.07,95.84,56.42,96.31,55.66,96Z"/><path class="cls-2" d="M52,96l.71-.25C52.66,96.45,52.23,96,52,96Z"/><path class="cls-1" d="M88.17,16.25c-.11.1-.18.2-.24.19a.29.29,0,0,1-.21-.16c0-.06.09-.2.14-.2S88,16.16,88.17,16.25Z"/><path class="cls-18" d="M31.75,29.49c-.12,0-.2.08-.24.06s-.08-.1-.12-.16.1-.06.14-.05A1.06,1.06,0,0,1,31.75,29.49Z"/><path class="cls-1" d="M40.31,23.61l-.3.21Z"/><path class="cls-1" d="M42.21,23l-.32.11Z"/><path class="cls-19" d="M74.92,50.57c-.23-.21-.62-.38-.67-.63a4.87,4.87,0,0,1,0-3.11c.15-.37-.29-1-.46-1.5-.08-.26-.15-.53-.22-.8l.3-.17,1.21-.3a7.05,7.05,0,0,0,1.06.82,1.22,1.22,0,0,0,1,.1,13.7,13.7,0,0,0,1.16-.77c.67-.35,1.14.16,1.65.47a7.19,7.19,0,0,1-5.43.33,6.6,6.6,0,0,0,.23,1.88A5.15,5.15,0,0,1,74.92,50.57Z"/><path class="cls-20" d="M73.89,44.36l-.3.17-1.13-1-1.35-1.2-.41-.78a.92.92,0,0,1,1.22-.38,2.69,2.69,0,0,0,.7.06c.08.68.47.72,1,.5a6.14,6.14,0,0,1,.74-.18h0l.35.07.3-.07.49-.13.75-.21.33-.12.77-.28,0,.56c-.8.23-1.61.45-2.41.69a.8.8,0,0,0-.37.28A3,3,0,0,0,73.89,44.36Z"/><path class="cls-1" d="M84.82,43.26l.48.33c-.59.59-1.25.4-1.89.3l.15-1.27.47-.16.48.48Z"/><path class="cls-8" d="M77.38,41.35l0-.56,1.59-1.08c.2.82.16.86-.53.95Z"/><path class="cls-8" d="M84.51,42.94,84,42.46l.8-.47h0Z"/><path class="cls-19" d="M80.72,44.43l-.33.1.12-.26Z"/><path class="cls-9" d="M15.63,66.56v.3l-.94.06,0,.21-1-.87.89-.66Z"/><path class="cls-10" d="M58,52.73l-.31,0c-.43-.42-.88-.71-1.45-.2-.09.08-.3,0-.45,0l-.94-1.92c-.48.21-1,.46-1.46.64a3,3,0,0,0-1.7,1.44L51,52.3a5.86,5.86,0,0,1-2.22-2.62c-.61-1.26-1-2.69-2.47-3.4-1.14-.56-1.33-.63-2.24.24a12.54,12.54,0,0,0-.88,1l-.43-1-.78.56.69,1.05-.26,0h-.93l.27.81-.82,1.38-1.1-1.68-.9.36,0,.78-.22,0c-.13-.23-.41-.5-.36-.68.2-.69-.39-.85-.69-1.21l.76-.8c.3,0,.76.07.87-.09a4.16,4.16,0,0,0,.39-1.19c.92-.86,1.46-2.08,2.77-2.56a4.65,4.65,0,0,1,4.13.14c.68.39,1.4.73,2.12,1.07,1.36.63,1.88,1.87,2.42,3.15A6.54,6.54,0,0,0,52.5,50a3,3,0,0,0,1.94.26,9.84,9.84,0,0,0,1.87-.52v.15l.16.63a1.83,1.83,0,0,0,.18.48C57.1,51.6,57.58,52.16,58,52.73Z"/><path class="cls-21" d="M59,42.76c-.37.7-.72,1.43-1.15,2.1-.09.14-.47.15-.7.12-.5-.07-1-.21-1.47-.32-.2,0-.45,0-.59-.14-1.1-.94-2.42-1.59-3.23-2.92a5.93,5.93,0,0,1-.39-5.73,4.43,4.43,0,0,1,2.73-2.09,7.81,7.81,0,0,1,3-.64c.72,0,1.29-.19,1.72.52a1.17,1.17,0,0,1,.16.5c0,.74-.82,1.31-1.49,1.53a18.6,18.6,0,0,0-2.92,1.4c-.17.09-.27.54-.22.78a24,24,0,0,0,1,3.39c.14.35.79.57,1.25.69a5,5,0,0,0,1.54.06C58.76,42,58.92,42.19,59,42.76Z"/><path class="cls-5" d="M76.26,38.47a7.58,7.58,0,0,1-5.07-2,.91.91,0,0,1-.22-.32c-.88-2.16-1.72-4.31-.65-6.69.49-1.07.5-1.17,1.23-1,.25.84.48,1.59.69,2.35a4.21,4.21,0,0,1,.19,1,3.63,3.63,0,0,0,1.26,2.55,2.24,2.24,0,0,0,2.31.36c.63-.18,1.24-.43,1.86-.64.73.51-.06,1-.1,1.5h1.41c-.32.36-.53.63-.76.87-.46.46-.56,1.31-1.51,1.25C76.71,37.69,76.48,38.2,76.26,38.47Z"/><path class="cls-2" d="M56.47,50.54l-.16-.63.31-.32a11.34,11.34,0,0,0,4.6-4.78c.28-.46.32-1.06.58-1.53.9-1.68,1.79-3.38,2.81-5a3.59,3.59,0,0,1,4-1.24c.28.11.49.41.74.62-.87,0-1.85-.44-2.64.68l.86,1.13-1.35.91c-.13-.48-.5,0-.69.34a11.71,11.71,0,0,0-.8,2.09c-.31,1.15-.54,2.32-.81,3.48a5.62,5.62,0,0,0-4.49,2.41,2.17,2.17,0,0,0-.49,1.11,2.37,2.37,0,0,0,.4,1.24c.09.14.49.18.73.14a6.56,6.56,0,0,0,1-.32L59.49,52c-.23-1.31-1.3-.2-1.86-.66l0-.61Zm7-7.47c-.89.35-1,.77-.78,2A3.14,3.14,0,0,0,63.45,43.07Z"/><path class="cls-21" d="M42.32,36.78c-.46-1-1-2-1.37-3a2.51,2.51,0,0,1,.87-2.93s.06,0,.07,0a6.16,6.16,0,0,1,3.08-3,21.62,21.62,0,0,1,3-1.28c.7-.21,1.31.6,1.17,1.31a3,3,0,0,0,.1,1,2.57,2.57,0,0,1-2,1.1,4.17,4.17,0,0,0-3.35,2.19,2.62,2.62,0,0,0,0,1.81A15.35,15.35,0,0,0,45,36.25c.06.11.25.17.38.25l-1.12,1L43,36.09Z"/><path class="cls-22" d="M42.32,36.78l.65-.69,1.27,1.45,1.12-1c1.4.8,2.89.38,4.29.22.45,1.49-.48,2.17-1.5,2.63A4.32,4.32,0,0,1,43,38,10,10,0,0,1,42.32,36.78Z"/><path class="cls-6" d="M37.63,48c.3.36.89.52.69,1.21,0,.18.23.45.36.68l.22,0,0-.78.9-.36,1.1,1.68-.29,1.28-.74-.61c-.44.47-.2.79.22,1.06v.33l-.15.66.26,0,.06-.51.48.11-.45,1.44-.73-.85-.22.18c.22.37-.2,1.17.78,1.06,0,0,.1.25.15.39L39,55c-.33-.28-.46-.21-.8.47l-.31.18c.07-.24.14-.48.2-.73a2.7,2.7,0,0,0,.24-1c-.1-.58.08-.76.64-.74a2,2,0,0,0,.67-.22l-.06-.2-.89-.11.61-.33-.45-.71c-.12-.19-.24-.38-.37-.57l-.28.11.18,1.5-3-.18L35.7,52h1.7l-.88-1.42A4.38,4.38,0,0,1,37.63,48Z"/><path class="cls-6" d="M76.26,38.47c.22-.27.45-.78.64-.77.95.06,1-.79,1.51-1.25.23-.24.44-.51.76-.87H77.76c0-.51.83-1,.1-1.5L81,31.76l.18.13C81,33,81,34.16,80.74,35.27a2.29,2.29,0,0,1-.87,1.15,28.14,28.14,0,0,1-2.51,1.82A3.17,3.17,0,0,1,76.26,38.47Z"/><path class="cls-7" d="M67.56,39.49l-.86-1.13c.79-1.12,1.77-.65,2.64-.68l1.73,1.1c-.22.88-.07,1,.79.91a8.5,8.5,0,0,1,.62.85,2.35,2.35,0,0,1,.14.66,2.69,2.69,0,0,1-.7-.06.92.92,0,0,0-1.22.38c-.12-.13-.3-.23-.37-.39A2.5,2.5,0,0,0,67.56,39.49Z"/><path class="cls-6" d="M35.22,52.58c-.29,1-.67,1.93-2,1.81-.16,0-.35.2-.5.33-.65.58-1.38.32-2.08.2-.13,0-.21-.31-.31-.47l3.23-1.19C34.11,53.05,34.67,52.81,35.22,52.58Z"/><path class="cls-6" d="M72.62,41.2a2.35,2.35,0,0,0-.14-.66,8.5,8.5,0,0,0-.62-.85c-.86.11-1,0-.79-.91a5.69,5.69,0,0,1,3.29,2.74,6.14,6.14,0,0,0-.74.18C73.09,41.92,72.7,41.88,72.62,41.2Z"/><path class="cls-10" d="M36.52,50.55,37.4,52H35.7C36,51.5,36.25,51,36.52,50.55Z"/><path class="cls-6" d="M39.09,32.87a2.48,2.48,0,0,0-.28-.64c-.4-.5-.21-.85.22-1.17.2.46.41.92.63,1.43Z"/><path class="cls-11" d="M39.65,45.93a4.16,4.16,0,0,1-.39,1.19c-.11.16-.57.07-.87.09Z"/><path class="cls-6" d="M75.5,41.4l-.49.13Z"/><path class="cls-6" d="M74.71,41.6l-.35-.07Z"/><path class="cls-12" d="M56.62,49.59l-.31.32v-.15Z"/><path class="cls-7" d="M76.58,41.07l-.33.12Z"/><path class="cls-9" d="M44.05,68.38c.42.9.69,1.45.93,2,.42,1-.25,1.67-.84,2.22a8.82,8.82,0,0,1-2,1.07,7.61,7.61,0,0,1-2,1A24,24,0,0,1,36,74.8a10.15,10.15,0,0,1-3.06-.55c-1.3-.49-2.72-.92-3.48-2.24a3.41,3.41,0,0,1-.3-1.65,2.93,2.93,0,0,0,2.42.6,3.23,3.23,0,0,1,1.68.48c1.24.72,2.59.57,3.91.63a17.74,17.74,0,0,0,2.71-.25,4.21,4.21,0,0,0,2.74-1.72C43,69.55,43.5,69,44.05,68.38Z"/><path class="cls-2" d="M68,60.63c.42.4.85.65,1,1a1.37,1.37,0,0,1,0,1.12c-1,1.57-1.8,3.26-3.59,4.17-1.06.54-2,1.29-3,1.9a5.69,5.69,0,0,1-5.55.46,3.47,3.47,0,0,1-2-1.38,3.36,3.36,0,0,1-.21-1.42c0-.08.6-.26.62-.22.42.75,1,.19,1.46.19a2.26,2.26,0,0,1,1,.05,4.29,4.29,0,0,0,4.67-.66,43.19,43.19,0,0,0,4.71-4.56A7.84,7.84,0,0,1,68,60.63Z"/><path class="cls-1" d="M49.81,85.43a7.2,7.2,0,0,0,1.36.2c2.13-.19,3.81-1.37,5.49-2.56.83-.6,1.64-1.21,2.47-1.8a1.14,1.14,0,0,1,.47-.13l.26,1.49a17.3,17.3,0,0,1-1.42,2.07c-1.41,1.58-2.88,3.08-5.27,3.07-1.25,0-2.5.25-3.75.32a1.81,1.81,0,0,1-1-.31,4.31,4.31,0,0,1-1.1-.88,2,2,0,0,1-.47-1.1c0-.4.27-.59.78-.41a6.47,6.47,0,0,0,1.81.3C49.61,85.7,49.8,85.43,49.81,85.43Z"/><path class="cls-10" d="M40.31,55c-.05-.14-.12-.4-.15-.39-1,.11-.56-.69-.78-1.06l.22-.18.73.85.45-1.44a4.92,4.92,0,0,1,3.8,1.47,4.33,4.33,0,0,0,1.35.59,20.64,20.64,0,0,1,2.06.67,1.58,1.58,0,0,0,1.95-.09c0,.46.52.88.07,1.37,0,0,.11.26.2.38a2.8,2.8,0,0,1,.38.47c.28.63.51.71,1,.25s1-1,1.56-1.52,1.23-1,.49-1.85c0,0,0-.14,0-.27l.71.28.67.19a5.11,5.11,0,0,1-2.33,3.19c-1.86,1.13-3.73.86-5.6.23a37.21,37.21,0,0,1-3.69-1.58,2.93,2.93,0,0,1-.8-.61A4.08,4.08,0,0,0,40.31,55Zm8.82,2.28s-.06.1-.05.13.09,0,.13.06.06-.1,0-.13S49.18,57.28,49.13,57.26Z"/><path class="cls-17" d="M69.17,53.07c-.59-.19-.85,0-.84.64,0,.4-.33.79-.34,1.19a8.34,8.34,0,0,0,.2,1.49,14.13,14.13,0,0,1-2.25-2.47,19,19,0,0,1-1.34-3.73c-.44-1.46-.67-1.56-1.91-.71a.78.78,0,0,1-.2.11c.24-.78.49-1.56.75-2.36l.68.07.67-.73a8.4,8.4,0,0,1,3.25,1.74.75.75,0,0,1,.29.35C68.49,50.13,68.83,51.6,69.17,53.07Z"/><path class="cls-7" d="M64.59,46.57l-.67.73-.68-.07c-.26.8-.51,1.58-.75,2.36l-1,.93L61,50.13l.21.6c0,.05-.09.1-.13.16a6.56,6.56,0,0,1-1,.32c-.24,0-.64,0-.73-.14a2.37,2.37,0,0,1-.4-1.24,2.17,2.17,0,0,1,.49-1.11,5.62,5.62,0,0,1,4.49-2.41Z"/><path class="cls-7" d="M55.07,54.7l-.67-.19c0-.25,0-.5,0-.91-1.17.5-2.43.29-3.31,1.28-.21.24-.64.27-1,.4.33-.44.67-.86,1-1.32s.45-.8.68-1.2a3,3,0,0,1,1.7-1.44c.5-.18,1-.43,1.46-.64l.94,1.92v1l-.28.19c-.73,0-.48.55-.49.94Z"/><path class="cls-12" d="M56.47,50.54l1.2.22,0,.61c.56.46,1.63-.65,1.86.66l-1.45.7c-.46-.57-.94-1.13-1.39-1.71A1.83,1.83,0,0,1,56.47,50.54Z"/><path class="cls-12" d="M55.84,53.56v-1c.15,0,.36,0,.45,0,.57-.51,1-.22,1.45.2Z"/><path class="cls-23" d="M34.75,57.51c-.36-.66.33-.94.5-1.41l1.15.19Z"/><path class="cls-6" d="M36.4,56.29l-1.15-.19c.1-.26.21-.51.31-.77l1,.84Z"/><path class="cls-10" d="M38.23,55.42c.34-.68.47-.75.8-.47Z"/><path class="cls-10" d="M55.07,54.69c0-.39-.24-.93.49-.94Z"/><path class="cls-17" d="M61.23,50.73l-.21-.6.47.39Z"/><path class="cls-6" d="M36.83,56l.09-.42.22.22Z"/><path class="cls-7" d="M84.51,42.94l.32-.95c.11.19.33.39.32.57a2.12,2.12,0,0,1-.33.7Z"/><path class="cls-10" d="M38.41,52.6l-.18-1.5.28-.11c.13.19.25.38.37.57l.45.71-.61.33Z"/><path class="cls-18" d="M43.2,47.57l-.52.6L42,47.12l.78-.56Z"/><path class="cls-18" d="M42.42,48.2l-.66.81-.27-.81Z"/><path class="cls-11" d="M63.45,43.07a3.14,3.14,0,0,1-.78,2C62.41,43.84,62.56,43.42,63.45,43.07Z"/><path class="cls-10" d="M40.65,51.67l-.52.45c-.42-.27-.66-.59-.22-1.06Z"/><path class="cls-10" d="M40.13,52.45c0,.07.11.13.17.2l-.06.51-.26,0Z"/><path class="cls-21" d="M49.94,55.4l.13-.12c.33-.13.76-.16,1-.4.88-1,2.14-.78,3.31-1.28,0,.41,0,.66,0,.91l-.71-.28c0,.13-.07.24,0,.27.74.87.11,1.33-.49,1.85s-1,1-1.56,1.52-.73.38-1-.25a2.8,2.8,0,0,0-.38-.47c-.09-.12-.24-.34-.2-.38C50.46,56.28,49.94,55.86,49.94,55.4Z"/><path class="cls-21" d="M49.13,57.26s.12,0,.13.06,0,.09,0,.13-.11,0-.13-.06S49.11,57.3,49.13,57.26Z"/></g></svg>