<svg xmlns="http://www.w3.org/2000/svg" viewBox="0 0 100 100"><defs><style>.cls-1{fill:#69acae;}.cls-2{fill:#469a9d;}.cls-3{fill:#4f9ea1;}.cls-4{fill:#8fc1c3;}.cls-5{fill:#91c2c4;}.cls-6{fill:#8ec0c2;}.cls-7{fill:#5fa7aa;}.cls-8{fill:#98c7c8;}.cls-9{fill:#76b3b5;}.cls-10{fill:#87bdbe;}.cls-11{fill:#92c3c5;}.cls-12{fill:#7fb9ba;}.cls-13{fill:#5ba5a7;}.cls-14{fill:#8abfc0;}.cls-15{fill:#84bbbd;}.cls-16{fill:#8cbfc1;}.cls-17{fill:#52a0a3;}.cls-18{fill:#54a1a4;}.cls-19{fill:#65abad;}</style></defs><g id="Ebene_4" data-name="Ebene 4"><path class="cls-1" d="M78.71,18.07l-.24.25-.94.35a44.24,44.24,0,0,1-5,3.8,43.14,43.14,0,0,1-5.68,2.21c-2.55,1-5.07,2.09-7.63,3.09-3.42,1.32-6.86,2.6-10.29,3.89-.28-.15-.63-.48-.85-.41-1,.32-2,.9-3,1.11-2.4.49-4.84.82-7.26,1.22a1.17,1.17,0,0,1-.34-.22c-1.31-1.6-2.22-1.65-3.6-.22-.75.78-1.51,1.55-2.32,2.27s-1.32.11-1.5-.58-.18-1.72.9-2c.82-.21.77-.64.43-1.21l.87-.28,5.23-1.56.85,0h.29l2.17-.24c.26.06.54.23.76.18,1.56-.36,3.1-.8,4.66-1.14s3.37-.13,4.5-1c1.52-1.13,3.68-.79,4.84-2.44a.78.78,0,0,1,.63-.16c1.63.26,2.5-.77,3.33-1.89,2.87-1.35,5.83-2.54,8.6-4.08C72.65,16.51,77,13.59,79.73,9c.63-1.06,1.24-2.13,1.85-3.19,1.73,0,2.15-.39,1.76-1.82-.14-.5-.89-.83-1.36-1.24l-.15-.84h1a2.83,2.83,0,0,0,1,.36,4.71,4.71,0,0,0,1.22-.36l.84.56a.46.46,0,0,1,0,.26c0,.27,0,.55-.07.83l-1.2-.37C84.08,5,84.12,5,85.12,6.43a2,2,0,0,1,.11,1.51c-.36,1.23-.85,2.43-1.28,3.65l.49.55-.3.53c-.14.31-.29.61-.44.92l-.87.78-.26.31a.46.46,0,0,1,0,.26C79.65,14.91,78.6,15.77,78.71,18.07Z"/><path class="cls-1" d="M44.16,82.54a26.39,26.39,0,0,1-6.22-.75,35.06,35.06,0,0,0-5.57-.74,8.36,8.36,0,0,1-1.66-.51c-1.95-.75-3.92-1.45-5.83-2.29-1-.44-1.85-1.21-2.83-1.69-2.92-1.43-4.08-4.12-5.15-6.91-.2-.51-.39-1-.58-1.54.35-.45.7-.9,1.29-1.68l1,1.85a7,7,0,0,0,.2-2.13,21.92,21.92,0,0,0-.28-2.81c-.51-2.51-.87-2.87-2.78-2.88,0,.93,0,1.87,0,2.79,0,.33-.33.63-.51.94a8,8,0,0,1-.51-1.12c-.74-2.65-.32-5.35-.27-8,0-.24.33-.46.38-.72.27-1.42,1.12-2.82.24-4.31l1-3.63.48-.64c.05-.24.11-.49.16-.73.25-.19.6-.33.72-.58A15.6,15.6,0,0,1,20,40.74c2.52-2.78,5.4-5.23,8.12-7.83a10.1,10.1,0,0,0,1-1.26l.84-.21c0,1,0,1.93-1.48,1.91-.86,0-.72.63-.53,1.3a27.13,27.13,0,0,1,.52,2.94l.74-.06A43.39,43.39,0,0,0,25.52,41a33.06,33.06,0,0,0-3.65,5.09,26.75,26.75,0,0,0-2.63,8.52A23,23,0,0,0,20.3,66.85a16.43,16.43,0,0,0,.83,2.63,8.93,8.93,0,0,0,4.26,4.19,10.87,10.87,0,0,1,2.91,1.78c.77.74,1.16.77,1.66-.1l1.64.71v-1l-.24-3.41c.35.57.66,1.17,1.06,1.71,1.06,1.45,1.15,1.76.61,3.16-.1.26-.39.67-.53.64-1.24-.2-1.51.67-1.84,1.55,1.42,1.15,2.69,2.48,4.85,1.94.67-.17,1.5.28,2.26.45.58-.05,1.17-.14,1.75-.16a4.4,4.4,0,0,1,1.74,0A29.56,29.56,0,0,1,44.16,82.54Z"/><path class="cls-2" d="M44.16,82.54A29.56,29.56,0,0,0,41.26,81a4.4,4.4,0,0,0-1.74,0c-.58,0-1.17.11-1.75.16l-.55-2.51L35.8,80.39c-.74-1.14.28-3.09-2-3,.66-2.32,3.23-.77,3.93-2.26l1.49.14-.69-1.12c-.09-.35-.18-.69-.26-1l-.18-.35a.41.41,0,0,1-.09-.23l-.2-.33a.39.39,0,0,1-.06-.26l-.14-.28-.19-.55c.65-1-.13-1.3-.75-1.7l-.6-1.34-.17-.3L35.78,67c.86-1.21.79-1.43-.54-1.67h0L35,64.75l-.12-.54,2.57-.86L38.6,65l-.55.89.35.22.75-.84L40.81,67l-.72.74,1.29.66,1.06.84.39,1c-1,1.33-.71,2.43.56,3.4a2.34,2.34,0,0,1,.77,1c.31,1,1,1,1.82.8l.13.54.54.56a45.23,45.23,0,0,0,3.74,4.9,68.81,68.81,0,0,0,5.44,4.6c-.14.14-.25.34-.42.4-.48.19-1,.33-1.5.48l.06.5a9.62,9.62,0,0,0,1.19.53c.75.22,1.54.31,2.27.59.34.14.86.68.8.85a2.63,2.63,0,0,1-.93,1c-.45.33-1,.57-1.45.86l-2.28-.79-.78-.66-.33-.2-.26-.22L51.91,89Z"/><path class="cls-3" d="M29.23,37.53l-.74.06A27.13,27.13,0,0,0,28,34.65c-.19-.67-.33-1.32.53-1.3,1.47,0,1.48-.89,1.48-1.91l.83,0,.55.21c.34.57.39,1-.43,1.21-1.08.27-1.12,1.17-.9,2s.69,1.3,1.5.58,1.57-1.49,2.32-2.27c1.38-1.43,2.29-1.38,3.6.22a1.17,1.17,0,0,0,.34.22c.05.92.11,1.84.16,2.77l.07,1.4-1.08.18v.44l1,.22c0,.37.08.74.11,1.11H36l1,3.63,1-1.95c0,.34.07.68.1,1s0,.46,0,.69L38,45c-1.06.21-2.45,0-2.38,1.86,1.43-.38,2,.38,2.16,1.57.14.8.3,1.6.46,2.4l0,.58v2c-.25-.08-.48-.24-.64-.19-1.37.42-2.6.46-3.59-.86-.21-.28-.82-.26-1.24-.38l-.09-1.09a5.21,5.21,0,0,1,.06-1.68,1.91,1.91,0,0,0-.91-2.53,1.12,1.12,0,0,1-.49-.55c-.31-1.47-.58-2.95-.86-4.43,1.61-.8.88-2.58,1.54-3.78,0,0-.31-.27-.48-.42v-.51l.18-.41-.43.26-.54.13-.85.25Z"/><path class="cls-1" d="M55.85,91.18c.48-.29,1-.53,1.45-.86a2.63,2.63,0,0,0,.93-1c.06-.17-.46-.71-.8-.85-.73-.28-1.52-.37-2.27-.59A9.62,9.62,0,0,1,54,87.31l-.06-.5c.51-.15,1-.29,1.5-.48.17-.06.28-.26.42-.4l5.31,3.28-.73,1.9,2.38-1,.28.29,1.43,2c1.82.23,3.63.28,4.93,1.7h3.65l.84.25,1.25.95.47-.83,1.08,0a9.12,9.12,0,0,0,1.44.63c.37.09.83-.13,1.17,0a3.72,3.72,0,0,0,3.51-.76l2.21.31a3.38,3.38,0,0,0-.15,1.2c.42,1.64-.28,2.85-2,2.92-2.92.12-5.85.06-8.78.08l-.76-.07c-1-.51-2.06-1.09-3.14-1.5-.68-.26-1.64,0-2.16-.44a1.87,1.87,0,0,0-2-.23l-.45-.21a11.3,11.3,0,0,0-1.57-.92c-1-.39-2.1-.58-3.05-1-1.57-.78-3.07-1.71-4.58-2.59A3.07,3.07,0,0,1,55.85,91.18Z"/><path class="cls-1" d="M55.29,42.92l6.4-.44c1,.44,1.93,1.19,2.91,1.22s1.45.21,1.81,1l-2,.77c-.8-.37-1.1-.19-1.36,1.3-1,.36-2,.75-3,1.07a8.71,8.71,0,0,1-1.46.22c-.39.07-1,.34-1.14.18-.68-.61-1.16,0-1.7.13L55,48.19,54.18,48l-1.73-.47c.11-.39.22-.79.31-1.14L50.94,45.1c-.67.37-1.54.7-2,.4s-.65-1.23-.88-1.9a3.14,3.14,0,0,1,0-1,1.84,1.84,0,0,1,1.41-1.78c.34.61.49,1.35.86,1.48a14.8,14.8,0,0,0,2.77.41l1.36.26.58.48Z"/><path class="cls-4" d="M53.09,42.74a14.8,14.8,0,0,1-2.77-.41c-.37-.13-.52-.87-.86-1.48a1.84,1.84,0,0,0-1.41,1.78,3.14,3.14,0,0,0,0,1c.23.67.38,1.57.88,1.9s1.32,0,2-.4l1.82,1.33c-.09.35-.2.75-.31,1.14l-2.56-1.19A8.09,8.09,0,0,0,48.71,48c-.64,1.58-2.4,2-3.33,3.21a.81.81,0,0,1-.71,0,1.08,1.08,0,0,1-.11-.87C45.34,48.7,46.11,47,47,45.46c.53-.9.69-1.53-.22-2.25-.61-.47-1.05-1.18-1.66-1.64a1.3,1.3,0,0,1-.2-2c.4-.47,1.46-1,1.83-.79C49,40,51,41.39,53.09,42.74Z"/><path class="cls-5" d="M80.62,82.57a8.87,8.87,0,0,1-8-1.86,23.66,23.66,0,0,0-2.71-1.81c.62-2.09,1.61-2.62,3.4-1.68a10.6,10.6,0,0,0,6.38,1.26c.19,0,.41.16.61.25l-.62,2Z"/><path class="cls-6" d="M59.49,23.12c-.83,1.12-1.7,2.15-3.33,1.89a.78.78,0,0,0-.63.16c-1.16,1.65-3.32,1.31-4.84,2.44-1.13.83-3,.63-4.5,1s-3.1.78-4.66,1.14c-.22.05-.5-.12-.76-.18a14.93,14.93,0,0,1,7-3c2.38-.27,4.66-1.37,7-2.08C56.33,24,57.91,23.56,59.49,23.12Z"/><path class="cls-5" d="M29.14,31.65a10.1,10.1,0,0,1-1,1.26c-2.72,2.6-5.6,5.05-8.12,7.83a15.6,15.6,0,0,0-2.6,3.69c-.12.25-.47.39-.72.58a21.91,21.91,0,0,1,7-10.73C25.21,33,27.32,32.5,29.14,31.65Z"/><path class="cls-5" d="M66.41,44.69c-.36-.78-.87-1-1.81-1s-1.94-.78-2.91-1.22a49.4,49.4,0,0,0,4.49-2.39A1.86,1.86,0,0,1,69,40.8c.41.59,1.15,1.63-.14,2.48a24.92,24.92,0,0,0-2.77,2.49Z"/><path class="cls-7" d="M38.6,65l-1.12-1.67c.37-1.88-1.55-3.08-1.49-4.92l.93.19.9,1c.32-.29.67-.56,1-.88a3.08,3.08,0,0,0,.36-.7c.42,2,.73,4,1.3,5.88s1.32,3.5,2,5.25l-1.06-.84L40.81,67l-1.66-1.67Z"/><path class="cls-3" d="M15.22,64.19c.18-.31.49-.61.51-.94.07-.92,0-1.86,0-2.79,1.91,0,2.27.37,2.78,2.88a21.92,21.92,0,0,1,.28,2.81,7,7,0,0,1-.2,2.13l-1-1.85c-.59.78-.94,1.23-1.29,1.68-.3-.55-.61-1.1-.92-1.65-.08-.59-.15-1.17-.23-1.76Z"/><path class="cls-7" d="M32.82,51.93c.42.12,1,.1,1.24.38,1,1.32,2.22,1.28,3.59.86.16-.05.39.11.64.19v-2q.38,2.65.77,5.29L38,57l-1.85.25L36.1,55H33.36Z"/><path class="cls-8" d="M38,36.35c-.05-.93-.11-1.85-.16-2.77,2.42-.4,4.86-.73,7.26-1.22,1-.21,2-.79,3-1.11.22-.07.57.26.85.41-.4.25-.8.68-1.22.71A10.63,10.63,0,0,0,42.6,34.3c-.89.56-2.11.56-3.13,1A7,7,0,0,0,38,36.35Z"/><path class="cls-8" d="M15.22,64.19c0,.17,0,.34-.05.51l-.59.38a24.29,24.29,0,0,1-1.24-4,17.91,17.91,0,0,1,.92-8.2c.32-.93.53-1.91.8-2.87.88,1.49,0,2.89-.24,4.31-.05.26-.38.48-.38.72,0,2.68-.47,5.38.27,8A8,8,0,0,0,15.22,64.19Z"/><path class="cls-5" d="M55.79,48.36c.54-.18,1-.74,1.7-.13.18.16.75-.11,1.14-.18l-.24,3.45c-.07,1.12-.14,2.24-.21,3.38-1,.13-1.44-.15-1.56-1.11C56.39,52,56.07,50.16,55.79,48.36Z"/><path class="cls-8" d="M74.14,98.75c2.93,0,5.86,0,8.78-.08,1.7-.07,2.4-1.28,2-2.92a3.38,3.38,0,0,1,.15-1.2l1.29.1a14.1,14.1,0,0,1-.86,3.43c-1,1.74-2.79,2-4.55,1.91a50.58,50.58,0,0,1-5.49-.58A4.32,4.32,0,0,1,74.14,98.75Z"/><path class="cls-9" d="M84,11.59c.43-1.22.92-2.42,1.28-3.65a2,2,0,0,0-.11-1.51c-1-1.47-1-1.44-.48-3.29l1.2.37.56.57c.13.28.27.55.4.82-.08.88-.17,1.76-.26,2.64l-1.53,4Z"/><path class="cls-10" d="M67,48.05v.27c-.93.8-.93.8-.14,1.43l.47-.63c1,1.71.51,3.11-1.49,3.58L64.73,50C64.87,48.37,65.57,47.75,67,48.05Z"/><path class="cls-9" d="M80.62,82.57l-.92-1.79.62-2,.83.11,1.38.39,1.28,2.2Z"/><path class="cls-8" d="M55.85,91.18a3.07,3.07,0,0,0,.58.56c1.51.88,3,1.81,4.58,2.59,1,.47,2.05.66,3.05,1a11.3,11.3,0,0,1,1.57.92,52.29,52.29,0,0,1-6-2.18,68.3,68.3,0,0,1-6-3.73Z"/><path class="cls-11" d="M73.08,94H69.43c-1.3-1.42-3.11-1.47-4.93-1.7l-1.43-2q4.62,1.58,9.22,3.17A4.6,4.6,0,0,1,73.08,94Z"/><path class="cls-12" d="M51.38,57.43c0,1.42-.76,1.78-1.55,1.69S48,59,48,57.73c0-1.11.69-2,1.59-1.81S51.47,56.54,51.38,57.43Z"/><path class="cls-9" d="M57.14,68.82c.3,1.29-.73,1.54-1.51,1.62a1.89,1.89,0,0,1-1.58-.89c-.27-.9,1-2,2-2S57.35,67.93,57.14,68.82Z"/><path class="cls-13" d="M46,75.33c-.82.21-1.51.24-1.82-.8a2.34,2.34,0,0,0-.77-1c-1.27-1-1.58-2.07-.56-3.4Z"/><path class="cls-8" d="M66.08,96.51a1.87,1.87,0,0,1,2,.23c.52.4,1.48.18,2.16.44,1.08.41,2.1,1,3.14,1.5C70.72,98.72,68.17,98.38,66.08,96.51Z"/><path class="cls-9" d="M58,75.75c-.79,1.06-1.73.81-2.61.42-.2-.09-.29-.68-.25-1A1.17,1.17,0,0,1,56.52,74C57.37,74,57.37,74,58,75.75Z"/><path class="cls-9" d="M73.8,59.08c.32,2.22-.58,2.66-2.7,1.86C71.18,58.78,71.51,58.55,73.8,59.08Z"/><path class="cls-14" d="M78.71,18.07c-.11-2.3.94-3.16,3.87-3.13Z"/><path class="cls-7" d="M38.24,50.81c-.16-.8-.32-1.6-.46-2.4-.2-1.19-.73-1.95-2.16-1.57C35.55,45,36.94,45.19,38,45Z"/><path class="cls-15" d="M66.41,44.69l-.36,1.08c0,.3,0,.61,0,.91l-2.17,1.37a.14.14,0,0,1,0-.15l-.45-.69-.35-.45c.26-1.49.56-1.67,1.36-1.3Z"/><path class="cls-8" d="M82.84,1.86h-1c-.14-.55-.29-1.1-.44-1.64A4.63,4.63,0,0,1,82.83,0a17.61,17.61,0,0,1,2.24.7Z"/><path class="cls-16" d="M82.84,94.24a3.72,3.72,0,0,1-3.51.76c-.34-.13-.8.09-1.17,0a9.12,9.12,0,0,1-1.44-.63c.76-.08,1.51-.22,2.27-.23C80.27,94.13,81.56,94.2,82.84,94.24Z"/><path class="cls-9" d="M44.17,65.55c.84-.51,1.32-1,1.72-1a6.22,6.22,0,0,1,1.84.85,16,16,0,0,1-2.17,1.22C45.37,66.71,44.92,66.15,44.17,65.55Z"/><path class="cls-6" d="M57.34,61.8A9.17,9.17,0,0,1,59,60.13c.18-.12.93.41,1.23.79A1.11,1.11,0,0,1,60,62C59.23,62.64,58.4,62.61,57.34,61.8Z"/><path class="cls-9" d="M70.93,67.69l1.83,1.44-1.55,1.35c-.27-.38-.7-.73-.77-1.14S70.67,68.48,70.93,67.69Z"/><path class="cls-5" d="M31.36,31.63l-.55-.21c1.71-.66,3.4-1.38,5.14-2,.43-.14,1,.2,1.51.32l-5.23,1.56Z"/><path class="cls-12" d="M61.43,70.49c0-.57-.08-1.56.13-1.63a4.37,4.37,0,0,1,2,0,1.08,1.08,0,0,1,.21.75c-.59.44-1.25.81-1.88,1.19Z"/><path class="cls-9" d="M82,2.7c.47.41,1.22.74,1.36,1.24.39,1.43,0,1.78-1.76,1.82.17-.74.33-1.49.49-2.23,0,0,.1-.07.09-.09a1.86,1.86,0,0,0-.1-.2Z"/><path class="cls-9" d="M48.59,71.7l.77-1.92,1.9.89-.09.52L48.89,72Z"/><path class="cls-7" d="M38,41.38l-1,1.95L36,39.7h2.1l-.09.56-.39.26.36.28Z"/><path class="cls-5" d="M63.89,48.05l2.17-1.37L67,48.05c-1.4-.3-2.1.32-2.24,2Z"/><path class="cls-17" d="M38,57l1-.27c0,.46,0,.93.08,1.39a3.08,3.08,0,0,1-.36.7c-.29.32-.64.59-1,.88l-.9-1Z"/><path class="cls-9" d="M66.27,64.39c-.29-.32-.78-.62-.81-1s.67-.88.79-.83a2.3,2.3,0,0,1,1.07,1c.13.28-.17.76-.28,1.15Z"/><path class="cls-11" d="M62.79,90.07l-2.38,1,.73-1.9Z"/><path class="cls-9" d="M82.84,1.86,85.07.72c.11.19.21.38.31.57l-.33.57a4.71,4.71,0,0,1-1.22.36A2.83,2.83,0,0,1,82.84,1.86Z"/><path class="cls-16" d="M75.64,94.41l-.47.83-1.25-.95Z"/><path class="cls-1" d="M14.58,65.08l.59-.38c.08.59.15,1.17.23,1.76C15.13,66,14.86,65.54,14.58,65.08Z"/><path class="cls-8" d="M86.54,7.54c.09-.88.18-1.76.26-2.64C86.72,5.78,86.63,6.66,86.54,7.54Z"/><path class="cls-5" d="M67.31,49.12l-.47.63c-.79-.63-.79-.63.14-1.43Z"/><path class="cls-7" d="M38,38.59l-1-.22v-.44L38,37.75Z"/><path class="cls-8" d="M85.05,1.86l.33-.57.51,1.13Z"/><path class="cls-8" d="M86.4,4.08l-.56-.57c0-.28,0-.56.07-.83C86.07,3.15,86.23,3.61,86.4,4.08Z"/><path class="cls-5" d="M82.53,79.23l-1.38-.39Z"/><path class="cls-4" d="M55.29,42.92l-.26.56L54.45,43Z"/><path class="cls-14" d="M84,11.59H85l-.57.56Z"/><path class="cls-14" d="M77.53,18.67l.94-.35Z"/><path class="cls-5" d="M54.18,48l.86.15Z"/><path class="cls-13" d="M46.65,76.43l-.54-.56Z"/><path class="cls-14" d="M83.7,13.59c.15-.31.3-.61.44-.92C84,13,83.85,13.28,83.7,13.59Z"/><path class="cls-3" d="M38,40.8l-.36-.28.39-.26Z"/><path class="cls-5" d="M63.41,47.21l.45.69Z"/><path class="cls-5" d="M16.56,45.74l-.48.64Z"/><path class="cls-7" d="M38.06,43.09c0-.23,0-.46,0-.69C38.07,42.63,38.07,42.86,38.06,43.09Z"/><path class="cls-14" d="M82.57,14.68l.26-.31Z"/><path class="cls-1" d="M51.91,89l.29.34Z"/><path class="cls-1" d="M52.46,89.53l.33.2Z"/><path class="cls-5" d="M38.6,29.77h0Z"/><path class="cls-8" d="M82.06,3.24a1.86,1.86,0,0,1,.1.2s-.06.06-.09.09S82.06,3.33,82.06,3.24Z"/><path class="cls-7" d="M29.32,71.49a36.9,36.9,0,0,0-1.91-4.09A13,13,0,0,1,26.2,62a52.84,52.84,0,0,1,.2-7.44,18.63,18.63,0,0,1,.94-3.41l1.9,1,1.27-.56c.24-.74.27-1.43.63-1.8.73-.75.62-1.2-.16-1.77a1.71,1.71,0,0,1-.69-1.1c-.07-1-.68-1.08-1.43-1,.37-1.28.72-2.57,1.12-3.84.05-.15.36-.23.55-.33.28,1.48.55,3,.86,4.43a1.12,1.12,0,0,0,.49.55,1.91,1.91,0,0,1,.91,2.53,5.21,5.21,0,0,0-.06,1.68A14.44,14.44,0,0,0,31.85,54a92.78,92.78,0,0,0-.17,9.72c.08,1.54.94,3,1.45,4.55-.45,1.55.82,2.49,1.4,3.65.22.46,1,.62,1.58.92l2.44,1.39.69,1.12-1.49-.14c-.7,1.49-3.27-.06-3.93,2.26,2.26-.13,1.24,1.82,2,3l1.42-1.75.55,2.51c-.76-.17-1.59-.62-2.26-.45-2.16.54-3.43-.79-4.85-1.94.33-.88.6-1.75,1.84-1.55.14,0,.43-.38.53-.64.54-1.4.45-1.71-.61-3.16-.4-.54-.71-1.14-1.06-1.71l-1-1.51Z"/><path class="cls-15" d="M20.3,66.85c.53.67,1.09,1.32,1.59,2,1.28,1.79,2.5,3.55,4.78,4.33A15.41,15.41,0,0,1,30,75.35c-.5.87-.89.84-1.66.1a10.87,10.87,0,0,0-2.91-1.78,8.93,8.93,0,0,1-4.26-4.19A16.43,16.43,0,0,1,20.3,66.85Z"/><path class="cls-12" d="M29.32,71.49l1.06-1.3,1,1.51.24,3.41Z"/><path class="cls-18" d="M33.39,55.57l0-.56H36.1l.09,2.19L38,57l-1.12,1.67L36,58.43c-.06,1.84,1.86,3,1.49,4.92l-2.57.86c-.46-2.76-.91-5.51-1.36-8.27C33.5,55.82,33.44,55.7,33.39,55.57Z"/><path class="cls-18" d="M35.78,67l-.54-1.67C36.57,65.55,36.64,65.77,35.78,67Z"/><path class="cls-3" d="M40.81,67l.57,1.4-1.29-.66Z"/><path class="cls-19" d="M37.43,71.16l-.75-1.7C37.3,69.86,38.08,70.2,37.43,71.16Z"/><path class="cls-3" d="M38.6,65l.55.27-.75.84-.35-.22Z"/><path class="cls-18" d="M35.24,65.31,35,64.75Z"/><path class="cls-19" d="M38.29,73.16l-.18-.35Z"/><path class="cls-18" d="M36.08,68.12c-.06-.1-.12-.2-.17-.3C36,67.92,36,68,36.08,68.12Z"/><path class="cls-19" d="M38,72.58l-.2-.33Z"/><path class="cls-19" d="M37.76,72c0-.09-.1-.19-.14-.28C37.66,71.8,37.71,71.9,37.76,72Z"/><path class="cls-1" d="M30.53,41.65c-.19.1-.5.18-.55.33-.4,1.27-.75,2.56-1.12,3.84h0l-.89,0a16.49,16.49,0,0,1,3.62-8.35c.17.15.5.38.48.42C31.41,39.07,32.14,40.85,30.53,41.65Z"/><path class="cls-1" d="M30.81,36.92l-.85.25Z"/><path class="cls-1" d="M31.6,36.94l-.25-.15.43-.26Z"/><path class="cls-17" d="M28.86,45.82c.75,0,1.36,0,1.43,1A1.71,1.71,0,0,0,31,48c.78.57.89,1,.16,1.77-.36.37-.39,1.06-.63,1.8l-1.27.56-1.9-1,.09-.46c0-.33,0-.66,0-1l.21-1.09c.74,0,1.2-.26.65-1.08v-.55l.55-1.12Z"/><path class="cls-7" d="M28.86,45.82c-.19.37-.37.74-.55,1.12l-.59-.29c.09-.28.17-.56.25-.85Z"/><path class="cls-7" d="M28.3,47.49c.55.82.09,1-.65,1.08l.15-1.08Z"/><path class="cls-1" d="M28.3,47.49h-.5c0-.28-.05-.56-.08-.84l.59.29C28.3,47.12,28.3,47.3,28.3,47.49Z"/><path class="cls-7" d="M27.44,49.66c0,.33,0,.66,0,1C27.43,50.32,27.44,50,27.44,49.66Z"/><path class="cls-14" d="M33.13,68.23c1,1.52,2,3,3,4.57-.55-.3-1.36-.46-1.58-.92C34,70.72,32.68,69.78,33.13,68.23Z"/><path class="cls-7" d="M33.39,55.57c0,.13.11.25.16.37C33.5,55.82,33.44,55.7,33.39,55.57Z"/></g></svg>