<svg xmlns="http://www.w3.org/2000/svg" viewBox="0 0 100 100"><defs><style>.cls-1{fill:#62a9ab;}.cls-2{fill:#8ec1c2;}.cls-3{fill:#66abad;}.cls-4{fill:#51a0a2;}.cls-5{fill:#5ba5a8;}.cls-6{fill:#4c9da0;}.cls-7{fill:#8fc2c3;}.cls-8{fill:#85bbbd;}.cls-9{fill:#8bbfc1;}.cls-10{fill:#6caeb0;}.cls-11{fill:#88bdbf;}.cls-12{fill:#91c2c4;}.cls-13{fill:#73b2b4;}.cls-14{fill:#7eb8b9;}.cls-15{fill:#e4f0f1;}.cls-16{fill:#93c4c5;}.cls-17{fill:#a8cfd1;}.cls-18{fill:#eff6f7;}.cls-19{fill:#e9f3f3;}.cls-20{fill:#43989b;}.cls-21{fill:#78b5b6;}.cls-22{fill:#97c6c7;}.cls-23{fill:#a3cdce;}.cls-24{fill:#5ea7a9;}</style></defs><g id="Ebene_5" data-name="Ebene 5"><path class="cls-1" d="M16.26,36.23v-.45l.31-.27,1.3.21c-.12-.66-.24-1.35-.39-2,0-.08-.19-.12-.29-.18l.06-.35c.25-.21.61-.38.73-.65a8.66,8.66,0,0,1,1.84-2.59c.2-.2.6-.34.64-.54a2.22,2.22,0,0,1,1.1-1.49,1.65,1.65,0,0,0,.75-1.69h.53c.16.15.45.43.46.42.52-.48,1-1,1.51-1.5l.36-.17L27,23.66a7.7,7.7,0,0,0,.86-.18c.94-.31,1.78-.66,2-1.83a30.52,30.52,0,0,1,.89-3c.54.94.66.94,1.47.13L32,17.28l-.6-.07,1.06-1.1,0,0,.36.54.36.72-.83.31.65.4-.63,1.46a2.17,2.17,0,0,1,1.67,2.23c.73-.2.73-.2.75-1,1,0,2.13.28,2.71-.91l.89.39.42-.59a4.51,4.51,0,0,0,1.05,0,22.45,22.45,0,0,0,4.79-1.59c1.47-.82,3-1.6,4.42-2.47.9-.53,1.72-1.21,2.57-1.82.5,1.73-.4,3.28-.65,4.59l1.21,1.08-.89,1.12,1,0c.1.72.07,1.52,1.12,1.35a1,1,0,0,0,0,.17c0,.22,0,.55.14.65.64.43.22.91,0,1.29-.11.21-.53.27-.81.4l-.08-.19-.31-.5-.37.91-.9,1.77-.25.33-.19.53a3.33,3.33,0,0,0-.71.21c.06.79-.7.9-1.06,1.33C48.08,29.89,47.1,31,46.14,32c-.33.37-.7.7-1,1.06l-2.35,2.55s-.17,0-.25,0c-1.4-.36-2.28.86-3.45,1.19a10,10,0,0,0-2.38,1.49,4.5,4.5,0,0,1-1.11.7,10,10,0,0,0-3.38,1.11,7.77,7.77,0,0,1-1.56.89c-.8.33-1.64.57-2.46.87-.18.07-.3.27-.48.38a3,3,0,0,1-.73.38,5.85,5.85,0,0,0-3.41,2.49l-2.51,2c-.79.16-.88.28-.59.77l-.33.48-.5.55-.47.58h-.09c-.63,0-1.93,1.54-1.86,2.16a5.2,5.2,0,0,1,0,.68c0,.31,0,.63,0,.94,0,.86.57,1.7.05,2.58-.19.32-.26.63.28.82a1.34,1.34,0,0,1,.65.81c.36,1.16.74,1.5,1.65,1.3a2.12,2.12,0,0,0,1.59,2l.24.45.32-.19.71,0,.35.32-.47.87a2,2,0,0,0-.34-.25.85.85,0,0,0-.23-.06l-.44,1.18-.28,0c0-.93-.63-1.18-1.33-1.39a1.4,1.4,0,0,1-.79-.49c-.39-.73-.67-1.51-1-2.33l-.78.29c-.18-.35-.26-.75-.51-1-.5-.41-.82-.75-.32-1.37,0-.06-.12-.45-.21-.46a.72.72,0,0,0-.59.19,3.26,3.26,0,0,0-.24.84,8.45,8.45,0,0,1-.19-.84,11,11,0,0,1,0-1.15c0-.61,0-1.22,0-1.82,0-.25.16-.5.15-.75,0-1.14-.07-2.28-.1-3.42a.9.9,0,0,1,.08-.25l.41-1.45c.45-.52,1-1.07,1.44-1.63a5.47,5.47,0,0,1,.72-.86c.92-.73,1-.87.19-1.83l-.39-1c0-.35-.05-.69-.08-1,0-.72-.24-1.29-1.14-1.17h0l.18-1.62-.25-.06C17.15,37.77,17.12,37.46,16.26,36.23Zm8.91,2.87.27-.08.9.66a4,4,0,0,1,2.51-1.57c.51-.11,1,0,1.31-.6.51-1,.63-1,1.26-.09l.13.18a15.31,15.31,0,0,1,2.8-1.41c.77-.21,1.35-1.07,2.3-.72.07,0,.32-.35.41-.56a1.87,1.87,0,0,0,0-.58l.19.19a7.72,7.72,0,0,0,2-1.22,2.75,2.75,0,0,1,2-1.28v-.84c.49-.51,1-1,1.49-1.51s1.06-1.08,1.61-1.6a12.46,12.46,0,0,0,1.81-1.65c1.33-1.9,2.55-3.87,3.79-5.82a3.63,3.63,0,0,0,.29-1c-1.79.67-3.48,1.33-5.18,1.91-.82.28-1.7.39-2.53.63-1.42.41-2.8.93-4.23,1.29-1.77.44-3.58.76-5.37,1.13-.26,0-.59.19-.77.08-1.15-.67-2.08-.21-2.94.57-.59-1.1-.85-1.14-1.58-.23a2.2,2.2,0,0,0-.52,1.1c-.06.66-.4.94-1.09,1.11l-.44-.81-.29.14A10.73,10.73,0,0,0,25,27.8c-.19,1.19-.55,1.43-1.64,1-.49-.19-.75-.11-.67.5,0,.24.08.59-.05.72-.54.52-1.15,1-1.73,1.45l-.65.55.76.58-.27-.13c-.13.26-.29.51-.4.78-.22.5-.41,1-.61,1.53,0,.13-.15.3-.11.41.44,1.16-.72,2.1-.35,3.35.23.81.92,2.61,1.83,2.84.09,0,.22-.14.34-.22l.63-.12.57-.34.73-.52C24.64,40.78,25.12,40.49,25.17,39.1Zm-5-7.31c-.21-.18-.36-.39-.44-.36a1.72,1.72,0,0,0-.5.36c.11.09.23.28.34.27S20,31.92,20.22,31.79Z"/><path class="cls-2" d="M33.41,93.11l-2.67-2c.15-.08.43-.17.44-.26,0-.65,0-1.31,0-2.06-.12-.08-.57-.25-.59-.45a2.66,2.66,0,0,0-1.33-2.06v-.53l-.17-.37c-.31-.79-.66-1.57-.91-2.38-.33-1.09-.6-2.2-.85-3.3,0-.2.14-.44.21-.66.08.09.19.16.23.26.79,1.83,1.53,3.67,2.37,5.48A11.85,11.85,0,0,0,35,89.84c2.11,1.29,4.28,2.5,6.46,3.67a11.71,11.71,0,0,0,2.15.68c.22.06.53.06.65.21a1.38,1.38,0,0,0,1.62.37,1.87,1.87,0,0,1,2,.45c.23.24.69.27,1,.4a4.56,4.56,0,0,1,1.2.48,3.74,3.74,0,0,0,3.94.62c2.08-1.06,4.45-1.57,6.3-3.1S64,90.8,65.64,89.24A3,3,0,0,0,66.31,87a1.4,1.4,0,0,1,.22-1.23c.14-.19.35-.41.34-.61,0-1.33.91-2.17,1.52-3.18,1.45,1-.21,1-.63,1.61l1.51.16-.8.72c.74.72,1.38.54,1.91-.5l.35-.18.36-.9.71.34c-.08.53-.15,1.06.36,1.45v1.08l.87-.37c0,.2,0,.56-.07.58-1.36.25-1.31,1.59-1.94,2.4a21.75,21.75,0,0,1-2.35,2.71c-1.51,1.39-3.11,2.67-4.7,4A15.55,15.55,0,0,1,62,96.42a16.49,16.49,0,0,1-1.83.78l-1.27.58L56.18,99c-.35,0-.79,0-1-.14-.76-.59-1.17,0-1.65.36l-.19.13.18-.13.71.52-.35.2c-.35-.23-.69-.71-1.08,0-1.15.42-2.14-.09-3.18-.45A13.88,13.88,0,0,0,47.27,99l-.77-.67a2.49,2.49,0,0,0-.84-.11,5,5,0,0,1-3.57-.49l-1-.29-2.63-1.31-.42-.29-.35,0-.36-.16-2.1-1.3-.77-.51L34,93.57Z"/><path class="cls-1" d="M84.94,42.48c0,.12,0,.24,0,.36.45,2.24,1.22,4.43.86,6.78A5.9,5.9,0,0,0,86,50.93c-.06.88-.13,1.75-.2,2.63l-.46,1c-.11-.59-.23-1.18-.32-1.77,0-.31,0-.63-.08-.94a.5.5,0,0,0-.34-.31.51.51,0,0,0-.37.28c-.18.56-.52.65-1.05.53a.64.64,0,0,0-.52.34,11.7,11.7,0,0,0-.22,1.68,4.24,4.24,0,0,0-.07,1.22c.19.93,0,1.2-1,1.1-.23,0-.59,0-.71.1-.53.62-1,1.29-1.37,1.77l-2.47-.15c.43,1-.72,1.65,0,2.42h-.3l-2.71-2.5c.68.2,1.29.89,2,.35a4.7,4.7,0,0,1-.22-1.31c.12-1,0-1.76-.83-2-.23-.6-.28-1.16-.56-1.36a2.2,2.2,0,0,1-.93-1.7,8.12,8.12,0,0,0-.35-1.16l-.25-.06-.34.73-.37.73c-.09-1.27-1.17-.78-1.84-1l-1.35-1.57C68.11,48.22,66.41,47.84,65,47c0,0-.15.06-.22.1l-2.32-.93L62,46a16.61,16.61,0,0,1-3.14-1.44,11,11,0,0,1-2.78-2.9,53.7,53.7,0,0,1-2.6-5.27v-.52c1.4-.15,1.38-1.4,1.79-2.31.11-.25.24-.49.36-.74a2,2,0,0,0,1,2.3c-.8.7-.77,1.33-.1,2,.19.18.33.42.51.61a6.58,6.58,0,0,1,2.16,3.57,3.05,3.05,0,0,1,3,1.1c.27.33.84.28,1-.33l3.57,1c-.46.81.06,1.27.62,1.72s1.41.88,1.72,1.51c.44.93.88,1.08,1.68.53a4.49,4.49,0,0,0,.81.86,1.49,1.49,0,0,1,.66,1.93c-.18.58,0,.84.54,1a1,1,0,0,1,.83,1,5.21,5.21,0,0,0,.54,1.76,21.13,21.13,0,0,0,1.29,1.85c.64.94,1.19,2,2.36,2.36l.65-.53c.84.33,1.07.19,1.28-.64a13.61,13.61,0,0,1,.55-1.46c.33-.16.89-.27.94-.49a5.23,5.23,0,0,0-.11-1.51l.22-.7.23-.64a11,11,0,0,0,0-2.3c-.41-1.85-1-3.67-1.44-5.51h.14l.26-.15-.28-.21v-.54c1-.43,2-.79,3,0,0,0,.1,0,.15-.07l.15-2.66.51-.47c.18.6.36,1.2.55,1.79C84.68,41.77,84.81,42.13,84.94,42.48Zm-19.77.35-.17.3.55.27.13-.24Z"/><path class="cls-3" d="M68.93,9l3.12,3.21c-.08,0-.22,0-.25.07a2,2,0,0,0,.75,2.12,1,1,0,0,1,.48.7,5.09,5.09,0,0,0,1.45,3c0,.16-.06.32-.09.52a1.14,1.14,0,0,1-.3-.12,3.17,3.17,0,0,1-.28-.34c-.59-.73-.7-2-2.07-1.9-.1,0-.25-.16-.33-.27A1.32,1.32,0,0,0,70,15.41l-.45.1v2c.51.15.84.5.4,1.24-.14.24-.05.63-.06,1l-.5-.86a16.25,16.25,0,0,0-1.72-.18,2.64,2.64,0,0,0-.84.32l-1.24-.44-.38-.09-.35,0c-.11-.8-.53-1-1.3-.78A3,3,0,0,1,62,17.7c-.66-.18-1.56.09-1.89-.84,0-.24.09-.58,0-.71-.82-.84-.46-1.51.22-2.18l3.93.57c.17.35.29.93.53,1,.58.13.55-.42.56-.83L69,15.79a8,8,0,0,0-1.6-2.63c-1.67-1.74-3.92-2.43-6-3.4-2.24-1-4.89-1.16-6.84-2.92-.07-.07-.3,0-.34,0a10.39,10.39,0,0,1,.84,1.71c.28.93.43,1.9.63,2.85l-1.58-.82c.88-.62,1-1,.16-1.4a.87.87,0,0,1-.21-.77c.18-.59-.05-.76-.58-.75-.5-.66-.74-1.22.21-1.8.46-.28.71-.92,1.12-1.49-1.42-.14-.47-.94-.67-1.32L51.53.87V.35l2.29.26C53.58,1.6,54.36,2,55,2.27a1,1,0,0,1,.65,1.37c-.08.36-.11.73-.2,1.29l1.09-.67a16.9,16.9,0,0,1,2,.79c.55.31.89,1,1.69.76,0,0,.08.08.1.13.29.84.8.44,1.24.35.81.36,1.66.6,2.49.88.43.15,1.06.29,1.2.61.35.81,1,.72,1.61.81a8.43,8.43,0,0,0,1.23,0l.17,1Z"/><path class="cls-4" d="M27.57,79c-.08.22-.26.46-.22.66.25,1.1.52,2.21.85,3.3.25.81.6,1.59.91,2.38l.17.37v.53a1.53,1.53,0,0,1-1.53-1c-.08-.2-.23-.53-.35-.53a1.46,1.46,0,0,0-.75.29,7.77,7.77,0,0,0-.81.71l-.12-.17-.13-.17c0-.12,0-.25-.05-.37a.68.68,0,0,0,0-.14L27,84c-1-.88-1.39-.93-2-.32l-.36-.88a2.14,2.14,0,0,0,0-.62c-.28-.86-.58-1.71-.88-2.57h0l-.15-.17-.49-1.87c-.5-2-1.07-4-1.46-6-.31-1.56-.4-3.16-.59-4.74a4.16,4.16,0,0,0-.16-.5c-.49-.4-1-.81-1.48-1.19-.07-.06-.23,0-.34,0h0c-.66-.87-1.32-1.73-2-2.6-.31-.42-.68-.8-.4-1.43a1.28,1.28,0,0,0-.44-1.79c-.18-.12-.17-.53-.25-.81l-.34-.37-.2-.71a3.26,3.26,0,0,1,.24-.84.72.72,0,0,1,.59-.19c.09,0,.26.4.21.46-.5.62-.18,1,.32,1.37.25.2.33.6.51,1l.78-.29c.35.82.63,1.6,1,2.33a1.4,1.4,0,0,0,.79.49c.7.21,1.34.46,1.33,1.39l.28,0L22,61.91a.85.85,0,0,1,.23.06,2,2,0,0,1,.34.25l.47-.87.54,0a2.06,2.06,0,0,1,.44.5,5.27,5.27,0,0,1,.23,1c.08.31.15.62.24.92.16.52.33,1,.5,1.56l0,.39a6.05,6.05,0,0,0,.1,1.21,18.13,18.13,0,0,1,.83,2.26c.41,2.34.69,4.7,1,7C27.14,77.14,27.37,78.07,27.57,79Z"/><path class="cls-3" d="M82,26.91l1.74,5,.3.73c.09.95.19,1.9.28,2.86.07.21.13.42.19.63l-.42,2.44c-.36-.35-.69-.75-1.29-.43-.06,0-.45-.31-.45-.49a16.32,16.32,0,0,1,.14-1.89l-1.81.74.89,1.28c-1.13.34-1.27,1.23-.87,2.4-.38-.25-.7-.5-.76-.81a15.75,15.75,0,0,1-.16-1.83,2.14,2.14,0,0,0-.16-.53,1.74,1.74,0,0,0-.53.18,8.09,8.09,0,0,0-.65.67c.31.6.66,1.24,1,1.91,0,.08-.14.27-.22.41a2.63,2.63,0,0,1-.36-.68c-.15-.87-.69-1.05-1.45-.93h0c.06-.37.42-.89-.4-.87l-.18-.31-.13-.48c.74-.7.49-1.44.12-2.21a1.43,1.43,0,0,1-.06-.59,5.42,5.42,0,0,1,0-.57,2.51,2.51,0,0,0-.62.09c-1,.38-1.55.3-1.64-.45-.19-1.53-1.92-1.38-2.45-2.47,0,0-.17,0-.26,0a10.61,10.61,0,0,1-5.07-2.11c-.47-.34-.85-1-1.59-.7L65,27.62l.53-.88.37.15a10.8,10.8,0,0,0,.76.89c.21.18.62.23.71.43a.85.85,0,0,0,1.19.43,1.21,1.21,0,0,1,1.4.45c.48.5,1,.43,1.52-.14l.7.26c-.18,1,.54,1.29,1.25,1.67s1.53,1,2.3,1.49c.17.22.56.19.73.37a1,1,0,0,0,1.27.25c.19-.08.45.06.65,0a3.22,3.22,0,0,0,1.43-.54.82.82,0,0,0-.2-1.36c-.22-.12-.29-.54-.4-.83s-.17-.63-.29-.94-.3-.68-.47-1c-.49-.94-.46-2.28-1.89-2.52l-.11-.28c.07-.56-.13-.91-.75-.93l-.15-.15c0-1.07-1-1.39-1.58-2l-.07-1.22.84.33.12-3.24H75l.91.71.39,1a6.56,6.56,0,0,0,.23.62c.17.34.28.8.56,1a9,9,0,0,1,2.63,2.48c.41.57.69,1.08-.08,1.66l.16.18.85-.17Zm-3.92,6.64c-.19,1,.51,2,1.3,1.78C78.85,34.78,79.28,33.66,78.05,33.55Z"/><path class="cls-5" d="M76.51,60.78h.3c.07.22.27.48.2.64a7.54,7.54,0,0,1-.7,1.15l.49.61c.37-.36.69-.68,1-1a1.49,1.49,0,0,1,1.86,0l.07.2c-.41,1.88-.83,3.76-1.24,5.64,0,.26-.06.53-.09.79l-.08.36L78.2,70l-.24.64c-.08.41-.15.83-.23,1.24-.28.26-.83.45-.17.89l0,.37-.43,1.09-.1.18L76,76.58l-1,2.16-.08.16c0,.18,0,.36-.07.53l-.58.12v.15l.45.1,0,.19-.14.36c0,.17,0,.34-.08.52-1.12.43-1,1.41-1,2.33-.06.3-.13.6-.19.9h-.88v-.36c.34-.7-.22-.5-.54-.55l-.71-.34c-.75,0-.41.53-.36.9l-.35.18c-.26-.55-.52-1.09-.84-1.74.39,0,.58-.1.73,0,.85.3,1.41-.22,1.93-.73.15-.15.12-.5.17-.75a3.25,3.25,0,0,0-.77.08,11,11,0,0,0-1.09.53L70.35,81a1.74,1.74,0,0,1,.36-.4,2.59,2.59,0,0,1,.57-.22L71,80.14l-.61-.33c.83,0,1-.47,1-1.08,0-.3,0-.74.19-.87.57-.43.46-1.42,1.32-1.57,0,0,0-.17,0-.3l-.78-.24c0-.54.85-1,.09-1.51.4-1,.78-2.07,1.2-3.1a22,22,0,0,0,1.11-2.61C75.32,66,75.89,63.37,76.51,60.78ZM74,72.66l-.24,0c-.15.25-.43.52-.41.75a3,3,0,0,0,.47.93c.17-.15.5-.32.49-.46A7.13,7.13,0,0,0,74,72.66Zm.43,2.06c-.1.15-.21.23-.21.31s.12.17.18.25c.09-.09.21-.16.26-.27S74.5,74.86,74.39,74.72Z"/><path class="cls-3" d="M33.24,17.39l-.36-.72-.36-.54,0,0c.64-.67.59-2.08,1.9-1.82.19-.44.25-.88.5-1.09.85-.75,2.1-.94,2.75-2,.05-.07.23-.05.32-.11l1.91-1.4.89-.38a1.87,1.87,0,0,0,2.17-1l.71-.21.71-.31.55-.21c.67,0,1.62.26,2-.08a11.54,11.54,0,0,1,3.4-2.28A4.54,4.54,0,0,0,51,8.1a2.37,2.37,0,0,1,.15.73c-.22-.46-.43-.48-.87-.17-1,.69-2,1.28-3.05,1.91-.76-.38-.84.28-1.09.7l-.77.1-1.73.28-1.25.19-.73.7-.17.18c-.86.37-1.75.7-2.57,1.14a4.88,4.88,0,0,0-1,1.05l-1.45.16.36,1.72a.26.26,0,0,1-.15.07c-.51-.06-1.18.4-1.46-.47a1.51,1.51,0,0,0-.83.14,6.42,6.42,0,0,0-.95.86Z"/><path class="cls-6" d="M79.69,62.22a1.49,1.49,0,0,0-1.86,0c-.34.3-.66.62-1,1l-.49-.61a7.54,7.54,0,0,0,.7-1.15c.07-.16-.13-.42-.2-.64-.74-.77.41-1.45,0-2.42l2.47.15c.36-.48.84-1.15,1.37-1.77.12-.14.48-.12.71-.1,1,.1,1.17-.17,1-1.1a4.24,4.24,0,0,1,.07-1.22,11.7,11.7,0,0,1,.22-1.68.64.64,0,0,1,.52-.34c.53.12.87,0,1.05-.53a.51.51,0,0,1,.37-.28.5.5,0,0,1,.34.31c.07.31,0,.63.08.94.09.59.21,1.18.32,1.77,0,.17,0,.35,0,.53-1,.72-.73,1.72-.56,2.69l0,.18c0,.5-.07,1-.11,1.51l-.71.85-.71,0a4.25,4.25,0,0,0-.23-1c0-.05-.62,0-.66.13a4.92,4.92,0,0,0-.16,1.16c-.16.73-.72,1-1.5.9-.17,0-.38.3-.57.47Z"/><path class="cls-7" d="M16,58.47c.08.28.07.69.25.81a1.28,1.28,0,0,1,.44,1.79c-.28.63.09,1,.4,1.43.65.87,1.31,1.73,2,2.6a18.38,18.38,0,0,1-1.78-1.19,7.23,7.23,0,0,1-2.43-4,1.84,1.84,0,0,0-.28-.74c-1.05-1.4-1-3-.85-4.61a29,29,0,0,1,.73-5.26c.6-2.31,1.25-4.69,3.7-5.89.77,1,.73,1.1-.19,1.83a5.47,5.47,0,0,0-.72.86c-.49.56-1,1.11-1.44,1.63l-.41,1.45a.9.9,0,0,0-.08.25c0,1.14.09,2.28.1,3.42,0,.25-.14.5-.15.75,0,.6,0,1.21,0,1.82a11,11,0,0,0,0,1.15,8.45,8.45,0,0,0,.19.84c.07.24.14.47.2.71S15.9,58.35,16,58.47Z"/><path class="cls-8" d="M68.93,9l-.7.61-.17-1a8.43,8.43,0,0,1-1.23,0c-.61-.09-1.26,0-1.61-.81-.14-.32-.77-.46-1.2-.61-.83-.28-1.68-.52-2.49-.88-.44.09-1,.49-1.24-.35,0-.05-.08-.14-.1-.13-.8.25-1.14-.45-1.69-.76a16.9,16.9,0,0,0-2-.79l-1.09.67c.09-.56.12-.93.2-1.29A1,1,0,0,0,55,2.27C54.36,2,53.58,1.6,53.82.61L51.53.35V.21c.57-.48,1.08,0,1.6,0a3.94,3.94,0,0,1,2.33.88,6.28,6.28,0,0,1,1.27,1.35c1.34,1.78,3.3,2.34,5.33,2.76l.43.25.34.08.73,0h0l1.6.69Z"/><path class="cls-6" d="M79.15,40.17c.08-.14.26-.33.22-.41-.3-.67-.65-1.31-1-1.91a8.09,8.09,0,0,1,.65-.67,1.74,1.74,0,0,1,.53-.18,2.14,2.14,0,0,1,.16.53,15.75,15.75,0,0,0,.16,1.83c.06.31.38.56.76.81-.4-1.17-.26-2.06.87-2.4l-.89-1.28,1.81-.74a16.32,16.32,0,0,0-.14,1.89c0,.18.39.52.45.49.6-.32.93.08,1.29.43,0,.12,0,.24,0,.36l-.08.17,0,.53-.51.47-.15,2.66s-.13.09-.15.07c-1-.76-2-.4-3,0l0-.51-.06-1.2-.48.66-.18-.38-.16-.36Z"/><path class="cls-9" d="M39.88,9.7,38,11.1c-.09.06-.27,0-.32.11-.65,1-1.9,1.24-2.75,2-.25.21-.31.65-.5,1.09-1.31-.26-1.26,1.15-1.9,1.82l-1.06,1.1c-.49,0-.85.11-.53.72v.53l-.18.17a30.52,30.52,0,0,0-.89,3c-.23,1.17-1.07,1.52-2,1.83a7.7,7.7,0,0,1-.86.18c-.13-.53-.48-.5-.89-.35A23.1,23.1,0,0,1,29,21.23a1.36,1.36,0,0,0,.86-1.29,6,6,0,0,1,.84-3.09,10.57,10.57,0,0,1,4.71-5C36.8,11.06,38.37,10.43,39.88,9.7Z"/><path class="cls-10" d="M25.84,85.69a7.77,7.77,0,0,1,.81-.71,1.46,1.46,0,0,1,.75-.29c.12,0,.27.33.35.53a1.53,1.53,0,0,0,1.53,1,2.66,2.66,0,0,1,1.33,2.06c0,.2.47.37.59.45,0,.75,0,1.41,0,2.06,0,.09-.29.18-.44.26L30,90.38c-.23-.2-.46-.41-.71-.61l-1.27-1h0l-.87-.55h0l-.69-1.07-.21-.35-.33-.72Z"/><path class="cls-11" d="M82,26.91l-1.3-1.15-.85.17-.16-.18c.77-.58.49-1.09.08-1.66a9,9,0,0,0-2.63-2.48c-.28-.17-.39-.63-.56-1a6.56,6.56,0,0,1-.23-.62l-.39-1,1,.91c.73.72,1.45,1.44,2.17,2.17A10,10,0,0,1,82,26.91Z"/><path class="cls-12" d="M75,18.29h-.18l-.36-.2a5.09,5.09,0,0,1-1.45-3,1,1,0,0,0-.48-.7,2,2,0,0,1-.75-2.12c0-.06.17-.05.25-.07C73.77,13.86,75.16,15.7,75,18.29Z"/><path class="cls-13" d="M51.53.21V.87L50.88,1l.23.2-.39,1.06-.45,1.34c-.68.49-.3,1,0,1.44a.91.91,0,0,1,0,.17,11.54,11.54,0,0,0-3.4,2.28c-.35.34-1.3.07-2,.08L47.23,6.1l.42-.33.5-.35c.12-.13.23-.27.34-.4a5.27,5.27,0,0,0,2-3.72C50.5.67,50.68.09,51.53.21Z"/><path class="cls-14" d="M22.31,26.2a1.65,1.65,0,0,1-.75,1.69,2.22,2.22,0,0,0-1.1,1.49c0,.2-.44.34-.64.54A8.66,8.66,0,0,0,18,32.51c-.12.27-.48.44-.73.65l.24-1,.26-.43C19,29.67,20.16,27.52,22.31,26.2Z"/><path class="cls-15" d="M86,50.93a5.9,5.9,0,0,1-.11-1.31c.36-2.35-.41-4.54-.86-6.78a16.81,16.81,0,0,1,.69,1.58,7.79,7.79,0,0,1,.5,4.45c-.09.32.11.71.08,1.05A4.51,4.51,0,0,1,86,50.93Z"/><path class="cls-13" d="M80,62c.19-.17.4-.48.57-.47.78.07,1.34-.17,1.5-.9a4.92,4.92,0,0,1,.16-1.16c0-.12.64-.18.66-.13a4.25,4.25,0,0,1,.23,1l.71,0c-.13.17-.27.34-.4.52l-.9.7-.89.41Z"/><path class="cls-16" d="M16.26,36.23c.86,1.23.89,1.54.22,2.27l.25.06-.18,1.62c-.06,0-.16,0-.16-.06C16.09,38.83,15.58,37.55,16.26,36.23Z"/><path class="cls-14" d="M24.81,25.1c-.5.51-1,1-1.51,1.5,0,0-.3-.27-.46-.42v-.36l.16-.19.38-.51.54-.38Z"/><path class="cls-10" d="M25,83.68c.63-.61,1.06-.56,2,.32l-1.47.84c-.18-.31-.35-.62-.53-.92Z"/><path class="cls-14" d="M17.19,33.51c.1.06.27.1.29.18.15.68.27,1.37.39,2l-1.3-.21-.11-.2Z"/><path class="cls-14" d="M26.07,23.31c.41-.15.76-.18.89.35l-1.79,1.27c.12-.45.25-.9.37-1.35l.17-.09.17-.14Z"/><path class="cls-16" d="M16.55,40.17c.9-.12,1.1.45,1.14,1.17,0,.35,0,.69.08,1A2.73,2.73,0,0,1,16.55,40.17Z"/><path class="cls-17" d="M54.21,99.69l-.71-.52h0c.48-.41.89-1,1.65-.36.23.18.67.1,1,.14Z"/><path class="cls-1" d="M84.71,57.74c-.17-1-.48-2,.56-2.69h.16c0,.12.06.23.08.34s0,.26,0,.39l-.07.35-.14.55Z"/><path class="cls-13" d="M73.41,83.2c0-.92-.12-1.9,1-2.33C74.08,81.65,73.74,82.42,73.41,83.2Z"/><path class="cls-7" d="M19.07,65.1c.11,0,.27,0,.34,0,.5.38,1,.79,1.48,1.19l-1.06.15c-.19-.22-.38-.44-.58-.65Z"/><path class="cls-10" d="M23.75,79.61c.3.86.6,1.71.88,2.57a2.14,2.14,0,0,1,0,.62c-.12-.15-.3-.28-.34-.45C24.1,81.44,23.93,80.53,23.75,79.61Z"/><path class="cls-13" d="M42.94,8.28a1.87,1.87,0,0,1-2.17,1Z"/><path class="cls-2" d="M28,88.77l1.27,1c.25.2.48.41.71.61C29.2,90,28.19,89.93,28,88.77Z"/><path class="cls-9" d="M25.54,23.58c-.12.45-.25.9-.37,1.35l-.36.17-.89-.36Z"/><path class="cls-10" d="M73,85.36l-.87.37V84.65h.72l.22.23Z"/><path class="cls-15" d="M76,76.58,77,74.44Z"/><path class="cls-15" d="M80,62l1.64-.09a5,5,0,0,1-.72.31c-.39.09-.79.13-1.19.2l-.07-.2Z"/><path class="cls-15" d="M65.17,6.23l-1.6-.69Z"/><path class="cls-18" d="M19.25,65.8c.2.21.39.43.58.65l-.57.14Z"/><path class="cls-15" d="M77.56,72.8c-.66-.44-.11-.63.17-.89C77.67,72.21,77.62,72.51,77.56,72.8Z"/><path class="cls-15" d="M85.43,55.05h-.16c0-.18,0-.36,0-.53l.46-1C85.64,54.06,85.54,54.55,85.43,55.05Z"/><path class="cls-13" d="M84.57,59.43c0-.51.07-1,.11-1.51Z"/><path class="cls-17" d="M52.78,99.84c.39-.66.73-.18,1.08,0Z"/><path class="cls-15" d="M77.11,74.26l.43-1.09Z"/><path class="cls-15" d="M84.94,42.48c-.13-.35-.26-.71-.38-1.07C84.68,41.77,84.81,42.13,84.94,42.48Z"/><path class="cls-2" d="M26.46,87.14l.69,1.07Z"/><path class="cls-15" d="M82.56,61.5l.9-.7C83.45,61.4,83.19,61.69,82.56,61.5Z"/><path class="cls-2" d="M25,83.92c.18.3.35.61.53.92a.68.68,0,0,1,0,.14Z"/><path class="cls-15" d="M46.5,98.29l.77.67Z"/><path class="cls-15" d="M41.12,97.4l1,.29Z"/><path class="cls-2" d="M27.16,88.22l.87.55Z"/><path class="cls-15" d="M63.56,5.53l-.73,0C63.07,5.43,63.29,4.92,63.56,5.53Z"/><path class="cls-13" d="M74.66,79.8l-.45-.1v-.15l.58-.12Z"/><path class="cls-15" d="M84,32.63l-.3-.73Z"/><path class="cls-15" d="M34.49,93.79l.77.51Z"/><path class="cls-18" d="M19.35,67.63c-.1-.17-.2-.26-.2-.35s.17-.18.23-.16a.32.32,0,0,1,.19.23C19.58,67.42,19.46,67.5,19.35,67.63Z"/><path class="cls-2" d="M73.1,84.87l-.22-.23V84.1h.35Z"/><path class="cls-15" d="M33.41,93.11l.6.46Z"/><path class="cls-13" d="M44.36,7.76l-.71.31Z"/><path class="cls-2" d="M25.92,86.07l.33.72Z"/><path class="cls-15" d="M85.29,56.68l.14-.55Z"/><path class="cls-15" d="M84.48,36.12c-.06-.21-.12-.42-.19-.63C84.36,35.7,84.42,35.91,84.48,36.12Z"/><path class="cls-9" d="M23.38,25.12l-.38.51Z"/><path class="cls-15" d="M78,70.67,78.2,70Z"/><path class="cls-9" d="M22.84,25.82v.36h-.53Z"/><path class="cls-19" d="M16.46,35.31l.11.2-.31.27Z"/><path class="cls-15" d="M85.5,55.78c0-.13,0-.26,0-.39C85.51,55.52,85.51,55.65,85.5,55.78Z"/><path class="cls-15" d="M38.07,95.8l.42.29Z"/><path class="cls-15" d="M37.36,95.6l.36.16Z"/><path class="cls-19" d="M17.75,31.72l-.26.43Z"/><path class="cls-15" d="M48.49,5c-.11.13-.22.27-.34.4C48.27,5.29,48.38,5.15,48.49,5Z"/><path class="cls-15" d="M62.49,5.48l-.43-.25Z"/><path class="cls-15" d="M47.65,5.77l-.42.33Z"/><path class="cls-15" d="M78.35,69.21l.08-.36Z"/><path class="cls-13" d="M74.49,80.35l.14-.36Z"/><path class="cls-2" d="M25.59,85.35l.13.17Z"/><path class="cls-13" d="M74.85,78.9l.08-.16Z"/><path class="cls-9" d="M25.88,23.35l-.17.14Z"/><path class="cls-10" d="M23.59,79.44l.15.17Z"/><path class="cls-3" d="M84,39.09l.08-.17Z"/><path class="cls-4" d="M45.26,38.92a37.31,37.31,0,0,0,3.06-3.72c1.59-2.48,3-5.08,4.47-7.64a3,3,0,0,0,.22-.68l.21-.5a2.84,2.84,0,0,0,.84,0c.09,0,.07-.36.11-.56h-.82l-.35,0c0-.47-.09-.95-.13-1.42.28-.13.7-.19.81-.4.19-.38.61-.86,0-1.29-.13-.1-.1-.43-.14-.65a5.79,5.79,0,0,1,.72.68,8.58,8.58,0,0,0,1.41,1.82,4.32,4.32,0,0,0,1.86.4,2.69,2.69,0,0,0,.56,0,3.29,3.29,0,0,0-.11-.64c-.11-.31-.38-.61-.4-.92a14.49,14.49,0,0,1,.1-1.86,7.25,7.25,0,0,1,.51,1c.17.51,0,1.23.9,1.23l1.45,1.42.71.55,2.15,1.61h0l.37.35h.52l.23.28.14-.27H65l.09.23c.74-.26,1.12.36,1.59.7a10.61,10.61,0,0,0,5.07,2.11c.09,0,.23,0,.26,0,.53,1.09,2.26.94,2.45,2.47.09.75.67.83,1.64.45a2.51,2.51,0,0,1,.62-.09,5.42,5.42,0,0,0,0,.57,1.43,1.43,0,0,0,.06.59c.37.77.62,1.51-.12,2.21l-.15,0-.93-1c.38-.77,0-1.06-.72-1.08l-.72-.27c-.45-.19-1-.64-1.32-.5-.61.29-.78-.05-1.1-.34-.08-.08-.28,0-.43,0l-.59-.4a3.59,3.59,0,0,0-.54-.62c-.25-.18-.67-.2-.83-.42-.45-.6-1-.84-1.4-.63-.43-.44-.78-1.07-1.07-1a7.22,7.22,0,0,0-1.86.72l-1-.63V29.09c-.69-.13-1.05.3-1.29.92a8.67,8.67,0,0,1-1.93-.87c-1.2-.93-2.29-2-3.43-3l-.3.05c-.24,1.71-.49,3.42-.74,5.13l0,.76-.36.55-.18.17c-.12.25-.25.49-.36.74-.41.91-.39,2.16-1.79,2.31l-.19-.35c0-.94-.4-1.4-.9-1s-1.51.82-1.41,1.85c0,.38.11.76.16,1.13h0a1.13,1.13,0,0,0-1.3,1c-.27,1.15-1.14,1.17-2,1.38-.24.06-.62.3-.62.46,0,.93-.56.8-1.07.51a.85.85,0,0,0-1.22.26,11.47,11.47,0,0,1-1.1,1l-.3-.23a6,6,0,0,0,.34-.89,3.87,3.87,0,0,0,.07-.77l.18-.16C45.23,40.34,45.25,40.32,45.26,38.92Zm5-4.49.52.52.18-.28-.7-.24v-.81l-.3-.07-.51,1ZM47,38.58l-.2-.27-1.2.89C46.72,39.77,46.71,38.94,47,38.58Zm6.92-13.43s.11.07.15.06.05-.1.07-.15S54,25,54,25,54,25.1,53.93,25.15Z"/><path class="cls-20" d="M57.65,21.49a14.49,14.49,0,0,0-.1,1.86c0,.31.29.61.4.92a3.29,3.29,0,0,1,.11.64,2.69,2.69,0,0,1-.56,0,4.32,4.32,0,0,1-1.86-.4,8.58,8.58,0,0,1-1.41-1.82,5.79,5.79,0,0,0-.72-.68,1.09,1.09,0,0,1,0-.18,3.57,3.57,0,0,1,.65-2.6c.37-.45-.07-1.49-.62-1.67a.7.7,0,0,0-.91.75c0,.24.09.48.16.88-.91-1-.93-1-.34-1.85a.88.88,0,0,0,.07-1.18,1.43,1.43,0,0,1-.15-1.71,13,13,0,0,0,.72-1.32l-1.33-.34c0-.27,0-.54.07-.82l.27-.36c.55-.09,1.11-.17,1.65-.3.77-.17,1.13.07,1.2.86,0,.2,0,.4.07.65.8,0,1.11.33,1,1.09,0,.18.11.37.17.57.19.66.37,1.33.55,2l.15,1.05a4.12,4.12,0,0,0,.91,2.69Z"/><path class="cls-2" d="M50.77,27.24A12.89,12.89,0,0,1,47.66,32c-1.12,1-2,2.22-3.09,3.28a10.19,10.19,0,0,1-2,1.56c-2.07,1.2-4.14,2.43-6.3,3.43-1.48.69-3.15,1-4.7,1.51-1.28.46-2.5,1.08-3.75,1.61l-4.26,1.75A5.85,5.85,0,0,1,27,42.67a3,3,0,0,0,.73-.38c.18-.11.3-.31.48-.38.82-.3,1.66-.54,2.46-.87a7.77,7.77,0,0,0,1.56-.89A10,10,0,0,1,35.56,39a4.5,4.5,0,0,0,1.11-.7,10,10,0,0,1,2.38-1.49c1.17-.33,2.05-1.55,3.45-1.19.08,0,.21,0,.25,0l2.35-2.55c.34-.36.71-.69,1-1.06,1-1.07,1.94-2.13,2.86-3.24.36-.43,1.12-.54,1.06-1.33A3.33,3.33,0,0,1,50.77,27.24Z"/><path class="cls-21" d="M33,24.61a4.3,4.3,0,0,1-1.11.52,10.09,10.09,0,0,0-4.76,2.46c-1.8,1.51-3.75,2.9-4.94,5a14.82,14.82,0,0,0-1.74,4.16,5,5,0,0,0,1,4.41c-.12.08-.25.24-.34.22-.91-.23-1.6-2-1.83-2.84-.37-1.25.79-2.19.35-3.35,0-.11.06-.28.11-.41.2-.52.39-1,.61-1.53.11-.27.27-.52.4-.78l.27.13L20.26,32l.65-.55c.58-.48,1.19-.93,1.73-1.45.13-.13.09-.48.05-.72-.08-.61.18-.69.67-.5,1.09.44,1.45.2,1.64-1a10.73,10.73,0,0,1,.35-1.23l.29-.14.44.81c.69-.17,1-.45,1.09-1.11a2.2,2.2,0,0,1,.52-1.1c.73-.91,1-.87,1.58.23.86-.78,1.79-1.24,2.94-.57C32.39,24.8,32.72,24.65,33,24.61Z"/><path class="cls-11" d="M25.44,39c1.1-.56,2.19-1.15,3.3-1.69,1.43-.68,2.87-1.33,4.31-2,1.2-.54,2.44-1,3.61-1.61,1.57-.8,3.09-1.7,4.64-2.55V32a2.75,2.75,0,0,0-2,1.28,7.72,7.72,0,0,1-2,1.22l-.19-.19a1.87,1.87,0,0,1,0,.58c-.09.21-.34.58-.41.56-.95-.35-1.53.51-2.3.72a15.31,15.31,0,0,0-2.8,1.41l-.13-.18c-.63-.9-.75-.91-1.26.09-.3.6-.8.49-1.31.6a4,4,0,0,0-2.51,1.57Z"/><path class="cls-8" d="M51.7,13.79c-.85.61-1.67,1.29-2.57,1.82-1.45.87-3,1.65-4.42,2.47a22.45,22.45,0,0,1-4.79,1.59,4.51,4.51,0,0,1-1.05,0l-.42.59-.89-.39c-.58,1.19-1.69.9-2.71.91L35,20a2.87,2.87,0,0,1,.54-.24A43.48,43.48,0,0,0,42.73,18,22.94,22.94,0,0,0,46.79,16c.65-.41,1.37-.72,2-1.12a6.19,6.19,0,0,0,1-.71c.59-.51,1-1.33,1.88-1.35Z"/><path class="cls-8" d="M19.14,49.53c-.84,2.89-1,5.74.42,8.52a4.51,4.51,0,0,1,.25.76c-.91.2-1.29-.14-1.65-1.3a1.34,1.34,0,0,0-.65-.81c-.54-.19-.47-.5-.28-.82.52-.88-.09-1.72-.05-2.58,0-.31,0-.63,0-.94a5.2,5.2,0,0,0,0-.68c-.07-.62,1.23-2.15,1.86-2.16Z"/><path class="cls-4" d="M51.7,13.79l0-.95h.08l1.33.34a13,13,0,0,1-.72,1.32,1.43,1.43,0,0,0,.15,1.71.88.88,0,0,1-.07,1.18c-.59.83-.57.84.34,1.85-.07-.4-.13-.64-.16-.88a.7.7,0,0,1,.91-.75c.55.18,1,1.22.62,1.67a3.57,3.57,0,0,0-.65,2.6c-1,.18-1-.62-1.12-1.34l-1,0,.89-1.12-1.21-1.08C51.3,17.07,52.2,15.52,51.7,13.79Z"/><path class="cls-7" d="M22.67,61c.46-1.33,1.75-2,2.46-3.17.08-.13.27-.19.4-.28l.31.93a17.84,17.84,0,0,1-.93,1.63A5,5,0,0,1,24,61l-.46.37-.54,0Z"/><path class="cls-3" d="M35,20l-.18.84c0,.8,0,.8-.75,1a2.17,2.17,0,0,0-1.67-2.23l.63-1.46.36-.35c.1.78.38.92,1,.51.31-.21.62-.65.82.08l-.38.48c-.15,0-.33-.05-.44,0a4.69,4.69,0,0,0-.63.47l.7.6Z"/><path class="cls-3" d="M30.72,18.63l.18-.17.72-.14,0-.29-.69-.1c-.32-.61,0-.72.53-.72l.6.07.15,1.48C31.38,19.57,31.26,19.57,30.72,18.63Z"/><path class="cls-11" d="M23.38,40.17l1.79-1.07C25.12,40.49,24.64,40.78,23.38,40.17Z"/><path class="cls-5" d="M33.42,17.75l-.36.35-.65-.4.83-.31h.18Z"/><path class="cls-21" d="M20.22,31.79c-.27.13-.43.27-.6.27s-.23-.18-.34-.27a1.72,1.72,0,0,1,.5-.36C19.86,31.4,20,31.61,20.22,31.79Z"/><path class="cls-2" d="M52.79,24.2l-.68.41.37-.91Z"/><path class="cls-8" d="M21,47.15l-.59.77C20.15,47.43,20.24,47.31,21,47.15Z"/><path class="cls-7" d="M21.4,60.79l.56.26-.32.19Z"/><path class="cls-8" d="M20.11,48.4l-.5.55Z"/><path class="cls-11" d="M22.08,41l.57-.34Z"/><path class="cls-5" d="M32.52,16.13l.36.54Z"/><path class="cls-2" d="M51.21,26.38l-.25.33Z"/><path class="cls-10" d="M68.39,82c.12-.23.23-.47.35-.7l2.88-5.63c.24-.46.48-.92.71-1.38.76.54-.09,1-.09,1.51L73,76c0,.13,0,.29,0,.3-.86.15-.75,1.14-1.32,1.57-.18.13-.16.57-.19.87-.07.61-.21,1.13-1,1.08l.61.33.24.27a2.59,2.59,0,0,0-.57.22,1.74,1.74,0,0,0-.36.4l.16.26a11,11,0,0,1,1.09-.53,3.25,3.25,0,0,1,.77-.08c-.05.25,0,.6-.17.75-.52.51-1.08,1-1.93.73-.15-.06-.34,0-.73,0,.32.65.58,1.19.84,1.74-.53,1-1.17,1.22-1.91.5l.8-.72-1.51-.16C68.18,83,69.84,83,68.39,82Zm1.23-.35c-.1-.07-.15-.14-.22-.15a.57.57,0,0,0-.21.1.93.93,0,0,0,.21.19S69.52,81.66,69.62,81.6Z"/><path class="cls-13" d="M72.87,84.1v.54h-.72c-.51-.39-.44-.92-.36-1.45.32,0,.88-.15.54.55l-.28.14.28.22Z"/><path class="cls-10" d="M70.73,83.76c0-.37-.39-.86.36-.9Z"/><path class="cls-10" d="M29.28,85.73l-.17-.37C29.16,85.49,29.22,85.61,29.28,85.73Z"/><path class="cls-17" d="M53.5,99.17l-.18.13.19-.13Z"/><path class="cls-8" d="M66.77,43.05c2,1,4.32,1.75,5.88,3.52a15.49,15.49,0,0,1,2.09,3.3c.82,1.62,1.43,3.34,2.23,5A16.47,16.47,0,0,0,78.47,57l-.65.53c-1.17-.39-1.72-1.42-2.36-2.36a21.13,21.13,0,0,1-1.29-1.85,5.21,5.21,0,0,1-.54-1.76,1,1,0,0,0-.83-1c-.54-.13-.72-.39-.54-1a1.49,1.49,0,0,0-.66-1.93,4.49,4.49,0,0,1-.81-.86c-.8.55-1.24.4-1.68-.53-.31-.63-1.12-1-1.72-1.51S66.31,43.86,66.77,43.05Z"/><path class="cls-8" d="M56.23,31.33a34.47,34.47,0,0,0,1.26,4.31,13.61,13.61,0,0,0,2.28,3.64A26.48,26.48,0,0,0,63.2,42c-.2.61-.77.66-1,.33a3.05,3.05,0,0,0-3-1.1A6.58,6.58,0,0,0,57,37.69c-.18-.19-.32-.43-.51-.61-.67-.64-.7-1.27.1-2a2,2,0,0,1-1-2.3l.18-.17.36-.55Z"/><path class="cls-6" d="M73.8,58.28a.57.57,0,0,1,0-.18l0-.21-.23-1.38c0-.13.25-.54.12-.76s-.59-.23-1-.35a2.4,2.4,0,0,0,.37-.68,1,1,0,0,0-.11-.78,7.84,7.84,0,0,0-1.19-.86l.19-.55.37-.73.34-.73.25.06a8.12,8.12,0,0,1,.35,1.16,2.2,2.2,0,0,0,.93,1.7c.28.2.33.76.56,1.36.84.21,1,1,.83,2a4.7,4.7,0,0,0,.22,1.31C75.09,59.17,74.48,58.48,73.8,58.28Z"/><path class="cls-9" d="M78.47,40.7l-1.13-2.14c.76-.12,1.3.06,1.45.93a2.63,2.63,0,0,0,.36.68l.18.89.16.36.18.38.54.54,0,.51c0,.18,0,.36,0,.54l0,.36h-.14c-1.08-.49-1.22-1.59-1.6-2.53C78.92,41,78.88,40.84,78.47,40.7Z"/><path class="cls-22" d="M68.78,49.93c-1-.28-2-.48-2.53-1.62-.24-.5-1-.79-1.44-1.17.07,0,.18-.12.22-.1C66.41,47.84,68.11,48.22,68.78,49.93Z"/><path class="cls-2" d="M72,52.53c-.07.18-.13.37-.19.55,0,.47-.09,1-.14,1.43-.5-1-1-2-1.51-3C70.8,51.75,71.88,51.26,72,52.53Z"/><path class="cls-14" d="M53.51,36.38a2.49,2.49,0,0,0-.68.38c-.57.59-1.09,1.21-1.62,1.82,0-.37,0-.74,0-1.11h0l.68-.24.77-1.88.7.16.19.35Z"/><path class="cls-22" d="M80.3,54.9c.27-.67.55-1.33.83-2a5.23,5.23,0,0,1,.11,1.51C81.19,54.63,80.63,54.74,80.3,54.9Z"/><path class="cls-8" d="M65.17,42.83l.51.33-.13.24L65,43.13Z"/><path class="cls-22" d="M81.35,52.2c.07-.21.15-.42.23-.64C81.5,51.78,81.42,52,81.35,52.2Z"/><path class="cls-22" d="M62.49,46.21,62,46Z"/><path class="cls-3" d="M80.25,43.75l0-.36.28.21Z"/><path class="cls-20" d="M50.28,5.19a.91.91,0,0,0,0-.17c.09-.17.26-.35.25-.51a4.48,4.48,0,0,0-.27-.93l.45-1.34.39-1.06L50.88,1l.65-.11,2.64,2.22c.2.38-.75,1.18.67,1.32-.41.57-.66,1.21-1.12,1.49-.95.58-.71,1.14-.21,1.8l.07.59-1,1.23,1.22.86c-.44.85-1.22.72-1.94.73l-.36-.54-.39-1.74A2.37,2.37,0,0,0,51,8.1,4.54,4.54,0,0,1,50.28,5.19Z"/><path class="cls-6" d="M73.36,22.45l-.69-.93c.36-.3.48-.59,0-.87l-1.58-.92h-.16l-.24-.47-.32.46h-.51c0-.33-.08-.72.06-1,.44-.74.11-1.09-.4-1.24v-2l.45-.1a1.32,1.32,0,0,1,1.46.57c.08.11.23.27.33.27,1.37-.1,1.48,1.17,2.07,1.9a3.17,3.17,0,0,0,.28.34,1.14,1.14,0,0,0,.3.12c0-.2.06-.36.09-.52l.36.2c0,1.05-.07,2.1-.12,3.24l-.84-.33c0,.44.05.83.07,1.22Z"/><path class="cls-4" d="M51.9,11.11c.72,0,1.5.12,1.94-.73l-1.22-.86,1-1.23-.07-.59c.53,0,.76.16.58.75a.87.87,0,0,0,.21.77c.84.38.72.78-.16,1.4l1.58.82c.43,1.4,1.54,1.8,2.82,2a15.71,15.71,0,0,1,1.78.51c-.68.67-1,1.34-.22,2.18.12.13,0,.47,0,.71h-.34l-2-.19-1-.15c-.18-.67-.36-1.34-.55-2-.06-.2-.19-.39-.17-.57.09-.76-.22-1.13-1-1.09,0-.25,0-.45-.07-.65-.07-.79-.43-1-1.2-.86-.54.13-1.1.21-1.65.3Z"/><path class="cls-8" d="M69.84,19.71h1.23c0,.31-.09.62-.13.9l1.4.75a9.22,9.22,0,0,1-1.93-.46C69.17,20.35,68,19.64,66.78,19a2.64,2.64,0,0,1,.84-.32,16.25,16.25,0,0,1,1.72.18Z"/><path class="cls-8" d="M59.79,16.86h.34c.33.93,1.23.66,1.89.84a3,3,0,0,0,1.49-.05c.77-.22,1.19,0,1.3.78l-6.28-.87Z"/><path class="cls-23" d="M64.25,14.54l1.09.16c0,.41,0,1-.56.83C64.54,15.47,64.42,14.89,64.25,14.54Z"/><path class="cls-8" d="M65.54,18.55l-.38-.09Z"/><path class="cls-1" d="M51.17,37.47c0,.37,0,.74,0,1.11h0c-.84-.16-.78.38-.72.92-.14.16-.27.33-.4.49a2.19,2.19,0,0,0-1.76,1.66c-.07.1-.15.2-.22.31-.69-.06-1,.29-1,.95l-1.3,1.19a2.36,2.36,0,0,0-.76-.41c-.17,0-.54.2-.55.34a5.74,5.74,0,0,0,.11,1.23l-1.43,1L40.33,47.8l.05.84c-.62.45-1.82-.67-1.9.86l-.74-.59c-.36.56-.71,1.05-1,1.57,0,.07.26.32.4.48l-1.84,1.4c-.28.23-.54.48-.81.72L34,52.85a4.56,4.56,0,0,1-.83.57c-.56.25-1.16.43-1.75.63a2.07,2.07,0,0,1-1.18,2.58,2.18,2.18,0,0,1-.09.74,12.62,12.62,0,0,1-3.77,4.15c-.64.44-.74.79-.56,1.39l-.8.44.23.09L25,65.28c-.17-.52-.34-1-.5-1.56-.09-.3-.16-.61-.24-.92a5.27,5.27,0,0,0-.23-1,2.06,2.06,0,0,0-.44-.5L24,61a5,5,0,0,0,.89-.82,17.84,17.84,0,0,0,.93-1.63l-.31-.93.31-.23.54-.57a21.07,21.07,0,0,1,1.49-2.41,60.84,60.84,0,0,1,4.05-4.71c2.24-2.28,5-3.88,7.58-5.76,1.33-1,2.5-2.18,3.75-3.27a6.32,6.32,0,0,1,.74-.49,3.87,3.87,0,0,1-.07.77,6,6,0,0,1-.34.89l.3.23a11.47,11.47,0,0,0,1.1-1,.85.85,0,0,1,1.22-.26c.51.29,1,.42,1.07-.51,0-.16.38-.4.62-.46.84-.21,1.71-.23,2-1.38A1.13,1.13,0,0,1,51.17,37.47Z"/><path class="cls-9" d="M25,65.28l.3-1.84L25,63.35l.8-.44c-.18-.6-.08-.95.56-1.39a12.62,12.62,0,0,0,3.77-4.15,2.18,2.18,0,0,0,.09-.74,2.07,2.07,0,0,0,1.18-2.58c.59-.2,1.19-.38,1.75-.63a4.56,4.56,0,0,0,.83-.57l.47.23c-.58.77-1.18,1.53-1.73,2.33-1.28,1.81-2.54,3.64-3.79,5.47a1.06,1.06,0,0,0-.15.38,10.16,10.16,0,0,1,2.53.36c1.86.8,3.71.52,5.62.34,2.71-.25,4.86-1.73,7.12-3a2.71,2.71,0,0,1,.81-.33c1.34-.27,1.6,0,1.28,1.37a.72.72,0,0,0,0,.43,1.94,1.94,0,0,1-1,2.62c-.83.54-1.6,1.17-2.44,1.7a9.31,9.31,0,0,1-1.38.57c-.13-.46-.25-.93-.36-1.36-.24.19-.44.48-.71.57a4.52,4.52,0,0,0-2.59,1.38l-1.24-.09-.35-.46h1l-.75-.57.35-1.08-1.52-.15c.49.66.84,1.21.31,1.88-.07.08.06.33.1.5l-.51,0c-.33-.88-.77-.71-1.27-.15h-.53c-.26-.91-.62-1-1.45-.51l-.34,0L31,65c-1.51-.2-2.25-.87-2.79-2.58-1.1,1.11-1.65,2.72-3.22,3.28Z"/><path class="cls-1" d="M16,58.47c-.11-.12-.22-.25-.34-.37C15.79,58.22,15.9,58.35,16,58.47Z"/><path class="cls-8" d="M72.16,29.21l2.09.94,4.29,2a14.47,14.47,0,0,0-.38-1.65c-.51-1.39-1.07-2.76-1.59-4.14a1.55,1.55,0,0,1,0-.53c1.43.24,1.4,1.58,1.89,2.52.17.33.33.67.47,1s.17.63.29.94.18.71.4.83a.82.82,0,0,1,.2,1.36,3.22,3.22,0,0,1-1.43.54c-.2,0-.46-.09-.65,0a1,1,0,0,1-1.27-.25c-.17-.18-.56-.15-.73-.37-.77-.5-1.5-1.06-2.3-1.49S72,30.21,72.16,29.21Z"/><path class="cls-14" d="M57.81,20.26a16.31,16.31,0,0,1,1.75,1.88,5.7,5.7,0,0,0,2.17,2c.57.27,1,.86,1.51,1.22.73.5,1.51.91,2.27,1.36l-.53.88H63.74c-.13-.11-.25-.23-.37-.35h0a2.61,2.61,0,0,0-2.15-1.61c-.24-.18-.48-.36-.71-.55-.42-.53-.32-1.6-1.45-1.42-.87,0-.73-.72-.9-1.23a7.25,7.25,0,0,0-.51-1C57.7,21.08,57.75,20.67,57.81,20.26Z"/><path class="cls-8" d="M65.88,26.89l4.78,1.7c.28.1.53.24.8.36-.48.57-1,.64-1.52.14a1.21,1.21,0,0,0-1.4-.45.85.85,0,0,1-1.19-.43c-.09-.2-.5-.25-.71-.43A10.8,10.8,0,0,1,65.88,26.89Z"/><path class="cls-8" d="M78.05,33.55c1.23.11.8,1.23,1.3,1.78C78.56,35.5,77.86,34.51,78.05,33.55Z"/><path class="cls-8" d="M73.36,22.45l.59,0c.59.63,1.56.95,1.58,2Z"/><path class="cls-8" d="M76.43,25.52l-.75-.93C76.3,24.61,76.5,25,76.43,25.52Z"/><path class="cls-9" d="M77.34,38.56c-.13-.29-.26-.58-.4-.87C77.76,37.67,77.4,38.19,77.34,38.56Z"/><path class="cls-9" d="M76.76,37.38l-.28-.45.15,0Z"/><path class="cls-10" d="M74,72.66a7.13,7.13,0,0,1,.31,1.27c0,.14-.32.31-.49.46a3,3,0,0,1-.47-.93c0-.23.26-.5.41-.75Z"/><path class="cls-10" d="M74.39,74.72c.11.14.25.25.23.29s-.17.18-.26.27c-.06-.08-.18-.16-.18-.25S74.29,74.87,74.39,74.72Z"/><path class="cls-10" d="M72.34,84.11l-.28-.22.28-.14Z"/><path class="cls-8" d="M39.51,14.68l-2.7,2.11c-.1-.49-.2-1-.36-1.72l1.45-.16a4.88,4.88,0,0,1,1-1.05c.82-.44,1.71-.77,2.57-1.14l.19.75-1.58.78-.53-.57Z"/><path class="cls-8" d="M36.66,16.86c-.47.49-.94,1-1.42,1.48-.2-.73-.51-.29-.82-.08-.62.41-.9.27-1-.51v-.36a6.42,6.42,0,0,1,.95-.86,1.51,1.51,0,0,1,.83-.14C35.48,17.26,36.15,16.8,36.66,16.86Z"/><path class="cls-9" d="M41.68,13.47l-.19-.75.17-.18c.52.05.76-.19.73-.7l1.25-.19v.76Z"/><path class="cls-8" d="M43.64,12.41v-.76l1.73-.28C45.16,12.33,44.27,12.15,43.64,12.41Z"/><path class="cls-9" d="M47.23,10.57l-1.09.7C46.39,10.85,46.47,10.19,47.23,10.57Z"/><path class="cls-8" d="M42.39,11.84c0,.51-.21.75-.73.7Z"/><path class="cls-3" d="M80.21,42.34l-.54-.54c.12-.15.23-.31.48-.66Z"/><path class="cls-3" d="M79.49,41.42l-.16-.36Z"/><path class="cls-1" d="M30.91,17.93l.69.1,0,.29-.72.14C30.9,18.28,30.9,18.1,30.91,17.93Z"/><path class="cls-3" d="M50.27,3.58a4.48,4.48,0,0,1,.27.93c0,.16-.16.34-.25.51C50,4.55,49.59,4.07,50.27,3.58Z"/><path class="cls-1" d="M53,25.81l.35,0h.82c0,.2,0,.53-.11.56a2.84,2.84,0,0,1-.84,0l-.21.5C53,26.53,53,26.17,53,25.81Z"/><path class="cls-1" d="M45.26,38.92c0,1.4,0,1.42-1.09,1.06Z"/><path class="cls-7" d="M26.38,56.78l-.54.57Z"/><path class="cls-13" d="M70.67,33.26l-2.26-.8L65,31.27a7.22,7.22,0,0,1,1.86-.72c.29,0,.64.6,1.07,1,.44-.21.95,0,1.4.63.16.22.58.24.83.42A3.59,3.59,0,0,1,70.67,33.26Z"/><path class="cls-1" d="M53.32,35.51l-.7-.16-.77,1.88-.68.24c-.05-.37-.13-.75-.16-1.13-.1-1,.8-1.38,1.41-1.85S53.31,34.57,53.32,35.51Z"/><path class="cls-9" d="M75,35.66a5.48,5.48,0,0,1-3.78-2c.15,0,.35,0,.43,0,.32.29.49.63,1.1.34.29-.14.87.31,1.32.5l.72.27Z"/><path class="cls-13" d="M63.92,30.64,62.63,30c.24-.62.6-1.05,1.29-.92Z"/><path class="cls-3" d="M61.22,25.64a2.61,2.61,0,0,1,2.15,1.61Z"/><path class="cls-3" d="M59.06,23.67c1.13-.18,1,.89,1.45,1.42Z"/><path class="cls-24" d="M47,38.58c-.3.36-.29,1.19-1.4.62l1.2-.89Z"/><path class="cls-3" d="M75,35.66l-.21-.86c.75,0,1.1.31.72,1.08Z"/><path class="cls-1" d="M50.28,34.43l-.81.16.51-1,.3.07v.81Z"/><path class="cls-1" d="M50.28,34.43l.7.24L50.8,35l-.52-.52Z"/><path class="cls-1" d="M56.2,32.09l-.36.55Z"/><path class="cls-3" d="M64.26,27.61h.37l-.14.27Z"/><path class="cls-3" d="M63.37,27.25c.12.12.24.24.37.35Z"/><path class="cls-1" d="M53.93,25.15S54,25,54,25s.1,0,.15,0,0,.13-.07.15S54,25.17,53.93,25.15Z"/><path class="cls-8" d="M56.75,16.52l1,.15c.07.28.13.55.2.83a3.28,3.28,0,0,0-.73-.19c-.12,0-.25.17-.37.26Z"/><path class="cls-8" d="M51.82,12l-.28-1.44.36.54.19.54Z"/><path class="cls-8" d="M34.86,18.82l-.37,1.09-.7-.6a4.69,4.69,0,0,1,.63-.47C34.53,18.77,34.71,18.82,34.86,18.82Z"/><path class="cls-2" d="M73.79,57.89l0,.21c-.18.13-.49.22-.52.38A5.08,5.08,0,0,1,69,62.42c-1,.17-2,.66-3,.88a16.14,16.14,0,0,1-2.94.33,14.93,14.93,0,0,1-3.28-.24,10.17,10.17,0,0,1-2.51-1.06,1.6,1.6,0,0,1-.79-1.9c0-.24.37-.46.61-.62,1.25-.89,2.37.23,3.56.27a15.46,15.46,0,0,0,7.93-2c1.09-.57,2.2-1.09,3.31-1.64a4.45,4.45,0,0,0,.64.66C72.87,57.42,73.34,57.64,73.79,57.89Z"/><path class="cls-7" d="M51.88,85.1l-.34,0V82.31l-.73.9c-1.13-.14-1.18-1.1-1.43-1.91l1.6-.17a1.63,1.63,0,0,0-.1.41c0,.24,0,.48.08.72.22-.11.53-.17.63-.34a2.53,2.53,0,0,0,.13-.85,3.21,3.21,0,0,1,1-.31,10.65,10.65,0,0,0,6.13-2,6.68,6.68,0,0,1,1.88-.67c.12,0,.42.23.47.4a1.68,1.68,0,0,1,0,.89c-.07.28-.33.52-.39.8a4.25,4.25,0,0,1-3.12,3.32c-.79.24-1.61.39-2.42.57-.63-.82-1.5-.25-2.14-.39Zm2.4-3.28c.26.48.34.66.45.83a2,2,0,0,0,.43.53c.05,0,.38-.13.4-.23,0-.27.09-.7-.06-.81A3.91,3.91,0,0,0,54.28,81.82Zm-.22.71c-.14-.09-.23-.19-.3-.18a.31.31,0,0,0-.21.22c0,.06.13.21.19.2S53.91,82.65,54.06,82.53Zm-1.27-.26L52.67,82a.91.91,0,0,0-.2.19s.07.15.13.17S52.71,82.32,52.79,82.27Z"/><path class="cls-9" d="M49.38,81.3c.25.81.3,1.77,1.43,1.91,0,.11.11.21.15.32.32,1,.15,1.15-.86,1-.38-.07-.78-.11-1.17-.16a1.46,1.46,0,0,0,.5.68,2.31,2.31,0,0,1,.29.45h-.51c-.45-.44-.86-.61-1.1.18a5.22,5.22,0,0,1-1.63-.45c-.9-.61-2-1-2.66-1.94-.46-.67-.72-1.6-.22-2s1.09-1,1.9-.45a12.21,12.21,0,0,0,1.36.66l.28.41.27-.26.87-.1c.5.5.38-.19.56-.3Z"/><path class="cls-14" d="M37.14,51c-.14-.16-.43-.41-.4-.48.29-.52.64-1,1-1.57l.74.59c.08-1.53,1.28-.41,1.9-.86l-.05-.84,2.81-1.52A43.64,43.64,0,0,1,40,49.47,16.71,16.71,0,0,1,37.14,51Z"/><path class="cls-1" d="M73.79,57.89c-.45-.25-.92-.47-1.35-.75a4.45,4.45,0,0,1-.64-.66c.66-.19.53-.71.5-1.19L72,55l-.35-.48c0-.48.09-1,.14-1.43a7.84,7.84,0,0,1,1.19.86,1,1,0,0,1,.11.78,2.4,2.4,0,0,1-.37.68c.38.12.85.13,1,.35s-.09.63-.12.76Z"/><path class="cls-17" d="M37.71,65.92a4.52,4.52,0,0,1,2.59-1.38c.27-.09.47-.38.71-.57.11.43.23.9.36,1.36Z"/><path class="cls-23" d="M49.72,85.47a2.31,2.31,0,0,0-.29-.45,1.46,1.46,0,0,1-.5-.68c.39,0,.79.09,1.17.16,1,.18,1.18,0,.86-1,0-.11-.1-.21-.15-.32l.73-.9v2.81Z"/><path class="cls-23" d="M51.88,85.1l1.26-1.43c.64.14,1.51-.43,2.14.39-.18.18-.34.47-.56.52C53.78,84.79,52.83,84.93,51.88,85.1Z"/><path class="cls-17" d="M35.56,66c0-.17-.17-.42-.1-.5.53-.67.18-1.22-.31-1.88l1.52.15-.35,1.08.75.57h-1l.35.46Z"/><path class="cls-14" d="M44.57,45.25A5.74,5.74,0,0,1,44.46,44c0-.14.38-.37.55-.34a2.36,2.36,0,0,1,.76.41Z"/><path class="cls-14" d="M48.32,41.64A2.19,2.19,0,0,1,50.08,40Z"/><path class="cls-23" d="M51.72,81.07a2.53,2.53,0,0,1-.13.85c-.1.17-.41.23-.63.34,0-.24-.07-.48-.08-.72a1.63,1.63,0,0,1,.1-.41Z"/><path class="cls-17" d="M31.8,65.27c.83-.53,1.19-.4,1.45.51Z"/><path class="cls-17" d="M33.78,65.78c.5-.56.94-.73,1.27.15Z"/><path class="cls-14" d="M47.07,42.9c0-.66.34-1,1-.95C47.75,42.26,47.41,42.58,47.07,42.9Z"/><path class="cls-14" d="M50.48,39.49c-.06-.54-.12-1.08.72-.92Z"/><path class="cls-23" d="M48.11,85.66c.24-.79.65-.62,1.1-.18Z"/><path class="cls-23" d="M48.84,81.23c-.18.11-.06.8-.56.3Z"/><path class="cls-23" d="M47.41,81.63l-.27.26-.28-.41Z"/><path class="cls-2" d="M72,55l.31.3Z"/><path class="cls-17" d="M31,65l.44.26Z"/><path class="cls-2" d="M69.62,81.6c-.1.06-.18.15-.22.14a.93.93,0,0,1-.21-.19.57.57,0,0,1,.21-.1C69.47,81.46,69.52,81.53,69.62,81.6Z"/><path class="cls-3" d="M78.47,40.7c.41.14.45.32,0,.52C78.5,41.05,78.48,40.87,78.47,40.7Z"/><path class="cls-3" d="M72.34,21.38l-1.4-.75c0-.28.09-.59.13-.9l1.58.92c.5.28.38.57,0,.87Z"/><path class="cls-3" d="M58,17.5c-.07-.28-.13-.55-.2-.83l2,.19-1.26.7Z"/><path class="cls-3" d="M70.91,19.72h-.56l.32-.46Z"/><path class="cls-9" d="M39.51,14.68l.06-1,.53.57Z"/><path class="cls-23" d="M54.28,81.82a3.91,3.91,0,0,1,1.22.32c.15.11.1.54.06.81,0,.1-.35.27-.4.23a2,2,0,0,1-.43-.53C54.62,82.48,54.54,82.3,54.28,81.82Z"/><path class="cls-23" d="M54.06,82.53c-.15.12-.23.23-.32.24s-.2-.14-.19-.2a.31.31,0,0,1,.21-.22C53.83,82.34,53.92,82.44,54.06,82.53Z"/><path class="cls-23" d="M52.79,82.27c-.08,0-.15.14-.19.13s-.15-.14-.13-.17a.91.91,0,0,1,.2-.19Z"/></g></svg>