<svg xmlns="http://www.w3.org/2000/svg" viewBox="0 0 100 100"><defs><style>.cls-1{fill:#9c9d8b;}.cls-2{fill:#cfcec5;}.cls-3{fill:#aeae9f;}.cls-4{fill:#b6b6a8;}.cls-5{fill:#c5c5bb;}</style></defs><g id="Ebene_22" data-name="Ebene 22"><path class="cls-1" d="M77.93,64.54l.84-.11c.22.12.6.22.62.37.16.93.23,1.87.35,3-2.15-.86-3.17.21-3.95,1.75.36,1.08.73,2.17,1.19,3.56l.7-1.39c.14.07.29.12.42.19l.46.31c1.12-1.15.11-2.7.84-3.86.95.26.47,1.14.92,1.67l1,.12a16.52,16.52,0,0,0-.21,6.42,4.7,4.7,0,0,1,.21,1.94c-.29,1.12.07,2.59-1.44,3.21-.7-.13-1.47-.72-2.09.2l-.47.06c-.23-.25-.57-.75-.69-.71-.88.37-1.47-.3-2.19-.5a2.67,2.67,0,0,0-.62-.55c-.36-.18-.78-.21-1.14-.38-1-.49-2-1-3.29-1.65.18.93,0,1.45-.56,1.82-.21.13-.25.53-.38.8a7.92,7.92,0,0,1-4.78.19,18.15,18.15,0,0,0-4.61-.54,3.87,3.87,0,0,0-1.91-2.61c-.8-.49-2-.32-2.88-.43-.72,1.38.09,2.19.66,3.07-.21,0-.45,0-.62,0a3.91,3.91,0,0,0-3.82.17,2.89,2.89,0,0,1-3.1-.42c-.05-.28-.1-.56-.15-.78-1.43.1-2.6-.08-3.43-1.31a4.25,4.25,0,0,0-1.09-.77A1.17,1.17,0,0,1,43.93,76c.56,0,1.11-.21,1.67-.24a10.31,10.31,0,0,0,3.19-.46,7.8,7.8,0,0,1,2.73,0c.34,0,.69,0,1.1.07l.16-1.14c.64,0,.86-.43.91-1a2.7,2.7,0,0,1,2.31.34l.2.91a4.55,4.55,0,0,0,4.16,1.2c.82-.12,1.63-.34,2.43-.54.43-.11.83-.28,1.25-.42l.64,0c.34.19.8.63,1,.53,1.35-.62,2.29.44,3.41.72l-.83,1.09c1.3.23,1.3.23,1.44-1.05l.9-.06.66-.23a7.78,7.78,0,0,0,1.53-.06c.86-.18,1.88-.13,2.26-1.22.19-.25.59-.53.55-.73-.13-.72-.29-1.39.27-2l-.49-.44-.68,0,0-.05a5.57,5.57,0,0,1,.43-1.93A3.67,3.67,0,0,0,75.35,66l.52-1.19C77.3,65.5,77.3,65.5,77.93,64.54Zm-29,13.14c2.05,2,2.05,2,2.87,1Z"/><path class="cls-1" d="M41.41,44.37a.91.91,0,0,1-.26-.13c-.82-1.42-2.13-1.35-3.48-1.15a3,3,0,0,1-1.51-2.68c0-1.82,0-3.64,0-5.46,1-1.1,1.87-2.26,1.13-4.05.61.14,1,.21,1.38.31,1.16.32,1.17.32,1.82-1a2.64,2.64,0,0,0,0-.28c.45-.49.92-1,1.35-1.48,1.31-1.55,2.87-1.21,4.31.34A37.65,37.65,0,0,1,49,32.69l-.1,1.73-1.11.44-1.5-1.11a2.35,2.35,0,0,0,1.19,3,11.88,11.88,0,0,0,1.79.39c.46,1.22,1.33,2.35.84,3.78-.38.08-.78-1.26-1.16,0l-.77-.07.37-.9c-1.29-.82-1.29-.82-2.65-.58V41c1.8.61,2,.87,1.61,2.56a28.93,28.93,0,0,1-3,.73A29.48,29.48,0,0,1,41.41,44.37Z"/><path class="cls-1" d="M14.8,28.58c-.08-3.17-.24-6.34-.23-9.5,0-2.23.24-4.46.38-6.89a51.13,51.13,0,0,1,7.3.17c.52.9,1.44.77,2.26.87,1,.12,1.93.26,2.39,1.32.3.51.6,1,.88,1.55A2.1,2.1,0,0,1,28.06,18c-.5,1.34-1.88,2-2.6,3.15-.09.15-.49.11-.75.16.18-.52-.15-.49-.45-.38-.61.23-1.21.49-1.88.77a2.24,2.24,0,0,0,1.38,1.89c0,2.29-1.9,2.24-3.28,2.76v.83l-2,.88c-1,0-2-.2-2.94.54C15.4,28.7,15.05,28.58,14.8,28.58Z"/><path class="cls-2" d="M90.83,37.05c.17,1.6.45,3.2.48,4.8,0,2.19-.15,4.38-.14,6.57,0,4.22.15,8.45.2,12.68,0,2.09,0,4.18,0,6.27,0,1.39.19,2.78.22,4.17,0,1-.09,2.07-.15,3.11l-.09,1.56C91.16,79.59,91,83,90.7,86.34a1.82,1.82,0,0,1-.65,1.15,1,1,0,0,1-1.68-.62A18.67,18.67,0,0,1,88.2,84c0-.79.09-1.57.07-2.35a34.89,34.89,0,0,1,.54-6.53,18.36,18.36,0,0,0,.09-3c0-4.08,0-8.16,0-12.24,0-1.65-.22-3.29-.22-4.94a43.07,43.07,0,0,0,.2-4.52c-.49-4.43-.11-8.87-.28-13.3h1.25Z"/><path class="cls-2" d="M67.84,44.06c-.09.06-.17.16-.26.17-2.26.24-4.51.5-6.77.71s-4.62.43-6.94.57a8.11,8.11,0,0,1-1.8-.28c-.11-.84.64-1.19,1-1.76,1.5-.45,2.61.51,3.86,1.26.52-.62,1-1.17,1.47-1.72.23-.82.92-.48,1.44-.53,2.4-.23,4.81-.43,7.4-.65-.16-3.3-.31-6.38-.46-9.5l-.49.12c-.22-.83.42-1.17.9-1.61l1.68-.47,0-.22-1.52-.32-.13,1c-.21-.23-.54-.44-.61-.71-.39-1.5-.63-1.65-2.11-1.14-.34-.59-.66-1.19-1-1.75a3,3,0,0,0-.92-1c-1.13-.61-2.32-1.11-3.48-1.65.36-.34.21-1.05.86-1.18a27.6,27.6,0,0,1,2.87.61,6.11,6.11,0,0,1,4.3,4.13,6.25,6.25,0,0,0,.48.77,27.16,27.16,0,0,1,0-3.29c.23-1.72.6-3.42.91-5.13.68.43,1.2,1.37,2.21.61.07.14.22.28.21.4-.16,1.75-.38,3.5-.53,5.24-.31,3.62-1,7.22-.67,10.87.11,1.33.32,2.66.46,4,0,.18-.11.37-.16.55a7.17,7.17,0,0,0-1.27-.57,1.39,1.39,0,0,0-1,.13,12.48,12.48,0,0,0-1.38,1.35A1.34,1.34,0,0,0,67.84,44.06Z"/><path class="cls-2" d="M39.51,17.31a10.65,10.65,0,0,1,5-.42,16.45,16.45,0,0,0,1.87.15c2.79.2,5.59.48,8.39.57,2.12.06,4.25-.12,6.39-.17,2.63-.06,5.28-.35,7.9.18a4.36,4.36,0,0,1-.94.93c-.66.36-.68.92-.64,1.53a11.84,11.84,0,0,0-4.32,0c-1.62.25-3.29.25-4.94.34a8.72,8.72,0,0,1-1.25,0l-8.21-.58c-.62-.05-1.24-.13-1.85-.2-1.13-.12-2.26-.32-3.39-.35s-2.06.14-3.09.22a12.89,12.89,0,0,0-.34-1.64C40.05,17.64,39.73,17.49,39.51,17.31Z"/><path class="cls-2" d="M26.9,14.55c-.46-1.06-1.41-1.2-2.39-1.32-.82-.1-1.74,0-2.26-.87A5.33,5.33,0,0,1,23.56,12c2.76.08,5.52.2,8.28.31a2.22,2.22,0,0,1,2,1.49A8.34,8.34,0,0,1,34,20.21c-.56,1.76-.37,3.51-.64,5.25a41.19,41.19,0,0,0-.2,5.1,3.72,3.72,0,0,0-2.53-.67,17.76,17.76,0,0,1-.23-2.29c.07-2.29.2-4.58.32-6.86.07-1.19.2-2.38.26-3.57.05-.82,0-1.64,0-2.55C29.59,14.24,28.27,13.78,26.9,14.55Z"/><path class="cls-2" d="M11.38,49.43a9.5,9.5,0,0,1,.55-2c.78-1.44,1.45-3,3.09-3.77.47-.22.79-.77,1.14-1.2.17-.19.24-.47.41-.65.46-.5.94-1.12,1.72-.73s.76,1,.75,1.76c0,1.16,0,2.33,0,3.5a6.41,6.41,0,0,1-1.14,4.56,4.06,4.06,0,0,1-2.71,1.63,1.09,1.09,0,0,0-1.1,1.08c-.24,2.47-.44,4.95-.65,7.43l-.07.07-1.08-1L11,60.71c.09-1.13.17-2.25.27-3.38.1-1,.18-1.95.35-2.92a9.29,9.29,0,0,1,.58-1.57l1.61-.5a2,2,0,0,0,1.5-1.26l-.85-1.47a3.49,3.49,0,0,0,1.57-4l-1.57.94c-.7-.05-.88.53-1.23.95C12.66,48.19,12,48.79,11.38,49.43Z"/><path class="cls-2" d="M26.93,64.08a3.87,3.87,0,0,1,2.68-.54c1.36,0,1.57-.26,1.32-1.58a4.55,4.55,0,0,1,1.35-4.33c2.37-2.52,5.25-2.31,8.21-2.18.2,0,.42.2.59.15,1.93-.56,3.82.34,5.73.11.46-.05.91-.18,1.38-.22.79-.07,1.63-.43,2.34.28-.71.61-.27,1.38-.3,2.09-.51.07-1,.17-1.54.22-1.34.13-2.67.3-4,.33-1.08,0-2.17-.26-3.25-.24-2,0-4,.13-5.9.33s-3.29,1.22-2.87,3.75a15.82,15.82,0,0,1,.06,2A1.24,1.24,0,0,0,31,64.09a1.67,1.67,0,0,1-2,.13C28.32,63.8,27.56,65,26.93,64.08Z"/><path class="cls-2" d="M13.14,79.25a3.66,3.66,0,0,1,1,.61q1.92,2.25,3.73,4.58A1,1,0,0,1,17.79,86a1,1,0,0,1-1.39-.26c-.64-.69-1.22-1.42-1.86-2.11-.46-.49-1-.93-1.42-1.37a23.56,23.56,0,0,1-.56,3.57A3,3,0,0,1,9.87,88c-.14-1-.31-1.86-.4-2.76s-.1-1.73-.15-2.71c-.25.16-.42.21-.48.32-1.12,1.91-3.07,2.9-4.73,4.2a2.12,2.12,0,0,1-1.18.35C2,87.35,1,87.24,0,87.16a11.67,11.67,0,0,1,1.2-.92c2.49-1.49,4.07-4,6.4-5.66a6.34,6.34,0,0,1,.82-.42,8.89,8.89,0,0,0,.63,1.1c1-.41,1,.67,1.46.95C12,81.7,13.61,81.4,13.14,79.25ZM10.43,83c-.1,1,.47.92.94.92.06,0,.13-.08.23-.14Z"/><path class="cls-1" d="M40.75,81.35a7.75,7.75,0,0,1-4.67,0c-1.23-1.18-2.81-1.36-4.39-1.54h0a1.36,1.36,0,0,0-1.27-1.59v0c-.66-1.73-.34-2.35,1.25-2.51H33a6.66,6.66,0,0,0,3.2,0,6.64,6.64,0,0,1,2.59-.2,5.33,5.33,0,0,1,3.59,2.13l0,2.43Z"/><path class="cls-2" d="M54.29,57.64A6.89,6.89,0,0,1,58,55.91a20.64,20.64,0,0,1,6.47-.3c2.58.27,5.21,0,7.81.08a11,11,0,0,1,1.49.24l-1.41.93.48,1.56a9,9,0,0,1-4.15.31c-2.94-.21-5.89-.41-8.83-.53a22.87,22.87,0,0,0-3.08.27,11.57,11.57,0,0,1-1.16-.29C55.19,58,54.74,57.82,54.29,57.64Z"/><path class="cls-2" d="M40.75,81.35l1.61-1.19a17.59,17.59,0,0,0,5,0,2.89,2.89,0,0,0,3.1.42,3.91,3.91,0,0,1,3.82-.17c.17.09.41,0,.62,0l4.13,0a18.15,18.15,0,0,1,4.61.54,7.92,7.92,0,0,0,4.78-.19A7.38,7.38,0,0,0,70,81c1.49-.05,3-.18,4.46-.28.72.2,1.31.87,2.19.5.12,0,.46.46.69.71-.65,0-1.31.11-2,.13-1.19.05-2.38.08-3.57.12-.47,0-.94.09-1.4.1-2,0-4.07.1-6.1,0-3.21-.14-6.42-.45-9.63-.59-2.29-.1-4.59,0-6.88,0S43.08,81.47,40.75,81.35Z"/><path class="cls-3" d="M26.93,64.08c.63.88,1.39-.28,2.08.14a1.67,1.67,0,0,0,2-.13,1.24,1.24,0,0,1,1.69.11,13.73,13.73,0,0,0-.15,2c.06.91-.36,1.89.33,2.72-.22,1,.93.73,1.3,1.43L32.37,71l-.06,1.32c-.42,0-.86,0-.93-.58-.1-.93-.26-1.85-.31-2.77s0-1.94,0-3.08l-2.18-.18A2.28,2.28,0,0,0,28.49,68a6.35,6.35,0,0,1,.14,1.65L28.87,75A11,11,0,0,1,29,76.51c-.17,1.55-.11,1.65,1.48,1.78h0l-1.21,1.16,2.48.42h0v1.57l-2.82.32h0c-.1-.23-.13-.56-.31-.68a1.73,1.73,0,0,1-.78-2.12,3.94,3.94,0,0,0,0-2.1c-.89-3-.32-6.14-.67-9.19a3.71,3.71,0,0,0-1-2.56C25.9,64.37,26.39,64.21,26.93,64.08Z"/><path class="cls-3" d="M39.51,17.31c.22.18.54.33.62.56a12.89,12.89,0,0,1,.34,1.64l-.37.3c-1.14.67-1.05.66-1,1.89s0,2.69,0,4S39,28.27,39,29.54c0,.27.25.54.36.77l1.17-.07c-.65,1.29-.66,1.29-1.82,1-.38-.1-.77-.17-1.38-.31.74,1.79-.09,3-1.13,4.05.17-5,.3-9.91.51-14.85C36.78,17.84,37.24,17.48,39.51,17.31Z"/><path class="cls-2" d="M13.48,61l2-.56c.4.5.8,1,1.17,1.47A2.25,2.25,0,0,1,17,64.25c-.55,1.34-1.07,2.7-1.7,4.28.55-.09.93-.14,1.3-.22a1,1,0,0,1,1.31.57,1.47,1.47,0,0,1-.33,1.24A3.78,3.78,0,0,1,16,71a5,5,0,0,1-3.07.08,3,3,0,0,0-.94,0c-.09-.46-.17-.92-.29-1.53L9,69.13a25.72,25.72,0,0,1,2.76-.25,1.18,1.18,0,0,0,1.34-1.18c.21-1.44.44-2.87.7-4.51l-2-.22-1.18-.12c.16-1,.72-.88,1.48-.68,1.14.28,1.25.14,1.31-1.11Z"/><path class="cls-4" d="M53.06,43.47c-.35.57-1.1.92-1,1.76-1.75-.14-3.51-.18-5.25-.43a7.27,7.27,0,0,0-3.82.11,1.24,1.24,0,0,1-1.59-.54,29.48,29.48,0,0,0,3.12-.1,28.93,28.93,0,0,0,3-.73c.35-1.69.19-1.95-1.61-2.56V39.35c1.36-.24,1.36-.24,2.65.58l-.37.9.77.07h0l.32.34c1.29.45,1.48.4,2.21-.63l.63,0,1.38.52-.3.83,1.18.57Z"/><path class="cls-2" d="M26.07,65.09a3.71,3.71,0,0,1,1,2.56c.35,3-.22,6.17.67,9.19a3.94,3.94,0,0,1,0,2.1,1.73,1.73,0,0,0,.78,2.12c.18.12.21.45.31.68-2.23-.06-2.81-.66-3.17-2.75-.53-3.11-.19-6.22-.2-9.33,0-1.12.39-2.22,0-3.38C25.42,66,25.87,65.5,26.07,65.09Z"/><path class="cls-5" d="M6.57,50.57c-3.41-.42-4.46-1.92-5.33-5a20.74,20.74,0,0,1-.64-6,13.26,13.26,0,0,0-.26-2.16,1.79,1.79,0,0,1,.93-2.12,3.33,3.33,0,0,1,1.82,2.16,1.86,1.86,0,0,0-1.92,1.22c1.32.69,1.12,2.06,1.26,3.23a9.21,9.21,0,0,0,1,3.69l1.5,2c-.54.47-1.4-.06-1.64.76.05.08.08.15.11.16.63.06,1.59-.14,1.68.64.12,1.1,1.31.21,1.45,1A3.59,3.59,0,0,1,6.57,50.57Z"/><path class="cls-2" d="M77.78,81.91c.62-.92,1.39-.33,2.09-.2,1.51-.62,1.15-2.09,1.44-3.21a4.7,4.7,0,0,0-.21-1.94,16.52,16.52,0,0,1,.21-6.42c0-.46,0-.91,0-1.37.07-.8.17-1.6.25-2.41.09.13.26.26.26.38-.07,1.81.54,3.57.16,5.43s.06,4,.36,6.06a14.44,14.44,0,0,1,.16,1.86,2.41,2.41,0,0,1-2.1,2.63c-.14,0-.28.12-.5.21-.06.32-.26.71-.16,1,.33,1-.35,1.76-.73,2.55a1,1,0,0,1-.85.45,1.1,1.1,0,0,1-.59-.77,7,7,0,0,1,.71-4Z"/><path class="cls-2" d="M33,31.51a1.45,1.45,0,0,1-1.44,1.21c-2.44.1-4.88.28-7.32.28-2.23,0-4.47-.21-6.7-.32,1-.91,1-.91.31-2.11a30,30,0,0,1,5.12.21,37.69,37.69,0,0,0,7.86.36Z"/><path class="cls-3" d="M97.88,28.39c.09.48.18,1,.28,1.45-.29.26-.56.54-.86.78s-.85.62-1.27.93c-1.52-.88-1.69-.85-2.68.41-1.16,1.47-2.19,1.67-3.84.75,0-.68-.16-1.23-1-1.19a.69.69,0,0,1-.25-.1c0-.71,0-1.43,0-2.14h0l2-.07-.07.06.08-.05A1.43,1.43,0,0,0,91,30.75c.61.26.73-.4,1-.75l3.14-2a2.85,2.85,0,0,0,.86.08c.16,0,.28-.25.42-.4Z"/><path class="cls-4" d="M54.29,57.64c.45.18.9.39,1.36.54a11.57,11.57,0,0,0,1.16.29h-.32l-.67.08L55.52,61a.74.74,0,0,0,.08,1.25v1.55a.57.57,0,0,1,0,.26l.23,1.64V66l-1.53-.21L53.74,67a4.84,4.84,0,0,1-.3-1.16c0-1.3,0-2.61,0-3.91a4.18,4.18,0,0,0-3.19-4c0-.71-.41-1.48.3-2.09C52.08,55.79,53.18,56.73,54.29,57.64Z"/><path class="cls-2" d="M4.66,38.08a.78.78,0,0,1,.31,0c2.6,1.75,5.2,3.51,5.34,7.12a4.34,4.34,0,0,0,.11.61c.33,1.53.11,2-1.27,3C9,47.89,7.9,48,7.46,47.36a7.83,7.83,0,0,0,.37-1A3.33,3.33,0,0,0,8,44.92,6.38,6.38,0,0,0,6.29,41.7C5.48,41,4.76,40.2,4,39.44Z"/><path class="cls-2" d="M8.64,50c.43,2.8.89,5.59,1.28,8.39A25.78,25.78,0,0,1,10,61c-.63-.43-1.18-.83-2-.18A1.41,1.41,0,0,1,6.23,61l1.34-.53c-.17-1.56-.37-3.19-.51-4.81s-.23-3.17-.34-4.76c.22-.06.61-.07.64-.19C7.57,50,8.1,50,8.64,50Z"/><path class="cls-5" d="M76.91,46.89c.68-1.14,1.35-2.3,2.06-3.42q1.26-1.95,2.6-3.87a2.53,2.53,0,0,1,.79-.74c.43-.23.92-.7,1.41-.22a1.36,1.36,0,0,1,.42,1.69c-1.36,2.26-2.62,4.62-5.1,5.93-.32.16-.55.48-.87.63a5.56,5.56,0,0,1-1.08.3Z"/><path class="cls-4" d="M6.23,61A1.41,1.41,0,0,0,8,60.82c.83-.65,1.38-.25,2,.18l1-.29L12.33,60l1.08,1c-.06,1.25-.17,1.39-1.31,1.11-.76-.2-1.32-.28-1.48.68l-.6,0-.14-.35-.16.41a.58.58,0,0,1-.26.06l-.41.18L6.6,63l-.06.84-1,.35-1.84-.67-.93-1.87C3.79,60.61,5.11,61.23,6.23,61Z"/><path class="cls-4" d="M81.6,66.36c-.08.81-.18,1.61-.25,2.41,0,.46,0,.91,0,1.37l-1-.12c-.45-.53,0-1.41-.92-1.67-.73,1.16.28,2.71-.84,3.86l-.46-.31c-.13-.07-.28-.12-.42-.19L77,73.1c-.46-1.39-.83-2.48-1.19-3.56.78-1.54,1.8-2.61,3.95-1.75-.12-1.12-.19-2.06-.35-3,0-.15-.4-.25-.62-.37l1.59-.22.59.6Z"/><path class="cls-4" d="M8.64,50c-.54,0-1.07,0-1.28.73,0,.12-.42.13-.64.19l-.15-.32a3.59,3.59,0,0,0-.05-.46c-.14-.78-1.33.11-1.45-1C5,48.34,4,48.54,3.39,48.48c0,0-.06-.08-.11-.16.24-.82,1.1-.29,1.64-.76l-1.5-2c.14-.11.41-.23.4-.33-.1-1.06-.31-2.12-.36-3.19a8.39,8.39,0,0,1,.25-1.78c1,2.21,2.1,4.41,3.12,6.64.14.33.23.56.63.43.44.62,1.5.53,1.69,1.46a.73.73,0,0,1-.08.25l-.32.32Z"/><path class="cls-3" d="M98.93,33.36a5.57,5.57,0,0,1,1,3c.11,1,0,1.32-.94,1.67a3,3,0,0,1-1.2.24c-1.12-.08-2.25-.21-3.36-.37-.21,0-.37-.32-.55-.49.13-.94.41-1.77,1.55-1.91a2.81,2.81,0,0,0,0-.51,5.31,5.31,0,0,0,1.07-.14c.17,0,.26-.34.39-.52C97.56,33.89,98.05,33.26,98.93,33.36Z"/><path class="cls-3" d="M9,69.13l2.64.42c.12.61.2,1.07.29,1.53l-.06.91-.93.29a4.36,4.36,0,0,0-.73-.57,8.42,8.42,0,0,0-1.11-.35l-5.08.3v-2L5,69.18c0-.11.06-.22.08-.32a3.61,3.61,0,0,1,1-.22c.65,0,1.29.17,1.94.26l.11.1.36.15Z"/><path class="cls-2" d="M87.3,23.43a27,27,0,0,1,7.87.3,1.52,1.52,0,0,1-.52,1.62l.42,1.2a5.74,5.74,0,0,0-3.47-.69,12.63,12.63,0,0,1-4.94-.06A4.76,4.76,0,0,1,87.3,25C88.11,24.37,88.12,24.28,87.3,23.43Z"/><path class="cls-2" d="M77.93,64.54c-.63,1-.63,1-2.06.3-.17.4-.34.8-.52,1.19H75a18.06,18.06,0,0,0-.68-7.16c.69-.11.92-.63,1-1.23s0-.93.07-1.4a4,4,0,0,1,1.51,3.42c0,1.4.17,2.79.34,4.18C77.29,64.1,77.7,64.31,77.93,64.54Z"/><path class="cls-5" d="M28.87,81.74l2.82-.32V79.85c1.58.18,3.16.36,4.39,1.54a8.36,8.36,0,0,1-1.47.31c-1.09,0-2.18,0-3.22,0,0,1.43,0,2.7,0,4,0,.26,0,.65-.11.75-.47.34-1,.84-1.53.79-.66,0-.43-.7-.36-1.25.15-1.24.15-2.49.22-3.77Z"/><path class="cls-2" d="M8,68.9c-.65-.09-1.29-.23-1.94-.26a3.61,3.61,0,0,0-1,.22c-.14-.42-.34-.83-.44-1.26-.31-1.36-.6-2.72-.9-4.08l1.84.67,1-.35A12.45,12.45,0,0,1,8,68.9Z"/><path class="cls-4" d="M13.14,79.25c.47,2.15-1.18,2.45-2.63,3-.44-.28-.45-1.36-1.46-.95a8.89,8.89,0,0,1-.63-1.1h0l.32-.31L9.47,78l2.1-.33.87.34Z"/><path class="cls-4" d="M87.3,23.43c.82.85.81.94,0,1.6a4.76,4.76,0,0,0-.64.77h0a.8.8,0,0,0-.31,0h-.62l-.33.28c-.11.54-.21,1.09-.32,1.63l-.62.28-1.55-1.56.26-2.29c.42-.87,1.31-.88,2.23-.79l.65,0Z"/><path class="cls-5" d="M11.57,77.67,9.47,78a5.1,5.1,0,0,1-.32-1.17c0-1.82,0-3.65,0-5.47a8.42,8.42,0,0,1,1.11.35,4.36,4.36,0,0,1,.73.57c-.18.61-.23,1.16.6,1.3Z"/><path class="cls-3" d="M90.83,37.05l-1,.06c0-.42-.06-.84-.08-1.26a1.71,1.71,0,0,1-2,1,6.62,6.62,0,0,0-.77,0c-1.64-.08-3.28-.17-4.92-.21-.52,0-.78-.19-.78-.71.33-.26.36-.51-.09-.64-.63-.18-.86-.58-.91-1.4.49.27.78.44,1.09.6.51.25,1,.73,1.53.69,1.6-.13,3,.56,4.46.89a5.93,5.93,0,0,0,1.08.07L88.55,35c1.43-.11,2.08.75,2.43,2Z"/><path class="cls-4" d="M14.47,49.61l.85,1.47a2,2,0,0,1-1.5,1.26l-1.61.5-.45-1.94c-.12-.49-.25-1-.38-1.47.63-.64,1.28-1.24,1.86-1.92.35-.42.53-1,1.23-.95l.21.93-.79.56.52.39Z"/><path class="cls-5" d="M84,51c-.4-2.4.86-4.38,1.17-6.58a2.22,2.22,0,0,1,1.72,2.25A4.5,4.5,0,0,1,84,51Z"/><path class="cls-4" d="M88.55,35l-.11,1.16A5.93,5.93,0,0,1,87.36,36c-1.48-.33-2.86-1-4.46-.89-.49,0-1-.44-1.53-.69-.31-.16-.6-.33-1.09-.6,0,.82.28,1.22.91,1.4.45.13.42.38.09.64-2-.61-2.25-1.54-1-3.53l2.49,1.33c0,.1.05.21.07.31l1.91.28.61,0c0,.45.27.68.73.55s1-.3,1.47-.45l.91,0Z"/><path class="cls-2" d="M94.85,39.61c2.29.49,2.88,2.09,3.27,3.69a5,5,0,0,1-.38,2.24c0,.17-.38.27-.79.54C96.4,43.86,95.09,42.07,94.85,39.61Z"/><path class="cls-2" d="M88.55,35l0-.52a22.58,22.58,0,0,1,3.51.23A7.87,7.87,0,0,0,95.5,35a2.81,2.81,0,0,1,0,.51c-1.14.14-1.42,1-1.55,1.91L91,36.92C90.63,35.7,90,34.84,88.55,35Z"/><path class="cls-2" d="M82.82,33.7l-2.49-1.33,2.58-5.92L84.46,28c-1.3.6-1.66,1.86-2.1,3-.3.79.06,1.3.9,1.43Z"/><path class="cls-1" d="M3.71,40.29a8.39,8.39,0,0,0-.25,1.78c0,1.07.26,2.13.36,3.19,0,.1-.26.22-.4.33a9.21,9.21,0,0,1-1-3.69c-.14-1.17.06-2.54-1.26-3.23a1.86,1.86,0,0,1,1.92-1.22l.26.07c.13.62.27,1.23.4,1.84Z"/><path class="cls-5" d="M67.52,20.08c0-.61,0-1.17.64-1.53a4.36,4.36,0,0,0,.94-.93c.7.07,1.41,0,2,.62s.65,1.13-.13,1.6l-.27.36c0,.3,0,.6,0,.89-1,.76-1.53-.18-2.21-.61Z"/><path class="cls-3" d="M17.84,30.57c.67,1.2.67,1.2-.31,2.11s-1,.93-2.45-.09c-.11-.75-.21-1.39-.3-2,.92-.24.92-.24,1.45.45l1.06-.56Z"/><path class="cls-4" d="M67.84,44.06a1.34,1.34,0,0,1-1.51-1,12.48,12.48,0,0,1,1.38-1.35,1.39,1.39,0,0,1,1-.13,7.17,7.17,0,0,1,1.27.57C70,44,69.75,44.18,67.84,44.06Z"/><path class="cls-2" d="M98.93,33.36c-.88-.1-1.37.53-2,1L96,31.55c.42-.31.86-.61,1.27-.93s.57-.52.86-.78C98.41,31,98.67,32.18,98.93,33.36Z"/><path class="cls-2" d="M95.23,51c-.55-.52-1.08-.77-1.14-1.11-.26-1.48-1.55-2.76-1-4.45C94.35,45.92,95.41,48.56,95.23,51Z"/><path class="cls-5" d="M95.07,26.55l-.42-1.2a1.52,1.52,0,0,0,.52-1.62l.62,0,.33.21h0c.37.64.75,1.28,1.08,1.86l-.79,1.92c-.14.15-.26.38-.42.4a2.85,2.85,0,0,1-.86-.08Z"/><path class="cls-4" d="M75.41,56.24c0,.47,0,.94-.07,1.4s-.3,1.12-1,1.23l-1.48-.45-.48-1.56,1.41-.93Z"/><path class="cls-2" d="M17.29,30.46,16.23,31c-.53-.69-.53-.69-1.45-.45,0-.66,0-1.33,0-2,.25,0,.6.12.75,0,.89-.74,1.94-.5,2.94-.54l-1.2.58Z"/><path class="cls-2" d="M5,69.18l-.92.43v2c-1.72-.1-1.73-.11-2.42-1.91C2.61,68.77,3.86,69.33,5,69.18Z"/><path class="cls-2" d="M96.41,27.68l.79-1.92c-.33-.58-.71-1.22-1.08-1.86,1.58.17,1.84.42,1.84,1.86,0,.87,0,1.75-.08,2.62Z"/><path class="cls-2" d="M11.57,77.67V73.58h.61c.08,1.48.16,3,.25,4.44Z"/><path class="cls-4" d="M37.67,43.09c1.35-.2,2.66-.27,3.48,1.15A4.58,4.58,0,0,1,37.67,43.09Z"/><path class="cls-4" d="M33,31.51l-2.17-.37c-.06-.42-.11-.83-.17-1.25a3.72,3.72,0,0,1,2.53.67.39.39,0,0,1,0,.28l-.18.4A.76.76,0,0,1,33,31.51Z"/><path class="cls-4" d="M87,36.82a6.62,6.62,0,0,1,.77,0,1.71,1.71,0,0,0,2-1c0,.42.05.84.08,1.26H88.57Z"/><path class="cls-5" d="M3.75,39.36c-.13-.61-.27-1.22-.4-1.84l1.31.56L4,39.44Z"/><path class="cls-2" d="M11.58,73.58c-.83-.14-.78-.69-.6-1.3l.93-.29c.09.32.17.65.26,1-.2.2-.4.41-.59.62Z"/><path class="cls-5" d="M11.58,73.58c.19-.21.39-.42.59-.62,0,.2,0,.41,0,.61Z"/><path class="cls-2" d="M81,64.81l-.59-.6C80.81,64.16,81,64.36,81,64.81Z"/><path class="cls-2" d="M86.05,23.39l-.65,0Z"/><path class="cls-2" d="M8.75,49.39l.32-.32Z"/><path class="cls-2" d="M96.12,23.91l-.33-.21Z"/><path class="cls-2" d="M70.66,20.2l.27-.36Z"/><path class="cls-2" d="M33,31.24l.18-.4Z"/><path class="cls-2" d="M8.75,79.86l-.32.31Z"/><path class="cls-2" d="M32.31,72.32,32.37,71l1.83-.63c-.37-.7-1.52-.47-1.3-1.43,1.84-.32,3.68-.68,5.52-.94a13.91,13.91,0,0,1,2.5,0c1.35.07,2.69.22,4,.26,1.66,0,3.33,0,5,0,1.24,0,2.47.18,3.71.27a2.76,2.76,0,0,0,0,2.56l-6.24-.34a7.44,7.44,0,0,0-.94,0c-1.08.08-2.17.26-3.26.24-2,0-4.05-.27-6.08-.27a32.47,32.47,0,0,0-3.8.42l.47,3.27c.27,0,.62,0,1,0,2.64-.26,5.27-.67,7.91-.76s5.2.14,7.8.28a22.56,22.56,0,0,1,2.31.34l-.16,1.14c-.41,0-.76-.06-1.1-.07a7.8,7.8,0,0,0-2.73,0,10.31,10.31,0,0,1-3.19.46c-.56,0-1.11.21-1.67.24a1.17,1.17,0,0,0-1.22,1.28l-.38.41a5.33,5.33,0,0,0-3.59-2.13,6.64,6.64,0,0,0-2.59.2,6.66,6.66,0,0,1-3.2,0c.42-1.18-.2-2.14-.64-3.14Z"/><path class="cls-3" d="M56.21,71.08,56,73.61a2.7,2.7,0,0,0-2.31-.34c0-.73,0-1.45,0-2.17a2.76,2.76,0,0,1,0-2.56c0-.52,0-1,.07-1.57l.58-1.14,1.53.21c0,.31.11.61.16.92l-.63.31.7.66.12.61a2.07,2.07,0,0,0,.25.7C57.11,70,56.79,70.54,56.21,71.08Z"/><path class="cls-2" d="M64.68,74.81c.77-1,2-.76,3-.86,1.64-.16,3.3,0,5,0,.67,0,1.34-.05,2-.08l.44.71c-.38,1.09-1.4,1-2.26,1.22a7.78,7.78,0,0,1-1.53.06c-.43-.53-.55-.17-.66.23l-.9.06-.61,0c-1.12-.28-2.06-1.34-3.41-.72C65.48,75.44,65,75,64.68,74.81Z"/><path class="cls-4" d="M59.05,80.45l-4.13,0c-.57-.88-1.38-1.69-.66-3.07.89.11,2.08-.06,2.88.43A3.87,3.87,0,0,1,59.05,80.45Z"/><path class="cls-3" d="M74.43,80.76c-1.48.1-3,.23-4.46.28a7.38,7.38,0,0,1-1.53-.24c.13-.27.17-.67.38-.8.6-.37.74-.89.56-1.82,1.25.63,2.26,1.16,3.29,1.65.36.17.78.2,1.14.38A2.67,2.67,0,0,1,74.43,80.76Z"/><path class="cls-4" d="M42.33,77.73l.38-.41a4.25,4.25,0,0,1,1.09.77c.83,1.23,2,1.41,3.43,1.31.05.22.1.5.15.78a17.59,17.59,0,0,1-5,0Z"/><path class="cls-4" d="M74.74,71.35H73.16a2.41,2.41,0,0,1,.63-2.84c.57,0,1-.13,1-.85A12.94,12.94,0,0,1,75,66h.32a3.67,3.67,0,0,1-.18,3.39A5.57,5.57,0,0,0,74.74,71.35Z"/><path class="cls-2" d="M56.2,74.52c2.12,0,4.24,0,6.36,0a8.6,8.6,0,0,1,1.48.24c-.42.14-.82.31-1.25.42-.8.2-1.61.42-2.43.54A4.55,4.55,0,0,1,56.2,74.52Z"/><path class="cls-3" d="M48.94,77.68l2.87,1C51,79.72,51,79.72,48.94,77.68Z"/><path class="cls-4" d="M75.06,74.53l-.44-.71c0-.7.09-1.41.13-2.12l.64-.34.49.44c-.56.61-.4,1.28-.27,2C75.65,74,75.25,74.28,75.06,74.53Z"/><path class="cls-3" d="M69.1,76.06l.61,0c-.14,1.28-.14,1.28-1.44,1.05Z"/><path class="cls-4" d="M70.61,76c.11-.4.23-.76.66-.23Z"/><path class="cls-2" d="M75.39,71.36l-.64.34a1,1,0,0,1,0-.3Z"/><path class="cls-5" d="M49,32.69a6.36,6.36,0,0,1,1,.69,36.46,36.46,0,0,1,2.55,2.88c.79,1.05,1.44,2.21,2.15,3.33l-2.2-.28-1-.62h-.3c-.24-1.29-.63-1.62-1.89-1.58a11.88,11.88,0,0,1-1.79-.39,2.35,2.35,0,0,1-1.19-3l1.5,1.11,1.11-.44Z"/><path class="cls-2" d="M40.1,19.81c0,2.85,0,5.71.08,8.56A8.21,8.21,0,0,0,40.52,30a2.64,2.64,0,0,1,0,.28l-1.17.07c-.11-.23-.36-.5-.36-.77,0-1.27.1-2.54.14-3.81s.12-2.7,0-4S39,20.48,40.1,19.81Z"/><path class="cls-3" d="M49.28,37.12c1.26,0,1.65.29,1.89,1.58l-.08.12.07-.12h.31a5.92,5.92,0,0,0-.17,1,4.22,4.22,0,0,0,.19.91c-.73,1-.92,1.08-2.21.63L49,40.9h0c.38-1.26.78.08,1.16,0C50.61,39.47,49.74,38.34,49.28,37.12Z"/><path class="cls-2" d="M28.06,18c.62.24.47.72.34,1.17a7.9,7.9,0,0,1-.62,1.75c-.89,1.52-1.79,3-2.8,4.47A3.75,3.75,0,0,1,22.3,26.8c-.61.08-1.22.23-1.82.35v-.83c1.38-.52,3.26-.47,3.28-2.76a2.24,2.24,0,0,1-1.38-1.89c.67-.28,1.27-.54,1.88-.77.3-.11.63-.14.45.38.26-.05.66,0,.75-.16C26.18,20,27.56,19.31,28.06,18Z"/><path class="cls-3" d="M53.78,32.36c-.12-.61-.25-1.22-.37-1.83a3.53,3.53,0,0,0,.26-.86A5.51,5.51,0,0,1,56.21,25a23.64,23.64,0,0,0,2.18-1.7l1.5.14c-.65.13-.5.84-.86,1.18-.22.72-.9,1.27-.63,2.17a15.5,15.5,0,0,1,.27,1.83,3.55,3.55,0,0,0,2,2.63c1,.53,1.67-.05,2.43-.5.31-.18.63-.34.94-.51l.89.38.2-.21-.66-.81,0-.55c1.48-.51,1.72-.36,2.11,1.14.07.27.4.48.61.71h0c-.48.44-1.12.78-.9,1.61L64.66,34a11,11,0,0,0-2.4,1,3.51,3.51,0,0,1-2,.65,6.55,6.55,0,0,1-4.42-1.11,2.43,2.43,0,0,0-.89-.19h0A2.17,2.17,0,0,0,53.78,32.36Z"/><path class="cls-3" d="M52.49,39.31l2.2.28.61.66-.44.6,1.43,1.87h1.23l.87.29c-.47.55-1,1.1-1.47,1.72C55.67,44,54.56,43,53.06,43.47l1.32-1-1.18-.57.3-.83-1.38-.52C52.24,40.16,52.36,39.74,52.49,39.31Z"/><path class="cls-3" d="M67.19,30.85l.13-1,1.52.32,0,.22-1.68.47Z"/><path class="cls-4" d="M10.43,83l1.17.78c-.1.06-.17.14-.23.14C10.9,83.92,10.33,84,10.43,83Z"/><path class="cls-5" d="M32.31,72.32v.31l-.9.19.28,3c-1.59.16-1.91.78-1.25,2.51-1.59-.13-1.65-.23-1.48-1.78A11,11,0,0,0,28.87,75l-.24-5.31A6.35,6.35,0,0,0,28.49,68a2.28,2.28,0,0,1,.39-2.33l2.18.18c0,1.14,0,2.11,0,3.08s.21,1.84.31,2.77C31.45,72.32,31.89,72.3,32.31,72.32Z"/><path class="cls-3" d="M31.69,75.78l-.28-3,.9-.19c.44,1,1.06,2,.64,3.14Z"/><path class="cls-5" d="M31.7,79.86l-2.48-.42,1.21-1.16C31.37,78.39,31.71,79,31.7,79.86Z"/><path class="cls-1" d="M52.49,39.31c-.13.43-.25.85-.37,1.28l-.63,0a4.22,4.22,0,0,1-.19-.91,5.92,5.92,0,0,1,.17-1Z"/><path class="cls-1" d="M49,40.9l.32.34Z"/><path class="cls-4" d="M85.72,27.7a4.14,4.14,0,0,1,4.47,1.5l-2,.07-.13-.07.13.08c0,.71,0,1.43,0,2.14l-1.56-.61c0-.09,0-.17,0-.26l-.47-.73,1.41-.62Z"/><path class="cls-4" d="M90.2,29.21,92,30c-.26.35-.38,1-1,.75A1.43,1.43,0,0,1,90.2,29.21Z"/><path class="cls-5" d="M89.51,32.71c-.76,0-.81-.68-1-1.19C89.35,31.48,89.51,32,89.51,32.71Z"/><path class="cls-2" d="M55.63,64.08c.92.43.45,1,.23,1.64C55.78,65.17,55.71,64.63,55.63,64.08Z"/><path class="cls-2" d="M55.52,61a.78.78,0,0,1,.08,1.25A.74.74,0,0,1,55.52,61Z"/><path class="cls-2" d="M56.49,58.48l-.67.08Z"/><path class="cls-2" d="M55.6,63.54a2.53,2.53,0,0,1,0,.28A2.72,2.72,0,0,1,55.6,63.54Z"/><path class="cls-2" d="M10,62.87a.77.77,0,0,1-.3.06c.06-.14.11-.27.16-.41Z"/><path class="cls-2" d="M9.46,63l-.41.18Z"/><path class="cls-2" d="M8.1,69l.36.15Z"/><path class="cls-3" d="M85.72,27.7l1.86,1.5-1.41.62.47.73-1.59.06c-.94.29-1.18,1.25-1.79,1.87-.84-.13-1.2-.64-.9-1.43.44-1.18.8-2.44,2.1-3l.62-.28Z"/><path class="cls-2" d="M85.73,25.82l-.33.28Z"/><path class="cls-2" d="M86.66,25.81l-.31,0A.8.8,0,0,1,86.66,25.81Z"/><path class="cls-5" d="M14.68,47.49l-.27.95-.52-.39Z"/><path class="cls-2" d="M85.41,34.31l2.2.1c-.49.15-1,.32-1.47.45S85.45,34.76,85.41,34.31Z"/><path class="cls-2" d="M82.89,34l1.91.28Z"/><path class="cls-2" d="M56.2,68.54c1.55-.09,3.09-.25,4.64-.25,2.8,0,5.59.12,8.39.16,1.23,0,2.47-.07,3.7-.08a5.17,5.17,0,0,1,.86.15,2.41,2.41,0,0,0-.63,2.84,5.55,5.55,0,0,1-1.77.24,54.93,54.93,0,0,0-11.94-.85c-1.08,0-2.16.22-3.24.33.58-.54.9-1.11.24-1.84A2.07,2.07,0,0,1,56.2,68.54Z"/><path class="cls-4" d="M56,67c0,.32.05.65.07,1l-.7-.66Z"/><path class="cls-2" d="M55,34.29a2.43,2.43,0,0,1,.89.19,6.55,6.55,0,0,0,4.42,1.11,3.51,3.51,0,0,0,2-.65,11,11,0,0,1,2.4-1,4.11,4.11,0,0,1-3.29,2.73A6.06,6.06,0,0,1,55,34.29Z"/><path class="cls-2" d="M58.39,23.25A23.64,23.64,0,0,1,56.21,25a5.51,5.51,0,0,0-2.54,4.72,3.53,3.53,0,0,1-.26.86A2.41,2.41,0,0,1,53.16,28a8.17,8.17,0,0,1,3.39-4.66A1.49,1.49,0,0,1,58.39,23.25Z"/><path class="cls-5" d="M57.52,42.72H56.29l-1.43-1.87.44-.6a7.37,7.37,0,0,1,.9.76C56.66,41.56,57.08,42.15,57.52,42.72Z"/><path class="cls-2" d="M53.78,32.36A2.17,2.17,0,0,1,55,34.29,2,2,0,0,1,53.78,32.36Z"/><path class="cls-5" d="M51.16,38.7l-.07.12.08-.12Z"/><path class="cls-2" d="M64,30.19c.14-.22.29-.43.43-.64l.66.81-.2.21Z"/><path class="cls-2" d="M85.05,30.61l1.59-.06c0,.09,0,.17,0,.26Z"/><path class="cls-3" d="M88.24,29.28l-.13-.08.13.07Z"/></g></svg>