<svg xmlns="http://www.w3.org/2000/svg" viewBox="0 0 100 100"><defs><style>.cls-1{fill:#9394a8;}.cls-2{fill:#a2a3b4;}.cls-3{fill:#afb1bf;}.cls-4{fill:#c5c6d1;}.cls-5{fill:#cacbd4;}.cls-6{fill:#bfbfcb;}</style></defs><g id="Ebene_19" data-name="Ebene 19"><path class="cls-1" d="M17.28,41.08a1.75,1.75,0,0,1,1.94,0c2,.83,2,.77,3.92.36l2.86.48c1.38,1.19,2.9.56,4.38.33.5,1.48,1.95,1.05,3.05,1.68l1.27-1.64h0l.41-.41h0l1.62,0,1.11.45c.22.3.41.81.67.85a13.47,13.47,0,0,0,2.46.1c1.62,0,3.24-.14,4.87-.22.47,1.65.58,3.54,2.78,4h0l-1.37,1.15L49,51.39c-.46.07-1-.12-1,.74a1.48,1.48,0,0,1-1.7,1.45c-.48,0-1-.07-1.59-.12V55a2.37,2.37,0,0,1-.73.23c-1.88-.09-3.77-.2-5.65-.31-.73-.22-1.45-.5-2.19-.65-.17,0-.42.37-.63.57l-1.08,0c-.28-1.15-1.44-.67-2.14-1A11.67,11.67,0,0,0,28,52.64c-3.45-.29-6.86.5-10.29.8-1-.66-1.29-.63-2,.23L15,53.6,13.73,53l-.38-.59-.22.24.61.34-.4.8,0,1.19c-.55,0-.81.34-.67.9.09.36.22.72.33,1.09l0,1.17c-.25.24-.64.43-.71.72-.23.84-.34,1.71-.49,2.57L11,63.27l-.37.8C8.75,64,8.71,65.72,7.76,66.83L6,66.6c1.1-1.27.87-2.48.72-3.69.64-2.18,1.29-4.36,1.9-6.55.21-.79.32-1.61.51-2.6-.86-.1-1.49-.15-2.11-.24S5.66,52.83,6,52.21c.58-1.26.1-2.39,0-3.58l2.83-3.22c-1.17-1.44,1-1.9.86-2.91a22.3,22.3,0,0,1,7.22-1.11C17,41.4,17.13,41.19,17.28,41.08Z"/><path class="cls-2" d="M12.56,35.55,9.5,34.83a5.8,5.8,0,0,1-.66-2c.09-2.94-1-5.83-.28-8.82.2-.84-.24-1.82-.21-2.72.08-2.3.25-4.58.41-6.87a28.88,28.88,0,0,1,.34-2.93c.12-.75.36-1.47.59-2.35l3.24.71-.13.54a7,7,0,0,0,1.74.52c1.67,0,3.13,1,5,.61a10.25,10.25,0,0,1,5-.17c1.81.49,3.72.57,5.57.91.39.07.72.47,1.07.72-.21.24-.65.6-.6.69.7,1.29-.46,2.21-.61,3.31l-.79.37v2.17H27.79a6.43,6.43,0,0,1-.22.71,2.7,2.7,0,0,1-.38.66c-.8,1-1.2,1-2.18.1a15.85,15.85,0,0,0-1.44-.89,5.77,5.77,0,0,1-.72-.76l.09-.18-.1.17-2.58-.5c.61.67.79,1.53,1.79,1.93a2.41,2.41,0,0,1,1.09,2.68c-.1.37-.32.85-.18,1.11.53,1-.05,1.6-.51,2.3l-.8-.32c-1.76,3-4.44,1.65-7,1.25l-.12,1.44L13,29.63l-1.47.16c-.15.91-.28,1.67-.45,2.68l1.88.33v0a13.46,13.46,0,0,0,1.85.37,4,4,0,0,1,2.51.8c-.72.76-.72.76-2.94-.14C13.64,34.31,13.93,35.81,12.56,35.55Zm9-10.87-.2.36.79.39c0-.1.14-.28.12-.29C22,25,21.8,24.83,21.56,24.68Zm7-6.33c-.1,0-.23-.11-.3-.07s-.1.18-.15.28.22.11.28.08S28.49,18.45,28.55,18.35Z"/><path class="cls-3" d="M95.75,44.31l-.12.33C94,45,94.05,45,94,46.53a7.55,7.55,0,0,1-.28,1.3h0c-.26-.3-.64-.57-.76-.92A10,10,0,0,1,92.74,45c-.63.87-1.24,1.35-1.32,1.91-.17,1.06-.9,1.36-1.65,1.74-1.85.92-3.7.45-5.56,0L84,48.53l.17.1c-.28,1.08.71,1.11,1.4,1.39l-.18.4L82.66,50c.24-.69.41-1.22.59-1.75-.85-.68-1.45-.45-1.8.34a2.66,2.66,0,0,1-3.2,1.56c-1.52-.78-3-1.16-4.32.4-1.66.13-3.31.35-5,.35s-3.45-.26-5.18-.33a34.32,34.32,0,0,0-10.86,1.17l-.18-1-3-.4c.53-1.58.29-2.73-1.11-3.4h0c.79-.44,1.42-1,1.19-2a5.32,5.32,0,0,1,0-1.13,37.8,37.8,0,0,0,4.81.74c1.82.06,3.64-.22,5.47-.34-.07,1.41.87,1.91,2,2.29a2.33,2.33,0,0,1,.48-.41c.46-.19.93-.33,1.4-.49.1.47.21.93.31,1.39.14.65.26,1.3.49,2.43.68-.71,1.23-1,1.29-1.41a9,9,0,0,0-.27-2.2h5.79c.71,1.4.87,1.46,1.8.53a5.45,5.45,0,0,0,.59-.93h.39c2.31,1.06,4,0,5.55-1.59H81c.09.83.87,1.31,1.35,1.07,1.14-.57,2.39.35,3.46-.46a1.35,1.35,0,0,1,1.1,0c1.67.67,3.31.2,5,0l.14-1.42a11.31,11.31,0,0,0,1.54,0A1.76,1.76,0,0,1,95.75,44.31Z"/><path class="cls-4" d="M78.25,50.19a2.66,2.66,0,0,0,3.2-1.56c.35-.79,1-1,1.8-.34-.18.53-.35,1.06-.59,1.75l2.77.38.18-.4c-.69-.28-1.68-.31-1.4-1.39h0c1.86.44,3.71.91,5.56,0,.75-.38,1.48-.68,1.65-1.74.08-.56.69-1,1.32-1.91A10,10,0,0,0,93,46.91c.12.35.5.62.76.92.12.57.47,1.22.3,1.7s-.83.76-1.34,1.17c2,.46,2,.46,3-1.23l-2-1.64a7.55,7.55,0,0,0,.28-1.3c.06-1.51,0-1.51,1.64-1.89.32,1.66.62,3.33,1,5,.54,2.6-.82,4.38-3.44,4.48-.39,0-.78,0-1.18,0a26.51,26.51,0,0,0-.48-3.45c-.12-.47-.84-1.19-1.11-1.12-.53.14-1.31.75-1.32,1.17a1.57,1.57,0,0,1-1.49,1.73c.08.69.15,1.2.21,1.71l-14,.37c-5.38.14-10.76.29-16.13.38C53.34,55,49,55,44.66,55V53.46c.63,0,1.11.1,1.59.12A1.48,1.48,0,0,0,48,52.13c0-.86.56-.67,1-.74.63,0,1.26,0,1.88.1s1.39.19,2.08.29a34.32,34.32,0,0,1,10.86-1.17c1.73.07,3.45.33,5.18.33s3.3-.22,5-.35C75.39,50.73,76.88,51,78.25,50.19Z"/><path class="cls-5" d="M11,63.27c.25-.62.51-1.24.77-1.86.17,1.44.17,1.44,2,1.47l1.94-.44,3.2.37H15.78a38,38,0,0,1,.86,5.64c0,4.46,2.34,8.3,3.07,12.55.29,1.74.75,3.46,1,5.21a3.18,3.18,0,0,1-.44,1.84,12.12,12.12,0,0,1-1.56,1.84c-2.25-1.59-1.56-4.13-2.42-6.22a5.91,5.91,0,0,0-3.74-.13,16.38,16.38,0,0,1-6.83,0c-.54,1.74-1,3.48-1.64,5.2a2.57,2.57,0,0,1-1.73,2C.86,91.16-.2,90.43,0,88.9a22.62,22.62,0,0,1,.66-2.67A96.19,96.19,0,0,0,3.52,73.81c0-.22.28-.41.43-.61.09.9.17,1.8.29,2.69.09.73.23,1.46.42,2.67l2-2.22c-.14,1.4-.28,2.79-.42,4.16l9.13-.62c-.54-1.86-1-3.75-1.65-5.61A24.76,24.76,0,0,1,12.06,68,26.71,26.71,0,0,0,11,63.27Z"/><path class="cls-5" d="M85,64.5c-2,0-4,0-5.93-.08-2.35-.14-4.69-.46-7-.68-1.89-.17-3.79-.28-5.68-.47-2.81-.29-5.6-.69-8.4-.93-2.27-.19-4.56-.22-6.84-.32-1.37-.06-2.75-.11-4.13-.19a6.73,6.73,0,0,0-1.17-.12c-3.42.49-6.95-.61-10.32.67a1.25,1.25,0,0,1-.19,0l-8.46.42c.2-.43.35-.88.59-1.29s.66-1,1-1.51c1.79-.86,3.71-.64,5.6-.74a20.74,20.74,0,0,0,3.69-.41,26.53,26.53,0,0,1,7.65-.26c2.52.1,5,.63,7.55.65a138.66,138.66,0,0,1,14.68,1.14,91.17,91.17,0,0,0,14.87.9,23.15,23.15,0,0,1,3.3.31C84.62,62.78,84.62,62.78,85,64.5Z"/><path class="cls-1" d="M74.31,45.45h-.39c-1-1-1.63,0-2.39.4H65.74a9,9,0,0,1,.27,2.2c-.06.38-.61.7-1.29,1.41-.23-1.13-.35-1.78-.49-2.43-.1-.46-.21-.92-.31-1.39-.47.16-.94.3-1.4.49a2.33,2.33,0,0,0-.48.41c-1.12-.38-2.06-.88-2-2.29.13-.93.27-1.85.4-2.77-.05-2.75-.12-5.5-.13-8.25,0-1,.15-2,.17-2.94,0-2.61,0-5.22.09-7.83,0-1,.23-2.08.36-3.11.33-.21.81-.34,1-.64a2.59,2.59,0,0,1,2-1.32c1.39-.32,1.35-.48,1.74,1.18A38.6,38.6,0,0,1,65.49,23a12.7,12.7,0,0,0,.1,4.22c-.24,1.44-.81,2.92-.63,4.31a13.2,13.2,0,0,1-.42,3.95,15.66,15.66,0,0,0,0,3.62c0,.17.64.29,1,.44l-.11.64L63.82,40l-.16.33,1.39,1.43-1.6,1.16c2.46.42,4.24-.57,6.1-1.09,0,0,.06-.11.08-.17l.07-.08a5.55,5.55,0,0,1,4.6,1.11C74.31,43.62,74.31,44.54,74.31,45.45Zm-12.53-.9-.06.16.24,0a.38.38,0,0,0,0-.16S61.82,44.55,61.78,44.55Z"/><path class="cls-1" d="M62.41,89.62l-2.74.12a7.8,7.8,0,0,0-1.26-1.66,1.68,1.68,0,0,1-.78-1.46c-.11-2.73-.23-5.45-.31-8.18a8.53,8.53,0,0,1,.18-2.14c.25-1.06.63-2.09,1-3.13a13.77,13.77,0,0,1,2.39-.2,2,2,0,0,0,2.43-1.69l.73-.06c0,.3.07.61.11.91l.26.06.44-1L65.9,71c0,.06,0,.12.08.17a5.89,5.89,0,0,1,1.62,3.05c.14,1.54-.64,2.24-1.86,2.82-.21.1-.2.66-.33,1.12l1.17-.49c.65,2.76,2.28,5.24,1.43,8.15-.14.13-.27.27-.4.4a4.74,4.74,0,0,0-4,1.11C63,88,63,89,62.41,89.62Z"/><path class="cls-5" d="M47.77,9.57a9.58,9.58,0,0,1,5.55.87,1.06,1.06,0,0,1,.51,1.76c-1.62,2.29-1.62,5-1.69,7.55-.13,4.34,0,8.68,0,13,0,2.31-.1,2.38-2.28,2.93a22.73,22.73,0,0,0-2.42.78,7.79,7.79,0,0,1-4,.46A22.74,22.74,0,0,0,39.1,37c1.11-.55-.66-.83-.22-1.24l4.93-1.74c.5-.15,1-.33,1.49-.45,2.82-.69,2.82-.69,3.27-3.58a2.94,2.94,0,0,0,2.48-2.1c-.5-1.14-1-2.21-2.53-1.92.18-4.27.36-8.54.55-12.86l-3.66-.55,1-1.24-1.28-1.17.21-.37,2,.65Z"/><path class="cls-1" d="M85,64.5c-.33-1.72-.33-1.72.77-2.88a20.65,20.65,0,0,0,2.06-7.46l-.21-1.71a1.57,1.57,0,0,0,1.49-1.73c0-.42.79-1,1.32-1.17.27-.07,1,.65,1.11,1.12A26.51,26.51,0,0,1,92,54.12c.07.14.13.28.19.41,0,1.08-.75,2.1-.12,3.24.13.23-.13.73-.3,1.07-.38.8-.81,1.58-1.23,2.37-.28,1.13-.52,2.28-.87,3.39-.88,2.86-1.82,5.7-2.73,8.55l-.34.36-.37.85c-1.36.29-1.12,1.59-1.54,2.47-.75,1.52-1.44,3.06-2.22,4.71l-1.06-.86A61.35,61.35,0,0,1,85,65.45,2.57,2.57,0,0,0,85,64.5Z"/><path class="cls-1" d="M81,43.87H79.86c.14-.27.31-.54.43-.82a8,8,0,0,0,.22-.84l-1,.09-.09-.73a1.4,1.4,0,0,0-.67-1.66c.1-.47.58-1-.32-1.27V38c.7-.3.74-.62,0-1,0-.73.08-1.47.13-2.21l-.23-.5c.14-2.36.27-4.72.41-7.08l.09-2.3c0-1,.11-1.94.16-2.91s.12-1.92.11-2.88a1.65,1.65,0,0,1,1.47-1.92l1-.06.72.06c.38.75.79,1.48,1.12,2.25a3.22,3.22,0,0,1,.07,1c.07.93.21,1.86.2,2.79,0,2.75-.12,5.5-.19,8.24l.37,2.61-.64.23-.55,3.52c-.14.92-.29,1.84-.44,2.76-1.05.5-.11,1.35-.34,2Z"/><path class="cls-6" d="M43.81,34.05l-4.93,1.74c-.44.41,1.33.69.22,1.24l-1.63.08c-.11-1.23-1-1.34-1.84-1.07-.55.17-1,.8-1.41,1.22H26.38c-.13,1.57-.25,3.1-.38,4.63l-2.86-.48c-.28-1.59-.57-3.18-.9-5-1.92,0-3.92,0-5.92-.13a32.65,32.65,0,0,1-3.76-.69c1.37.26,1.08-1.24,1.78-1.7,2.22.9,2.22.9,2.94.14a4,4,0,0,0-2.51-.8,13.46,13.46,0,0,1-1.85-.37c5-.36,9.89,1,14.85,1.3a34.83,34.83,0,0,0,7.06.15A52.92,52.92,0,0,1,43.81,34.05Z"/><path class="cls-6" d="M83.43,20.53a3.22,3.22,0,0,0-.07-1c-.33-.77-.74-1.5-1.12-2.25,1.09-.08,2.19-.15,3.28-.24,1.36-.11,2.73-.19,4.08-.38,1.73-.24,2.55.31,2.92,2.06.64,3,0,6-.46,9l-1,.39.9.82c0,1.19.45,2.41-.28,3.54-.64,0-1.52.32-1.23.81.63,1.06-.35,2,.23,3.09a5.9,5.9,0,0,1-1.9-.43,12.49,12.49,0,0,1-1.36-.7c.09-.4.19-.8.29-1.19l1.46-.36-1.45-1.22c.24-4,.47-7.93.73-12.15Z"/><path class="cls-6" d="M79,22c0,1-.11,1.94-.16,2.91l-.09,2.3c-1.33-.12-2.65-.29-4-.32-.28,0-.58.45-.86.7-1.33-.11-2,.94-2.68,1.66L70.07,28c.13-3,.26-6.06.4-9.22a14.19,14.19,0,0,0-4.82-.22c-.39-1.66-.35-1.5-1.74-1.18a2.59,2.59,0,0,0-2,1.32c-.17.3-.65.43-1,.64a30.64,30.64,0,0,1,.89-3.19c.11-.28.74-.5,1.13-.5,2.43,0,4.86.08,7.29.13H71c2.72.13,3.91,1.57,3.55,4.27-.15,1.09-.24,2.18-.38,3.45h4.23C78.61,23.09,78.8,22.57,79,22Z"/><path class="cls-4" d="M47.77,9.57l-.38.89-2-.65-.21.37,1.28,1.17-1,1.24-1.14.05A13.25,13.25,0,0,0,42.09,11c-2-.92-4.87.38-6.14,2.68l-.91,0-1.92-.37L31.55,13h-.37c-.35-.25-.68-.65-1.07-.72-1.85-.34-3.76-.42-5.57-.91a10.25,10.25,0,0,0-5,.17c-1.87.44-3.33-.57-5-.61a7,7,0,0,1-1.74-.52l.13-.54c1.24-.13,2.48-.24,3.72-.39a25.53,25.53,0,0,1,7.4.28c1.61.29,3.26.36,4.89.5a12.93,12.93,0,0,0,6.73-.71,6,6,0,0,1,3.47-.22,39.78,39.78,0,0,0,5.47.14C45.67,9.46,46.72,9.52,47.77,9.57Z"/><path class="cls-3" d="M81.38,80.68l1.06.86c.78-1.65,1.47-3.19,2.22-4.71.42-.88.18-2.18,1.54-2.47a5.87,5.87,0,0,1,.11,1.25c-.17,1.34-.4,2.67-.62,4.07,2.53.46,4.82,1,7.14,1.21.7.06,2.07.36,2.44-1l2.84,0c.2.92.4,1.84.61,2.76L97.49,83a7.89,7.89,0,0,0-.25-.94c-.43-1-.95-1.26-1.71-.45A1.33,1.33,0,0,1,94,82c-.15,0-.34.12-.45.16v1.76H88.15a9.56,9.56,0,0,1-1.93-.28,1.51,1.51,0,0,0-2.15,1c-1.7,1.16-2.46,1.17-3.79.05C80.65,83.33,81,82,81.38,80.68Z"/><path class="cls-6" d="M90.51,61.21c.42-.79.85-1.57,1.23-2.37.17-.34.43-.84.3-1.07-.63-1.14.12-2.16.12-3.24A6.8,6.8,0,0,1,93,56c.78,3,1.5,5.93,2.24,8.89.4,1.57.82,3.14,1.23,4.71a7.67,7.67,0,0,0-1.83,1.53c-.76,1.23.88,1.71,1.28,2.82l-1.85-.38c-.66-2.18-1.32-4.36-2-6.56C91.55,65.09,91,63.15,90.51,61.21Z"/><path class="cls-5" d="M60.45,41.49c-.13.92-.27,1.84-.4,2.77-1.83.12-3.65.4-5.47.34a37.8,37.8,0,0,1-4.81-.74l-4-.79c-1.63.08-3.25.17-4.87.22a13.47,13.47,0,0,1-2.46-.1c-.26,0-.45-.55-.67-.85a1.34,1.34,0,0,0,0-.35C45.38,41.9,52.9,41.09,60.45,41.49Z"/><path class="cls-2" d="M6.64,76.34l-2,2.22c-.19-1.21-.33-1.94-.42-2.67C4.12,75,4,74.1,4,73.2l0-.75.53-1c.47-2.28.9-4.57,1.42-6.84a9.33,9.33,0,0,1,.79-1.74c.15,1.21.38,2.42-.72,3.69l1.76.23c1-1.11,1-2.88,2.84-2.76-.34,1.18-.64,2.37-1,3.54C8.62,70.53,7.62,73.43,6.64,76.34Z"/><path class="cls-6" d="M68,85.86c.85-2.91-.78-5.39-1.43-8.15l-1.17.49c.13-.46.12-1,.33-1.12,1.22-.58,2-1.28,1.86-2.82A5.89,5.89,0,0,0,66,71.21s0-.11-.08-.17c1.07-.49,2.42-.34,2.89.43.68,1.1,1.74,2.13,1.33,3.87-.67,2.89-.9,5.89-1.39,8.84A7.21,7.21,0,0,1,68,85.86Z"/><path class="cls-5" d="M88.15,83.87h5.39V82.11c.11,0,.3-.19.45-.16a1.33,1.33,0,0,0,1.54-.36c.76-.81,1.28-.59,1.71.45a7.89,7.89,0,0,1,.25.94l1.23-.35c.42,1.49,1,3,1.23,4.47.22,1.15-.29,1.55-2.1,2.15-1.85-1.32-.95-3.85-2.4-5.45A14.21,14.21,0,0,1,88.15,83.87Z"/><path class="cls-5" d="M94.06,73.58l1.85.38c-.4-1.11-2-1.59-1.28-2.82a7.67,7.67,0,0,1,1.83-1.53,10.52,10.52,0,0,1,1,4.86,16.6,16.6,0,0,0,.28,2.7c.12.9.25,1.8.38,2.7l-2.84,0C94.87,77.79,94.46,75.69,94.06,73.58Z"/><path class="cls-3" d="M17.28,41.08c-.15.11-.32.32-.47.31A22.3,22.3,0,0,0,9.59,42.5c.1,1-2,1.47-.86,2.91L5.9,48.63a4.32,4.32,0,0,0-.19-1.15c-1.82-3.77,1.27-6.72,4.72-6.7C12.71,40.78,15,41,17.28,41.08ZM7,44.8c-.1.05-.25.09-.28.17s.07.21.11.32l.38-.24Z"/><path class="cls-6" d="M18.87,62.81l-3.2-.37c-.2-1.92-.27-2-1.54-2.34a6.22,6.22,0,0,0-.43-1.28,3.42,3.42,0,0,0-.76-.7L13,57l.82,0c.33.9.67,1.8,1.05,2.79,1.53,0,3,0,4.55,0a17.85,17.85,0,0,1,2.27.36c.43,1.93,2,.63,3,1l-.26,1.78H21.67Z"/><path class="cls-4" d="M87.45,35.15a12.49,12.49,0,0,0,1.36.7,5.9,5.9,0,0,0,1.9.43c-.58-1.05.4-2-.23-3.09-.29-.49.59-.85,1.23-.81-.13,2.12-.29,4.24-.39,6.37,0,.77,0,1.55.05,2.32l-.11.1-3.82-.43C87.44,38.87,87.44,37,87.45,35.15Z"/><path class="cls-4" d="M58.46,73.17c-.33,1-.71,2.07-1,3.13a8.53,8.53,0,0,0-.18,2.14c.08,2.73.2,5.45.31,8.18l-1,0a12.63,12.63,0,0,1-.44-2.08c-.17-2.55-.3-5.11-.38-7.66A18.21,18.21,0,0,1,56,74.37c.45-.18.9-.34,1.33-.55S58.09,73.38,58.46,73.17Z"/><path class="cls-5" d="M80.29,84.65c1.32,1.12,2.08,1.11,3.78-.05.16,1.77-.67,3.27-1.37,4.79a1.21,1.21,0,0,1-1.65.68c-.58-.31-1.39-1-1.39-1.46A22.66,22.66,0,0,1,80.29,84.65Z"/><path class="cls-2" d="M34.22,37.26c.46-.42.86-1,1.41-1.22.83-.27,1.73-.16,1.84,1.07s0,2.65,0,4l-.73.8-1.62,0c-.13-.88-.23-1.76-.39-2.63C34.57,38.58,34.38,37.92,34.22,37.26Z"/><path class="cls-6" d="M62.41,89.62C63,89,63,88,63.6,87.37a4.74,4.74,0,0,1,4-1.11c-.31,2.53-2.09,4.08-4.43,3.83C62.91,90.06,62.66,89.78,62.41,89.62Z"/><path class="cls-6" d="M58.46,73.17c-.37.21-.73.46-1.11.65s-.88.37-1.33.55A2.22,2.22,0,0,1,56,74c.74-.56.31-.72-.28-.83,0-.14,0-.27-.05-.41l.76-.55.86-.54c.09.33.18.66.34,1.21l2.06-1.34,3.6-.26A2,2,0,0,1,60.85,73,13.77,13.77,0,0,0,58.46,73.17Z"/><path class="cls-5" d="M21.67,62.87h2.77l.26-1.78c-1-.37-2.61.93-3-1,1.49-.1,3-.21,4.46-.28.23,0,.46.19.68.29-.27.38-.53.77-.81,1.15s-.68.6-.7.93c-.05.72.6.65,1.1.69A6.73,6.73,0,0,1,21.67,62.87Z"/><path class="cls-5" d="M95.75,44.31a1.76,1.76,0,0,0-2.09-1.24,11.31,11.31,0,0,1-1.54,0c-.29-.64-.58-1.28-.86-1.92l.11-.1c.77,0,1.56,0,2.32.06C95.58,41.34,96.31,42.5,95.75,44.31Z"/><path class="cls-6" d="M56.59,86.64l1,0a1.68,1.68,0,0,0,.78,1.46,7.8,7.8,0,0,1,1.26,1.66c-1.57.77-2,.61-2.77-1.15l-.3-.75Z"/><path class="cls-6" d="M26.39,62.87c-.5,0-1.15,0-1.1-.69,0-.33.47-.61.7-.93s.54-.77.81-1.15L28.38,60c-.34.5-.7,1-1,1.51s-.39.86-.59,1.29Z"/><path class="cls-4" d="M59.68,71.54l-2.06,1.34c-.16-.55-.25-.88-.34-1.21A15.59,15.59,0,0,1,59,71.12C59.22,71.09,59.47,71.39,59.68,71.54Z"/><path class="cls-4" d="M92,28.84l-.9-.82,1-.39C92,28,92,28.43,92,28.84Z"/><path class="cls-3" d="M36.7,41.89l.73-.8.42.9a1.34,1.34,0,0,1,0,.35Z"/><path class="cls-3" d="M64.82,71.22l-.44,1-.26-.06c0-.3-.08-.61-.11-.91Z"/><path class="cls-5" d="M4.51,71.49l-.53,1C4.16,72.13,4.34,71.81,4.51,71.49Z"/><path class="cls-4" d="M55.71,73.17c.59.11,1,.27.28.83C55.9,73.72,55.8,73.45,55.71,73.17Z"/><path class="cls-4" d="M56.42,72.21l-.76.55Z"/><path class="cls-4" d="M56.6,87.84l.3.75Z"/><path class="cls-6" d="M81.52,17.18l-1,.06Z"/><path class="cls-6" d="M34.38,54.86c-3-.08-6-.13-9-.26-2.35-.1-4.69-.28-7-.46a17.73,17.73,0,0,1-1.88-.35l1.2-.35c3.43-.3,6.84-1.09,10.29-.8a11.67,11.67,0,0,1,4.27,1.18C32.94,54.19,34.1,53.71,34.38,54.86Z"/><path class="cls-2" d="M45.81,43.07l4,.79a5.32,5.32,0,0,0,0,1.13c.23,1.07-.4,1.6-1.19,2C46.39,46.61,46.28,44.72,45.81,43.07Z"/><path class="cls-2" d="M52.93,51.78c-.69-.1-1.38-.22-2.08-.29s-1.25-.07-1.88-.1l-1.75-3.21L48.59,47c1.4.67,1.64,1.82,1.11,3.4l3,.4Z"/><path class="cls-3" d="M12.94,58.12a3.42,3.42,0,0,1,.76.7,6.22,6.22,0,0,1,.43,1.28c-.13.93-.26,1.85-.4,2.78-1.82,0-1.82,0-2-1.47.15-.86.26-1.73.49-2.57C12.3,58.55,12.69,58.36,12.94,58.12Z"/><path class="cls-2" d="M30.38,42.22l4.32,0L33.43,43.9C32.33,43.27,30.88,43.7,30.38,42.22Z"/><path class="cls-6" d="M38.28,54.91a3.11,3.11,0,0,1-2.82-.08c.21-.2.46-.6.63-.57C36.83,54.41,37.55,54.69,38.28,54.91Z"/><path class="cls-3" d="M13.31,55l.48,2L13,57c-.11-.37-.24-.73-.33-1.09C12.5,55.3,12.76,55,13.31,55Z"/><path class="cls-3" d="M17.68,53.44l-1.2.35-.79-.12C16.39,52.81,16.69,52.78,17.68,53.44Z"/><path class="cls-3" d="M15,53.6l-1.63.17.4-.8h0Z"/><path class="cls-3" d="M13.74,53l-.61-.34.22-.24.38.59Z"/><path class="cls-2" d="M34.69,42.27l.41-.41Z"/><path class="cls-4" d="M48.22,29.51c-2.33.15-4.66.28-7,.45-1.63.12-3.25.3-4.88.43a34.72,34.72,0,0,1-5.47.34c-3.77-.28-7.57-.11-11.31-.93a49.7,49.7,0,0,0-5.05-.59c0-.44.08-.88.12-1.44,2.57.4,5.25,1.79,7-1.25l.8.32,1.13,1.25c-.18.53-1.43,1.44.42,1.68l2.07-2.14,1.1-.33c1,0,2.08,0,3.11-.06s2.12.32,3.23-.42l-2.39-1.53a2.48,2.48,0,0,0,.41-.81c.11-1,.75-1.24,1.61-1.2l.16.09-.17-.08A2.06,2.06,0,0,0,32.05,21c-1-.48-1-1.29-.79-2.17l1.49.12h0c.23.38.46.75.67,1.13a7.18,7.18,0,0,1,.85,1.68c.39,1.64.67,3.3,1,5a4.77,4.77,0,0,0,.87.11q4-.36,7.95-.77c.06,0,.09-.23.13-.35A12.72,12.72,0,0,1,43,24c-.19-.39-.27-1.2-.07-1.32,1.18-.78.75-2,.9-3,.34.35.88.66,1,1.08.43,1.67.72,3.37,1.13,5.35H48.2C48.21,27.24,48.21,28.38,48.22,29.51Z"/><path class="cls-3" d="M43.86,19.68c-.15,1,.28,2.21-.9,3-.2.12-.12.93.07,1.32a12.72,12.72,0,0,0,1.18,1.71,2.81,2.81,0,0,1-.94-.19c-1.7-1.08-3.36-2.21-5.07-3.28S34.56,20,32.74,18.91h0L30,17c.15-1.1,1.31-2,.61-3.31,0-.09.39-.45.6-.69h.37c.41.92.63,1,1.57.42l1.92.37c1.72.93,3.52,1.74,5.14,2.81A37,37,0,0,1,43.86,19.68Z"/><path class="cls-3" d="M26.07,27.63,24,29.77c-1.85-.24-.6-1.15-.42-1.68l-1.13-1.25c.46-.7,1-1.33.51-2.3-.14-.26.08-.74.18-1.11a2.41,2.41,0,0,0-1.09-2.68c-1-.4-1.18-1.26-1.79-1.93l2.58.5h0a5.77,5.77,0,0,0,.72.76A15.85,15.85,0,0,1,25,21c1,.88,1.38.9,2.18-.1a2.7,2.7,0,0,0,.38-.66,6.43,6.43,0,0,0,.22-.71h1.39V17.34l2.08,1.46c-.17.88-.2,1.69.79,2.17a2.06,2.06,0,0,1,1.08,2.32h0c-.86,0-1.5.18-1.61,1.2a2.48,2.48,0,0,1-.41.81l-2.73-1.63,0,0L28,23.29c-1.27-.83-1.63-.83-1.93,0l-1,3ZM32,22.48c-.6-.88-1.2-1-2.1-.28a6.76,6.76,0,0,0,1,.27C31.24,22.5,31.62,22.48,32,22.48Z"/><path class="cls-5" d="M13,29.63c0,1.05,0,2.11,0,3.17L11,32.47c.17-1,.3-1.77.45-2.68Z"/><path class="cls-3" d="M21.56,24.68c.24.15.48.29.71.46,0,0-.08.19-.12.29L21.36,25Z"/><path class="cls-3" d="M28.55,18.35c-.06.1-.09.23-.17.29s-.18-.05-.28-.08.07-.24.15-.28S28.45,18.32,28.55,18.35Z"/><path class="cls-3" d="M22.84,19.32l.1-.17-.09.18Z"/><path class="cls-2" d="M91.26,41.17c.28.64.57,1.28.86,1.92,0,.44-.08.89-.14,1.42-1.72.16-3.36.63-5,0a1.35,1.35,0,0,0-1.1,0c-1.07.81-2.32-.11-3.46.46-.48.24-1.26-.24-1.35-1.07l.8-1.19c1.67.78,3.27,0,5-.13l.19-1.4.43-.41Z"/><path class="cls-2" d="M79.49,42.29l1-.09a8,8,0,0,1-.22.84c-.12.28-.29.55-.43.82-1.55,1.57-3.24,2.65-5.55,1.59,0-.91,0-1.83,0-2.75A34.63,34.63,0,0,1,78,43C78.76,43.11,79,42.62,79.49,42.29Z"/><path class="cls-2" d="M78.25,50.19c-1.37.84-2.86.54-4.32.4C75.24,49,76.73,49.41,78.25,50.19Z"/><path class="cls-2" d="M71.53,45.86c.76-.36,1.4-1.42,2.39-.4a5.45,5.45,0,0,1-.59.93C72.4,47.32,72.24,47.26,71.53,45.86Z"/><path class="cls-4" d="M84.21,48.63l-.17-.1.17.09Z"/><path class="cls-3" d="M93.71,47.83l2,1.64c-1.06,1.69-1.06,1.69-3,1.23.51-.41,1.18-.71,1.34-1.17s-.18-1.13-.3-1.7Z"/><path class="cls-2" d="M13.73,62.88c.14-.93.27-1.85.4-2.78,1.27.31,1.34.42,1.54,2.34Z"/><path class="cls-5" d="M69.7,41.59c.06-1.23.14-2.45.17-3.68s0-2.57,0-3.85c0-2,.1-4,.16-6l1.15,1.27c.72-.72,1.35-1.77,2.68-1.66-.13,4.55-.57,9.1-.31,13.57a5.57,5.57,0,0,0,5-.08l.1-.1.66.54.09.73c-.45.33-.73.82-1.5.68a34.63,34.63,0,0,0-3.69-.27A5.55,5.55,0,0,0,69.7,41.59Z"/><path class="cls-6" d="M65.59,27.24c.14.28.41.55.4.82-.07,2.34-.19,4.67-.29,7-.06,1.49-.11,3-.17,4.49-.33-.15-1-.27-1-.44a15.66,15.66,0,0,1,0-3.62A13.2,13.2,0,0,0,65,31.55C64.78,30.16,65.35,28.68,65.59,27.24Z"/><path class="cls-6" d="M65.42,40.2c.12.87.46,1.42,1.5,1.35a22.34,22.34,0,0,1,2.71.12c0,.06,0,.16-.08.17-1.86.52-3.64,1.51-6.1,1.09l1.6-1.16-1.39-1.43.16-.33Z"/><path class="cls-3" d="M61.78,44.55s.11,0,.14,0a.38.38,0,0,1,0,.16l-.24,0Z"/><path class="cls-3" d="M48.2,26.11l.32-.11c1.51-.29,2,.78,2.53,1.92A2.94,2.94,0,0,1,48.57,30l-.35-.51C48.21,28.38,48.21,27.24,48.2,26.11Z"/><path class="cls-3" d="M86.91,73.15l-.34.36Z"/><path class="cls-3" d="M83.44,31.56c2.16.85,3.37,2.39,3.1,4.74a5.83,5.83,0,0,1-1.15,2.36c-.16.22-.85.23-1.23.11a7.77,7.77,0,0,1-1.54-.85l.55-3.52.64-.23Z"/><path class="cls-4" d="M82.18,40.68c.13.81.67.81,1.32.74,1.17-.13,2.34-.18,3.51-.27l-.19,1.4c-1.71.12-3.31.91-5,.13C82.07,42,81.13,41.18,82.18,40.68Z"/><path class="cls-4" d="M78.64,41.12c-.07-.83-.15-1.66-.23-2.49.9.23.42.8.32,1.27s0,.75,0,1.12Z"/><path class="cls-2" d="M78.74,41c0-.37,0-.74,0-1.12a1.4,1.4,0,0,1,.67,1.66Z"/><path class="cls-4" d="M78.4,38l0-1C79.14,37.39,79.1,37.71,78.4,38Z"/><path class="cls-4" d="M78.56,34.83l-.23-.5Z"/><path class="cls-4" d="M87.74,34c0-.53,0-1.05,0-1.58L89.2,33.6Z"/><path class="cls-3" d="M42.64,16.15c-1.42-.59-2.83-1.22-4.27-1.76A24.71,24.71,0,0,0,36,13.72c1.27-2.3,4.13-3.6,6.14-2.68a13.25,13.25,0,0,1,2.18,1.6.83.83,0,0,0,0,.35l-1.84.47C42.52,14.52,42.58,15.33,42.64,16.15Z"/><path class="cls-2" d="M33.12,13.4c-.94.56-1.16.5-1.57-.42Z"/><path class="cls-1" d="M7,44.8l.21.25-.38.24c0-.11-.13-.23-.11-.32S6.94,44.85,7,44.8Z"/><path class="cls-5" d="M28.39,23.66c-.41,1.21-.81,2.43-1.22,3.64l-1.1.33-1-1.3,1-3c.3-.86.66-.86,1.93,0l.42.39Z"/><path class="cls-3" d="M33.13,23.29l.17.08-.16-.09Z"/><path class="cls-4" d="M32,22.48c-.37,0-.75,0-1.12,0a6.76,6.76,0,0,1-1-.27C30.79,21.51,31.39,21.6,32,22.48Z"/><path class="cls-5" d="M67.26,37.76c.17-1.89-.74-3.8.18-5.78.36.11.68.15.69.23.21,1.52.45,3,.53,4.59,0,.37-.49.78-.75,1.17Z"/><path class="cls-4" d="M42.64,16.15c-.06-.82-.12-1.63-.2-2.69L44.28,13c.83,1.25,2,2.36,1.8,4.22A8.6,8.6,0,0,1,42.64,16.15Z"/><path class="cls-5" d="M75.09,33.14c1.24-.6,1.81,0,1.87.84.18,2.37.44,4.77-.68,7.26-.38-.35-.8-.54-.87-.83C74.77,38,75.29,35.51,75.09,33.14Z"/></g></svg>