<svg xmlns="http://www.w3.org/2000/svg" viewBox="0 0 100 100"><defs><style>.cls-1{fill:#63838f;}.cls-2{fill:#becbd0;}.cls-3{fill:#93a9b1;}.cls-4{fill:#7b96a0;}.cls-5{fill:#afb1bf;}</style></defs><g id="Ebene_23" data-name="Ebene 23"><path class="cls-1" d="M70.5,30.84h.66l1.89.51c.38.11.9.09,1.12.34.71.8,1.29.12,1.85-.14a3.81,3.81,0,0,0,.69.94,5.19,5.19,0,0,1,2.48,2.66c0,.1.16.18.25.27a6.14,6.14,0,0,1,1.66,3.34L79.25,39c0,1,.26,2.18-.16,3-.54,1.13.17,2.1,0,3.13L77,45.63c.16.41.18.76.37.91a28.07,28.07,0,0,0,2.24,1.7c.18.12.47.07.71.09-.07,1-1.06,2.1.41,3.1L79,51.77c.47,1.15-.44,2.52.78,3.28-.41,1.25-.8,2.36-1.13,3.5,0,.07.42.28.65.43l-.49,1.09a1.2,1.2,0,0,0-1.45.8l-1.06,0-.79-.07h0l-.31-.42-.78-.7a1.12,1.12,0,0,0-.1-.31c.11-.63.32-1.29-.5-1.64a1.25,1.25,0,0,0-.1-.27c0-.58-.06-1.16-.12-1.73s-.15-1-.23-1.56,0-.93,0-1.39l-.07-.45,0-.71c.07-.54-.24-.73-.71-.77-.2-2-1-2.78-3.34-3.08a2.06,2.06,0,0,1-2.48,1.69c-.37,0-.78.45-1.18.69h-.73a3.71,3.71,0,0,0-3.22-1.09,1.14,1.14,0,0,0-1.21,1c-.58.25-1.26.81-1.74.68a17.75,17.75,0,0,1-4-1.65c-1.07-.62-1.09-1.41-.82-2.63a4,4,0,0,1,1.44-2.17c.49-.43,1.09-1,.09-1.56a2.77,2.77,0,0,1,1-.33c1.36.14,2.41-.63,3.52-1.19.25-.13.29-.68.43-1h0l.28-.38,0,0c.58-.23.39-.67.29-1.08.7-1.9,2.16-3.24,3.44-4.72a4,4,0,0,0,.7-.16c1.27-.49,2.41-1.34,3.92-1.13.45.06.88-.28.92-.91A3,3,0,0,1,70.5,30.84Z"/><path class="cls-2" d="M73.41,54.19c.08.52.18,1,.23,1.56s.08,1.15.12,1.73a30.81,30.81,0,0,0-3.44-.34c-2,0-4,.25-6,.32-4.32.14-8.64.28-13,.34a51.8,51.8,0,0,0-6.35.11,25.26,25.26,0,0,1-5.63.19,22.08,22.08,0,0,0-5.8,0,18.42,18.42,0,0,1-4.2,0c-2.72-.17-5.44-.48-8.16-.64-1.58-.09-3.17,0-4.76,0-2.23-.07-4.45-.2-6.67-.29a3.21,3.21,0,0,0-.7.27c.15,2.5.13,5.06.5,7.56.47,3.23,1.26,6.42,1.91,9.62.33,1.6.57,3.23,1,4.8a9.65,9.65,0,0,0,1.67,3.77,22.51,22.51,0,0,0,4.39,3.23,4.14,4.14,0,0,0,1.56.42c.72.13,1.45.18,2.16.33a40.54,40.54,0,0,0,4.44,1c2,.2,4,.1,6,.19a10.61,10.61,0,0,1,1.73.35c-.17.52-1.16.86-.34,1.59l-6.3-.18-1.35-1.43c-.82.08-1.85-.45-2.19-.17-.83.69-1.65-.1-2.26.19a6.4,6.4,0,0,1,.11,2.14c-.77,2.25-1.36,4.48-.51,6.84a1.15,1.15,0,0,1,0,.18,3,3,0,0,1-1.31-3.4c.3-1.72.6-3.45.9-5.21a4,4,0,0,0-.78-.21,9,9,0,0,1-5.9-2.52,9.13,9.13,0,0,0-1.7-1c-2.58-1.49-3.35-4.09-4-6.7C8.33,76.53,8,74.23,7.62,72c-.21-1.25-.4-2.51-.54-3.78-.19-1.75-.33-3.5-.46-5.26s-.21-3.64-.32-5.46a2.53,2.53,0,0,0,2-.71l-1-1.81c2.47-.27,4.93.21,7.42,0,3.35-.23,6.72-.08,10.07,0,.84,0,1.67.28,2.52.37a40.06,40.06,0,0,0,7,.63c3.39-.26,6.77-.65,10.18-.64a19.19,19.19,0,0,0,2-.08c3.45-.33,6.88-.74,10.33-1,2.25-.15,4.51-.06,6.77,0a30.64,30.64,0,0,1,4-.09C69.53,54.33,71.49,54.89,73.41,54.19Z"/><path class="cls-2" d="M14.68,42.47c0-7-.06-13.91.06-20.86.08-4.42.31-8.85.74-13.24A10.65,10.65,0,0,1,18.26,2c.21-.22.39-.55.65-.61A35,35,0,0,1,24.55,0,18.42,18.42,0,0,1,29,.62a2,2,0,0,1,1.15.46c1.7,1.9,3.5,3.76,3.44,6.59a1.8,1.8,0,0,0-2.53-.41,7.33,7.33,0,0,1-1-1c-.31-.44-.46-1-.79-1.42a6.21,6.21,0,0,0-7-2.1,6.65,6.65,0,0,1-1,.34c-1.26.17-1.71,1-1.86,2.14C19.19,7.17,19,9.1,18.68,11c-.12.83-.35,1.65-.52,2.48A5.94,5.94,0,0,0,18,14.74c0,2.49,0,5,0,7.46-.12,3.77.56,7.5.59,11.25,0,1.22-.19,2.43-.16,3.65,0,1.7.2,3.4.35,5.09,0,.26.3.5.45.74-.15.25-.3.5-.46.74l-3.61-1.08Z"/><path class="cls-2" d="M76.33,60.89l1.06,0c.09.65.54.73,1,.6.73-.2.79-.8.8-1.42,1.55-.18,1.39-1.67,2-2.59.42-.68,0-1.27-.48-1.76.11-.54.47-1.21.28-1.61a1.59,1.59,0,0,1,.46-2l2.09-.1c.13,3.14.28,3.29,3.53,3.34h.19c1.8-.15,3.59.7,5.41.08.22-.07.56.18.85.29v1.47h0c-.34-.12-.69-.37-1-.33a1.44,1.44,0,0,0-1,.55c-.11.23.22.69.39,1a1.39,1.39,0,0,0,.34.31l1.58-.55.1.1a26.13,26.13,0,0,1-1.13,7.19,28.16,28.16,0,0,0-.71,4.67c-.21,2.3-.26,4.62-.46,6.92a11.92,11.92,0,0,1-3.1,6.5,31.6,31.6,0,0,1-4.39,4.34,15.87,15.87,0,0,1-3.63,2A2.4,2.4,0,0,0,79,91.72c-.14-.18-.44-.41-.4-.54C79,90,78.4,89,78.11,87.94c1.64,0,1.64,0,1.82-1.4a10.08,10.08,0,0,0,2.44-1.2,25.93,25.93,0,0,0,6.12-7.42,5.18,5.18,0,0,0,.63-1.69c.29-3,.6-5.93.72-8.89a27.92,27.92,0,0,1,.7-6.88,15,15,0,0,0,.28-2.24l-7.11-.66-.85,2.78a2.23,2.23,0,0,1-1.67,1.77,23.13,23.13,0,0,1-3.41.48c-1,0-2-.18-2.23-1.42ZM84,55.28l-2.18.14c.51,1.4,1.18,1.87,2.07,1.48Z"/><path class="cls-3" d="M83.55,52l-2.09.1a1.59,1.59,0,0,0-.46,2c.19.4-.17,1.07-.28,1.61A5.12,5.12,0,0,1,79.33,59c-.23-.15-.67-.36-.65-.43.33-1.14.72-2.25,1.13-3.5-1.22-.76-.31-2.13-.78-3.28l1.69-.34c-1.47-1-.48-2.07-.41-3.1,1.27-.93,1.09-2.07.32-3.36,1-.3,1.15-.94,1.22-1.8a8.94,8.94,0,0,1,.84-2.31c.32-.84.65-1.67,1-2.51l.66-.16.78.62c.25,1.59,1.21,3.21-.07,4.58l.8,2c-.62.36-.62.36-.07.91l.07-.9,1-.22-.47-1.47.3-.17,1.07,1a1.27,1.27,0,0,0,.68-1.65,3.68,3.68,0,0,1,3.27,2.7,7.82,7.82,0,0,0,.44,1.17,3.57,3.57,0,0,1,.29,2.93l1,.45c-1.31,1.92-2.2-.53-3.43-.16L90.43,51c-.92.81-1.78,1.41-3,.58s-1.62-.83-3.11.32Z"/><path class="cls-2" d="M71.57,89.73c-8.66,1-17.35.76-26,.74-2.61,0-5.21-.27-7.81-.41,0-.46,0-.92.05-1.38.76-.09,1.51-.21,2.27-.24.41,0,.83.19,1.25.18,2-.08,4.08-.16,6.11-.31s4-.39,6-.57,3.85-.34,5.78-.51l4.35-.38,4.34-.38a24.23,24.23,0,0,1,2.53-.22c1.73,0,3.46.16,5.19.24l-1.13,1.8c-.45,0-.93,0-1.41,0C71.68,88.21,71.68,88.2,71.57,89.73Z"/><path class="cls-2" d="M32.69,47.92A12.26,12.26,0,0,0,35,47.83,9,9,0,0,1,41.82,49,4.32,4.32,0,0,0,46,49.5a3.36,3.36,0,0,1,2.11-.16,5.88,5.88,0,0,0,2.27-.28c.47-.08.93-.24,1.39-.36L52.39,50,50.7,51.26c.6.06,1,.21,1.24.1,1.52-.63,1.51-.65,2.4.88-1,0-2.06,0-3.06-.12a7.36,7.36,0,0,0-3.75.26,8.29,8.29,0,0,1-6,.3,19,19,0,0,0-8.15-1.13,61.7,61.7,0,0,1-15.41-.73l.09-1,0,0c.66-.08.65-.6.72-1.08,1.5.36,3,1.18,4.59.51.13-.05.34.08.5.14a3.35,3.35,0,0,0,3.29,0c.14-.09.43-.18.5-.12,1.12,1.07,2.13.2,3.17-.15.3.56.64.81,1.28.37S33.09,48.67,32.69,47.92Z"/><path class="cls-2" d="M38.52,20.83a15,15,0,0,1-2.65.27c-2.24-.15-4.46-.51-6.69-.65a4.65,4.65,0,0,1-3.24-1.84,2.76,2.76,0,0,1,0-3.42C27.3,13,29,11,30.57,8.9c.1-.13.32-.16.49-.23l.83,1.06A32.09,32.09,0,0,1,27.52,15a2.43,2.43,0,0,0,.54,4.05,9.16,9.16,0,0,0,2.68,1c1.3.27,1.67-.2,2.35-1.4s.88-3,2.25-4c.66,1.2.66,1.2,1.84.43l-2.29-3c.26-1.54-.81-2.73-1.1-4.12a6.27,6.27,0,0,1,1.58.84,32.37,32.37,0,0,1,4.84,5.4A5.36,5.36,0,0,1,41,19.3a.18.18,0,0,1-.14.09.44.44,0,0,1-.15-.1c-.37-.78-1.14-1.08-1.76-1.57s-.92-1.59-1.87-1.21a13.4,13.4,0,0,1-.54,1.83c-.51,1.16-.29,1.8.91,2.29A6.14,6.14,0,0,0,38.52,20.83Z"/><path class="cls-4" d="M35.34,14.61c-1.37,1-1.49,2.69-2.25,4S32,20.31,30.74,20a9.16,9.16,0,0,1-2.68-1A2.43,2.43,0,0,1,27.52,15a32.09,32.09,0,0,0,4.37-5.29l-.83-1.06c0-.47,0-.94,0-1.41a1.8,1.8,0,0,1,2.53.41,2.54,2.54,0,0,0,.16.28c.29,1.39,1.36,2.58,1.1,4.12-.63.47-.56.92,0,1.46A4.1,4.1,0,0,1,35.34,14.61Z"/><path class="cls-2" d="M85.1,38.81l-.78-.62c.5-.91,1.33-.52,1.94-.35a8.4,8.4,0,0,1,4,2.67c2.33,2.64,3.3,5.85,4.15,9.08,1.06.66,2.5-.41,3.29.73a7.89,7.89,0,0,1,1.47,3.08A2.72,2.72,0,0,1,98.25,56c-.66-.28-.82-1.37-1.81-1.12-.2-1.67-.71-2.5-1.8-2.51a40.58,40.58,0,0,0-4.67.24,10.77,10.77,0,0,1-5.62-.69c1.49-1.15,1.83-1.22,3.11-.32s2.05.23,3-.58L90,49.93c1.23-.37,2.12,2.08,3.43.16l-1-.45a3.57,3.57,0,0,0-.29-2.93,7.82,7.82,0,0,1-.44-1.17,3.68,3.68,0,0,0-3.27-2.7L88,41.62l1.12.19V40.63l.09-.15-.09.15-2.91-2.1Z"/><path class="cls-4" d="M71.57,89.73c.11-1.53.11-1.52,1.46-1.44.48,0,1,0,1.41,0l1.13-1.8h.35l0,1.09h1.89v0l.38.39,0,0C78.4,89,79,90,78.6,91.18c0,.13.26.36.4.54.07,1.79.28,3.58.18,5.36-.08,1.35-1.61,1.94-3.25,1.45a4.15,4.15,0,0,0-.55-.94,8.45,8.45,0,0,1-2.23-5c-.05-.28.3-.63.52-1l1.84,1.82a7,7,0,0,0,.24-2.24c-.23-.79-.94-.5-1.55-.35-.18,0-.43-.2-.65-.22-.51,0-1,0-1.53,0Z"/><path class="cls-2" d="M71.85,20.18a5.54,5.54,0,0,1-3.29,4.64,1.73,1.73,0,0,1-.87.08,25.49,25.49,0,0,1-4.22-1c-2.49-1-3.91-4.37-1.82-7.56,1.83-2.79,1.88-2.85,5.35-2S71.49,16.67,71.85,20.18Zm-3.28-1.53c.09-.32.33-.69.24-.94a1.93,1.93,0,0,0-2.42-1.29,1.2,1.2,0,0,0-1.62-1c-1.38.3-1.81.94-2,2.89l.91-.1c.51,1.14-.69.83-1,1.2.56,3,1.41,4,3.78,4.43a3.43,3.43,0,0,0,3.59-2.09C70.64,20.28,70.35,19.69,68.57,18.65Z"/><path class="cls-4" d="M21.63,97.86a1.15,1.15,0,0,0,0-.18c-.85-2.36-.26-4.59.51-6.84A6.4,6.4,0,0,0,22,88.7c.61-.29,1.43.5,2.26-.19.34-.28,1.37.25,2.19.17l1.35,1.43h0l-1.12.19.47,2c0,.24-.05.47-.07.71a4.62,4.62,0,0,0-.8,1.33c-.38,1.72-2.07,2.49-2.74,4-.08.16-.56.15-.85.21l-.28-.13L22,98.21Z"/><path class="cls-3" d="M51.43,26.33c.84-2.06,2.07-2.57,4.1-1.58A19.68,19.68,0,0,1,58,26.33c-.23,2.14-.47,4.28-.7,6.35L53,32.25a6.92,6.92,0,0,1-1-4.47C52.13,27.35,51.65,26.82,51.43,26.33Z"/><path class="cls-4" d="M18.68,43.67c.16-.24.31-.49.46-.74,3.51-1.9,6.94-1.36,10.32.34.17.08.21.41.31.62l.35.33,0,0c.21.27.42.54.64.8h0c0,.24,0,.47.05.7A2.38,2.38,0,0,1,28.2,44.3c-.31-.69-.81-.83-1.57-.6-.49.89-1,1.85-1.54,2.76s-1.27.9-2.07,0a3.57,3.57,0,0,0-1.34-.7,11.31,11.31,0,0,0-1.24-.33l1.1-1.6a5.76,5.76,0,0,0-1.73.38C19.32,44.37,18.83,44.33,18.68,43.67Z"/><path class="cls-3" d="M54.34,52.23c-.89-1.52-.88-1.5-2.4-.87-.27.11-.64,0-1.24-.1L52.39,50l-.67-1.31c.32-.85.63-1.7.94-2.55l.93-1.74,1.65-1.7.27.08c1,.57.4,1.13-.09,1.56A4,4,0,0,0,54,46.52c-.27,1.22-.25,2,.82,2.63a17.75,17.75,0,0,0,4,1.65c.48.13,1.16-.43,1.74-.68,1,.24,2.06.49,3.1.72a1.09,1.09,0,0,0,1.33-.68h.73c.12.2.23.4.34.6a9.5,9.5,0,0,1-2.33.73C60.54,51.62,57.39,51.35,54.34,52.23Z"/><path class="cls-4" d="M83.66,38.35c-.32.84-.65,1.67-1,2.51a8.94,8.94,0,0,0-.84,2.31c-.07.86-.25,1.5-1.22,1.8.77,1.29,1,2.43-.32,3.36-.24,0-.53,0-.71-.09a28.07,28.07,0,0,1-2.24-1.7c-.19-.15-.21-.5-.37-.91l2.08-.42c.19-1-.52-2,0-3.13.42-.86.14-2.06.16-3l1.85-.29c.8.72,1.19-.41,1.83-.41Z"/><path class="cls-2" d="M51.43,26.33c.22.49.7,1,.62,1.45a6.92,6.92,0,0,0,1,4.47l4.22.43c.23-2.07.47-4.21.7-6.35,1.94,2.09,2.17,4.34.68,6.59a2.44,2.44,0,0,1-.63.65c-1.6,1.08-5.13.45-6.39-1a5.06,5.06,0,0,1-.89-5.45C50.84,26.8,51.19,26.59,51.43,26.33Z"/><path class="cls-2" d="M4.44,57c-3-.59-3.79-1.65-3.64-5,.13-2.85,1.28-4.14,4-4.43.05.52.08,1,.15,1.54,0,.35.13.69.2,1l.39.35.71,0,2.24.34c-1.1,0-2.19,0-3.28.1a2.14,2.14,0,0,0-1,.28c-.5.33-.95.76-1.51,1.22-.11,1.41,0,1.74,1.29,2.24A8.21,8.21,0,0,0,5.54,55c-.31.24-.6.52-.93.73C4,56.1,4,56.52,4.44,57Z"/><path class="cls-3" d="M31.24,27.69c-.13,1,0,1.62-.31,2S29.61,31,29.32,30.86a4,4,0,0,1-2-1.88c-.65-1.82.05-3.57,1-5.16a.82.82,0,0,1,1.48,0C30.38,25.2,30.84,26.61,31.24,27.69Z"/><path class="cls-3" d="M35.21,32.13c.5.26,1,.36,1.26.69A16.07,16.07,0,0,1,38,35.51a3.32,3.32,0,0,1-2,4.64C34.13,37.59,33.4,36.75,35.21,32.13Z"/><path class="cls-2" d="M82.93,38.34c-.64,0-1,1.13-1.83.41a6.14,6.14,0,0,0-1.66-3.34c-.09-.09-.21-.17-.25-.27a5.19,5.19,0,0,0-2.48-2.66,3.81,3.81,0,0,1-.69-.94c-.56.26-1.14.94-1.85.14-.22-.25-.74-.23-1.12-.34l-1.89-.51c.08-.09.17-.25.25-.25,2.57.07,5.22-.25,7.24,2,1.43,1.57,3.15,2.89,3.7,5.1C82.41,37.91,82.73,38.11,82.93,38.34Z"/><path class="cls-4" d="M14.68,42.47l.39.12a21.05,21.05,0,0,0,.2,2.52,1.64,1.64,0,0,1-.6,1.71l-2.33-.48L11.82,45l-1.52.88-1.09-.82L9.14,45c1.26-.78,2.49-1.62,3.8-2.31A5.17,5.17,0,0,1,14.68,42.47Z"/><path class="cls-2" d="M22.73,98.59c.29-.06.77,0,.85-.21.67-1.5,2.36-2.27,2.74-4a4.62,4.62,0,0,1,.8-1.33c.16,1.31.29,2.62.49,3.93a2.46,2.46,0,0,1-3,2.93C23.89,99.74,22.84,99.78,22.73,98.59Z"/><path class="cls-3" d="M72,90.48c.51,0,1,0,1.53,0,.22,0,.47.27.65.22.61-.15,1.32-.44,1.55.35a7,7,0,0,1-.24,2.24l-1.84-1.82c-.22.41-.57.76-.52,1a8.45,8.45,0,0,0,2.23,5,4.15,4.15,0,0,1,.55.94,1.73,1.73,0,0,1-1.79-1C72.89,95.34,71.84,93.09,72,90.48Z"/><path class="cls-3" d="M38.52,20.83a6.14,6.14,0,0,1-1.07-.2c-1.2-.49-1.42-1.13-.91-2.29a13.4,13.4,0,0,0,.54-1.83c1-.38,1.21.69,1.87,1.21s1.39.79,1.76,1.57C40.09,20,39.58,20.79,38.52,20.83Z"/><path class="cls-4" d="M5.12,50.17c-.07-.34-.15-.68-.2-1-.07-.51-.1-1-.15-1.54h0l.38-.05C6.7,47.38,7.5,46,8.73,45.32l.12.11L8,47.29l.43,1.41c-1.37-.19-2,.58-2.21,1.79l-.71,0Z"/><path class="cls-3" d="M96.44,54.9c1-.25,1.15.84,1.81,1.12-.1.25-.2.5-.31.75a8.92,8.92,0,0,1-4.41.36V55.66Z"/><path class="cls-3" d="M4.44,57c-.4-.49-.43-.91.17-1.28.33-.21.62-.49.93-.73l1.8-.06,1,1.81a2.53,2.53,0,0,1-2,.71l0,0-1.49-.3A.93.93,0,0,1,4.44,57Z"/><path class="cls-2" d="M70.5,30.84a3,3,0,0,0-.42,1c0,.63-.47,1-.92.91-1.51-.21-2.65.64-3.92,1.13a4,4,0,0,1-.7.16A7.71,7.71,0,0,1,70.5,30.84Z"/><path class="cls-3" d="M37.78,88.68c0,.46,0,.92-.05,1.38a5.67,5.67,0,0,1-3.59.24c-.82-.74.17-1.08.34-1.6A9.15,9.15,0,0,1,37.78,88.68Z"/><path class="cls-5" d="M55.51,42.79l-.27-.08c1-.55,1.91-1.15,2.91-1.64.74-.35,1.55-.56,2.33-.84-.14.36-.18.91-.43,1-1.11.56-2.16,1.33-3.52,1.19A2.77,2.77,0,0,0,55.51,42.79Z"/><path class="cls-2" d="M93.53,57.13a8.92,8.92,0,0,0,4.41-.36c-.37,1.25-1.58,1-2.45,1.37a5.49,5.49,0,0,1-1.58.1l-.1-.1c-.09-.33-.19-.67-.28-1Z"/><path class="cls-3" d="M32.69,47.92c.4.75,0,1.15-.6,1.56s-1,.19-1.28-.37l.08-1.56c.51.48,1,.27,1.48-.06Z"/><path class="cls-2" d="M32.37,47.49c-.48.33-1,.54-1.48.06,0-.6,0-1.21,0-1.81,0-.23,0-.46-.05-.7A2.67,2.67,0,0,1,32.37,47.49Z"/><path class="cls-2" d="M27.19,92.35l-.47-2,1.12-.19C27.74,90.89,28.29,91.86,27.19,92.35Z"/><path class="cls-5" d="M53.59,44.41l-.93,1.74A1.58,1.58,0,0,1,53.59,44.41Z"/><path class="cls-2" d="M4.77,57.13l1.49.3Z"/><path class="cls-2" d="M30.8,45c-.22-.26-.43-.53-.64-.8C30.37,44.51,30.58,44.78,30.8,45Z"/><path class="cls-5" d="M61.1,38.72c.1.41.29.85-.29,1.08C60.91,39.44,61,39.08,61.1,38.72Z"/><path class="cls-2" d="M5.16,47.55l-.38.05Z"/><path class="cls-4" d="M8.73,45.32,9.14,45l.07.1-.36.34Z"/><path class="cls-2" d="M30.12,44.22l-.35-.33Z"/><path class="cls-5" d="M60.77,39.84l-.28.38Z"/><path class="cls-2" d="M22,98.21l.44.25Z"/><path class="cls-4" d="M66.73,50.73l-.74,0c-.11-.2-.22-.4-.34-.6.4-.24.81-.73,1.18-.69a2.06,2.06,0,0,0,2.48-1.69c2.32.3,3.14,1.07,3.34,3.08-1.33.76-2.57.34-3.78-.29C68.11,50.19,67.38,49.71,66.73,50.73Z"/><path class="cls-3" d="M66.73,50.73c.65-1,1.38-.54,2.14-.15,1.21.63,2.45,1.05,3.78.29.47,0,.78.23.71.77a7.54,7.54,0,0,0-2,.56,2.07,2.07,0,0,1-2.52,0Z"/><path class="cls-4" d="M64.92,50.16a1.09,1.09,0,0,1-1.33.68c-1-.23-2.07-.48-3.1-.72a1.14,1.14,0,0,1,1.21-1A3.71,3.71,0,0,1,64.92,50.16Z"/><path class="cls-3" d="M78.84,60.07l.4,0c0,.62-.07,1.22-.8,1.42-.51.13-1,.05-1-.6A1.2,1.2,0,0,1,78.84,60.07Z"/><path class="cls-2" d="M74.36,59.39c-.85-.33-.61-1-.5-1.64C74.68,58.1,74.47,58.76,74.36,59.39Z"/><path class="cls-2" d="M75.2,60.8c-.68-.08-.79-.54-.74-1.1l.78.7C75.23,60.53,75.21,60.67,75.2,60.8Z"/><path class="cls-3" d="M75.55,61.17a.6.6,0,0,1,0-.35l.79.07Z"/><path class="cls-3" d="M75.2,60.8c0-.13,0-.27,0-.4l.31.42-.18,0Z"/><path class="cls-2" d="M73.45,52.8l-.07-.45Z"/><path class="cls-1" d="M8.85,45.43l.36-.34,1.09.82L11.82,45l.52,1.31,2.33.48a1.64,1.64,0,0,0,.6-1.71,21.05,21.05,0,0,1-.2-2.52l3.61,1.08c.15.66.64.7,1.13.55a5.76,5.76,0,0,1,1.73-.38l-1.1,1.6a11.31,11.31,0,0,1,1.24.33,3.57,3.57,0,0,1,1.34.7c.8.89,1.47,1,2.07,0s1.05-1.87,1.54-2.76c.76-.23,1.26-.09,1.57.6a2.38,2.38,0,0,0,2.65,1.44c0,.6,0,1.21,0,1.81s-.05,1-.08,1.56c-1,.35-2,1.22-3.17.15-.07-.06-.36,0-.5.12a3.35,3.35,0,0,1-3.29,0c-.16-.06-.37-.19-.5-.14-1.63.67-3.09-.15-4.59-.51-.88-.06-.77.53-.72,1.08l0,0c-.55-.07-1.08-.09-1.15.66l-1.41-.05-.86-1.31c-1.46.09-2.5.1-3.51.25a3.09,3.09,0,0,1-2.66-.71L8,47.29Z"/><path class="cls-3" d="M93.53,57.13c.09.34.19.68.28,1l-1.58.55a1.39,1.39,0,0,1-.34-.31c-.17-.34-.5-.8-.39-1a1.44,1.44,0,0,1,1-.55C92.84,56.76,93.19,57,93.53,57.13Z"/><path class="cls-3" d="M84,55.28l-.11,1.62c-.89.39-1.56-.08-2.07-1.48Z"/><path class="cls-3" d="M78.54,86.57l1.39,0c-.18,1.38-.18,1.38-1.82,1.4l0,0-.38-.39v0Z"/><path class="cls-5" d="M89.13,40.63v1.18L88,41.62l.39,1.22a1.27,1.27,0,0,1-.68,1.65l-1.07-1-.3.17.47,1.47-1,.22h0l-.8-2c1.28-1.37.32-3,.07-4.58l1.12-.28,2.91,2.1Z"/><path class="cls-5" d="M85.83,45.4l-.07.9c-.55-.55-.55-.55.07-.91Z"/><path class="cls-3" d="M16.87,50.52c.07-.75.6-.73,1.15-.66l-.09,1-1,0A2,2,0,0,1,16.87,50.52Z"/><path class="cls-3" d="M18,49.84c-.05-.55-.16-1.14.72-1.08C18.69,49.24,18.7,49.76,18,49.84Z"/><path class="cls-5" d="M89.13,40.63l.09-.15-.09.15Z"/><path class="cls-2" d="M78.54,86.57l-.78,1H75.87l0-1.09Z"/><path class="cls-2" d="M77.75,87.57l.38.39Z"/><path class="cls-4" d="M68.57,18.65c1.78,1,2.07,1.63,1.51,3.11a3.43,3.43,0,0,1-3.59,2.09c-2.37-.44-3.22-1.42-3.78-4.43.3-.37,1.5-.06,1-1.2l-.91.1c.17-1.95.6-2.59,2-2.89a1.2,1.2,0,0,1,1.62,1,3.06,3.06,0,0,0,.69,2.47Z"/><path class="cls-3" d="M8.43,48.7a3.09,3.09,0,0,0,2.66.71c1-.15,2.05-.16,3.51-.25l.86,1.31-1.89.06-1.81,0-2.2.23-1.1,0-2.24-.34C6.46,49.28,7.06,48.51,8.43,48.7Z"/><path class="cls-3" d="M5.12,50.17l.39.35Z"/><path class="cls-2" d="M36.71,84.44c-3.53-.14-7.09.25-10.56-.79a8.57,8.57,0,0,0-2.73-.1,10.43,10.43,0,0,1-6.4-2.3,5.87,5.87,0,0,1-2.28-3.64c-.19-.77-.25-1.57-.51-2.31A1.79,1.79,0,0,1,15,73.22a1.11,1.11,0,0,1,1.82.4,9.46,9.46,0,0,1,.43,1.4c.29,1,.51,2,.87,2.93C19,80.36,21,81.19,23.39,81.4s4.69.61,7,.88a8.53,8.53,0,0,0,2.89.07A4.82,4.82,0,0,1,36,82.5Z"/><path class="cls-2" d="M43.29,83.28c.32-.26.6-.7.94-.76a54.07,54.07,0,0,1,5.52-.7c.73,0,1,.83.67,1.52a2.14,2.14,0,0,1-.59.68C48.16,85.33,44.93,85,43.29,83.28Z"/><path class="cls-3" d="M36.71,84.44,36,82.5a16.19,16.19,0,0,1,2.51,0c.37.05,1,.57,1,.8a1.65,1.65,0,0,1-.82,1.19A5.93,5.93,0,0,1,36.71,84.44Z"/><path class="cls-2" d="M9.56,50.79l2.2-.23C11.05,50.87,10.39,51.65,9.56,50.79Z"/><path class="cls-2" d="M13.57,50.53l1.89-.06,1.41.05a2,2,0,0,0,0,.35Z"/></g></svg>