<svg id="Ebene_1" data-name="Ebene 1" xmlns="http://www.w3.org/2000/svg" viewBox="0 0 100 100"><defs><style>.cls-1{fill:#d5ccc7;}.cls-2{fill:#d0c6c1;}.cls-3{fill:#a48f86;}.cls-4{fill:#b6a59e;}.cls-5{fill:#c8bbb5;}.cls-6{fill:#c3a7a6;}</style></defs><path class="cls-1" d="M90.59,41.13c1.16,2.33,2.89,4.4,3.33,7.07.1.58.13,1.16.18,1.75.19,2.27.4,4.55.54,6.83,0,.8-.15,1.62-.15,2.43,0,3.06-.06,6.13,0,9.19a27.28,27.28,0,0,0,.34,3,2.87,2.87,0,0,1-1.31,2.92h1.89L95.7,72c1.87.31,2.74,1.18,3,2.73a9.06,9.06,0,0,1,0,4c-.55,2.19.23,4.43,0,6.64-.07.58-.07,1.17-.11,1.76-1-.73-.76-1.79-.43-3.11a8.69,8.69,0,0,1-1.11.83c-.53.25-.74-.07-.8-.56,1.27-.42.45-1.63,1.22-2.54l-2.19-.61c0-.52.12-1,.13-1.56,0-1.44,0-2.89,0-4.34-2.56.18-5,.51-7.45.5-6.17,0-12.35.29-18.52-.25-3-.27-6-.09-9-.08a52.16,52.16,0,0,0-6,.13,24.92,24.92,0,0,1-8.74-.24,13.28,13.28,0,0,0-2.45-.16c-.62,0-1.25,0-1.88,0-1.64-.12-3.27-.34-4.91-.37-3.29-.07-6.59-.07-9.89,0-1.52,0-3,.27-4.56.3-.95,0-2,.41-2.87-.35.45-.1.89-.17,1.33-.29.88-.25,1.9-.28,2.19-1.42,1.28-.14.41-1.37,1-2l.67,1.57a14.09,14.09,0,0,1,2.3.58,3.4,3.4,0,0,0,2.85.34c.16-.07.55.39.74.54.45-.4.89-.75,1.29-1.15a10.45,10.45,0,0,0,.7-.91c2.33-.12,4.67-.23,7-.37a2.33,2.33,0,0,0,.77-.33c.39-.6.77-.37,1.14,0a7.34,7.34,0,0,0,1.29.31c1.9.14,3.81.22,5.71.36.83.06,1.65.2,2.63.33l-.51-.67h1.43c.84,1.14,1.47,1.23,2.46.45a4.11,4.11,0,0,1,1.05-.45,2.36,2.36,0,0,0,.78.25c.81,0,1.62-.15,2.43-.23a2,2,0,0,0,2,1.07,11.57,11.57,0,0,1,2.41.34,4,4,0,0,0,3.74-1.14c.81.2,1.6.79,2.43.06.83.1,1.67.16,2.49.31,1.84.35,3.61,1.1,5.54.76,1.24,0,2.47,0,3.71,0s2.36,1.13,3.9.36c-.18-1.06-.37-2.11-.51-2.92l-5.27-1a3.69,3.69,0,0,0,3.58-2.15l1.43,2.39,1.25-.43c.61-2.43.07-3.26-2-3.38-.81,0-1,.35-1,1L81,66.53l.85-.46c-1.47-1.26-3-1-4.35-1.31-.31-1-.55-2.12-1.61-2.72l.24-.41c1.87.12,3.74.21,5.6.38a7.61,7.61,0,0,1,7.08,7.4,2.49,2.49,0,0,0,.12.86,4.78,4.78,0,0,1-.19,3.63H90.9a6.1,6.1,0,0,0,0-1.49c-.84-2.81-.63-5.7-.62-8.57,0-2,.21-4.08.32-6.13.06-1.26.4-2.53-.3-3.75a3.65,3.65,0,0,1-.36-1.35,20.92,20.92,0,0,0-3.23-9.37l2.28.18v-.26l-2.28-1h0C88.07,42.1,89.59,42.6,90.59,41.13Z"/><path class="cls-2" d="M86.7,42.18l2.28,1v.26l-2.28-.18a2.63,2.63,0,0,0-2.76-1.49,1.63,1.63,0,0,1-.68-.12,36.93,36.93,0,0,0-14.83-1,14.61,14.61,0,0,1-3.17,0c-2.62-.28-5.23-.64-7.84-1A20.18,20.18,0,0,0,55,39.37c-4.34,0-8.67-.18-13,0-.76,0-1.51.24-2.26.23-1.47,0-2.93-.14-4.39-.23-1.75-.11-3.51-.21-5.26-.35A13.52,13.52,0,0,0,27,38.72a16.7,16.7,0,0,1-5.42,0c-1.05-.16-2.31-.21-3,.62a11.91,11.91,0,0,1-4.34,3.22A1.26,1.26,0,0,0,13.49,44c.13,1.1.21,2.2.28,3.31.13,1.81.25,3.62.35,5.43a14.55,14.55,0,0,1-.8,6.1,21,21,0,0,1-.89-7.09A12.24,12.24,0,0,0,11.62,46a1.82,1.82,0,0,1,.24-2,7.89,7.89,0,0,1,2.65-2.68c1.34-.74,2.37-2,3.87-3.37-1-.13-1.5-.24-2-.27s-1.1.2-1.55,0a2,2,0,0,0-2.21.61c-1,.89-2.08,1.69-3,2.62s-2.16,1.9-2.33,3.39c0,.47,0,.8-.38,1.18s-.32.84-.52,1.25a10,10,0,0,1-.58,1c-.92-1.5-.25-2.91.54-4.09a57.15,57.15,0,0,1,3.79-4.63A6.47,6.47,0,0,1,13.85,37c1.58-.34,3.14-1,4.84-.52.29.09.68-.15,1-.16,1.05,0,2.1,0,3.15,0a13.44,13.44,0,0,0,3.15.12c2.16-.5,4.19.13,6.27.32.41,0,.82.14,1.22.14a82.21,82.21,0,0,0,8.31-.1,108.9,108.9,0,0,1,12-.21c2.86,0,5.72.49,8.59.75,1.22.11,2.45.27,3.68.28,3.47,0,7-.17,10.42,0,3.86.2,7.74.41,11.43,1.74.55.2,1.08.47,1.61.71l.78,1a.66.66,0,0,1,.28,0c-1,1.47-2.52,1-3.88,1l-.15-.08Z"/><path class="cls-1" d="M29.39.81C31.13.59,32.86.24,34.6.16A48.37,48.37,0,0,1,42,.14c4.81.5,9.63.13,14.45.35,3.45.17,6.9-.23,10.35,0,1.16.07,2.33.2,3.49.36.38.06.93.2,1.07.47.73,1.44,1.85,2.71,1.89,4.46a8.63,8.63,0,0,0,.44,3.1,10.59,10.59,0,0,1,.49,6.07A47.51,47.51,0,0,0,73.57,23a6.44,6.44,0,0,1-.1.87l-1.24-.05H71.11l-.65,0-.09-.13c0-.64.08-1.28.06-1.92-.1-3.91-.23-7.82-.34-11.73,0-.62,0-1.25,0-2l-.7.56H69c-.81-.18-.8-.54-.19-1a9.09,9.09,0,0,1,.87-.47c0-.59,0-1.17,0-1.76-.06-1.42-.46-1.87-1.87-2.07a6.3,6.3,0,0,0-1.23,0l-6.48.31a8.17,8.17,0,0,0-.32-1c-.37-.72-.86-1.29-1.79-1s-1.29,1-1.25,2.21c1,.49,2,.07,3.06-.11A4,4,0,0,1,58.4,6.45c-.06-.53-.12-1.06-.2-1.75-.51,0-1,.12-1.51.12a7.47,7.47,0,0,1-1.14-.17l.6-1.36h-3c-2.59,0-5.18,0-7.77-.1C41.74,3.11,38.1,3,34.46,3c-1.93,0-3.86.16-5.79.25Z"/><path class="cls-3" d="M5.74,47.83a10,10,0,0,0,.58-1c.2-.41.22-1,.52-1.25s.33-.71.38-1.18C7.39,42.91,8.56,42,9.55,41s2-1.73,3-2.62a2,2,0,0,1,2.21-.61c.45.16,1-.06,1.55,0s1.07.14,2,.27c-1.5,1.34-2.53,2.63-3.87,3.37a7.89,7.89,0,0,0-2.65,2.68,1.82,1.82,0,0,0-.24,2,12.24,12.24,0,0,1,.81,5.69,21,21,0,0,0,.89,7.09L13.38,63l-.85.69a10.35,10.35,0,0,1-.84,1.85c-.48.69-.29,1.13.37,1.35a13.7,13.7,0,0,0,2,.35l-.24,1.15c-.24.27-.59.5-.68.81a17,17,0,0,0-.38,2c-1.07-.32-1.39.56-1.88,1.18-1.69-.23-1.69-.23-2-1.54.06-1.22.11-2.44.16-3.66A.33.33,0,0,0,9,67c-.51-.74-1-1.48-1.49-2.18l.49-1L6.19,61.12,7.14,60c-.51-.88-1-1.54-2.06-1.55.15-1.68.47-3.34-.08-5-.16-.49.16-1.13.18-1.7s-.07-1.12-.1-1.68c.69-.17.56-.7.53-1.19Z"/><path class="cls-1" d="M80.39,90.56c-2.64.14-5.28.38-7.92.38-3.63,0-7.27-.22-10.91-.34s-7.29-.17-10.93-.35c-2.63-.13-5.26-.41-7.89-.62a6.07,6.07,0,0,0-1.41,0c-4.15.71-8.34.18-12.51.34-1.93.07-3.86.21-5.8.31.44-.84.88-1.68,1.4-2.65l1.6,1c.2-.52.37-1,.55-1.47h1.76l.49,1,.58-.7c.69,0,1.37-.15,2.06-.14,2.37,0,4.74.1,7.1.16.65.16,1-.23,1.41-.65l1.82.34.7,0c.85.07,1.69.11,2.54.21,1.39.15,2.78.34,4.18.51l.46.64.59-.69c6.72.21,13.44.12,20.16,0l1.06.06a6.16,6.16,0,0,1,1,0c2.24.34,4.47.71,6.69,1.08A1.33,1.33,0,0,1,80.39,90.56Z"/><path class="cls-4" d="M80.39,90.56a1.33,1.33,0,0,0-1.17-1.64c-2.22-.37-4.45-.74-6.69-1.08a6.16,6.16,0,0,0-1,0c0-.28,0-.57.08-.88,1.88-.15,3.72-.52,5.12.9l1.11-1.07.92,1.27c.23-1,1-1.06,1.75-1.06.19,0,.42.44.56.41,1.32-.32,2.62-.69,3.92-1h.7c1.3.59,2.59.25,3.89,0,1.34.52,1.39.48,2.13-.45a6.83,6.83,0,0,1,1.24-1l-.4-.76c.39-.26.91-.43,1.08-.77a4.18,4.18,0,0,0,.2-1.48l1.08-.44.43-.36,2.19.61c-.77.91,0,2.12-1.22,2.54l-.75-.64c.86,2.58.71,3-1.72,4.1l.69,1.81-1.12.33-.69.11-3.19.26-1.35.6-1-.59h0c-.12-.3-.23-.6-.34-.9l-.81.75-1,0c-.58-1-1.38-.72-2.08-.27a3.43,3.43,0,0,1-2.46.68Z"/><path class="cls-5" d="M56.32,27a1.88,1.88,0,0,1-.63.29,106.1,106.1,0,0,1-16.34.08c-1.61-.16-3.27.21-4.9.13-1.82-.1-3.75.29-5.4-.89.1-.66.19-1.31.29-2l.05-.13c1,.09,2,.25,3,.26,1.4,0,2.95.28,3.83-1.3a1.48,1.48,0,0,1,1.65.66,9.79,9.79,0,0,0,1.65.37,39.62,39.62,0,0,1,4.23.11A22.32,22.32,0,0,0,51,24.55c1.26-.23,2.56-.27,3.84-.39-.06.23,0,.58-.18.66a15.09,15.09,0,0,1-1.58.66C54,26.64,55.26,26.62,56.32,27Z"/><path class="cls-2" d="M70.85,27.12a41.41,41.41,0,0,1-4.32-.29,23.76,23.76,0,0,0-7.29,0c-.51.08-1,.06-1.57.09.42-.67.83-1.33,1.32-2.14l-.25-1,.16-.16-.17.15a3,3,0,0,0-2.37-.16c-.19.09-.53-.15-.81-.24l2.85-4.22c.36.24.83.4,1,.73a1.45,1.45,0,0,0,1.43.69l-1.52,2.78a9,9,0,0,0,1.7,0,19.45,19.45,0,0,1,7.45.1c.62.11,1.25.16,1.87.24l.09.13-.73,1.25Z"/><path class="cls-1" d="M27.36,24.55c0-1.33-.05-2.67-.08-4-.06-2.57.33-5.17-.6-7.67a1.06,1.06,0,0,1-.06-.53c.58-3-.36-6.06,0-9.09.61.27.72,1.32,1.66,1.06a16.94,16.94,0,0,1,.4,1.82c.09.75.05,1.52.12,2.27.17,1.74.38,3.48.56,5.21a8,8,0,0,0,.12,1.4c1,3.17.32,6.32-.09,9.48l-.05.13C28.7,24.07,28,24.55,27.36,24.55Z"/><path class="cls-4" d="M5.08,58.43c1,0,1.55.67,2.06,1.55l-.95,1.14L8,63.81l-.49,1c.47.7,1,1.44,1.49,2.18a.33.33,0,0,1,.07.16c0,1.22-.1,2.44-.16,3.66-.24.2-.71.42-.69.59a5.63,5.63,0,0,1-.8,2.93l-1.72.25L5,71.18c0-3.26-.07-6.53-.07-9.79C4.91,60.4,5,59.41,5.08,58.43Z"/><path class="cls-2" d="M16.32,90.72a2.26,2.26,0,0,1-2.14,0c0-.75.12-1.55-1-1.45-.8-.45-1-1.75-2.37-1.69-.26,1-.51,2.06-.77,3.09l-.42,0a17,17,0,0,1-5.67-.81,2,2,0,0,1,.25-2.24c.16-.16.09-.55.13-.83h.36c2.09.68,4.2.16,6.3.09l-.67-.13c.05-1.48,1.25-1.17,2.13-1.37l.36.36.37,1.05,1.79.36h.31l1.75.32.74,0,2.1-.3-.33,1h0l-2.55.37c-.65.09-.61.58-.63,1Z"/><path class="cls-2" d="M16.71,91.39A3,3,0,0,1,19,93.82a12.54,12.54,0,0,1,.43,3.29c0,2.19-1.27,3.17-3.76,2.82A23.11,23.11,0,0,1,16.71,91.39Z"/><path class="cls-2" d="M87.08,90.27l1,.59,1.35-.6c.14,1,.32,2.06.42,3.09.14,1.39.29,2.79.3,4.18a1.81,1.81,0,0,1-2,1.52,1.31,1.31,0,0,1-.74-.82c-.55-2.27-1.14-4.54-.48-6.91A5.15,5.15,0,0,0,87.08,90.27Z"/><path class="cls-2" d="M80.44,90.58a3.43,3.43,0,0,0,2.46-.68c.7-.45,1.5-.69,2.08.27l-1.86.71a28.24,28.24,0,0,1,0,3c-.1,1-.44,2-.58,3.09s-.23,2.13-1.78,2.4c-.67-1.48-.27-3-.28-4.47S80.44,92,80.44,90.58Z"/><path class="cls-1" d="M12.73,91c.09,1.87.15,3.74.28,5.6.1,1.5-1,2.31-2.89,2A20.23,20.23,0,0,1,10,91l.11-.12,2.59,0Z"/><path class="cls-5" d="M94.48,89.56l-.69-1.81c2.43-1.11,2.58-1.52,1.72-4.1l.75.64c.06.49.27.81.8.56A8.69,8.69,0,0,0,98.17,84c-.33,1.32-.62,2.38.43,3.11l.06.66c-1.55-.05-1.06,1.78-2,2.19l-1.52-.38-.47,0h-.16Z"/><path class="cls-2" d="M5,71.18l.75,3.42-1.1.48-.45-1c-.29.16-.68.26-.85.5C2.79,75.38,2,76,2.08,77.2c0,.33-.37.7-.57,1C.38,75.33,1.32,72.83,4,71.59,4.34,71.44,4.66,71.32,5,71.18Z"/><path class="cls-4" d="M55.55,23.4c.28.09.62.33.81.24a3,3,0,0,1,2.37.16h0l.25,1c-.49.81-.9,1.47-1.32,2.14l-.16,0h-.17L57,27h-.66c-1.06-.37-2.29-.35-3.2-1.51a15.09,15.09,0,0,0,1.58-.66c.14-.08.12-.43.18-.66C55.1,23.91,55.33,23.66,55.55,23.4Z"/><path class="cls-1" d="M1.92,82.89c0-1.32,0-2.65,0-4,.27-.19.54-.37.79-.58L4.5,76.79c.18,1.76.37,3.52.55,5.28l-1.73-.71-.51,1.47Z"/><path class="cls-4" d="M70.85,27.12l-1.12-2,.73-1.25.65,0c0,.22.07.61.17.64.5.11.88-.05,1-.64l1.24.05.44.36c0,.68,0,1.36.07,2l-.34.37-.4.29A2.76,2.76,0,0,1,70.85,27.12Z"/><path class="cls-2" d="M26.57,87.15,26,88.62l-1.6-1c-.52,1-1,1.81-1.4,2.65h-.69l-.36-1,.4-.21c-.08,0-.16-.12-.25-.13s-.34,0-.51,0h-.35c.72-.74-.37-1.13-.33-1.73Z"/><path class="cls-5" d="M28.28,4.32c-.94.26-1.05-.79-1.66-1.06-.17-.24-.35-.47-.5-.71a.79.79,0,0,1,.53-1.33c.9-.21,1.82-.28,2.74-.41l-.72,2.41Z"/><path class="cls-4" d="M4.5,76.79,2.67,78.33c-.25.21-.52.39-.79.58-.12-.22-.24-.44-.37-.66.2-.35.6-.72.57-1C2,76,2.79,75.38,3.33,74.57c.17-.24.56-.34.85-.5l.45,1Z"/><path class="cls-5" d="M4.28,86.77c0,.28,0,.67-.13.83a2,2,0,0,0-.25,2.24c-1.49.28-1.82.07-2-1.28l.81-.31,0-.25-.89-.2L1.74,86h.78a1.36,1.36,0,0,0,1.76.62Z"/><path class="cls-4" d="M27.36,24.55c.66,0,1.34-.48,2,.08-.1.66-.19,1.31-.29,2l-2.6-.39Z"/><path class="cls-2" d="M20.86,90.32l-1.71.33H17.73c0-.67.06-1.27.86-1.44a1,1,0,0,0,.9-1.06h0c.61,0,1.15.06,1.41.71l-.74.75c.53.38,1.42-.37,1.45.65l-.17,0h-.17Z"/><path class="cls-1" d="M95.17,89.6l1.52.38c.91-.41.42-2.24,2-2.19.12,1.72-.4,2.57-1.79,2.8C96.06,90.72,95.34,90.6,95.17,89.6Z"/><path class="cls-5" d="M19.49,88.17a1,1,0,0,1-.9,1.06c-.8.17-.89.77-.86,1.44l-.36,0a1,1,0,0,0-1.06-1.11c0-.47,0-1,.63-1Z"/><path class="cls-5" d="M1.92,82.89l.89-.06.74,1.42L2.44,85.34a4.52,4.52,0,0,0-.11-.75,4.23,4.23,0,0,0-.44-.69Z"/><path class="cls-1" d="M1.89,83.9a4.23,4.23,0,0,1,.44.69,4.52,4.52,0,0,1,.11.75c0,.23.05.47.08.7H1.74A1.89,1.89,0,0,1,1.89,83.9Z"/><path class="cls-1" d="M21.61,90.28c0-1-.92-.27-1.45-.65l.74-.75h.71l.36.36.36,1Z"/><path class="cls-1" d="M13.13,89.23c1.17-.1,1.07.7,1,1.45l-1,0-.12-.11Z"/><path class="cls-1" d="M74,26.26c0-.68,0-1.36-.07-2C74.89,25,74.89,25.25,74,26.26Z"/><path class="cls-1" d="M16.31,89.59a1,1,0,0,1,1.06,1.11l-1.05,0C16.32,90.34,16.31,90,16.31,89.59Z"/><path class="cls-2" d="M85.93,90.12l.81-.75c.11.3.22.6.34.9Z"/><path class="cls-2" d="M5.61,48.84c0,.49.16,1-.53,1.19C5.05,49.54,4.94,49,5.61,48.84Z"/><path class="cls-1" d="M1.83,87.8l.89.2,0,.25-.81.31C1.9,88.31,1.86,88.06,1.83,87.8Z"/><path class="cls-1" d="M90.31,41.09l-.78-1C90.22,40.09,90.25,40.6,90.31,41.09Z"/><path class="cls-2" d="M92.67,90l.69-.11Z"/><polygon class="cls-4" points="94.54 89.58 94.7 89.58 94.63 89.67 94.54 89.58"/><path class="cls-5" d="M57,27l.36,0Z"/><path class="cls-1" d="M20.86,90.32l.41,0Z"/><path class="cls-1" d="M73.24,26.92l.4-.29Z"/><path class="cls-1" d="M9.57,90.65l.42,0a.55.55,0,0,0,.07.24L10,91Z"/><path class="cls-1" d="M13.18,90.7l-.45.25-.08-.11.41-.25Z"/><path class="cls-1" d="M18.75,90.66h0Z"/><path class="cls-5" d="M76.14,61.29c0,.11,0,.22,0,.34l-.24.41c1.06.6,1.3,1.68,1.61,2.72l-.8.13c-.22.94-.42,1.81-.65,2.76.56.6,1.14.49,1.92,0a20.44,20.44,0,0,1,3-1.17l1.11.41.36.37a3.69,3.69,0,0,1-3.58,2.15c-.11.18-.35.37-.32.53a2.42,2.42,0,0,1-.85,2.19,9.72,9.72,0,0,0-.66.78c-1.93.34-3.7-.41-5.54-.76-.82-.15-1.66-.21-2.49-.31A1.19,1.19,0,0,1,69.4,70c.72-.46,1.46-.89,2.31-1.4-.27-.2-.46-.47-.7-.5-1-.17-2-.26-2.94-.39-.65-.08-1.36-.17-1.51-1s.44-1.17,1-1.44,1.12-.28,1.28-1.1a6.19,6.19,0,0,0-4.34.89C66,67.18,64,67.85,62.8,69c1.16,0,2.26-.87,3.07.33a1.16,1.16,0,0,0,.75,1.48l0,1A4,4,0,0,1,62.85,73a11.57,11.57,0,0,0-2.41-.34,2,2,0,0,1-2-1.07c.57-1.71,2.49-1.42,3.66-2.42a4.86,4.86,0,0,1-1.62-.21A11.75,11.75,0,0,0,55.57,68h0c-.33-1.53-.11-1.94,1.32-2.5.49-.19,1-.35,1.47-.58.08,0,0-.35,0-.53.66-.65,1.47-1.2,1.39-2.29a15,15,0,0,0,6.42-.31,9,9,0,0,1,3.27-.23c1.29.21,2.73.4,3.37-1.29,0-.07.21-.08.32-.12l.45.77-.08.14.08-.14ZM59.82,65.17c1.26-.44,1.64,1,2.51,1.31a4.17,4.17,0,0,1,.42-1.24,3.66,3.66,0,0,1,1-.72c-.21-.3-.26-.44-.35-.47a11.71,11.71,0,0,0-1.31-.41c-1.23-.3-1.93.18-2.26,1.53l-.13.47ZM70,64.24A5.89,5.89,0,0,0,75.61,64,4.39,4.39,0,0,0,70,64.24Z"/><path class="cls-5" d="M55.2,71.54a4.11,4.11,0,0,0-1.05.45c-1,.78-1.62.69-2.46-.45l.07-.15-.08.15H50.26c-.74-.11-1.48-.26-2.23-.32s-1.42-.09-1.86-.91c.12-.27.18-.72.42-.86,1-.56,2.07-1,3.39-1.67l-4.65-1.72L43.5,67.4a3.24,3.24,0,0,0,.16.71c.93,2,.42,2.89-1.82,3.06l-.7,0c-.37-.4-.75-.63-1.14,0-.79-.22-1.56-.5-2.35-.65a2.55,2.55,0,0,1-2-1.53c1-1.49,2.84-1.14,4.42-1.86-.47-.17-.68-.27-.9-.33l-2.19-.58c-1.37-.35-1.44-.63-.47-1.79.64.71,1.36.34,1.86-.07a2,2,0,0,1,2.08-.26c.64.18,1.26.45,1.92.69.34-1.08,1.4-.63,2.26-.7l.32,0,.54.91c.53-.22,1-.44,1.41-.58s1.1-.27,1.65-.4c.26.25.48.61.78.72,1,.34.86-.91,1.56-1.21.81.89,1.9.6,2.95.55a2.47,2.47,0,0,1,.53,2.25c-.33,1.22-.23,1.27,1.26,1.64h0C56.11,69.24,56.45,70.47,55.2,71.54ZM40,70.14c-.2-.14-.31-.29-.43-.29s-.28.12-.42.19c.13.12.25.3.41.36S39.77,70.27,40,70.14Z"/><path class="cls-5" d="M21.55,69.43a2.25,2.25,0,0,0,2.77.75,24.11,24.11,0,0,1,2.74-.51c2.73-.63,3.46-.34,4.91,2a1.2,1.2,0,0,0,.26.24,10.45,10.45,0,0,1-.7.91c-.4.4-.84.75-1.29,1.15-.19-.15-.58-.61-.74-.54a3.4,3.4,0,0,1-2.85-.34,14.09,14.09,0,0,0-2.3-.58l-.67-1.57c-.6.67.27,1.9-1,2-.16-.17-.31-.45-.5-.47a18.94,18.94,0,0,0-3.35-.23c-1.1.08-2.33.3-3.14-.32a2,2,0,0,0-2.32-.47c-.13,0-.38-.18-.58-.28a17,17,0,0,1,.38-2c.09-.31.44-.54.68-.81l1.18.45c0,.61-.07,1.21-.12,2.11l3.22-1.15c.28,0,.67,0,.84-.15C19.79,68.82,20.66,69.11,21.55,69.43Zm6.57,3.38-.24-.08,0,.14Z"/><path class="cls-4" d="M12.78,71.19c.2.1.45.33.58.28a2,2,0,0,1,2.32.47c.81.62,2,.4,3.14.32a18.94,18.94,0,0,1,3.35.23c.19,0,.34.3.5.47-.29,1.14-1.31,1.17-2.19,1.42-.44.12-.88.19-1.33.29l-.67,0c-.39-.31-.72-.79-1.16-.91a8.07,8.07,0,0,0-3.76-.34,6.13,6.13,0,0,1-2.34-.27c-.15,0-.21-.49-.32-.75C11.39,71.75,11.71,70.87,12.78,71.19Z"/><path class="cls-4" d="M82.46,67.31l-.36-.37c0-.7.19-1.09,1-1,2.11.12,2.65,1,2,3.38l-1.25.43Z"/><path class="cls-1" d="M86.7,42.18l-.14-.08.15.08Z"/><path class="cls-2" d="M69,8.61c-.22,1-.93,1.37-1.92,1.41a9.91,9.91,0,0,1-6.83-2.65c0-.82.38-1.22,1.19-1.26Q64,6,66.55,5.75a3.11,3.11,0,0,1,3.17,1.41,9.09,9.09,0,0,0-.87.47C68.24,8.07,68.23,8.43,69,8.61Z"/><path class="cls-5" d="M58.4,6.45c-1,1.87-1.95,3.81-4,4.83a3.21,3.21,0,0,1-2.71.25,16,16,0,0,1,3.88-6.88,7.47,7.47,0,0,0,1.14.17c.5,0,1-.08,1.51-.12C58.28,5.39,58.34,5.92,58.4,6.45Z"/><path class="cls-4" d="M60.16,3.6l-.3.06c-1,.18-2,.6-3.06.11,0-1.16.42-2,1.25-2.21s1.42.33,1.79,1A8.17,8.17,0,0,1,60.16,3.6Z"/><path class="cls-5" d="M72.23,23.81c-.07.59-.45.75-1,.64-.1,0-.12-.42-.17-.64Z"/><path class="cls-2" d="M69.38,8.59l-.17,0L69,8.6Z"/><path class="cls-1" d="M10.9,72.37c.11.26.17.72.32.75a6.13,6.13,0,0,0,2.34.27,8.07,8.07,0,0,1,3.76.34c.44.12.77.6,1.16.91a26.82,26.82,0,0,1-3.43.37c-1.85,0-3.7-.19-5.55-.32a2.39,2.39,0,0,1-.64-.24c-.22-.49-.46-.42-.72,0l-.69-.07a5.63,5.63,0,0,0,.8-2.93c0-.17.45-.39.69-.59C9.21,72.14,9.21,72.14,10.9,72.37Z"/><path class="cls-4" d="M15,68.82l-1.18-.45c.08-.39.16-.78.24-1.15a13.7,13.7,0,0,1-2-.35c-.66-.22-.85-.66-.37-1.35a10.35,10.35,0,0,0,.84-1.85l.83.14c0,.24,0,.47,0,.7.09.65.17,1.3.25,1.93l2.51-.35c.7,1.1-.47,1.75-.5,2.64Z"/><path class="cls-2" d="M13.36,63.81l-.83-.14.85-.69C13.38,63.26,13.37,63.53,13.36,63.81Z"/><path class="cls-4" d="M58.4,82.17l.65-.1,1.13-.23c6.6.1,13.19-.55,19.78,0l1.11,0,1.32,0a5.09,5.09,0,0,0,1.13.59c1.64.37,3.29.68,4.94,1l.38.41-4.23.38a16.32,16.32,0,0,1-2.07.28c-.87,0-1.74-.09-2.61-.12-1.6,0-3.21,0-4.81-.15-1.07-.1-2.25.29-3.22-.54-.05-.05-.31.09-.44.18a2.49,2.49,0,0,1-2.77-.16c-.5.27-.89.65-1.28.65-1.23,0-2.6-.48-3.64-.08-1.35.51-2.44-.19-3.64-.1a6.34,6.34,0,0,0-.88,0c-2.35.46-4.78.32-7.1,1a27.46,27.46,0,0,1-3.16.56c.26.5.56.79.89.83a6,6,0,0,0,1.94,0,5.32,5.32,0,0,1,3.16.55l.93-.84.63.85c1.63-.46,3.31-1,5.07-.35.14,0,.41.06.48,0,.7-.83,1.39-.23,2.08,0,.19.06.36.14.55.21.29-.87.91-.35,1.26-.18a1.36,1.36,0,0,0,1.42,0,2.65,2.65,0,0,1,3,.86c-6.72.09-13.44.18-20.16,0-.37-.43-.72-.4-1,0-1.4-.17-2.79-.36-4.18-.51-.85-.1-1.69-.14-2.54-.21,0-.32-.07-.64-.12-1.07.73.25,1.48.77,1.84.57a1.35,1.35,0,0,1,1.68,0A.7.7,0,0,0,47,86.1a1.12,1.12,0,0,0-.47-1A24.13,24.13,0,0,0,42.89,84c-.82-.19-1.61-.06-2.38-.79-.44-.42-1.58-.12-2.4-.17,0,0-.1-.19-.25-.47l1.78-.69,1.72.07c.5.81,1.17.5,1.83.27h1.44c0,.8.68.73,1.11.84a6.8,6.8,0,0,0,3,.45c1.06-.27,2,.28,2.93.09a20.58,20.58,0,0,0,3.08-.41C56,82.75,57.43,83.29,58.4,82.17Zm11,.47c-.08,0-.22.08-.24.15s.06.18.1.28l.33-.21A2,2,0,0,0,69.39,82.64Z"/><path class="cls-5" d="M39.64,81.85l-1.78.69c.15.28.2.47.25.47.82,0,2-.25,2.4.17.77.73,1.56.6,2.38.79a24.13,24.13,0,0,1,3.61,1.17,1.12,1.12,0,0,1,.47,1,.7.7,0,0,1-1.08.52,1.35,1.35,0,0,0-1.68,0c-.36.2-1.11-.32-1.84-.57.05.43.09.75.12,1.07l-.7,0c.05-1.09-.59-1.35-1.6-1.34l-.22,1c-.37.42-.76.81-1.41.65.1-.77-.27-1.05-1-1a7.46,7.46,0,0,1-2.6-.13c-1.35-.55-2.5-.76-3.58.66a3.29,3.29,0,0,0-3.09-1.43,29,29,0,0,0-3.83.4L23.22,84.1l-.34.11L22.55,86c-1.36.08-2.62.13-3.87.24a1,1,0,0,0-1,1.18l-.73,0c-.14-.32-.18-.84-.41-.94a1,1,0,0,0-1.35.62h-.31l-1.79-.36-.37-1.05c.47,0,.94,0,1.41,0a2.32,2.32,0,0,0,2.7-1.44,1.22,1.22,0,0,1,.74-.65,5.67,5.67,0,0,1,2.4-.36c1.94.39,3.83-.05,5.73,0a3.51,3.51,0,0,1,1.22.09c1.43.58,2.7,0,4.29-.3l-1.94-1.28a10.16,10.16,0,0,1,1.5-.42c2.76-.34,5.53-.62,8.26.19A2.82,2.82,0,0,1,39.64,81.85Zm3.78,3.4c-.1,0-.22-.14-.29-.11s-.09.18-.13.28.22.14.29.11S43.38,85.35,43.42,85.25Z"/><path class="cls-5" d="M70.42,87.8a2.65,2.65,0,0,0-3-.86,1.36,1.36,0,0,1-1.42,0c-.35-.17-1-.69-1.26.18-.19-.07-.36-.15-.55-.21-.69-.2-1.38-.8-2.08,0-.07.08-.34.07-.48,0-1.76-.68-3.44-.11-5.07.35l-.63-.85-.93.84a5.32,5.32,0,0,0-3.16-.55,6,6,0,0,1-1.94,0c-.33,0-.63-.33-.89-.83a27.46,27.46,0,0,0,3.16-.56c2.32-.69,4.75-.55,7.1-1a6.34,6.34,0,0,1,.88,0c1.2-.09,2.29.61,3.64.1,1-.4,2.41.1,3.64.08.39,0,.78-.38,1.28-.65a2.49,2.49,0,0,0,2.77.16c.13-.09.39-.23.44-.18,1,.83,2.15.44,3.22.54,1.6.15,3.21.1,4.81.15.87,0,1.74.15,2.61.12a16.32,16.32,0,0,0,2.07-.28l.33,2.07c-1.3.35-2.6.72-3.92,1-.14,0-.37-.41-.56-.41-.75,0-1.52.07-1.75,1.06l-.92-1.27-1.11,1.07c-1.4-1.42-3.24-1-5.12-.9,0,.31,0,.6-.08.88Z"/><path class="cls-4" d="M17.72,87.46a1,1,0,0,1,1-1.18c1.25-.11,2.51-.16,3.87-.24l.33-1.83.34-.11,1.23,1.79a29,29,0,0,1,3.83-.4,3.29,3.29,0,0,1,3.09,1.43c1.08-1.42,2.23-1.21,3.58-.66a7.46,7.46,0,0,0,2.6.13c.74,0,1.11.27,1,1-2.36-.06-4.73-.13-7.1-.16-.69,0-1.37.09-2.06.14l-1.07-.25H19.82Z"/><path class="cls-4" d="M40,86.78l.22-1c1,0,1.65.25,1.6,1.34Z"/><path class="cls-2" d="M28.33,87.16l1.07.25c-.19.24-.38.47-.58.7Z"/><path class="cls-5" d="M49.21,87.82c.33-.45.68-.48,1,0l-.59.69Z"/><path class="cls-1" d="M84.94,86.39l-.33-2.07,4.23-.38a3.45,3.45,0,0,0,3.16,0c-.7-.34-1.23-.57-1.73-.84a1.21,1.21,0,0,0-1.81.44c-1.65-.33-3.3-.64-4.94-1a5.09,5.09,0,0,1-1.13-.59l3.52-.14,9-.29-1.08.44a4.18,4.18,0,0,1-.2,1.48c-.17.34-.69.51-1.08.77l.4.76a6.83,6.83,0,0,0-1.24,1c-.74.93-.79,1-2.13.45l.41-1L85.82,85l-.18,1.43Z"/><path class="cls-5" d="M85.64,86.4,85.82,85l4.12.39-.41,1C88.23,86.65,86.94,87,85.64,86.4Z"/><path class="cls-1" d="M39.55,17.11a10.32,10.32,0,0,1,.93-1.22c.27-.25.73-.54,1-.46a1.21,1.21,0,0,1,.62.9A3,3,0,0,1,41.89,18c-1.3,2.06-2.7,4.06-4.07,6.08a1.48,1.48,0,0,0-1.65-.66q1.2-2,2.37-4.05a8.63,8.63,0,0,0,.41-.94h0l.37-.76Z"/><path class="cls-1" d="M58.4,19.18c1.14-1.9,2.28-3.8,3.4-5.71,1-1.64,1.55-1.74,3.24-.4-.76,2.83-2.5,5.16-4.17,7.53a1.45,1.45,0,0,1-1.43-.69C59.23,19.58,58.76,19.42,58.4,19.18Z"/><path class="cls-4" d="M29.31,81.73,31.25,83c-1.59.28-2.86.88-4.29.3a3.51,3.51,0,0,0-1.22-.09c-1.9,0-3.79.43-5.73,0a5.67,5.67,0,0,0-2.4.36,1.22,1.22,0,0,0-.74.65,2.32,2.32,0,0,1-2.7,1.44c-.47,0-.94,0-1.41,0l-.36-.36c.07-.42.14-.85.19-1.22l-4.07-.68-.63,1.42c-1.61-1.44-1.5-1.78-3.26-.59l-1.08,0-.74-1.42c.16-.46.33-.93.51-1.47l1.73.71c1-.07,2-.15,3-.2.64,0,1.28,0,1.92,0l.37,0,1.41,0c.25.33.27.77.94.82a11.46,11.46,0,0,0,4-.42l1.1-.18,2-.13.77.58.13.09-.14-.08v-.46h.72c.48.71.83.56,1.1-.17l5.54-.13.53,0Z"/><path class="cls-6" d="M4.63,84.28c1.76-1.19,1.65-.85,3.26.59l.63-1.42,4.07.68c-.05.37-.12.8-.19,1.22-.88.2-2.08-.11-2.13,1.37l-4.93,0c0-.55.21-1.25-.7-1.35Z"/><path class="cls-4" d="M13.06,90.59l-.41.25-2.59,0a.55.55,0,0,1-.07-.24c.26-1,.51-2.07.77-3.09,1.4-.06,1.57,1.24,2.37,1.69C13.11,89.68,13.08,90.13,13.06,90.59Z"/><path class="cls-5" d="M19.82,87.16h1.11c0,.6,1.05,1,.33,1.73H20.9c-.26-.65-.8-.75-1.41-.71Z"/><path class="cls-4" d="M15.23,87.11a1,1,0,0,1,1.35-.62c.23.1.27.62.41.94Z"/><path class="cls-4" d="M5.34,86.68l-.7.08H4.28v-.11l.36-1.33C5.55,85.43,5.29,86.13,5.34,86.68Z"/><path class="cls-4" d="M13.13,86.76l1.79.36Z"/><path class="cls-5" d="M22,89.23l-.36-.36c.17,0,.34,0,.51,0s.17.09.25.13Z"/><path class="cls-3" d="M4.64,85.33l-.36,1.33A1.36,1.36,0,0,1,2.52,86c0-.23-.06-.47-.08-.7l1.11-1.09,1.08,0Z"/><path class="cls-3" d="M21.22,55.94c1.15-1.36,2.26-2.76,3.46-4.06.78-.84,1.71-1.54,2.57-2.31,1.07-.06,1.46-.72,1.47-1.7h0c1.1-.12,1.68-1,2.42-1.65a12,12,0,0,1,2.34-1.77c1.29-.64,2.34,0,3.21.88-.08,1-.16,1.82-.23,2.68a20.34,20.34,0,0,1-.75,2.2,14.14,14.14,0,0,1-3.27,4.48,8.33,8.33,0,0,1-2.93,2.13,21.61,21.61,0,0,0-3.44,1.92l-3.78.12-.66-.43C21.49,57.6,21.36,56.77,21.22,55.94Z"/><path class="cls-3" d="M53.45,58.81l-.14-.27c-.41-1.49.28-2.38,1.51-3.17a11.41,11.41,0,0,0,2.27-2.18c1-1.15,2-2.37,3-3.56.39-.47.71-1.1,1.22-1.35a11.51,11.51,0,0,0,3-2.33c.38-.38.78-.79,1.37-.44s.9.64.29,1.22c0,0,.07.2.11.31.41,1.22.83,2.45,1.25,3.67-.18,3.52-2.5,5.44-5.31,6.89a37,37,0,0,1-4,1.54,2.52,2.52,0,0,1-2.43.11A10,10,0,0,0,53.45,58.81Z"/><path class="cls-2" d="M67.37,50.71c-.42-1.22-.84-2.45-1.25-3.67,0-.11-.14-.28-.11-.31.61-.58.2-.93-.29-1.22s-1,.06-1.37.44a11.51,11.51,0,0,1-3,2.33c-.51.25-.83.88-1.22,1.35-1,1.19-2,2.41-3,3.56a11.41,11.41,0,0,1-2.27,2.18c-1.23.79-1.92,1.68-1.51,3.17l-1.49-1.65c.48-.53.79-.86,1.11-1.2,2.81-3.07,5.61-6.16,8.47-9.19A23.61,23.61,0,0,1,64.31,44c1.47-1.12,2.9-.67,3.66,1a11.22,11.22,0,0,0,1.34,2.26,44.41,44.41,0,0,0,5.59,5.55c.81.71,1.49,1.58,2.39,2.55a2.24,2.24,0,0,1,2.33,1.49l-3.48,4.48-2.52-.36h0l-.45-.77L76,56.73l-4.08-3.24-4.07-3.31Z"/><path class="cls-1" d="M36.56,64.1l-11-.31c0-.12,0-.25,0-.37l2.55-.9L27.61,61l11.62.28c.6-.75,1-1.37,1.55-1.91.88-.92,1.81-1.8,2.73-2.69v1.55l.89-1.36,1.27,1.26a14.89,14.89,0,0,1-4,3.54c.95,0,1.9,0,2.85,0,1.75-.09,3.5-.21,5.25-.34l4.72-.36h0l0,.37a2.27,2.27,0,0,1-1,2.06l.32.77c-1,0-2.14.34-2.95-.55-.7.3-.54,1.55-1.56,1.21-.3-.11-.52-.47-.78-.72l.78-.56c-.79-.1-1.47-.21-2.15-.25a2.2,2.2,0,0,0-2.23.88l-.32,0c-.07-1-.52-1.43-1.57-1.44A11.23,11.23,0,0,0,36.56,64.1Zm13.6-1.65c.2.69.67.62,1.12.51.11,0,.16-.24.32-.51Zm3.14-1c-.2.28-.44.48-.41.59s.29.33.45.48c.14-.14.38-.29.39-.43S53.51,61.8,53.3,61.5Z"/><path class="cls-2" d="M22.29,58.86l3.78-.12c.15.5.3,1,.46,1.5-1.1,0-2.42-.52-2.67,1.08a6,6,0,0,0-1.81,0,32.68,32.68,0,0,1-4.11,1c-1.69.4-2,1.27-.89,2.68-.06.69.28,1,.93.83.82-.17,1.63-.39,2.44-.59l2.54-1-.64,1.64-.91.09c1,1.16,1.32,2.32.14,3.45-.89-.32-1.76-.61-2.59.2-.17.16-.56.11-.84.15-.23-.21-.42-.52-.68-.61a16.25,16.25,0,0,0-1.83-.44c0-.89,1.2-1.54.5-2.64l-2.51.35c-.08-.63-.16-1.28-.25-1.93a2.31,2.31,0,0,0,.6-.33c2.37-2.58,5.47-3.58,8.93-4.08Z"/><path class="cls-2" d="M36.46,48l.23-2.68c-.87-.84-1.92-1.52-3.21-.88a12,12,0,0,0-2.34,1.77c-.74.66-1.32,1.53-2.42,1.65,0-1.23,1.26-1.44,1.85-2.21a13.81,13.81,0,0,1,2.69-2.48,2.28,2.28,0,0,1,3.27.41c1.95,3,4.95,4.94,7.26,7.56.76.88,1.47,1.81,2.2,2.71C45,54,43.75,53.4,43.47,55a2.14,2.14,0,0,1-.62-.32q-2.68-2.64-5.34-5.32A12.92,12.92,0,0,1,36.46,48Z"/><path class="cls-5" d="M53.47,63.35a2.27,2.27,0,0,0,1-2.06L55,61l-.46-.11h0c.29-1-.81-1.36-1.08-2.11a10,10,0,0,1,2.14.44A2.52,2.52,0,0,0,58,59.14L59.46,62A4.12,4.12,0,0,1,58,61.66c-.82-.56-1.36-.26-2,.26L57.38,64Z"/><path class="cls-5" d="M43.47,55C43.75,53.4,45,54,46,53.86a11.6,11.6,0,0,1,1.34,1.57c.74,1.27.58,1.59-.94,2.34l-.27-1-.37.21.65.74-.73.33L44.4,56.83l-.89,1.36V56.64C43.5,56.1,43.48,55.56,43.47,55Z"/><path class="cls-5" d="M21.22,55.94c.14.83.27,1.66.41,2.49l-2-.94Z"/><path class="cls-2" d="M28.72,47.87c0,1-.4,1.64-1.47,1.7Z"/><path class="cls-2" d="M58.4,82.17c-1,1.12-2.41.58-3.6,1a20.58,20.58,0,0,1-3.08.41c-1,.19-1.87-.36-2.93-.09a6.8,6.8,0,0,1-3-.45c-.43-.11-1.14,0-1.11-.84l-.05-.06.38-.28c1.65-.11,3.3-.21,5-.18,2.32,0,4.63.89,7,.22C57.36,81.77,57.91,82.07,58.4,82.17Z"/><path class="cls-5" d="M16.69,82.23a11.46,11.46,0,0,1-4,.42c-.67-.05-.69-.49-.94-.82a6.77,6.77,0,0,1,4.93.18A1.74,1.74,0,0,0,16.69,82.23Z"/><path class="cls-1" d="M43.19,82.19c-.66.23-1.33.54-1.83-.27Z"/><path class="cls-2" d="M22.36,81.87c-.27.73-.62.88-1.1.17Z"/><path class="cls-2" d="M20.54,82.05v.46h0l-.77-.58Z"/><path class="cls-1" d="M81.07,81.9l-1.11,0Z"/><path class="cls-2" d="M60.18,81.84l-1.13.23Z"/><path class="cls-2" d="M16.69,82.23a1.74,1.74,0,0,1-.05-.22l1.15,0Z"/><path class="cls-2" d="M8.14,74.42c.26-.39.5-.46.72,0Z"/><path class="cls-5" d="M28.43,81.72l-.53,0Z"/><path class="cls-5" d="M10.3,81.88l-.37,0Z"/><path class="cls-1" d="M45,81.85l-.38.28Z"/><path class="cls-4" d="M70,64.24A4.39,4.39,0,0,1,75.61,64,5.89,5.89,0,0,1,70,64.24Z"/><path class="cls-4" d="M58.4,64.4l-1-.42L56,61.92c.64-.52,1.18-.82,2-.26a4.12,4.12,0,0,0,1.49.33.66.66,0,0,1,.33.12C59.87,63.2,59.06,63.75,58.4,64.4Z"/><path class="cls-4" d="M59.82,65.17c.33-1.35,1-1.83,2.26-1.53a11.71,11.71,0,0,1,1.31.41c.09,0,.14.17.35.47a3.66,3.66,0,0,0-1,.72,4.17,4.17,0,0,0-.42,1.24c-.87-.33-1.25-1.75-2.51-1.31Z"/><path class="cls-1" d="M65.87,69.37c.36.44,1.33.56.75,1.48A1.16,1.16,0,0,1,65.87,69.37Z"/><path class="cls-4" d="M59.82,65.17l-.13.47.13-.47Z"/><path class="cls-2" d="M73.62,60.93l-.08.14.08-.14Z"/><path class="cls-4" d="M36.56,64.1A11.23,11.23,0,0,1,43,62.67c1.05,0,1.5.46,1.57,1.44-.86.07-1.92-.38-2.26.7-.66-.24-1.28-.51-1.92-.69a2,2,0,0,0-2.08.26c-.5.41-1.22.78-1.86.07Z"/><path class="cls-1" d="M40,70.14c-.2.13-.36.29-.44.26s-.28-.24-.41-.36c.14-.07.28-.2.42-.19S39.77,70,40,70.14Z"/><path class="cls-1" d="M51.68,71.54l.08-.15-.07.15Z"/><path class="cls-2" d="M25.87,66.6c1.62-1.35,5.64-1.88,7.22-.95a1.9,1.9,0,0,1,1.2,1.8A2,2,0,0,1,32.63,69a4,4,0,0,1-2.73-.23,4.32,4.32,0,0,0-1.34-.39C26.93,68.13,26.93,68.14,25.87,66.6Z"/><path class="cls-5" d="M22.32,65.89,23,64.25l-2.53,1-.61-.15c.2-1.65.36-1.82,2-1.8,1.24,0,2.49.08,3.73.13,0,.12,0,.25,0,.37,0,1.15-1.06,1.27-1.74,1.77l-.4.22Z"/><path class="cls-2" d="M23.39,65.78l.4-.22Z"/><path class="cls-1" d="M28.12,72.81l-.2.06,0-.14Z"/><path class="cls-2" d="M32.87,7.3a4.53,4.53,0,0,1,1.23-.47c1.89,0,3.77,0,5.65,0h.18c1.33.16,2.14.87,2.18,1.89A2.61,2.61,0,0,1,40,11a5,5,0,0,1-4-.86C35,9.31,33.73,8.78,32.87,7.3Z"/><path class="cls-2" d="M39.55,17.11l-.24.61-.37.76h0c-.29-.06-.64-.27-.84-.17-2.13,1.1-3.8-.27-5.58-1a8.18,8.18,0,0,1-1.36-.67,6.73,6.73,0,0,1-.94-.84c.33-.29.63-.78,1-.83,1.54-.2,3.1-.27,4.65-.39h.53C38.8,14.4,39.12,14.66,39.55,17.11Z"/><path class="cls-2" d="M52.76,17.72a8.87,8.87,0,0,1,1.36.28c.66.25,1.36.55,1.41,1.4a2.46,2.46,0,0,1-1.44,2.32,4.31,4.31,0,0,1-3.74-.2c-.86-.47-1.81-.78-2.63-1.29-.38-.24-.84-.91-.74-1.2a1.67,1.67,0,0,1,1.22-.81c1.51-.2,3-.26,4.55-.37Z"/><path class="cls-2" d="M45,9.53l1.21,1.68c-1.38,2.56-2.4,3.21-4.55,2.77A11,11,0,0,1,45,9.53Z"/><path class="cls-5" d="M88.46,83.53a1.21,1.21,0,0,1,1.81-.44c.5.27,1,.5,1.73.84a3.45,3.45,0,0,1-3.16,0Z"/><path class="cls-5" d="M69.39,82.64a2,2,0,0,1,.19.22l-.33.21c0-.1-.12-.2-.1-.28S69.31,82.69,69.39,82.64Z"/><path class="cls-4" d="M43.42,85.25c0,.1-.06.25-.13.28s-.19-.07-.29-.11.06-.25.13-.28S43.32,85.21,43.42,85.25Z"/><path class="cls-2" d="M20.55,82.51l.14.08-.13-.09Z"/><path class="cls-4" d="M26.53,60.24l1.08.72.46,1.56-2.55.9c-1.24-.05-2.49-.12-3.73-.13-1.61,0-1.77.15-2,1.8-.92.07-1.82-.86-2.77-.09-1.07-1.41-.8-2.28.89-2.68a32.68,32.68,0,0,0,4.11-1,6,6,0,0,1,1.81,0C24.11,59.72,25.43,60.25,26.53,60.24Z"/><path class="cls-5" d="M50.16,62.45H51.6c-.16.27-.21.48-.32.51C50.83,63.07,50.36,63.14,50.16,62.45Z"/><path class="cls-5" d="M53.3,61.5c.21.3.43.47.43.64s-.25.29-.39.43c-.16-.15-.39-.29-.45-.48S53.1,61.78,53.3,61.5Z"/><path class="cls-2" d="M46.4,57.76,45.75,57l.37-.21.27,1Z"/></svg>