<svg xmlns="http://www.w3.org/2000/svg" viewBox="0 0 100 100"><defs><style>.cls-1{fill:#74b2b4;}.cls-2{fill:#93c4c5;}.cls-3{fill:#6aadaf;}.cls-4{fill:#a2cbcd;}.cls-5{fill:#91c2c4;}.cls-6{fill:#62a9ab;}.cls-7{fill:#52a1a3;}.cls-8{fill:#9cc9ca;}.cls-9{fill:#a5cdcf;}.cls-10{fill:#a9cfd1;}.cls-11{fill:#e1eeef;}.cls-12{fill:#eef6f6;}.cls-13{fill:#f1f8f8;}.cls-14{fill:#96c5c7;}.cls-15{fill:#67abad;}.cls-16{fill:#89bebf;}.cls-17{fill:#7db7b9;}.cls-18{fill:#78b5b7;}.cls-19{fill:#6dafb1;}.cls-20{fill:#8ec1c2;}</style></defs><g id="Ebene_3" data-name="Ebene 3"><path class="cls-1" d="M86.46,56.85l-7.93,2.38-.66.17-.56-.06a5.62,5.62,0,0,1-2.19.06c-2-.78-2.79.73-3.89,1.72l-.62.1c-.06-.3-.13-.59-.1-.47a29.08,29.08,0,0,0-3-.12,1.81,1.81,0,0,0-1.25.54c-.8,1.14-1.48,2.37-2,3.26-.77-.1-1.52-.4-1.72-.19A38.73,38.73,0,0,0,60,67.39a25,25,0,0,1-1.91,2.41c-1.1,1.08-2.55,1.87-3.41,3.09s-2.51,2.39-2.28,4.33c-.29.29-.78.54-.84.86-.44,2.4-2.22,3.71-3.89,5.21C45.76,85,44.06,87,42.21,88.86A18.38,18.38,0,0,1,40,90.48a12.24,12.24,0,0,1-1.34-2.1c0-.12.93-.67,1.43-1a1.46,1.46,0,0,0,.48-.44A7,7,0,0,1,44.5,83c.24-.09.47-1,.36-1.12a2.06,2.06,0,0,0-1.4-.48c-.42.07-.71.69-1.15.87a6,6,0,0,1-1.55.22l1.38-1.61h3.13l-.75-1.92,1.33-.15-.36-1.53c.59-.63,1.2-1.25,1.78-1.89,1.5-1.63,3-3.27,4.48-4.92q3.3-3.65,6.58-7.31c1.78,0,2.87-1.15,4.08-2.24,3.1-2.79,6.91-4.23,10.88-5.29a3.53,3.53,0,0,0,1-.63l0-.69,1.33-.35.68-.08.66,0c.26.27.6.81.74.76a26.82,26.82,0,0,0,2.59-1.1l4.24-1.16,2,.92c-1.14,1-1,2.15,0,3.3C86.49,56.6,86.45,56.75,86.46,56.85Z"/><path class="cls-2" d="M44.9,7.72c3.17-2.06,6.45-1.75,9.81-.54a14.39,14.39,0,0,0,2.39.43l1.64,1A18.47,18.47,0,0,0,61,9.32c1.43.26,2.88.41,4.32.61l2,1.45c1.51,2,3.07,3.91,4.51,5.92A26,26,0,0,1,73.18,20c.43.82.93,1.61,1.4,2.42l-.68.37a5,5,0,0,0-5.22-1.64,14,14,0,0,0-1.35-2.58c-1.62-2-2.83-4.64-6.13-4.52-.56,0-1.13-.6-1.7-.92a3,3,0,0,0-1-.51A65.19,65.19,0,0,0,49.4,12a70,70,0,0,0-10.46,1.55c-2.58.55-5.08,1.54-7.62,2.33.23-.61.47-1.21.73-1.9l-1-.06-.34-.67c-.13-.46-.25-.93-.38-1.39l.4-.53,1.05-.67.41-.28.94-.89C34,9.36,35,9.22,35.94,9a7.79,7.79,0,0,0,2.12-.56,9.77,9.77,0,0,1,5.69-.72Z"/><path class="cls-3" d="M86.46,56.85c0-.1,0-.25,0-.32-1-1.15-1.15-2.31,0-3.3l-2-.92L88.09,51c.75,1.46,1.65,0,2.61.34l-1-1.38c.77-.85,1.5-1.74,2.31-2.54,1.54-1.51,2.82-6,1.82-7.47a65.42,65.42,0,0,0-4.18-5.25c-.21-.24-.67-.28-1-.44a18,18,0,0,1-2-1c-2.43-1.53-4.83-3.1-7.26-4.63a3.92,3.92,0,0,0-.94-.24l-4.94-1.51.63-1.71,1.6,1.47a8.65,8.65,0,0,0,2.74-.39c1.2-.58.43-1.71.32-2.63l3,.6c.21,1,.49,1.88,1.8,1.1l3.17,1.44,2.62,1.63L91,30.09l2.06,1.55,1.61.68c.27.32.53.64.8,1-.87,1.59.34,1.28,1.19,1.29a3.75,3.75,0,0,1,.57.95c.28,1,.49,2.07.72,3.11.12.52.25,1.05.37,1.57l1,1c.21.77.43,1.54.64,2.31-.26.75-.51,1.5-.77,2.26l-.66,1.82c-.25.52-.49,1-.73,1.55a.12.12,0,0,0-.11.11L97,50l-1.24,1.07c-.17-.09-.4-.3-.51-.25-1.2.51-2.37,1.06-3.66,1.65l-.18,1.74-.33.41-.87.75h0l-1.15-1c-1.62,0-2.11,1-1.91,2.42Z"/><path class="cls-4" d="M31,13.94l1,.06c-.26.69-.5,1.29-.73,1.9a74.57,74.57,0,0,0-7.74,4.71c-2.13,1.64-3.67,4-5.72,5.75s-3,4.3-3.95,6.79c-.36,1-.71,1.94-1.08,2.9q-1.66,4.23-3.35,8.44c-.37.92-.79,1.82-1.18,2.72-.34-.76-.67-1.53-1-2.34-.48.52-.86,1-1.27,1.37s-.84,1.38-1.55.21a5.38,5.38,0,0,0-.81.32c.66-2.26,1.33-4.52,2-6.78l.54-.79c.56-1.2,1.13-2.39,1.67-3.6a9,9,0,0,0,.38-1.18A60.17,60.17,0,0,1,10.31,28c.51-1.14,1.66-2,2.52-3l1-1,3.64-3.6,1.32-1.33,3.34-2.87,2-.94c1.73-1.72,3.57-3.25,6.14-3.49.13.46.25.93.38,1.39-.24.56-.49,1.12-.74,1.68l.58.21Z"/><path class="cls-5" d="M16.47,90.42a6.49,6.49,0,0,0-1.95-.65c-3.39,0-5.11-2.37-6.74-4.71-.49-.7.23-2.14-1.21-2.55-.17-.44-.63-1.08-.48-1.29C7.64,79,4.85,78.53,4.88,77l-2,1.35h0L1.65,76.64c-.13-.33-.25-.65-.38-1l1.46-.93A9.93,9.93,0,0,1,1.16,73c-.21-.41,0-1,0-1.55h.56L2.21,73c.3-.71.5-1.16.88-2,.92,2,2.42,2.24,4.07,2.07,1.42,1.84,3.27,3.51,4.16,5.58a13.37,13.37,0,0,0,3.79,5,58.45,58.45,0,0,0,5.33,3.67c-.19.23-.45.69-.58.65-2-.5-2.13,1.44-3,2.36Z"/><path class="cls-2" d="M3.65,46.77a5.38,5.38,0,0,1,.81-.32c.71,1.17,1.11.24,1.55-.21s.79-.85,1.27-1.37c.35.81.68,1.58,1,2.34-.32,1.19-.63,2.38-.94,3.56l-1,.11,0,.28.69.23-.42,3-1.35-.74c-.42.93-.78,1.7-1.3,2.85l2.35-.84c-.09.64-.21,1.28-.28,1.92-.17,1.83-.42,3.65-.47,5.48s.1,3.81.16,5.71c-1.91,1.36-3.7.91-5.45-.31,0-.33.11-.65.17-1,.23-.62.43-1.25.7-1.85.83-1.82.66-2.72-.78-4,0-.56,0-1.11,0-1.67.1-.32.2-.64.31-1q.47-2.64.94-5.28l1.78.21.18-.41L2,52.33A.52.52,0,0,1,2,52c.78-1.21,1.87-1.42,3.31-.85a4.53,4.53,0,0,0-1.13-1.33l-1-.9C3.34,48.22,3.49,47.5,3.65,46.77ZM6.42,48c-.19.26-.41.44-.38.55s.27.3.41.44c.13-.13.36-.26.37-.4S6.62,48.23,6.42,48ZM6,52.56c0-.1.13-.21.1-.27s-.17-.09-.26-.13-.13.21-.1.27S5.89,52.52,6,52.56Z"/><path class="cls-6" d="M16.83,90.33c.9-.92,1-2.86,3-2.36.13,0,.39-.42.58-.65l.92.06c.33.36.64,1,1,1a27,27,0,0,0,3.37,0h0l.79.55c2.18-.28,4.37-.49,6.53-.86a8.66,8.66,0,0,0,5.55-3.2c.67-.86,1.43-1.63,2.15-2.45a6,6,0,0,0,1.55-.22c.44-.18.73-.8,1.15-.87a2.06,2.06,0,0,1,1.4.48c.11.08-.12,1-.36,1.12a7,7,0,0,0-3.9,3.93,1.46,1.46,0,0,1-.48.44c-.5.36-1.48.91-1.43,1A12.24,12.24,0,0,0,40,90.48a.5.5,0,0,1-.18.27l-4,0,0-.58c-.8,1-1.57,1.75-3.13,1.43-1.24-.25-2.65.26-4,.51-.7.14-1.35.57-2.05.64a30.25,30.25,0,0,1-3.3,0L18.18,91.6Z"/><path class="cls-7" d="M78.84,23.63c.11.92.88,2.05-.32,2.63a8.65,8.65,0,0,1-2.74.39l-1.6-1.47-.63,1.71a19.74,19.74,0,0,0-2.76-.16c-.69.06-1.34.53-2,.63-1.45.2-2.91.28-4.36.41l-.73.24-3.62.38c-.28-1.47.74-1.71,1.9-1.8a17.9,17.9,0,0,1,.1-1.87c.12-.83.53-1.08,1.38-.69a14,14,0,0,0,2.06.58l.82-2.44,2.37-1a5,5,0,0,1,5.22,1.64l1.15,1.58.86-1Z"/><path class="cls-8" d="M52.42,77.22c-.23-1.94,1.35-3,2.28-4.33s2.31-2,3.41-3.09A25,25,0,0,0,60,67.39a38.73,38.73,0,0,1,2.53-3.15c.2-.21,1,.09,1.72.19.54-.89,1.22-2.12,2-3.26a1.81,1.81,0,0,1,1.25-.54,29.08,29.08,0,0,1,3,.12c0-.12,0,.17.1.47-2.8,1-4.87,2.9-6.87,4.94L57.06,73l-1,1Z"/><path class="cls-1" d="M23.4,92.74a30.25,30.25,0,0,0,3.3,0c.7-.07,1.35-.5,2.05-.64,1.32-.25,2.73-.76,4-.51,1.56.32,2.33-.39,3.13-1.43l0,.58,4,0c-1.36,1.56-3.23,2-5.15,2.41C30.9,93.88,27.11,94.23,23.4,92.74Z"/><path class="cls-9" d="M.3,68.44c1.75,1.22,3.54,1.67,5.45.31l1.41,4.3C5.51,73.22,4,73,3.09,71c-.38.89-.58,1.34-.88,2l-.53-1.58H1.12c0,.53-.17,1.14,0,1.55a9.93,9.93,0,0,0,1.57,1.75l-1.46.93a21.44,21.44,0,0,1-.81-3.1C.29,71.21.34,69.82.3,68.44Z"/><path class="cls-10" d="M2.9,78.32l2-1.35c0,1.56,2.76,2.07,1.21,4.25-.15.21.31.85.48,1.29Z"/><path class="cls-9" d="M.39,61.58c1.44,1.31,1.61,2.21.78,4-.27.6-.47,1.23-.7,1.85C.3,65.87.11,64.28,0,62.68A3.17,3.17,0,0,1,.39,61.58Z"/><path class="cls-1" d="M91.38,54.23l.18-1.74c1.29-.59,2.46-1.14,3.66-1.65.11-.05.34.16.51.25C94.6,52.58,93.38,53.93,91.38,54.23Z"/><path class="cls-10" d="M71.23,61.12c1.1-1,1.92-2.5,3.89-1.72a5.62,5.62,0,0,0,2.19-.06A11.68,11.68,0,0,1,71.23,61.12Z"/><path class="cls-1" d="M87.1,56.81c-.2-1.47.29-2.39,1.91-2.42l1.15,1Z"/><path class="cls-10" d="M3.19,49l1,.9a4.53,4.53,0,0,1,1.13,1.33C3.85,50.61,2.76,50.82,2,52,2.38,51,2.78,50,3.19,49Z"/><path class="cls-3" d="M75.91,23.4l-.86,1L73.9,22.82c.22-.13.45-.25.68-.37Z"/><path class="cls-10" d="M2,52.33l1.6,1.14-.18.41-1.78-.21Z"/><path class="cls-2" d="M83.38,24.81c.07.17.14.35.2.52-1.3.78-1.58-.1-1.79-1.1Z"/><path class="cls-11" d="M96.7,34.56c-.85,0-2.06.3-1.19-1.29Z"/><path class="cls-12" d="M58.74,8.61l-1.64-1C58.19,7.06,58.43,7.88,58.74,8.61Z"/><path class="cls-10" d="M1.65,76.64,2.9,78.32Z"/><path class="cls-12" d="M97.84,49.11c.24-.52.48-1,.73-1.55C98.32,48.08,98.08,48.59,97.84,49.11Z"/><path class="cls-13" d="M18.78,19.18l-1.32,1.33Z"/><path class="cls-12" d="M99.36,41.17l-1-1C98.9,40.31,100,39.86,99.36,41.17Z"/><path class="cls-11" d="M94.71,32.32l-1.61-.68Z"/><path class="cls-13" d="M13.82,24.11l-1,1Z"/><path class="cls-12" d="M97,50l.76-.8Z"/><path class="cls-9" d="M.72,59c-.11.32-.21.64-.31,1C.51,59.59.61,59.27.72,59Z"/><path class="cls-12" d="M44.9,7.72l-1.15,0Z"/><path class="cls-1" d="M90.18,55.39l.87-.75Z"/><path class="cls-10" d="M77.87,59.4l.66-.17Z"/><path class="cls-13" d="M6.18,39.2,5.64,40Z"/><path class="cls-14" d="M58.33,63.14A21.07,21.07,0,0,1,61.5,60a86.83,86.83,0,0,1,8.26-4.64,15.55,15.55,0,0,1,3.8-.8l.69.38a3.53,3.53,0,0,1-1,.63c-4,1.06-7.78,2.5-10.88,5.29C61.2,62,60.11,63.15,58.33,63.14Z"/><path class="cls-14" d="M42.14,80.86l2-2.28.09.1.27.27h0l.75,1.92Z"/><path class="cls-4" d="M76.89,53.81l3.33-.34a26.82,26.82,0,0,1-2.59,1.1C77.49,54.62,77.15,54.08,76.89,53.81Z"/><path class="cls-14" d="M44.17,78.58l1.32-1.32c.11.46.22.92.36,1.53l-1.33.15h0l-.27-.27Z"/><path class="cls-4" d="M74.25,55l-.69-.38.66-.31Z"/><path class="cls-4" d="M75.55,53.94l.68-.08Z"/><path class="cls-5" d="M31,13.94l-.5,1.22L29.92,15c.25-.56.5-1.12.74-1.68Z"/><path class="cls-1" d="M88.09,51l1.62-1,1,1.38C89.74,50.93,88.84,52.44,88.09,51Z"/><path class="cls-4" d="M6.64,54.37l-.3,1.27L4,56.48c.52-1.15.88-1.92,1.3-2.85Z"/><path class="cls-4" d="M6.42,48c.2.28.4.44.4.59s-.24.27-.37.4c-.14-.14-.36-.27-.41-.44S6.23,48.21,6.42,48Z"/><path class="cls-4" d="M7.36,50.77l-.31.62-.68-.23,0-.28Z"/><path class="cls-4" d="M6,52.56c-.1,0-.24-.06-.26-.13s.06-.18.1-.27.23.06.26.13S6,52.46,6,52.56Z"/><path class="cls-5" d="M21.36,87.38l4.38,1.06a27,27,0,0,1-3.37,0C22,88.37,21.69,87.74,21.36,87.38Z"/><path class="cls-5" d="M25.74,88.43l.79.55Z"/><path class="cls-15" d="M56.72,30.54c-3,1.42-6.06,2.72-9,4.31a56.4,56.4,0,0,0-7.66,4.87,38.7,38.7,0,0,0-4.8,5,28.07,28.07,0,0,0-1.88,2.65A44.1,44.1,0,0,0,31,51.74a36.12,36.12,0,0,0-2.47,6.89c-.24,1.15-.52,1.69-1.54,1.95l-.9-2.41c-.13-.3-.25-.6-.37-.9l-.12-.93a4.34,4.34,0,0,0,.73-1.2A38.76,38.76,0,0,0,27,50.72a5.51,5.51,0,0,0-.46-1.79c2.54-6.54,6-12.33,12.78-15.56L39,32.89l-3.4,1.28-.21-.3,4.27-3.17c1-.1,2.3.18,2.51-1.39h0l1.37-.91.65-.32c.39,1.21,1.42,1.12,2.26.87a1.86,1.86,0,0,0,1.35-2.26.25.25,0,0,1,.2-.06c2.66.25,3.28-.08,3.46-1.84l3.63-1c.37.28.79.84,1.09.78a33.2,33.2,0,0,0,5.22-1.3c.57-.2.87-1.15,1.29-1.76l3.61.63-.82,2.44A14,14,0,0,1,63.43,24c-.85-.39-1.26-.14-1.38.69a17.9,17.9,0,0,0-.1,1.87c-1.16.09-2.18.33-1.9,1.8l0,0C58.3,27.92,57.73,28.28,56.72,30.54Z"/><path class="cls-16" d="M64.4,27.77l-.73.24Z"/><path class="cls-17" d="M27,28.33c-.05,2.17-.79,3.34-2.1,3.32-1.7,0-4.12-1.43-4.15-2.4,0-1.56,1.9-3.14,3.75-3.06A2.52,2.52,0,0,1,27,28.33Z"/><path class="cls-18" d="M56.39,37.8a1.88,1.88,0,0,1-2.29,2,4.71,4.71,0,0,1-2.43-2.24c-.39-.71,1.8-2.38,2.95-2.28C56,35.4,56.43,36.3,56.39,37.8Z"/><path class="cls-16" d="M27,60.58c1-.26,1.3-.8,1.54-1.95A36.12,36.12,0,0,1,31,51.74a44.1,44.1,0,0,1,2.42-4.35c-.44,1.19-.85,2.4-1.31,3.58a40.94,40.94,0,0,0-2.81,9.89,10.11,10.11,0,0,1-.65,1.92l-.52.1Z"/><path class="cls-17" d="M53.78,47.46c1-1.24,2-2.21,3.51-1.89.43.09.93,1,1,1.61a2.22,2.22,0,0,1-2,2.64C54.28,50.06,55,47.92,53.78,47.46Z"/><path class="cls-1" d="M38.7,18.25c.19-2.42,1.14-3.41,2.64-3.33,1.15.07,1.34.86,1.34,1.69a2.89,2.89,0,0,1-3,2.51C39.21,19.05,38.86,18.4,38.7,18.25Z"/><path class="cls-19" d="M41.29,60.5c-2.19-.13-2.07-1.74-1.93-2.61A2.82,2.82,0,0,1,41.3,56.1c1.53-.22,1.93,1.29,1.79,2.32C43,59.18,41.93,59.81,41.29,60.5Z"/><path class="cls-19" d="M43.59,72.68c-.11-.11-.79-.46-.79-.81,0-1.18-.52-2.83,1.37-3.05a2.69,2.69,0,0,1,2,1.11C46.69,70.66,45,72.71,43.59,72.68Z"/><path class="cls-16" d="M62.7,21.54c-.42.61-.72,1.56-1.29,1.76a33.2,33.2,0,0,1-5.22,1.3c-.3.06-.72-.5-1.09-.78Z"/><path class="cls-1" d="M74.59,39.69c.12-1.47.56-2.37,1.75-2.35,1,0,2.45.38,2.06,1.67-.26.87-1.53,1.5-2.46,2.05C75.82,41.14,75.06,40.18,74.59,39.69Z"/><path class="cls-18" d="M24.38,78.38c.16-1.62.36-2.91,1.77-2.93.6,0,1.2,1,1.81,1.49l-2.5,2.51Z"/><path class="cls-1" d="M14.3,69.28c-2,.28-2.85-.28-2.74-1.67.07-.9.41-1.81,1.68-1.74,1.65.08,1.62,1.43,1.76,2.48C15.05,68.74,14.35,69.22,14.3,69.28Z"/><path class="cls-6" d="M67.43,31.42c.76-1,2.09-1.6,2.81-.65a2.88,2.88,0,0,1,.45,2.39c-.17.43-1.59.77-2.16.51S67.85,32.34,67.43,31.42Z"/><path class="cls-1" d="M38.55,26.51c.25.33,1.21,1.41,1.11,1.51a11.5,11.5,0,0,1-2.57,2c-.08.05-1.09-1-1-1.2C36.61,27.92,36.21,26.22,38.55,26.51Z"/><path class="cls-16" d="M26.58,48.93A5.51,5.51,0,0,1,27,50.72a38.76,38.76,0,0,1-.72,4.42,4.34,4.34,0,0,1-.73,1.2c-.1-.05-.27-.08-.28-.14C24.88,53.63,24.68,51.1,26.58,48.93Z"/><path class="cls-3" d="M55.57,18.46c-.08-1.83.5-2.79,1.78-2.73.45,0,1.33,1.29,1.18,1.71a4.73,4.73,0,0,1-1.82,2C56.58,19.49,55.77,18.63,55.57,18.46Z"/><path class="cls-17" d="M19.35,49.9c-1,.89-1.63,1.71-2.42,2s-1.37-.53-1-1.29a10.88,10.88,0,0,1,1.57-2.14Z"/><path class="cls-3" d="M83.68,46.77c1.16-.36,2-.87,2.75-.76.39.05.87,1.18.87,1.83,0,.84-.51,1.49-1.49.67C85.24,48,84.66,47.57,83.68,46.77Z"/><path class="cls-15" d="M68.45,48.45c1.6-1.13,2.37-1.13,2.85.12a1.7,1.7,0,0,1-.61,1.56C69.18,50.69,69,49.32,68.45,48.45Z"/><path class="cls-16" d="M47.81,26.69A1.86,1.86,0,0,1,46.46,29c-.84.25-1.87.34-2.26-.87Z"/><path class="cls-16" d="M56.72,30.54c1-2.26,1.58-2.62,3.36-2.12-.74.77-1.43,1.58-2.24,2.27C57.65,30.85,57.1,30.6,56.72,30.54Z"/><path class="cls-20" d="M51.47,24.79c-.18,1.76-.8,2.09-3.46,1.84C48.63,25,50.22,25.22,51.47,24.79Z"/><path class="cls-16" d="M42.17,29.31C42,30.88,40.7,30.6,39.66,30.7Z"/><path class="cls-16" d="M43.55,28.4l-1.37.91Z"/><path class="cls-16" d="M25.71,57.27c.12.3.24.6.37.9Z"/><path class="cls-1" d="M44.26,78.68l.27.27Z"/></g></svg>