<svg xmlns="http://www.w3.org/2000/svg" viewBox="0 0 100 100"><defs><style>.cls-1{fill:#a67d7c;}.cls-2{fill:#d5c2c1;}.cls-3{fill:#d0bbba;}.cls-4{fill:#ad8887;}.cls-5{fill:#cbb3b2;}.cls-6{fill:#c3a7a6;}.cls-7{fill:#bb9c9b;}</style></defs><g id="Ebene_21" data-name="Ebene 21"><path class="cls-1" d="M14.72,1.36l2,.09,4.53,1.44a7.68,7.68,0,0,0,.6.78c.51.49,1.06.94,1.67,1.47L24.41,5l.66,1.36a7.51,7.51,0,0,0-.81.66c-.82.88-2.05.58-3,1.06a22.12,22.12,0,0,1-8.49.66c-.77-.06-1.33-.13-1.63.7l-.69.05L9.18,8.83a17.43,17.43,0,0,1-.2,3c-.4,1.62.11,3.14.34,4.69L9.2,18.17A7.79,7.79,0,0,0,8.79,20,25.35,25.35,0,0,0,9,23.34c.07.56-.23,1.32.64,1.58,0,.45.09.89.13,1.34-.8.15-.83.63-.57,1.38l2.21.13.06.61-1.14.3c.91.66.91.66,1.13-.31a2.19,2.19,0,0,0,2.82,1c1.44-.5,3.14.48,4.41-.84.08-.08.41.1.63.12.51.05,1,.07,1.54.11.85.33,1.72.62,2.56,1a2.92,2.92,0,0,1,1.11.77,22.51,22.51,0,0,1,1.56,2.29c.65,1.08.25,1.81-1,1.84-1.79,0-3.58.06-5.36.07-1.22,0-2.45,0-3.66-.05-2-.17-4-.53-6.08-.64-2.25-.12-4.52-.3-6.67.62-.24-.53-.31-1.07-.62-1.33a2.89,2.89,0,0,1-1-2.48c.06-2.42-.39-4.83-.12-7.26.11-1,.52-2.12-.55-2.92V20c.7-.36.64-1,.66-1.64,0-1.23.1-2.45.2-3.67.14-1.82.37-3.63.48-5.45.09-1.3.06-2.61.08-3.91C4,5,2.2,4.15,2.58,3.79c.7-.51,1.76.23,1.93-1a18.11,18.11,0,0,1,3-.13A30.55,30.55,0,0,0,13,2,11.24,11.24,0,0,0,14.72,1.36Z"/><path class="cls-2" d="M1.43,65.42a5.37,5.37,0,0,1-.36-1.27C.92,60.73.8,57.31.67,53.88a1.28,1.28,0,0,0,0-.34c-1-3-.31-6.07,0-9.11a4,4,0,0,1,3-3.68,7.06,7.06,0,0,1,1.86-.42c1,0,2.29-.47,2.94.53.87,1.34,1.75,2.85,1.19,4.55-.2.62-.91,1.08-1.66,1.91-.3-1.57-.53-2.71-.77-4-1.1.17-2,.27-2.9.49A1.77,1.77,0,0,0,3,45.11a9.74,9.74,0,0,0-.62,3.74c.05,1.16-.07,2.34,0,3.49.17,1.95.46,3.89.7,5.88,4.22,0,8.32-.13,12.42-.1,3.23,0,6.47.3,9.7.29,3.84,0,7.67-.14,11.5-.36,3.23-.19,6.45-.68,9.68-.86,2.35-.13,4.72.06,7.08.08q6.35.06,12.7.09c.1,0,.2-.09.3-.13v-3c1.23.59,2.48.21,3.72.07,0,1.06,0,2.12-.07,3.18-.39-.1-.78-.21-1.18-.29-1.11-.24-1.83.18-1.92,1.11s.36,1.57,1.56,1.59,2.49-.09,3.72-.13l.31-1,1.09,1.82c-1.5,0-3,.08-4.5.05l-21.61-.38c-1.28,0-2.57,0-3.84.06-4,.29-8,.77-11.94.93-4.35.17-8.7.08-13,.09-1.51,0-3,0-4.53-.08-3.68-.27-7.34-.6-11.15-.91.07,1.63-.45,3.11.38,4.52Z"/><path class="cls-3" d="M1.07,20.65c1.07.8.66,2,.55,2.92-.27,2.43.18,4.84.12,7.26a2.89,2.89,0,0,0,1,2.48c.31.26.38.8.62,1.33C5.51,33.72,7.78,33.9,10,34c2,.11,4.05.47,6.08.64,1.21.1,2.44.06,3.66.05,1.78,0,3.57,0,5.36-.07,1.25,0,1.65-.76,1-1.84a22.51,22.51,0,0,0-1.56-2.29,2.92,2.92,0,0,0-1.11-.77c-.84-.37-1.71-.66-2.56-1a9.49,9.49,0,0,1,2.43-.4,22.88,22.88,0,0,1,6.91,1.18c.48.2.77.15.84-.42l2.1,0c.15.67-.31,1-.75,1.34-1.58.27-1.61.33-1,2.16,2.2,0,4.28.87,6.51,1.17A10.33,10.33,0,0,0,45,32.54c1.72,0,3.43.1,5.15.12s3.51-.31,5.12.1a18.68,18.68,0,0,0,5.11.14c.09.36.16.62.25.94a9.47,9.47,0,0,1,1.48.3,1.19,1.19,0,0,0,1.54-.39c.19-.33-.08-.91-.15-1.47-.84.18-1.48.49-1.88-.49-.26-.63-1.55.09-1.8-.94.68-.93,1.48-.41,2.28-.1.34-.81.65-1.51,1-2.29l-1.64-1.11c0-1.19,0-2.34,0-3.5a8.49,8.49,0,0,0-.32-1.46,12.78,12.78,0,0,0,.29-2.19c0-1.6-.2-3.2-.32-4.79a11.71,11.71,0,0,0,.71-4.87v-.7c-.1-.22-.21-.44-.32-.66l1.31-1.46a5,5,0,0,0,.25,1.52,9.31,9.31,0,0,1,.8,4.57c-.07,2.66-.08,5.34,0,8,.08,3.18.24,6.36.39,9.54a8.28,8.28,0,0,0,.28,1.17c.24,1.16-.06,1.74-1.28,2.5l-.46,0H60.36c.53,1.64.06,3.28.85,4.76-.39-.14-1-.16-1.14-.43a1.45,1.45,0,0,0-2-.57c-.11-.54-.28-1.08-.34-1.64-.09-.79-.1-1.59-.15-2.39-3.41-1-6.6.24-9.85.22v4.9a2.09,2.09,0,0,0-1.9,0l-.29-4.79L34.72,36.42c-.13.54-.24,1-.34,1.41-.63-.23-.49-.65-.32-1.13.33-1-.18-1.35-1.05-1.59l-.35,1.25a16.26,16.26,0,0,0-1.67-.3c-2-.13-4-.28-6.08-.32-1.16,0-2.31.25-3.47.23-3.31,0-6.62-.17-9.93-.24-2.21,0-4.42-.06-6.64-.06a3.21,3.21,0,0,0-2.9,1c-.18-.27-.48-.51-.52-.79a35.84,35.84,0,0,1-.69-5.33C.73,27.26,1,24,1.07,20.65Zm61.09.41-.12.25.58.3a1.66,1.66,0,0,0,.11-.27C62.55,21.24,62.35,21.15,62.16,21.06Z"/><path class="cls-3" d="M21.26,8.05c.95-.48,2.18-.18,3-1.06a7.51,7.51,0,0,1,.81-.66L24.41,5A5.84,5.84,0,0,1,28.3,4.8a27.33,27.33,0,0,0,4.78.1,26,26,0,0,0-2.58-1,5.42,5.42,0,0,0-1.32-.32,31.76,31.76,0,0,1-7-.92c-.25-.08-.6.15-.91.25L16.75,1.45a2,2,0,0,1,.79-.24,43.79,43.79,0,0,0,11.09,0,6.86,6.86,0,0,1,1.56.1,12.2,12.2,0,0,0,1.9.17c3.11-.26,6.22-.62,9.33-.86,2.95-.23,5.9-.38,8.85-.52a28.24,28.24,0,0,1,4,0c2,.19,4,.52,6,.88.44.08.82.52,1.23.79a2.08,2.08,0,0,0-.58,2.42,7,7,0,0,1,.2,1.13l-.68.32L59.31,4.47l.34-.67c-1.28-.59-2.42-1.1-3.77-.63a3.94,3.94,0,0,1-1.55-.09c-1.45-.19-2.89-.38-4.33-.59a3.65,3.65,0,0,0-3.66,1.88.93.93,0,0,0,.14,1.38c1.41-.52,1.41-.52,1.58.51-.81,0-1.61,0-2.41,0a41.16,41.16,0,0,0-4.43-.15A48.23,48.23,0,0,0,36.47,7c-.17,0-.42.1-.51,0-.93-.89-2-.26-3-.22-1.93.08-3.9,0-5.72.92,1.76.07,3.44,1.51,5,.43a6,6,0,0,0,1.77.66c1.16,0,2.31-.15,3.46-.2.7,0,1.53-.51,2,.48l-6.83,1c0,.79.07,1.67.1,2.56L31,13c-.41-1-1-2-.21-3.22-.95.09-1.81.16-2.65.26-1.37.16-2.73.35-4.09.53-.38-.24-.78-.45-1.15-.71C22.24,9.38,21.38,9.06,21.26,8.05Z"/><path class="cls-2" d="M86.08,79.43c.22-3.9.7-7.8.55-12-1.95,0-3.72,0-5.48,0-1.92,0-3.84,0-5.76,0-9.63-.09-19.27-.27-28.9-.27-2.88,0-5.76.51-8.64.77-1,.09-2,.14-2.94.21l1.39-1.63L34.14,67l-.62-1.54,6.38-.66c2.19-.24,4.37-.71,6.55-.73,10.1-.06,20.2,0,30.3,0a53.31,53.31,0,0,0,6.57,0,41.72,41.72,0,0,1,6.8,0,32.65,32.65,0,0,1,3.89.59c-.37.49-.73,1-1.09,1.48-.43.72-1.1.31-1.67.34-1.16-1.51-2,.11-2.92.16A9,9,0,0,1,88.42,68,26,26,0,0,0,88,74a18.63,18.63,0,0,1,0,2.69c0,.91-.14,1.83-.21,2.75Z"/><path class="cls-4" d="M1.43,65.42l2.07-.63A7.9,7.9,0,0,1,5,64.48c1.79,0,3.58-.1,5.36,0a37.5,37.5,0,0,1,3.91.65l0,.61c-1.33.25-.92,1.29-1,2.12-1.27-.16-2.5.65-3.84.06-.56-.25-.82.42-.66,1,0,3,0,6-.06,9.05-.08,3.65,0,7.31-.4,10.93-.22,2.22.14,4.69-1.65,6.56l-1.92.16c-.18-.31-.35-.59-.52-.86l0-1.74.86-.25v-.26l-.87-.22-.17-.65a3,3,0,0,0,.31-1,49.06,49.06,0,0,1-.42-5.25,3.34,3.34,0,0,0-.5-2.52l.06-1.41a.85.85,0,0,0,0-1.38v-1.4c1.08-.8,0-1.63,0-2.44a6.09,6.09,0,0,1-.05-1,13.65,13.65,0,0,0-1.7-7.51A2.65,2.65,0,0,1,1.43,65.42Z"/><path class="cls-3" d="M91.25,66.47c.57,0,1.24.38,1.67-.34l1.26,1.11c.66-.68,1.91-.8,1.54-2.14A2.34,2.34,0,0,0,96.44,63c.8,0,1.68-.46,2.49.5-.12.35-.24.81-.42,1.25s-.45.89-.68,1.33l-1.44.66c0,.94,0,2,0,3s-.28,2.19-.29,3.29c0,3,0,6,0,9.07-.08,4-.23,8-.37,12,0,1.16-.22,2.3-.28,3.46a1.06,1.06,0,0,1-.87,1.13c-1,.25-2,.77-3.17.39a7.34,7.34,0,0,0-2.25,0l-.07,0,.45-1.32c.69-.08.68-.6.7-1.11l.12-.45,1.44.09a3.79,3.79,0,0,0,.16-.7c0-5.57,0-11.13,0-16.7a15.66,15.66,0,0,0-.26-2c-.12-.37-.41-.8-.32-1.12.29-1.12.22-2.27.41-3.36A12.18,12.18,0,0,0,91.25,66.47Z"/><path class="cls-5" d="M53.11,94.78c-1.33,0-2.67-.06-4-.17s-2.51-.34-3.86-.52c-.18.51-.33,1-.55,1.56-.33.74-.82,1.31-1.74,1.09s-1.39-.59-1.38-1.53a19.59,19.59,0,0,1,0-3.07c.52-3,1.19-5.88,1.76-8.83.37-1.92.67-3.86,1-5.79.1-.57.18-1.14.26-1.71l3.61.2a1.56,1.56,0,0,0-1.11,1.71A18.76,18.76,0,0,1,46.91,80c-.16,1.83-.31,3.67-.43,5.51,0,.14.15.29.19.36l5,.24.17.44.49-.52c0-1.15,0-2.29,0-3.44.67,0,1.08.16,1.12,1a2.75,2.75,0,0,0,1.74,2.55l.06,2.09L53,88.88a8,8,0,0,0-1.74-.55c-1.42-.12-2.85-.15-4.28-.14-.36,0-1,.2-1,.4-.23,1.19-.92,2.38-.25,3.84A8.27,8.27,0,0,1,51.21,92l1.52.31c.51.1.75-.18.86-.63.89-.23,1.55.3,2.25.7.14.69.27,1.38.41,2.08l-2.36.66L53.8,95Zm.12-8.53L53,86.18s0,.12,0,.12A.67.67,0,0,0,53.23,86.25Z"/><path class="cls-5" d="M68.17,89.2c.12-.81.23-1.63.34-2.44l2.76-.36c.88.08,1.76.12,2.62.27,1.19.2,2.37.51,3.55.72a3.59,3.59,0,0,0,1,0c0-1.75,0-3.36-.16-5-.16-1.94-.46-3.86-.7-5.79l.38,0a1.33,1.33,0,0,0,1.64-.69l1-.3c.6,3.38.39,6.81.47,10.22a8.42,8.42,0,0,0,.39,2.39A24.89,24.89,0,0,1,82.33,95a31.33,31.33,0,0,1-.42,4.42c-2,.3-2.13.19-2.2-1.58,0-.52,0-1,0-1.56,0-2.28,0-2.27-2.36-2.23s-4.51,0-6.77,0L69,94.57c-.15-.65-.27-1.19-.38-1.68l1-1Zm2.65,2.12a2.66,2.66,0,0,0,1,.22,15.5,15.5,0,0,1,5.84,0,8.4,8.4,0,0,0,1.6,0V89.85c-2.24-.37-4.39-.74-6.55-1-.62-.09-1.3-.07-1.58.71-.91.23-.88,1-1,1.7ZM69.18,89c-.08.05-.2.09-.22.16s.07.17.11.26l.31-.24Z"/><path class="cls-6" d="M72.7,16.48l.21-1.66,2.35-.36.37,1.12,1.3-1.22c-1.31-1.22-1.09-2.71-1.13-4.14,2.2-.2,4.25.68,6.4.88,1.35.12,2.77.78,4.11-.22a3.89,3.89,0,0,0-3.56-1.17A2.76,2.76,0,0,1,79.88,9,1.67,1.67,0,0,0,78.5,8.6a28.32,28.32,0,0,0-3,1.6l-1.66-.08c.11-1.5.48-1.87,1.76-2l2.37-.28c.52,0,1-.07,1.55-.07,3,0,5.88.88,8.85.27l1.12.86-.9,1.35c1.45,1.16,1.49,1.29.94,3.14,0,.11,0,.22-.07.34l-1.55-.61a1.14,1.14,0,0,0,.89,1.49c.47.16.92.14,1-.53a1.09,1.09,0,0,1,1.26.58.52.52,0,0,0,.94.07c.61.46,1.2.94.86,1.89a5,5,0,0,1-3.3.55,19.73,19.73,0,0,0-2.4-.32c-2.36-.05-4.73,0-7.1-.05-1.49,0-3-.16-4.48-.25Zm12.36-1.63a6.38,6.38,0,0,0-4.63,0Zm2.28-4.23s-.1.05-.12.09,0,.07.07.11l.18-.14Z"/><path class="cls-5" d="M16.76,92l0-.71.56-.25-.56-.43c0-.58.06-1.16.08-1.74.86-.59.86-.78,0-1.43.1-.46.19-.91.29-1.37,1.18-.63,2.35-1.33,3.76-.7l6-.38.94.12.16-.27-.73-.53v-.7c1.19-.08,1.73,1.1,2.71,1.42a13.56,13.56,0,0,1,.31,3.07c-.27,2.13.32,4.13.64,6.17.16,1,.38,2,.47,3.09.12,1.28-.13,1.65-1,1.89s-1.39,0-1.86-1.07a12.65,12.65,0,0,1-.82-2.82c-.26-1.68-.2-1.65-1.95-1.7-1.5,0-3-.18-4.51-.23a2.91,2.91,0,0,0-.93.31c-1.38.33-1.64.09-1.81-1.74Zm4.17-1H22l5.11-.15c.09-1.24.48-2.38-.51-3.4-2,.23-4,.46-5.95.71-.05,0-.09.2-.13.31l-2,.52a10.3,10.3,0,0,0,1.08,1.22,8.89,8.89,0,0,0,1.27.76Zm-2.18,0a.38.38,0,0,0-.05-.15s-.08,0-.12,0a.38.38,0,0,0,.05.15S18.71,91,18.75,91Z"/><path class="cls-2" d="M75.8,10.22c0,1.43-.18,2.92,1.13,4.14l-1.3,1.22-.37-1.12-2.35.36c.13-2.65.27-5.29.38-7.94A14.91,14.91,0,0,0,73.24,5c0-.34-.15-.68-.18-1-.2-2.39.76-3.22,3.08-2.82a27.21,27.21,0,0,0,3.27.29q4.68.23,9.38.37A16.93,16.93,0,0,0,91,1.72c1.72-.18,2.84.66,2.88,2.4a48,48,0,0,1-.19,4.8c-.08,1-.31,2-.48,3-.44-1-.85-2-1.33-3-.35-.7-.93-.82-1.68-.45-.26.13-.52.24-.78.36L88.34,8l1.78-.49c.17-1,.35-2.06.55-3.27-.71,0-1.28,0-1.85,0L80,4a7.25,7.25,0,0,0-3.71.54L76,7.67l2,.16-2.37.28c-1.28.14-1.65.51-1.76,2l1.66.08Z"/><path class="cls-2" d="M8.76,69c-.17-.61.09-1.28.65-1,1.34.59,2.57-.22,3.84-.06h1.41a1.64,1.64,0,0,0-1.13,1.67c-.16,4.55-.38,9.11-.7,13.66-.21,2.87-.69,5.72-.94,8.59a11.75,11.75,0,0,0,.37,5c.62,1.76.25,2.21-1.59,2.21-1.16,0-2.32,0-3.48,0a6.07,6.07,0,0,1-1.28-.34c.79-.5.76-1.27.68-2.06l2.94-.17c0-2.38-.06-4.57,0-6.75.14-4.15.3-8.3.55-12.44.14-2.31-.51-4.59-.06-6.91C10.2,69.41,9.81,68.79,8.76,69Z"/><path class="cls-2" d="M89.51,17.16a5,5,0,0,0,3.3-.55c.34-.95-.25-1.43-.86-1.89,0-.79.58-1.15,1.18-1.47a10.69,10.69,0,0,1,.36,3.18c-.47,2.52,0,5,.19,7.59,2.44.37,3.17,2.55,4.42,4.31-.38,1-.86,2-.36,3.14.16.37-.15,1-.25,1.45l-2.71,0c.69-2.68.41-5.1-1.87-7,.66-.13.93-.49.5-1.08a2.41,2.41,0,0,0-2.36-1.16l-.43,1.51,1.3.88c-.16.15-.31.41-.48.42-2.12.16-4.24.35-6.36.37-2,0-3.91-.19-5.86-.25s-3.93-.07-5.89-.1c.56-.24,1.11-.51,1.67-.73s.53-.7.25-1.08-.58-.33-.88-.48l.06-.1,1,0c2.52.11,5,.2,7.54.33,1.67.08,3.33.28,5,.32,1.51,0,1.87-.34,1.82-1.82C89.77,21.07,89.62,19.11,89.51,17.16Z"/><path class="cls-1" d="M48.26,76l-3.61-.2a6.12,6.12,0,0,0-1.26-.5C42,75.08,41.37,74,40.77,73c-.44-.76,0-1.44,1-1.54s2.29,0,3.42-.15c2.07-.18,4.12-.49,6.18-.65a12.49,12.49,0,0,1,2.93.12c2.34.4,2.67.85,2.81,3.57-.61.24-1.3.5-2,.79-.51.21-1,.47-1.52.72l-2,.25H50Z"/><path class="cls-4" d="M16.06,71.05c2.82-1,5.82-.68,8.72-1.09a25.61,25.61,0,0,1,4.11-.18,31.35,31.35,0,0,1,3.6.36c.7.09,1.27.54,1.2,1.23,0,.36-.59.74-1,1-1.33.87-2.7,1.69-4.05,2.53l-2,.25c-1.25-.08-2.5-.17-3.76-.2-.1,0-.22.35-.34.54l-3-.62-2.09-.7c.18-.46.52-1.12-.2-1.25C16,72.71,16.2,71.82,16.06,71.05Z"/><path class="cls-1" d="M79.61,75.86a1.33,1.33,0,0,1-1.64.69c0-1.09-.8-1.34-1.67-1.33-1.16,0-2.56-.41-3,1.33H70.66l0,0-.74-.25-3.32-2.73c.18-1.2,1.09-1.29,1.8-1.62,2.37-1.12,5-.87,7.48-1.32a8.94,8.94,0,0,1,5.91.79l-1.34.83.6,1Z"/><path class="cls-3" d="M14.24,65.75c0-.2,0-.4,0-.61,1.72.08,3.44.15,5.16.25s3.45.34,5.17.33c3,0,5.95-.17,8.93-.26L34.14,67l2.16-.44-1.39,1.63a2.75,2.75,0,0,1-.78.29c-3.94.14-7.87.31-11.81.36a26.49,26.49,0,0,1-4-.43c-1.13-.16-2.25-.38-3.38-.57C15.38,66.91,14.53,66.43,14.24,65.75Z"/><path class="cls-2" d="M93.67,36c-.73,0-1.46.1-2.19.12s-1.29-.1-1.91,0a23.19,23.19,0,0,1-6.06,0c-3.14-.43-6.31-.74-9.48-1-1.73-.15-3.48-.11-5.22-.15.77-.5,1.59-.95,1.47-2.08,1.56.07,3.13.1,4.7.22,1.73.14,3.45.39,5.18.52,2,.15,4,.23,6.08.32.4,0,.8-.1,1.2-.13,1.85-.17,3.7-.45,5.51.2-.08.38-.17.75-.23,1Z"/><path class="cls-7" d="M70.23,54.25c-1.24.14-2.49.52-3.72-.07l-.45-2.39h.32l.46.14-.47-.13c.25-.36.48-.72.73-1.07s.59-.5.61-.76a1.86,1.86,0,0,1,1.61-1.87l-1.23-1.6,1.06-.78c.29.73.77,1.07,1.46.55,1-.71,1.61-.26,2.21.46A13,13,0,0,1,73.67,48c.58.89,1,1.77.16,2.75,0,0,.15.26.23.4l1.08.38c-.08.5-.16,1-.21,1.35l.9.88-2.49,0c.11-.67.21-1.34.35-2.22-1.4.07-2.68.1-4,.22-.32,0-.62.35-1.27.73a8.2,8.2,0,0,1,1.42.44c.77.44,1.9-.11,2.46.89Z"/><path class="cls-2" d="M47.86,40.25c2,.26,3.09,1.16,3.45,3a26.59,26.59,0,0,1,.37,3.78c0,1-.31,1.39-1.25,1.51a9.06,9.06,0,0,1-1.56,0c-1.43-.06-2.87-.19-4.3-.14s-1.9-.26-1.94-1.51a27.78,27.78,0,0,1,0-3.65c.1-1.05.4-2.08,1.72-2.27l1.77,1.3c-1.52.44-1.77,1.24-1.2,3.77h4.52c.22-2.3,0-2.8-1.64-3.65a4.17,4.17,0,0,0,.23-1A5.59,5.59,0,0,0,47.86,40.25Z"/><path class="cls-2" d="M73.67,48a13,13,0,0,0-.85-1.24c-.6-.72-1.26-1.17-2.21-.46-.69.52-1.17.18-1.46-.55.66-1,1.8-.48,2.69-.81A30,30,0,0,1,75.5,44s.06-.1.06-.14a.44.44,0,0,0-.1-.15l.59-.36.46,0h0a9.53,9.53,0,0,1,1.7.23c1.76.54,1.89,2.08,2.12,3.58.19,1.29.51,2.55.78,3.83l-1.41.14c-.36-.21-.73-.59-1.08-.58a2.16,2.16,0,0,0-2.1,1.18l-.75-.51c.24-.23.69-.46.67-.67A20.29,20.29,0,0,0,76,47.42c0-.2-.69-.46-.94-.37A6.71,6.71,0,0,0,73.67,48Z"/><path class="cls-4" d="M79.69,51.18,81.1,51l3.5-.1,1.83.12c.29-.61.84-1.22.71-1.59-.4-1.12.67-1.64.82-2.51,0-.18.58-.4.87-.36s.41.41.61.64c-.9.12-1.13.59-.86,1.45.4,1.31.74,2.64,1.1,4l-.36-.07-.94,1.26v0c-1.34-.26-2.68-.49-4-.8-.44-.1-.78-.2-1,.33l-1.31.08c-.62-.87-.82-.83-1.48.29-.87.32-1.63,1.14-2.7.58l-.71-.14-1.4-.49-.9-.88c0-.36.13-.85.21-1.35a1.55,1.55,0,0,0,.08-.23h.54l.75.51a18.12,18.12,0,0,0,2.33,0C79.14,51.73,79.4,51.38,79.69,51.18Z"/><path class="cls-5" d="M86.08,79.43l1.67,0A13.7,13.7,0,0,1,88,81.59c0,1.61-.21,3.21-.33,4.81,0,.34,0,.68,0,1-.16,1.37-.28,2.76-.5,4.12a13.48,13.48,0,0,0,.15,5.69c0,.59.87,1.48,1.68,1.69l.08,0a1.09,1.09,0,0,1-1.56.92,2.87,2.87,0,0,1-1.46-1.53,10.28,10.28,0,0,1-.38-3.09c0-4.25,0-8.5,0-12.74A27.49,27.49,0,0,1,86.08,79.43Z"/><path class="cls-3" d="M89.44,47.24c-.2-.23-.39-.61-.61-.64S88,46.78,88,47c-.15.87-1.22,1.39-.82,2.51.13.37-.42,1-.71,1.59l-1.83-.12a24.06,24.06,0,0,0,.32-2.39c.06-2.37.73-3.29,3-3.71s4.78-1,7.2-.34a19.38,19.38,0,0,1,2.78,1c.25.1.36.51.54.78-.43-.14-.85-.29-1.28-.41-1.17-.34-1.37-.23-1.83.92a3.08,3.08,0,0,1-.37.52l-1.68-.35c-.94-.69-2-.27-3-.28l-.1,1.09.94-.14.37,1.08c-.39,0-.78,0-1.17,0C89.45,48.53,89.16,48.06,89.44,47.24Z"/><path class="cls-2" d="M19.53,74.87l3,.62a12.09,12.09,0,0,1-.12,1.35c-.58,2.83-1.53,5.59-1.52,8.52-1.41-.63-2.58.07-3.76.7a5.34,5.34,0,0,1,.2-3C18.16,80.34,18.81,77.6,19.53,74.87Z"/><path class="cls-2" d="M61.48,39.92c1.68.14,1.65.18,1.75,1.66s.36,3.19.55,4.79a8.32,8.32,0,0,1,.13.85c0,1.05-.47,1.6-1.48,1.36a5.59,5.59,0,0,0-4.65.58,1.28,1.28,0,0,1-1.72-.3,6.14,6.14,0,0,1-.33-6.68A4.36,4.36,0,0,1,57,41.35a.92.92,0,0,0,.94,1l1.2.09a5.83,5.83,0,0,1-.81.25,2,2,0,0,0-2,2.06,14.48,14.48,0,0,0,.6,2.49c.94-.22,1.65-.43,2.38-.55s1.58-.17,2.57-.26c0-.81,0-1.55,0-2.28a4.38,4.38,0,0,0-.08-1.21c-.1-.28-.43-.48-.65-.72l.41-.27c-.48-.68.17-1.06.49-1.45Z"/><path class="cls-3" d="M34.92,40.27a6.06,6.06,0,0,1,3.16,7.42c-.3.92-.89,1.43-1.8,1.24-1.41-.29-2.79-.75-4.18-1.13l.7-1.09-1.28-.12c-.18-.51-.34-.93-.49-1.35l0-.08,5,.66a1.7,1.7,0,0,0-.38-2.15c-.41-.4-.77-.85-1.15-1.28Z"/><path class="cls-2" d="M97.83,66.06c.23-.44.48-.87.68-1.33s.3-.9.42-1.25c-.81-1-1.69-.48-2.49-.5h0l.65-1.17-1.4-.6A7.4,7.4,0,0,1,97,60.88c.57-.05,1-.19,1.16-.81a1.38,1.38,0,0,0-.6-1.48c-.78-.64-1.64-.43-2.48-.49,0-.86,0-1.72,0-2.58a1.62,1.62,0,0,0-.75-1.6v-.46a2.25,2.25,0,0,0,.8.3,9.82,9.82,0,0,0,2-.27c.24-.06.41-.44.61-.67l1.06-1a66,66,0,0,0,.18,7.7,16.09,16.09,0,0,0,.76,4.83C100.13,65.26,99.39,65.86,97.83,66.06Z"/><path class="cls-2" d="M70.66,76.54h2.68l.41.3a4.82,4.82,0,0,0-.41.9c-.7,2.88-1.38,5.77-2.07,8.65l-2.76.36c-.27-1.8.69-3.35,1-5S70.29,78.27,70.66,76.54Z"/><path class="cls-2" d="M67.86,32.92a8.72,8.72,0,0,1-.5-5.67c.09-.37.3-.86.59-1,1.2-.53,2.45-.93,3.68-1.38.17.7.16,1.51,1.06,1.76a1.48,1.48,0,0,1-.43.29c-2.46.53-2.77,1-2.3,3.44a16.61,16.61,0,0,1,.17,2.23Z"/><path class="cls-3" d="M2.49,5.32c0,1.3,0,2.61-.08,3.91-.11,1.82-.34,3.63-.48,5.45-.1,1.22-.16,2.44-.2,3.67,0,.64,0,1.28-.66,1.64a6.05,6.05,0,0,1-.33-1.3C.61,15.87.43,13.05.43,10.23c0-1.78.28-3.56.43-5.33Z"/><path class="cls-2" d="M26.64,75.15l2-.25q.49,3.76,1,7.55c.11.85.2,1.71.3,2.57-1-.32-1.52-1.5-2.71-1.42-.08-1-.17-2-.24-3C26.87,78.78,26.76,77,26.64,75.15Z"/><path class="cls-3" d="M51.61,76.06l2-.25c.39,1.79.78,3.58,1.15,5.38.22,1.06.44,2.13.56,3.21a8.42,8.42,0,0,1-.14,1.65,2.75,2.75,0,0,1-1.74-2.55c0-.8-.45-1-1.12-1a12.19,12.19,0,0,1-.26-1.34C51.91,79.49,51.76,77.77,51.61,76.06Z"/><path class="cls-7" d="M98.84,51.78l-1.06,1a2.41,2.41,0,0,0-2.07-1.94,1.3,1.3,0,0,1-.32-.14c-.14-1.16-.28-2.32-.41-3.48a3.08,3.08,0,0,0,.37-.52c.46-1.15.66-1.26,1.83-.92.43.12.85.27,1.28.41A8.73,8.73,0,0,1,98.84,51.78Z"/><path class="cls-4" d="M60.45,5.62l.68-.32.87.47-.51.58v.34l1.43.71a.36.36,0,0,1-.09.32L61.52,9.18l-1.77.31L59.3,8.23a2.86,2.86,0,0,0-1,2.47,2.64,2.64,0,0,1-.31.92c-.33-.29-1-.6-1-.85a2.64,2.64,0,0,0-1.78-2.88s-.06-.09-.08-.15l.75-1a4,4,0,0,1,1.21,0C58.58,7.26,59.54,6.56,60.45,5.62Z"/><path class="cls-2" d="M72.7,16.48l2.83.06c-.15,1-.3,1.92-.44,2.88l-.66,4.74-.06.09L72,24.57Z"/><path class="cls-4" d="M93.13,13.25c-.6.32-1.16.68-1.18,1.47a.52.52,0,0,1-.94-.07,1.09,1.09,0,0,0-1.26-.58c-.1-.12-.21-.23-.32-.35s0-.23.07-.34c.55-1.85.51-2-.94-3.14l.9-1.35c.26-.12.52-.23.78-.36.75-.37,1.33-.25,1.68.45.48,1,.89,2,1.33,3Z"/><path class="cls-2" d="M68.17,89.2l1.36,2.66-1,1c.11.49.23,1,.38,1.68l1.61-.49c-.14.92-.24,1.84-.42,2.75a2.38,2.38,0,0,1-1.85,1.64,1.25,1.25,0,0,1-1.22-1.39,26.6,26.6,0,0,1,.27-3.46C67.56,92.14,67.89,90.67,68.17,89.2Z"/><path class="cls-2" d="M16.76,92h1.69c.17,1.83.43,2.07,1.81,1.74.62,1.88-.57,3.67-2.33,3.52A1.47,1.47,0,0,1,16.46,96C16.27,94.67,16,93.28,16.76,92Z"/><path class="cls-6" d="M34.92,40.27c-.12.7-.23,1.41-.35,2.12l-1.75,0c-.12-.47-.24-.94-.35-1.41l-.37-1.42c.19-1.05.37-2.11.56-3.16.11-.39.21-.77.35-1.26.87.24,1.38.64,1.05,1.59-.17.48-.31.9.32,1.13Z"/><path class="cls-3" d="M14.72,1.36A11.24,11.24,0,0,1,13,2a30.55,30.55,0,0,1-5.43.74,18.11,18.11,0,0,0-3,.13l-1.75-1c2.85-.34,5.71-.7,8.56-1A13.16,13.16,0,0,1,13.75.82C14.08.85,14.39,1.17,14.72,1.36Z"/><path class="cls-6" d="M61.49,6.35,62,5.77l-.87-.47a7,7,0,0,0-.2-1.13,2.08,2.08,0,0,1,.58-2.42c1.76.1,1.8.09,2.13,1.79.27,1.36.55,2.77-.72,3.86l-1.43-.71Z"/><path class="cls-5" d="M94.3,40.5c0,1.22-.56,2.14-1.29,2.13-1,0-2.49-1.24-2.48-2.08a2,2,0,0,1,1.94-2C93.65,38.5,94.31,39.21,94.3,40.5Z"/><path class="cls-6" d="M59.1,42.43l-1.2-.09a.92.92,0,0,1-.94-1,2.57,2.57,0,0,0,1.1-2.5,1.45,1.45,0,0,1,2,.57c.18.27.75.29,1.14.43a.77.77,0,0,1,.27.07l.53.57c-.32.39-1,.77-.49,1.45l-.41.27Z"/><path class="cls-6" d="M93.67,36l-1-1c.06-.27.15-.64.23-1l1.83-1,2.71,0c-.12.85-.23,1.69-.34,2.46A5.18,5.18,0,0,1,93.67,36Z"/><path class="cls-2" d="M32.1,39.53,32.47,41c.11.47.23.94.35,1.41a.94.94,0,0,0-1.19.69c-.2.69-.37,1.4-.56,2.11l0,.07c-.52,0-1.21-.41-1.14.64,0,.11-.33.23-.51.35a7.3,7.3,0,0,1,.92-5A11.33,11.33,0,0,1,32.1,39.53Z"/><path class="cls-7" d="M79.61,75.86,81,73.18l-.6-1,1.34-.83a1.48,1.48,0,0,1,1.37,1.68,1.58,1.58,0,0,1-1.2,1.67,7.61,7.61,0,0,0-1.32.82Z"/><path class="cls-7" d="M2.76,1.88l1.75,1c-.17,1.18-1.23.44-1.93,1C2.2,4.15,4,5,2.49,5.32L.86,4.9C.76,4.23.65,3.56.54,2.8l1.23-.62.31-.27Z"/><path class="cls-2" d="M73.31,42.38l-1.19-.54c-.09-1.91-.05-2,2.29-2.51l1.78,2.31L74,41.42Z"/><path class="cls-3" d="M27.29,56.18c-.27-.55-.64-1-.56-1.21A8.53,8.53,0,0,1,29,50.81c.21.32.59.66.52.83C28.94,53.13,28.78,54.79,27.29,56.18Z"/><path class="cls-3" d="M68.09,46.5l1.23,1.6A1.86,1.86,0,0,0,67.71,50c0,.26-.41.49-.61.76s-.48.71-.73,1.07h-.31a3,3,0,0,1,.22-2.72A14.78,14.78,0,0,1,68.09,46.5Z"/><path class="cls-2" d="M55.84,92.36c-.7-.4-1.36-.93-2.26-.7L53,88.88l2.22-.74A8.82,8.82,0,0,1,55.84,92.36Zm-1.56-1.67.29.12c0-.09.14-.21.11-.28s-.2-.14-.26-.12S54.32,90.59,54.28,90.69Z"/><path class="cls-7" d="M3.44,82.9a3.34,3.34,0,0,1,.5,2.52,49.06,49.06,0,0,0,.42,5.25,3,3,0,0,1-.31,1c-.14-.16-.4-.32-.41-.5C3.4,88.43,2.94,85.67,3.44,82.9Z"/><path class="cls-2" d="M53.89,95.1l2.36-.66a3.44,3.44,0,0,1-.33,3.19,1.45,1.45,0,0,1-1.17.45c-.23,0-.48-.58-.57-.93C54,96.48,54,95.78,53.89,95.1Z"/><path class="cls-2" d="M39.43,56.63c-1.91-1-2.23-1.69-1.91-4.33.74,0,1.09.52,1.41,1.05s.56,1.13.88,1.67A1.13,1.13,0,0,1,39.43,56.63Z"/><path class="cls-7" d="M6.59,96.56c.08.79.11,1.56-.68,2.06-1.79-.87-2.19-1.75-1.71-3.82.17.27.34.55.52.86l1.92-.16C6.62,95.85,6.61,96.2,6.59,96.56Z"/><path class="cls-2" d="M32.67,51.74c1.35.32,1.24,1.17,1.12,1.87A10.48,10.48,0,0,1,33,55.82s-.78,0-.82-.19a5.08,5.08,0,0,1-.32-2A8.13,8.13,0,0,1,32.67,51.74Z"/><path class="cls-6" d="M47.86,40.25a5.59,5.59,0,0,1,.19,1.12,4.17,4.17,0,0,1-.23,1l-1.68-.12L44.37,41l1.45-1a2.09,2.09,0,0,1,1.9,0A2.92,2.92,0,0,1,47.86,40.25Z"/><path class="cls-7" d="M72,24.57l2.33-.32c.3.16.69.25.88.49s.4.84-.25,1.08-1.11.49-1.67.73l-.64.1c-.9-.25-.89-1.06-1.06-1.76Z"/><path class="cls-6" d="M29.38,46.22c.18-.12.51-.24.51-.35-.07-1,.62-.67,1.14-.64.15.43.31.85.49,1.36l1.28.12-.7,1.09-.68,0-.35.07a5.23,5.23,0,0,1-.68.07C29.11,47.87,28.93,47.56,29.38,46.22Z"/><path class="cls-6" d="M73.31,42.38l.7-1,2.18.22c1,.44.17,1.18.31,1.76h0l-.46,0-.59.36A2,2,0,0,1,73.31,42.38Z"/><path class="cls-6" d="M16.06,71.05c.14.77,0,1.66,1.18,1.87.72.13.38.79.2,1.25-.86-.06-1.79,0-2.3-.86a2.75,2.75,0,0,1-.41-1.56C14.81,71.07,15.44,71,16.06,71.05Z"/><path class="cls-7" d="M67.86,32.92l2.27-.31.15.25c.12,1.13-.7,1.58-1.47,2.08C67.78,34.6,67.77,33.78,67.86,32.92Z"/><path class="cls-7" d="M14.24,65.75c.29.68,1.14,1.16.74,2.09l-.32,0H13.25C13.32,67,12.91,66,14.24,65.75Z"/><path class="cls-7" d="M3.49,76.27c-.05.81,1,1.64,0,2.44Z"/><path class="cls-7" d="M3.46,80.11a.85.85,0,0,1,0,1.38C3.49,81,3.48,80.57,3.46,80.11Z"/><path class="cls-2" d="M16.85,87.43c.82.65.82.84,0,1.43C16.82,88.38,16.84,87.9,16.85,87.43Z"/><path class="cls-7" d="M4.22,92.33l.87.22v.26l-.86.25C4.23,92.81,4.22,92.57,4.22,92.33Z"/><path class="cls-2" d="M16.73,90.6l.56.43-.56.25Z"/><path class="cls-2" d="M53.11,94.78l.69.26Z"/><path class="cls-2" d="M69.87,76.27l.74.25Z"/><path class="cls-3" d="M31.07,47.89l.35-.07Z"/><path class="cls-7" d="M62.79,35.08l.46,0Z"/><path class="cls-3" d="M2.08,1.91l-.31.27Z"/><path class="cls-7" d="M29.68,25.87l1,.05.39.1-1.05,1.76,1.12.41-.1.92c-.07.57-.36.62-.84.42a22.88,22.88,0,0,0-6.91-1.18,9.49,9.49,0,0,0-2.43.4c-.52,0-1-.06-1.54-.11-.22,0-.55-.2-.63-.12-1.27,1.32-3,.34-4.41.84a2.19,2.19,0,0,1-2.82-1h0l-.06-.61a10,10,0,0,1,1-.5c.62-.23,1.25-.42,1.88-.63H15c-.24.53,0,.68.51.7,1.47.07,3,.2,4.42.31H22c.82.16,1.42-.62,2.37-.39s1.9-.47,2.82-.38C28.29,27,28.87,26.22,29.68,25.87Z"/><path class="cls-5" d="M24.09,10.56a26.94,26.94,0,0,1-7.38-.51,26.19,26.19,0,0,0-3.78-.25,15.88,15.88,0,0,1-1.79-.39c.3-.83.86-.76,1.63-.7a22.12,22.12,0,0,0,8.49-.66c.12,1,1,1.33,1.68,1.8C23.31,10.11,23.71,10.32,24.09,10.56Z"/><path class="cls-7" d="M21.28,2.89c.31-.1.66-.33.91-.25a31.76,31.76,0,0,0,7,.92,5.42,5.42,0,0,1,1.32.32,26,26,0,0,1,2.58,1,27.33,27.33,0,0,1-4.78-.1A5.84,5.84,0,0,0,24.41,5l-.86.17c-.61-.53-1.16-1-1.67-1.47A7.68,7.68,0,0,1,21.28,2.89Z"/><path class="cls-5" d="M10.45,9.46c-.23,1.69-.44,3.4-.7,5.09-.09.65-.28,1.29-.43,1.93-.23-1.55-.74-3.07-.34-4.69a17.43,17.43,0,0,0,.2-3Z"/><path class="cls-5" d="M14.31,26.64c-.63.21-1.26.4-1.88.63a10,10,0,0,0-1,.5l-2.21-.13c-.26-.75-.23-1.23.57-1.38h0l.38.59.29-.51L14,26Z"/><path class="cls-5" d="M9.2,18.17C9.47,20.1,9.76,22,10,24c0,.3-.2.64-.31,1-.87-.26-.57-1-.64-1.58A25.35,25.35,0,0,1,8.79,20,7.79,7.79,0,0,1,9.2,18.17Z"/><path class="cls-7" d="M11.5,28.37c-.22,1-.22,1-1.13.31l1.14-.3Z"/><path class="cls-7" d="M70.16,57.43l4.58.36c.46.39.9.81,1.39,1.16a1.06,1.06,0,0,1,.39,1.6l-2.78,0-1.09-1.82-.31,1c-1.23,0-2.47.14-3.72.13S67,59.3,67.06,58.25s.81-1.35,1.92-1.11C69.38,57.22,69.77,57.33,70.16,57.43Z"/><path class="cls-7" d="M32.43,30.41c.44-.34.9-.67.75-1.34l.67-.26-1-1,.71-1.93.62.08,2.22,2.64c.09-.5.16-.87.23-1.25.61.32,1.12.41,1-.54a6.61,6.61,0,0,0-.33-1.13c1.61-.21,3.21-.53,4.82-.62,2-.11,3.95-.06,5.93,0s4,.22,6.07.25c1.12,0,1.31-.23,1.37-1.34.07-1.51.05-3,.12-4.53A9.71,9.71,0,0,1,56,17.93c.37,2.09.78,4.18,1.08,6.27a1.18,1.18,0,0,1-.91,1.46,5.22,5.22,0,0,0-1.23.6c.23.65.42,1.21.61,1.76-1.55,1-3.45.07-5.08.89-.35.18-1-.23-1.49-.33a4.76,4.76,0,0,0-1.19-.12c-1,.06-2,.24-2.92.23-1.48,0-3-.14-4.44-.15-.21,0-.43.36-.64.55l-1.55.64c-1.43-.89-1.46-.93-2.63.06-.57.49-1.05.24-1.59.12s-.42,1.24-1.27.67C32.64,30.51,32.53,30.47,32.43,30.41Z"/><path class="cls-4" d="M32.43,30.41c.1.06.21.1.31.17.85.57.67-.81,1.27-.67s1,.37,1.59-.12c1.17-1,1.2-.95,2.63-.06l1.55-.64,1.36,1c1.65-1,1.33-1.12,3.2.05a4.4,4.4,0,0,1,.41.31l-.6.78L45,32.54a10.33,10.33,0,0,1-7.13,1.2c-2.23-.3-4.31-1.21-6.51-1.17C30.82,30.74,30.85,30.68,32.43,30.41Z"/><path class="cls-7" d="M45,32.54l-.89-1.33.6-.78c.36.47.73.93,1.09,1.39a23.87,23.87,0,0,0,7.4-.29,11.17,11.17,0,0,1,4.06-.46c.06,0,.14-.16.3-.37-.36-.45-.77-.92-1.12-1.43-.07-.1.11-.36.17-.55.31.12.79.14.89.35.44.92,1.18.91,2.11.94-.12-1.32.84-2.49.09-3.75-.24-.86.61-.7,1-1V23.39l-1.21-.2,0-.41,1.68-.39a8.49,8.49,0,0,1,.32,1.46c0,1.16,0,2.31,0,3.5l1.64,1.11c-.33.78-.64,1.48-1,2.29-.8-.31-1.6-.83-2.28.1.25,1,1.54.31,1.8.94.4,1,1,.67,1.88.49.07.56.34,1.14.15,1.47a1.19,1.19,0,0,1-1.54.39,9.47,9.47,0,0,0-1.48-.3c-.09-.32-.16-.58-.25-.94a18.68,18.68,0,0,1-5.11-.14c-1.61-.41-3.41-.08-5.12-.1S46.76,32.58,45,32.54Z"/><path class="cls-5" d="M61.15,22.39l-1.68.39,0,.41,1.21.2v1.88c-.36.29-1.21.13-1,1H58.12c.09-.93.15-1.65.22-2.37a14.36,14.36,0,0,0,.28-3.43,6.94,6.94,0,0,1,.16-2.89A7,7,0,0,0,58.33,13L58,11.62a2.64,2.64,0,0,0,.31-.92,2.86,2.86,0,0,1,1-2.47l.45,1.26.33.71.34.72c.24,1.49.47,3,.7,4.49s.28,3.19.32,4.79A12.78,12.78,0,0,1,61.15,22.39Z"/><path class="cls-4" d="M33.6,25.85l-.71,1.93,1,1-.67.26-2.1,0,.1-.92-1.12-.41L31.11,26c0-.13.07-.26.1-.39l.27-.3a.78.78,0,0,0,.26,0c.41,1,1.21.44,1.86.47Z"/><path class="cls-7" d="M61.12,15.41c-.23-1.5-.46-3-.7-4.49l1.41-.38A11.71,11.71,0,0,1,61.12,15.41Z"/><path class="cls-4" d="M61.83,10.54l-1.41.38c-.11-.24-.22-.48-.34-.72l1.76-.36Z"/><path class="cls-7" d="M61.84,9.84l-1.76.36-.33-.71,1.77-.31C61.63,9.4,61.74,9.62,61.84,9.84Z"/><path class="cls-5" d="M62.16,21.06c.19.09.39.18.57.28a1.66,1.66,0,0,1-.11.27l-.58-.3Z"/><path class="cls-7" d="M56.15,15.12c-.17-.26-.47-.52-.48-.78-.05-1.32,0-2.63,0-4.15-1.93-.24-4-.61-6.13-.72-2.88-.15-5.77-.09-8.66-.15A7.14,7.14,0,0,1,39.5,9c-.45-1-1.28-.51-2-.48-1.15,0-2.3.23-3.46.2a6,6,0,0,1-1.77-.66c-1.58,1.08-3.26-.36-5-.43,1.82-.91,3.79-.84,5.72-.92,1,0,2-.67,3,.22.09.08.34,0,.51,0a48.23,48.23,0,0,1,4.75-.85,41.16,41.16,0,0,1,4.43.15c.8,0,1.6,0,2.41,0-.17-1-.17-1-1.58-.51a.93.93,0,0,1-.14-1.38A3.65,3.65,0,0,1,50,2.49c1.44.21,2.88.4,4.33.59a3.94,3.94,0,0,0,1.55.09c1.35-.47,2.49,0,3.77.63l-.34.67,1.14,1.15c-.91.94-1.87,1.64-3.3,1.14a4,4,0,0,0-1.21,0c-2-.46-2-.46-3.2-.08a11.18,11.18,0,0,0,1.18.71,10.43,10.43,0,0,0,1.27.4c0,.06,0,.13.08.15a2.64,2.64,0,0,1,1.78,2.88c0,.25.62.56,1,.85L58.33,13c-.77-.12-1.06.38-1.34,1A7.12,7.12,0,0,1,56.15,15.12Zm-7-9.22.13.49c.41-.09.81-.17,1.21-.27a4.1,4.1,0,0,0-.09-.48Z"/><path class="cls-2" d="M32.77,12.64q.38,6.12.74,12.25c-.61.09-1.35-.31-1.77.48a.78.78,0,0,1-.26,0l-.27.3c0,.13-.07.26-.1.39l-.39-.1c0-.93-.11-1.85-.14-2.78,0-.51,0-1,0-1.53,0-.93.06-1.85,0-2.78-.05-1.56-.2-3.12-.2-4.68,0-.39.39-.77.6-1.16Z"/><path class="cls-4" d="M87.7,86.4c.12-1.6.28-3.2.33-4.81a13.7,13.7,0,0,0-.28-2.18c.07-.92.16-1.84.21-2.75A18.63,18.63,0,0,0,88,74a26,26,0,0,1,.42-6,9,9,0,0,0-.09-1.36c.94,0,1.76-1.67,2.92-.16a12.18,12.18,0,0,1,.46,5.76c-.19,1.09-.12,2.24-.41,3.36-.09.32.2.75.32,1.12l-.15,2.68-2.21-.48v3.2l1.92.8,0,1c-.48-.13-1-.3-1.44-.39s-.87-.14-1,0a1.12,1.12,0,0,0-.07,1.05,1.81,1.81,0,0,1,.23,2Z"/><path class="cls-7" d="M94,64.65l.68.06,1,.39c.37,1.34-.88,1.46-1.54,2.14l-1.26-1.11C93.28,65.63,93.64,65.14,94,64.65Z"/><path class="cls-7" d="M87.7,86.4l1.19.22a1.81,1.81,0,0,0-.23-2,1.12,1.12,0,0,1,.07-1.05c.16-.18.68-.1,1,0s1,.26,1.44.39c-.1,1.71-.17,3.42-.3,5.13-.18,2.32-.4,4.65-.6,7l-.12.45c-1.39-.22-1-.31-1.32-1.65s.87-2.4.09-3.57c.92-1.16.2-1.84-.81-2.41l1-.81-1.4-.63Z"/><path class="cls-4" d="M87.69,87.43l1.4.63-1,.81c1,.57,1.73,1.25.81,2.41.78,1.17-.4,2.27-.09,3.57s-.07,1.43,1.32,1.65c0,.51,0,1-.7,1.11l-2.14-.37a13.48,13.48,0,0,1-.15-5.69C87.41,90.19,87.53,88.8,87.69,87.43Z"/><path class="cls-7" d="M87.34,97.24l2.14.37L89,98.93C88.21,98.72,87.32,97.83,87.34,97.24Z"/><path class="cls-2" d="M95.72,65.1l-1-.39A1.63,1.63,0,0,0,95.42,63h1A2.34,2.34,0,0,1,95.72,65.1Z"/><path class="cls-2" d="M51.7,86.06l.66-.08-.49.52Z"/><path class="cls-2" d="M53.23,86.25a.67.67,0,0,1-.19,0s0-.08,0-.12Z"/><path class="cls-7" d="M74.37,76.86h-.62l-.41-.3c.4-1.74,1.8-1.31,3-1.33.87,0,1.62.24,1.67,1.33l-.38,0H76.52l0-.58-.35.61-1,.23c-.09-.28-.19-.56-.4-1.22Z"/><path class="cls-2" d="M71.08,89.51c-.08.6-.17,1.21-.26,1.81l-.74-.11C70.2,90.48,70.17,89.74,71.08,89.51Z"/><path class="cls-2" d="M69.18,89l.2.18-.31.24c0-.09-.12-.18-.11-.26S69.1,89,69.18,89Z"/><path class="cls-4" d="M75.8,10.22l-.33,0a28.32,28.32,0,0,1,3-1.6A1.67,1.67,0,0,1,79.88,9a2.76,2.76,0,0,0,2.87.67,3.89,3.89,0,0,1,3.56,1.17c-1.34,1-2.76.34-4.11.22C80.05,10.9,78,10,75.8,10.22Z"/><path class="cls-4" d="M85.06,14.85H80.43A6.38,6.38,0,0,1,85.06,14.85Z"/><path class="cls-4" d="M87.34,10.62l.13.06-.18.14s-.08-.09-.07-.11S87.3,10.65,87.34,10.62Z"/><path class="cls-2" d="M20.5,88.47c.13.83.25,1.67.38,2.5a8.89,8.89,0,0,1-1.27-.76A10.3,10.3,0,0,1,18.53,89Z"/><path class="cls-2" d="M26.86,85l.37-.68.73.53-.16.27Z"/><path class="cls-2" d="M20.93,91h0Z"/><path class="cls-2" d="M18.75,91s-.11,0-.12,0a.38.38,0,0,1-.05-.15s.11,0,.12,0A.38.38,0,0,1,18.75,91Z"/><path class="cls-6" d="M92.91,26l-1,.15-1.31-.88.43-1.51a2.41,2.41,0,0,1,2.36,1.16C93.84,25.47,93.57,25.83,92.91,26Z"/><path class="cls-4" d="M73.34,53.7l-1,.06c-.56-1-1.69-.45-2.46-.89a8.2,8.2,0,0,0-1.42-.44c.65-.38,1-.7,1.27-.73,1.28-.12,2.56-.15,4-.22C73.55,52.36,73.45,53,73.34,53.7Z"/><path class="cls-2" d="M74.06,51.12l1.16.15a1.55,1.55,0,0,1-.08.23Z"/><path class="cls-3" d="M66.37,51.8l.47.13-.46-.14Z"/><path class="cls-7" d="M79.69,51.18c-.29.2-.55.55-.85.58a18.12,18.12,0,0,1-2.33,0,2.16,2.16,0,0,1,2.1-1.18C79,50.59,79.33,51,79.69,51.18Z"/><path class="cls-6" d="M94.34,53.92c-1.49-.1-3-.23-4.45-.29a7.86,7.86,0,0,0-1.51.22l.94-1.26.36.07c-.36-1.33-.7-2.66-1.1-4-.27-.86,0-1.33.86-1.45-.28.82,0,1.29.88,1.38.39,0,.78,0,1.18,0l-1.15,1.91,2.28.62a5,5,0,0,0,.51.94c.37.47.8.89,1.21,1.33Z"/><path class="cls-3" d="M88.39,53.88c-.11.5-.19,1-.32,1.51-.31,1.23-.78,1.51-1.95,1.15-1.44-.44-1.8-1.58-1.83-2.93l-.86-.2c.18-.53.52-.43,1-.33C85.71,53.39,87.05,53.62,88.39,53.88Z"/><path class="cls-3" d="M82.12,53.49l-1.48.29C81.3,52.66,81.5,52.62,82.12,53.49Z"/><path class="cls-3" d="M77.94,54.36l-.71-.14Z"/><path class="cls-6" d="M93.3,46.91A5.88,5.88,0,0,0,92,47c-.31.08-.57.4-.85.62l-.94.14.1-1.09C91.35,46.64,92.36,46.22,93.3,46.91Z"/><path class="cls-4" d="M92.63,51.19l2.76-.45a1.3,1.3,0,0,0,.32.14,2.41,2.41,0,0,1,2.07,1.94c-.2.23-.37.61-.61.67a9.82,9.82,0,0,1-2,.27,2.25,2.25,0,0,1-.8-.3c-.41-.44-.84-.86-1.21-1.33A5,5,0,0,1,92.63,51.19Z"/><path class="cls-7" d="M95.15,61.18,95,60.93l.06-2.83h0c.84.06,1.7-.15,2.48.49a1.38,1.38,0,0,1,.6,1.48c-.12.62-.59.76-1.16.81a7.08,7.08,0,0,0-1.28.33Z"/><path class="cls-3" d="M95.15,61.18l.55,0,1.39.6L96.44,63h-1Z"/><path class="cls-5" d="M55.19,7.74a10.43,10.43,0,0,1-1.27-.4,11.18,11.18,0,0,1-1.18-.71c1.24-.38,1.24-.38,3.2.08Z"/><path class="cls-7" d="M61.49,6.35v0Z"/><path class="cls-5" d="M54.28,90.69c0-.1.07-.25.14-.28s.24,0,.26.12-.07.19-.11.28Z"/><path class="cls-3" d="M24.55,23.71c-.31-3.56.93-6.77,1-10.11a2.2,2.2,0,0,1,2.55.34c-.18,2.13-.42,4.19-.53,6.25S27,22.91,24.55,23.71Z"/><path class="cls-2" d="M20.92,27.64h-1c.11-.47.23-.94.4-1.64l-1.28.49c-.1-.29-.21-.58-.31-.88-.78-.17-1.64,1.05-2.38-.11a6.23,6.23,0,0,1,1.33-.25c3.85.11,7.69.25,11.54.4a1.34,1.34,0,0,1,.45.22c-.81.35-1.39,1.08-2.48,1-.92-.09-2,.58-2.82.38s-1.55.55-2.37.39c-.1-.29-.21-.57-.32-.86Z"/><path class="cls-5" d="M16.36,25.5c.74,1.16,1.6-.06,2.38.11.1.3.21.59.31.88L20.33,26c-.17.7-.29,1.17-.4,1.64-1.47-.11-2.95-.24-4.42-.31-.55,0-.75-.17-.51-.7l0-1Z"/><path class="cls-2" d="M15,25.67l0,1h-.69L14,26Z"/><path class="cls-7" d="M10.44,26.33l-.29.51-.38-.59Z"/><path class="cls-5" d="M20.92,27.64l.77-.87c.11.29.22.57.32.86Z"/><path class="cls-2" d="M95.06,58.1,95,60.93c-5.5,0-11,0-16.49-.06a12.49,12.49,0,0,1-2-.32,1.06,1.06,0,0,0-.39-1.6c-.49-.35-.93-.77-1.39-1.16,1.67.08,3.34.18,5,.24,3.54.14,7.08.32,10.62.38C91.93,58.44,93.5,58.21,95.06,58.1Z"/><path class="cls-3" d="M56.65,28.72c-.06.19-.24.45-.17.55.35.51.76,1,1.12,1.43-.16.21-.24.38-.3.37a11.17,11.17,0,0,0-4.06.46,23.87,23.87,0,0,1-7.4.29c-.36-.46-.73-.92-1.09-1.39a4.4,4.4,0,0,0-.41-.31c-1.87-1.17-1.55-1-3.2-.05l-1.36-1c.21-.19.43-.55.64-.55,1.48,0,3,.15,4.44.15,1,0,2-.17,2.92-.23a4.76,4.76,0,0,1,1.19.12c.51.1,1.14.51,1.49.33,1.63-.82,3.53.12,5.08-.89l1,0h0Z"/><path class="cls-4" d="M56.58,28l-1,0c-.19-.55-.38-1.11-.61-1.76a5.22,5.22,0,0,1,1.23-.6,1.18,1.18,0,0,0,.91-1.46c-.3-2.09-.71-4.18-1.08-6.27,0-.47,0-.94.07-1.41.5-.18.68-.41.11-.75,0-.21,0-.43,0-.65A7.12,7.12,0,0,0,57,14c.28-.6.57-1.1,1.34-1a7,7,0,0,1,.45,4.57,6.94,6.94,0,0,0-.16,2.89,14.36,14.36,0,0,1-.28,3.43c-.07.72-.13,1.44-.22,2.37h1.62c.75,1.26-.21,2.43-.09,3.75-.93,0-1.67,0-2.11-.94-.1-.21-.58-.23-.89-.35,0-.23,0-.46-.07-.69A.26.26,0,0,0,56.7,28s0-.06,0-.09Z"/><path class="cls-4" d="M34.22,25.93,36,25.64c0,.65-.07,1.36.72,1.69h0c-.07.38-.14.75-.23,1.25Z"/><path class="cls-4" d="M36.7,25.72l.65-.07a6.61,6.61,0,0,1,.33,1.13c.11.95-.4.86-1,.54h0Z"/><path class="cls-6" d="M31.74,25.37c.42-.79,1.16-.39,1.77-.48l.09.95C33,25.81,32.15,26.35,31.74,25.37Z"/><path class="cls-6" d="M31.21,25.63l.27-.3Z"/><path class="cls-5" d="M37.56,13.6c1.91-.44,2-.28,2.75,1.35a8.41,8.41,0,0,1-.35,8c-.11.2-.17.48-.34.59-.36.25-.82.61-1.17.54s-.6-.64-.67-1a9.42,9.42,0,0,1-.07-2.25A28.27,28.27,0,0,0,37.56,13.6Z"/><path class="cls-7" d="M36.7,25.72l0,1.61c-.79-.33-.69-1-.72-1.69Z"/><path class="cls-7" d="M56.17,15.77c.57.34.39.57-.11.75C56.1,16.27,56.13,16,56.17,15.77Z"/><path class="cls-3" d="M49.13,5.9l1.25-.26a4.1,4.1,0,0,1,.09.48c-.4.1-.8.18-1.21.27Z"/><path class="cls-7" d="M91.47,79.39c-.1,1.17-.2,2.34-.29,3.52l-1.92-.8v-3.2Z"/><path class="cls-2" d="M74.37,76.86l.4-1.21c.21.66.31.94.4,1.22Z"/><path class="cls-2" d="M76.2,76.64l.35-.61,0,.58-.16,0Z"/><path class="cls-7" d="M56.58,28l.15-.15s0,.07,0,.09a.26.26,0,0,1-.12.05Z"/></g></svg>