<svg xmlns="http://www.w3.org/2000/svg" viewBox="0 0 100 100"><defs><style>.cls-1{fill:#8d5a58;}.cls-2{fill:#a37978;}.cls-3{fill:#9d716f;}.cls-4{fill:#9b6d6c;}.cls-5{fill:#976866;}.cls-6{fill:#ba9b99;}.cls-7{fill:#b69694;}.cls-8{fill:#b39290;}.cls-9{fill:#c4a9a8;}.cls-10{fill:#936160;}.cls-11{fill:#bd9f9e;}.cls-12{fill:#a7807e;}.cls-13{fill:#ab8685;}.cls-14{fill:#c9b0af;}.cls-15{fill:#cdb6b6;}.cls-16{fill:#b79896;}.cls-17{fill:#91605e;}.cls-18{fill:#cbb3b2;}.cls-19{fill:#9f7473;}.cls-20{fill:#d2bebe;}.cls-21{fill:#986a68;}.cls-22{fill:#c0a3a2;}.cls-23{fill:#c7adac;}</style></defs><g id="Ebene_5" data-name="Ebene 5"><path class="cls-1" d="M25,57.44l-.18-2.15c.35-1.37.71-2.75,1-4.13,0-.13-.15-.29-.17-.45-.18-1.21-.45-2.43.39-3.53.19.36.56.74.53,1.08-.16,1.67.07,2,1.83,2a5.34,5.34,0,0,0,.59-.66c-.72-.88-.09-1.23.59-1.51l-.12-1.44,3,.34c.87-1,2.29-1.19,3.52-1.75.61-.28,1.39-.77,1.55-1.32s-.45-1.2-.81-1.75C36.6,42,36.18,42,35.9,42l-.25-.5c1.49-1.58,1.53-1.81.5-3l-1.75.25-1.25.49c-.17.59-.33,1.17-.5,1.75a10.44,10.44,0,0,1,0,1.12,2.16,2.16,0,0,1-2.49,2.13l-.25-.5-1.74-.25v-.25l-.5-1-2.1.43-.57-.9.15-.29c.78.13,1.63.63,2.11-.59.08-.19.92-.07,1.4-.09.25.13.51.39.74.36A13.64,13.64,0,0,0,31,40.74l-.12-1,.24-.53h.5l.3-.5a2,2,0,0,0,0-.24l5-.94.7.64,1.84,1,1.16.6c.23,1.56.53,3.07,2.25,3.72l.31.45.44-.45h.25c.55.09,1.11.15,1.66.28s1,.28.58,1l-.23.84,1-.34.74-.25h1l.5.5.5.5h.25v2l.25,1.5v.75h-.5a5.17,5.17,0,0,0-2.75,2.5,13.52,13.52,0,0,1-1.51-.66c-.42-.25-.77-.64-1,.16l-1,.61.23.35L44.89,53h0l1.32,2.66c-.11.52-.29,1.46-1.73,1-.29-.1-.89.24-1.13.55a13,13,0,0,0-1.06,2c.91,0,1.61,0,2.32,0a2.67,2.67,0,0,1,.69.23c-.46.91.48,1.15.78,1.7a2.82,2.82,0,0,1,.35,1.71,12.12,12.12,0,0,1-1,2.66c-.29.61-.6,1.46-1.11,1.64a10.77,10.77,0,0,1-2.92.3c-.06,0-.12-.1-.19-.16l.32-.87-.22-.3a13.62,13.62,0,0,0-1.46.8c-.92.67-1.82,1.37-2.68,2.1a3.45,3.45,0,0,0-.79,1c-.17.35-.15.81-.33,1.16-.62,1.16-.91,2.42-2.42,3.12-1.3.6-2.19,2.06-3.26,3.15h-.49l-.74-.69,0,0-.7-.51c-.12-.56-.25-1.12-.37-1.67a6.46,6.46,0,0,0,.29-4.43c-.27-.76-.59-1.68-1.73-1.61h0L26.46,68l.24-2v-.3h0c-.16-.41-.31-.83-.47-1.25a8.7,8.7,0,0,1-.59-5.21c.22-.3.63-.59.62-.89C26.25,57.55,25.66,57.37,25,57.44ZM29,65.84a4.19,4.19,0,0,0-.7.62c-.29.39-.75.84-.73,1.24s.63.66,1,.86a14,14,0,0,0,1.64.58l-.79,3a6.22,6.22,0,0,0,1,.7,5.35,5.35,0,0,0,1.14.22,6.65,6.65,0,0,1,.1-1,2.71,2.71,0,0,1,.44-1c.35-.44.77-.82,1.05-1.12l-.88-2.4-2.67-1a6.26,6.26,0,0,0,.57-2.09,4.49,4.49,0,0,0-.92-1.69c-.33-.52-.71-1-1.06-1.5l-.41.31c.44.56.84,1.16,1.32,1.68.7.77.64,1.37-.33,1.94l-.19-.56c-.07-.19-.13-.38-.26-.74C27.82,65.19,27.82,65.19,29,65.84ZM26.8,55.74c-1.14.47-.79,1-.22,1.38s1.11,1.07.77,1.77c-.71,1.44-.33,1.9,1.18,1.66.07,0,.17.09.23.07.73-.19,1.65,0,2.1-1a2.92,2.92,0,0,0-.69-.1,1.51,1.51,0,0,1-1.87-1.29A9.85,9.85,0,0,0,26.8,55.74Zm18.69-6.22a5.32,5.32,0,0,0-.5.78,4,4,0,0,0,.95.63c.06,0,.43-.4.4-.45A10.14,10.14,0,0,0,45.49,49.52ZM29.49,75l.23.23,1.14-1.07Zm-2-10.7.29-.13L27.3,63l-.41.19ZM26.67,61l-.26.32.91.57.2-.31Zm4.08-11.47c-.23-.12-.37-.25-.48-.23s-.26.23-.24.29a.55.55,0,0,0,.33.27C30.45,49.88,30.56,49.7,30.75,49.53Zm12.57,5c0,.07-.1.16-.08.21s.13.06.2.09.1-.15.08-.2S43.39,54.6,43.32,54.57Z"/><path class="cls-2" d="M29.91,77.41h.49l2.69,2.18.8-.41c.08.58.38,1.25.2,1.73-.45,1.18-1.46,2.22-.35,3.56.12.15,0,.56-.07.78-.27.55-.62,1.07-.94,1.6l.33,0c.33,1.66.71,3.32,1,5,.17,1,.42,1.18,1.35.64l1,.08.27.32.26-.32.75.14c.73.47,1.49.92,2.2,1.41s1,.19,1-.57l1.46.08a4.31,4.31,0,0,0,3.16.88,6.84,6.84,0,0,1,2.59,0,9.18,9.18,0,0,0,5.52-1c0,.37,0,.75,0,1.12s0,.84.06,1.26c.54-.14,1.31-.11,1.57-.46.73-1,1.23-.69,1.65,0A6.92,6.92,0,0,1,59,94.26c1.48-.19,1.5-.08.86-1.47-1,.6-1.67.65-1.86,0-.46-1.55,1.26-1.18,1.76-1.89-.73-1.55-.61-1.75,1.11-1.76h.5c.05.42.09.84.15,1.26.11.91.24,1.82.35,2.73l0,.75-.06,1.27c-.37.23-.86.37-1.07.69-.73,1.1-1.64,1.5-2.4,1.26L55,99.31l-.89.19c0-.33-.1-.66-.15-1l-3.85,1.17-.72-.11h-.58l-.67,0c-.52-.75-.89-.16-1.29.14l-2.45-.16c-.15-.11-.32-.33-.45-.3-.84.14-1.72.62-2.3-.47l-.79.53-2.2-.58a8.13,8.13,0,0,1-1.28-.56c-1.49-.94-2.91-2-4.43-2.86s-3.5-1.32-3.16-3.8c.05-.34-.55-.77-.84-1.16,0-.37.07-.74.11-1.11a8.79,8.79,0,0,0,.52-1.43c.05-.33-.18-.7-.17-1.05,0-.79.15-1.58.14-2.37,0-.14-.46-.27-.7-.4L29,81.61l.54-.57-.75.16c0-1.18,0-2.36,0-3.54l.4-.33Z"/><path class="cls-3" d="M53.88,7.85l.91-.14c.24,0,.52.2.72.13a4.57,4.57,0,0,1,3.68-.06c.94.41,2.26-.78,3.48-.06.09,0,.3-.12.45-.19,1.05,1,2.19.77,3.36.26,0,0,.08,0,.12,0v.74l.25.76c-.07.8.5.74,1,.74h.18l.09.45-.41,2.83,1.9.67.21,0,1.8,3,0,1.29h0l-1.89-.19c-.33-2.25-1-3-2.76-2.8-1.34.13-2.62.35-3.3,1.77-.14.29-.51.47-.87.78-.47-1.2-1.22-2.25-1.2-3.29a1.94,1.94,0,0,1,2.39-2l-.69-1.18c-.41.26-.73.63-1.07.66-.93.07-1.22.5-1.42,1.38a7.35,7.35,0,0,1-1.19,2l-.43-.17a4,4,0,0,0,.11-1.08c0-.29-.31-.78-.44-.77a18.81,18.81,0,0,0-2.06.42l-1,.24a12.27,12.27,0,0,1,.43-1.15c.08-.17.33-.27.41-.45a5.79,5.79,0,0,0,.29-.92c-.33,0-.73,0-1,.16-.84.6-1.18.31-1.32-.59a4.56,4.56,0,0,0-.35-.73c-.24.46-.53.75-.49,1a14.4,14.4,0,0,0,.55,1.84c-1.13,0-1.17.69-1,1.58a1.06,1.06,0,0,1-.39.93,1.16,1.16,0,0,1-1-.09c-.15-.1,0-.6,0-1.26a5.27,5.27,0,0,0-1.73.36c-1,.61-1.85.74-2.75-.2a3.51,3.51,0,0,0-4.08-1.07A2.58,2.58,0,0,1,40.4,11.8l1.22-.57a5.73,5.73,0,0,1,1.23-.89c1.52-.55,3-1.29,4.74-.53.31.14.88-.29,1.33-.46l1.47-.07L51.88,9Z"/><path class="cls-4" d="M31.15,39.24l-.24.53-2,.47c-1.1.29-1.55-.46-2-1.24,0-.66.09-1.31.13-2s0-1.19,0-1.79.17-1,.26-1.45v-.58l-.18-1a9.39,9.39,0,0,1,0-3,5.18,5.18,0,0,0-.65-4.38c-.2-.8-.39-1.61-.58-2.42l.19-.7h0l2-2.07c-.26-.41-.92-1-.85-1.41.26-1.37.29-2.83,1.22-4,.24-.33,0-1,0-1.51a6.62,6.62,0,0,1,1.63-.49c1.55-.06,3.1,0,4.66,0a3.63,3.63,0,0,1-1.2,2.87,2.45,2.45,0,0,0-.55,1.17c-.32,1-.59,2.1-.89,3.18A7.09,7.09,0,0,0,31,19.32c-.18,0-.39.27-.47.46s.2.32.35.42c.62.42,1.26.82,2.08,1.34l.93-.27L33.15,23l.23.5V24l-.48.25c-.74-.1-.78.41-.8.94l-.7.32-1.11,0,.33.46.47.52.32,3.2,0,.27c0,.83,0,1.66,0,2.49V33l.45.63-.65.39-.5.38.41.36L31.16,36l-.47.65.79.32,0,.79-1.25.5ZM29,35.36c-.2-.14-.32-.3-.44-.3s-.23.17-.34.26a1.4,1.4,0,0,0,.37.36C28.64,35.7,28.8,35.51,29,35.36Z"/><path class="cls-3" d="M61.37,89.19h-.5c-1.72,0-1.84.21-1.11,1.76-.5.71-2.22.34-1.76,1.89.19.61.9.56,1.86,0,.64,1.39.62,1.28-.86,1.47a6.92,6.92,0,0,0-2.09,1.07c-.42-.69-.92-1-1.65,0-.26.35-1,.32-1.57.46,0-.42,0-.84-.06-1.26s0-.75,0-1.12l1.46-1c.52,0,.82,1.45,1.48.23l-.44-1.21a4.64,4.64,0,0,0,.53-1c.26-1.15.43-2.32.67-3.48.38-1.85.82-3.69,1.17-5.54.15-.8.16-1.62.23-2.43,1.32-.36,1.64-1.46,1.8-2.59a20.6,20.6,0,0,0,0-2.51l-.92-.14-.82-.47-1.37.26c-.8-.49-.19-1-.07-1.55a.94.94,0,0,0-.23-.77c-.11-.1-.57,0-.7.16a2.86,2.86,0,0,0-.31.88c-1.17-.17-.55-.93-.49-1.5l2-1,1.45,1.44-1,.87,1.26.19a.29.29,0,0,0,.07.23c-.14,0-.26,0-.28.06a1.21,1.21,0,0,0-.09.34,3,3,0,0,0,.37-.4l.68-.23a2.58,2.58,0,0,1,2.64.05c.21.11.55.25.69.16,1-.66,1.82-.25,2.66.28,0,.17,0,.34,0,.51L65.38,75l-.19.27L61.9,74a1.9,1.9,0,0,0,.07.59c.57,1,1.33,1.88.06,3-.28.23,0,1.08,0,1.64s.08,1.33.12,2l0,1.23c-.23.69-.53,1.37-.69,2.08a1.42,1.42,0,0,0,1.43,1.74l.09.34-1.72.49.7.92Z"/><path class="cls-2" d="M75.62,47.49l0,1c0,.41,0,.82,0,1.24-.1,1.18-.19,2.37-.32,3.56-.06.64-.19,1.27-.29,1.9l-.26.65c-.23,1.37-.47,2.74-.71,4.1,0,.18-.11.35-.17.52l-.15.72c-.58.91-2.4.89-2,2.42l-1.87,2.2.8.9-1.77,2c-.1-.35-.36-1-.27-1,1.12-.7.19-2.09,1-2.88.06-.06,0-.32-.09-.46-.31-.63-.63-1.25-.95-1.87l.45,0A6.2,6.2,0,0,0,70,61a7.14,7.14,0,0,0,.11-2.17A7.81,7.81,0,0,0,69.79,57c-.26-.91.18-2.45.85-2.75,1.42-.65,1.49-1,.57-2.09a18,18,0,0,0,.64-1.69,11.16,11.16,0,0,1,.72-3c.6-1-.23-1.37-.58-1.89-.16-.23-.8-.13-1.29-.19l-.33-1.07-.77.6-.24-.74c.42,0,.88,0,.47-.67a2.23,2.23,0,0,1-.18-.78l2.89-2.3c.18.36.41.85.68,1.32a1.58,1.58,0,0,0,.55.64,5.37,5.37,0,0,0,1.28.18c-.89,1-1,1.81-.24,2.66a.52.52,0,0,1,0,.47C74.28,46.73,75,47.09,75.62,47.49Z"/><path class="cls-5" d="M69.6,45l.77-.6.33,1.07c.49.06,1.13,0,1.29.19.35.52,1.18.87.58,1.89a11.16,11.16,0,0,0-.72,3,18,18,0,0,1-.64,1.69c.92,1.12.85,1.44-.57,2.09-.67.3-1.11,1.84-.85,2.75a7.81,7.81,0,0,1,.31,1.79A7.14,7.14,0,0,1,70,61a6.2,6.2,0,0,1-1,1.57l-.45,0c.32.62.64,1.24.95,1.87.07.14.15.4.09.46-.81.79.12,2.18-1,2.88-.09.05.17.66.27,1s.16.64.25,1l-.21.78V71l0,.25-1,.27-1.51-1-.75-.75C64,68.49,64,67.17,65.06,65.5c.27-.44.92-1.51.06-2.29V63c.36-1,.66-1.94,1.11-2.85.3-.64.41-1.55,1.45-1.58.15,0,.29-.31.53-.58-1.39-.34-1.08-1.35-1.1-2.23l.25-.5L67.61,54v-.75l0-.49.48-.51c.25-.75.49-1.5.74-2.25l.25-.75C68.94,47.78,70.17,46.48,69.6,45Z"/><path class="cls-3" d="M76,19.76c-.2.71-.39,1.42-.59,2.13-.06.2-.24.45-.18.57.85,1.53-.27,2.69-.64,4a9.88,9.88,0,0,0,0,2.77c-.74.37-1.45.78-2.21,1.09A1.19,1.19,0,0,1,70.62,29c0-.38.13-.76.2-1.22l-2,.43L69.17,27h.45l.22-.5a7.61,7.61,0,0,1,.25-1.19c.31-.78.55-1.2-.76-1.2-.69,0-1.47-1-2-1.7-.18-.23.2-.92.33-1.4.41-.3,1.16-.6,1.17-.92,0-1.12.57-1.27,1.4-1s1.23-.06,1.41-.83h0l3.25,1.24Z"/><path class="cls-6" d="M75.62,47.49c-.66-.4-1.34-.76-.82-1.73a.52.52,0,0,0,0-.47c-.77-.85-.65-1.69.24-2.66a5.37,5.37,0,0,1-1.28-.18,1.58,1.58,0,0,1-.55-.64c-.27-.47-.5-1-.68-1.32l-2.89,2.3c0-.43,0-.86-.05-1.29a1.65,1.65,0,0,0,1.24-2.27,4.63,4.63,0,0,1-1.26.37,5,5,0,0,1-1.22-.32c-.08,0-.2.12-.3.19l1-4,2,.67V33.9l1.56.9-1,4.92,1.13-1.39c.46.41.74.85,1.13,1,1.36.49,1.64.93,1.57,2.4,0,.8.2,1.62.21,2.43C75.73,45.25,75.65,46.37,75.62,47.49ZM70.39,36.7,70,36.61l-.28,1.25.38.09Z"/><path class="cls-7" d="M63.12,7.53c-.15.07-.36.24-.45.19-1.22-.72-2.54.47-3.48.06a4.57,4.57,0,0,0-3.68.06c-.2.07-.48-.08-.72-.13l6.78-4.46.78-.49,2-1.24,1,1c-1.31.3.44,1-.23,1.4a2.75,2.75,0,0,1-.3-.08c-.38-.14-.75-.3-1.13-.45-.11.34-.39.89-.3,1a4.29,4.29,0,0,0,1.15.44l1.2.41a4.56,4.56,0,0,1-.86,1.1c-.49.34-1.07.68-1.66,0-.13-.15-.49-.09-.92-.16Z"/><path class="cls-8" d="M66.6,8.53V7.79c0-.57-.18-1.23.05-1.68.63-1.24-.15-2.39,0-3.58.21-.31.36-.72.65-.9A16.37,16.37,0,0,1,69.11.78c.43.19,1.24.41,1.23.58,0,.72,1,1.41,0,2.21a2,2,0,0,0-.66,1.6A3.9,3.9,0,0,1,68.34,9l-.47,1c-.52,0-1.09.06-1-.74C66.77,9,66.69,8.78,66.6,8.53Z"/><path class="cls-9" d="M34.91,12.26c-1.56,0-3.11-.06-4.66,0a6.62,6.62,0,0,0-1.63.49l-1.23.81c0-1.26,1-1.85,1.83-2.48,1.38-1,3.05-1.11,4.68-1.28s3.18-.29,4.76-.42c.17.8.33,1.6.5,2.41C37.74,12,36.23,11.29,34.91,12.26Z"/><path class="cls-10" d="M25,41.77l.57.9,2.1-.43.5,1v.25c.05.5-.08,1.18.19,1.47,1.1,1.17.4,1.65-.69,2,.26,1.13.5,2.19.75,3.24-1.76,0-2-.3-1.83-2,0-.34-.34-.72-.53-1.08-.31-1-.72-1.84-2-1.51a11.6,11.6,0,0,1,.14-2A13.11,13.11,0,0,1,25,41.77Z"/><path class="cls-11" d="M29,90.33c.29.39.89.82.84,1.16C29.48,94,31.43,94.4,33,95.29s2.94,1.92,4.43,2.86a8.13,8.13,0,0,0,1.28.56,31.66,31.66,0,0,1-3.24-.51A32.09,32.09,0,0,0,31.8,97a3.19,3.19,0,0,1-2.9-2.93A18.44,18.44,0,0,1,29,90.33Z"/><path class="cls-12" d="M68.84,28.23l2-.43c-.07.46-.16.84-.2,1.22a1.19,1.19,0,0,0,1.73,1.32c.76-.31,1.47-.72,2.21-1.09-.31,1-.61,2-.92,3h-.78c-.77-.28-1.63-.9-2,.48l-1,.25-.46-.21-.27-3.46-1-.32.48-.78Z"/><path class="cls-13" d="M62.13,81.21c0-.67-.09-1.34-.12-2s-.26-1.41,0-1.64c1.27-1.1.51-2-.06-3A1.9,1.9,0,0,1,61.9,74l3.29,1.24c-.1.82-.21,1.64-.31,2.46l-.17,1.09c-.06.55-.11,1.1-.16,1.64l-1.23-1a6.68,6.68,0,0,1-.47,1A8,8,0,0,1,62.13,81.21Z"/><path class="cls-13" d="M27.39,13.56l1.23-.81c0,.51.2,1.18,0,1.51-.93,1.21-1,2.67-1.22,4-.07.43.59,1,.85,1.41l-2,2.07a28,28,0,0,1-.43-3.4A8,8,0,0,1,27.39,13.56Z"/><path class="cls-9" d="M55,99.31l3.27-2.16c.76.24,1.67-.16,2.4-1.26.21-.32.7-.46,1.07-.69-.19,1-.1,2.25-.64,3a4.22,4.22,0,0,1-2.63,1.56A12.43,12.43,0,0,1,55,99.31Z"/><path class="cls-11" d="M24,45.67c1.3-.33,1.71.53,2,1.51-.84,1.1-.57,2.32-.39,3.53,0,.16.2.32.17.45-.33,1.38-.69,2.76-1,4.13a5.5,5.5,0,0,1-.27-1C24.34,51.4,24.19,48.54,24,45.67Z"/><path class="cls-7" d="M69.1,69.68c-.09-.32-.17-.64-.25-1l1.77-2-.8-.9,1.87-2.2c-.42-1.53,1.4-1.51,2-2.42a27.09,27.09,0,0,1-.91,3.6,10.93,10.93,0,0,1-1.58,2.55C70.55,68.16,69.79,68.9,69.1,69.68Z"/><path class="cls-9" d="M69.84,14l-.21,0c.07-.51.14-1,.23-1.71l-1.46.93.2-2.4c2.32.29,4.52,2.38,4.45,4.23-1,.41-1.9.65-2.47-.66C70.5,14.2,70.1,14.15,69.84,14Z"/><path class="cls-6" d="M69.84,14c.26.12.66.17.74.35.57,1.31,1.49,1.07,2.47.66.34.41.3,1,1.12,1.2a1.86,1.86,0,0,1,1.16,2.52A6.25,6.25,0,0,1,71.64,17Z"/><path class="cls-14" d="M72.86,32.26h.78c-.13.92.44,2.12-1,2.54l-1.56-.9v2.26l-2-.67V33.25l.76-.26,1-.25a9.65,9.65,0,0,0,1.42-.07C72.48,32.64,72.67,32.41,72.86,32.26Z"/><path class="cls-8" d="M48.92,9.35c-.45.17-1,.6-1.33.46-1.71-.76-3.22,0-4.74.53a5.73,5.73,0,0,0-1.23.89c-.45-1.26.86-1.55,1.3-2.33.49-.27,1-.54,1.48-.8L44.89,8h.75l.58.14h.66Z"/><path class="cls-13" d="M61.91,88l-.7-.92,1.72-.49-.09-.34a1.42,1.42,0,0,1-1.43-1.74c.16-.71.46-1.39.69-2.08l1.06,1,1.11-1.31c-.44,1.78-.84,3.57-1.35,5.32C62.85,87.72,62.26,87.83,61.91,88Z"/><path class="cls-11" d="M26.64,68.48c1.14-.07,1.46.85,1.73,1.61a6.46,6.46,0,0,1-.29,4.43,13,13,0,0,1-.88-2.17C26.93,71.08,26.82,69.77,26.64,68.48Z"/><path class="cls-8" d="M26.56,24.91a5.18,5.18,0,0,1,.65,4.38,9.39,9.39,0,0,0,0,3A3.65,3.65,0,0,1,26,28.88C26.16,27.55,26.38,26.23,26.56,24.91Z"/><path class="cls-9" d="M67.87,71.48l1-.27c-.36,1-.7,2.08-1.11,3.1-.49,1.19-1.56.51-2.37.66.25-.58.49-1.17.74-1.76Z"/><path class="cls-15" d="M48.92,9.35l-2-1.15,7-.35L51.88,9,50.81,8.3l-.42,1Z"/><path class="cls-9" d="M69.11.78a16.37,16.37,0,0,0-1.85.85c-.29.18-.44.59-.65.9H65.38l-1-1C65.61,1,66.88.43,68.19,0,68.39-.06,68.8.51,69.11.78Z"/><path class="cls-16" d="M64.27,82.14l-1.11,1.31-1.06-1,0-1.23a8,8,0,0,0,.72-.84,6.68,6.68,0,0,0,.47-1l1.23,1C64.45,81,64.36,81.57,64.27,82.14Z"/><path class="cls-9" d="M42.92,8.9c-.44.78-1.75,1.07-1.3,2.33l-1.22.57-.49,0a2.32,2.32,0,0,0-.53-2.38Z"/><path class="cls-1" d="M28.88,84c.24.13.7.26.7.4,0,.79-.12,1.58-.14,2.37,0,.35.22.72.17,1.05a8.79,8.79,0,0,1-.52,1.43Z"/><path class="cls-8" d="M26.94,39c.43.78.88,1.53,2,1.24l-.27.56c-.48,0-1.32-.1-1.4.09-.48,1.22-1.33.72-2.11.59Z"/><path class="cls-11" d="M50.14,99.62,54,98.45c0,.39.1.72.15,1C52.83,100.42,51.48,99.83,50.14,99.62Z"/><path class="cls-7" d="M68.6,10.81l-.2,2.4,1.46-.93c-.09.68-.16,1.2-.23,1.71l-1.9-.67.41-2.83Z"/><path class="cls-12" d="M71.64,17a6.25,6.25,0,0,0,3.69,1.78c-.06.17-.11.34-.17.51l-.3.24-3.25-1.24Z"/><path class="cls-7" d="M39.38,9.38a2.32,2.32,0,0,1,.53,2.38l-.75,0c-.17-.81-.33-1.61-.5-2.41Z"/><path class="cls-6" d="M25,57.44c.69-.07,1.28.11,1.28.89,0,.3-.4.59-.62.89Z"/><path class="cls-11" d="M40.89,99.29l.79-.53c.58,1.09,1.46.61,2.3.47.13,0,.3.19.45.3A4.15,4.15,0,0,1,40.89,99.29Z"/><path class="cls-8" d="M27.11,35.24c0,.6,0,1.19,0,1.79C27.08,36.43,27.1,35.84,27.11,35.24Z"/><path class="cls-1" d="M29.17,77.33l-.4.33c-.08-.39-.17-.77-.25-1.15l.63.19,0,0Z"/><path class="cls-11" d="M46.88,99.69c.4-.3.77-.89,1.29-.14Z"/><path class="cls-11" d="M26.22,64.43c.16.42.31.84.47,1.25Z"/><path class="cls-6" d="M75.57,49.73v0Z"/><path class="cls-6" d="M74.86,19.51l.3-.24.81.49Z"/><path class="cls-1" d="M28.76,81.2l.75-.16-.54.57Z"/><path class="cls-9" d="M64.71,78.79c.05-.36.11-.73.17-1.09C64.82,78.06,64.76,78.43,64.71,78.79Z"/><path class="cls-13" d="M67.87,10l.47-1c-.09.34-.19.67-.29,1h-.18Z"/><path class="cls-9" d="M62.35,2.76l-.78.49Z"/><path class="cls-13" d="M26.17,21.79l-.19.7Z"/><path class="cls-9" d="M61.83,93.93l0-.75Z"/><path class="cls-2" d="M29.15,76.7l-.63-.19a1.76,1.76,0,0,1-.09-.2.25.25,0,0,1,0-.12Z"/><path class="cls-9" d="M68.88,71v0Z"/><path class="cls-11" d="M26.46,68l.18.52Z"/><path class="cls-15" d="M44.89,8l-.49.06Z"/><path class="cls-8" d="M27.37,33.21v0Z"/><path class="cls-11" d="M48.84,99.52h0Z"/><path class="cls-15" d="M46.22,8.19l-.58-.14Z"/><path class="cls-7" d="M73.82,60.46c.06-.17.12-.34.17-.52C73.94,60.12,73.88,60.29,73.82,60.46Z"/><path class="cls-6" d="M74.7,55.84l.26-.65Z"/><path class="cls-11" d="M26.7,65.69v0Z"/><path class="cls-10" d="M50.13,49.48,49.88,48c.18-.66,1-1.33,0-2h-.25l-.5-.5-.5-.5L48,43.48,47.63,45l-.74.25-.76-.5c.41-.69-.08-.86-.58-1s-1.11-.19-1.66-.28l.14-.9-.4-.16-.49,1.06h-.25c-1.72-.65-2-2.16-2.25-3.72.28-.19.56-.38.83-.59s.52-.59.73-.56c.91.15,1.79.42,2.69.65l.43.43.32-.66a3.09,3.09,0,0,1,3,0c0,.58-.08,1.24.86,1.18l-.36-1.3,1.75.37,1.76,1.49c-.09.5-.19,1-.28,1.51l-1,.32,2.58,2.37.24-.44.25.25L54,47.1l.27.08-.76.72-1.28-.35-.17.49a5.29,5.29,0,0,0,2,.61c.53-.06,1-.71,1.49-1.09l-.39,0-.51-2c.42.52.8,1.07,1.26,1.55a5.87,5.87,0,0,0,1,.7V48l-.72,2.79c.87.35,1.89.44,2.12.9a12.13,12.13,0,0,1,.6,3c-.61,0-1.47-.8-1.42.78,0,.54-.5,1.21-.23,1.93,0,0-.24.16-.39.26l-.68-.95c-.82.15-1.42.23-1.18,1.4.12.58-.38,1.55-1.2,1.29L53,57.82l-1.38,1a4.51,4.51,0,0,1-1.15.84c-.8.26-.7.67-.36,1.19.13.19.48.34.47.5-.07,1.4.84,1.94,1.9,2.23l-1.34,3.43c-.1.09-.44.27-.56.54a6.34,6.34,0,0,0-.37,1.56.87.87,0,0,0,.22.63.52.52,0,0,0,.52-.07c.16-.2.35-.58.26-.71-.57-.85,0-1,.55-1.26l.87.72c.43.52-.26,1.66,1,1.75.06,1.05-.6,1.48-1.47,1.73l.13-.9c-1.46-.06-1.78.28-2.38,2.42l-.75-.26V71.79H46.07l-1.33-2.93c1.09-.25,1.9-.71,1.1-1.76.89-1.68,2.42-2.91,1.67-5,1.93-1.36,2.53-5.41,1-7-.61.67-1.23.63-1.34-.19-.21-1.43-1.33-1.59-2.32-2h0l-.5-.75c.21-.8.56-.41,1-.16a13.52,13.52,0,0,0,1.51.66,4.18,4.18,0,0,0,2.75-2.5h.5c.68,0,1.46.15,1.65-.94Zm-.66,15.57-.3,0L48.8,66.1a6,6,0,0,0-1.36,1,11.39,11.39,0,0,0-.95,1.82,2.3,2.3,0,0,0,.92.52c.22,0,.54-.45.77-.75.58-.77,1.14-1.56,1.79-2.46Zm4.36-12c.48,1.37.37,2.74,2,2.78.19,0,.39-.39.76-.79-1.22-.12-2.17-.18-1.82-1.52A6.13,6.13,0,0,0,53.83,53.08Zm1.92-2.6-1.62.39.57,1.58.3-.07Zm-3.64,4.23c-.5-.23-.77-.46-1-.45s-.46.29-.69.45c.21.25.42.68.64.68S51.6,55.06,52.11,54.71Zm-3.87-1.77-.64.23.66,1.54.55-.2Zm4-7.66,0-.41a2.53,2.53,0,0,0-.66-.11,1.25,1.25,0,0,0-.47.27l0,.31Zm-1.75,7.23-.09.45a5.93,5.93,0,0,0,.73.16,2.47,2.47,0,0,0,.12-.41ZM52,56.68l.43-.17L52,55.77l-.32.16ZM43.54,39.87l-.19,0v1l.19,0Zm5.17,2.77c-.18-.16-.29-.32-.4-.33s-.24.14-.36.22a1.27,1.27,0,0,0,.33.39S48.51,42.78,48.71,42.64Zm-2-2,0-.28-.7.06,0,.31Zm5.42,12.6c-.12.19-.27.32-.24.42a.44.44,0,0,0,.29.3c.09,0,.29-.19.28-.27S52.34,53.41,52.18,53.2ZM51,42.12l0-.33-.73.11,0,.22Zm5.26,11,0-.34-.74.11,0,.23Zm-3.37-.82c-.1-.08-.18-.2-.25-.19s-.21.17-.2.21a1.39,1.39,0,0,0,.26.29Zm-1.6-12.13-.21-.09c0,.07-.1.16-.08.21s.13.06.2.09Zm-5.71,1.17c0,.07-.1.15-.08.2s.13.07.2.1.1-.16.08-.21S45.64,41.37,45.57,41.34Zm3.22,29.55c-.07,0-.15-.09-.2-.07s-.07.12-.1.19.16.1.21.08S48.76,71,48.79,70.89Zm.69-.36c.07,0,.15.1.2.08s.07-.13.1-.2-.16-.1-.21-.08S49.51,70.46,49.48,70.53Zm.06-6.38c-.07,0-.16-.1-.21-.08s-.06.13-.09.19.15.1.2.09S49.51,64.22,49.54,64.15Zm.52-1.34c0,.07-.1.16-.08.21s.13.06.2.09.1-.15.08-.2S50.13,62.84,50.06,62.81Zm-.52-1c0-.07,0-.18-.09-.2s-.14,0-.21.07,0,.18.09.2S49.47,61.82,49.54,61.79Zm2.23-15.62-.2-.09c0,.07-.1.15-.08.2s.13.07.19.1Zm-.55,11.62c.07,0,.16.1.21.08s.06-.13.09-.2-.15-.1-.2-.08S51.25,57.72,51.22,57.79Z"/><path class="cls-17" d="M44.89,53c1,.4,2.11.56,2.32,2,.11.82.73.86,1.34.19,1.49,1.55.89,5.6-1,7,.75,2.07-.78,3.3-1.67,5,.8,1.05,0,1.51-1.1,1.76l1.33,2.93h3.06V73.2L47.88,73c0-.7-.33-.93-.91-.64a13.26,13.26,0,0,0-1.54,1.07l.1.24,1.36-.17c-.19.24-.35.5-.56.72s-.47.38-.7.57l-.49,0-3-1.16c-.38-.7-2.3-.56-2.83.2l1.08.17a5.41,5.41,0,0,0-.88.5c-.33.28-.59.63-.89.94-1.17.3-2.28.66-2.4,2.16a2.12,2.12,0,0,1-.32.66l-.74.5-.5.22-.76.27-.8.41L30.4,77.42c1.07-1.09,2-2.55,3.26-3.15,1.51-.7,1.8-2,2.42-3.12.18-.35.16-.81.33-1.16a3.45,3.45,0,0,1,.79-1c.86-.73,1.76-1.43,2.68-2.1a13.62,13.62,0,0,1,1.46-.8l.22.3-.32.87c.07.06.13.16.19.16a10.77,10.77,0,0,0,2.92-.3c.51-.18.82-1,1.11-1.64a12.12,12.12,0,0,0,1-2.66,2.82,2.82,0,0,0-.35-1.71c-.3-.55-1.24-.79-.78-1.7a2.67,2.67,0,0,0-.69-.23c-.71,0-1.41,0-2.32,0a13,13,0,0,1,1.06-2c.24-.31.84-.65,1.13-.55,1.44.5,1.62-.44,1.73-1Zm-5.35,17.6c1.72,1.16,2.85.42,3.48-2-.7,0-1.69-.52-1.8.56S40.62,70.45,39.54,70.58Zm.64-2.94c-.11.22-.24.36-.22.47s.2.21.31.31a1.71,1.71,0,0,0,.29-.43C40.57,67.93,40.37,67.81,40.18,67.64ZM45,73.07v-.23h-.73v.23ZM47,57.2l-.27-.36c-.08.06-.24.14-.23.18a.58.58,0,0,0,.21.32S46.84,57.25,47,57.2ZM43.48,73.27c.07,0,.16.1.21.08s.06-.13.09-.19-.15-.1-.2-.08S43.51,73.2,43.48,73.27Z"/><path class="cls-17" d="M28.41,50.23c-.25-1-.49-2.11-.75-3.24,1.09-.38,1.79-.86.69-2-.27-.29-.14-1-.19-1.47l1.74.25-1.18,1,1.22.78.21-1.31a2.16,2.16,0,0,0,2.49-2.13,10.44,10.44,0,0,0,0-1.12c1.31.43.72,1.36.53,2.14a6.21,6.21,0,0,1-.6,1.22l1.89.36L35.9,42c.28,0,.7,0,.81.15.36.55.94,1.28.81,1.75s-.94,1-1.55,1.32c-1.23.56-2.65.74-3.52,1.75l-3-.34.12,1.44c-.68.28-1.31.63-.59,1.51A5.34,5.34,0,0,1,28.41,50.23Z"/><path class="cls-17" d="M29,65.84c-1.22-.65-1.22-.65-.66-2,.13.36.19.55.26.74l.19.56c1-.57,1-1.17.33-1.94-.48-.52-.88-1.12-1.32-1.68l.41-.31c.35.5.73,1,1.06,1.5a4.49,4.49,0,0,1,.92,1.69,6.26,6.26,0,0,1-.57,2.09l2.67,1,.88,2.4c-.28.3-.7.68-1.05,1.12a2.71,2.71,0,0,0-.44,1,6.65,6.65,0,0,0-.1,1,5.35,5.35,0,0,1-1.14-.22,6.22,6.22,0,0,1-1-.7l.79-3a14,14,0,0,1-1.64-.58c-.41-.2-1-.55-1-.86s.44-.85.73-1.24A4.19,4.19,0,0,1,29,65.84Z"/><path class="cls-18" d="M36.94,37.56a11.37,11.37,0,0,1,1.42-.08c2,.15,4,.4,6,.49.76,0,1.53-.41,2.29-.39,1.74,0,3.48.24,5.22.38l-1,1.28-1.75-.37-.5.12a3.09,3.09,0,0,0-3,0l-.75.23c-.9-.23-1.78-.5-2.69-.65-.21,0-.48.38-.73.56s-.55.4-.83.59l-1.16-.6a1.48,1.48,0,0,0-1.84-1Z"/><path class="cls-10" d="M35.9,42l-1.43,2.72-1.89-.36a6.21,6.21,0,0,0,.6-1.22c.19-.78.78-1.71-.53-2.14.17-.58.33-1.16.5-1.75l1.25-.49,1.75-.25.06,1-2,1.06,1.45,1Z"/><path class="cls-17" d="M26.8,55.74a9.85,9.85,0,0,1,1.5,2.45,1.51,1.51,0,0,0,1.87,1.29,2.92,2.92,0,0,1,.69.1c-.45,1-1.37.85-2.1,1-.06,0-.16-.08-.23-.07-1.51.24-1.89-.22-1.18-1.66.34-.7-.1-1.32-.77-1.77S25.66,56.21,26.8,55.74Z"/><path class="cls-17" d="M35.65,41.49l-1.45-1,2-1.06-.06-1C37.18,39.68,37.14,39.91,35.65,41.49Z"/><path class="cls-10" d="M28.65,40.8l.27-.56,2-.47c.05.35.09.71.12,1a13.64,13.64,0,0,1-1.64.42C29.16,41.19,28.9,40.93,28.65,40.8Z"/><path class="cls-17" d="M49.63,50.23a4.18,4.18,0,0,1-2.75,2.5A5.17,5.17,0,0,1,49.63,50.23Z"/><path class="cls-12" d="M31.45,37.76l.46.74a2,2,0,0,1,0,.24l-.3.5h-.5l-.95-1Z"/><path class="cls-17" d="M45.49,49.52a10.14,10.14,0,0,1,.85,1c0,.05-.34.48-.4.45A4,4,0,0,1,45,50.3,5.32,5.32,0,0,1,45.49,49.52Z"/><path class="cls-10" d="M30.15,44.24l-.21,1.31-1.22-.78,1.18-1Z"/><path class="cls-17" d="M50.13,49.48l1.65-.19c-.19,1.09-1,.92-1.65.94Z"/><path class="cls-17" d="M44.39,52.23l.5.75-1.31.21-.23-.35Z"/><path class="cls-19" d="M37.64,38.2a1.48,1.48,0,0,1,1.84,1Z"/><path class="cls-17" d="M47.63,45l.4-1.51.6,1.51Z"/><path class="cls-17" d="M49.88,46c1,.66.18,1.33,0,2Z"/><path class="cls-17" d="M29.49,75l1.37-.84-1.14,1.07Z"/><path class="cls-5" d="M43.14,43.49l.49-1.06.4.16-.14.9h-.75Z"/><path class="cls-17" d="M27.46,64.29l-.57-1.09L27.3,63l.45,1.15Z"/><path class="cls-17" d="M46.13,44.74l.76.5-1,.34Z"/><path class="cls-17" d="M26.67,61l.85.58-.2.31-.91-.57Z"/><path class="cls-17" d="M34.4,38.75l-1.25.49Z"/><path class="cls-17" d="M29.17,77.33v-.61l.74.69Z"/><path class="cls-17" d="M30.75,49.53c-.19.17-.3.35-.39.33a.55.55,0,0,1-.33-.27c0-.06.14-.28.24-.29S30.52,49.41,30.75,49.53Z"/><path class="cls-17" d="M28.16,43.24l-.5-1Z"/><path class="cls-17" d="M43.14,43.49h.5l-.44.45-.31-.45Z"/><path class="cls-17" d="M43.32,54.57c.07,0,.18,0,.2.1s-.05.13-.08.2-.18,0-.2-.09S43.29,54.64,43.32,54.57Z"/><path class="cls-4" d="M31.65,39.24l.3-.5Z"/><path class="cls-17" d="M49.13,45.49l.5.5Z"/><path class="cls-8" d="M35.89,78.2c-.13,2.1-.31,4.2-.38,6.31-.09,2.64-.08,5.29-.12,7.93-.93.54-1.18.38-1.35-.64-.27-1.67-.65-3.33-1-5l-.33,0c.32-.53.67-1,.94-1.6.11-.22.19-.63.07-.78-1.11-1.34-.1-2.38.35-3.56.18-.48-.12-1.15-.2-1.73l.76-.27.5-.22Z"/><path class="cls-11" d="M42.35,93.58c1,0,2.07-.13,3.1-.06a23.81,23.81,0,0,0,9.69-1.8l-.06.69-1.46,1a9.18,9.18,0,0,1-5.52,1,6.84,6.84,0,0,0-2.59,0A4.31,4.31,0,0,1,42.35,93.58Z"/><path class="cls-11" d="M37.66,92.66l3.23.84c0,.76-.24,1.12-1,.57S38.39,93.13,37.66,92.66Z"/><path class="cls-8" d="M36.38,92.52h.53l-.26.32Z"/><path class="cls-12" d="M39.16,11.79l.75,0,.49,0a2.58,2.58,0,0,0,2.94,1.59,3.51,3.51,0,0,1,4.08,1.07c.9.94,1.74.81,2.75.2a5.27,5.27,0,0,1,1.73-.36c0,.66-.12,1.16,0,1.26a1.16,1.16,0,0,0,1,.09,1.06,1.06,0,0,0,.39-.93c-.19-.89-.15-1.55,1-1.58a14.4,14.4,0,0,1-.55-1.84c0-.24.25-.53.49-1a4.56,4.56,0,0,1,.35.73c.14.9.48,1.19,1.32.59.24-.17.64-.11,1-.16a5.79,5.79,0,0,1-.29.92c-.08.18-.33.28-.41.45A12.27,12.27,0,0,0,55.77,14l1-.24a18.81,18.81,0,0,1,2.06-.42c.13,0,.4.48.44.77a4,4,0,0,1-.11,1.08l.43.17a7.35,7.35,0,0,0,1.19-2c.2-.88.49-1.31,1.42-1.38.34,0,.66-.4,1.07-.66L64,12.5a1.94,1.94,0,0,0-2.39,2c0,1,.73,2.09,1.2,3.29.36-.31.73-.49.87-.78.68-1.42,2-1.64,3.3-1.77,1.73-.17,2.43.55,2.76,2.8l1.89.19c-.18.77-.55,1.12-1.41.83s-1.39-.12-1.4,1c0,.32-.76.62-1.17.92a2.54,2.54,0,0,0-.33-.9,22.13,22.13,0,0,0-2-1.91.77.77,0,0,0-.75,0c-.74.63-1.43,1.32-2,1.89-1.61-.4-3.06-.85-4.54-1.09-1.06-.18-1.61.55-1.9,1.54l1.19.36c-.16,1.39-.76,2-1.64,1.7a8.84,8.84,0,0,0-1.77-.37A1.72,1.72,0,0,1,52.17,20c.06-.26.11-.54.17-.81l-.28-.29c-.32.25-.76.44-.92.76-.46.91-1,1.61-2.12,1.64-.3,0-.71.43-.86.76-.42.93-1.86,1.59-2.53,1A1.74,1.74,0,0,0,42.89,23c-1.47-1.24-1.47-1.22-3.69-1.24a1.22,1.22,0,0,1-1-.4c-.46-.88-1-1.07-1.72-.37-.13.12-.43.06-.64.09a3.33,3.33,0,0,1,0-.77,2.93,2.93,0,0,1,.29-.67c-1.49-.29-1.55,1.11-2.27,1.64l-.93.27c-.82-.52-1.46-.92-2.08-1.34-.15-.1-.38-.34-.35-.42s.29-.45.47-.46a7.09,7.09,0,0,1,1.28.16c.3-1.08.57-2.14.89-3.18a2.45,2.45,0,0,1,.55-1.17,3.63,3.63,0,0,0,1.2-2.87C36.23,11.29,37.74,12,39.16,11.79Z"/><path class="cls-13" d="M65.38,2.52h1.23c-.11,1.19.67,2.34,0,3.58-.23.45,0,1.11-.05,1.68,0,0-.08,0-.12,0-1.17.51-2.31.72-3.36-.26l-.79-1.36c.43.07.79,0,.92.16.59.65,1.17.31,1.66,0a4.56,4.56,0,0,0,.86-1.1l-1.2-.41a4.29,4.29,0,0,1-1.15-.44c-.09-.07.19-.62.3-1,.38.15.75.31,1.13.45a2.75,2.75,0,0,0,.3.08C65.82,3.52,64.07,2.82,65.38,2.52Z"/><path class="cls-8" d="M50.39,9.28l.42-1L51.88,9Z"/><path class="cls-13" d="M66.6,8.53c.09.25.17.51.25.76C66.77,9,66.69,8.78,66.6,8.53Z"/><path class="cls-6" d="M33.88,21.27c.72-.53.78-1.93,2.27-1.64a2.93,2.93,0,0,0-.29.67,3.33,3.33,0,0,0,0,.77c.21,0,.51,0,.64-.09.77-.7,1.26-.51,1.72.37a1.22,1.22,0,0,0,1,.4c2.22,0,2.22,0,3.69,1.24a1.74,1.74,0,0,1,2.74.05c.67.62,2.11,0,2.53-1,.15-.33.56-.76.86-.76,1.16,0,1.66-.73,2.12-1.64.16-.32.6-.51.92-.76l.28.29c-.06.27-.11.55-.17.81a1.72,1.72,0,0,0,1.74,2.27,8.84,8.84,0,0,1,1.77.37c.88.26,1.48-.31,1.64-1.7l-1.19-.36c.29-1,.84-1.72,1.9-1.54,1.48.24,2.93.69,4.54,1.09.59-.57,1.28-1.26,2-1.89a.77.77,0,0,1,.75,0,22.13,22.13,0,0,1,2,1.91,2.54,2.54,0,0,1,.33.9c-.13.48-.51,1.17-.33,1.4.56.7,1.34,1.71,2,1.7,1.31,0,1.07.42.76,1.2a7.61,7.61,0,0,0-.25,1.19c-.07.16-.15.33-.22.5h-.45l-.83.59-1.22-.37c.16-.77.37-1.79-.64-1.87-.8-.07-1.66.55-2.41.83l-3.32-.87-.09,1.13c-.93-1.46-1.4-.91-1.79.05a21,21,0,0,1-4.46-1.25,6.08,6.08,0,0,0-6,.24,8,8,0,0,1-3.09.7c-2.41.15-4.83.22-7.25.23-1.54,0-3.08-.16-4.63-.25.12-1.09-.73-.88-1.34-1,0-.53.06-1,.8-.94l.48-.25v-.49c1.68.25,1.9.09,1.5-1.29L33.15,23Zm28.05,1.85-.29.66.22.36L64.35,23l0-.41-2.06-.77c-.54-1.42-.82-1.61-1.83-1.06C60.92,21.5,61.39,22.27,61.93,23.12Zm-2.86,1.1-.11.39,1.25.34.11-.4Z"/><path class="cls-16" d="M31.41,29.74c2.46-.15,4.91-.34,7.37-.43,1.42-.06,2.85.1,4.28.05,1,0,2-.3,3-.41.68-.08,1.37-.08,2.06-.11,0,.64.22,1.06.93.91,1-.22,2.07-.5,3.1-.76l5.78.2c-.34.6-.25.9.5,1.09.9.22,1.82.57,2,1.72-.72.61-1.31.75-1.61-.4a.53.53,0,0,0-.41-.31,1.44,1.44,0,0,0-.7.34c-.37.36-.7.76-1.26,1.39a10.52,10.52,0,0,0-.54-1.54,4,4,0,0,0-.67-.76c-.18.82-.31.91-2.47,1.69-.71-.77-1-2.1-2.55-2l.47,2.93-1.74.1a.43.43,0,0,0,0-.16l.89-1.17c-.48-.51-1-1.05-1.82-.42a1.25,1.25,0,0,1-1,.08c-2.3-.55-3.88.46-5.11,2.27-2-.17-3.92-.39-5.88-.5-1.19-.07-2.39,0-3.58,0l-1-.55v-.5c.7-.63,2-1.18.27-2.12-.13-.07-.19-.25-.28-.37Z"/><path class="cls-12" d="M31.39,30c.09.12.15.3.28.37,1.75.94.43,1.49-.27,2.12C31.4,31.67,31.39,30.84,31.39,30Z"/><path class="cls-12" d="M33.15,23l1.73-.79c.4,1.38.18,1.54-1.5,1.29Z"/><path class="cls-20" d="M33.44,26.18l-2-.19a1.92,1.92,0,0,0,0-.24.49.49,0,0,0,0-.24l.7-.32C32.71,25.3,33.56,25.09,33.44,26.18Z"/><path class="cls-12" d="M31.39,33l1,.55-.59.08Z"/><path class="cls-12" d="M31.4,25.51a.49.49,0,0,1,0,.24l-.77.27-.33-.46Z"/><path class="cls-12" d="M31.16,36c.11.32.21.65.32,1l-.79-.32Z"/><path class="cls-12" d="M29,35.36c-.19.15-.35.34-.41.32a1.4,1.4,0,0,1-.37-.36c.11-.09.23-.25.34-.26S28.79,35.22,29,35.36Z"/><path class="cls-6" d="M30.62,26l.77-.27a1.92,1.92,0,0,1,0,.24l-.3.55Z"/><path class="cls-12" d="M31.19,34l-.09.74-.41-.36Z"/><path class="cls-12" d="M33.38,24l-.48.25Z"/><path class="cls-21" d="M65.61,69.71l.75.75-.74.25-.25.25c.24.58.49,1.16.74,1.74-.84-.53-1.68-.94-2.66-.28-.14.09-.48,0-.69-.16a2.58,2.58,0,0,0-2.64-.05h-.75L58.11,72l1-.87-1.45-1.44v-.5l.5-.25,1.25-.5,1.9.94,0-.62,1.12-.56C63.35,69.7,64.17,70.08,65.61,69.71Z"/><path class="cls-12" d="M55.86,74.35l-.49.08-1,.23-2,.24c-.32-.5-.65-1-1-1.5l.75-1.46c.87-.25,1.53-.68,1.47-1.73l1-.51,1,1c-.06.57-.68,1.33.49,1.5.17.5.34,1,.5,1.49Z"/><path class="cls-5" d="M58.72,78.94c.23-1.06.52-2.12.66-3.19a11.56,11.56,0,0,0-.07-2l.31,0,.92.14a20.6,20.6,0,0,1,0,2.51C60.36,77.48,60,78.58,58.72,78.94Z"/><path class="cls-19" d="M55.63,70.71l-1-1V68.46l1.76-.76h.24c-.07.76,0,1.44,1,1.5v.5Z"/><path class="cls-13" d="M65.62,70.71l.74-.25,1.51,1-1.75,1.73c0-.17,0-.34,0-.51-.25-.58-.5-1.16-.74-1.74Z"/><path class="cls-19" d="M56.62,73.7c-.16-.5-.33-1-.5-1.49a2.86,2.86,0,0,1,.31-.88c.13-.16.59-.26.7-.16a.94.94,0,0,1,.23.77c-.12.54-.73,1.06.07,1.55l-.27.24Z"/><path class="cls-2" d="M55.08,92.41l.06-.69,1-.29.44,1.21C55.9,93.86,55.6,92.36,55.08,92.41Z"/><path class="cls-19" d="M59.37,72.21h.75l-.75.25Z"/><path class="cls-19" d="M59.62,73.7l-.31,0-.51-.49Z"/><path class="cls-19" d="M59.51,72.43l-.44.41a1.21,1.21,0,0,1,.09-.34S59.3,72.47,59.51,72.43Z"/><path class="cls-12" d="M54.38,44.74l-.25-.25-.25-1,.24-.51.05-.77A1.52,1.52,0,0,0,56,41.79c.44-.51.87-1.06,1.76-.64a9.23,9.23,0,0,0,1.95.33c.62.14,1.21.35,1.82.53s1.49.62,2.26.85c.07,0,.32-.56.5-.86.44-.56.9-1,1.56-.26l-.76,1.11c.58.27,1.44.94,1.68.76.94-.69,1.47-.2,2.08.36l.49.27.24.74c.57,1.5-.66,2.8-.5,4.25-.08.25-.16.5-.25.75-.25.75-.49,1.5-.74,2.25l-.48.51,0,.49h-.5l-.5-.5-1.48-1.38a4.94,4.94,0,0,0-1.28-1.08A8.69,8.69,0,0,0,61.78,50c-.86-.1-1.5-.27-1.21-1.46A2.09,2.09,0,0,0,59.72,46c-.26-.16-.38-.57-.51-.77L57.27,46V43.84c-.92-.27-1.23.08-1.15.9H54.38Z"/><path class="cls-22" d="M61.55,42c-.61-.18-1.2-.39-1.82-.53a9.23,9.23,0,0,1-1.95-.33c-.89-.42-1.32.13-1.76.64a1.52,1.52,0,0,1-1.85.42h0c-.09-.25-.17-.5-.26-.74l-1.25-.75-1.76-1.49,1-1.28h.48c1.14.29,1.88,2,3.15,1,.23.58.41,1.12.67,1.62.05.09.43,0,.66,0l-.12-1,1.14-1.38c1.14-.11,2.28-.28,3.42-.31a2.24,2.24,0,0,1,1.43.42c1.12,1,2.22,1.79,3.82,1.16.24-.09.57.05.85.08L68.11,41l1.49.52h0c0,.43,0,.86.05,1.29a2.23,2.23,0,0,0,.18.78c.41.65,0,.63-.47.67L68.87,44c0-.74-.12-1.35-1-1.48-.21-1.14-.86-1.24-1.76-.75h-.24c-.66-.7-1.12-.3-1.56.26Z"/><path class="cls-3" d="M57.62,69.21c-1-.06-1.07-.74-1-1.5.28-.56.48-1.1-.25-1.49v-1a14.91,14.91,0,0,0,1.65.71c.71.2.74,1.58,1.84,1L61,66.45l-.16-.4-1,.16c-.91-.75-.28-1.65-.25-2.49l.75-.69-.75-.81c-.11-1.44,1.4-.78,1.91-1.51-.21-.67-.39-1.39-1.4-1.23L59.86,59l-1-3.23v-1a12.13,12.13,0,0,0-.6-3c-.23-.46-1.25-.55-2.12-.9L56.87,48l1.11.23V46.83a6,6,0,0,1,1.49,1,1.14,1.14,0,0,1-.06,1.12c-.28.23-.83.11-1.25.2a7.41,7.41,0,0,0-1,.37c.14.22.35.66.4.64,1.25-.46,1.39.71,1.82,1.3a19.78,19.78,0,0,1,1,2.07c.15.28.47.46.71.69a4.09,4.09,0,0,0,.5-.82,4.91,4.91,0,0,0,.12-1l.34,0a9.3,9.3,0,0,0,.4,1.77c.25.6.56,1.46,1,1.62,1.15.38,2.42.88,3.62,0,0,.88-.29,1.89,1.1,2.23-.24.27-.38.57-.53.58-1,0-1.15.94-1.45,1.58-.45.91-.75,1.9-1.11,2.85l-1.77.24.41-1.61a11.25,11.25,0,0,0-1.38,1.21,1,1,0,0,0-.08.89c.13.23.58.52.78.45a17.78,17.78,0,0,0,2-.93c.86.78.21,1.85-.06,2.29-1,1.67-1,3,.55,4.21-1.44.37-2.26,0-3.24-1.49a2.79,2.79,0,0,1,.14-.72c.62-1.35.43-1.69-1.13-1.83.37,1.25,0,1.9-1.39,1.85-.2,0-.42.45-.62.69-.84-.45-1.25-.2-1.25.75ZM61.7,58.67a10.36,10.36,0,0,0,1.13,1.42,5.14,5.14,0,0,0,1.29.62l.19-.36L63,58.92H65c.09-.7.16-1.25.2-1.6a13.8,13.8,0,0,0-2-.5,1.22,1.22,0,0,0-1,.4A6,6,0,0,0,61.7,58.67Zm-1.08,6.24-.5-.13c0,.26-.08.52-.1.78a.84.84,0,0,0,.31.08C60.44,65.4,60.53,65.15,60.62,64.91Zm0-10.06a3,3,0,0,0-.2.68c0,.13.13.25.2.38a1.47,1.47,0,0,0,.41-.31C61.09,55.55,60.93,55.36,60.64,54.85Z"/><path class="cls-19" d="M67.11,55.72c-1.2.87-2.47.37-3.62,0-.47-.16-.78-1-1-1.62a9.3,9.3,0,0,1-.4-1.77l-.34,0a4.91,4.91,0,0,1-.12,1,4.09,4.09,0,0,1-.5.82c-.24-.23-.56-.41-.71-.69a19.78,19.78,0,0,0-1-2.07c-.43-.59-.57-1.76-1.82-1.3,0,0-.26-.42-.4-.64a7.41,7.41,0,0,1,1-.37c.42-.09,1,0,1.25-.2a1.14,1.14,0,0,0,.06-1.12,6,6,0,0,0-1.49-1v1.38L56.87,48v-.24c0-.45.09-.89.13-1.33l-.82-.32c-.51-.68,1.32-.73-.06-1.35-.08-.82.23-1.17,1.15-.9V46l1.94-.78c.13.2.25.61.51.77a2.09,2.09,0,0,1,.85,2.52c-.29,1.19.35,1.36,1.21,1.46a8.69,8.69,0,0,1,2.07.29,4.94,4.94,0,0,1,1.28,1.08l1.48,1.38.5.5h.5V54c-.77.27-.59.74-.25,1.24Z"/><path class="cls-19" d="M65.12,63.21a17.78,17.78,0,0,1-2,.93c-.2.07-.65-.22-.78-.45a1,1,0,0,1,.08-.89,11.25,11.25,0,0,1,1.38-1.21l-.41,1.61L65.12,63Z"/><path class="cls-3" d="M67.36,55.22c-.34-.5-.52-1,.25-1.24C67.52,54.39,67.44,54.81,67.36,55.22Z"/><path class="cls-19" d="M68.85,50c.09-.25.17-.5.25-.75C69,49.48,68.94,49.73,68.85,50Z"/><path class="cls-3" d="M67.63,52.74l.48-.51Z"/><path class="cls-23" d="M68.57,28.22c-.08-.2-.15-.41-.23-.61l.83-.59-.33,1.21Z"/><path class="cls-12" d="M69.62,27c.07-.17.15-.34.22-.5C69.77,26.67,69.69,26.84,69.62,27Z"/><path class="cls-12" d="M68.11,41l-.72-1.39.67-.12c.1-.07.22-.2.3-.19a5,5,0,0,0,1.22.32,4.63,4.63,0,0,0,1.26-.37A1.65,1.65,0,0,1,69.6,41.5h0Z"/><path class="cls-14" d="M70.39,36.7,70.07,38l-.38-.09L70,36.61Z"/><path class="cls-6" d="M60.37,32c-.14-1.15-1.06-1.5-2-1.72-.75-.19-.84-.49-.5-1.09l2,.13,1.06,1.41.44-1a5.26,5.26,0,0,1,1.54,0,1.49,1.49,0,0,0,2-.68c1.07,0,2.16.75,3.2-.12l1,.32.27,3.46.46.21-.76.26L65.88,33l-.77-.91-.48,1h-.51c-.15-.33-.29-.66-.46-1Zm2.44-1.54-.22-.26-.91.57a2.58,2.58,0,0,0,.37.54c.09.09.27.07.46.11Z"/><path class="cls-6" d="M72.86,32.26c-.19.15-.38.38-.59.41a9.65,9.65,0,0,1-1.42.07C71.23,31.36,72.09,32,72.86,32.26Z"/><path class="cls-5" d="M56.37,65.21V67.7l-1.76.76a6.14,6.14,0,0,0-.51-.51c-.3-.25-.63-.47-1-.7l-.53,1.21-.87-.72c-.56.21-1.12.41-.55,1.26.09.13-.1.51-.26.71a.52.52,0,0,1-.52.07.87.87,0,0,1-.22-.63,6.34,6.34,0,0,1,.37-1.56c.12-.27.46-.45.56-.54l1.34-3.43c-1.06-.29-2-.83-1.9-2.23,0-.16-.34-.31-.47-.5-.34-.52-.44-.93.36-1.19a4.51,4.51,0,0,0,1.15-.84l1.38-1,.77,1.61c.82.26,1.32-.71,1.2-1.29-.24-1.17.36-1.25,1.18-1.4l.68.95c.15-.1.4-.23.39-.26-.27-.72.25-1.39.23-1.93-.05-1.58.81-.81,1.42-.78v1L59.38,59l-.26.26h-.25l-2.42-1.09c.92,2.75-1.57,2.44-2.62,3.43.37.44,1,.88,1,1.25A2.31,2.31,0,0,0,56.37,65.21Z"/><path class="cls-7" d="M51.38,73.4c.33.5.66,1,1,1.5l-4.2.16a15.85,15.85,0,0,1-1.67.13c-.3,0-.58-.29-.86-.44.23-.19.49-.36.7-.57s.37-.48.56-.72l1-.5,1.25.24.75.26C50.42,74.52,50.89,73.64,51.38,73.4Z"/><path class="cls-5" d="M49.47,65.05l.5,1.13c-.65.9-1.21,1.69-1.79,2.46-.23.3-.55.78-.77.75a2.3,2.3,0,0,1-.92-.52,11.39,11.39,0,0,1,.95-1.82,6,6,0,0,1,1.36-1L49.17,65Z"/><path class="cls-17" d="M51.38,73.4c-.49.24-1,1.12-1.5.06.6-2.14.92-2.48,2.38-2.42l-.13.9Z"/><path class="cls-17" d="M52.63,68.46l.53-1.21c.32.23.65.45,1,.7a6.14,6.14,0,0,1,.51.51c0,.41,0,.83,0,1.24l-1,.51C52.37,70.12,53.06,69,52.63,68.46Z"/><path class="cls-5" d="M54.38,44.74h.25v.75l.51,2,.39,0c-.49.38-1,1-1.49,1.09a5.29,5.29,0,0,1-2-.61l.17-.49,1.28.35.76-.72L54,47.1Z"/><path class="cls-3" d="M54.62,45.49v-.75h1.49c1.38.62-.45.67.06,1.35l.82.32c0,.44-.09.88-.13,1.33a5.87,5.87,0,0,1-1-.7C55.42,46.56,55,46,54.62,45.49Z"/><path class="cls-5" d="M53.88,43.49l.25,1-.24.44-2.58-2.37,1-.32h1.81c0,.26,0,.52-.05.77Z"/><path class="cls-5" d="M53.83,53.08a6.13,6.13,0,0,1,.92.47c-.35,1.34.6,1.4,1.82,1.52-.37.4-.57.8-.76.79C54.2,55.82,54.31,54.45,53.83,53.08Z"/><path class="cls-5" d="M55.75,50.48,55,52.38l-.3.07-.57-1.58Z"/><path class="cls-12" d="M53.37,42.23h-1c.09-.51.19-1,.28-1.51l1.25.75Z"/><path class="cls-5" d="M52.11,54.71c-.51.35-.8.69-1.07.68s-.43-.43-.64-.68c.23-.16.45-.43.69-.45S51.61,54.48,52.11,54.71Z"/><path class="cls-17" d="M48.24,52.94l.57,1.57-.55.2-.66-1.54Z"/><path class="cls-17" d="M48.63,39l.5-.12c.11.41.23.82.36,1.3C48.55,40.23,48.64,39.57,48.63,39Z"/><path class="cls-5" d="M52.29,45.28l-1.1.06,0-.31a1.25,1.25,0,0,1,.47-.27,2.53,2.53,0,0,1,.66.11Z"/><path class="cls-5" d="M50.54,52.51l.76.2a2.47,2.47,0,0,1-.12.41,5.93,5.93,0,0,1-.73-.16Z"/><path class="cls-17" d="M52,56.68l-.31-.75.32-.16.42.74Z"/><path class="cls-5" d="M43.54,39.87v1l-.19,0v-1Z"/><path class="cls-17" d="M48.71,42.64c-.2.14-.38.32-.43.28a1.27,1.27,0,0,1-.33-.39c.12-.08.24-.22.36-.22S48.53,42.48,48.71,42.64Z"/><path class="cls-5" d="M46.76,40.6l-.7.09,0-.31.7-.06Z"/><path class="cls-17" d="M52.18,53.2c.16.21.32.32.33.45s-.19.28-.28.27a.44.44,0,0,1-.29-.3C51.91,53.52,52.06,53.39,52.18,53.2Z"/><path class="cls-5" d="M51,42.12h-.72l0-.22.73-.11Z"/><path class="cls-5" d="M56.25,53.12h-.73l0-.23.74-.11Z"/><path class="cls-17" d="M44.89,39.27l.75-.23c-.11.22-.22.44-.32.66Z"/><path class="cls-17" d="M52.88,52.3l-.19.31a1.39,1.39,0,0,1-.26-.29s.12-.2.2-.21S52.78,52.22,52.88,52.3Z"/><path class="cls-5" d="M51.28,40.17l-.09.21c-.07,0-.18,0-.2-.09s0-.14.08-.21Z"/><path class="cls-5" d="M45.57,41.34c.07,0,.18,0,.2.09s-.05.14-.08.21-.18,0-.2-.1S45.54,41.41,45.57,41.34Z"/><path class="cls-5" d="M48.79,70.89c0,.07,0,.18-.09.2s-.14,0-.21-.08,0-.17.1-.19S48.72,70.86,48.79,70.89Z"/><path class="cls-17" d="M49.48,70.53c0-.07,0-.18.09-.2s.14,0,.21.08-.05.18-.1.2S49.55,70.56,49.48,70.53Z"/><path class="cls-5" d="M49.54,64.15c0,.07,0,.17-.1.2s-.13,0-.2-.09,0-.17.09-.19S49.47,64.12,49.54,64.15Z"/><path class="cls-5" d="M50.06,62.81c.07,0,.18,0,.2.1s0,.13-.08.2-.18,0-.2-.09S50,62.88,50.06,62.81Z"/><path class="cls-5" d="M49.54,61.79c-.07,0-.16.09-.21.07s-.06-.13-.09-.2.16-.1.21-.07S49.51,61.72,49.54,61.79Z"/><path class="cls-17" d="M51.77,46.17l-.09.21c-.06,0-.17-.05-.19-.1s0-.13.08-.2Z"/><path class="cls-5" d="M51.22,57.79c0-.07.05-.18.1-.2s.14,0,.2.08,0,.18-.09.2S51.29,57.82,51.22,57.79Z"/><path class="cls-14" d="M60.37,32h3.29c.17.37.31.7.46,1L62,33.74a3.21,3.21,0,0,0-3.46,0,1.2,1.2,0,0,1-.69.16c-2.41-.2-4.82-.43-7.23-.65-.15-.95-.3-1.9-.47-2.93,1.53-.06,1.84,1.27,2.55,2,2.16-.78,2.29-.87,2.47-1.69a4,4,0,0,1,.67.76A10.52,10.52,0,0,1,56.39,33c.56-.63.89-1,1.26-1.39a1.44,1.44,0,0,1,.7-.34.53.53,0,0,1,.41.31C59.06,32.75,59.65,32.61,60.37,32Z"/><path class="cls-9" d="M41.89,34c1.23-1.81,2.81-2.82,5.11-2.27a1.25,1.25,0,0,0,1-.08c.87-.63,1.34-.09,1.82.42l-.89,1.17-.76.41C46.09,34.42,44,35,41.89,34Z"/><path class="cls-18" d="M57.87,38.24l-1.14,1.38.12,1c-.23,0-.61.1-.66,0-.26-.5-.44-1-.67-1.62-1.27,1-2-.72-3.15-1,1.63,0,3.25-.08,4.88-.09C57.46,37.87,57.67,38.11,57.87,38.24Z"/><path class="cls-14" d="M64.63,33l.48-1,.77.91Z"/><path class="cls-14" d="M48.13,33.65l.76-.41a.43.43,0,0,1,0,.16Z"/><path class="cls-7" d="M45.14,74.73c-1.24.09-2.48.14-3.72.27-.43,0-.85.33-1.29.39a11,11,0,0,1-1.52,0c.3-.31.56-.66.89-.94a5.41,5.41,0,0,1,.88-.5l1.75-.37Z"/><path class="cls-1" d="M39.54,70.58c1.08-.13,1.58-.42,1.68-1.47s1.1-.56,1.8-.56C42.39,71,41.26,71.74,39.54,70.58Z"/><path class="cls-1" d="M42.13,73.57l-1.75.37-1.08-.17C39.83,73,41.75,72.87,42.13,73.57Z"/><path class="cls-1" d="M47.88,73l-1,.5-1.36.17-.1-.24A13.26,13.26,0,0,1,47,72.32C47.55,72,47.92,72.26,47.88,73Z"/><path class="cls-1" d="M40.18,67.64c.19.17.39.29.38.35a1.71,1.71,0,0,1-.29.43c-.11-.1-.28-.19-.31-.31S40.07,67.86,40.18,67.64Z"/><path class="cls-1" d="M45,73.07h-.73v-.23H45Z"/><path class="cls-1" d="M47,57.2c-.11,0-.25.17-.29.14a.58.58,0,0,1-.21-.32s.15-.12.23-.18Z"/><path class="cls-1" d="M43.48,73.27c0-.07.05-.17.1-.19s.13,0,.2.08,0,.17-.09.19S43.55,73.3,43.48,73.27Z"/><path class="cls-2" d="M35.15,78.7l-.5.22Z"/><path class="cls-7" d="M56.62,73.7l.54,0-1.3.62Z"/><path class="cls-7" d="M54.39,74.66l1-.23Z"/><path class="cls-23" d="M67.12,27.24l-7.84-.49c-.14,0-.27-.16-.41-.24.39-1,.86-1.51,1.79-.05l.09-1.13,3.32.87c.75-.28,1.61-.9,2.41-.83C67.49,25.45,67.28,26.47,67.12,27.24Z"/><path class="cls-23" d="M61.93,23.12c-.54-.85-1-1.62-1.49-2.39,1-.55,1.29-.36,1.83,1.06l2.06.77,0,.41-2.49,1.17-.22-.36Z"/><path class="cls-23" d="M59.07,24.22l1.25.33-.11.4L59,24.61Z"/><path class="cls-18" d="M52.13,29c-1,.26-2.06.54-3.1.76-.71.15-1-.27-.93-.91Z"/><path class="cls-14" d="M64.89,29.12a1.49,1.49,0,0,1-2,.68,5.26,5.26,0,0,0-1.54,0l-.52-.45Z"/><path class="cls-16" d="M60.85,29.31l.52.45-.44,1-1.06-1.41Z"/><path class="cls-19" d="M59.37,68.21c.2-.24.42-.7.62-.69,1.38,0,1.76-.6,1.39-1.85,1.56.14,1.75.48,1.13,1.83a2.79,2.79,0,0,0-.14.72l-1.12.56,0,.62-1.9-.94Z"/><path class="cls-10" d="M59.37,68.21v.25l-1.25.5C58.12,68,58.53,67.76,59.37,68.21Z"/><path class="cls-3" d="M65.62,70.71l-.25.25Z"/><path class="cls-10" d="M56.38,67.7V66.22c.73.39.53.93.25,1.49Z"/><path class="cls-7" d="M65.87,41.74h.24l1.76.75c.88.13,1,.74,1,1.48-.61-.56-1.14-1-2.08-.36-.24.18-1.1-.49-1.68-.76Z"/><path class="cls-3" d="M67.11,53.23l-.5-.5Z"/><path class="cls-19" d="M53.88,43.49l.24-.51Z"/><path class="cls-12" d="M67.87,42.49l-1.76-.75C67,41.25,67.66,41.35,67.87,42.49Z"/><path class="cls-6" d="M68.11,41l1.49.52Z"/><path class="cls-19" d="M53.37,42.23l.52-.75c.09.24.17.49.26.74Z"/><path class="cls-10" d="M56.37,65.21a2.31,2.31,0,0,1-1.56-2.4c0-.37-.61-.81-1-1.25,1.05-1,3.54-.68,2.62-3.43l2.42,1.09c.09.42-.26,1.26.75.76l.51-.5c1-.16,1.19.56,1.4,1.23-.51.73-2,.07-1.91,1.51L58.09,61l-.15.13.76,1.36-1.28.35,1.2,1.58-2.11-.81c.63,1.3,1.4,1.6,2.11.82l1-.75c0,.84-.66,1.74.25,2.49V67c-1.1.54-1.13-.84-1.84-1A14.91,14.91,0,0,1,56.37,65.21Zm-.17-4.09.15.38c.24-.14.49-.27.72-.42a1.59,1.59,0,0,0-.12-.3Z"/><path class="cls-19" d="M61.7,58.67a6,6,0,0,1,.53-1.45,1.22,1.22,0,0,1,1-.4,13.8,13.8,0,0,1,2,.5c0,.35-.11.9-.2,1.6H63l1.35,1.43-.19.36a5.14,5.14,0,0,1-1.29-.62A10.36,10.36,0,0,1,61.7,58.67Z"/><path class="cls-5" d="M59.62,63.72l-1,.75h0l-1.2-1.58,1.28-.35-.76-1.36.15-.13,1.53,1.18.75.81Z"/><path class="cls-10" d="M59.38,59l-.51-3.23,1,3.23Z"/><path class="cls-19" d="M59.86,67v-.75l1-.16.16.4Z"/><path class="cls-19" d="M59.38,59h.48l.27.52-.51.5-.5-.76Z"/><path class="cls-10" d="M60.62,64.91c-.09.24-.18.49-.29.73a.84.84,0,0,1-.31-.08c0-.26.07-.52.1-.78Z"/><path class="cls-10" d="M60.64,54.85c.29.51.45.7.41.75a1.47,1.47,0,0,1-.41.31c-.07-.13-.19-.25-.2-.38A3,3,0,0,1,60.64,54.85Z"/><path class="cls-14" d="M62.81,30.46l-.3,1c-.19,0-.37,0-.46-.11a2.58,2.58,0,0,1-.37-.54l.91-.57Z"/><path class="cls-3" d="M59.12,59.22l.5.76c-1,.5-.66-.34-.75-.76Z"/><path class="cls-5" d="M58.62,64.47c-.71.78-1.48.48-2.11-.82l2.11.81Z"/><path class="cls-5" d="M56.2,61.12l.75-.34a1.59,1.59,0,0,1,.12.3c-.23.15-.48.28-.72.42Z"/></g></svg>