<svg xmlns="http://www.w3.org/2000/svg" viewBox="0 0 100 100"><defs><style>.cls-1{fill:#9d716f;}.cls-2{fill:#936260;}.cls-3{fill:#8f5d5b;}.cls-4{fill:#a07674;}.cls-5{fill:#9b6e6c;}.cls-6{fill:#b59493;}.cls-7{fill:#bea19f;}.cls-8{fill:#976867;}.cls-9{fill:#bc9d9c;}.cls-10{fill:#b18e8c;}.cls-11{fill:#c1a4a3;}.cls-12{fill:#a57c7b;}.cls-13{fill:#a7807f;}.cls-14{fill:#c9b1b0;}.cls-15{fill:#c2a7a6;}.cls-16{fill:#c4aaa9;}.cls-17{fill:#b49290;}.cls-18{fill:#ccb5b4;}.cls-19{fill:#b89896;}.cls-20{fill:#c6adab;}.cls-21{fill:#ba9b9a;}.cls-22{fill:#ad8887;}.cls-23{fill:#a47a79;}</style></defs><g id="Ebene_16" data-name="Ebene 16"><path class="cls-1" d="M66.31,48.36l-.85-.73c0-.21,0-.48-.16-.59-.63-.58-1.34-1.07-1.95-1.66-1-1-2-2-3-3-.65-.62-1.43-1.11-2.1-1.72s-1.19-1.24-1.79-1.86c-.34-.37-.66-.76-1-1.1-.6-.56-1.23-1.1-1.86-1.62S52.07,35,51.38,34.31s-1.24-1.43-1.9-2.11c-1.06-1.09-2.15-2.15-3.23-3.23A3,3,0,0,0,46,26.34c.83.06.78-.42.73-.9.81.69,1.66,1.35,2.43,2.08,2.12,2,4.19,4,6.32,6,.9.84,1.89,1.58,2.82,2.4a15.55,15.55,0,0,0,1.38,1.32,42.42,42.42,0,0,1,5.48,5.06,1.76,1.76,0,0,0,.64.27,3.22,3.22,0,0,0,.45.91c1.19,1.17,2.43,2.3,3.63,3.46.77.73,1.5,1.5,2.26,2.24,1.54,1.47,3.13,2.89,4.63,4.4,1.86,1.88,3.65,3.82,5.47,5.75s3.83,4.09,5.75,6.12a36,36,0,0,0,2.91,3,53.59,53.59,0,0,1,8,8.73,1.44,1.44,0,0,0,.46.46c.91.46.58,1.22.41,1.87s-1,.75-1.73.54c-1.86-1.81-4.21-3-5.86-5.11-1-1.31-2.28-2.46-3.43-3.69-.35-.38-.73-.59-1.17-.12L87.4,71c.14-.6-.29-.89-.62-1.27-1.39-1.57-2.74-3.17-4.11-4.75-.77-.88-1.61-1.69-2.31-2.62A10.8,10.8,0,0,0,78,59.56L76.89,59c-.24-1.29-1.3-2.42-2.06-2.47-.7-.74-1.24-1.32-1.79-1.89-.78-.81-1.57-1.61-2.34-2.44a9,9,0,0,1-.69-.9l-1.36-.88L68,50l-1-.92Z"/><path class="cls-1" d="M37.61,53c1.29,1,2.57,2.07,3.85,3.12a3.51,3.51,0,0,1,.47.55c-.85.7.19,1,.38,1.35s.69.1,1-.19l.23.22c-.27,1,.24,1.58,1.39,1.77a8.42,8.42,0,0,1,.78,1.3c.1.24.08.71-.07.82-.33.24-.4.43-.13.69,0,.05.38-.12.51-.26.42-.44.71-.39,1,.13a5,5,0,0,0,.62.77l.22-.88c.1.13.19.26.28.4l.44.49.22.26-.2.73.26.06.29-.43.26.21.36.56-.66-.07.88.89.12-.07-.22-.63.12-.1.71.64c-.38,1-.17,1.33.77,1.47.26.37.48.66.68,1s.27.39.24.56c-.07.39-.37.75.29,1,.37.12.68.65,1,.64.6,0,.84.34,1.16.67.49.51.83,1.22,1.68,1.29a9.09,9.09,0,0,1,1.36.27l.25.25c-.11.47-.23.94-.32,1.42a.89.89,0,0,0,.07.56.46.46,0,0,0,.42.07,2,2,0,0,0,.27-.59c.09-.24.15-.49.23-.74l.52.62.24.25c1.48,1.71,2.93,3.44,4.45,5.11.78.86,1.74,1.56,2.52,2.42a26.19,26.19,0,0,1,1.67,2.25,35.43,35.43,0,0,0,2.19,2.93c2.26,2.49,4.55,4.94,6.91,7.33a11.49,11.49,0,0,0,2.59,1.79c.71.39,1.21.75,1,1.66-.2.73-.17,1.56-1.14,1.79l-.9,0c-.09-.15-.15-.45-.35-.59-.66-.46-1.38-.83-2-1.29a15.31,15.31,0,0,1-2-1.52c-.78-.74-1.47-1.56-2.19-2.34L70.2,91.42,69.93,91l-4.58-5.53-.3-.38c-.37-.6-.67-1.3-1.56-1.24l-1.73-1.74c-1.29-1.47-2.57-3-3.89-4.38a5,5,0,0,0-1.08-.7c-.21-.15-.31-.44-.5-.66-.84-.95-1.71-1.88-2.57-2.82a23.58,23.58,0,0,0-2-2.15c-.81-.7-1-2-2.35-2.18L49.18,69a8,8,0,0,0-2.91-3.18l-.21-.23-.63-1-.37-.3c-.31-.3-.63-.59-.93-.9-.83-.9-1.59-1.86-2.49-2.69a36,36,0,0,0-3.36-2.79,28.07,28.07,0,0,0-2.77-1.6l-.58-.59-.25-.23c-.27-.28-.52-.57-.81-.83s-.49-.28-.68-.47c-1.57-1.54-3.12-3.09-4.68-4.64l-.38-.37-.55-.56-.67.16-.35-1L25,46,25.1,45h1.19c.68.21.76-.34.95-.75l.45.28.27.74-1.47,1.24.75,1.12.9-1.94c.38.46.75.94,1.14,1.38.74.82,1.61,1.6.3,2.66-.06,0,0,.37.07.42a.58.58,0,0,0,.51,0,12.78,12.78,0,0,0,1.13-.87l1.59,1.34a3.86,3.86,0,0,0-.75.43c.16.56.37,1.12,1,1.23.13-.36.15-.73.35-.9s.58-.18,1.05-.31a8.25,8.25,0,0,0-.87-.69c-.38-.23-.45-.46-.11-.77l1.37,1.21L34.28,52c.7.19,1.26.37,1.84.51a4.25,4.25,0,0,0,.8,0l.45.29ZM48.72,65.4c0,.15,0,.3.07.32s.2,0,.3,0,0-.23,0-.28S48.89,65.42,48.72,65.4ZM27.5,47.71c0,.15,0,.27,0,.31a.29.29,0,0,0,.27,0,.25.25,0,0,0,0-.25C27.79,47.74,27.67,47.75,27.5,47.71Z"/><path class="cls-2" d="M46.73,25.44c.05.48.1,1-.73.9A3,3,0,0,1,46.25,29l-1.87-1.39c0-.13,0-.31-.06-.39-1-1.19-2.1-2.36-3.16-3.53-.1-.1-.3-.1-.44-.17s-.31-.18-.33-.29a3.19,3.19,0,0,0-1.14-2.1c-.43-.35-.82-.88-1.34-1.27a2.37,2.37,0,0,1-.61-1.27c0-.14.42-.35.47-.57a3.66,3.66,0,0,0,0-1,3.05,3.05,0,0,1,0-1.08,2.46,2.46,0,0,0-.69-2.5c-.34-.3-.82-.84-.74-1.14A4,4,0,0,0,36,9.93c-.08-.24-.45-.38-.69-.58s-.46-.3-.44-.42c.08-.64-.28-.66-.74-.68a4.25,4.25,0,0,1-1.29-.2c-.77-.29-1.51-.68-2.26-1l-.9-.44c-.07-.16-.14-.33-.22-.49L29,5l-.7.19-.45-.84,1-.24-.2-.18.81-1.17c.22-.31.52-.62.05-1l.24-.29L30.7.82a6.46,6.46,0,0,1,1.76,0c.6.17.73-.08.81-.54h0l2.17,1A3,3,0,0,1,37.2,2.37c.42.58,1.33.81,1.8,1.38.86,1,1.46,2.26,2.33,3.26a7.29,7.29,0,0,1,1.4,2.63c.59,1.8,1.65,3.49,1.37,5.54a8.25,8.25,0,0,0,.26,2.12c.13,1,.19,2.05.37,3.05.16.85.45,1.69.69,2.52.19.64.4,1.27.6,1.9a.67.67,0,0,0,0,1.12l.46-.67Z"/><path class="cls-3" d="M13,21l1.76,0a1.91,1.91,0,0,0,2,.94l.95.79c-.09.71.64.85,1.24,1.1.3.12.61.22.91.33-.16.19-.33.37-.35.39a12.75,12.75,0,0,1,1.21,1.54,7.91,7.91,0,0,1,.55,1.55,2.63,2.63,0,0,1,.15.63c0,.9.09,1.8.13,2.7s.86.77,1.37,1.06h0l-.64.56a4.58,4.58,0,0,1,.16,1.18c0,.12-.44.18-.87.35l.8.55c.05.94.09,1.84.15,2.74a2.89,2.89,0,0,0,.22.52,2.74,2.74,0,0,1,.07.5,5,5,0,0,0,.13,1.29c.15.4.18.66-.23.77a5.91,5.91,0,0,1-1.11.14l-1,0-.68-.44c-.32-.2-.8-.64-.94-.55-.77.47-1.34,0-2-.24A1.57,1.57,0,0,1,16,37.77a2.45,2.45,0,0,0-.42-1,7.09,7.09,0,0,1-.74-1.3c-.23-.86.11-1.88-.92-2.47a.91.91,0,0,1-.17-.88c.27-.45.1-.7-.19-1a1.21,1.21,0,0,1-.32-.57c-.19-.89-.82-1.12-1.61-1.12-.32-1.74-1.12.15-1.65-.28a6,6,0,0,0-.28-1c-.24-.47-.55-1-1.18-.4l-1.29-.1c-.5,0-.69-.24-.66-.76a14.26,14.26,0,0,0-.06-1.6l.77-1.32c.61-1,1.12-2.09,2.45-2.42.34-.09.59-.55.88-.84a.67.67,0,0,1,.12-.06l.84.24.28.66Z"/><path class="cls-4" d="M37.73,17a3.66,3.66,0,0,1,0,1c-.05.22-.5.43-.47.57a2.37,2.37,0,0,0,.61,1.27c.52.39.91.92,1.34,1.27a3.19,3.19,0,0,1,1.14,2.1c0,.11.2.21.33.29s.34.07.44.17c1.06,1.17,2.12,2.34,3.16,3.53.07.08,0,.26.06.39l-1.26-.38L41.7,26.06c0-.15.18-.37.13-.44a5.75,5.75,0,0,0-1.28-1.48c-.27-.19-.85.08-1.29.14l-1.64-.6c-.22-.35-.45-.38-.7,0h0l-1-.39-.47-.53.36-.5c-.34,0-.55.2-.78.22-.68.07-1.38,0-2,.1s-.77-.15-.77-.74l.72.12c.12-.36.26-.69.34-1,.16-.78-.06-1-.87-1a8.49,8.49,0,0,1-1-.18c-.71-.09-1.43-.16-2.15-.24l-.06.3a8.21,8.21,0,0,0,.89.88c.62.46.66.89-.06,1.83-.13.17-.67,0-1,0v-.1l-.8.17.14-1.15a6.42,6.42,0,0,1-1,.66c-.28.12-.69.26-.9.14-.86-.49-1.67-1.06-2.51-1.61l-.22.53-.51-.41a6.17,6.17,0,0,0-.31-1.06c-.39-.73-.83-1.43-1.3-2.23l-.21,0c-.11-.57-.22-1-.28-1.42a4.2,4.2,0,0,1,0-.87c.07-.56.16-1.12.24-1.68l.67.22c.17-.54,1-.9.6-1.42l-1.18.37.67-1.16,3,1.75-.68,1.54,1.05.27-.38,1.4,1.62-.17c1,.81.44.58,2.38.06-.35-.29-.61-.47-.84-.68s-.46-.34-.45-.48.28-.39.63-.82c0,1.18.75.56,1.11.8.21,1.4.38,1.65,1.6,1.83.29,0,.63-.35,1.12-.64l.12,1.56.18.09c.32-.73.63-1.52,1.35-.79a11,11,0,0,1,1-.74,3.81,3.81,0,0,1,1-.37.74.74,0,0,1,.44.1c-.11.8.72.71,1,1.19Z"/><path class="cls-1" d="M8.56,27.68c.63-.58.94-.07,1.18.4a6,6,0,0,1,.28,1c.53.43,1.33-1.46,1.65.28.79,0,1.42.23,1.61,1.12a1.21,1.21,0,0,0,.32.57c.29.3.46.55.19,1A.91.91,0,0,0,14,33c1,.59.69,1.61.92,2.47a7.09,7.09,0,0,0,.74,1.3,2.45,2.45,0,0,1,.42,1A1.57,1.57,0,0,0,17,39.42c.64.28,1.21.71,2,.24.14-.09.62.35.94.55l.68.44c.27.36.48,1,.81,1.05,1,.25,1.15,1,1.3,1.77a5.45,5.45,0,0,1,.86.94c.15.19.29.39.43.59-.2,0-.49,0-.59-.1a5.5,5.5,0,0,1-.55-.91l-.62.62-.7-.23c-.13-.55-.25-1.1-.4-1.65-.06-.21-.17-.52-.33-.57-.75-.25-1.54-.4-2.3-.65A.84.84,0,0,1,18,41c-.06-.7-.4-.88-1.1-.64a5.73,5.73,0,0,1-2,.37,10.74,10.74,0,0,1-2.43-.41,17.41,17.41,0,0,1-2-.76c.06-.15.08-.36.19-.43a5.4,5.4,0,0,1,.82-.32c-1-1-1-1-2.06-.95a5.19,5.19,0,0,1-1.12-.12c-.11,0-.16-.28-.28-.51l.7,0L8.88,37l-1-.49.53-1.06-1,.28.12-1.42,1.08.27c.14-.67.12-1-.7-1.16-1.4-.24-1.68-.78-1.16-1.82-.71-.59-1.45-1.21-.51-2.3l-.21-.09L4,30.14l-.6-2c.44-.41.6-.18.8.27a1,1,0,0,0,.74.39c.2,0,.41-.27.61-.42-.2-.15-.41-.29-.6-.45s-.07-.12-.11-.19c1-.07,1.21-.63.78-1.52l-1-.07-.1-.86,2-.09a14.26,14.26,0,0,1,.06,1.6c0,.52.16.74.66.76-.51.41-.73.85-.2,1.36Z"/><path class="cls-5" d="M37.73,17l-.41.41c-.26-.48-1.09-.39-1-1.19a.74.74,0,0,0-.44-.1,3.81,3.81,0,0,0-1,.37,11,11,0,0,0-1,.74c-.72-.73-1,.06-1.35.79l-.18-.09-.12-1.56c-.49.29-.83.68-1.12.64-1.22-.18-1.39-.43-1.6-1.83-.36-.24-1.09.38-1.11-.8-.35.43-.6.61-.63.82s.28.33.45.48.49.39.84.68c-1.94.52-1.4.75-2.38-.06l-1.62.17.38-1.4-1.05-.27.68-1.54-3-1.75c-.07-.24-.14-.47-.2-.71l1.43.09-.69-2.46-.31-.1L21.29,9.59,21,9.37c-.1-.52-.19-1-.28-1.55A1.36,1.36,0,0,1,22.14,7a3.87,3.87,0,0,0,1.35-.53l.42.24c-.25.41-.33.77.29.91l1.86,1.85c.55.8,1.07,1.62,1.64,2.4A6.65,6.65,0,0,0,29,13.38a3.38,3.38,0,0,0,1.69.5,5.48,5.48,0,0,0,1.57-.43,7,7,0,0,1-.53-1.13c-.13-.43-.11-.91-.21-1.36s-.23-.82-.35-1.24c-.25-.77-.5-1.54-.73-2.32,0-.11.07-.25.11-.37.75.34,1.49.73,2.26,1a4.25,4.25,0,0,0,1.29.2c.46,0,.82,0,.74.68,0,.12.28.28.44.42s.61.34.69.58a4,4,0,0,1,.28,2.3c-.08.3.4.84.74,1.14a2.46,2.46,0,0,1,.69,2.5A3.05,3.05,0,0,0,37.73,17Z"/><path class="cls-6" d="M10.54,39.51a17.41,17.41,0,0,0,2,.76,10.74,10.74,0,0,0,2.43.41,5.73,5.73,0,0,0,2-.37c.7-.24,1-.06,1.1.64a.84.84,0,0,0,.48.56c.76.25,1.55.4,2.3.65.16.05.27.36.33.57.15.55.27,1.1.4,1.65-.18,0-.41,0-.53-.09a5,5,0,0,0-2.78-.83c-.94-.11-1.85-.45-2.79-.6a11.6,11.6,0,0,0-2.56-.21,11.11,11.11,0,0,1-5.19-.95c-.69-.31-1.35-.7-2-1.05l-1.71-1.1-.37-.32c.65-.65-.21-1-.21-1.73l-.55.92c-.23-.27-.45-.54-.68-.8.54-.76.47-1-.42-1.69l.18-.12-.45-.76-.23-.24.86-.09c-.18-.6-.55-.6-1-.49a2.18,2.18,0,0,1,0-.73,7.26,7.26,0,0,1,.66-.91c.27.38.42.12.58-.11,0,.1.12.25.09.29a1.38,1.38,0,0,0,.06,1.94c.73,1,1.32,2.15,2.69,2.7.94.37,1.67,1.25,2.8,1.42A21.19,21.19,0,0,1,10.54,39.51Z"/><path class="cls-7" d="M2.36,32.48c-.16.23-.31.49-.58.11l-.46,0-.82.08c.05-.15.1-.3.14-.46.54,0,1-.23,1.07-.8,0-.23-.27-.5-.46-.84.33-.56,1-1.23.17-2-.07-.06,0-.33.08-.46a4.61,4.61,0,0,1,.93-1.41c.84-.62.51-1.23.21-1.9l.29-.39.48,1.05c.69-.58.68-1.15,0-1.52l1-.27c0,.21.09.42.14.62a2.63,2.63,0,0,0,.36-.08,5.54,5.54,0,0,0-.11-.56l.63-.27.89-.48-.54-.34a5.42,5.42,0,0,1,4.9-1.92c-.29.29-.54.75-.88.84-1.33.33-1.84,1.41-2.45,2.42l-.77,1.32-2,.09c0,.33.07.59.1.86a9.71,9.71,0,0,1-1,.79.71.71,0,0,0-.24,1.2l.6,2c-.54.56-1.09,1.09-1.59,1.68C2.29,32,2.37,32.25,2.36,32.48Z"/><path class="cls-8" d="M24,45c-.14-.2-.28-.4-.43-.59a5.45,5.45,0,0,0-.86-.94c-.15-.78-.26-1.52-1.3-1.77-.33-.09-.54-.69-.81-1.05l1,0a5.91,5.91,0,0,0,1.11-.14c.41-.11.38-.37.23-.77a5,5,0,0,1-.13-1.29,2.74,2.74,0,0,0-.07-.5,2.89,2.89,0,0,1-.22-.52c-.06-.9-.1-1.8-.15-2.74l-.8-.55c.43-.17.86-.23.87-.35a4.58,4.58,0,0,0-.16-1.18l.64-.56c.15,1.29.31,2.58.45,3.87a8.13,8.13,0,0,0,.35,2.8c.76,1.38.76,3.14,2.11,4.22a12.52,12.52,0,0,1,1,1l-.57,1H25.1c0,.31-.06.69-.09,1.06Z"/><path class="cls-9" d="M49.41,69.23c1.31.16,1.54,1.48,2.35,2.18a23.58,23.58,0,0,1,2,2.15c.86.94,1.73,1.87,2.57,2.82.19.22.29.51.5.66a5,5,0,0,1,1.08.7c1.32,1.43,2.6,2.91,3.89,4.38l-1.35-.34L59.55,81c0-.35-.1-.7-.15-1.1l-1,.36-.95-.9a2,2,0,0,0-.15-.61c-.36-.52-.77-1-1.23-1.63L55,77.23l-.05-1.16-.74.5c-.67-.47-1.44-.82-1.53-1.83,0-.27-.51-.5-.79-.74,0-.32.21-.75.07-.92a1,1,0,0,0-1.4-.32l-.38-.52c.06-.21.23-.55.17-.6-.52-.41-.48-1.42-1.46-1.35-.16,0-.34-.2-.46-.26Z"/><path class="cls-10" d="M23.74,21.14l.22-.53c.84.55,1.65,1.12,2.51,1.61.21.12.62,0,.9-.14a6.42,6.42,0,0,0,1-.66l-.14,1.15.8-.17v.1c.35,0,.89.15,1,0,.72-.94.68-1.37.06-1.83a8.21,8.21,0,0,1-.89-.88l.06-.3c.72.08,1.44.15,2.15.24a8.49,8.49,0,0,0,1,.18c.81,0,1,.23.87,1-.08.34-.22.67-.34,1l-.72-.12c0,.59.13.84.77.74s1.37,0,2-.1c.23,0,.44-.23.78-.22l-.36.5.47.53-.37.64-.91.18L33.91,23l-.7.7-.39-.77-.56.31-.32-.58c-.38.23-.63.49-.91.52a2.28,2.28,0,0,0-1.59.91,5.61,5.61,0,0,0-2.67-.85A5.71,5.71,0,0,1,23.74,21.14Z"/><path class="cls-7" d="M43.12,27.2l1.26.38L46.25,29c1.08,1.08,2.17,2.14,3.23,3.23.66.68,1.22,1.46,1.9,2.11s1.49,1.18,2.22,1.79,1.26,1.06,1.86,1.62c.37.34.69.73,1,1.1-.3.3-.48.2-.64-.16s-.51-.53-.9-.19l-.33-.35c0-.14.07-.27.1-.41l-.47.06c-1.53-1.19-3.1-2.33-4.56-3.59-.94-.82-1.67-1.88-2.59-2.73S45,29.77,44,28.87C43.52,28.45,42.86,28,43.12,27.2Z"/><path class="cls-9" d="M35.51,56.3a28.07,28.07,0,0,1,2.77,1.6,36,36,0,0,1,3.36,2.79c.9.83,1.66,1.79,2.49,2.69.3.31.62.6.93.9-.22.28-.44.55-.65.83-1.29-1.22-2.53-2.49-3.88-3.63a27.66,27.66,0,0,0-2.69-1.83c-.25-.17-.46-.37-.69-.56v-.42l-.48.18-.23-.23c.29-.81.12-1-.65-1.33C35.51,57.17,35,56.81,35.51,56.3Z"/><path class="cls-9" d="M26.06,9.46,24.2,7.61,24.61,7l4,2.17c0-.07-.05-.27-.09-.47s.14-.46.07-.52a8.51,8.51,0,0,0-1-.64l-.19-.27.43-.54-.5-.38c.42,0,.84.07,1.25.14s.65.16,1,.24a.22.22,0,0,0,.1-.09l.9.44c0,.12-.14.26-.11.37.23.78.48,1.55.73,2.32-.06.19-.11.38-.2.73-.45-1.09-1.11-.24-1.64-.47.1,1.28-.13,1.63-1.07,1.5.65-1,.2-1.47-.69-1.81-.1,0-.23-.12-.24-.19-.09-.92-.9-.84-1.64-1.28C26,8.74,26.7,9,26.06,9.46Z"/><path class="cls-10" d="M78,59.56a10.8,10.8,0,0,1,2.38,2.75c.7.93,1.54,1.74,2.31,2.62,1.37,1.58,2.72,3.18,4.11,4.75.33.38.76.67.62,1.27-.48-.43-1-.84-1.43-1.28-1.2-1.15-2.4-2.3-3.56-3.48-.56-.58-1-1.24-1.57-1.84-.69-.75-1.42-1.47-2.08-2.25a11.36,11.36,0,0,1-.83-1.29c0-.17,0-.34,0-.51l-.35.12-.09-.15C77.66,60,77.82,59.79,78,59.56Z"/><path class="cls-11" d="M21,9.37l.26.22c.09.15.2.44.28.43.75,0,.45.39.38.73s.13.47.2.71l-.67,1.16c-.67.21-.45.51-.09.83-.08.56-.17,1.12-.24,1.68a4.2,4.2,0,0,0,0,.87c.06.43.17.85.28,1.42l.21,0c.47.8.91,1.5,1.3,2.23a6.17,6.17,0,0,1,.31,1.06c-2.55-1.51-3.22-4-3.44-6.71C19.65,12.38,20.48,10.88,21,9.37Z"/><path class="cls-12" d="M33.54,49.61c-.34.31-.27.54.11.77a8.25,8.25,0,0,1,.87.69c-.47.13-.84.13-1.05.31s-.22.54-.35.9c-.62-.11-.83-.67-1-1.23a3.86,3.86,0,0,1,.75-.43l-1.59-1.34a12.78,12.78,0,0,1-1.13.87.58.58,0,0,1-.51,0c-.08,0-.13-.37-.07-.42,1.31-1.06.44-1.84-.3-2.66-.39-.44-.76-.92-1.14-1.38l-.9,1.94-.75-1.12L28,45.24l-.27-.74c.34.27.7.52,1,.81,1.23,1.13,2.45,2.28,3.69,3.41C32.76,49,33.16,49.32,33.54,49.61Z"/><path class="cls-13" d="M57.89,72.18a9.09,9.09,0,0,0-1.36-.27c-.85-.07-1.19-.78-1.68-1.29-.32-.33-.56-.68-1.16-.67-.33,0-.64-.52-1-.64-.66-.21-.36-.57-.29-1,0-.17-.13-.38-.24-.56s-.42-.6-.68-1c-.94-.14-1.15-.52-.77-1.47,1.23,1.09,2.48,2.15,3.69,3.26s2.21,2.14,3.3,3.22A1.68,1.68,0,0,1,57.89,72.18Z"/><path class="cls-14" d="M35.51,56.3c-.52.51,0,.87.29,1,.77.29.94.52.65,1.33a11,11,0,0,1-3.27-3.46,5.65,5.65,0,0,0-1-1.35c-.84-.89-1.7-1.76-2.6-2.58-.61-.56-1.31-1-2-1.54a5.23,5.23,0,0,1-.54-.61l.54-.47.55.56-.12.46.5-.09c1.56,1.55,3.11,3.1,4.68,4.64.19.19.48.29.68.47s.54.55.81.83a2.68,2.68,0,0,0-.07.27l.32,0Z"/><path class="cls-15" d="M55,38.47c.39-.34.7-.23.9.19s.34.46.64.16c.6.62,1.16,1.28,1.79,1.86s1.45,1.1,2.1,1.72c1,1,2,2,3,3C64,46,64.67,46.46,65.3,47c.13.11.11.38.16.59Q63.75,46.18,62,44.74c-1.26-1-2.46-2.15-3.79-3.09A29,29,0,0,1,55,38.47Z"/><path class="cls-1" d="M29.56,6.68c-.32-.08-.64-.19-1-.24s-.83-.1-1.25-.14l-.11-.09h-.48l-.35-.35c0-.21.08-.5,0-.61a.87.87,0,0,1,0-1.45c.72-.63,1.46-1.24,2.24-1.81a2.77,2.77,0,0,1,.9-.24c.47.35.17.66-.05,1L28.66,3.9l.2.18-1,.24.45.84L29,5l.42,1.13Z"/><path class="cls-1" d="M22.92,32c-.51-.29-1.33-.16-1.37-1.06s-.08-1.8-.13-2.7a2.63,2.63,0,0,0-.15-.63,7.91,7.91,0,0,0-.55-1.55,12.75,12.75,0,0,0-1.21-1.54s.19-.2.35-.39a4.8,4.8,0,0,1,2.22,3.09,11.75,11.75,0,0,0,.8,2.41,7.1,7.1,0,0,0,.63,1Z"/><path class="cls-14" d="M2.64,24.8c.3.67.63,1.28-.21,1.9a4.61,4.61,0,0,0-.93,1.41c-.08.13-.15.4-.08.46.82.81.16,1.48-.17,2,.19.34.48.61.46.84-.06.57-.53.78-1.07.8a24.41,24.41,0,0,1-.16-2.83C.55,28.24.45,27,1.31,26A11.55,11.55,0,0,1,2.64,24.8Z"/><path class="cls-15" d="M78,59.56c-.16.23-.32.47-.47.71l-3.1-3.43c-.78-.87-1.55-1.74-2.36-2.58-1.2-1.23-2.42-2.43-3.62-3.65A4.16,4.16,0,0,1,68,50l.65.42,1.36.88a9,9,0,0,0,.69.9c.77.83,1.56,1.63,2.34,2.44.55.57,1.09,1.15,1.79,1.89.76.05,1.82,1.18,2.06,2.47Z"/><path class="cls-10" d="M87.61,71.16c.44-.47.82-.26,1.17.12,1.15,1.23,2.39,2.38,3.43,3.69,1.65,2.07,4,3.3,5.86,5.11a4.28,4.28,0,0,1-.8-.31,29.76,29.76,0,0,1-5.51-4.29c-1.26-1.34-2.5-2.7-3.76-4A2.76,2.76,0,0,0,87.61,71.16Z"/><path class="cls-16" d="M72.28,93.51c.72.78,1.41,1.6,2.19,2.34a15.31,15.31,0,0,0,2,1.52c.67.46,1.39.83,2,1.29.2.14.26.44.35.59l.9,0a.88.88,0,0,1-1.35.26c-1.75-1.26-3.45-2.62-5.17-3.93-.75-.58-1.53-1.13-2.29-1.7C71.45,94,72,94.08,72.28,93.51Z"/><path class="cls-17" d="M29.52,1.76a2.77,2.77,0,0,0-.9.24c-.78.57-1.52,1.18-2.24,1.81a.87.87,0,0,0,0,1.45c.11.11,0,.4,0,.61l-1.12-1c.08-.14.26-.34.22-.41-.38-.58,0-1,.19-1.54a3.65,3.65,0,0,0,0-1.32l1.54-.56.48,1C29.16,1,29.16,1,29.76,1.47Z"/><path class="cls-9" d="M29.44,24.08A2.28,2.28,0,0,1,31,23.17c.28,0,.53-.29.91-.52l.32.58.56-.31.39.77.7-.7.67,1.09A6.23,6.23,0,0,1,29.44,24.08Z"/><path class="cls-13" d="M47.84,62.41l-.22.88a5,5,0,0,1-.62-.77c-.28-.52-.57-.57-1-.13-.13.14-.47.31-.51.26-.27-.26-.2-.45.13-.69.15-.11.17-.58.07-.82a8.42,8.42,0,0,0-.78-1.3c-1.15-.19-1.66-.79-1.39-1.77.95.89,1.93,1.77,2.86,2.69C46.91,61.28,47.36,61.86,47.84,62.41Z"/><path class="cls-18" d="M65.05,85.1l.3.38c.19.59.37,1.19.55,1.77l.55-.09,0,1.88.24,0,.67-.6,0,1.2H66.8l-3.36-4.81.73.09C64.46,85,64.76,85,65.05,85.1Z"/><path class="cls-19" d="M24,45l1,1,1.55,1.72c-.17.23-.33.47-.49.71l-3.86-3.84.62-.62a5.5,5.5,0,0,0,.55.91C23.48,45,23.77,45,24,45Z"/><path class="cls-18" d="M49.41,69.23l-1,.8c.12.06.3.27.46.26,1-.07.94.94,1.46,1.35.06,0-.11.39-.17.6-1.14-1.18-2.31-2.34-3.38-3.58-.28-.31-.26-.86-.38-1.31l1.38.3-.2.13a5.66,5.66,0,0,0,.51,1.45c.07.11.7-.14,1.08-.23Z"/><path class="cls-20" d="M25.69,1.64a3.65,3.65,0,0,1,0,1.32c-.22.53-.57,1-.19,1.54,0,.07-.14.27-.22.41a1.93,1.93,0,0,1-1-2C24.3,1.94,24.68,1.67,25.69,1.64Z"/><path class="cls-9" d="M49.18,69c-.38.09-1,.34-1.08.23a5.66,5.66,0,0,1-.51-1.45l.2-.13-1.38-.3c-.16-.15-.31-.31-.46-.47.11-.35.22-.71.32-1.06A8,8,0,0,1,49.18,69Z"/><path class="cls-17" d="M23.49,6.46A3.87,3.87,0,0,1,22.14,7a1.36,1.36,0,0,0-1.39.83c0-.45-.22-1.17,0-1.3.51-.35,1-1.15,1.83-.55A7.47,7.47,0,0,0,23.49,6.46Z"/><path class="cls-18" d="M54.2,76.57l.74-.5L55,77.23l1.08-.07c.46.61.87,1.11,1.23,1.63a2,2,0,0,1,.15.61A9.71,9.71,0,0,1,54.2,76.57Z"/><path class="cls-14" d="M.5,32.71l.82-.08.46,0a7.26,7.26,0,0,0-.66.91,2.18,2.18,0,0,0,0,.73c0,.19.08.39.11.58l.23.24-.47.7a12.31,12.31,0,0,1-.94-2C-.07,33.48.33,33.07.5,32.71Z"/><path class="cls-14" d="M29.76,1.47c-.6-.48-.6-.48-2.05.64l-.48-1A5.58,5.58,0,0,1,30.5.61l.2.21Z"/><path class="cls-18" d="M60.41,81.78l1.35.34,1.73,1.74-.27.77Z"/><path class="cls-19" d="M72.28,93.51c-.32.57-.83.53-1.36.42-.14-.18-.28-.35-.41-.53l.61-.11.06-.31-1.28-.35-.46-.47.76-.74Z"/><path class="cls-12" d="M36.92,52.53a4.25,4.25,0,0,1-.8,0c-.58-.14-1.14-.32-1.84-.51l.63-1.19Z"/><path class="cls-18" d="M70.2,91.42l-.76.74c-.93,0-1-.82-1.49-1.32l.71-.24h0c.31.19.6.4.93.57.07,0,.22-.1.34-.16Z"/><path class="cls-21" d="M39.26,24.28c.44-.06,1-.33,1.29-.14a5.75,5.75,0,0,1,1.28,1.48c.05.07-.08.29-.13.44Z"/><path class="cls-7" d="M1,35.75l.47-.7.45.76-.18.12c.89.64,1,.93.42,1.69Z"/><path class="cls-17" d="M30.7.82,30.5.61c.86-.63,1.84-.26,2.77-.3-.08.46-.21.71-.81.54A6.46,6.46,0,0,0,30.7.82Z"/><path class="cls-13" d="M58.81,73.15c-.08.25-.14.5-.23.74a2,2,0,0,1-.27.59.46.46,0,0,1-.42-.07.89.89,0,0,1-.07-.56c.09-.48.21-.95.32-1.42Z"/><path class="cls-13" d="M43.3,57.85c-.3.29-.71.71-1,.19s-1.23-.65-.38-1.35Z"/><path class="cls-19" d="M63.22,84.63l.27-.77c.89-.06,1.19.64,1.56,1.24-.29-.06-.59-.12-.88-.16l-.73-.09Z"/><path class="cls-18" d="M50.55,72.76a1,1,0,0,1,1.4.32c.14.17,0,.6-.07.92Z"/><path class="cls-9" d="M45.43,64.58l.63,1-.42.71-1-1Z"/><path class="cls-7" d="M13,21l-1.09.52-.28-.66-.84-.24A2.37,2.37,0,0,1,13,21Z"/><path class="cls-14" d="M3.39,23.94c.7.37.71.94,0,1.52l-.48-1.05Z"/><path class="cls-17" d="M35.47,1.29,33.3.31C34.3,0,34.78.88,35.47,1.29Z"/><path class="cls-7" d="M2.79,38.42l.55-.92c0,.75.86,1.08.21,1.73Z"/><path class="cls-7" d="M3.92,39.55l1.71,1.1C4.8,40.7,4.39,40.08,3.92,39.55Z"/><path class="cls-18" d="M58.4,80.3l1-.36c.05.4.1.75.15,1.1Z"/><path class="cls-16" d="M69.9,92.63l1.28.35-.06.31-.61.11Z"/><path class="cls-12" d="M26.29,45l.57-1,.38.3C27.05,44.63,27,45.18,26.29,45Z"/><path class="cls-9" d="M35.49,23.9l.37-.64,1,.39Z"/><path class="cls-22" d="M24.61,7l-.41.66c-.62-.14-.54-.5-.29-.91Z"/><path class="cls-20" d="M27.6,7.49a8.51,8.51,0,0,1,1,.64c.07.06,0,.34-.07.52Z"/><path class="cls-1" d="M46.5,25.22l-.46.67a.67.67,0,0,1,0-1.12Z"/><path class="cls-14" d="M67.64,90.17l0,0s0-.07,0-.1c.26-.34.57-.47.87-.1a2,2,0,0,1,.18.68h0l-.35-.34Z"/><path class="cls-18" d="M45.43,64.58l-.74.77-.28-.24c.21-.28.43-.55.65-.83Z"/><path class="cls-14" d="M26.07,48.45c.16-.24.32-.48.49-.71.12.34.23.69.35,1l-.11.15Z"/><path class="cls-18" d="M45.64,66.3l.42-.71.21.23c-.1.35-.21.71-.32,1.06Z"/><path class="cls-20" d="M27.23,6.21l.11.09.5.38-.43.54-.33-.4Z"/><path class="cls-14" d="M4.77,23.65a5.54,5.54,0,0,1,.11.56,2.63,2.63,0,0,1-.36.08c0-.2-.09-.41-.14-.62Z"/><path class="cls-14" d="M5.75,22.56l.54.34-.89.48C5.52,23.1,5.63,22.83,5.75,22.56Z"/><path class="cls-12" d="M49.13,63.92l-.29.43-.26-.06.2-.73Z"/><path class="cls-15" d="M66.31,48.36l.74.67Z"/><path class="cls-13" d="M50,64.71l-.12.1-.12-.12-.36-.56Z"/><path class="cls-19" d="M68.31,90.26l.35.34-.71.24-.24-.42Z"/><path class="cls-9" d="M27.23,6.21l-.15.61-.33-.6Z"/><path class="cls-14" d="M36.68,58.85l.48-.18v.42Z"/><path class="cls-17" d="M26.8,48.92l.11-.15.67-.16-.54.47Z"/><path class="cls-15" d="M54.25,37.77l.47-.06c0,.14-.07.27-.1.41Z"/><path class="cls-13" d="M48.56,63.3l-.44-.49Z"/><path class="cls-18" d="M68.31,90.26l-.6.16-.07-.25Z"/><path class="cls-15" d="M77.6,60.42,78,60.3c0,.17,0,.34,0,.51Z"/><path class="cls-14" d="M66.8,89.66h.49l.32.36s0,.06,0,.1Z"/><path class="cls-9" d="M36.92,23.65c.25-.35.48-.32.7,0Z"/><path class="cls-12" d="M37.61,53l-.24-.2Z"/><path class="cls-13" d="M59.57,74l-.24-.25Z"/><path class="cls-19" d="M67.61,90l-.32-.36c0-.32,0-.65,0-1.2l-.67.6-.24,0,0-1.88-.55.09c-.18-.58-.36-1.18-.55-1.77L69.93,91c-.12.06-.27.19-.34.16-.33-.17-.62-.38-.93-.57a2,2,0,0,0-.18-.68C68.18,89.55,67.87,89.68,67.61,90Z"/><path class="cls-12" d="M49.75,64.69l.12.12.22.63-.12.07-.88-.89Z"/><path class="cls-12" d="M48.72,65.4c.17,0,.3,0,.35.06s0,.18,0,.28-.22,0-.3,0S48.75,65.55,48.72,65.4Z"/><path class="cls-12" d="M27.5,47.71c.17,0,.29,0,.35.09a.25.25,0,0,1,0,.25.29.29,0,0,1-.27,0C27.49,48,27.52,47.86,27.5,47.71Z"/><path class="cls-17" d="M28.51,49.54l-.5.09.12-.46Z"/><path class="cls-9" d="M34.93,55.71l-.32,0a2.68,2.68,0,0,1,.07-.27Z"/><path class="cls-5" d="M29.56,6.68l-.12-.58c.08.16.15.33.22.49A.22.22,0,0,1,29.56,6.68Z"/><path class="cls-4" d="M8.56,27.68,7.07,28.94c-.53-.51-.31-1,.2-1.36Z"/><path class="cls-1" d="M21.39,13.45c-.36-.32-.58-.62.09-.83l1.18-.37c.38.52-.43.88-.6,1.42Z"/><path class="cls-23" d="M2.36,32.48c0-.23-.07-.53.05-.66.5-.59,1-1.12,1.59-1.68l2.08-.93.21.09c-.94,1.09-.2,1.71.51,2.3-.52,1-.24,1.58,1.16,1.82.82.14.84.49.7,1.16l-1.08-.27-.12,1.42,1-.28-.53,1.06,1,.49-.09.22-.7,0c.12.23.17.48.28.51a5.19,5.19,0,0,0,1.12.12c1,0,1,0,2.06.95a5.4,5.4,0,0,0-.82.32c-.11.07-.13.28-.19.43A21.19,21.19,0,0,0,8,38.83c-1.13-.17-1.86-1-2.8-1.42-1.37-.55-2-1.67-2.69-2.7a1.38,1.38,0,0,1-.06-1.94S2.39,32.58,2.36,32.48Z"/><path class="cls-23" d="M3.4,28.16A.71.71,0,0,1,3.64,27a9.71,9.71,0,0,0,1-.79l1,.07c.43.89.17,1.45-.78,1.52,0,.07.06.15.11.19s.4.3.6.45c-.2.15-.41.43-.61.42a1,1,0,0,1-.74-.39C4,28,3.84,27.75,3.4,28.16Z"/><path class="cls-22" d="M26.06,9.46C26.7,9,26,8.74,25.7,8.2c.74.44,1.55.36,1.64,1.28,0,.07.14.16.24.19.89.34,1.34.86.69,1.81.94.13,1.17-.22,1.07-1.5.53.23,1.19-.62,1.64.47.09-.35.14-.54.2-.73.12.42.27.82.35,1.24s.08.93.21,1.36a7,7,0,0,0,.53,1.13,5.48,5.48,0,0,1-1.57.43,3.38,3.38,0,0,1-1.69-.5,6.65,6.65,0,0,1-1.31-1.52C27.13,11.08,26.61,10.26,26.06,9.46Z"/><path class="cls-4" d="M22,10.75c.07-.34.37-.78-.38-.73-.08,0-.19-.28-.28-.43l1.09-1.31.31.1.69,2.46Z"/><path class="cls-7" d="M1.19,34.81c0-.19-.07-.39-.11-.58.42-.11.79-.11,1,.49Z"/></g></svg>