<svg xmlns="http://www.w3.org/2000/svg" viewBox="0 0 100 100"><defs><style>.cls-1{fill:#96c5c7;}.cls-2{fill:#5ea7a9;}.cls-3{fill:#66abad;}.cls-4{fill:#a1cbcd;}.cls-5{fill:#5ca5a8;}.cls-6{fill:#93c4c5;}.cls-7{fill:#6caeb0;}.cls-8{fill:#9dc9cb;}.cls-9{fill:#80b9ba;}.cls-10{fill:#82babc;}.cls-11{fill:#72b2b3;}.cls-12{fill:#8fc2c3;}.cls-13{fill:#a6ced0;}.cls-14{fill:#99c7c8;}.cls-15{fill:#7ab6b7;}.cls-16{fill:#86bcbe;}.cls-17{fill:#88bebf;}.cls-18{fill:#b0d3d5;}.cls-19{fill:#aad0d2;}.cls-20{fill:#78b5b6;}</style></defs><g id="Ebene_2" data-name="Ebene 2"><path class="cls-1" d="M69.13,38.58a22.87,22.87,0,0,1-2.44.86,10.31,10.31,0,0,0-5,2.51,4.33,4.33,0,0,1-2,.82c-1.79.36-1.8.32-1.9,2.21,0,.16,0,.32,0,.48s-.3.38-.44.58c-.42.64-.93,1.87-1.23,1.82-1-.17-1.34.77-2,1l-.24-1c0-1.26-.74-.89-1.41-.72-.11-.44-.22-.88-.32-1.33,1.38-1.44,1.69-2.2,1-3.27a2.77,2.77,0,0,1-.19-3.42,11.41,11.41,0,0,1,2.1-.55,14.44,14.44,0,0,0,5.71-1.82c1.86-1,2.75-2.2,2.52-4-.2-1.55-1.62-2.11-2.63-3.34a15.11,15.11,0,0,1-.88,1.86c-.3.42-1,1.09-1.11,1-1.14-.89-2.76-1.7-3.13-2.9s.59-2.69,1.05-4c.24-.7.11-1.06-.6-1a7.8,7.8,0,0,0-1.89.52c-1,.42-2,.91-2.92,1.37a2,2,0,0,1-.13-.78,3.43,3.43,0,0,1,.5-.8,1,1,0,0,0-.26-1.51c-.55-.37-.87-.28-1.41.16a15.68,15.68,0,0,1-2.61,1.44c-.06-.5-.09-1-.17-1.51-.25-1.6-.56-2-2.12-1.77a38.67,38.67,0,0,0-5,1.41c-.21-.14-.41-.38-.62-.38a14.57,14.57,0,0,0-1.75.16v-3c0-.15,0-.38.13-.44a30.3,30.3,0,0,1,4.75-2.82,5.94,5.94,0,0,1,4.68,0c.43.2.83.48,1.49.86l-1,.38,3,4.7c.23-.15.75-.43,1.22-.78a6.81,6.81,0,0,1,5.63-1.08,1.36,1.36,0,0,1,.82.61c1,2,2.07,3.72,4.69,3.92,1.93.14,3.33,1.66,4.2,3.29.52,1,.35,2.36.45,3.56,0,.57-.07,1.17.78,1.13-.54.59-1,1.63-1.64,1.69-2,.19-1.76,1.91-2.27,3.1-.07.15.33.51.52.76,0,0,.13,0,.25-.1l-.07-.83ZM54.22,46l-.67.11.15.29.52-.41.06-.1Zm2.38-.3.46-.14-.37-.93-.36.13ZM56.2,47c-.22-.12-.35-.24-.46-.23s-.25.23-.22.28a.49.49,0,0,0,.31.27C55.91,47.28,56,47.11,56.2,47Z"/><path class="cls-2" d="M54.79,79.74c0,.15.05.3.07.45-.38.75,0,1.2.71,1.73l.22-1.11.09-.88.19-1c.34-.86.68-1.72,1-2.58.15-.32.29-.64.44-1a1.27,1.27,0,0,1,.13-.19c.11-.42.21-.84.32-1.26h0l1.94-.87,0,0c.92-.23,1.31.43,1.24,1.1a15.64,15.64,0,0,1-.83,4.22A8.15,8.15,0,0,0,60.22,83c0,.16,0,.31,0,.47-.94.58-.63,1.45-.48,2.27,0,.21-.07.43-.1.64l-.16.31c-.25,2.39-.41,4.79-.79,7.16a25,25,0,0,1-1.17,3.78l-.15.34a.16.16,0,0,1,0,.15l-2.89,1.21-.89-.78a7.37,7.37,0,0,0,.06-1.81,22.66,22.66,0,0,0-.83-2.53v-.33l-.18-1.75A49.77,49.77,0,0,0,49.7,79l-.2-.3-.73-1.63-.24-.53.21-1.38,2.12-1.12a4,4,0,0,1,2.23,3c0,.19.44.28.67.42l.5.91.2.3a.3.3,0,0,1,.07.15C54.62,79.18,54.7,79.46,54.79,79.74Z"/><path class="cls-3" d="M23.33,62.46c-.23,3.15-.59,6.29-.67,9.45-.11,4.38,0,8.77,0,13.16,0,1.19,0,2.38-.09,3.56,0,.47.21,1.31-.83,1.09-.06,0-.25.28-.27.45-.11,1-.16,2-.28,2.93-.22,1.73-.49,3.45-.74,5.17l-.6.11a6.71,6.71,0,0,1-.93-1.55A20,20,0,0,1,18.51,88a11.22,11.22,0,0,0-.33-3.75A38.43,38.43,0,0,1,18,76.68c.06-2.73,0-5.46.13-8.19.07-1.69.36-3.38.55-5.07l-.11-.76-.07-.07c-.1-1.65.81-4.05,1.8-4.07,1.42,0,2-1.31,3.19-1.65l1.43,2.53-1.39,2.07Z"/><path class="cls-4" d="M52,45.81c.1.45.21.89.32,1.33v1h0l-2.27.84v1.71l-.86-.12-2.2-1-.45-.76-.32,0a24.9,24.9,0,0,0-.51,2.82c-.12,1.62-1.69,3.66-3.25,3.77a39.8,39.8,0,0,1-5.46,0c-.77,0-.89,0-.92.82,0,.58-.54,1.14-.88,1.81,1.89.69,4,1.24,5.11,3.22-.15,0-.36,0-.44.14-.23.32-.42.68-.62,1a4.35,4.35,0,0,0,1.21.25,14.17,14.17,0,0,0,1.86-.4l.27,1.16c-.8-.13-1.59-.51-2.06-.27s-.68,1.13-1,1.83a11,11,0,0,0-.71-1.69,2.52,2.52,0,0,0-1.11-1c-.2-.07-.61.45-.93.71l-1.38-1c.65-1.71-.94-.58-1.22-1.18l-.5,1.4-1.87-.75L32.71,60a8.87,8.87,0,0,1-7.48-.64c.22-.79.41-1.54,1.29-.41.19.24.82.23,1.22.17a5.88,5.88,0,0,0,1.27-.5c.9.67,1.86,0,2.79.07.54,0,1.1-.43,1.65-.67l-.09-.27H32l-.54-2.25-.35,0c-.23.47-.65.94-.66,1.42,0,1.09-.63,1.23-1.46,1.21l-1.8-1.3.14-1.06a4.46,4.46,0,0,0,3.32-1.17l.11.67c.42-.35.74-.63,1.07-.88s.55-.36.82-.54l.59.93-1.21.62c2,.93,3.35-.65,4.89-.44.06,0,.13-.07.2-.12l0-.63c1.52-1.46,2.69-.16,3.7.36l1.07-1.72-.62-1.44a4,4,0,0,0,1.68-4.52c-.39-1.54-2.27-3.81-3.8-4.14-1-.23-2.1-.41-3.45-.67a8.12,8.12,0,0,1,1.23-1.69,4,4,0,0,1,5,.07,10,10,0,0,1,3.63,5.19C47.74,46.17,49.88,46.79,52,45.81ZM31.47,60v-.33l-.7.11,0,.22Zm.77-.37c.07-.09.19-.18.18-.24s-.16-.21-.2-.19a1.25,1.25,0,0,0-.27.25Z"/><path class="cls-1" d="M36.75,63c.32-.26.73-.78.93-.71a2.52,2.52,0,0,1,1.11,1A11,11,0,0,1,39.5,65c.37-.7.56-1.57,1-1.83s1.26.14,2.06.27l-.27-1.16a14.17,14.17,0,0,1-1.86.4,4.35,4.35,0,0,1-1.21-.25c.2-.34.39-.7.62-1,.08-.1.29-.1.44-.14h0c.13.78.53.91,1.16.5.51,0,1-.12,1.52-.11A5.88,5.88,0,0,1,47,63.5c.86.81.13,1.87,0,2.82,0,.45,0,.91-.12,1.36a4.4,4.4,0,0,1-.42,1.61c-.67,1,.26,1.68.38,2.51,0,.32.72.63.67.85a20.18,20.18,0,0,1-.8,2.5l-.82-.65-.26.09L46,76.37h0a3.6,3.6,0,0,0-3.57.76.7.7,0,0,1-.54.1c-1.25-.17-.81.58-.7,1.41l2-1.24a1.1,1.1,0,0,1-.31.84,9.54,9.54,0,0,1-.72.7l-.65.31-1.36-.43-1.29,1c-.33,0-.76,0-1-.13-1.33-1-2.79-1.9-3.08-3.91-.09-.62-1.2-1.21-2-1.58-1.63-.81-2.91-1.8-3-3.83,0-1.21-.9-2.43.06-3.63l.25.25c.27.93.55,1.86.83,2.8l.28,0c.06-1,.3-1.76,1.41-1.81,0,.67,0,1.35.08,2,.08.92,1.19,1.73,1.89,1.37a9.23,9.23,0,0,0,1.3-1,1.78,1.78,0,0,1,2.52-.08c-1.49,1-1.39,2.44.19,2.7a3.09,3.09,0,0,0-.14.93,10.45,10.45,0,0,0,.76,2.83c.1.2,1.35-.22,2.07-.36l.1-.05c2-.92,2.68-2.41,1.8-4.36-.22-.5-.92-.83-1.47-1.1-.94-.45-1-.68-.25-1.38a8,8,0,0,1,1.11-.64c.22-.14.53-.24.65-.44a24.7,24.7,0,0,0,1.23-2.26c.12-.25.2-.68.07-.85s-.63-.51-.86-.43A10.36,10.36,0,0,0,41.17,66a1.68,1.68,0,0,1-2.54-.68l-.26-.46L37.7,64l-.5-.51ZM32,69.81l-.2-.08c0,.06-.1.15-.08.19s.12.07.19.1Z"/><path class="cls-5" d="M69.13,38.58l-3.95-.85.07.83c-.12.06-.24.12-.25.1-.19-.25-.59-.61-.52-.76.51-1.19.23-2.91,2.27-3.1.59-.06,1.1-1.1,1.64-1.69a31.55,31.55,0,0,0,.91-5.31c0-1.63.07-3.1,1.22-4.35l.16-.31a.34.34,0,0,1,0-.17c.44-1.77,1.59-3.47.81-5,.29-2.77.55-5.15.81-7.53l.47-.26.49.76.37-.16-.29-1.15V8.6l.92-.14-1-.58.24-.72.79,0,.23.43c0,.47,0,.93,0,1.4s.06,1.22.08,1.83c.07.16.14.32.2.49s0,.45.08.68l-.08.07a1,1,0,0,0,.08.18l.06.43c0,.2,0,.41,0,.61l0,.86.1.5L75.22,16c0,.24,0,.49,0,.73s.07.69.1,1,0,.77,0,1.16l0,.51c-.81.84-.12,1.36.41,1.91,0,.37.13.73.15,1.09.06,1,.09,1.95.13,2.92-1.2.34-.68-.91-1.3-1.32a3.07,3.07,0,0,0-.26,1.6c.19.87.92.57,1.51.51-.08.38-.17.77-.26,1.16l-.49.73L75,27.3a2,2,0,0,0-1.34,2.24,4.1,4.1,0,0,1-1.38,3.58c-1.58,1.24-1.7,2.94-2.06,4.63Z"/><path class="cls-6" d="M29,58.63a5.88,5.88,0,0,1-1.27.5c-.4.06-1,.07-1.22-.17-.88-1.13-1.07-.38-1.29.41l-.36,0-1.43-2.53c-1.15.34-1.77,1.61-3.19,1.65-1,0-1.9,2.42-1.8,4.07-2.61.4-5.39-1.76-6.2-4.19-.25-.74-.58-1.45-.87-2.17l2.86.52-2.72-2.32h1.14c.58-1.31,1.08-2.52,1.67-3.68.21-.42.64-.78,1.09-.15a1.64,1.64,0,0,1-.2.55,3.29,3.29,0,0,0,0,4.63c.17.21.24.5.39.73a1.57,1.57,0,0,0,2.3.7,4.57,4.57,0,0,0,1.79-1.78c1.11-2.57,2-5.23,3.06-7.83a26.35,26.35,0,0,1,1.41-2.54,29.26,29.26,0,0,1,1.79,3.23c.62,1.58,1.55,3.08,1,5-.21.75-.56,1.83.38,2.53l-.14,1.06,1.8,1.3Z"/><path class="cls-7" d="M67.39,47.23l2.14-1.06a12.31,12.31,0,0,1,1.7-.2c1.38,0,2.76.11,4.15.17.05,0,.1-.1.14-.13l-.54-.9,1.15.16c0,.5,0,.82.7,1,.87.19,2,.24,2.17,1.52,0,.12.39.3.5.25a.62.62,0,0,0,.29-.54c-.16-.83-.39-1.64-.59-2.46l1.16.19,1.53.46L83,46c.62,2.82,1.33,4.07,3.66,3.25l-.32,2.23c.16.24.35.57.58.86s.45.66.74.72a7.45,7.45,0,0,0,1.64,0c.08.22.27.47.22.64-.38,1.18-.8,2.34-1.22,3.51-.26.73-.72.86-1.18.24-.88-1.17-1.7-2.4-2.54-3.61-.3-1.77-1.68-2.7-2.94-3.62-.8-.58-1.81-1.17-2.91-.47-.78-.18-1.56-.38-2.35-.53a.81.81,0,0,0-.66.11c-1.61,1.66-3.52.73-5.34.72a1.7,1.7,0,0,0-1.14.5c-.6.65-.75.25-.91-.3L68.16,50l-.24-.33-1.64-1.6.12,1.69a2.09,2.09,0,0,1-.18-2.85h0Z"/><path class="cls-4" d="M11.3,40.19c1-1.12,2-2.26,3.06-3.34a36.63,36.63,0,0,0,2.69-2.59c1.21-1.54,2.9-1.69,4.58-1.92,1-.13,2-.17,3-.25l.56,2.81c0,.07-.21.34-.37.6-1.34.23-2.69.42-4,.69a2.87,2.87,0,0,0-1.24.6c-1.67,1.43-3.29,2.9-4.93,4.36-1.36.41-1.46.35-1.56-1Z"/><path class="cls-8" d="M55.36,54.06c.28-.16.55-.44.84-.47,2.67-.35,3.94-.18,4.51,2.79.36,1.85.68,3.65-.5,5.39a3.68,3.68,0,0,1-5,1.46c-.49-.25-1-.69-1.27.19l-1.05-1,2.6-1.15V59.82l.61.34c.77.44,1.1-.15,1.3-.68s.44-1.29-.58-1.38c-.12-.43-.44-1-.31-1.29C57,55.46,56.26,54.76,55.36,54.06Z"/><path class="cls-9" d="M55.47,59.82v1.44l-2.6,1.15,1.05,1L54,64c-.18,0-.43.07-.51,0-.89-.94-2.16-1.77-2.52-2.9a10.25,10.25,0,0,1-.15-4.68c.22-1.29,1.44-1.7,2.76-1.67a4.94,4.94,0,0,0,1.74-.69c.9.7,1.66,1.4,1.13,2.75-.13.34.19.86.31,1.29C56.09,58.46,55.13,58.62,55.47,59.82Z"/><path class="cls-8" d="M66.22,46.92a2.09,2.09,0,0,0,.18,2.85l-.12-1.69,1.64,1.6c-.83,0-1.47.19-1.59,1.3a2,2,0,0,1-1,1.34c-1.74.78-3.48,1.43-5.43.31-1.22-.7-2.47-1.19-2.6-2.84l1-1,.7.24c-.24,1.16-.12,1.29,1,.95h.45a2.24,2.24,0,0,0,2.71.5,2.41,2.41,0,0,0,.1-3.11c.14-.14.42-.33.39-.42-.28-.86-.5-1.64.66-2,.13,0,.11-.58.15-.88C65.8,44.45,65.79,45.83,66.22,46.92Z"/><path class="cls-10" d="M37.48,19.79v3a14.57,14.57,0,0,1,1.75-.16c.21,0,.41.24.62.38-.68.5-1.85,1-1.92,1.53-.1.91-.64,2,.11,2.95a8,8,0,0,1,.76,2c-.74-.33-1.29-.41-1.59-.73-1.05-1.17-2-2.41-3-3.63l-.71-.44-2.27-.34a5.14,5.14,0,0,1,.4-1.33c.62-.93,1.31-1.81,2-2.7l.83,0h.48l.93.16.49.08Z"/><path class="cls-8" d="M11.3,40.19H13c.1,1.31.2,1.37,1.56,1,0,.24,0,.48,0,.72-.55,0-1.14,0-.71,1l.77-.74.23.6c0,.07-.05.14-.08.22-.11.3-.22.61-.34.92l.41.11c.07-.32.16-.64.23-1a1.81,1.81,0,0,0,0-.23c1.75.53,3.52,1,5.23,1.64.42.15,1,.92.92,1.18-.33.92-.66,2-1.92,2.1-.39-1.22-.69.28-1.23-.09-.46-.61-1-1.38-1.62-2.16-.27-.37-.51-.75-.76-1.13-.11.47-.21.94-.31,1.41a2.62,2.62,0,0,0,0,.4l-.82.07a2.57,2.57,0,0,0-2.9-1.4l-.41-.48c-.06-.53-.13-1.07-.2-1.6-.34-.42,1.18-.86-.23-1.3Zm2.07,3.3c-.06,0-.14-.09-.19-.07s-.06.12-.09.18.15.1.19.08S13.35,43.56,13.37,43.49Z"/><path class="cls-10" d="M15.36,18.4l.67.54.7.69v0l.3,1.23c-.13,3.24-2.75,4.85-5.28,3.2A1.72,1.72,0,0,1,11,23a12.4,12.4,0,0,1,.22-3.56c.14-.49,1.12-.74,1.72-1.1l1.18,1.27Z"/><path class="cls-11" d="M81.05,33.67c-.27,1.29-.54,3.07-1,4.77-.15.52-.92.87-1.46,1.22-.07,0-.62-.38-.63-.6-.07-1.41,0-2.83-.06-4.25a37.46,37.46,0,0,0-.15-4.5c-.12-.9,0-1.5.82-1.78a1.91,1.91,0,0,1,2,1.34C80.73,31,80.85,32.07,81.05,33.67Z"/><path class="cls-4" d="M11.74,44.78a2.57,2.57,0,0,1,2.9,1.4l-.38.86,1.75.32-.43,1.41L17,48.63l-.48,1.27-1.13.7c-.45-.63-.88-.27-1.09.15-.59,1.16-1.09,2.37-1.67,3.68H11.52l2.72,2.32-2.86-.52c-.1-.24-.19-.47-.28-.71.88-.46.27-.69-.15-.94A7.68,7.68,0,0,1,12.87,48a5.26,5.26,0,0,1,1.22-.78l-1.64-1.42.06-.58-.26.38Z"/><path class="cls-9" d="M53.52,1.19c.08.3.17.61.25.92-.33.55-.65,1.11-1.12,1.89.1.77.1.77-1.76.61l-.56,1.15a13,13,0,0,0-1.43-1,2.36,2.36,0,0,0-.85,0,2.31,2.31,0,0,1,.1.72c0,.2-.22.36-.34.54-.15-.23-.31-.46-.46-.7s-.39-.69-.59-1c0-.31-.08-.62-.13-.93,1.12-.39-.06-1.17.28-1.69C48.62,0,51.32-.51,53,.61Z"/><path class="cls-12" d="M24.78,35.5l.37-.6-.56-2.81c0-.25,0-.49,0-.73.66.14,1.36.25,1.65-.55.09-.26-.23-.67-.41-1.13l2.39-.24a6.77,6.77,0,0,0,.11,1.28A2.42,2.42,0,0,0,29,32a9.15,9.15,0,0,0,1.92.81V35c-1-.2-1.88-.45-2.06.81a3,3,0,0,1-.52,0l-.07.9A4.72,4.72,0,0,1,27,35.62c-.43-.73-.87-.75-1.5-.36A3.21,3.21,0,0,1,24.78,35.5Z"/><path class="cls-13" d="M47.81,6c.12-.18.31-.34.34-.54a2.31,2.31,0,0,0-.1-.72,2.36,2.36,0,0,1,.85,0,13,13,0,0,1,1.43,1l.56-1.15c1.86.16,1.86.16,1.76-.61.47-.78.79-1.34,1.12-1.89,1.35.51,1.59.91,1.41,2.35a4.7,4.7,0,0,0,0,1.06,2.55,2.55,0,0,1-3,2.72,14.57,14.57,0,0,1-2.69-.72A8.06,8.06,0,0,1,47.81,6Z"/><path class="cls-14" d="M33.59,20.27c-.66.89-1.35,1.77-2,2.7a5.14,5.14,0,0,0-.4,1.33l2.27.34,0,.44-.69.26-.21-.29-.26.56-1.65.92-4.11-1.37.1-.53h0c.23-.34.46-.68.68-1,1.49-1.17,2.93-2.4,4.49-3.44C32.21,19.9,33,20.22,33.59,20.27Z"/><path class="cls-9" d="M58.93,49.06l-.7-.24h-1l0-.71c1-.43.95-1.24.77-2.11,1.24-1.71,3.13-1.73,4.94-2h1.39c0,.3,0,.83-.15.88-1.16.4-.94,1.18-.66,2,0,.09-.25.28-.39.42l-2.66-.21c-.1.16-.29.33-.28.49,0,.78.08,1.55.13,2.33h-.45Z"/><path class="cls-11" d="M70.23,37.75c.36-1.69.48-3.39,2.06-4.63a4.1,4.1,0,0,0,1.38-3.58A2,2,0,0,1,75,27.3l.27.69.49-.73c-.27,2-.09,4.15-1.52,5.85-.1.11-.22.34-.18.41.59,1-.24,1.47-.76,1.93C72.34,36.29,71.26,37,70.23,37.75Z"/><path class="cls-14" d="M60.22,83a8.15,8.15,0,0,1,.13-4.66,15.64,15.64,0,0,0,.83-4.22c.07-.67-.32-1.33-1.24-1.1.26-.82,1-1.26,1.6-.84s2.09.52,1.65,2c-.61,2-1.2,4-1.85,6C61,81.17,60.6,82.08,60.22,83Z"/><path class="cls-15" d="M30.19,67l-.25-.25.21-.45,1.23-.81-.89-.4,0-1c.12-.43.25-.86.37-1.28l1-1.41,1.87.75.5-1.4c.28.6,1.87-.53,1.22,1.18-1.27.06-1.8.54-1.26,1.22s.19,1.11-.14,1.63L33,66.31l-.73,0L31.13,67Z"/><path class="cls-4" d="M26.65,24.63l-.1.53,4.11,1.37-.39.35c-1.08-.83-1.83-.56-2.17.86-.08.29.15.66.24,1l-.1.71-2.39.24c.18.46.5.87.41,1.13-.29.8-1,.69-1.65.55A10.64,10.64,0,0,1,26.65,24.63Zm-.9,2.54c.66.12,1.39.83,1.58-.54C26.74,26.68,26.05,25.9,25.75,27.17Z"/><path class="cls-16" d="M89.25,53.14a7.45,7.45,0,0,1-1.64,0c-.29-.06-.52-.44-.74-.72s-.42-.62-.58-.86l.32-2.23c-2.33.82-3-.43-3.66-3.25A9.67,9.67,0,0,1,88,50.2,25.37,25.37,0,0,1,89.25,53.14Z"/><path class="cls-17" d="M72.35,10.48c-.26,2.38-.52,4.76-.81,7.53.78,1.49-.37,3.19-.81,5,0-3.66,0-7.31,0-11C70.67,10.83,71.71,10.9,72.35,10.48Z"/><path class="cls-18" d="M58,46c.18.87.2,1.68-.77,2.11S55.5,49,54.59,49.4c-1.4.56-2.83,1.07-4.28,1.5-.3.1-.73-.23-1.1-.37l.86.12V48.94l2.27-.84.84,1.36.81-.64c.71-.19,1-1.13,2-1,.3,0,.81-1.18,1.23-1.82.14-.2.3-.39.44-.58Z"/><path class="cls-18" d="M78.68,49.83c1.1-.7,2.11-.11,2.91.47,1.26.92,2.64,1.85,2.94,3.62C82.36,52.88,80.18,51.85,78.68,49.83Z"/><path class="cls-19" d="M42.19,78.94a9.54,9.54,0,0,0,.72-.7,1.1,1.1,0,0,0,.31-.84l-2,1.24c-.11-.83-.55-1.58.7-1.41a.7.7,0,0,0,.54-.1A3.6,3.6,0,0,1,46,76.37C45.18,77.91,43.59,78.29,42.19,78.94Z"/><path class="cls-10" d="M79.2,45c.2.82.43,1.63.59,2.46a.62.62,0,0,1-.29.54c-.11,0-.49-.13-.5-.25-.2-1.28-1.3-1.33-2.17-1.52-.66-.14-.72-.46-.7-1Z"/><path class="cls-14" d="M53.76,77.53c-.23-.14-.63-.23-.67-.42a4,4,0,0,0-2.23-3L48.74,75.2c.37-.74.71-1.5,1.12-2.2.06-.1.53,0,.77.07C52.61,73.87,53.12,75.75,53.76,77.53Z"/><path class="cls-10" d="M75,45.11l.54.9s-.09.13-.14.13C74,46.08,72.61,46,71.23,46a12.31,12.31,0,0,0-1.7.2Z"/><path class="cls-16" d="M54.42,99.34l2.89-1.21C57.12,100.11,56.13,100.52,54.42,99.34Z"/><path class="cls-13" d="M15.36,18.4,14.1,19.61l-1.18-1.27C14,17.51,14.56,17.52,15.36,18.4Z"/><path class="cls-16" d="M52.76,94.22a22.66,22.66,0,0,1,.83,2.53,7.37,7.37,0,0,1-.06,1.81c-.2-.14-.56-.27-.57-.44C52.85,96.82,52.81,95.52,52.76,94.22Z"/><path class="cls-11" d="M76,26.1c-.59.06-1.32.36-1.51-.51a3.07,3.07,0,0,1,.26-1.6c.62.41.1,1.66,1.3,1.32C76.07,25.57,76.05,25.83,76,26.1Z"/><path class="cls-18" d="M38.89,79.84l1.29-1,1.36.43A2.57,2.57,0,0,1,38.89,79.84Z"/><path class="cls-4" d="M10.9,41.4c1.41.44-.11.88.23,1.3.07.53.14,1.07.2,1.6C10.2,43.49,10.45,42.46,10.9,41.4Z"/><path class="cls-19" d="M46,76.37l-.39-1.78.26-.09.82.65Z"/><path class="cls-14" d="M59.91,73.06,58,73.93C58.44,73.22,59,72.66,59.91,73.06Z"/><path class="cls-14" d="M55.79,80.81l-.22,1.11c-.71-.53-1.09-1-.71-1.73Z"/><path class="cls-14" d="M59.72,85.75c-.15-.82-.46-1.69.48-2.27Z"/><path class="cls-11" d="M75.8,21.3c-.53-.55-1.22-1.07-.41-1.91C75.53,20,75.67,20.66,75.8,21.3Z"/><path class="cls-13" d="M46.91,1.65c-.34.52.84,1.3-.28,1.69C46.73,2.78,46.82,2.21,46.91,1.65Z"/><path class="cls-1" d="M30.49,65.1l.89.4-1.23.81C30.26,65.9,30.37,65.5,30.49,65.1Z"/><path class="cls-6" d="M57.27,48.82h1l-1,1C57.26,49.46,57.26,49.14,57.27,48.82Z"/><path class="cls-17" d="M73.39,9.67l.29,1.15-.37.16-.49-.76Z"/><path class="cls-8" d="M64.32,44.05H63C63.42,43.36,63.87,43.36,64.32,44.05Z"/><path class="cls-4" d="M41.49,61.76c-.63.41-1,.28-1.16-.5Z"/><path class="cls-13" d="M17,20.88l-.3-1.23C17.53,19.88,17.7,20.27,17,20.88Z"/><path class="cls-16" d="M81.89,45.65l-1.53-.46Z"/><path class="cls-17" d="M73.29,7.88l1,.58-.92.14C73.35,8.36,73.32,8.12,73.29,7.88Z"/><path class="cls-17" d="M74.56,9c0-.47,0-.93,0-1.4A.82.82,0,0,1,74.56,9Z"/><path class="cls-4" d="M30.83,62.86c-.12.42-.25.85-.37,1.28C30.58,63.71,30.71,63.28,30.83,62.86Z"/><path class="cls-11" d="M75.34,18.88c0-.39,0-.77,0-1.16C75.36,18.11,75.35,18.49,75.34,18.88Z"/><path class="cls-8" d="M67.39,47.23l-1.16-.3Z"/><path class="cls-4" d="M27.32,23.61c-.22.34-.45.68-.68,1C26.87,24.29,27.1,24,27.32,23.61Z"/><path class="cls-6" d="M11,54.58c.42.25,1,.48.15.94Z"/><path class="cls-14" d="M58,73.93c-.11.42-.21.84-.32,1.26C57.76,74.77,57.86,74.35,58,73.93Z"/><path class="cls-14" d="M56.07,78.93l-.19,1Z"/><path class="cls-6" d="M23.33,62.46l.15-1Z"/><path class="cls-13" d="M46.76,4.27c.2.35.39.7.59,1C47.15,5,47,4.62,46.76,4.27Z"/><path class="cls-16" d="M52.58,92.14l.18,1.75Z"/><path class="cls-13" d="M16.73,19.63l-.7-.69Z"/><path class="cls-13" d="M53.52,1.19,53,.61Z"/><path class="cls-6" d="M18.52,62.66l.11.76Z"/><path class="cls-14" d="M57.52,75.38c-.15.33-.29.65-.44,1C57.23,76,57.37,75.71,57.52,75.38Z"/><path class="cls-14" d="M54.79,79.74c-.09-.28-.17-.56-.26-.85C54.62,79.18,54.7,79.46,54.79,79.74Z"/><path class="cls-17" d="M74.32,7.12l-.79,0Z"/><path class="cls-8" d="M12.25,45.55l.26-.38-.06.58Z"/><path class="cls-17" d="M74.84,11.27c-.06-.17-.13-.33-.2-.49C74.71,10.94,74.78,11.1,74.84,11.27Z"/><path class="cls-14" d="M48.53,76.58l.24.53Z"/><path class="cls-14" d="M36.32,20.56l-.49-.08Z"/><path class="cls-14" d="M34.9,20.32h0Z"/><path class="cls-11" d="M75.07,14.6l-.1-.5C75,14.27,75,14.44,75.07,14.6Z"/><path class="cls-11" d="M75.26,16.69c0-.24,0-.49,0-.73C75.24,16.2,75.25,16.45,75.26,16.69Z"/><path class="cls-11" d="M75,13.24c0-.2,0-.41,0-.61C75,12.83,75,13,75,13.24Z"/><path class="cls-16" d="M57.35,98l.15-.34Z"/><path class="cls-17" d="M70.68,23.14l-.16.31Z"/><path class="cls-17" d="M74.92,12.2a1,1,0,0,1-.08-.18l.08-.07Z"/><path class="cls-14" d="M59.46,86.7l.16-.31Z"/><path class="cls-8" d="M68.16,50l.12.32Z"/><path class="cls-14" d="M54.46,78.74l-.2-.3Z"/><path class="cls-14" d="M49.5,78.74l.2.3Z"/><path class="cls-16" d="M51,26.35c-.92,1.8-1.83,3.59-2.85,5.57a27,27,0,0,1-2.39-2.6,2,2,0,0,1-.08-1.6,29.15,29.15,0,0,1,1.41-2.86,15.68,15.68,0,0,0,2.61-1.44c.54-.44.86-.53,1.41-.16a1,1,0,0,1,.26,1.51,3.43,3.43,0,0,0-.5.8A2,2,0,0,0,51,26.35Z"/><path class="cls-12" d="M54,48.82l-.81.64-.84-1.36h0l1.41-.24Z"/><path class="cls-18" d="M53.75,47.86l-1.41.24v-1C53,47,53.79,46.6,53.75,47.86Z"/><path class="cls-18" d="M56.6,45.65l-.27-.94.36-.13.37.93Z"/><path class="cls-18" d="M56.2,47c-.18.16-.29.33-.37.32a.49.49,0,0,1-.31-.27s.13-.27.22-.28S56,46.83,56.2,47Z"/><path class="cls-18" d="M54.22,45.94l-.52.41-.15-.29.67-.11Z"/><path class="cls-18" d="M54.22,46l.06-.11-.06.1Z"/><path class="cls-6" d="M30.67,54.63c1.65-1.49,1.95-3.51,2.16-5.58a4.47,4.47,0,0,1,.8-1.89c.95,1.51,2.19,2.76,1.84,4.52,2,1.25,3.9.46,5.79-.24l.62,1.44L40.81,54.6c-1-.52-2.18-1.82-3.7-.36l0,.63c-.07.05-.14.12-.2.12-1.54-.21-2.94,1.37-4.89.44l1.21-.62-.59-.93c-.27.18-.56.34-.82.54s-.65.53-1.07.88Z"/><path class="cls-12" d="M29,58.63v-.47c.83,0,1.44-.12,1.46-1.21,0-.48.43-1,.66-1.42l.35,0L32,57.76h1.34l.09.27c-.55.24-1.11.69-1.65.67C30.87,58.67,29.91,59.3,29,58.63Z"/><path class="cls-12" d="M31.47,60h-.68l0-.22.7-.11Z"/><path class="cls-12" d="M32.24,59.59,32,59.41a1.25,1.25,0,0,1,.27-.25s.19.11.2.19S32.31,59.5,32.24,59.59Z"/><path class="cls-18" d="M38.5,70.3a1.71,1.71,0,0,1,.19,2.7C37.11,72.74,37,71.31,38.5,70.3Z"/><path class="cls-19" d="M32.81,67.5c0,.16-.07.32-.1.48-1.11,0-1.35.85-1.41,1.81l-.28,0c-.28-.94-.56-1.87-.83-2.8h.94Z"/><path class="cls-4" d="M37.7,64l-.5-.51Z"/><path class="cls-4" d="M38.63,65.35l-.26-.46Z"/><path class="cls-19" d="M32,69.81l-.09.21c-.07,0-.17,0-.19-.1s.05-.13.08-.19Z"/><path class="cls-6" d="M58.93,49.06l1,.95C58.81,50.35,58.69,50.22,58.93,49.06Z"/><path class="cls-4" d="M34.2,25.08h-.73c0-.15,0-.3,0-.44Z"/><path class="cls-10" d="M19.38,47.68c-.6.65-1.18,1.33-1.83,1.93-.23.21-.66.2-1,.29L17,48.63l-1.45.14L16,47.36,14.26,47l.38-.86.82-.07a2.62,2.62,0,0,1,0-.4c.1-.47.2-.94.31-1.41.25.38.49.76.76,1.13.57.78,1.16,1.55,1.62,2.16C18.69,48,19,46.46,19.38,47.68Z"/><path class="cls-4" d="M14.61,41.87a.46.46,0,0,1,.06.23l-.77.74C13.47,41.85,14.06,41.88,14.61,41.87Z"/><path class="cls-10" d="M14.9,42.7l.25.06a1.81,1.81,0,0,1,0,.23c-.07.32-.16.64-.23,1l-.41-.11c.12-.31.23-.62.34-.92C14.85,42.84,14.87,42.77,14.9,42.7Z"/><path class="cls-4" d="M13.37,43.49c0,.07,0,.17-.09.19s-.12,0-.19-.08,0-.17.09-.18S13.31,43.46,13.37,43.49Z"/><path class="cls-19" d="M30.89,32.8c.15.31.31.6.44.91a6.88,6.88,0,0,1,.44,1.14,1.69,1.69,0,0,1,0,.92c-.25.73-.57,1.43-1,2.45l-2.54-1.55c0-.28.05-.57.07-.9a3,3,0,0,0,.52,0c.18-1.26,1.07-1,2.06-.81Z"/><path class="cls-4" d="M32.78,25.34l-.47.27.26-.56Z"/><path class="cls-1" d="M32.81,67.5,31.13,67l1.18-.71.62.74Z"/><path class="cls-19" d="M32.93,67l-.62-.74.73,0C33,66.55,33,66.79,32.93,67Z"/><path class="cls-6" d="M30.27,26.88c-.65.61-1.29,1.23-1.93,1.85-.09-.33-.32-.7-.24-1C28.44,26.32,29.19,26.05,30.27,26.88Z"/><path class="cls-6" d="M25.75,27.17c.3-1.27,1-.49,1.58-.54C27.14,28,26.41,27.29,25.75,27.17Z"/><path class="cls-16" d="M19.31,39c2.27-1.29,3.38-1.21,4.73.36a1.36,1.36,0,0,1,.07,1.06,3.3,3.3,0,0,1-.67,1.38c-.89.95-1.92.29-2.77-.07A1.36,1.36,0,0,1,19.73,40C19.81,39.79,19.49,39.42,19.31,39Z"/><path class="cls-20" d="M50.07,43.32l-1.74.16s-.11,0-.12,0a11.48,11.48,0,0,1-1.34-3c-.1-.65.7-1.33,1.61-1.34.69,0,1.7,1.43,1.69,2.43C50.17,42.13,50.11,42.7,50.07,43.32Z"/></g></svg>