<svg xmlns="http://www.w3.org/2000/svg" viewBox="0 0 100 100"><defs><style>.cls-1{fill:#52a0a3;}.cls-2{fill:#67acae;}.cls-3{fill:#8bbfc0;}.cls-4{fill:#96c5c7;}.cls-5{fill:#59a4a6;}.cls-6{fill:#8dc0c2;}.cls-7{fill:#83bbbc;}.cls-8{fill:#57a3a5;}.cls-9{fill:#acd2d3;}.cls-10{fill:#9bc8c9;}.cls-11{fill:#b5d6d7;}.cls-12{fill:#87bdbe;}.cls-13{fill:#64aaac;}.cls-14{fill:#6fafb1;}</style></defs><g id="Ebene_6" data-name="Ebene 6"><path class="cls-1" d="M16.33,36.74c0-.17,0-.34,0-.51l.32-1.12H18.4l.18-.27c-.24-.21-.49-.6-.71-.59a7.77,7.77,0,0,0-1.55.43l0-1,.16-1.28h0L18,33.62c.25-.15,1-.35,1.18-.78.53-1.3-.61-1.88-1.46-2.46.56-1.11,1-2.09-.2-2.95a.72.72,0,0,1-.13-.65c.32-.87.69-1.71,1.15-2.84-.17-.35-.37-1.15-1.45-.78-.05,0-.24-.4-.37-.61L17,21.5l-.24-1a.54.54,0,0,1-.05-.21c0-.78.34-1.68.05-2.31a12.18,12.18,0,0,1-1.32-6.46,10.87,10.87,0,0,0,0-1.51l1.22-1.67L17,7.74l.22-.25.51-.55c.12-.14.23-.28.35-.41.74,0,1.07-.47,1.56-1a7.61,7.61,0,0,1,2.83-1.49A13.31,13.31,0,0,1,24.55,4c1.44-.22,2.88-.5,4.3-.83a7.23,7.23,0,0,0,1.39-.64.35.35,0,0,1,.19-.1L31,2.17l.68,0L32,2a.73.73,0,0,1,.21-.06L33,1.7l.67-.1.6-.17c1.82-.34,3.63-.73,5.46-1,1.35-.2,2.68-.82,4.13-.11.54.26,1.39-.1,2.1-.18l.3.22a.72.72,0,0,1,.19.11l1.8.42h.5c.24.35.45.72.71,1.06s.74.58.73.87a1.21,1.21,0,0,1-.76.83c-1.13.34-2.31.54-3.47.82a7.18,7.18,0,0,0-1,.42L44.44,5a3.27,3.27,0,0,0-3.6.34l-.45.12-.27.05a3.67,3.67,0,0,1-.61.16A59.5,59.5,0,0,0,26.58,8.55a8,8,0,0,0-2.36,1.6c-.54.48-.4,1,.08,1.62,1.57,2.08,4,2.56,6.15,3.58l3,.11s.07-.14.1-.22l1-.06c-.16,1.14-.33,2.28-.5,3.42l-.33-.06c-.46-1.92-.46-1.92-1.63-2.18,0,.12-.06.3,0,.35a1.72,1.72,0,0,1,0,2.65,2.44,2.44,0,0,1-2.5.67c-2.1-.36-4.22-.53-6.34-.78l-.93-.09A5.7,5.7,0,0,0,21.5,18c-.25-.22-.93-.37-1-.25a2.24,2.24,0,0,0-.6,1.42c0,.38.56.78.95,1a4.07,4.07,0,0,0,1.2.32l.06,1.24a6.13,6.13,0,0,1,.47,1.45c.05,1.05,0,2.11,0,3.17a.3.3,0,0,1,0,.23l-2.37-.94-.1,1,.42-.2c.34.39.94.76,1,1.17a22,22,0,0,1-.15,3.89A4.5,4.5,0,0,1,20.56,34c-.72.77-2.3,1-.8,2.45a.13.13,0,0,1,0,.12c-.43.82.18,1.39.46,2a1.57,1.57,0,0,1,.18.68c-.17,1.65-.37,3.29-.58,5.09-.83-.17-2.08,1-2.43-.79l-1.32.63V42.1c.06-.51.12-1,.19-1.52,0-.35,0-.69,0-1,1.4-.07.36.91.66,1.26a12,12,0,0,1,1.29.86,3.71,3.71,0,0,0,.75.27c.07-.27.25-.58.17-.78a20.06,20.06,0,0,0-1-1.91l.75-1.63-2.63.9c0-.33,0-.66,0-1a9,9,0,0,0,1.33-.73c.07,0-.14-.5-.21-.72Z"/><path class="cls-2" d="M16.07,44.18l1.32-.63c.35,1.75,1.6.62,2.43.79.21-1.8.41-3.44.58-5.09a1.57,1.57,0,0,0-.18-.68c-.28-.66-.89-1.23-.46-2a.13.13,0,0,0,0-.12c-1.5-1.44.08-1.68.8-2.45a4.5,4.5,0,0,0,.72-2.44,22,22,0,0,0,.15-3.89c0-.41-.62-.78-1-1.17l-.42.2.1-1,2.37.94.09,4.07,0,.77-.15,1-.53.34.46.48v.5l.06.55q-.34,6.72-.68,13.42l-.54.3c.54.83-.07,1.6-.1,2.4a36.86,36.86,0,0,0,.21,4.32c.09,1,0,2.14,1.24,2.52l.74-.62c1,3.88,3.89,6.54,6.49,9.2,2.08,2.13,5,3.49,7.66,5,3.25,1.85,6.41,3.81,8.26,7.18a18.63,18.63,0,0,1,2.42,6.16c.5,3.74.94,7.4,3.16,10.59-1.87.37-3.62.9-4.12,3.1a3.93,3.93,0,0,1-2.06-2.53c-.75-2.49-1.76-4.89-2.52-7.38a30.73,30.73,0,0,1-.88-4.57c-.5-3.73-2.83-6-6-7.64-1-.56-1.93-1.4-2.92-2.07-1.66-1.12-3.37-2.16-5-3.31a19.13,19.13,0,0,1-1.94-1.79L25.41,68h0l-.8-.72-.53-.45c.28-1.13-1.05-2.86-2.41-3.15l-.15-.39-.31-.62c-.88-1.93-1.77-3.86-2.62-5.8-.67-1.55-1.33-3.12-1.91-4.71a7.43,7.43,0,0,1-.39-2.09C16.17,48.1,16.13,46.14,16.07,44.18ZM44.85,93.53l.24-.13A7.17,7.17,0,0,0,46,94.63a8.19,8.19,0,0,0,1.37.83c.17-.4.37-.79.51-1.2a6.12,6.12,0,0,0,.28-1.12,5.21,5.21,0,0,0,.06-1.62c0-.13-.76-.12-1.17-.17l-.68-.08.89-2.79H46.16L47,87.3l-1-1.16a7,7,0,0,0-1.51.5,5.75,5.75,0,0,0-1,1l1,.4c.39.89.78,1.76,1.22,2.77l-1.33,1.07Z"/><path class="cls-3" d="M80.81,64.25c-1.2,1.28-2.42,2.54-3.6,3.85-.48.55-.85,1.2-1.29,1.79a.87.87,0,0,1-.46.35c-2.25.43-3.69,2.27-5.64,3.23-.4.21-.76.51-1.16.73-1.31.74-2.69,1.37-3.92,2.2-1.48,1-3.17,1-4.78,1.2a3,3,0,0,0-2.82,2.94c0,1.51.21,3,.16,4.53a10.67,10.67,0,0,1-.56,3.33c-.58,1.55-.09,2.75.57,4.12A8.28,8.28,0,0,1,58,96a8.84,8.84,0,0,1-.68,2.5c-1.78.14-3,2.28-5,1.21.25-.58.54-1.16.75-1.77a6.47,6.47,0,0,0,.38-1.56c.09-1.05-1-.83-1.46-1.25,0-.66,0-1.33,0-2-.09-1.64-.25-3.26-.29-4.89s.06-3,.05-4.52c0-2.8,1-5.91,3.78-7.48a37.63,37.63,0,0,1,6.42-3.1,27,27,0,0,0,6.42-3.72c2.23-1.59,4.26-3.46,6.38-5.21l.51-.75h0l.72-1.11a.21.21,0,0,1,.07-.16,8.4,8.4,0,0,1,1.64-.57c1.33-.19,1.68-1.13,1.88-2.23l2.26.74s0,.25,0,.53l-.25.51-1.69-.5c0,.57-.11,1.45,0,1.49C81.13,62.48,80.35,63.63,80.81,64.25Z"/><path class="cls-4" d="M81.81,60.65c0-.28,0-.56,0-.53l-2.26-.74c0-1.22-.88-1.48-1.77-1.78.87-2.26,1.84-4.46,1.63-7A14,14,0,0,1,80,46.93c.33-.16.79-.54.95-.44,1.4.87,1.89-.67,3-.81-.88-1.56-1.54-.17-2.56,0,.09-.72.17-1.32.25-1.93-.41.18-.54.52-.78.76a2.75,2.75,0,0,1-.78.41A21.67,21.67,0,0,1,80,40.13a15.59,15.59,0,0,0-.25-6.53c-.32-1.4-1-2.72-1.32-4.12s-.48-2.93-.7-4.4l.55,1,0,.1,0-.1,1.7-.92,1.6.92c.52.72,1.09,1.41,1.56,2.17.7,1.12,1.33,2.28,2,3.42-.42,1-1.13,2-.56,3.31l-1-.88-.3.12c.24.64.47,1.28.72,1.92s.49,1.16.74,1.74c0,.22-.08.44-.11.67s-.13.35-.19.53v.46c-1.13.73-.53-1.06-1.4-.85-.32.68-.51,1.36.31,2s.48,1.1,0,1.72l-.6-.29-.54-.18c-.57,1.38-.15,2.07,1.09,2,.8,0,1.32.38,1.2,1.31-.2,1.58-.14,1.63,1.45,1.41,0,.31,0,.61,0,.92a1.21,1.21,0,0,1-.13.35l-1.17,1.51,1.27.78,0,1-1.1,1.33L83.51,51c0,.63-.13,1.09,0,1.22a21,21,0,0,0,1.93,1.3Q84.14,57,82.8,60.38Z"/><path class="cls-3" d="M44.92,4.9a7.18,7.18,0,0,1,1-.42c1.16-.28,2.34-.48,3.47-.82a1.21,1.21,0,0,0,.76-.83c0-.29-.49-.56-.73-.87S49,1.25,48.76.9C50.87.94,53,1,55.1,1S59.46,1,61.63,1c3.3,0,6.65-.39,9.75,1.22.87.31,1.53,1.26,2.63.89a.44.44,0,0,1,.19.07c-.25,2.3,2,.89,2.6,1.91.21-.4.36-.69.5-1l.7.08.66.57c.87.58,2.1.72,2.38,2-.48,0-1,0-1.42,0a2.18,2.18,0,0,1-.77-.06c-.9-.37-1.79-.77-2.66-1.15-.2.34-.29.78-.52.87-1,.37-.71,1-.46,1.72-1.85-.51-3.75-.88-5.54-1.56a19.42,19.42,0,0,0-7.32-1,41,41,0,0,1-7.44-.06A42.93,42.93,0,0,0,44.92,4.9Z"/><path class="cls-5" d="M75.21,8.15c-.25-.68-.59-1.35.46-1.72.23-.09.32-.53.52-.87.87.38,1.76.78,2.66,1.15a2.18,2.18,0,0,0,.77.06c.47,0,.94,0,1.42,0l2.08,2.48c.15.78.31,1.56.46,2.34-.25,0-.6,0-.72.15-1.07,1.25-1.86.81-2.65-.31a2,2,0,0,0-1-.68,2.22,2.22,0,0,0-1,.1L76.4,9.13l-.15-.35Z"/><path class="cls-6" d="M83.58,11.58c-.15-.78-.31-1.56-.46-2.34a3.72,3.72,0,0,1,2.26,3.2A5.89,5.89,0,0,0,86,14.6a2.74,2.74,0,0,1-.23,3.06l-2.59,3.63-1.12.21c-1.07-.35,0-1.05-.25-1.53l.31-.78-.56.28c-.34,0-.69,1-1,0,.35-.34.68-.7,1-1a10.79,10.79,0,0,0,2-1.64,16.4,16.4,0,0,0,1.37-2.75C84.5,13.31,84,12.44,83.58,11.58Z"/><path class="cls-2" d="M16.74,22.55c.13.21.32.63.37.61,1.08-.37,1.28.43,1.45.78-.46,1.13-.83,2-1.15,2.84a.72.72,0,0,0,.13.65c1.22.86.76,1.84.2,2.95.85.58,2,1.16,1.46,2.46-.18.43-.93.63-1.18.78l-1.59-1.23c-.07-1.12-.19-2.24-.19-3.36,0-2,.07-4,.14-6C16.39,22.85,16.62,22.7,16.74,22.55Z"/><path class="cls-7" d="M15.42,10a10.87,10.87,0,0,1,0,1.51A12.18,12.18,0,0,0,16.76,18c.29.63,0,1.53-.05,2.31-3.74-2.57-3.53-5.9-2.16-9.46C14.67,10.47,15.12,10.26,15.42,10Z"/><path class="cls-8" d="M52,95.12c.49.42,1.55.2,1.46,1.25A6.47,6.47,0,0,1,53,97.93c-.21.61-.5,1.19-.75,1.77l-1.2-.12-.3.15L49,99.35c.23-.16.44-.41.69-.47.43-.1,1,0,1.32-.17s.5-.65.73-1c-.42-.18-.87-.54-1.27-.5-1.1.11-2.18.38-3.27.59h0c.5-2.2,2.25-2.73,4.12-3.1Z"/><path class="cls-9" d="M85.89,46.67c-1.59.22-1.65.17-1.45-1.41.12-.93-.4-1.33-1.2-1.31-1.24,0-1.66-.66-1.09-2l.54.18.6.29c.48-.62.74-1.18,0-1.72s-.63-1.29-.31-2c.87-.21.27,1.58,1.4.85.39,1.3.86,2.58,1.15,3.89A29.18,29.18,0,0,1,85.89,46.67Zm-1.74-4.35c-.12.19-.27.33-.25.43a.47.47,0,0,0,.3.3c.09,0,.3-.19.29-.27S84.32,42.53,84.15,42.32Z"/><path class="cls-3" d="M30.24,2.52a7.23,7.23,0,0,1-1.39.64c-1.42.33-2.86.61-4.3.83a13.31,13.31,0,0,0-2.11.08,7.61,7.61,0,0,0-2.83,1.49c-.49.5-.82,1-1.56,1a10.54,10.54,0,0,1,1.65-1.8,12.23,12.23,0,0,1,8-2.05A17.72,17.72,0,0,0,30.24,2.52Z"/><path class="cls-7" d="M78.25,26.08l-.55-1,.64-1.78.93,0h1.78l.52,1.78c0,.34,0,.68,0,1L80,25.16l-1.7.92Z"/><path class="cls-2" d="M16.31,38.52l2.63-.9-.75,1.63a20.06,20.06,0,0,1,1,1.91c.08.2-.1.51-.17.78a3.71,3.71,0,0,1-.75-.27,12,12,0,0,0-1.29-.86c-.3-.35.74-1.33-.66-1.26Z"/><path class="cls-9" d="M84.68,37.88c-.25-.58-.51-1.16-.74-1.74s-.48-1.28-.72-1.92l.3-.12,1,.88c-.57-1.29.14-2.28.56-3.31A9,9,0,0,1,84.68,37.88Z"/><path class="cls-2" d="M47.19,97.81c1.09-.21,2.17-.48,3.27-.59.4,0,.85.32,1.27.5-.23.34-.4.82-.73,1s-.89.07-1.32.17c-.25.06-.46.31-.69.47Z"/><path class="cls-4" d="M80.81,64.25c-.46-.62.32-1.77-.92-2.1-.13,0,0-.92,0-1.49l1.69.5h.92Z"/><path class="cls-10" d="M81.57,25.06l-.52-1.78a1.5,1.5,0,0,0,1-1.78l1.12-.21C83.28,22.82,82.34,23.91,81.57,25.06Z"/><path class="cls-6" d="M21.66,63.67c1.36.29,2.69,2,2.41,3.15A4.44,4.44,0,0,1,21.66,63.67Z"/><path class="cls-9" d="M85.46,53.54a21,21,0,0,1-1.93-1.3c-.15-.13,0-.59,0-1.22l1.33,1.54,1.1-1.33C85.94,52,86.33,52.92,85.46,53.54Z"/><path class="cls-11" d="M77.3,4.11c-.14.29-.29.58-.5,1-.59-1-2.85.39-2.6-1.91.75.18,1.5.34,2.24.55A5.49,5.49,0,0,1,77.3,4.11Z"/><path class="cls-9" d="M85.91,50.23l-1.27-.78,1.17-1.51a1.21,1.21,0,0,0,.13-.35Z"/><path class="cls-2" d="M16.32,34.68a7.77,7.77,0,0,1,1.55-.43c.22,0,.47.38.71.59l-.18.27H16.61l-.32,1.12Z"/><path class="cls-11" d="M74,3.11c-1.1.37-1.76-.58-2.63-.89C72.35,2.25,73.41,2,74,3.11Z"/><path class="cls-2" d="M16.33,36.74l1.12-.66c.07.22.28.67.21.72a9,9,0,0,1-1.33.73Z"/><path class="cls-12" d="M82.48,61.15h-.92l.25-.51,1-.27C82.69,60.64,82.58,60.89,82.48,61.15Z"/><path class="cls-2" d="M16.26,40.58c-.07.51-.13,1-.19,1.52C16.13,41.59,16.19,41.09,16.26,40.58Z"/><path class="cls-3" d="M48.26.9,46.46.48Z"/><path class="cls-6" d="M24.6,67.27l.8.72Z"/><path class="cls-2" d="M16.76,20.48l.24,1Z"/><path class="cls-2" d="M16.44,32.4l-.16,1.28Z"/><path class="cls-11" d="M78.66,4.76,78,4.19Z"/><path class="cls-6" d="M25.41,68l.47.53Z"/><path class="cls-9" d="M84.38,39.08c.06-.18.12-.35.19-.53C84.5,38.73,84.44,38.9,84.38,39.08Z"/><path class="cls-3" d="M17.7,6.94l-.51.55Z"/><path class="cls-3" d="M17,7.74l-.33.58Z"/><path class="cls-6" d="M21.2,62.66l.31.62Z"/><path class="cls-3" d="M33,1.7l-.8.21Z"/><path class="cls-3" d="M31,2.17l-.54.25Z"/><path class="cls-3" d="M34.28,1.43l-.6.17Z"/><path class="cls-3" d="M50.79,99.73l.3-.15Z"/><path class="cls-3" d="M32,2l-.35.15Z"/><path class="cls-3" d="M46.27.37,46,.15Z"/><path class="cls-13" d="M34.52,15.18l5.42-.27a.37.37,0,0,1,.24.05c2.71,2.39,6.26,1.33,9.32,2.29.87,1.67.84,1.73-1.12,1.71a10.73,10.73,0,0,0-1.26-.06,6.69,6.69,0,0,0-1.13.35l0,.38c1.46.16,2.72.55,2.71,2.32-2.68.2-5.35.53-8,.55-3.4,0-6.79-.18-10.19-.33a14.29,14.29,0,0,1-3.12-.42c-.57-.15-1-.71-1.73-1.22-1,.45-2,.08-2.43-1.28,2.12.25,4.24.42,6.34.78a2.44,2.44,0,0,0,2.5-.67,1.72,1.72,0,0,0,0-2.65c0-.05,0-.23,0-.35,1.17.26,1.17.26,1.63,2.18l.33.06C34.19,17.46,34.36,16.32,34.52,15.18Z"/><path class="cls-10" d="M63,27.18a4.69,4.69,0,0,1-4.18.41c-2.3-1-4.63-.82-7-.71a8.75,8.75,0,0,0-2.07.78,1.76,1.76,0,0,1-1.1.08C46,26.61,43.17,27,40.38,26.8a13.23,13.23,0,0,1-2-.25,26,26,0,0,0-10.14,0c-1.49.26-3.12-.28-4.68-.47-.39,0-.9-.58-1.06.27,0-1.06.09-2.12,0-3.17a6.13,6.13,0,0,0-.47-1.45c.49.2,1,.41,1.48.6a21.35,21.35,0,0,0,2.67,1c2.56.61,5.15.36,7.76.3,2.38-.06,4.77.34,7.16.51,1.21.09,2.45,0,3.65.2,3.44.54,6.87,0,10.3,0a13.79,13.79,0,0,1,2.64.24,12.52,12.52,0,0,0,6-.54,5,5,0,0,1,1.1-.11l.25,1.88-1.15-.38-.43,1.76-.39,0-.37-.44-.15.18Z"/><path class="cls-13" d="M22.32,19.16c-.1.45-.2.89-.29,1.33a4.07,4.07,0,0,1-1.2-.32c-.39-.25-.91-.65-.95-1a2.24,2.24,0,0,1,.6-1.42c.09-.12.77,0,1,.25A5.7,5.7,0,0,1,22.32,19.16Z"/><path class="cls-3" d="M44.44,5l-3.6.34A3.27,3.27,0,0,1,44.44,5Z"/><path class="cls-13" d="M30.45,15.35l3.07-.11c0,.08-.07.22-.1.22Z"/><path class="cls-3" d="M40.39,5.43l-.27.05Z"/><path class="cls-8" d="M44.85,93.53l-.52-1.6,1.33-1.07c-.44-1-.83-1.88-1.22-2.77l-1-.4a5.75,5.75,0,0,1,1-1,7,7,0,0,1,1.51-.5l1,1.16-.84,1.18h1.11l-.89,2.79.68.08c.41.05,1.14,0,1.17.17a5.21,5.21,0,0,1-.06,1.62,6.12,6.12,0,0,1-.28,1.12c-.14.41-.34.8-.51,1.2A8.19,8.19,0,0,1,46,94.63a7.17,7.17,0,0,1-.92-1.23Z"/><path class="cls-7" d="M21.75,47.67c.52,3,1,5.95,1.55,8.92l-.74.62c-1.25-.38-1.15-1.52-1.24-2.52a36.86,36.86,0,0,1-.21-4.32c0-.8.64-1.57.1-2.4Z"/><path class="cls-10" d="M22.43,32.38c0,.28-.05.55-.07.82l-.46-.48Z"/><path class="cls-10" d="M22.61,30.65l0,.77Z"/><path class="cls-10" d="M22.37,33.7l.06.55Z"/><path class="cls-4" d="M76,62.18c.26-.67.52-1.34.77-2a4,4,0,0,0,.85,0c.25-1.25,1.23-.65,1.9-.79-.2,1.1-.55,2-1.88,2.23A8.4,8.4,0,0,0,76,62.18Z"/><path class="cls-4" d="M75.21,63.45l.72-1.1Z"/><path class="cls-4" d="M74.7,64.21l.51-.75Z"/><path class="cls-9" d="M80,46.93c0-.69,0-1.37,0-2a2.75,2.75,0,0,0,.78-.41c.24-.24.37-.58.78-.76-.08.61-.16,1.21-.25,1.93,1-.13,1.68-1.52,2.56,0-1.07.14-1.56,1.68-3,.81C80.83,46.39,80.37,46.77,80,46.93Z"/><path class="cls-3" d="M79.52,59.38c-.67.14-1.65-.46-1.9.79a4,4,0,0,1-.85,0c.33-.85.66-1.7,1-2.56C78.64,57.9,79.56,58.16,79.52,59.38Z"/><path class="cls-7" d="M78.25,26.08l0,.1,0-.1Z"/><path class="cls-14" d="M78.39,11.83c0-.33-.1-.66-.16-1a2.22,2.22,0,0,1,1-.1,2,2,0,0,1,1,.68c.79,1.12,1.58,1.56,2.65.31.12-.15.47-.11.72-.15.46.86.92,1.73,1.33,2.48a16.4,16.4,0,0,1-1.37,2.75,10.79,10.79,0,0,1-2,1.64c-.37.31-.7.67-1,1-.14-.23-.43-.52-.38-.69.26-.83.64-1.62.91-2.45.1-.28.16-.79,0-.89a1.59,1.59,0,0,0-1-.14,1.52,1.52,0,0,0-.74.45c-.56.53-1.13.62-1.61,0s.08-1,.59-1.34A1.43,1.43,0,0,0,78.39,11.83Z"/><path class="cls-3" d="M76.4,9.13l-.15-.35Z"/><path class="cls-3" d="M78.39,11.83a1.43,1.43,0,0,1-.08,2.55c-.51.34-1.12.62-.59,1.34s1,.55,1.61,0a1.52,1.52,0,0,1,.74-.45,1.59,1.59,0,0,1,1,.14c.14.1.08.61,0,.89-.27.83-.65,1.62-.91,2.45,0,.17.24.46.38.69.33,1,.68,0,1,0l.25.5c.28.48-.82,1.18.25,1.53a1.5,1.5,0,0,1-1,1.78h-.51L81,22.2,80.52,22c-.08.42-.15.83-.23,1.25h-1c.1-1-.5-.6-1-.52l.7-2.42c-.21,0-.4-.06-.51,0A13.51,13.51,0,0,1,72.07,22l-8.57.56a1.62,1.62,0,0,1-.76,0c-1.81-.89-3.77-.53-5.67-.66a17.13,17.13,0,0,0-1.75.11l-5.54.09c.55-2.14,1.77-.24,2.86-.48-.11-.75,0-1.83-.39-2.19-.9-.73-.52-1.43-.43-2.19,1.65-.28,3.29-.64,5-.81s3.17-.14,4.76-.17a54.46,54.46,0,0,0,7-.79c3.15-.47,5.9-1.76,8.79-2.79A4.61,4.61,0,0,0,78.39,11.83Z"/><path class="cls-10" d="M81.81,20l-.25-.5.56-.28Z"/><path class="cls-4" d="M84.15,42.32c.17.21.33.33.34.46s-.2.29-.29.27a.47.47,0,0,1-.3-.3C83.88,42.65,84,42.51,84.15,42.32Z"/><path class="cls-10" d="M80.29,23.28c.08-.42.15-.83.23-1.25l.52.17-.5,1.08Z"/><path class="cls-10" d="M78.32,22.76c.45-.08,1.05-.43,1,.52l-.93,0C78.34,23.12,78.33,22.94,78.32,22.76Z"/><path class="cls-10" d="M51.82,17.19c-.09.76-.47,1.46.43,2.19.43.36.28,1.44.39,2.19-1.09.24-2.31-1.66-2.86.48l-1-.1c0-1.77-1.25-2.16-2.71-2.32l0-.38a6.69,6.69,0,0,1,1.13-.35,10.73,10.73,0,0,1,1.26.06c2,0,2,0,1.12-1.71Z"/><path class="cls-7" d="M63.47,27.17l.43-1.76,1.15.38-.25-1.88a18.38,18.38,0,0,0,1.82-.39c1.32-.39,1.79.76,2.06,1.47.14.4-.69,1.42-1.31,1.78a6.39,6.39,0,0,1-2.32.37h-.79Z"/><path class="cls-10" d="M64.26,27.14h0Z"/><path class="cls-7" d="M63,27.18l-.48-.3.15-.18.37.44Z"/></g></svg>