<svg xmlns="http://www.w3.org/2000/svg" viewBox="0 0 100 100"><defs><style>.cls-1{fill:#d5ccc7;}.cls-2{fill:#d0c6c1;}.cls-3{fill:#a48f86;}.cls-4{fill:#b6a59e;}.cls-5{fill:#c8bbb5;}.cls-6{fill:#c3a7a6;}</style></defs><g id="Ebene_8" data-name="Ebene 8"><path class="cls-1" d="M91.45,22.43c1.19,2.38,3,4.49,3.41,7.22.09.58.13,1.18.18,1.78.19,2.32.41,4.65.55,7,0,.82-.15,1.65-.16,2.48,0,3.13-.05,6.26,0,9.39a28.37,28.37,0,0,0,.34,3,2.92,2.92,0,0,1-1.33,3h1.93c.11-.83.21-1.57.31-2.31,1.91.31,2.8,1.2,3.09,2.78a9.31,9.31,0,0,1,0,4.07c-.56,2.24.23,4.52,0,6.78-.07.59-.08,1.2-.11,1.8-1.08-.75-.78-1.83-.45-3.18a8.66,8.66,0,0,1-1.12.84c-.55.26-.77-.06-.83-.56,1.31-.44.47-1.67,1.25-2.6l-2.23-.62c0-.53.12-1.06.13-1.59,0-1.48,0-3,0-4.44-2.61.18-5.1.53-7.6.51-6.3-.05-12.61.3-18.92-.26-3-.26-6.13-.08-9.2-.08a56.72,56.72,0,0,0-6.12.14,25.75,25.75,0,0,1-8.93-.24,13,13,0,0,0-2.5-.17c-.64,0-1.28,0-1.92,0-1.67-.12-3.34-.35-5-.38-3.36-.07-6.73-.07-10.1,0-1.55,0-3.1.28-4.65.3-1,0-2,.43-2.93-.35.45-.1.91-.18,1.35-.3.9-.25,1.94-.29,2.24-1.45,1.31-.14.42-1.39,1-2.08l.68,1.6a16,16,0,0,1,2.36.59,3.4,3.4,0,0,0,2.9.35c.17-.07.56.4.76.55.45-.4.91-.76,1.31-1.17a9.23,9.23,0,0,0,.72-.93c2.39-.12,4.77-.23,7.15-.38a2.51,2.51,0,0,0,.78-.33c.41-.62.79-.38,1.17,0a7.66,7.66,0,0,0,1.32.31c1.94.14,3.89.23,5.83.37.85.06,1.69.21,2.68.34l-.51-.69h1.45c.87,1.15,1.5,1.25,2.51.45a4.75,4.75,0,0,1,1.08-.46,2.58,2.58,0,0,0,.8.26c.83,0,1.65-.15,2.48-.24a2,2,0,0,0,2.07,1.1,12,12,0,0,1,2.46.34A4.09,4.09,0,0,0,67,53.78c.82.2,1.63.8,2.48.06.85.11,1.7.16,2.54.32,1.87.35,3.69,1.13,5.66.77,1.26,0,2.52,0,3.78,0s2.42,1.15,4,.36c-.19-1.08-.38-2.16-.53-3l-5.37-1a3.76,3.76,0,0,0,3.65-2.2l1.46,2.44,1.27-.44c.63-2.48.08-3.33-2.08-3.45-.82,0-1,.36-1,1.08l-1.14-.42.87-.47c-1.5-1.29-3.07-1-4.45-1.34-.31-1.06-.56-2.17-1.64-2.77l.25-.43c1.9.13,3.81.22,5.72.39a7.77,7.77,0,0,1,7.22,7.55,2.67,2.67,0,0,0,.13.89,4.91,4.91,0,0,1-.19,3.7h2.21a6.35,6.35,0,0,0,0-1.52c-.86-2.87-.64-5.82-.63-8.75,0-2.09.21-4.17.32-6.26.07-1.29.41-2.59-.3-3.83a3.58,3.58,0,0,1-.37-1.38,21.16,21.16,0,0,0-3.3-9.57l2.33.18V24.5l-2.33-1h0C88.88,23.41,90.44,23.93,91.45,22.43Z"/><path class="cls-2" d="M87.48,23.5l2.33,1v.26l-2.33-.18a2.7,2.7,0,0,0-2.82-1.52,1.75,1.75,0,0,1-.7-.12,37.55,37.55,0,0,0-15.14-1,14.62,14.62,0,0,1-3.24,0c-2.67-.29-5.33-.66-8-1a19.28,19.28,0,0,0-2.49-.32c-4.42,0-8.85-.18-13.27,0-.78,0-1.54.24-2.31.23-1.5,0-3-.14-4.48-.23-1.79-.11-3.59-.22-5.37-.36a13.64,13.64,0,0,0-3.2-.3,16.82,16.82,0,0,1-5.53,0c-1.08-.16-2.37-.21-3.06.64a12.24,12.24,0,0,1-4.43,3.29,1.28,1.28,0,0,0-.73,1.48c.14,1.13.21,2.26.29,3.38q.2,2.77.36,5.55a15,15,0,0,1-.82,6.23,21.39,21.39,0,0,1-.91-7.24,12.49,12.49,0,0,0-.83-5.81,1.88,1.88,0,0,1,.24-2,8.22,8.22,0,0,1,2.71-2.73c1.37-.75,2.43-2.07,4-3.44-1-.14-1.54-.25-2.09-.28s-1.12.21-1.58,0a2,2,0,0,0-2.26.63c-1,.9-2.12,1.72-3.09,2.68s-2.21,1.94-2.38,3.45c-.06.48,0,.82-.39,1.21s-.33.85-.53,1.27a10.53,10.53,0,0,1-.59,1c-.94-1.53-.25-3,.55-4.18a57.73,57.73,0,0,1,3.87-4.72,6.68,6.68,0,0,1,3.86-2.18c1.62-.34,3.21-1.05,4.94-.52.3.09.7-.16,1.05-.16,1.08,0,2.15,0,3.22,0a13,13,0,0,0,3.22.12c2.2-.51,4.28.14,6.41.34.41,0,.83.14,1.24.14,2.83,0,5.68.18,8.48-.11a113.72,113.72,0,0,1,12.24-.21c2.93,0,5.85.5,8.77.77,1.25.11,2.51.27,3.76.28,3.55,0,7.11-.17,10.65,0,3.93.21,7.9.42,11.67,1.78.56.2,1.1.48,1.64.72.27.34.54.68.8,1a.53.53,0,0,1,.28,0c-1,1.5-2.57,1-4,1.06l-.16-.08Z"/><path class="cls-3" d="M4.8,29.27a10.53,10.53,0,0,0,.59-1c.2-.42.23-1,.53-1.27s.33-.73.39-1.21c.17-1.51,1.37-2.46,2.38-3.45s2.07-1.78,3.09-2.68A2,2,0,0,1,14,19c.46.17,1.05-.06,1.58,0s1.1.14,2.09.28c-1.53,1.37-2.59,2.69-4,3.44A8.22,8.22,0,0,0,11,25.41a1.88,1.88,0,0,0-.24,2,12.49,12.49,0,0,1,.83,5.81,21.39,21.39,0,0,0,.91,7.24l.06,4.25-.86.71a11.19,11.19,0,0,1-.87,1.89c-.49.7-.29,1.15.39,1.37a12.67,12.67,0,0,0,2.05.36l-.24,1.17c-.24.28-.6.51-.7.83A17.4,17.4,0,0,0,12,53.13c-1.1-.33-1.42.57-1.92,1.2-1.73-.23-1.73-.23-2-1.57,0-1.25.11-2.5.16-3.74a.25.25,0,0,0-.08-.16c-.51-.76-1-1.52-1.52-2.23l.51-1.05L5.26,42.84l1-1.16c-.52-.9-1.06-1.58-2.09-1.59.15-1.71.47-3.4-.09-5.12-.16-.51.16-1.16.18-1.74a16.34,16.34,0,0,0-.1-1.71c.71-.17.57-.72.54-1.22Z"/><path class="cls-1" d="M81,72.91c-2.7.14-5.39.39-8.09.38-3.71,0-7.43-.22-11.15-.34s-7.44-.18-11.15-.36c-2.69-.13-5.38-.42-8.06-.63a5.82,5.82,0,0,0-1.44,0c-4.25.72-8.52.18-12.78.34-2,.07-3.95.21-5.92.32l1.42-2.71,1.64,1.06c.2-.53.38-1,.57-1.51h1.78l.51,1,.6-.71c.69,0,1.39-.15,2.09-.14,2.42,0,4.84.1,7.26.16.66.16,1-.23,1.43-.67l1.87.35h.71c.86.06,1.73.11,2.59.2,1.43.16,2.85.35,4.27.53l.48.65.6-.71c6.86.22,13.73.13,20.59,0l1.08.06a6.41,6.41,0,0,1,1.07,0q3.42.53,6.84,1.1A1.37,1.37,0,0,1,81,72.91Z"/><path class="cls-4" d="M81,72.91a1.37,1.37,0,0,0-1.19-1.68q-3.42-.57-6.84-1.1a6.41,6.41,0,0,0-1.07,0c0-.29,0-.58.08-.9,1.92-.15,3.8-.53,5.22.92l1.14-1.1.94,1.3c.23-1,1-1.08,1.79-1.08.19,0,.43.45.57.42,1.35-.32,2.67-.7,4-1.06h.71c1.32.6,2.65.25,4,0,1.37.53,1.42.49,2.18-.46a8.11,8.11,0,0,1,1.26-1l-.4-.77c.39-.26.92-.43,1.1-.78a4.41,4.41,0,0,0,.2-1.52l1.11-.44.44-.37,2.23.62c-.78.93.06,2.16-1.25,2.6l-.76-.66c.88,2.63.73,3.06-1.75,4.19l.7,1.85-1.15.34-.7.1-3.26.27-1.38.62-1.07-.6h0l-.35-.92-.82.77-1,.05c-.58-1-1.41-.73-2.12-.28a3.46,3.46,0,0,1-2.51.7Z"/><path class="cls-4" d="M4.13,40.09c1,0,1.57.69,2.09,1.59l-1,1.16,1.88,2.74-.51,1.05c.49.71,1,1.47,1.52,2.23a.25.25,0,0,1,.08.16c-.05,1.24-.11,2.49-.16,3.74-.25.2-.73.43-.71.6a5.65,5.65,0,0,1-.82,3l-1.75.25L4,53.12c0-3.34-.07-6.67-.07-10C4,42.11,4.07,41.1,4.13,40.09Z"/><path class="cls-2" d="M15.6,73.07a2.33,2.33,0,0,1-2.19,0c0-.77.13-1.59-1.06-1.48-.82-.46-1-1.79-2.42-1.73-.27,1.05-.53,2.1-.8,3.16l-.42,0a17.25,17.25,0,0,1-5.79-.83,2,2,0,0,1,.26-2.28c.16-.17.09-.56.12-.85l.37,0c2.13.7,4.29.17,6.44.1L9.43,69c0-1.52,1.27-1.2,2.17-1.4L12,68,12.35,69l1.83.36h.31l1.79.32.75,0,2.15-.3-.34,1h0l-2.6.38c-.66.1-.63.6-.65,1.07Z"/><path class="cls-2" d="M16,73.76a3.08,3.08,0,0,1,2.33,2.48,12.65,12.65,0,0,1,.44,3.36c0,2.23-1.3,3.24-3.84,2.88A23.25,23.25,0,0,1,16,73.76Z"/><path class="cls-2" d="M87.87,72.62l1.07.6,1.38-.62c.15,1.05.32,2.1.43,3.16.14,1.42.29,2.84.31,4.27a1.85,1.85,0,0,1-2,1.55,1.33,1.33,0,0,1-.76-.84c-.56-2.32-1.17-4.64-.49-7A5.45,5.45,0,0,0,87.87,72.62Z"/><path class="cls-2" d="M81.09,72.93a3.46,3.46,0,0,0,2.51-.7c.71-.45,1.54-.71,2.12.28l-1.9.73c0,1,.08,2,0,3.1s-.46,2.09-.6,3.15-.23,2.18-1.81,2.45c-.69-1.5-.28-3-.29-4.56S81.09,74.42,81.09,72.93Z"/><path class="cls-1" d="M11.94,73.31c.09,1.91.15,3.82.28,5.72.11,1.53-1,2.35-3,2.07a20.66,20.66,0,0,1-.17-7.76l.11-.12,2.65,0Z"/><path class="cls-5" d="M95.43,71.89,94.73,70c2.48-1.13,2.63-1.56,1.75-4.19l.76.66c.06.5.28.82.83.56a8.66,8.66,0,0,0,1.12-.84c-.33,1.35-.63,2.43.45,3.18,0,.22,0,.45,0,.67-1.58-.06-1.08,1.82-2,2.24l-1.56-.39-.48,0h-.22Z"/><path class="cls-2" d="M4,53.12c.26,1.16.52,2.33.77,3.49l-1.12.49-.47-1c-.29.16-.69.26-.86.51-.55.82-1.39,1.5-1.28,2.68,0,.34-.38.71-.58,1.07-1.16-3-.19-5.53,2.56-6.8C3.36,53.38,3.7,53.26,4,53.12Z"/><path class="cls-1" d="M.9,65.08c0-1.36,0-2.71,0-4.07.27-.19.55-.38.8-.59l1.87-1.57c.19,1.8.37,3.59.56,5.39l-1.76-.73L1.81,65Z"/><path class="cls-2" d="M26.08,69.42l-.57,1.51-1.64-1.06-1.42,2.71h-.71l-.37-1,.41-.21a.73.73,0,0,0-.26-.14,4.34,4.34,0,0,0-.51,0h-.36c.73-.75-.38-1.15-.34-1.77Z"/><path class="cls-4" d="M3.53,58.85,1.66,60.42c-.25.21-.53.4-.8.59-.13-.22-.25-.45-.38-.68.2-.36.61-.73.58-1.07-.11-1.18.73-1.86,1.28-2.68.17-.25.57-.35.86-.51.16.34.31.68.47,1Z"/><path class="cls-5" d="M3.3,69c0,.29,0,.68-.12.85a2,2,0,0,0-.26,2.28c-1.52.29-1.86.07-2-1.31l.82-.31,0-.26-.91-.2L.71,68.3h.8a1.39,1.39,0,0,0,1.8.63Z"/><path class="cls-2" d="M20.24,72.66,18.49,73H17c0-.69.07-1.3.88-1.47a1,1,0,0,0,.92-1.09h0a1.29,1.29,0,0,1,1.45.73l-.76.77c.54.38,1.45-.38,1.48.66l-.18,0h-.17Z"/><path class="cls-1" d="M96.13,71.93l1.56.39c.92-.42.42-2.3,2-2.24.13,1.76-.4,2.62-1.82,2.86C97,73.07,96.31,73,96.13,71.93Z"/><path class="cls-5" d="M18.84,70.46a1,1,0,0,1-.92,1.09c-.81.17-.91.78-.88,1.47l-.36,0a1,1,0,0,0-1.09-1.14c0-.47,0-1,.65-1.07Z"/><path class="cls-5" d="M.9,65.08,1.81,65l.75,1.45-1.14,1.1a3.24,3.24,0,0,0-.11-.76,3.78,3.78,0,0,0-.45-.7Z"/><path class="cls-1" d="M.86,66.11a3.78,3.78,0,0,1,.45.7,3.24,3.24,0,0,1,.11.76l.09.73H.71A2,2,0,0,1,.86,66.11Z"/><path class="cls-1" d="M21,72.62c0-1-.94-.28-1.48-.66l.76-.77H21l.36.36.37,1Z"/><path class="cls-1" d="M12.35,71.55c1.19-.11,1.09.71,1.06,1.48l-1,0-.13-.12C12.3,72.47,12.32,72,12.35,71.55Z"/><path class="cls-1" d="M15.59,71.91a1,1,0,0,1,1.09,1.14l-1.08,0C15.6,72.68,15.59,72.3,15.59,71.91Z"/><path class="cls-2" d="M86.7,72.46l.82-.77.35.92Z"/><path class="cls-2" d="M4.66,30.3c0,.5.17,1.05-.54,1.22C4.09,31,4,30.48,4.66,30.3Z"/><path class="cls-1" d="M.8,70.09l.91.2,0,.26-.82.31Z"/><path class="cls-1" d="M91.17,22.39c-.26-.35-.53-.69-.8-1C91.07,21.37,91.11,21.89,91.17,22.39Z"/><path class="cls-2" d="M93.58,72.33l.7-.1Z"/><polygon class="cls-4" points="95.49 71.9 95.65 71.91 95.58 72 95.49 71.9"/><path class="cls-1" d="M20.24,72.66l.42,0Z"/><path class="cls-1" d="M8.71,73l.42,0a.68.68,0,0,0,.08.24l-.11.12Z"/><path class="cls-1" d="M12.4,73.06l-.46.25-.08-.11.41-.26Z"/><path class="cls-1" d="M18.08,73h0Z"/><path class="cls-5" d="M76.7,43a2.07,2.07,0,0,1,0,.35l-.24.43c1.08.6,1.33,1.71,1.64,2.77l-.81.13c-.23,1-.44,1.85-.66,2.82.57.61,1.15.5,2,.05a20.27,20.27,0,0,1,3.1-1.19l1.14.42.36.37a3.76,3.76,0,0,1-3.65,2.2c-.12.18-.36.38-.34.54a2.44,2.44,0,0,1-.86,2.24,10,10,0,0,0-.67.79c-2,.36-3.79-.42-5.66-.77-.84-.16-1.69-.21-2.54-.32a1.22,1.22,0,0,1,.38-2c.74-.47,1.5-.91,2.37-1.43-.28-.21-.48-.48-.72-.52-1-.16-2-.25-3-.39-.66-.08-1.38-.17-1.53-1s.44-1.19,1.06-1.48,1.14-.28,1.3-1.11a6.28,6.28,0,0,0-4.43.9c1.49,2.17-.59,2.86-1.78,4.07,1.19,0,2.31-.89,3.14.34-.11.69,0,1.25.77,1.5l0,1a4.09,4.09,0,0,1-3.83,1.16,12,12,0,0,0-2.46-.34,2,2,0,0,1-2.07-1.1c.58-1.75,2.54-1.45,3.74-2.47a5.16,5.16,0,0,1-1.66-.21,12,12,0,0,0-5-1v0c-.33-1.57-.12-2,1.35-2.56.5-.19,1-.35,1.5-.59.08,0,0-.35,0-.54.67-.66,1.5-1.22,1.41-2.34a15.34,15.34,0,0,0,6.57-.31,9.07,9.07,0,0,1,3.33-.24c1.32.22,2.8.41,3.45-1.32,0-.07.21-.08.33-.12l.45.79-.08.14.08-.15ZM60,47c1.29-.45,1.68,1,2.56,1.33A5,5,0,0,1,63,47a4.29,4.29,0,0,1,1-.73c-.21-.3-.26-.45-.35-.48a10.87,10.87,0,0,0-1.34-.41c-1.26-.31-2,.18-2.31,1.56l-.14.48ZM70.41,46a6,6,0,0,0,5.74-.24A4.49,4.49,0,0,0,70.41,46Z"/><path class="cls-5" d="M55.31,53.48a4.75,4.75,0,0,0-1.08.46c-1,.8-1.64.7-2.51-.45l.08-.16-.08.15H50.27c-.76-.11-1.52-.26-2.29-.32s-1.45-.09-1.89-.94c.12-.26.18-.73.43-.87,1-.57,2.11-1,3.46-1.7L45.23,47.9l-1.87,1.35a4.2,4.2,0,0,0,.16.73c.95,2.07.43,3-1.85,3.13l-.72,0c-.38-.41-.76-.65-1.17,0-.8-.23-1.58-.52-2.39-.67a2.61,2.61,0,0,1-2.1-1.56c1.07-1.52,2.91-1.16,4.52-1.9-.49-.18-.7-.28-.92-.34l-2.24-.59c-1.4-.36-1.47-.65-.48-1.83.66.73,1.39.35,1.9-.07a2.1,2.1,0,0,1,2.13-.27c.65.19,1.28.46,2,.71.35-1.1,1.43-.64,2.31-.72l.32,0,.55.94c.54-.23,1-.45,1.45-.6s1.12-.27,1.68-.4c.26.25.48.62.8.73,1,.35.87-.93,1.59-1.24.83.92,1.94.62,3,.56a2.51,2.51,0,0,1,.53,2.3c-.34,1.25-.24,1.3,1.29,1.68v0C56.24,51.14,56.59,52.39,55.31,53.48ZM39.75,52.05c-.19-.14-.31-.29-.44-.29s-.28.12-.42.19a1.47,1.47,0,0,0,.42.37C39.39,52.35,39.55,52.18,39.75,52.05Z"/><path class="cls-5" d="M20.94,51.32a2.29,2.29,0,0,0,2.84.77,25.43,25.43,0,0,1,2.79-.52c2.79-.64,3.54-.35,5,2a1.2,1.2,0,0,0,.26.24,9.23,9.23,0,0,1-.72.93c-.4.41-.86.77-1.31,1.17-.2-.15-.59-.62-.76-.55a3.4,3.4,0,0,1-2.9-.35,16,16,0,0,0-2.36-.59l-.68-1.6c-.61.69.28,1.94-1,2.08-.17-.17-.32-.46-.51-.48a18.9,18.9,0,0,0-3.43-.23c-1.12.08-2.38.3-3.2-.33a2.1,2.1,0,0,0-2.37-.48c-.13.06-.39-.18-.59-.28a17.4,17.4,0,0,1,.38-2.06c.1-.32.46-.55.7-.83l1.2.47c0,.61-.06,1.23-.11,2.15l3.28-1.17c.29,0,.68,0,.86-.16C19.14,50.7,20,51,20.94,51.32Zm6.71,3.46-.24-.08,0,.14Z"/><path class="cls-4" d="M12,53.13c.2.1.46.34.59.28a2.1,2.1,0,0,1,2.37.48c.82.63,2.08.41,3.2.33a18.9,18.9,0,0,1,3.43.23c.19,0,.34.31.51.48-.3,1.16-1.34,1.2-2.24,1.45-.44.12-.9.2-1.35.3l-.69,0c-.39-.32-.74-.8-1.19-.93a8.24,8.24,0,0,0-3.83-.35,6.44,6.44,0,0,1-2.4-.27c-.15,0-.21-.5-.32-.77C10.57,53.7,10.89,52.8,12,53.13Z"/><path class="cls-4" d="M83.15,49.16l-.36-.37c0-.72.19-1.12,1-1.08,2.16.12,2.71,1,2.08,3.45l-1.27.44Z"/><path class="cls-1" d="M87.48,23.5l-.15-.09.16.08Z"/><path class="cls-1" d="M10.07,54.33c.11.27.17.74.32.77a6.44,6.44,0,0,0,2.4.27,8.24,8.24,0,0,1,3.83.35c.45.13.8.61,1.19.93A27.89,27.89,0,0,1,14.3,57c-1.89,0-3.78-.2-5.66-.33A2.08,2.08,0,0,1,8,56.45c-.23-.49-.48-.42-.74,0l-.71-.06a5.65,5.65,0,0,0,.82-3c0-.17.46-.4.71-.6C8.34,54.1,8.34,54.1,10.07,54.33Z"/><path class="cls-4" d="M14.27,50.71l-1.2-.47.24-1.17a12.67,12.67,0,0,1-2.05-.36c-.68-.22-.88-.67-.39-1.37a10.42,10.42,0,0,0,.86-1.89l.85.14c0,.24,0,.48,0,.72.09.66.17,1.32.26,2l2.56-.36c.71,1.12-.48,1.79-.51,2.69Z"/><path class="cls-2" d="M12.58,45.59l-.85-.14c.3-.24.59-.47.87-.71C12.6,45,12.59,45.31,12.58,45.59Z"/><path class="cls-4" d="M58.58,64.34l.67-.1L60.4,64c6.73.1,13.47-.56,20.2,0l1.13,0,1.35,0a5,5,0,0,0,1.15.59c1.68.38,3.37.7,5,1l.38.42-4.31.38a17.16,17.16,0,0,1-2.12.3c-.88,0-1.77-.1-2.66-.13-1.64,0-3.29,0-4.91-.15-1.1-.11-2.3.3-3.29-.56-.06,0-.32.1-.46.19A2.54,2.54,0,0,1,69.09,66c-.51.28-.91.66-1.31.67-1.25,0-2.65-.5-3.72-.09-1.38.53-2.49-.19-3.72-.1-.3,0-.61,0-.9,0-2.39.48-4.87.33-7.24,1a24.81,24.81,0,0,1-3.23.58c.26.51.57.8.91.85a6.2,6.2,0,0,0,2,0,5.39,5.39,0,0,1,3.23.56l1-.86.65.86c1.67-.46,3.38-1,5.17-.35.15,0,.43.06.5,0,.71-.85,1.41-.23,2.12,0,.19.06.37.15.56.22.3-.89.94-.37,1.29-.19a1.37,1.37,0,0,0,1.45,0,2.71,2.71,0,0,1,3.09.88c-6.86.09-13.73.18-20.59,0-.38-.43-.74-.4-1.08.06-1.42-.18-2.84-.37-4.27-.53-.86-.09-1.73-.14-2.59-.2,0-.33-.07-.66-.12-1.1.74.25,1.51.78,1.88.58a1.41,1.41,0,0,1,1.72,0,.71.71,0,0,0,1.1-.52,1.17,1.17,0,0,0-.48-1,25.19,25.19,0,0,0-3.69-1.19c-.84-.19-1.65-.06-2.43-.81-.46-.43-1.61-.12-2.45-.17-.06,0-.11-.19-.26-.48L39.42,64l1.75.08c.52.82,1.21.5,1.88.27h1.46c0,.82.7.75,1.14.86a7.06,7.06,0,0,0,3.11.46c1.09-.28,2,.28,3,.09a21.66,21.66,0,0,0,3.16-.42C56.12,64.94,57.59,65.48,58.58,64.34Zm11.23.48c-.09.05-.23.08-.25.15s.06.19.1.29L70,65C69.93,65,69.87,64.89,69.81,64.82Z"/><path class="cls-5" d="M39.42,64l-1.82.71c.15.29.2.47.26.48.84,0,2-.26,2.45.17.78.75,1.59.62,2.43.81a25.19,25.19,0,0,1,3.69,1.19,1.17,1.17,0,0,1,.48,1,.71.71,0,0,1-1.1.52,1.41,1.41,0,0,0-1.72,0c-.37.2-1.14-.33-1.88-.58,0,.44.08.77.12,1.1h-.71C41.67,68.28,41,68,40,68l-.23,1c-.38.44-.77.83-1.43.67.1-.78-.28-1.07-1-1.06a7.31,7.31,0,0,1-2.66-.14c-1.38-.55-2.56-.77-3.65.68a3.36,3.36,0,0,0-3.16-1.46,30,30,0,0,0-3.91.41l-1.26-1.83-.35.11c-.12.67-.24,1.34-.34,1.87-1.38.08-2.67.13-3.95.24a1,1,0,0,0-1,1.21l-.75,0c-.13-.33-.18-.85-.42-1a1,1,0,0,0-1.37.64h-.31L12.35,69c-.13-.36-.26-.71-.38-1.07a13.66,13.66,0,0,1,1.43,0,2.36,2.36,0,0,0,2.77-1.47,1.23,1.23,0,0,1,.75-.66,5.91,5.91,0,0,1,2.45-.37c2,.4,3.91,0,5.86,0a3.91,3.91,0,0,1,1.24.09c1.46.59,2.76,0,4.38-.31l-2-1.31a12,12,0,0,1,1.53-.42c2.82-.35,5.64-.63,8.44.2A2.49,2.49,0,0,1,39.42,64Zm3.86,3.47c-.1,0-.22-.14-.29-.11s-.1.19-.14.29.22.14.29.11S43.24,67.59,43.28,67.48Z"/><path class="cls-5" d="M70.86,70.09a2.71,2.71,0,0,0-3.09-.88,1.37,1.37,0,0,1-1.45,0c-.35-.18-1-.7-1.29.19-.19-.07-.37-.16-.56-.22-.71-.2-1.41-.82-2.12,0-.07.08-.35.07-.5,0-1.79-.69-3.5-.11-5.17.35L56,68.68l-1,.86A5.39,5.39,0,0,0,51.85,69a6.2,6.2,0,0,1-2,0c-.34,0-.65-.34-.91-.85a24.81,24.81,0,0,0,3.23-.58c2.37-.7,4.85-.55,7.24-1,.29,0,.6,0,.9,0,1.23-.09,2.34.63,3.72.1,1.07-.41,2.47.11,3.72.09.4,0,.8-.39,1.31-.67a2.54,2.54,0,0,0,2.82.17c.14-.09.4-.24.46-.19,1,.86,2.19.45,3.29.56,1.62.15,3.27.1,4.91.15.89,0,1.78.15,2.66.13a17.16,17.16,0,0,0,2.12-.3c.11.71.22,1.41.34,2.12-1.34.36-2.66.74-4,1.06-.14,0-.38-.42-.57-.42-.77,0-1.56.07-1.79,1.08l-.94-1.3-1.14,1.1c-1.42-1.45-3.3-1.07-5.22-.92,0,.32,0,.61-.08.9Z"/><path class="cls-4" d="M17,69.74a1,1,0,0,1,1-1.21c1.28-.11,2.57-.16,3.95-.24.1-.53.22-1.2.34-1.87l.35-.11,1.26,1.83a30,30,0,0,1,3.91-.41A3.36,3.36,0,0,1,31,69.19c1.09-1.45,2.27-1.23,3.65-.68a7.31,7.31,0,0,0,2.66.14c.75,0,1.13.28,1,1.06-2.42-.06-4.84-.13-7.26-.16-.7,0-1.4.09-2.09.14l-1.11-.26H20.31l-1.13,0Z"/><path class="cls-4" d="M39.75,69,40,68c1,0,1.69.25,1.64,1.36Z"/><path class="cls-2" d="M27.86,69.43l1.11.26-.6.71Z"/><path class="cls-5" d="M49.19,70.11c.34-.46.7-.49,1.08-.06l-.6.71Z"/><path class="cls-1" d="M85.69,68.65c-.12-.71-.23-1.41-.34-2.12l4.31-.38a3.51,3.51,0,0,0,3.23,0c-.72-.34-1.25-.58-1.76-.85a1.24,1.24,0,0,0-1.85.45c-1.68-.34-3.37-.66-5-1a5,5,0,0,1-1.15-.59L86.67,64l9.15-.29-1.11.44a4.41,4.41,0,0,1-.2,1.52c-.18.35-.71.52-1.1.78l.4.77a8.11,8.11,0,0,0-1.26,1c-.76,1-.81,1-2.18.46.1-.27.2-.53.42-1.08l-4.21-.39-.18,1.46Z"/><path class="cls-5" d="M86.4,68.66l.18-1.46,4.21.39c-.22.55-.32.81-.42,1.08C89.05,68.91,87.72,69.26,86.4,68.66Z"/><path class="cls-4" d="M28.87,63.88l2,1.31c-1.62.29-2.92.9-4.38.31a3.91,3.91,0,0,0-1.24-.09c-1.95,0-3.88.44-5.86,0a5.91,5.91,0,0,0-2.45.37,1.23,1.23,0,0,0-.75.66A2.36,2.36,0,0,1,13.4,68,13.66,13.66,0,0,0,12,68c-.13-.12-.25-.25-.37-.37l.2-1.25-4.16-.7L7,67.09c-1.64-1.47-1.53-1.81-3.32-.6l-1.11,0L1.81,65c.16-.48.33-1,.52-1.51l1.76.73c1-.07,2-.16,3-.21.66,0,1.32,0,2,0l.37,0L10.9,64c.25.34.28.79,1,.84A11.68,11.68,0,0,0,16,64.4l1.12-.19,2-.13.78.6.14.08-.15-.07v-.48h.74c.49.72.85.57,1.12-.17l5.66-.14.54,0Z"/><path class="cls-6" d="M3.67,66.49c1.79-1.21,1.68-.87,3.32.6l.65-1.45,4.16.7-.2,1.25c-.9.2-2.13-.12-2.17,1.4l-5,0c0-.55.21-1.27-.71-1.37Z"/><path class="cls-4" d="M12.27,72.94l-.41.26-2.65,0A.68.68,0,0,1,9.13,73c.27-1.06.53-2.11.8-3.16,1.43-.06,1.6,1.27,2.42,1.73C12.32,72,12.3,72.47,12.27,72.94Z"/><path class="cls-5" d="M19.18,69.44l1.13,0c0,.62,1.07,1,.34,1.77h-.36a1.29,1.29,0,0,0-1.45-.73Z"/><path class="cls-4" d="M14.49,69.39a1,1,0,0,1,1.37-.64c.24.11.29.63.42,1Z"/><path class="cls-4" d="M4.39,68.94,3.67,69,3.3,69v-.11c.12-.46.25-.91.37-1.36C4.6,67.67,4.34,68.39,4.39,68.94Z"/><path class="cls-4" d="M12.35,69l1.83.36Z"/><path class="cls-5" d="M21.37,71.55,21,71.19a4.34,4.34,0,0,1,.51,0,.73.73,0,0,1,.26.14Z"/><path class="cls-3" d="M3.68,67.57c-.12.45-.25.9-.37,1.36a1.39,1.39,0,0,1-1.8-.63l-.09-.73,1.14-1.1,1.11,0Z"/><path class="cls-3" d="M20.61,37.55c1.17-1.39,2.3-2.82,3.54-4.15.79-.85,1.74-1.57,2.61-2.35,1.1-.07,1.5-.74,1.51-1.74h0c1.12-.12,1.71-1,2.47-1.68a11.49,11.49,0,0,1,2.39-1.81c1.31-.66,2.39,0,3.27.89-.08,1-.15,1.86-.23,2.75-.25.74-.44,1.52-.76,2.24a14.64,14.64,0,0,1-3.35,4.58,8.48,8.48,0,0,1-3,2.17,22.51,22.51,0,0,0-3.51,2l-3.86.12L21,40.1C20.88,39.25,20.75,38.4,20.61,37.55Z"/><path class="cls-3" d="M53.53,40.48a2.49,2.49,0,0,1-.15-.28c-.41-1.52.28-2.43,1.54-3.23a11.88,11.88,0,0,0,2.32-2.22c1.06-1.18,2-2.43,3.08-3.65.4-.47.72-1.12,1.24-1.37a11.65,11.65,0,0,0,3.09-2.38c.39-.39.8-.81,1.41-.45s.91.65.29,1.24c0,0,.07.21.11.32l1.28,3.75c-.18,3.6-2.55,5.56-5.43,7a37.66,37.66,0,0,1-4.12,1.57,2.59,2.59,0,0,1-2.48.11A11.09,11.09,0,0,0,53.53,40.48Z"/><path class="cls-2" d="M67.74,32.21l-1.28-3.75c0-.11-.14-.29-.11-.32.62-.59.21-.95-.29-1.24s-1,.06-1.41.45a11.65,11.65,0,0,1-3.09,2.38c-.52.25-.84.9-1.24,1.37-1,1.22-2,2.47-3.08,3.65A11.88,11.88,0,0,1,54.92,37c-1.26.8-2,1.71-1.54,3.23l-1.52-1.68L53,37.29c2.88-3.13,5.73-6.28,8.65-9.38a23.74,23.74,0,0,1,3-2.6c1.51-1.15,3-.69,3.74,1a11.37,11.37,0,0,0,1.37,2.3,45.65,45.65,0,0,0,5.71,5.67c.83.73,1.52,1.62,2.44,2.61a2.29,2.29,0,0,1,2.38,1.51L76.7,43l-2.58-.37h0l-.45-.79,2.84-3.5c-1.43-1.14-2.8-2.22-4.16-3.32s-2.77-2.24-4.16-3.37Z"/><path class="cls-1" d="M36.28,45.88,25,45.57c0-.13,0-.25,0-.38l2.6-.92-.47-1.59L39,43c.62-.77,1.06-1.4,1.58-2,.9-.94,1.86-1.83,2.79-2.75v1.58l.91-1.38,1.29,1.28a14.87,14.87,0,0,1-4,3.62c1,0,1.95,0,2.92,0,1.78-.09,3.57-.22,5.35-.34l4.82-.37h0l0,.39a2.32,2.32,0,0,1-1.05,2.1l.34.78c-1.08.06-2.19.36-3-.56-.72.31-.56,1.59-1.59,1.24-.32-.11-.54-.48-.8-.73l.8-.58c-.82-.1-1.51-.22-2.2-.26a2.24,2.24,0,0,0-2.28.9l-.32,0c-.07-1-.53-1.46-1.61-1.47C40.55,44.41,38.29,44.57,36.28,45.88ZM50.17,44.2c.19.7.67.64,1.14.52.1,0,.16-.24.33-.52Zm3.2-1c-.21.29-.45.48-.41.61s.29.33.45.49c.14-.15.39-.3.39-.45S53.59,43.53,53.37,43.23Z"/><path class="cls-2" d="M21.7,40.53l3.86-.12c.16.51.31,1,.47,1.54-1.12,0-2.47-.54-2.73,1.1a5.86,5.86,0,0,0-1.84,0,32.74,32.74,0,0,1-4.2,1c-1.73.42-2,1.3-.91,2.74-.06.71.28,1,.95.85.83-.17,1.66-.4,2.5-.61l2.59-1-.66,1.67-.93.09c1.05,1.19,1.34,2.37.14,3.52-.91-.32-1.8-.62-2.64.21-.18.17-.57.11-.86.16-.23-.22-.42-.54-.7-.63a16.8,16.8,0,0,0-1.86-.45c0-.9,1.22-1.57.51-2.69l-2.56.36c-.09-.65-.17-1.31-.26-2a2.16,2.16,0,0,0,.61-.35c2.42-2.63,5.59-3.65,9.12-4.16Z"/><path class="cls-2" d="M36.17,29.45l.23-2.74c-.88-.86-2-1.55-3.27-.89a11.49,11.49,0,0,0-2.39,1.81c-.76.67-1.35,1.56-2.47,1.68,0-1.25,1.29-1.47,1.88-2.26a14.41,14.41,0,0,1,2.75-2.53,2.33,2.33,0,0,1,3.35.42c2,3,5,5,7.4,7.72.79.9,1.5,1.85,2.25,2.77-1,.09-2.29-.47-2.57,1.18a2.51,2.51,0,0,1-.63-.33q-2.75-2.7-5.45-5.43A14.87,14.87,0,0,1,36.17,29.45Z"/><path class="cls-5" d="M53.54,45.12A2.32,2.32,0,0,0,54.59,43l.5-.27-.47-.12h0c.31-1.06-.82-1.4-1.09-2.16a11.09,11.09,0,0,1,2.18.45,2.59,2.59,0,0,0,2.48-.11l1.47,2.91a4.08,4.08,0,0,1-1.52-.34c-.84-.57-1.39-.26-2,.27l1.43,2.11Z"/><path class="cls-5" d="M43.33,36.61c.28-1.65,1.58-1.09,2.57-1.18A11.38,11.38,0,0,1,47.27,37c.76,1.3.59,1.63-1,2.39l-.27-1-.38.21.66.76-.75.33-1.29-1.28-.91,1.38V38.26C43.36,37.71,43.34,37.16,43.33,36.61Z"/><path class="cls-5" d="M20.61,37.55c.14.85.27,1.7.41,2.55l-2.06-1Z"/><path class="cls-2" d="M28.27,29.31c0,1-.41,1.67-1.51,1.74Z"/><path class="cls-2" d="M58.58,64.34c-1,1.14-2.46.6-3.67,1a21.66,21.66,0,0,1-3.16.42c-1,.19-1.9-.37-3-.09a7.06,7.06,0,0,1-3.11-.46c-.44-.11-1.17,0-1.14-.86l0-.06.38-.29c1.69-.11,3.37-.21,5.08-.18,2.38,0,4.74.91,7.14.23C57.51,63.93,58.08,64.24,58.58,64.34Z"/><path class="cls-5" d="M16,64.4a11.68,11.68,0,0,1-4.12.43c-.68,0-.71-.5-1-.84a6.84,6.84,0,0,1,5,.19A1.74,1.74,0,0,0,16,64.4Z"/><path class="cls-1" d="M43.05,64.36c-.67.23-1.36.55-1.88-.27Z"/><path class="cls-2" d="M21.77,64c-.27.74-.63.89-1.12.17Z"/><path class="cls-2" d="M19.91,64.21v.48h0l-.78-.6Z"/><path class="cls-1" d="M81.73,64.06,80.6,64Z"/><path class="cls-2" d="M60.4,64l-1.15.24Z"/><path class="cls-2" d="M16,64.4a1.74,1.74,0,0,1-.05-.22l1.17,0Z"/><path class="cls-2" d="M7.25,56.42c.26-.39.51-.46.74,0Z"/><path class="cls-5" d="M28,63.88l-.54,0Z"/><path class="cls-5" d="M9.45,64l-.37,0Z"/><path class="cls-1" d="M44.85,64l-.38.29Z"/><path class="cls-4" d="M70.41,46a4.49,4.49,0,0,1,5.74-.24A6,6,0,0,1,70.41,46Z"/><path class="cls-4" d="M58.58,46.19l-1-.42L56.1,43.66c.65-.53,1.2-.84,2-.27a4.08,4.08,0,0,0,1.52.34.66.66,0,0,1,.33.12C60.08,45,59.25,45.53,58.58,46.19Z"/><path class="cls-4" d="M60,47c.33-1.38,1-1.87,2.31-1.56a10.87,10.87,0,0,1,1.34.41c.09,0,.14.18.35.48A4.29,4.29,0,0,0,63,47a5,5,0,0,0-.43,1.27C61.71,48,61.32,46.53,60,47Z"/><path class="cls-1" d="M66.21,51.27c.36.44,1.35.57.77,1.5C66.23,52.52,66.1,52,66.21,51.27Z"/><path class="cls-4" d="M60,47l-.14.48L60,47Z"/><path class="cls-2" d="M74.12,42.64l-.08.15.08-.14Z"/><path class="cls-4" d="M36.28,45.88c2-1.31,4.27-1.47,6.58-1.46,1.08,0,1.54.48,1.61,1.47-.88.08-2-.38-2.31.72-.68-.25-1.31-.52-2-.71a2.1,2.1,0,0,0-2.13.27c-.51.42-1.24.8-1.9.07Z"/><path class="cls-1" d="M39.75,52.05c-.2.13-.36.3-.44.27a1.47,1.47,0,0,1-.42-.37c.14-.07.28-.2.42-.19S39.56,51.91,39.75,52.05Z"/><path class="cls-1" d="M51.72,53.48l.08-.15-.08.16Z"/><path class="cls-2" d="M25.36,48.43c1.65-1.37,5.76-1.91,7.37-1A2,2,0,0,1,34,49.3a2,2,0,0,1-1.7,1.61,4.14,4.14,0,0,1-2.79-.23,4.56,4.56,0,0,0-1.36-.41C26.44,50,26.44,50,25.36,48.43Z"/><path class="cls-5" d="M21.73,47.71,22.39,46,19.8,47l-.62-.14c.2-1.69.37-1.87,2-1.84,1.27,0,2.54.08,3.81.13,0,.13,0,.25,0,.38,0,1.17-1.09,1.3-1.77,1.8l-.41.23Z"/><path class="cls-2" d="M22.83,47.6l.41-.23Z"/><path class="cls-1" d="M27.65,54.78l-.2.06,0-.14Z"/><path class="cls-5" d="M89.28,65.73a1.24,1.24,0,0,1,1.85-.45c.51.27,1,.51,1.76.85a3.51,3.51,0,0,1-3.23,0Z"/><path class="cls-5" d="M69.81,64.82c.06.07.12.15.19.22l-.34.22c0-.1-.12-.21-.1-.29S69.72,64.87,69.81,64.82Z"/><path class="cls-4" d="M43.28,67.48c0,.11-.06.26-.14.29s-.19-.07-.29-.11.06-.26.14-.29S43.18,67.44,43.28,67.48Z"/><path class="cls-2" d="M19.92,64.69l.15.07-.14-.08Z"/><path class="cls-4" d="M26,42l1.1.73c.13.45.27.9.47,1.59l-2.6.92c-1.27,0-2.54-.12-3.81-.13-1.64,0-1.81.15-2,1.84-.95.06-1.86-.88-2.83-.1-1.09-1.44-.82-2.32.91-2.74a32.74,32.74,0,0,0,4.2-1,5.86,5.86,0,0,1,1.84,0C23.56,41.41,24.91,42,26,42Z"/><path class="cls-5" d="M50.17,44.2h1.47c-.17.28-.23.49-.33.52C50.84,44.84,50.36,44.9,50.17,44.2Z"/><path class="cls-5" d="M53.37,43.23c.22.3.44.48.43.65s-.25.3-.39.45c-.16-.16-.4-.3-.45-.49S53.16,43.52,53.37,43.23Z"/><path class="cls-2" d="M46.32,39.41l-.66-.76.38-.21.27,1Z"/></g></svg>