<svg xmlns="http://www.w3.org/2000/svg" viewBox="0 0 100 100"><defs><style>.cls-1{fill:#976866;}.cls-2{fill:#9b6d6c;}.cls-3{fill:#bb9d9b;}.cls-4{fill:#b79896;}.cls-5{fill:#936160;}.cls-6{fill:#9d716f;}.cls-7{fill:#a37978;}.cls-8{fill:#b69694;}.cls-9{fill:#c4a9a8;}.cls-10{fill:#ab8685;}.cls-11{fill:#c7adac;}.cls-12{fill:#cbb3b2;}.cls-13{fill:#cdb6b6;}.cls-14{fill:#d2bebe;}.cls-15{fill:#ae8a89;}.cls-16{fill:#ba9b99;}.cls-17{fill:#a57c7b;}.cls-18{fill:#bd9f9e;}.cls-19{fill:#a7807e;}.cls-20{fill:#c9b0af;}.cls-21{fill:#b39290;}.cls-22{fill:#986a68;}.cls-23{fill:#c0a3a2;}</style></defs><g id="Ebene_5" data-name="Ebene 5"><path class="cls-1" d="M68.16,8l2.17.49c0,.16,0,.32,0,.48l-.68.55a1.23,1.23,0,0,0-2,.14,7.83,7.83,0,0,1-1.05.83c-.42.34-.83.7-1.25,1.06a7.52,7.52,0,0,0-3.23.89,3.67,3.67,0,0,0-.94-.14c-.92,0-1.83.1-2.75.21a2.89,2.89,0,0,0-1.47.37,3,3,0,0,1-1.5.94c-1.25.24-2.45,1-3.68,1a8.72,8.72,0,0,0-4.65,1.65,17.64,17.64,0,0,1-3.81,2.28c-1.17.38-1.89,1.26-2.93,1.71A1.31,1.31,0,0,0,40,22.41l-1.26.19a5.18,5.18,0,0,1-1.87,3.74c-.08.07-.08.23-.11.34l-.71.89-.32.24-.77.31c-.3.26-.61.51-.9.77a2.68,2.68,0,0,1-2.56.36l-.38-.16-.73,0-.91-.37-.37-.37L29,27.78v-.73c.48,0,.77-.16.76-.68.34-1.36.48-2.78,1.52-3.87.33-.34.54-.8.86-1.16a9.85,9.85,0,0,0,1.67-1.83c.8-1.61,2.26-2.59,3.38-3.88a6.25,6.25,0,0,1,3.41-2.2A12,12,0,0,0,42,12.76c1.86-.66,3.75-1.27,5.61-1.94.34-.13.59-.49.91-.71a2.19,2.19,0,0,1,.62-.27c.54,1,1.2.32,1.81.14a13.16,13.16,0,0,0,1.39-.43c.52-.22,1-.56,1.52-.76.75-.28,1.52-.49,2.28-.72l.39,0,1.29-.5.67,0c.07.45.12.78.18,1.11,0,.18.08.37.11.55A2.06,2.06,0,0,0,59.32,9c1-.95,2.2-.56,3.33-.68.09,0,.27.18.29.31.2.89.58.51,1.11.27s1.25-.83,1.87-.33a1.61,1.61,0,0,0,2.33.07Z"/><path class="cls-2" d="M4.7,67.69c-.25-.72-.46-1.45-.76-2.14-.79-1.79-1.71-3.53-2.4-5.36a23.41,23.41,0,0,1-.95-4A34,34,0,0,1,0,52C0,50.83.08,49.61.13,48.39a3.91,3.91,0,0,0,.48-.67c.15-.32.12-.76.33-1a6.81,6.81,0,0,1,1.28-.91L.7,45.36a6.79,6.79,0,0,1,.69-1,3.69,3.69,0,0,1,.86-.51l-.12-.22c-1.27.36-1.4.27-1.19-.88l1-.21-.58-1c1-.4,1.54.34,2.14.67s1.14.63,1.73-.08a2.45,2.45,0,0,1,1-.57c.19-.08.58-.1.64,0s0,.48.06.73,0,.34.05.51a3.5,3.5,0,0,0,.47-.25c.24-.17.45-.52.69-.53.85,0,1.18-.43,1.17-1.27,0-.66.34-1.33-.21-1.92.58.24,1.17.46,1.74.72a6.74,6.74,0,0,1,1.18.64c.65.48,1.25,1,1.88,1.54-.15.66.31.88.77,1.16a.88.88,0,0,1,.36.71A8.84,8.84,0,0,1,14.55,45l-.49.24h-.55l-.4-.35h-.34c-.77-.71-1.47-.75-1.84-.09l-1.07-.17-.39-.17c-.73-.3-1.46-.61-2.21-.88a2,2,0,0,0-1-.2c-.15,0-.21.54-.28.84s0,.36-.06.54c-.24,1.39-.49,2.77-.74,4.16A1.13,1.13,0,0,0,3.66,50l-1-.08c.51.52,1,1,1.43,1.43l-1.17.84,1.57,2.28.27-.06a3.68,3.68,0,0,1,.13-.89c.08-.22.33-.37.5-.56.18,1.14-.16,2.29.55,3.45a18.81,18.81,0,0,1,1.48,3.9c.28.85.5,1.73.74,2.59-.85.57-1.07,1.2-.27,2a3.83,3.83,0,0,1,.47,1c.19.36.39.72.58,1.09l.23-.31.49-.09.13.56c-1.08,1.07-.92,1.62.64,2.2l.06.18c-.19.06-.51.07-.55.18a2.45,2.45,0,0,0,.32,2.39c1,.84.53,1.39,0,2a3.89,3.89,0,0,1,.61.25c-.12.54-.29,1.08-.44,1.56.09.54.41,1.2.22,1.62a1.69,1.69,0,0,0-.11,1.33l-.21.36c-1,.35-1-.73-1.29-.93l-1.81.78c-.24-1-.49-1.9-.68-2.87,0-.11.27-.34.46-.42s.36,0,.54,0l.2-.2C6.11,75.23,6.19,73.84,6,72.72a5.44,5.44,0,0,0-1-3c0-.29,0-.57,0-.86s.18-.71.28-1.12ZM3.56,47.11l.86,1.23.25-.06A9.48,9.48,0,0,0,4.34,47,3.63,3.63,0,0,0,3.56,47.11Z"/><path class="cls-3" d="M74.79,9.3c.37,0,.81-.23,1.11-.1,1.61.67,3.23,1.36,4.77,2.16a13.53,13.53,0,0,1,2,1.58c.22.39.44.78.67,1.17l.24-.13,0-.45,1.83,1.36-.39,1.2.31.16.84-.82.64.54-.75.2.87.7h-.91c.14,1.05,1,.53,1.58.76-.2.29-.48.52-.47.73s.12.87.35,1c.6.28.54.19.44.8a6.4,6.4,0,0,0,.17,1.55h.29c.45-.72,1.81-.25,1.86-1.5A8.11,8.11,0,0,1,92,21.65,34.16,34.16,0,0,1,93.92,25c-.53.06-1,.18-1.09,1.06l1.84.39a13.28,13.28,0,0,1-.66,1.4,17.42,17.42,0,0,1-1.1,1.46,2.67,2.67,0,0,0,.82,0c.65-.29,1.28-.62,1.92-.94a10.69,10.69,0,0,1,.58,1.11c.56,1.47,1.15,2.92,1.61,4.41a15.18,15.18,0,0,1,.38,2.43,20.61,20.61,0,0,0,.46,2.83,11.43,11.43,0,0,1,.18,4.08,18,18,0,0,0,.18,3.1,7.83,7.83,0,0,0,.83,3.31c.27.43,0,1.19,0,1.8-.1.92-.24,1.84-.38,2.76a2.49,2.49,0,0,1-.14.44c0,.12-.09.25-.13.38l-.12.4c-.62-.07-.92-.28-.55-1,.08-.15-.1-.44-.17-.67-.2.07-.52.1-.58.23-.35.81-.64,1.65-1,2.47l-.16,1c-.32.11-.59.39-.55.46a10.64,10.64,0,0,0,.9,1.11l.94.37c-.07.49-.13,1-.19,1.48l-1.24.22.07.3,1.18-.37c0,.5,0,1,0,1.5l-.18.73-.73.92a8.72,8.72,0,0,1-1.08-1.69c-.12-.33.22-.84.4-1.39-.28-.63-.62-1.39-1-2.14,0,0-.23.05-.35.07,0-.63-.16-1.29.48-1.77.1-.07.08-.32.1-.49.16-1.42.22-2.85.49-4.25a26.72,26.72,0,0,0,.1-7.09c-.13-1.75-.17-3.51-.26-5.26a4.83,4.83,0,0,0-.12-1.08c-.38-1.38-.75-2.76-1.22-4.11a49.19,49.19,0,0,0-2.34-6c-1.4-2.72-2.6-5.6-5.15-7.61-1.42-1.12-2.62-2.52-4-3.73s-2.76-2.3-4.14-3.44c0-1.29-.26-1.46-1.42-1l-.27.07-.3-.07a12.11,12.11,0,0,0-.67-1.29,3,3,0,0,0-.65.23,5.14,5.14,0,0,0-.9-.33,10.38,10.38,0,0,0-1.25,0l-.8-2,1.16-1,.16,0c0,.42-.19,1,.5,1.07C74.47,9.91,74.64,9.51,74.79,9.3Zm2.82,1.41-.35-.29-.81.77a3.37,3.37,0,0,0,.59.37A6.3,6.3,0,0,0,77.61,10.71Z"/><path class="cls-2" d="M37.42,89.7a.13.13,0,0,1-.11.1,1.91,1.91,0,0,0-1.91.52l-.73-.41c-.18-.1-.45-.36-.55-.3-.69.38-1.36.82-2,1.24L31,90.69a3,3,0,0,0-2.28,0c-.76.15-1.07.61-.86,1.27v.25L25.31,92l0-.22a7.86,7.86,0,0,1,.82-.27,2.7,2.7,0,0,1,.57,0c-.17-.16-.31-.4-.52-.48-.44-.16-.94-.18-1.36-.36s-.84-.54-1.29-.76a.59.59,0,0,0-.53.22c-.25.59-.42,1.21-.62,1.82L22,91.78c-.09-.22-.19-.62-.25-.61-.82.06-1.07-.7-1.6-1,.53-.69,1-.35,1.48.07.17.14.51.09.77.13a2.47,2.47,0,0,0-.06-.82,2.3,2.3,0,0,0-.49-.59L22.89,87l1.29-.09-.06.79-.76-.22-.12.3,1.49.65.19-1.37.91.23c.36.19.71.53,1.08.55,1.24.06,2.49,0,3.76,0l.27-.62c1.66.93,1.66.93,1.7-.15L33,87l.36-.18h.54l1.64-1.17.11,1.19c-.17,0-.24.09-.28.07-.85-.31-.94.38-1,.86s.74,1.62,1.17,1.57a.47.47,0,0,0,.31-.16,2,2,0,0,1,2.38-1l1-1.1-.89-.36,0-.3c.25,0,.59-.1.75,0a.93.93,0,0,0,1.21,0c1.2.79,1.09,2,1,3.19,1,0,1.1-.2.81-1a8.5,8.5,0,0,1-.27-1.29c1.45.86,2.8,1.3,4.33.64.33-.14.82.07,1.22.17a4.28,4.28,0,0,1,.84.42V87.23l2.57.08c-.21,1-.91.34-1.63.35.41.36.61.65.89.77a3.25,3.25,0,0,0,3.68-.57c.41,1.22,1,1.26,2.36.28.3.14.61.27.9.42.84.4.9.37,1-.64a6.42,6.42,0,0,1,2.07.11,2,2,0,0,0,2-.16l1.27.28c.51.22,1,.33,1.32-.29l.33,0a2,2,0,0,0,2.23.41,17.2,17.2,0,0,1,2.6-.27,11.92,11.92,0,0,1-.23,1.89A1.41,1.41,0,0,1,68.06,91c-.16,0-.34.22-.5.35l-.35.07-.75.17a18.65,18.65,0,0,1-6.51,1c-1.27-.07-2.54,0-3.82,0-.11,0-.28,0-.33.07-.67.9-1.53.35-2.31.31s-1.78-.6-2.59.32l-.62-.8c-.74.93-1.56.23-2.32.12a10.46,10.46,0,0,1-1.76-.71c-.33-.11-.7-.09-1-.17a8,8,0,0,1-.93-.34l-.55-.07L42.57,91l-.37-.08-1.83-.49c-.18-.25-.33-.66-.56-.71a15.88,15.88,0,0,0-2.18-.3C37.57,89.44,37.49,89.61,37.42,89.7Zm-14.5-1.25-.29.37c.27.18.54.38.82.53,0,0,.2-.18.3-.28Z"/><path class="cls-4" d="M94.82,59.05c.12,0,.34-.1.35-.07.36.75.7,1.51,1,2.14-.18.55-.52,1.06-.4,1.39a8.72,8.72,0,0,0,1.08,1.69l.73-.92.2.18c-.09,1.29-.17,2.57-.25,3.85-.11.43-.23.86-.34,1.3-.43,1.16-.86,2.33-1.28,3.49-.44.3-.9.58-1.32.91s-.43.72.14,1l-.15.33-.75.2-.09,1.85-.16.2L93,76.31l-2,.55-.21.91,1,.25-.12.52-.1.17-.21.45a7.44,7.44,0,0,1-3.19,3.78l-.11-.72.85-1.28a1.57,1.57,0,0,0-.2-.55,2.28,2.28,0,0,0-.53-.37l.54-.74,0-.91a2.58,2.58,0,0,1,.62-.35c.68-.15.49-.5.32-.86l-1.33.66-1.47.72-.93.73-1.25.21-.46,0c1.64-1.81,3.39-3.55,4.9-5.47a22.65,22.65,0,0,0,2.17-4c.42-.86.72-1.78,1.08-2.67a35.27,35.27,0,0,0,1.3-3.36C94.17,62.33,94.46,60.68,94.82,59.05Z"/><path class="cls-5" d="M9.1,38.82c.55.59.21,1.26.21,1.92C9.32,41.58,9,42,8.14,42c-.24,0-.45.36-.69.53a3.5,3.5,0,0,1-.47.25c0-.17,0-.34-.05-.51s.05-.54-.06-.73-.45-.07-.64,0a2.45,2.45,0,0,0-1,.57c-.59.71-1.06.44-1.73.08s-1.15-1.07-2.14-.67l.58,1-1,.21C.73,43.92.86,44,2.13,43.65l.12.22a3.69,3.69,0,0,0-.86.51,6.79,6.79,0,0,0-.69,1l1.52.44a6.81,6.81,0,0,0-1.28.91c-.21.25-.18.69-.33,1a3.91,3.91,0,0,1-.48.67c0-1.18.08-2.36.14-3.55,0-.78.09-1.56.14-2.33.33-.57.65-1.14.92-1.62a4.26,4.26,0,0,0,.85-.46s-.13-.4-.26-.57c-.35-.48-.72-.94-1.09-1.41L.9,37.9c.39-.2.82-.39.34-.91l.18-1.11.94.38.27-1.73.15-.15L3.91,33c.07-1.17,1.35-1.2,1.84-2,1,.4,1.28.18,1.33-1l1.05-.41H9.72l-1.91,1,.13.4a4.09,4.09,0,0,0,1.19-.32,2.84,2.84,0,0,0,1.26-2.16l.35,0c.21.37.34.66-.08,1.07-.58.57-.43,1.14.21,1.7a.71.71,0,0,1,.18.54c-.2.89,0,1.08.9,1a1.86,1.86,0,0,1,.66.25l-.62,0-.69.24a3.46,3.46,0,0,0-1.15.24c-1.74,1-2.57,1.86-1.69,4.2a1.39,1.39,0,0,1,0,.35l-.64.19a.81.81,0,0,0-.65-1,.84.84,0,0,0-.66.24c-.11.13,0,.45,0,.65a4.82,4.82,0,0,0,.6,1.2,2.86,2.86,0,0,0,.8.53,4.68,4.68,0,0,0,.36-.79c0-.12-.06-.29-.1-.43l.39-.24Z"/><path class="cls-1" d="M22.89,87l-1.06,1.93a2.3,2.3,0,0,1,.49.59,2.47,2.47,0,0,1,.06.82c-.26,0-.6,0-.77-.13-.5-.42-.95-.76-1.48-.07H18.48l-.92-.55a1.73,1.73,0,0,0-.35-.27c-.34-.11-.76-.35-1-.24A.64.64,0,0,0,16,90.19s-.18.21-.27.32l-.17-.08-.38-.09c-.89-.4-1.78-.78-2.66-1.19S11,88.41,10.25,88a6.92,6.92,0,0,1-3.5-3.64l0-.48c.19-.48.68-1.23.54-1.37-.74-.77-.09-1.58-.22-2.33.32-.11.64-.23,1-.31a1.79,1.79,0,0,1,2.19,1.42c0,.33,0,.73.19,1a4,4,0,0,0,1,.71,3.69,3.69,0,0,1,1.87,1.11,3.54,3.54,0,0,0,1.49.77c.82.23,1.68.33,2.52.51a7.77,7.77,0,0,1,2.41.62A11.27,11.27,0,0,0,22.89,87Zm-8.34,2.36c-.05,0-.11-.07-.15,0s-.05.09-.07.14.11.07.15.06S14.53,89.4,14.55,89.35Z"/><path class="cls-6" d="M12.61,33.18a1.86,1.86,0,0,0-.66-.25c-.94.06-1.1-.13-.9-1a.71.71,0,0,0-.18-.54c-.64-.56-.79-1.13-.21-1.7.42-.41.29-.7.08-1.07,1.39-.36,2.88-.2,4.2-.88a26.37,26.37,0,0,1,3.23-1.52,6,6,0,0,1,2.12-.12c.68,0,1.36.13,2,.19.09.58.34.74.87.39a1.36,1.36,0,0,1,.79-.18c1.24.09,2.48.22,3.71.35.43,0,.84.14,1.26.22v.73c-1.1.06-.91,1-1.1,1.65l-.93-.72.36-.63-1.68-1a3,3,0,0,1-1.28,3.18c1,0,1.57.35,1.41,1.35,0,.05.05.11.08.16l-.54.09c.07-1.23-1-.31-1.35-.65a6.45,6.45,0,0,0-.67.62h-.37v-.19L23,29.93c.06-.53-.79-1-1.73-.94v.89c-.9.07-1.81-.38-2.68.23.22.3.49.51.5.74a1.19,1.19,0,0,1-.29.92,8.28,8.28,0,0,1-1.47.79l-.36.17Zm4.24-1.39.19-.45-1-.55c0,.23-.17.62-.09.68A4,4,0,0,0,16.85,31.79Z"/><path class="cls-7" d="M88.19,80a2.28,2.28,0,0,1,.53.37,1.57,1.57,0,0,1,.2.55c-.09,0-.21,0-.26.06A3,3,0,0,1,86,82.09c-.63,0-.88.62-.74,1.22a3.93,3.93,0,0,0,.51.94l0,.32a.2.2,0,0,1-.12.08l-.41,0-.42-.7-.5.34-.2.55a2.65,2.65,0,0,0-.63,0c-.88.22-1.83.31-2.31,1.26h-.72c0-.08-.06-.23-.1-.24a3.07,3.07,0,0,0-2.67,1.35h-.92l-1-.39c.22-.22.38-.49.53-.49,1.25,0,1.12-.92,1.24-1.7a2.13,2.13,0,0,0,1.12-1.79l.72-.23.91.68A.93.93,0,0,0,81,82h0c.35,0,.88.2,1,0,.59-.71,1.11-.48,1.74.08l1-2.62L86,79.27c.78.36.74-.33.93-.73l1.47-.72.39.55,0,.91a5.43,5.43,0,0,0-.9,0,4.45,4.45,0,0,0-.76.24l.1.28Z"/><path class="cls-4" d="M80.47,86.08h.72c.57.05,1.15-.56,1.71,0-1.21.47-2.41,1-3.62,1.4-2.85,1-5.7,2.11-8.57,3.09a27.61,27.61,0,0,1-3.15.7c.16-.13.34-.36.5-.35a1.41,1.41,0,0,0,1.55-1.11A11.92,11.92,0,0,0,69.84,88a17.2,17.2,0,0,0-2.6.27A2,2,0,0,1,65,87.81,8.78,8.78,0,0,1,67,86.72c1.87-.5,3.83-.65,5.59-1.53L72,86.46c0,.22-.13.54,0,.64a1.42,1.42,0,0,0,2.38-.54c.08-.19.33-.45.45-.43a1.14,1.14,0,0,1,.62.45c.1.15,0,.48.1.6a2.37,2.37,0,0,0,.84.52c.08,0,.28-.33.42-.51h.92a9.06,9.06,0,0,1,.92-.49C79.23,86.47,79.85,86.28,80.47,86.08Z"/><path class="cls-7" d="M68.16,8l.09.62a1.61,1.61,0,0,1-2.33-.07c-.62-.5-1.3.08-1.87.33s-.91.62-1.11-.27c0-.13-.2-.32-.29-.31-1.13.12-2.37-.27-3.33.68a2.06,2.06,0,0,1-.51.27c0-.18-.08-.37-.11-.55-.06-.33-.11-.66-.18-1.11l-.67,0c1.1-.23,2.19-.5,3.3-.67a15.36,15.36,0,0,1,2.25-.14A13.21,13.21,0,0,1,64.74,7Z"/><path class="cls-8" d="M7.09,80.22c.13.75-.52,1.56.22,2.33.14.14-.35.89-.54,1.37,0-.89.3-1.86-.7-2.47C6,80.15,6,78.86,5.91,77.57c-.1-1.65-.2-3.3-.37-4.95-.1-1-.33-1.94-.5-2.9a5.44,5.44,0,0,1,1,3c.15,1.12.07,2.51,1.73,2.94l-.2.2c-.18,0-.39-.1-.54,0s-.48.31-.46.42c.19,1,.44,1.92.68,2.87C7.2,79.48,7.14,79.85,7.09,80.22Z"/><path class="cls-9" d="M90.27,20.2c0,1.25-1.41.78-1.86,1.5h-.29A6.4,6.4,0,0,1,88,20.14c.1-.61.16-.52-.44-.8-.23-.11-.34-.64-.35-1s.27-.44.47-.73c-.56-.23-1.44.29-1.58-.76H87l-.87-.7.75-.2c1,.55,2,1,2,2.47,0,.39.57.81.89,1.19A7.53,7.53,0,0,0,90.27,20.2Z"/><path class="cls-10" d="M27.85,92.22V92c.29,0,.7.36.79-.26l.5.08-.08,0,0,0,0-.08c.9.11,1.3-.61,1.85-1.1l1.09.16a8.28,8.28,0,0,0,1-.38c.64-.33,1.26-.7,1.56.48l.77-.63a1.91,1.91,0,0,1,1.91-.52A13.39,13.39,0,0,1,34.82,91c-2.13.55-4.31.93-6.47,1.37C28.2,92.42,28,92.28,27.85,92.22Z"/><path class="cls-11" d="M95.65,28.35c-.64.32-1.27.65-1.92.94a2.67,2.67,0,0,1-.82,0A17.42,17.42,0,0,0,94,27.84a13.28,13.28,0,0,0,.66-1.4l-1.84-.39c.06-.88.56-1,1.09-1.06l0,0c0,.39-.07.77.5.75A2.57,2.57,0,0,1,95.65,28.35Z"/><path class="cls-6" d="M22.35,92c.2-.61.37-1.23.62-1.82a.59.59,0,0,1,.53-.22c.45.22.83.57,1.29.76s.92.2,1.36.36c.21.08.35.32.52.48a2.7,2.7,0,0,0-.57,0,7.86,7.86,0,0,0-.82.27l-.36.37-.17.07-.58-.06Z"/><path class="cls-7" d="M29,27.05c-.42-.08-.83-.18-1.26-.22-1.23-.13-2.47-.26-3.71-.35a1.36,1.36,0,0,0-.79.18c-.53.35-.78.19-.87-.39a17.7,17.7,0,0,1,7.39.1C29.73,26.89,29.44,27.08,29,27.05Z"/><path class="cls-10" d="M85.8,84.25a3.93,3.93,0,0,1-.51-.94c-.14-.6.11-1.25.74-1.22A3,3,0,0,0,88.66,81c0-.06.17,0,.26-.06l-.85,1.28.11.72-1.58,1Z"/><path class="cls-12" d="M96.83,56.47c.31-.82.6-1.66,1-2.47.06-.13.38-.16.58-.23.07.23.25.52.17.67-.37.68-.07.89.55,1-.28.85-.57,1.71-.86,2.56l-.65-.2c0-.38.09-.76.14-1.24Z"/><path class="cls-2" d="M.83,38.45c.37.47.74.93,1.09,1.41.13.17.3.54.26.57a4.26,4.26,0,0,1-.85.46c-.27.48-.59,1-.92,1.62C-.21,41.08.45,39.78.83,38.45Z"/><path class="cls-13" d="M73.68,8.81l-1.16,1L70.38,9c0-.16,0-.32,0-.48A3.3,3.3,0,0,1,73.68,8.81Z"/><path class="cls-12" d="M91.68,78.54,91.8,78l-1-.25.21-.91,2-.55.57.24a2,2,0,0,1-.31.62C92.75,77.65,92.21,78.09,91.68,78.54Z"/><path class="cls-6" d="M10.39,28.56a2.84,2.84,0,0,1-1.26,2.16A4.09,4.09,0,0,1,7.94,31l-.13-.4,1.91-1H8.13c.44-.46.83-1,1.61-.76C9.92,28.88,10.17,28.66,10.39,28.56Z"/><path class="cls-6" d="M15.71,90.51c.09-.11.28-.31.27-.32a.64.64,0,0,1,.22-1.12c.25-.11.67.13,1,.24a1.73,1.73,0,0,1,.35.27l-.74,1,.74.45-.57.27Z"/><path class="cls-10" d="M82.9,86.11c-.56-.6-1.14,0-1.71,0,.48-.95,1.43-1,2.31-1.26a2.65,2.65,0,0,1,.63,0l.6.59h0l-.59.22-.56.22-.36.11Z"/><path class="cls-6" d="M19.77,90.14h.36c.53.34.78,1.1,1.6,1,.06,0,.16.39.25.61l-2.38-.42Z"/><path class="cls-14" d="M6.07,81.45c1,.61.7,1.58.7,2.47,0,.16,0,.32,0,.48-.19-.2-.51-.39-.54-.61C6.11,83,6.11,82.23,6.07,81.45Z"/><path class="cls-13" d="M94.71,74c-.57-.24-.57-.6-.14-1s.88-.61,1.32-.91C95.49,72.72,95.1,73.35,94.71,74Z"/><path class="cls-6" d="M37.42,89.7c.07-.09.15-.26.21-.26a15.88,15.88,0,0,1,2.18.3c.23.05.38.46.56.71Z"/><path class="cls-2" d="M17.56,91l-.74-.45.74-1,.92.55-.55.76Z"/><path class="cls-2" d="M19.77,90.14l-.17,1.22-.77-.27,0-1Z"/><path class="cls-15" d="M7.08,30c0,1.23-.33,1.45-1.33,1Z"/><path class="cls-2" d="M2.63,34.53l-.27,1.73-.94-.38Z"/><path class="cls-12" d="M93.72,76.35l.09-1.85.75-.2Z"/><path class="cls-4" d="M84.73,85.39l-.6-.59c.07-.18.13-.37.2-.55l.92.36.41,0Z"/><path class="cls-11" d="M86.2,15.43l-.84.82-.31-.16.39-1.2Z"/><path class="cls-13" d="M74.79,9.3c-.15.21-.32.61-.45.6-.69-.07-.45-.65-.5-1.07Z"/><path class="cls-3" d="M97.57,57.76l.65.2,0,.7-.81.19Z"/><path class="cls-11" d="M83.61,13.53l0,.45-.24.13c-.23-.39-.45-.78-.67-1.17Z"/><path class="cls-12" d="M97.38,58.85l.81-.19c-.08.25-.16.51-.23.76L97,59.05Z"/><path class="cls-6" d="M18.85,90.13l0,1-.9-.2.55-.76Z"/><path class="cls-2" d="M3.91,33,2.78,34.38Z"/><path class="cls-8" d="M4.7,67.69l.58,0c-.1.41-.19.77-.28,1.12Z"/><path class="cls-12" d="M97.17,68.61c.11-.44.23-.87.34-1.3C97.4,67.74,97.28,68.17,97.17,68.61Z"/><path class="cls-2" d="M1.24,37c.48.52.05.71-.34.91Z"/><path class="cls-12" d="M97.78,61.05l-1.18.37-.07-.3,1.24-.22A.26.26,0,0,1,97.78,61.05Z"/><path class="cls-4" d="M85.8,84.25l.8-.33-.82.65Z"/><path class="cls-12" d="M97.76,63.46l-.2-.18.18-.73C97.75,62.85,97.75,63.16,97.76,63.46Z"/><path class="cls-4" d="M66.46,91.54l.75-.17Z"/><path class="cls-3" d="M94.4,25.76c-.57,0-.53-.36-.5-.75Z"/><path class="cls-6" d="M43.68,91.25l.55.07Z"/><path class="cls-10" d="M24.17,92.18l.58.06Z"/><path class="cls-4" d="M84.13,85.61l.59-.22Z"/><path class="cls-10" d="M24.92,92.17l.36-.37,0,.22Z"/><path class="cls-6" d="M42.2,90.94l.37.08Z"/><path class="cls-12" d="M91.37,79.16l.21-.45Z"/><path class="cls-12" d="M99.2,55c0-.13.09-.26.13-.38C99.29,54.74,99.24,54.87,99.2,55Z"/><path class="cls-6" d="M15.16,90.34l.38.09Z"/><path class="cls-4" d="M83.21,85.94l.36-.11Z"/><path class="cls-7" d="M56.56,8.09l-.39,0Z"/><path class="cls-16" d="M41.49,27.88c.23.06.54.05.68.2a28.64,28.64,0,0,0,4.26,3.5,25.27,25.27,0,0,1,3.22,2.91,3.49,3.49,0,0,1,.26,3.59c-.58,0-1.09,0-1-.88a8.68,8.68,0,0,0-1.18.57c-.18.13-.43.52-.37.61.66,1-.25,1.28-.75,1.74l-1.06-.35.14-1a4.46,4.46,0,0,1-.79.17,1.77,1.77,0,0,1-.56-.19l1.46-.92.22-.16.18-.06c.09.32.18.65.29,1,0,0,.26-.07.4-.1-.11-.33-.21-.66-.33-1,0-.07-.13-.12-.2-.18.57-1.05.61-2.07-.48-2.79-.72-.48-1.36-1.24-2.4-1.11a1.69,1.69,0,0,1-.84-.32c-1-.58-2-1.21-3-1.75A11.25,11.25,0,0,0,38,30.83l-.66-1.46H36c.15.41.91.72.17,1.17l-.38-.05A2.67,2.67,0,0,0,35,28.12l.77-.31.37.16c.32,0,.89-.07.9-.14.09-.95.84-.72,1.39-.84l1.37.36.38.08.73.21-1.31.3A1.2,1.2,0,0,0,41.49,27.88Zm-3.74-.61-.21.31,1.18.9c.09-.16.29-.35.25-.47A1,1,0,0,0,37.75,27.27Z"/><path class="cls-7" d="M73.32,11.81a2.59,2.59,0,0,0,.06.63c.28.83-.11,1.45-1,1.3a21.56,21.56,0,0,1-2.75-.82l-4.26-1.33c.42-.36.83-.72,1.25-1.06a7.83,7.83,0,0,0,1.05-.83,1.23,1.23,0,0,1,2-.14L70.38,9l2.14.79Z"/><path class="cls-10" d="M35,28.12a2.67,2.67,0,0,1,.76,2.37c-.61.1-1.22.21-1.84.29l-5,.59c.12-.21.19-.5.37-.6a1.32,1.32,0,0,0,.86-1.45c0-.07.16-.17.24-.25l.73,0,.38.16a2.68,2.68,0,0,0,2.56-.36C34.39,28.63,34.7,28.38,35,28.12Z"/><path class="cls-7" d="M30.43,29.07c-.08.08-.25.18-.24.25a1.32,1.32,0,0,1-.86,1.45c-.18.1-.25.39-.37.6a3.38,3.38,0,0,1-3.14.4c0-.05-.09-.11-.08-.16.16-1-.37-1.34-1.41-1.35a3,3,0,0,0,1.28-3.18l1.68,1-.36.63-1-.14c-.27,1.82,1.64,1.67,2.15,2.73,1.08-.79,1.08-.78.14-1.46a2,2,0,0,1-.35-.41c.19-.67,0-1.59,1.1-1.65.07.18.13.37.19.55l.37.37Zm-3.67,2.09c-.07-.07-.13-.16-.18-.16s-.16.13-.15.15.12.15.18.22Z"/><path class="cls-9" d="M38.43,27c-.55.12-1.3-.11-1.39.84,0,.07-.58.09-.9.14,0-.14,0-.27,0-.4l.71-.89Z"/><path class="cls-7" d="M31.54,29.25l-.38-.16Z"/><path class="cls-6" d="M29.52,28.7l-.37-.37Z"/><path class="cls-10" d="M36.09,27.57c0,.13,0,.26,0,.4l-.37-.16Z"/><path class="cls-17" d="M15.18,41.79l.55-.1c.07.31.14.61.2.83.56-.07,1.12-.31,1.46-.14a3.67,3.67,0,0,0,2.63,0l1.17.19c.34.71,1,1.09,1.41.87l-.45-.82.73-.42,1.09.34.46.84.5-.86h.52c.32.71,1.19.89,2.34.84a13.52,13.52,0,0,1,3.21.37,12.09,12.09,0,0,1,2,.83c.15-1,.53-1.41,1.44-1.06.19.08.5-.15.75-.23l.36,0a2.72,2.72,0,0,1-.17.83c-.46.76-1,1.48-1.45,2.21l-.2.18a3.87,3.87,0,0,1-.55-.43c-.24-.28-.44-.59-.7-.94l-1.16,1.68-2-.07-1.31-.07-1.85-.19L23,45.38,21.7,46l-.48-.83-.75.47c-.58-.08-1-.18-1.51-.22a4.65,4.65,0,0,1-1.5-.05,3.52,3.52,0,0,0-2.91.13c-.11,0-.32-.18-.49-.28l.49-.24A8.84,8.84,0,0,0,15,43.59a.88.88,0,0,0-.36-.71c-.46-.28-.92-.5-.77-1.16l.89.05.19.28Z"/><path class="cls-18" d="M14.06,45.26c.17.1.38.32.49.28a3.52,3.52,0,0,1,2.91-.13,4.65,4.65,0,0,0,1.5.05c.47,0,.93.14,1.51.22l.75-.47.48.83L23,45.38l3.24,1.14H24.62c-1.82,0-3.65.15-5.45,0s-3.79-.62-5.68-1l0-.27Z"/><path class="cls-19" d="M10.49,69.53C12,72.12,11.7,75,11.81,77.8L10.9,78l.93,1c0,.18-.06.35-.08.53l-1.19-.72a1.69,1.69,0,0,1,.11-1.33c.19-.42-.13-1.08-.22-1.62.15-.48.32-1,.44-1.56a3.89,3.89,0,0,0-.61-.25c.51-.65.94-1.2,0-2a2.45,2.45,0,0,1-.32-2.39C10,69.6,10.3,69.59,10.49,69.53Z"/><path class="cls-17" d="M5.17,48.93c.07,1.35.15,2.7.22,4-.17.19-.42.34-.5.56a3.68,3.68,0,0,0-.13.89l-.27.06L2.92,52.21l1.17-.84c-.47-.47-.92-.91-1.43-1.43l1,.08A1.13,1.13,0,0,1,5.17,48.93Z"/><path class="cls-16" d="M10.56,78.9l1.19.72L11.42,83a4,4,0,0,1-1-.71c-.18-.22-.14-.62-.19-1,.91-.64.33-1.36.11-2.07Z"/><path class="cls-19" d="M10.35,79.26c.22.71.8,1.43-.11,2.07a1.79,1.79,0,0,0-2.19-1.42c-.32.08-.64.2-1,.31,0-.37.11-.74.16-1.11l1.81-.78C9.32,78.53,9.37,79.61,10.35,79.26Z"/><path class="cls-19" d="M8.16,62.92c.36.86.72,1.72,1.07,2.58.15.36.29.73.43,1.09l-.49.09L8.94,67c-.19-.37-.39-.73-.58-1.09a3.83,3.83,0,0,0-.47-1C7.09,64.12,7.31,63.49,8.16,62.92Z"/><path class="cls-19" d="M9.79,67.15c.21.74.42,1.47.64,2.2C8.87,68.77,8.71,68.22,9.79,67.15Z"/><path class="cls-10" d="M12.23,45.22l-1.3-.41c.37-.66,1.07-.62,1.84.09Z"/><path class="cls-17" d="M3.56,47.11a3.63,3.63,0,0,1,.78-.1,9.48,9.48,0,0,1,.33,1.27l-.25.06Z"/><path class="cls-18" d="M12.23,45.22l.54-.32h.34l.06.63Z"/><path class="cls-17" d="M13.17,45.54l-.06-.63.4.35,0,.27Z"/><path class="cls-18" d="M9.86,44.64l-.39-.17Z"/><path class="cls-4" d="M97.38,58.85l-.36.2a10.64,10.64,0,0,1-.9-1.11c0-.07.23-.35.55-.46l.16-1,.88.05-.14,1.24Z"/><path class="cls-13" d="M78.78,14.21l-1.69-.91.27-.07C78.52,12.75,78.77,12.92,78.78,14.21Z"/><path class="cls-20" d="M76.79,13.23l-1.32-1.06a3,3,0,0,1,.65-.23A12.11,12.11,0,0,1,76.79,13.23Z"/><path class="cls-20" d="M77.61,10.71a6.3,6.3,0,0,1-.57.85,3.37,3.37,0,0,1-.59-.37l.81-.77Z"/><path class="cls-5" d="M35.56,85.68l1.49-1.8c.59.89,1,0,1.28-.09l2,1.56,0,.69,0,.42a.93.93,0,0,1-1.21,0c-.16-.12-.5,0-.75,0l0,.3.89.36-1,1.1a2,2,0,0,0-2.38,1,.47.47,0,0,1-.31.16c-.43,0-1.29-1-1.17-1.57s.2-1.17,1-.86c0,0,.11,0,.28-.07Z"/><path class="cls-7" d="M40.37,86.46l0-.42c2-.29,3.77.78,5.7.86a17.93,17.93,0,0,1,2.18.33v1.36a4.28,4.28,0,0,0-.84-.42c-.4-.1-.89-.31-1.22-.17-1.53.66-2.88.22-4.33-.64a8.5,8.5,0,0,0,.27,1.29c.29.8.18,1-.81,1C41.46,88.46,41.57,87.25,40.37,86.46Z"/><path class="cls-7" d="M50.84,87.31a25.07,25.07,0,0,1,4.47.56,12.24,12.24,0,0,0,2.71,0c-.08,1-.14,1-1,.64-.29-.15-.6-.28-.9-.42-1.39,1-2,.94-2.36-.28a3.25,3.25,0,0,1-3.68.57c-.28-.12-.48-.41-.89-.77C49.93,87.65,50.63,88.31,50.84,87.31Z"/><path class="cls-6" d="M25.83,87.28c1.4-.07,2.79-.16,4.18-.21.88,0,1.76,0,2.63,0,0,1.08,0,1.08-1.7.15l-.27.62c-1.27,0-2.52,0-3.76,0C26.54,87.81,26.19,87.47,25.83,87.28Z"/><path class="cls-6" d="M31,90.69c-.55.49-.95,1.21-1.85,1.1l-.5-.08c-.09.62-.5.27-.79.26-.21-.66.1-1.12.86-1.27A3,3,0,0,1,31,90.69Z"/><path class="cls-6" d="M35.4,90.32l-.77.63c-.3-1.18-.92-.81-1.56-.48a8.28,8.28,0,0,1-1,.38c.67-.42,1.34-.86,2-1.24.1-.06.37.2.55.3Z"/><path class="cls-6" d="M24.18,86.9l.74.15-.19,1.37-1.49-.65.12-.3.76.22Z"/><path class="cls-6" d="M22.92,88.45l.83.62c-.1.1-.26.3-.3.28-.28-.15-.55-.35-.82-.53Z"/><path class="cls-4" d="M63.36,88.15l1.32-.29C64.35,88.48,63.87,88.37,63.36,88.15Z"/><path class="cls-6" d="M33,87l.36-.18Z"/><path class="cls-6" d="M33.75,86.85h0Z"/><path class="cls-21" d="M81,82l2.78-2.16.4-.34a.17.17,0,0,1,.12,0l.46,0-1,2.62c-.63-.56-1.15-.79-1.74-.08C81.84,82.18,81.31,82,81,82Z"/><path class="cls-10" d="M88.19,80l-1-.27-.1-.28a4.45,4.45,0,0,1,.76-.24,5.43,5.43,0,0,1,.9,0Z"/><path class="cls-10" d="M88.76,78.37l-.39-.55,1.33-.66c.17.36.36.71-.32.86A2.58,2.58,0,0,0,88.76,78.37Z"/><path class="cls-10" d="M86.9,78.54c-.19.4-.15,1.09-.93.73Z"/><path class="cls-22" d="M8.18,38.82c0,.14.14.31.1.43a4.68,4.68,0,0,1-.36.79,2.86,2.86,0,0,1-.8-.53,4.82,4.82,0,0,1-.6-1.2c-.07-.2-.13-.52,0-.65a.84.84,0,0,1,.66-.24.81.81,0,0,1,.65,1Z"/><path class="cls-2" d="M8.18,38.82l-.37-.37.64-.19.12.32Z"/><path class="cls-6" d="M12,33.23l-.69.24Z"/><path class="cls-6" d="M14.55,89.35c0,.05,0,.13-.07.15s-.1,0-.15-.06,0-.13.07-.14S14.5,89.33,14.55,89.35Z"/><path class="cls-7" d="M18.11,33.13l-.72-.27,0-.3a8.28,8.28,0,0,0,1.47-.79,1.19,1.19,0,0,0,.29-.92c0-.23-.28-.44-.5-.74.87-.61,1.78-.16,2.68-.23V29c.94-.06,1.79.41,1.73.94l-.15,1.71v.19c-.68-.28-1.38-.76-1.92.19l-1-.52c-.7.44-.89,1.43-1.84,1.46C18.13,33,18.12,33.07,18.11,33.13Z"/><path class="cls-15" d="M18.11,33.13c0-.06,0-.17,0-.17,1,0,1.14-1,1.84-1.46L21,32c.54-1,1.24-.47,1.92-.19h.37l.36.34c-.49.12-1,.26-1.46.35-.94.18-1.88.35-2.82.5C18.93,33.08,18.52,33.09,18.11,33.13Z"/><path class="cls-10" d="M27.86,29.43a2,2,0,0,0,.35.41c.94.68.94.67-.14,1.46-.51-1.06-2.42-.91-2.15-2.73l1,.14Z"/><path class="cls-7" d="M23.62,32.17l-.36-.34a6.45,6.45,0,0,1,.67-.62c.4.34,1.42-.58,1.35.65A1.67,1.67,0,0,0,23.62,32.17Z"/><path class="cls-7" d="M16.85,31.79a4,4,0,0,1-.94-.32c-.08-.06.06-.45.09-.68l1,.55Z"/><path class="cls-15" d="M17.37,32.56l0,.3L17,32.73Z"/><path class="cls-10" d="M74.19,84.57a.08.08,0,0,1,.1,0c.6.28,1.2.57,1.81.81a1.58,1.58,0,0,0,.57,0c0-.16-.07-.33-.11-.49-.11-.39-.23-.78-.34-1.17l.56-.32c-.1.62-.18,1.23.74,1.25-.12.78,0,1.72-1.24,1.7-.15,0-.31.27-.53.49l1,.39c-.14.18-.34.53-.42.51a2.37,2.37,0,0,1-.84-.52c-.11-.12,0-.45-.1-.6a1.14,1.14,0,0,0-.62-.45c-.12,0-.37.24-.45.43A1.42,1.42,0,0,1,72,87.1c-.1-.1,0-.42,0-.64l.55,0c.2.19.37.48.59.52s.44-.27.52-.48C73.88,85.86,74,85.21,74.19,84.57Z"/><path class="cls-4" d="M77.52,84.61c-.92,0-.84-.63-.74-1.25l1.86-.54A2.13,2.13,0,0,1,77.52,84.61Z"/><path class="cls-10" d="M80.47,86.08c-.62.2-1.24.39-1.85.62a9.06,9.06,0,0,0-.92.49,3.07,3.07,0,0,1,2.67-1.35S80.43,86,80.47,86.08Z"/><path class="cls-21" d="M79.36,82.59,81,82a.93.93,0,0,1-.68,1.29Z"/><path class="cls-10" d="M85.25,84.61l-.92-.36.5-.34Z"/><path class="cls-11" d="M72.55,86.44l-.55,0,.55-1.27L74,84.6l-.92,1.65Z"/><polygon class="cls-6" points="29.15 91.79 29.1 91.87 29.07 91.83 29.15 91.79"/><path class="cls-16" d="M59.1,60.71c-.5,1.06-1,2.1-1.49,3.17s-.94,2.4-1.45,3.59a16.13,16.13,0,0,1-.93,1.86c-.36.63-.8,1.21-1.2,1.82-1.08,1.63-2.88,2.24-4.48,3.12-.18.1-.47,0-.72,0,.25-.41.49-.82.73-1.24l-.51-1c1.51-.7,1.62-1.41.34-2.63L49.33,68c.41-.71.79-1.43,1.23-2.11.61-1,1.27-1.86,1.89-2.8.34-.51.64-1,.95-1.55v1.58l.28.12c.21-.31.66-.78.58-.91-.25-.41.31-1.25-.64-1.26l.07-.34.31-.19c.81.4.93.32.94-.55a2.74,2.74,0,0,1,.24-.76c.88.93,1.85.43,2.79.5A.93.93,0,0,0,59.1,60.71ZM52.37,67c-.57-.09-.88-.89-1.54-.09l1,1.17Z"/><path class="cls-16" d="M60.62,53.49l-.21.77c-.74-.58-1.06-.51-1.2.38h1.18c-.1,1.85,0,3.75-1.25,5.33-.11-.19-.22-.38-.41-.73l-.48-.08.34-1c-.54.31-1,.42-1.17.71-.44.85-1,.49-1.36.32l-.63-2.39c.09-.24.18-.48.26-.72.62-.23.68-.54.14-.93L56,53.72c.36.89,1,.86,1.81.61a7.56,7.56,0,0,0-.17-.92c-.06-.16-.24-.28-.36-.42a3.09,3.09,0,0,1-.24.44,4.68,4.68,0,0,1-.39.39l-.43-1,0-.54c.71-.17.73-.78.67-1.28-.1-.78-.78-.89-1.44-.93v-.26c.06-.47-.1-.72-.61-.65a.12.12,0,0,1-.12,0l-.4-.32h0c.09-.51.31-.7.82-.4s1,.53,1.64.84a.93.93,0,0,0,.84,1.16c.28,0,.6-.23.91-.36l-.78-1.59.55-.28-.66-.87c-.36.31-.64.72-.84.69-1.12-.19-.06-1.25-.65-1.74l-3-.17v1.17a1.46,1.46,0,0,1-.83-.63c-.3-.59-.52-.64-.81,0s-.69.62-1.21.3a1.78,1.78,0,0,0-.52-.15l-.21.9H48.28l0-.82c.75-.43,1.5-.84,2.23-1.28a6.66,6.66,0,0,1,3.75-.81c2.17.09,4.25.61,5.19,3,.47,1.2,1,2.37,1.52,3.55l-1.26-.13v1.92ZM53.77,45l-.3.18.49.55.19-.15Zm3,12.3c-.16-.14-.23-.26-.31-.26s-.17.1-.25.16c.07.09.12.21.21.25S56.65,57.42,56.82,57.34Zm2.06-3.67c-.05,0-.12-.07-.15-.06s0,.1-.07.15.11.07.15.06S58.86,53.72,58.88,53.67Z"/><path class="cls-18" d="M85.26,58.21a5.12,5.12,0,0,1,0-.68,27,27,0,0,0-.21-7.35,7.09,7.09,0,0,0-.75-1.94,1.44,1.44,0,0,1,.48-1.86c1.21-.61,2.15-.09,2.68,1.22.78,1.93.44,3.88.36,5.85a4.55,4.55,0,0,1-1,2.62,16.41,16.41,0,0,0-1.19,2.28Z"/><path class="cls-8" d="M78.69,72.32a29.66,29.66,0,0,1,.67-3.14c.62-1.86,1.37-3.66,2-5.5a2,2,0,0,0,0-1,1.16,1.16,0,0,1,1.42-1.48c.12,0,.23.1.35.11,1.61.15,2,1.08,1.23,2.56-1,1.89-1.84,3.85-2.81,5.75-.21.42-.68.7-1,1.06s-.51.59-.76.89l-.78.91Z"/><path class="cls-18" d="M38.19,83,40.7,73l1.69-.36.55.39c0,.47-.06.93-.08,1.4l-.34.12-.36-.92-.89,1.84c.27.55.65.27,1-.21l.49.38.71-.79-.13,1.84-1.21-.1.82,1.2-.21,1.1H41.45l.34.77c-1.35.72-1.42.85-1,1.91a6,6,0,0,1,.58-.68,8.88,8.88,0,0,1,.78-.53c-.25,1.18-.48,2.36-.8,3.51-.07.25-.49.4-.75.6-.21-.42-.43-.84-.61-1.27s-.11-.81-.27-.86a1.81,1.81,0,0,0-1.06.14C38.49,82.57,38.35,82.81,38.19,83Z"/><path class="cls-23" d="M77.7,34.22a2.19,2.19,0,0,0,.82-.07c1.87-1,3.35.25,4.3,1.34a5.91,5.91,0,0,1,1.47,4.63c-.06.45-.5.83-.77,1.25-.44-.52-.67-1.41-1.39-1.07l-1.52-.89c-.44-1.06-.91-2.1-1.31-3.17-.27-.72-.46-1.45-1.34-1.68-.1,0-.16-.23-.25-.35Z"/><path class="cls-11" d="M73.78,29.85c-1.24-.78-2.49-1.53-3.71-2.34-.85-.57-.87-1.08,0-1.56a3.34,3.34,0,0,1,2.73-.28A13.37,13.37,0,0,1,76,27.2a2.36,2.36,0,0,1,1.22,1.48L75.5,30.43c-.26-.35-.51-.69-.77-1.06Zm2.09-1.14a1.46,1.46,0,0,0,.33-.43c0-.07-.22-.21-.34-.31a1.31,1.31,0,0,0-.33.42C75.51,28.46,75.75,28.6,75.87,28.71Z"/><path class="cls-3" d="M49.31,25.33l2.3-.57a9.9,9.9,0,0,1,1.89-.43c.84,0,.88.82,1.13,1.35.06.13-.39.62-.69.76-1.27.62-2.58,1.19-3.89,1.74a2.28,2.28,0,0,1-.79,0c-.4,0-.88.12-1.19,0-.51-.29-1.17-.7-1.31-1.18a1.74,1.74,0,0,1,.72-1.45,4.53,4.53,0,0,1,1.81-.3Z"/><path class="cls-18" d="M67.94,75.5a3.3,3.3,0,0,1,.73-.44c1.2-.3,2.41-.57,3.63-.85.36-.08,1.27.75,1.29,1.3s0,1.28-.68,1.54c-1,.37-2.07.7-3.11,1l-.56-.28c-.15-.23-.26-.61-.45-.66C67.82,76.92,67.63,76.35,67.94,75.5Z"/><path class="cls-3" d="M44.88,48.22c.26-1.14.52-2.29.79-3.43.16-.7.34-1.4.51-2.1l.25-.55h1c.33-.62.52-1,.76-1.42A8.87,8.87,0,0,1,49,39.65a1.72,1.72,0,0,1,.49-.29c-.35,1.78-.71,3.56-1.06,5.34l-.6-1.33L47,47.1c-.24.15-.66.27-.69.45C46.14,48.52,45.51,48.34,44.88,48.22Z"/><path class="cls-19" d="M44.88,48.22c.63.12,1.26.3,1.42-.67,0-.18.45-.3.69-.45l1.1-.37.24.1c0,.27,0,.54,0,.82l-.19.36-1,.47c1.72.66,1.72.66,1.7,1.7l-1.43,1.28c0-.24,0-.59-.09-.69a4,4,0,0,0-1-.45c-.06.18-.22.45-.16.52a9.49,9.49,0,0,0,.94.85v.55c-.32.14-.63.29-1,.41l-1.21.4a3.7,3.7,0,0,0-.38-1.27c-.06-.13-.14-.35-.09-.41.59-.62.06-1.18-.07-1.76Z"/><path class="cls-15" d="M49.39,69.36c1.28,1.22,1.17,1.93-.34,2.63l.51,1a5.07,5.07,0,0,1-1.63.32c-1.12-.14-1.31-.07-1.52,1.06l-.33,0c-.26-.52-.42-1.14-1.22-1.06-.07,0-.22-.19-.25-.31-.13-.59-.45-.32-.75-.2-.06-.55-.12-1.1-.19-1.65.52,0,1.13.16,1.53-.06.89-.48,1.35-.15,1.83.56a.58.58,0,0,0,1-.22c.07-.21.1-.43.16-.69l1.15.47c-.07-.62-.12-1.08-.18-1.53C49.26,69.6,49.33,69.48,49.39,69.36Z"/><path class="cls-21" d="M55.18,78.24C54,78.87,53,78,52,77.65a4.56,4.56,0,0,1-1.68-1.23l1.23.46c.06-.07.17-.14.21-.23A1.16,1.16,0,0,1,53.52,76a7.56,7.56,0,0,0,2.15.2c.29,0,.58.07.87.1l.5.55Z"/><path class="cls-11" d="M55.18,78.24,57,76.84l-.5-.55,4.08.28c0,.44-.08,1-.17,1.6a1.06,1.06,0,0,1-1.34.72c-.5-.12-1-.06-1.53-.14C56.77,78.61,56,78.41,55.18,78.24Z"/><path class="cls-21" d="M73.78,29.85l1-.48c.26.37.51.71.77,1.06l1.68-1.75c.08.47.15.94.25,1.4a3,3,0,0,0,.27,1.06,3,3,0,0,1,.4,2.58Z"/><path class="cls-19" d="M49.52,39.36a1.72,1.72,0,0,0-.49.29,8.87,8.87,0,0,0-.85,1.07c-.24.38-.43.8-.76,1.42h-1c-.74-.76,0-1.36.22-2,.5-.46,1.41-.74.75-1.74-.06-.09.19-.48.37-.61A8.68,8.68,0,0,1,49,37.2c-.13.84.38.91,1,.88Z"/><path class="cls-20" d="M62.1,25.3l-3.64.52a4.38,4.38,0,0,0,.51-1c.08-.7.24-1.11,1.13-1,.38.06.86-.36,1.27-.61a1.74,1.74,0,0,1,2,.05Z"/><path class="cls-21" d="M62.1,25.3l1.27-2,.18.06.34.27A2.07,2.07,0,0,1,66.29,25c.1.3.21.6.36,1Z"/><path class="cls-9" d="M55.43,56.84l.63,2.39c.41.17.92.53,1.36-.32.15-.29.63-.4,1.17-.71l-.34,1,.48.08c.19.35.3.54.41.73s0,.5,0,.74a.93.93,0,0,1-1.13-1c-.94-.07-1.91.43-2.79-.5a2.74,2.74,0,0,0-.24.76c0,.87-.13.95-.94.55l0-.39Z"/><path class="cls-10" d="M67.94,75.5c-.31.85-.12,1.42.85,1.65.19,0,.3.43.45.66a.33.33,0,0,0,0,.14l-.69.08-1,0-.28.15c-.29-.06-.69-.3-.6.33-.23-.12-.64-.23-.66-.37,0-.53-.17-1.24.11-1.56A7.2,7.2,0,0,1,67.94,75.5Z"/><path class="cls-10" d="M80.61,39.41l1.52.89c.72-.34,1,.55,1.39,1.07l-.9,1.86-.38,0Z"/><path class="cls-19" d="M38.19,83c.16-.16.3-.4.5-.47a1.81,1.81,0,0,1,1.06-.14c.16,0,.16.57.27.86s.4.85.61,1.27c-.1.29-.19.57-.28.86l-2-1.56c-.26.07-.69,1-1.28.09Z"/><path class="cls-9" d="M43.44,74.87l-.71.79-.49-.38c-.32.48-.7.76-1,.21l.89-1.84.36.92.34-.12c0-.47,0-.93.08-1.4l.37,0,.42.92Z"/><path class="cls-18" d="M43.73,74l-.42-.92.55-.22c.3-.12.62-.39.75.2,0,.12.18.31.25.31.8-.08,1,.54,1.22,1.06Z"/><path class="cls-18" d="M46.41,74.4c.21-1.13.4-1.2,1.52-1.06A5.07,5.07,0,0,0,49.56,73c-.24.42-.48.83-.73,1.24Z"/><path class="cls-20" d="M48.09,46.73,47,47.1c.27-1.15.53-2.3.87-3.73l.6,1.33C48.34,45.38,48.21,46.05,48.09,46.73Z"/><path class="cls-11" d="M42.18,80.38a8.88,8.88,0,0,0-.78.53,6,6,0,0,0-.58.68c-.45-1.06-.38-1.19,1-1.91l-.34-.77h1.26C42.54,79.4,42.36,79.89,42.18,80.38Z"/><path class="cls-11" d="M60.62,53.49l-.86-.42V51.15l1.26.13C60.88,52,60.75,52.76,60.62,53.49Z"/><path class="cls-4" d="M76.22,83.68c.11.39.23.78.34,1.17,0,.16.07.33.11.49a1.58,1.58,0,0,1-.57,0c-.61-.24-1.21-.53-1.81-.81Z"/><path class="cls-4" d="M72.55,86.44l.55-.19L74,84.6a.26.26,0,0,1,.17,0c-.17.64-.31,1.29-.53,1.91-.08.21-.38.51-.52.48S72.75,86.63,72.55,86.44Z"/><path class="cls-9" d="M42.92,77.81l-.82-1.2,1.21.1Z"/><path class="cls-9" d="M41.49,27.88a1.2,1.2,0,0,1-1.89.06l1.31-.3Z"/><path class="cls-9" d="M60.39,54.64H59.21c.14-.89.46-1,1.2-.38Z"/><path class="cls-23" d="M67.56,78.08l1,0Z"/><path class="cls-23" d="M66.68,78.56c-.09-.63.31-.39.6-.33Z"/><path class="cls-23" d="M69.24,78a.33.33,0,0,1,0-.14l.56.28Z"/><path class="cls-9" d="M40.18,27.43l-.38-.08Z"/><path class="cls-4" d="M84.14,79.48l-.4.34Z"/><path class="cls-20" d="M63.89,23.63l-.34-.27Z"/><path class="cls-23" d="M77.71,34.21l-.24-.05.23.06Z"/><path class="cls-11" d="M46.65,40.12c-.27.66-1,1.26-.22,2l-.25.55c-.19-.07-.42-.26-.58-.21-.57.16-1.11.39-1.67.59a1.42,1.42,0,0,1,.85-1.81,2.21,2.21,0,0,0-.92-2.07c.18-.13.35-.27.52-.41a1.77,1.77,0,0,0,.56.19,4.46,4.46,0,0,0,.79-.17l-.14,1Z"/><path class="cls-20" d="M38,30.83l-1.86-.29c.74-.45,0-.76-.17-1.17h1.37Z"/><path class="cls-9" d="M37.75,27.27A1,1,0,0,1,39,28c0,.12-.16.31-.25.47l-1.18-.9Z"/><path class="cls-14" d="M46.24,37.64l.16-.3c.07.06.17.11.2.18.12.32.22.65.33,1-.14,0-.39.11-.4.1C46.42,38.29,46.33,38,46.24,37.64Z"/><path class="cls-14" d="M45.84,37.86l.22-.16Z"/><path class="cls-10" d="M26.76,31.16l-.15.21c-.06-.07-.15-.13-.18-.22s.09-.14.15-.15S26.69,31.09,26.76,31.16Z"/><path class="cls-3" d="M44.37,49.61c.13.58.66,1.14.07,1.76,0,.06,0,.28.09.41a3.7,3.7,0,0,1,.38,1.27l1.21-.4c.33-.12.64-.27,1-.41.07.31.26.65.19.93-.55,2.15-1.15,4.3-1.74,6.44l-2-.57-.4.92,1.69.63v.07l-.55.91.77-.1-.11.89-1.39-.1c.21-1.21-.56-.69-1.08-.61q.87-3.37,1.72-6.75c.09-.36.17-.73.27-1.15-1.36.26-1.7.08-1.7-.81,0-.24,0-.49,0-.73A3.32,3.32,0,0,1,44.37,49.61Zm1.36,6.15c-.32-.19-.52-.4-.61-.36a2.67,2.67,0,0,0-.51.5c.13.12.29.37.38.35A3.06,3.06,0,0,0,45.73,55.76Z"/><path class="cls-16" d="M49.2,69.73c.06.45.11.91.18,1.53l-1.15-.47c-.06.26-.09.48-.16.69a.58.58,0,0,1-1,.22c-.48-.71-.94-1-1.83-.56-.4.22-1,0-1.53.06-.09-.17-.2-.34-.28-.52s-.07-.47-.18-.53c-.93-.41-.94-1.06-.57-1.86a1.25,1.25,0,0,0,0-.61c-.08-.85-.95-.85-1.4-1.29.32-1.28.14-2.69.91-3.86l.75,1.55c.67-.25,1.06.06,1.2.76,0,.24-.06.49-.12.72-.4,1.4-.71,2.77,1,3.54l-1.21.29a7.38,7.38,0,0,0,1.06.57,1.26,1.26,0,0,0,1.58-.72l1.39-.3Z"/><path class="cls-20" d="M38.33,42l4.24-2.29a4.84,4.84,0,0,1-2.65,3.57l.63.85L41,43.2l.7.75c-.35-1.05-.17-1.55.76-1.53.1,0,.18-.23.29-.32a1.36,1.36,0,0,1,.47-.29c.05,0,.26.21.24.3a.83.83,0,0,1-.28.52,5.36,5.36,0,0,1-1,.39l-.06.26.85.38-1.1.53-.43.07a11.92,11.92,0,0,0-1.79.77,6.06,6.06,0,0,1-3.92,1.14l-.14-.69a11,11,0,0,0,1.72-.86C38.2,44,37.91,42.86,38.33,42Z"/><path class="cls-19" d="M41.26,66.39c.45.44,1.32.44,1.4,1.29a1.25,1.25,0,0,1,0,.61c-.37.8-.36,1.45.57,1.86.11.06.1.36.18.53s.19.35.28.52c.07.55.13,1.1.19,1.65l-.55.22-.37,0-.55-.39a2.48,2.48,0,0,0,.06-.89,11.69,11.69,0,0,0-.61-1.47l-1.11.85-.53-.37-.62-.47a.18.18,0,0,1-.06-.14c1.08-.9,1-2.18,1-3.39l.18-.2Z"/><path class="cls-3" d="M43,43.66l-.85-.38.06-.26a5.36,5.36,0,0,0,1-.39.83.83,0,0,0,.28-.52c0-.09-.19-.32-.24-.3a1.36,1.36,0,0,0-.47.29c-.11.09-.19.32-.29.32-.93,0-1.11.48-.76,1.53L41,43.2l-.45.95-.63-.85a4.84,4.84,0,0,0,2.65-3.57l1.29-.54a2.21,2.21,0,0,1,.92,2.07,1.42,1.42,0,0,0-.85,1.81Zm.76-3.76L43,41.24l.17.2a5.12,5.12,0,0,0,1-.59C44.22,40.79,44,40.37,43.77,39.9Z"/><path class="cls-18" d="M40.56,66.78c-.08,1.21,0,2.49-1,3.39-.33-1.31-1.56-1.8-2.45-2.73.4-1.07,1.39-1.22,2.37-1.39.12.48.25,1,.4,1.57Z"/><path class="cls-18" d="M38.33,42c-.42.84-.13,2-1,2.6a11,11,0,0,1-1.72.86l.14.69-.28.07-.46.14-.29,0-.8,0c.48-.73,1-1.45,1.45-2.21a2.72,2.72,0,0,0,.17-.83Z"/><path class="cls-11" d="M44.12,64.84c-.14-.7-.53-1-1.2-.76l-.75-1.55.33-.88c.52-.08,1.29-.6,1.08.61l1.39.1C45.36,63.57,45,64.55,44.12,64.84Z"/><path class="cls-15" d="M40.73,71.15l1.11-.85a11.69,11.69,0,0,1,.61,1.47,2.48,2.48,0,0,1-.06.89L40.7,73Z"/><path class="cls-18" d="M31.33,46.85l1.16-1.68c.26.35.46.66.7.94a3.87,3.87,0,0,0,.55.43v.19Z"/><path class="cls-14" d="M40.56,66.78l-.72.84c-.15-.6-.28-1.09-.4-1.57l1.3.53Z"/><path class="cls-16" d="M11.83,79.09l-.93-1,.91-.24C11.82,78.23,11.83,78.66,11.83,79.09Z"/><path class="cls-20" d="M33.74,46.73v-.19l.2-.18.8,0C34.5,46.8,34.23,47.1,33.74,46.73Z"/><path class="cls-18" d="M28.05,46.71l1.31.07Z"/><path class="cls-18" d="M39.58,70.31l.62.47Z"/><path class="cls-20" d="M35,46.38l.46-.14Z"/><path class="cls-3" d="M41.48,44.26l.43-.07Z"/><path class="cls-18" d="M35.2,43.29c-.25.08-.56.31-.75.23-.91-.35-1.29.07-1.44,1.06a12.09,12.09,0,0,0-2-.83,13.52,13.52,0,0,0-3.21-.37c-1.15,0-2-.13-2.34-.84,1,0,2-.13,3.06-.07a24.76,24.76,0,0,0,3.9.34A4.87,4.87,0,0,1,35.2,43.29Z"/><path class="cls-9" d="M20,42.41a3.67,3.67,0,0,1-2.63,0c-.34-.17-.9.07-1.46.14-.06-.22-.13-.52-.2-.83a1.82,1.82,0,0,1,.51-.06c.89.1,1.77.18,2.65.34A6.28,6.28,0,0,1,20,42.41Z"/><path class="cls-9" d="M22.15,42.65l.45.82c-.45.22-1.07-.16-1.41-.87Z"/><path class="cls-18" d="M24.93,42.55l-.5.86L24,42.57Z"/><path class="cls-9" d="M15.18,41.79l-.2.26-.19-.28Z"/><path class="cls-20" d="M47.85,68.94,49.33,68l.06,1.36c-.06.12-.13.24-.19.37Z"/><path class="cls-20" d="M53.4,61.54l.22-.47c1,0,.39.85.64,1.26.08.13-.37.6-.58.91l-.28-.12Z"/><path class="cls-14" d="M52.37,67,51.81,68l-1-1.17C51.49,66.06,51.8,66.86,52.37,67Z"/><path class="cls-20" d="M53.69,60.73l.28-.58,0,.39Z"/><path class="cls-10" d="M54.34,48.77h-.55l0-.73-3-.35.62,1.17c-.68-.2-1.18-.37-1.7-.5s-1.05-.24-1.58-.35l.19-.36h1.35l.21-.9a1.78,1.78,0,0,1,.52.15c.52.32,1,.26,1.21-.3s.51-.6.81,0a1.46,1.46,0,0,0,.83.63V46.05l3,.17c.59.49-.47,1.55.65,1.74.2,0,.48-.38.84-.69l.66.87-.55.28L58.55,50c-.31.13-.63.4-.91.36a.93.93,0,0,1-.84-1.16c-.61-.31-1.14-.54-1.64-.84S54.43,48.26,54.34,48.77Z"/><path class="cls-20" d="M56.2,52.25,55.43,50c.66,0,1.34.15,1.44.93C56.93,51.47,56.91,52.08,56.2,52.25Z"/><path class="cls-20" d="M56,53.72c.08-.31.15-.62.22-.93.13.31.26.61.43,1a4.68,4.68,0,0,0,.39-.39,3.09,3.09,0,0,0,.24-.44c.12.14.3.26.36.42a7.56,7.56,0,0,1,.17.92C57,54.58,56.36,54.61,56,53.72Z"/><path class="cls-20" d="M55.69,56.12l.14-.93C56.37,55.58,56.31,55.89,55.69,56.12Z"/><path class="cls-10" d="M53.77,45l.38.58-.19.15-.49-.55Z"/><path class="cls-10" d="M55.44,49.78l-.61-.65C55.34,49.06,55.5,49.31,55.44,49.78Z"/><path class="cls-9" d="M56.82,57.34c-.17.08-.28.17-.35.15s-.14-.16-.21-.25c.08-.06.17-.17.25-.16S56.66,57.2,56.82,57.34Z"/><path class="cls-9" d="M58.88,53.67s0,.13-.07.15-.1,0-.15-.06,0-.13.07-.15S58.83,53.65,58.88,53.67Z"/><path class="cls-23" d="M54.71,49.1c-.13-.11-.26-.22-.4-.32C54.45,48.88,54.58,49,54.71,49.1Z"/><path class="cls-4" d="M75.86,28c.12.1.36.24.34.31a1.46,1.46,0,0,1-.33.43Z"/><path class="cls-21" d="M75.86,28v.74c-.12-.11-.36-.25-.34-.32A1.31,1.31,0,0,1,75.86,28Z"/><path class="cls-16" d="M48.09,48c.53.11,1.06.21,1.58.35s1,.3,1.7.5l-.62-1.17,3,.35,0,.73c-1.32.41-2.63.83-3.95,1.23a8.51,8.51,0,0,1-1,.18c0-1,0-1-1.7-1.7Z"/><path class="cls-3" d="M47.38,51.46l-.29.23a9.49,9.49,0,0,1-.94-.85c-.06-.07.1-.34.16-.52a4,4,0,0,1,1,.45C47.42,50.87,47.36,51.22,47.38,51.46Z"/><path class="cls-13" d="M45.53,59.61c-.06.18-.11.36-.17.55l-.5.42h0L43.18,60l.4-.92Z"/><path class="cls-13" d="M45.73,55.76a3.06,3.06,0,0,1-.74.49c-.09,0-.25-.23-.38-.35a2.67,2.67,0,0,1,.51-.5C45.21,55.36,45.41,55.57,45.73,55.76Z"/><path class="cls-13" d="M45.21,60.78c0,.23-.09.46-.13.69l-.77.1.55-.91v0Z"/><path class="cls-20" d="M45,69.1l1.43.14a1.26,1.26,0,0,1-1.58.72,7.38,7.38,0,0,1-1.06-.57Z"/><path class="cls-11" d="M43.77,39.9c.2.47.45.89.38,1a5.12,5.12,0,0,1-1,.59l-.17-.2Z"/><path class="cls-3" d="M44.86,60.69a.2.2,0,0,1,0-.11l.5-.42-.15.62Z"/></g></svg>