<svg xmlns="http://www.w3.org/2000/svg" viewBox="0 0 100 100"><defs><style>.cls-1{fill:#91c2c4;}.cls-2{fill:#6dafb1;}.cls-3{fill:#96c5c7;}.cls-4{fill:#99c7c8;}.cls-5{fill:#62a9ab;}.cls-6{fill:#7db7b9;}.cls-7{fill:#93c4c5;}.cls-8{fill:#a2cbcd;}.cls-9{fill:#52a1a3;}.cls-10{fill:#9cc9ca;}.cls-11{fill:#6aadaf;}.cls-12{fill:#8ec1c2;}.cls-13{fill:#74b2b4;}.cls-14{fill:#89bebf;}.cls-15{fill:#67abad;}.cls-16{fill:#78b5b7;}.cls-17{fill:#a9cfd1;}.cls-18{fill:#eef6f6;}.cls-19{fill:#f1f8f8;}.cls-20{fill:#e9f3f3;}.cls-21{fill:#e1eeef;}.cls-22{fill:#70b0b2;}.cls-23{fill:#83bbbc;}</style></defs><g id="Ebene_3" data-name="Ebene 3"><path class="cls-1" d="M17.74,35.63c1.31-.94,2.61-1.89,3.93-2.82.34-.25.72-.45,1.09-.67l.41-.35,3.57-1.88,2.92-1.48,1-.58c1.22-.53,2.41-1.13,3.67-1.57A14,14,0,0,1,37,25.79c1.19-.16,2.5-.62,3.56-.3,1.8.53,3.91.19,5.39,1.89.43.5,1.59.39,2.42.56.16,0,.31.08.47.12.39,1.26,1.18.06,2,.32l-1.74,2.2a7.52,7.52,0,0,0-1.81-1.27c-.18-.07-.72.82-1.1,1.27a12.56,12.56,0,0,1-2.06-.6c-1.71-.84-3.39-1.58-5.36-1-.49.15-1.07,0-1.54.18-1.53.58-3,1.24-4.53,1.87l.14-.85c-1.55-.64-1.63-.68-2.48.64-.49.75-.9,1.32-1.91,1.24-.18,0-.4.51-.61.78a3.81,3.81,0,0,0,.91.32c.23,0,.47-.2.72-.32l.85.57,1.24-1.74.73.33c-.31,2.27-1.61,4.41-.8,6.81-1.1,0-1.23.63-1.08,1.57l-.61-.18c.09-.73.22-1.45.26-2.18a1.76,1.76,0,0,0-.24-.85c-.53-1-1.06-2.11-1.64-3.12a.84.84,0,0,0-.73-.33,8.61,8.61,0,0,0-1.56.89c-2.74,1.89-5.46,3.79-8.19,5.69a1.12,1.12,0,0,1-.38.1c-.19-.31-.33-.73-.61-.9-.13-.08-.56.28-.84.46s-.71.63-1.11.72c-2.08.43-2.37,1.12-1.26,2.75-.21.06-.5.07-.61.21a1.89,1.89,0,0,1-2.25.85c-.15,0-.45.12-.59.27-.49.54-.93,1.12-1.41,1.67q-1.5,1.77-3,3.54c-.19.23-.4.45-.72.82l5.38.75-.4,2.31-3.53-.48-.24.32c.34.25.7.47,1,.74s.89.84,1.33,1.26L9,57.81a8.7,8.7,0,0,1,1.59.54,14.25,14.25,0,0,1,1.6,1.25l1-1.53,1.23.91c.45,1.15-.8,1.57-1,2.38l-1.3-.27-.6-.43-.53-.39-.88-.59-.88-.57L5.81,56.88a1.34,1.34,0,0,0,0-.2c.1-.59.88-1.15-.06-2.06l-.36,1.72L4.62,56l-.84-.73V54l.82-.55H5.81l.09,0-.09,0c-.37-.76-.74-1.53-1.14-2.29a.5.5,0,0,0-.45-.08c-1.28.68-2.33-.32-3.49-.46C1.85,49.41,3,48.15,4.12,47s2.2-2,3.28-3c1.55-1.5,3-3.07,4.63-4.54A13.84,13.84,0,0,1,14.1,38l.64-.42,2.37-1.43Z"/><path class="cls-2" d="M29.79,40.19l.61.18c-.15-.94,0-1.62,1.08-1.57.23.18.51.56.7.53a23.12,23.12,0,0,0,2.3-.65c1.68-.52,3.34-1.08,5-1.55.93-.25,1.89-.35,2.83-.52.34.26.65.71,1,.75a35.16,35.16,0,0,0,3.84.22,3,3,0,0,0,1-.33c.21-.07.44-.27.61-.22,1.65.42,3.52-.5,5,.84a.45.45,0,0,0,.28.07,15.87,15.87,0,0,1,1.79-.29c1.06,0,2.13,0,3.32,0l.11-.89.79.12-.29.85c1.08-.16.82.58.87,1.15L59.61,39c.44.3.75.57.79.53a9.49,9.49,0,0,0,.86-.88l3.89.13a7.15,7.15,0,0,0,1.32.78c1.12.37,2.51-.06,3.37,1.11a.26.26,0,0,0,.27.08c.66-.37,1,.12,1.3.51.1.12.27.26.4.25a9.56,9.56,0,0,1,4,1.18c.43.18,1.09,1.11,1.66.06l2.79.72,6.67.83c.54.63,2.19.58,3-.09l.58.26.24.45.2-.28,1,0c.18.18.38.52.53.5,1.21-.17,1.51,1,2.27,1.55a3,3,0,0,1-1,.34l-2.39.28c-.4,0-.79.11-1.19.11-1.11,0-2.22,0-3.33,0-1.65-.09-3.29-.26-4.94-.4a5.86,5.86,0,0,1-.84,0c-.6-.13-1.19-.32-1.78-.49h-.62l-.18-.11-1-.14-.78-.09-1.81-1.23-1,.32h0c-.07-.51-.15-1-.19-1.35-.93-.07-1.85.11-2.41-.25-1.1-.73-2.29-.64-3.46-.81l-6.39-1.49c-.32-.08-.66-.12-1-.17l-.91-.26-2.21-.28-.81-.21c-2.25-.2-4.5-.5-6.76-.58-1.44-.05-2.9.27-4.36.35-1.12.06-2.26-.12-3.36,0-2.2.26-4.39.58-6.54,1a25.26,25.26,0,0,0-3.4,1.25c-1.08.4-2.18.72-3.22,1.2A5.55,5.55,0,0,0,27.6,44.8l-.38.07c-.19-.33-.3-.8-.58-.95a5.88,5.88,0,0,0-1.53-.34,6.21,6.21,0,0,1,1.11-1.27C27.37,41.55,28.59,40.89,29.79,40.19Z"/><path class="cls-3" d="M51.85,82.16l-.21-.06-.79-.39-1,0,.91-.84-.51-1,4.6.38,1.06.32.52.11.68.16c2.19.66,4.39-.15,6.56,0s3.68-.82,5.51-1.27a18.34,18.34,0,0,0,2.91-.63c1.38-.6,2.67-1.43,4-2.16l.62-.33c1-.64,2-1.28,3-1.9a2.65,2.65,0,0,1,2.55-.43c.24.1.38.43.56.66-.4.18-.65.41-.26.84a1.63,1.63,0,0,1-.58,1.68,5.5,5.5,0,0,1-3,1.94,2,2,0,0,0-1.13.77,5.45,5.45,0,0,1-3.85,2c-1.72.28-3.4.78-5.11,1.19l-1.21.41a4.32,4.32,0,0,1-3.55-.1c-.33-.19-1,.21-1.5.31s-.86.24-1.13.09c-1.5-.87-3.11-.67-4.71-.68l-1.22-.4-1.81-.64c-.22-.88-1.28-1.48-2.78-1.43L52.53,82Z"/><path class="cls-4" d="M46.77,73.24a1.74,1.74,0,0,0-.39,0,20.92,20.92,0,0,1-6.2-.81c-1.49-.34-3-.48-4.49-.87-2-.52-3.93-1.18-5.88-1.82a2.83,2.83,0,0,1-.79-.57c.27,0,.59,0,.78.13.7.49,1.22.07,1.67-.13-.16-.74-.3-1.36-.44-2,2.18.81,4.37,1.6,6.54,2.44.57.22.83.11,1.08-.43.33-.71.76-1.38,1.14-2.06.08.27.14.56.24.82s.24.76.5.94.62-.14.89-.3a5.56,5.56,0,0,0,.75-.63c.2.55.4,1.1.61,1.65a1.5,1.5,0,0,0,1.66,1.18c2,0,3.93.15,5.89.27a12.58,12.58,0,0,1,1.33.2l.19.94a3.51,3.51,0,0,1,3.27-.29,1.11,1.11,0,0,0,1.74-1.08,7.46,7.46,0,0,1,5.2-1.5,20.44,20.44,0,0,0,4.43-.45L67,70.52v.21c-1.31.22-2.62.45-3.94.65a10.51,10.51,0,0,1-1.69.15A6.31,6.31,0,0,0,58,72.73a5.89,5.89,0,0,1-2.22.4,3.48,3.48,0,0,1-.89-.13l-.48.29c-2.2.69-4.39.17-6.59,0Zm-8.72-2.83c.64.78,1.54.68,2.37.7a.88.88,0,0,0,.66-.43.9.9,0,0,0-.17-.8,1.08,1.08,0,0,0-.86-.15C39.43,69.88,38.85,70.13,38.05,70.41Z"/><path class="cls-1" d="M44,22.15c-.89-.35-1.8-.65-2.66-1.06-.49-.23-.89-.66-1.37-.93a11.29,11.29,0,0,0-1.42-.62H37.9l-2.95,0-1-1.1v1.19l-1.48-.23.17.9-.44.33a5.09,5.09,0,0,1-1.58-2.91l2.61-.83,2.22-.2c.47-.06.93-.12,1.39-.15a4.17,4.17,0,0,1,.79,0l2.47.33.41,0,1.35.59.46.36c1.51.73,3,1.49,4.54,2.18a5.68,5.68,0,0,0,5.45-.5c1.64-.94,3.43-1.63,5.15-2.43,0,.39.07.93-.15,1.15-.69.7-1.16,1.33-.25,2.17-1.53,1-3,2.1-4.61,3.06a3.52,3.52,0,0,1-1.81.41,14,14,0,0,1-5.73-1.2Z"/><path class="cls-5" d="M25.11,43.58a5.88,5.88,0,0,1,1.53.34c.28.15.39.62.58.95l-.42.76c-.08.27-.15.54-.23.81a6.07,6.07,0,0,0-.78,1.14,2,2,0,0,0-.14,1.2c.23.84.62,1.63.9,2.46.05.14-.07.37-.17.53a2.83,2.83,0,0,0,.29,3.42l1.14-.12A8.12,8.12,0,0,0,29,56.75a7.64,7.64,0,0,0,2.11,1.34c1.57.66,3.19,1.21,4.79,1.8l-.8.92c1.24.72,1.47,2.49,1.21,3.69v.21l-1.18-.3a7,7,0,0,0-1.1-.89c-.62-.31-1.3-.48-1.94-.74-.9-.36-1.79-.72-2.66-1.12-1.4-.65-3-1-3.95-2.38-.13-.19-.43-.27-.65-.41a6.08,6.08,0,0,1-.41-1c-.3-1.32-.57-2.64-.85-4a6.49,6.49,0,0,0,.28-2,17.27,17.27,0,0,0-1-2.82,5.54,5.54,0,0,1,.47-3.4l3-1c-.5,0-.8,0-1.11,0-.53,0-.81-.21-.77-.76Z"/><path class="cls-3" d="M68.59,18.71c1.9,1.61,3.84,3.18,5.71,4.83,2,1.81,4,3.69,6,5.53a7.9,7.9,0,0,0,.9.61l.46.5c1.07.95,2.21,1.85,3.19,2.89a5.32,5.32,0,0,1,.67,1.78l-1.23-.07a11.86,11.86,0,0,1-4.07-3c-1-1-1.85-2-2.89-2.91s-2.4-1.67-3.53-2.59S72,24.52,71,23.68a26.47,26.47,0,0,0-5.26-3.8c-1.48-.73-3-1.16-4.68-.13-.39.24-1.06.05-1.6.06.23-.59.47-1.17.72-1.79,1.17.32,1.83-.52,2.53-1.27.89-.13,1.79-.3,2.7-.38.25,0,.71.19.75.37.24,1,1.13,1,1.77,1.43Z"/><path class="cls-6" d="M36.29,64.5c.26-1.2,0-3-1.21-3.69l.8-.92a25.32,25.32,0,0,0,8.88,1.82l.5-.14,7,.15h.62c1.22-.08,2.45-.06,3.66-.24,2.08-.31,4.34.26,6.21-1.21.18-.15.64.1.92,0,2.89-.88,5.8-1.71,8.63-2.75a37.22,37.22,0,0,0,4.38-2.28c.21,1-.12,1.4-1.1,1.5a.7.7,0,0,0-.5.26c-.3.6-.55,1.24-.82,1.86l-.78.43c-.64,0-1.1,0-1.56,0-1.52-.06-2.69,1-4.21,1.16-1.21.12-2.34,1-3.53,1.61l-1.74-1-1.9,1.44c-1.31.17-2.63.81-3.91-.17-.15-.11-.56.08-.83.19s-.39.33-.59.33c-1.31,0-2.62,0-3.93,0-.56,0-1.12,0-1.68,0a16.28,16.28,0,0,0-3.5.11c-.73.18-1.23.32-1.53-.07l-3.63.2c-.53,0-1.06,0-1.58,0v0L38,63.13l-.06,1.27c0,.1,0,.2,0,.3Z"/><path class="cls-7" d="M27,20l2.63-1.59c.31.37.61.75,1,1.19l-1.4,1.22L28,20.34,27.77,20l-.06.07.31.24c.37.62.54,1.52,1.62,1.26,0,0,.12.21.18.31-1.93,1.2-3.87,2.37-5.76,3.62-.74.48-1.35,1.15-2,1.71-1.42,1.12-2.86,2.22-4.29,3.33l-.39,0,.08-1.27-.77.62c-1.39-1.54-.8.56-1.21.7L14.49,30l2.22-1.82.9-.95.51-.24.42-.39c.89-.79,1.74-1.63,2.67-2.35C22.78,23,24.4,21.89,26,20.74Zm.38,2.75.43.12.73-.78-1.16-.42Z"/><path class="cls-8" d="M50.22,79.81l.51,1-.91.84c-.87-.11-1.75-.19-2.62-.35-.62-.13-1.22-.38-1.83-.57l-1.65.58a3.17,3.17,0,0,1-3.39-.06,11,11,0,0,0-3-1c-1.83-.45-3.92-.61-5.24-2.26-.25-.32-.08-1-.1-1.45a3.45,3.45,0,0,1,1.12.14,7.18,7.18,0,0,0,2.9.89,30.74,30.74,0,0,1,4,.61l1.09.46c1.17-.16,2.34-.32,3.52-.46a.93.93,0,0,1,.67.1,5.39,5.39,0,0,0,3.44,1.11A7.57,7.57,0,0,1,50.22,79.81Z"/><path class="cls-9" d="M74.23,58.87c.27-.62.52-1.26.82-1.86a.7.7,0,0,1,.5-.26c1-.1,1.31-.53,1.1-1.5l.61-.18,3.23.58c.43.06.85.16,1.27.18.85,0,1.71.05,2.56.07l1,.17c.22.59,1.16.9.71,1.76a1.33,1.33,0,0,0,.59,0c.74-.3,1.45-.68,2.2-.94.26-.09.61.12,1,.21l-1.65,2h-.33c-.88-.16-1.75-.36-2.63-.49a15.67,15.67,0,0,0-1.94-.13c-1.3,0-1.72.29-1.72,1.27l-.2.14H79.28l-.41-.27-.26-.1-.53-.19c-.34-.51-.38-.49-1,.38l-.39.18-.62.41h-.4l-.55-1.73-.74,1.22Z"/><path class="cls-7" d="M12.07,61.09l1.3.27c.16-.81,1.41-1.23,1-2.38l3.54,1.55c.33-.61.6-1.13.88-1.64,1,.5-.18,1.31.35,1.85-.35.17-.73.22-.86.44a1.77,1.77,0,0,0-.35,1.21c.09.35.58.6.89.89.14-.33.28-.67.43-1,0,0,.1-.07.2-.13.32.36.66.72,1,1.1a1.44,1.44,0,0,0,2.37-.14L27,65.45a4.4,4.4,0,0,0-.31,1.14c0,.28.19.77.39.82.82.21,1,.83,1.14,1.48l-2-.83-1-.56c-1.88-.81-3.79-1.57-5.64-2.46-2.4-1.15-4.76-2.39-7.14-3.61A1.6,1.6,0,0,1,12.07,61.09Z"/><path class="cls-4" d="M75.86,35.79,71,32.65c-.41-.27-.81-.56-1.21-.85,0-.09.11-.26.09-.27C69.05,31,69,30,68.66,29.2c0-.09-.2-.13-.26-.17l-1.27,1.4V28.69h-.22l-.34,1.08-1-2.77c1.76.7,3.63,1.14,5.16,2.34q2,1.59,4.1,3.13c1.26.93,2.54,1.84,3.81,2.75l.45.4h0l1,1c.65.76,1.29,1.52,2,2.25a2.11,2.11,0,0,0,.66.36l1.21.64-.84.81-1-.84-1.21-.23-.41-.39c0-.13,0-.3-.06-.39l-3-3.76Z"/><path class="cls-2" d="M88.16,59.12l1.65-2c-.36-.09-.71-.3-1-.21-.75.26-1.46.64-2.2.94a1.33,1.33,0,0,1-.59,0c.45-.86-.49-1.17-.71-1.76h0l.21-.1,1-.08.41-.13.53-.12c.22.11.44.21.65.34a4.06,4.06,0,0,0,.78.49c1,.32,1.36-.44,1.67-1.19l.83-.08-.67.73c.63,1.51,2.22,1.33,3.43,1.67a12.64,12.64,0,0,0,3.37,0,7.5,7.5,0,0,1,1.81.45c.34.17.51.71.64,1.13a1.8,1.8,0,0,1-.86.48c-1,.19-1.94.3-2.92.45l-.6-.08-1-.12-.8-.14-.6-.1-.82,0ZM93,58.57c.08-.19.19-.31.16-.37s-.18-.17-.27-.24c-.07.09-.19.18-.18.27S92.8,58.4,93,58.57Z"/><path class="cls-10" d="M14.49,30l.94.68c.41-.14-.18-2.24,1.21-.7l.77-.62c0,.52-.06.9-.08,1.27,0,.12,0,.23-.07.35a5.16,5.16,0,0,0-2.09,2.31,4.08,4.08,0,0,1-1.28,1.38c-1.15,1-2.39,1.89-3.5,2.93a1.24,1.24,0,0,1-1.9,0c-.44-.44-1-1-.37-1.87a13.52,13.52,0,0,1,3.4-3.14c.26-.2.5-.42.75-.63l.81-.8Z"/><path class="cls-11" d="M65.54,27l1,2.77-.19.64-2.65-.83-2.8.09c-1.1-.85-1.74-.85-2.46,0l-.36,0-1.17-.89c-.44-1.24-.27-1.54,1.11-1.63.58,0,.67-.31.66-.76l1.72-.13c.73.08,1.57-.06,1.67,1.12l.26-.13v-1h.55c.22.46.37,1.18,1,.35Z"/><path class="cls-2" d="M67,70.52l-.48-1.68c.43-1,.89-2,1.25-3,.11-.28-.09-.66-.15-1l-.83-.73c.13-1.14.84-1.4,1.85-1.24a5.06,5.06,0,0,0,.78,0l-.61.69.59.68c-.24,1.7,1.39,2.35,2,3.55l.21,1.7a.44.44,0,0,0,0,.16l-.59.24-2.07-1L67.56,70.5l0,.07Z"/><path class="cls-12" d="M58.71,26.42c0,.45-.08.72-.66.76-1.38.09-1.55.39-1.11,1.63l1.17.89c-1.51.29-3.11.08-4.5,1-.29.19-.78.06-1.18.08a9,9,0,0,0,.09-1.93,5.61,5.61,0,0,0-.69-1.47C54,26.17,56.35,26.24,58.71,26.42Z"/><path class="cls-8" d="M71.61,69.52l-.21-1.7c1.81-.62,3.88-.63,5.33-2.15l.1,0,1.65.92L78.12,66l1.58-.86h.59l.58,1-2.94,1.26c-.26.12-.62.21-.73.42-.48.88-1.37,1.15-2.16,1.59h-.8L72,69.61Z"/><path class="cls-2" d="M28.23,68.89c-.18-.65-.32-1.27-1.14-1.48-.2,0-.39-.54-.39-.82A4.4,4.4,0,0,1,27,65.45c.24-.09.66-.15.67-.26.08-.56.4-.72.89-.81.18,0,.31-.31.46-.47h1a8.64,8.64,0,0,0,.25,1.25c.23.67.52,1.32.79,2l.44,2c-.45.2-1,.62-1.67.13-.19-.13-.51-.09-.78-.13Z"/><path class="cls-5" d="M51.83,27.37a5.61,5.61,0,0,1,.69,1.47,9,9,0,0,1-.09,1.93l-.85,1a8.58,8.58,0,0,1-4-.34,2,2,0,0,0-.6,0h0l-.51-.73-.3-.07c.38-.45.92-1.34,1.1-1.27a7.52,7.52,0,0,1,1.81,1.27l1.74-2.2c-.85-.26-1.64.94-2-.32L51,27.72l.63-.35Z"/><path class="cls-13" d="M62.74,16.75c-.7.75-1.36,1.59-2.53,1.27-.25.62-.49,1.2-.72,1.79l-2.4.68c-.91-.84-.44-1.47.25-2.17.22-.22.11-.76.15-1.15l1-.44.69-.16.92-.11,1.63.24Z"/><path class="cls-7" d="M91.37,47.32,93.76,47a3,3,0,0,0,1-.34c-.76-.6-1.06-1.72-2.27-1.55-.15,0-.35-.32-.53-.5,1,0,2-.11,2.92,0a16,16,0,0,1,2.45.45.83.83,0,0,1,.55.4.76.76,0,0,1-.16.68,4,4,0,0,1-4,1.33A13.47,13.47,0,0,0,91.37,47.32Z"/><path class="cls-12" d="M27.81,55.07l-1.14.12a2.83,2.83,0,0,1-.29-3.42c.1-.16.22-.39.17-.53-.28-.83-.67-1.62-.9-2.46a2,2,0,0,1,.14-1.2,6.07,6.07,0,0,1,.78-1.14c.07.11.19.21.2.33.29,1.76.6,3.52.83,5.29C27.74,53.05,27.74,54.07,27.81,55.07Z"/><path class="cls-14" d="M97.55,57.62a12.64,12.64,0,0,1-3.37,0c-1.21-.34-2.8-.16-3.43-1.67l.67-.73a24,24,0,0,1,2.81,0c.33,0,.62.47.92.72l-1.28.35,0,.28,1.8.4Z"/><path class="cls-15" d="M80.29,65.1h-.6L79,63.23c-.53-.82,0-1.59.12-2.37l2.17.22.16,0c-.06.69-.12,1.37-.19,2.15l-.61.41-.38.46.45,0,1.74-.18Z"/><path class="cls-16" d="M5.81,53.46H4.6a8.33,8.33,0,0,0-.93-.39c-.28-.08-.58-.07-.87-.13L.74,52.48h0c-.11-.15-.22-.3-.34-.44l0-.2,0-.64.39-.58c1.16.14,2.21,1.14,3.49.46a.5.5,0,0,1,.45.08c.4.76.77,1.53,1.14,2.29Z"/><path class="cls-17" d="M29.82,21.91c-.06-.1-.15-.31-.18-.31-1.08.26-1.25-.64-1.62-1.26h0l1.19.43,1.4-1.22c-.36-.44-.66-.82-1-1.19l1-.6a5.09,5.09,0,0,0,1.58,2.91C31.8,21.81,30.63,21.53,29.82,21.91Z"/><path class="cls-13" d="M83.09,40.64l.84-.81.57.06a9.38,9.38,0,0,1,1.4,1.34,4.37,4.37,0,0,1,.38,1.4L85,42.58l-.9-.75-1-1A.37.37,0,0,0,83.09,40.64Z"/><path class="cls-4" d="M67.77,42.83c1.17.17,2.36.08,3.46.81.56.36,1.48.18,2.41.25,0,.33.12.84.19,1.35-1.76-.62-3.53-1.22-5.28-1.86A3.36,3.36,0,0,1,67.77,42.83Z"/><path class="cls-7" d="M.74,52.48l2.06.46c.29.06.59.05.87.13a8.33,8.33,0,0,1,.93.39L3.78,54v1.3L2.42,54.25,2,53.89C1.12,53.8,1,53.07.74,52.48Z"/><path class="cls-2" d="M81.54,59.76c0-1,.42-1.3,1.72-1.27a15.67,15.67,0,0,1,1.94.13c.88.13,1.75.33,2.63.49l-1.89.2h-.4l-3.22.49Z"/><path class="cls-17" d="M80.49,55.65l-3.23-.58,1-.24.42-.15.81,0,.6.2c1.45-.23,2.92-.56,4.06.79a2.89,2.89,0,0,1-.58-.08A3.38,3.38,0,0,0,80.49,55.65Z"/><path class="cls-14" d="M80.29,65.1l2.2-1.19c.14.43.29.86.47,1.42l-2.09.72Z"/><path class="cls-4" d="M67.56,70.5,68.93,69l2.07,1c-.75.2-1.5.44-2.26.59A5.18,5.18,0,0,1,67.56,70.5Z"/><path class="cls-14" d="M90.59,55.27c-.31.75-.62,1.51-1.67,1.19a4.06,4.06,0,0,1-.78-.49c-.21-.13-.43-.23-.65-.34.68-.15,1.35-.34,2-.45A4.85,4.85,0,0,1,90.59,55.27Z"/><path class="cls-8" d="M51.85,82.16l.68-.15-1.66-1.3c1.5,0,2.56.55,2.78,1.43C53.05,82.32,52.46,82.93,51.85,82.16Z"/><path class="cls-17" d="M32.67,20.34l-.17-.9,1.48.23V18.48l1,1.1C34.41,20.5,33.48,20.24,32.67,20.34Z"/><path class="cls-4" d="M73.83,45.24l1-.32,1.81,1.23A15.47,15.47,0,0,1,74.52,46C74.25,45.92,74.05,45.49,73.83,45.24Z"/><path class="cls-6" d="M80.49,55.65a3.38,3.38,0,0,1,3.08-.08,2.89,2.89,0,0,0,.58.08l.17.25c-.85,0-1.71,0-2.56-.07C81.34,55.81,80.92,55.71,80.49,55.65Z"/><path class="cls-7" d="M90,44.24c-.86.67-2.51.72-3,.09Z"/><path class="cls-18" d="M95.63,56.9l-1.8-.4,0-.28,1.28-.35Z"/><path class="cls-19" d="M84.5,39.89l-.57-.06-1.21-.64C83.81,38.84,84.35,39.05,84.5,39.89Z"/><path class="cls-10" d="M62.36,26.25v1l-.26.13c-.1-1.18-.94-1-1.67-1.12Z"/><path class="cls-18" d="M81.54,59.76l.78,0-.84,1.31-.16,0c0-.39,0-.78,0-1.18Z"/><path class="cls-18" d="M61.73,16.7l-1.63-.24C60.74,15.87,61.28,16,61.73,16.7Z"/><path class="cls-10" d="M63.94,26.59c-.66.83-.81.11-1-.35Z"/><path class="cls-18" d="M26.8,45.63l.42-.76.38-.07Z"/><path class="cls-18" d="M46.77,73.24l1,.08Z"/><path class="cls-19" d="M13.08,31.18l-.81.8C12.19,31.36,12.46,31.09,13.08,31.18Z"/><path class="cls-19" d="M44,22.15l1,.61Z"/><path class="cls-8" d="M50.85,81.71l.79.39Z"/><path class="cls-4" d="M77.46,46.24l1,.14Z"/><path class="cls-18" d="M55.88,80.51l-1.06-.32Z"/><path class="cls-7" d="M9.18,59.11l.88.57Z"/><path class="cls-18" d="M92.39,59.65l.82,0Z"/><path class="cls-20" d="M59.49,40.91l.91.26Z"/><path class="cls-18" d="M74.24,69.33h0Z"/><path class="cls-18" d="M56.47,40.42l.81.21Z"/><path class="cls-18" d="M93.81,59.79l.8.14Z"/><path class="cls-21" d="M52.85,61.72h0Z"/><path class="cls-19" d="M78.67,46.49h.62C79.08,47,78.88,47,78.67,46.49Z"/><path class="cls-19" d="M37.9,19.53h0Z"/><path class="cls-20" d="M67,70.52l.63,0-.63.16Z"/><path class="cls-18" d="M95.62,60.05l.6.08Z"/><path class="cls-18" d="M57.08,80.78l-.68-.16Z"/><path class="cls-18" d="M80.75,64.09l-.45,0,.38-.46Z"/><path class="cls-18" d="M59.18,16.57l-.69.16Z"/><path class="cls-19" d="M51.65,27.37l-.63.35Z"/><path class="cls-18" d="M80.09,54.86l-.6-.2Z"/><path class="cls-7" d="M91,44.67l-.2.28-.24-.45Z"/><path class="cls-19" d="M23.17,31.79l-.41.35Z"/><path class="cls-7" d="M10.94,60.27l.53.39Z"/><path class="cls-7" d="M.34,51.21l0,.64C0,51.65-.24,51.45.34,51.21Z"/><path class="cls-21" d="M45.26,61.57l-.5.14Z"/><path class="cls-18" d="M85.54,59.3h0Z"/><path class="cls-20" d="M40.54,17l-.41,0Z"/><path class="cls-14" d="M87,55.75l-.41.13Z"/><path class="cls-18" d="M78.68,54.68l-.42.15Z"/><path class="cls-20" d="M42.35,17.92l-.46-.36Z"/><path class="cls-19" d="M2,53.89l.45.36Z"/><path class="cls-19" d="M17.26,31c0-.12,0-.23.07-.35l.39,0Z"/><path class="cls-7" d="M.4,52.05c.12.14.23.29.34.44C.63,52.34.52,52.19.4,52.05Z"/><path class="cls-18" d="M71.61,69.52l.42.09-.44.07A.44.44,0,0,1,71.61,69.52Z"/><path class="cls-20" d="M54.39,73.29l.48-.29Z"/><path class="cls-14" d="M85.53,56l-.21.1Z"/><path class="cls-2" d="M16.4,42.32a.14.14,0,0,1,0,.17c-.5.12-1.23-.78-1.5.23-.22.83-.76.9-1.42.9a.46.46,0,0,1,0-.2c-1.11-1.63-.82-2.32,1.26-2.75.4-.09.74-.48,1.11-.72s.71-.54.84-.46c.28.17.42.59.61.9l-.61,1.42Z"/><path class="cls-15" d="M12.65,57.28l.45.79-1,1.53a14.25,14.25,0,0,0-1.6-1.25A8.7,8.7,0,0,0,9,57.81l-.51-2.13,1.56.16c.31.34.63.68,1,1.14Z"/><path class="cls-2" d="M32.69,31c-.14.33-.27.65-.41,1l-.73-.33L30.31,33.4l-.85-.57c-.25.12-.49.33-.72.32a3.81,3.81,0,0,1-.91-.32c.21-.27.43-.79.61-.78,1,.08,1.42-.49,1.91-1.24.85-1.32.93-1.28,2.48-.64Z"/><path class="cls-5" d="M10.26,51.53l2-.05a3.36,3.36,0,0,1,.22.91,10.55,10.55,0,0,1-.21,1.48l-1.83.82-.58-.85Z"/><path class="cls-19" d="M9.86,53.84c.2.28.39.57.58.85-.14.39-.29.77-.44,1.15l-1.56-.16c-.44-.42-.87-.86-1.33-1.26s-.68-.49-1-.74l.24-.32Z"/><path class="cls-14" d="M5.8,56.68l-.42-.34c.1-.49.21-1,.36-1.72C6.68,55.53,5.9,56.09,5.8,56.68Z"/><path class="cls-16" d="M5.81,53.46l.09,0-.09,0Z"/><path class="cls-14" d="M42.34,36.61l3-.4,2.44-.31c.65-.08.72-.43.49-1-.46-1.17-.88-2.36-1.32-3.54a2,2,0,0,1,.6,0,8.58,8.58,0,0,0,4,.34l-1.35,3.52,9.07,1.48c0,.31-.07.62-.11.88-1.19,0-2.26,0-3.32,0a15.87,15.87,0,0,0-1.79.29.45.45,0,0,1-.28-.07c-1.49-1.34-3.36-.42-5-.84-.17-.05-.4.15-.61.22a3,3,0,0,1-1,.33,35.16,35.16,0,0,1-3.84-.22C43,37.32,42.68,36.87,42.34,36.61Z"/><path class="cls-4" d="M65.16,37.78a35.93,35.93,0,0,1,3.89.87,50.61,50.61,0,0,1,5.46,2.2,24.61,24.61,0,0,1,3,1.93c-.57,1-1.23.12-1.66-.06a9.56,9.56,0,0,0-4-1.18c-.13,0-.3-.13-.4-.25-.35-.39-.64-.88-1.3-.51a.26.26,0,0,1-.27-.08c-.86-1.17-2.25-.74-3.37-1.11a7.15,7.15,0,0,1-1.32-.78Z"/><path class="cls-14" d="M65.16,37.78v1l-3.89-.13a9.49,9.49,0,0,1-.86.88s-.35-.23-.79-.53l1.06-.16c-.05-.57.21-1.31-.87-1.15l.29-.85Z"/><path class="cls-14" d="M63.73,29.58l2.65.83.19-.64.34-1.08h.22v1.74L68.4,29c.06,0,.22.08.26.17.38.79.39,1.77,1.22,2.33,0,0-.06.18-.09.27l-1.53-.68c-.51,1.66-1,3.29-1.54,4.87-.15.38-.74.68-1.19.84a1,1,0,0,1-.84-.47,7.54,7.54,0,0,1-.55-2C64,32.75,63.86,31.16,63.73,29.58Z"/><path class="cls-13" d="M75.86,35.79,77.42,35l3,3.76c.07.09,0,.26.06.39L79.61,39l-.53,1-.68-.8-1.87.58C76.27,38.46,76.66,37,75.86,35.79Z"/><path class="cls-1" d="M76.53,39.79l1.87-.58.68.8a6.4,6.4,0,0,1-.83,1.58.9.9,0,0,1-1.59-.53A10.5,10.5,0,0,1,76.53,39.79Z"/><path class="cls-12" d="M58.47,29.68c.72-.86,1.36-.86,2.46,0Z"/><path class="cls-11" d="M37.91,64.7c0-.1,0-.2,0-.3L38,63.13l1.37.08v0c.52,0,1.05,0,1.58,0l3.63-.2c.3.39.8.25,1.53.07a16.28,16.28,0,0,1,3.5-.11c.56,0,1.12,0,1.68,0,1.31,0,2.62,0,3.93,0,.2,0,.38-.25.59-.33s.68-.3.83-.19c1.28,1,2.6.34,3.91.17A3.42,3.42,0,0,0,60,63.57,6.13,6.13,0,0,0,60.11,65H59.7l-.23-1.47-.25.05-.12,1.44-.94.17-2,.3-1.6.55-.26-.4c-.31-.17-.61-.48-.93-.49-.83,0-1.66.13-2.49.09a21.33,21.33,0,0,1-2.38-.35,11.32,11.32,0,0,1-1.64.21l-2,.15H44l-.84.11h-.75l-.68-.11.44.62c.62.65.27,1.33,0,2a5.56,5.56,0,0,1-.75.63c-.27.16-.73.4-.89.3s-.36-.61-.5-.94-.16-.55-.24-.82l.33-1.38.36-.36a3.83,3.83,0,0,0-1-.58c-.14,0-.39.32-.59.49l-.37,0Z"/><path class="cls-22" d="M55.86,68.12a3.38,3.38,0,0,0,1,2.67,1.11,1.11,0,0,1-1.74,1.08,3.51,3.51,0,0,0-3.27.29l-.19-.94.8-.69.17-.41.22-.59c1.09.16,1.17-.59,1.22-1.36l.38-.45C55.05,67.4,55.45,67.77,55.86,68.12Z"/><path class="cls-22" d="M38.05,70.41c.8-.28,1.38-.53,2-.68a1.08,1.08,0,0,1,.86.15.9.9,0,0,1,.17.8.88.88,0,0,1-.66.43C39.59,71.09,38.69,71.19,38.05,70.41Z"/><path class="cls-12" d="M29,63.91c0-1-.8-1.38-1.5-1.76a4.65,4.65,0,0,1-2.72-3.28c.22.14.52.22.65.41,1,1.39,2.55,1.73,3.95,2.38.87.4,1.76.76,2.66,1.12.64.26,1.32.43,1.94.74a7,7,0,0,1,1.1.89A4.88,4.88,0,0,1,32,64a5.43,5.43,0,0,0-2-.11Z"/><path class="cls-23" d="M23.55,53.91a2,2,0,0,0-2.42.56h-.77v-.81l-1.59-2.32,1.23.23a1.36,1.36,0,0,1,0,.17l.1-.14c.42.16.86.31,1.27.49,1.05.46,1.49.15,1.42-1-.05-.69,0-1.4,0-2.09a17.27,17.27,0,0,1,1,2.82A6.49,6.49,0,0,1,23.55,53.91Z"/><path class="cls-2" d="M23.29,45.64a1.44,1.44,0,0,1,1.1-1.77c0,.55.24.77.77.76.31,0,.61,0,1.11,0Z"/><path class="cls-3" d="M38.53,65.24l-2.24-.53V64.5l1.62.2Z"/><path class="cls-5" d="M62.12,65.3l-2-.26A6.13,6.13,0,0,1,60,63.57a3.42,3.42,0,0,1,.52-1.07l1.9-1.44,1.74,1c1.19-.58,2.32-1.49,3.53-1.61,1.52-.14,2.69-1.22,4.21-1.16.46,0,.92,0,1.56,0l.78-.43c0,.24.07.48.13.91l.74-1.22.55,1.73L71.41,62.1,70,62.5l-.61.4a5.06,5.06,0,0,1-.78,0c-1-.16-1.72.1-1.85,1.24l-.19,0a1.24,1.24,0,0,0-2,.18l-.6,0c-1.09-.57-1.56-.36-1.81.8A1.21,1.21,0,0,0,62.12,65.3Z"/><path class="cls-17" d="M27.39,22.7V21.62l1.16.42-.73.78Z"/><path class="cls-17" d="M28,20.34l-.31-.24.06-.07.25.31Z"/><path class="cls-12" d="M76.76,60.79A20.23,20.23,0,0,1,75,62.09a15.55,15.55,0,0,1-2.38,1.19c-1,.39-2.15.67-3.23,1l-.59-.68.61-.69.61-.4c.47-.15,1.17.52,1.41-.4l4.24-1.81h.4l.61.39A.47.47,0,0,0,76.76,60.79Z"/><path class="cls-2" d="M79.15,60.86c0-.32.08-.65.13-1h2.06c0,.4,0,.79,0,1.18Z"/><path class="cls-5" d="M78.08,59.33l-.78.79-.24-.41C77.7,58.84,77.74,58.82,78.08,59.33Z"/><path class="cls-12" d="M77.06,59.71l.24.41-.54.67a.47.47,0,0,1-.1-.1c0-.26,0-.53,0-.8Z"/><path class="cls-5" d="M76.67,59.89c0,.27,0,.54,0,.8l-.61-.39Z"/><path class="cls-2" d="M78.87,59.62l-.26-.1Z"/><path class="cls-16" d="M21.17,57.67a12.31,12.31,0,0,0,1.34,4.43,3.25,3.25,0,0,1,.24,1,1.44,1.44,0,0,1-2.37.14c-.31-.38-.65-.74-1-1.1-.1.06-.18.09-.2.13-.15.33-.29.67-.43,1-.31-.29-.8-.54-.89-.89a1.77,1.77,0,0,1,.35-1.21c.13-.22.51-.27.86-.44-.53-.54.67-1.35-.35-1.85L20,57.69Z"/><path class="cls-14" d="M93,58.57c-.15-.17-.28-.25-.29-.34s.11-.18.18-.27c.09.07.23.14.27.24S93,58.38,93,58.57Z"/><path class="cls-7" d="M66.57,64.11l.19,0,.83.73c-1.15.15-2.3.34-3.45.45a19.46,19.46,0,0,1-2,0,1.21,1.21,0,0,1,0-.19l1.81-.8.6,0Z"/><path class="cls-14" d="M76.83,65.65c.06-.07.13-.2.2-.2,1.42-.07,2-.92,2-2.22l.66,1.86L78.12,66l.36.62Z"/><path class="cls-14" d="M47,31.38l-.51-.73Z"/><path class="cls-14" d="M12.27,53.87a10.55,10.55,0,0,0,.21-1.48,3.36,3.36,0,0,0-.22-.91,18.16,18.16,0,0,0,2.29.45c.84.07.74-.59.76-1.17,0-.36.11-.9.36-1a1.16,1.16,0,0,1,1.1.15,3.62,3.62,0,0,1,.36,1.34l.61.17.56,0c.08.77.16,1.53.23,2.3a1.24,1.24,0,0,1-.45.19c-1.48,0-3,0-4.44,0a9.08,9.08,0,0,0-1.33.24A2.51,2.51,0,0,0,12.27,53.87Z"/><path class="cls-1" d="M13.51,43.62c.66,0,1.2-.07,1.42-.9.27-1,1-.11,1.5-.23a17.67,17.67,0,0,0-.31,1.91,23.44,23.44,0,0,0,0,2.78.87.87,0,0,1-.93,1A1.5,1.5,0,0,1,14,47.4C13.75,46.17,13.67,44.88,13.51,43.62Z"/><path class="cls-8" d="M18.53,53.67c-.07-.77-.15-1.53-.23-2.3l.46,0,1.59,2.32Z"/><path class="cls-8" d="M17.74,51.39l-.61-.17Z"/><path class="cls-1" d="M16.4,42.32l.3-.51Z"/><path class="cls-8" d="M20.13,51.6l-.1.14a1.36,1.36,0,0,0,0-.17A.35.35,0,0,0,20.13,51.6Z"/><path class="cls-23" d="M12.27,53.87a2.51,2.51,0,0,1,0,.27,5.57,5.57,0,0,1,.31,1.11c.05.67,0,1.35,0,2L11,57c-.41-.46-.73-.8-1-1.14.15-.38.3-.76.44-1.15Z"/><path class="cls-8" d="M21.17,57.67l-1.21,0c0-.74-.07-1.48,0-2.21a3.62,3.62,0,0,1,.42-1h.77C21.15,55.54,21.16,56.6,21.17,57.67Z"/><path class="cls-10" d="M54.26,65.69c-1.95.12-3.91.36-5.86.33a20.28,20.28,0,0,1-3.63-.72l2-.15a11.32,11.32,0,0,0,1.64-.21,21.33,21.33,0,0,0,2.38.35c.83,0,1.66-.12,2.49-.09C53.65,65.21,54,65.52,54.26,65.69Z"/><path class="cls-3" d="M55.86,68.12c-.41-.35-.81-.72-1.41-.4,0-.55,0-1.09.07-1.63l1.6-.55C56,66.4,56,67.26,55.86,68.12Z"/><path class="cls-3" d="M40.12,65.71l-1.22-.45c.2-.17.45-.53.59-.49a3.83,3.83,0,0,1,1,.58Z"/><path class="cls-5" d="M59.7,65.05l-.6,0,.12-1.44.25-.05Z"/><path class="cls-10" d="M42.37,65.41l-.24.51c-.15-.21-.29-.42-.44-.62Z"/><path class="cls-10" d="M44,65.29l-.84.11Z"/><path class="cls-3" d="M54.07,68.17c0,.77-.13,1.52-1.22,1.36C53.15,69,53.16,68.17,54.07,68.17Z"/><path class="cls-4" d="M52.63,70.12l-.17.41Z"/><path class="cls-2" d="M63.94,64.31l-1.81.8C62.38,64,62.85,63.74,63.94,64.31Z"/><path class="cls-2" d="M66.57,64.11l-2,.18A1.24,1.24,0,0,1,66.57,64.11Z"/><path class="cls-2" d="M71.41,62.1c-.24.92-.94.25-1.41.4Z"/></g></svg>