<svg xmlns="http://www.w3.org/2000/svg" viewBox="0 0 100 100"><defs><style>.cls-1{fill:#936260;}.cls-2{fill:#976867;}.cls-3{fill:#c6adab;}.cls-4{fill:#bea19f;}.cls-5{fill:#a47a79;}.cls-6{fill:#c9b1b0;}.cls-7{fill:#c4aaa9;}.cls-8{fill:#b89896;}.cls-9{fill:#a7807f;}.cls-10{fill:#c1a4a3;}.cls-11{fill:#9b6e6c;}.cls-12{fill:#ba9b9a;}.cls-13{fill:#ccb5b4;}.cls-14{fill:#b59493;}.cls-15{fill:#ab8584;}.cls-16{fill:#b18e8c;}.cls-17{fill:#a57c7b;}.cls-18{fill:#9d716f;}.cls-19{fill:#c2a7a6;}.cls-20{fill:#a98281;}.cls-21{fill:#bc9d9c;}.cls-22{fill:#b49290;}.cls-23{fill:#f3eded;}.cls-24{fill:#ad8887;}.cls-25{fill:#a07674;}</style></defs><g id="Ebene_14" data-name="Ebene 14"><path class="cls-1" d="M44.69,99.17l-.61,0a.68.68,0,0,0,0-.14l-.31-.16a13.81,13.81,0,0,0-2.39-.29,9.24,9.24,0,0,0-2,.5c-.09,0-.2.16-.27.14-1.09-.31-1.94.62-3,.56-.52-.18-.94-.66-1.63-.16-.2.14-.81-.07-1,.43l-.29,0a4.75,4.75,0,0,0,.05-.53c0-.32,0-.65,0-1l-.78.25a2.7,2.7,0,0,1-.31,0l-.42-1.36c-.55,0-.91.18-.78,1-1.14-.55-2.13-1.36-3.44-.58.06-1-.64-1.18-1.27-1.41-.21-.08-.48-.09-.63-.23a12.93,12.93,0,0,1-1.26-1.3,1.12,1.12,0,0,1-.31-.78c.2-.67-.07-.86-.67-.85h0l-.43-.48-.32-.25L22,92.45l0,0c0-.43-1.64-2.39-2-2.36a1,1,0,0,1-1.08-.68c-.13-.27-.34-.51-.47-.77A11.2,11.2,0,0,1,17,85.68a7.44,7.44,0,0,1,.54-5l.62-.47h0c.08,1,1,.76,1.56,1.11,1,.89,1.17.9,1.88.14l1.08.13c.2,1,1.15,1.3,2.05.58l.46.08c-.09.26-.3.49.19.63.91.28,1.8.63,2.69,1,.36.14.71.52,1.07,0,0-.06.33,0,.46,0,.52.26.77,0,.92-.45l1,0,.42.69.49-.44.46,0,.15.22.18-.19.77,0,.86.55v.34c.43.13.73.21,1,.32.58.23,1.06.73,1.8.44a12,12,0,0,1,1.69-.43c.36-.08.73-.13,1.09-.2.52-.1,1-.23,1.55-.28a6.75,6.75,0,0,1,1.19.13c.14.41,1,.8.43,1.63,0,.06.07.28.14.3a.52.52,0,0,0,.38-.1,2.46,2.46,0,0,0,.28-.41l.05.25c.5,0,1,0,1.5.09a1.55,1.55,0,0,1,.51.23c-.1.14-.19.39-.28.39-.64,0-.91.42-1.21.89-.15.23-.5.33-.76.47-.47.25-1.24.39-1.38.77-.33.89-.61.29-.91.21-.25.21-.55.44-.8.4a1.88,1.88,0,0,0-1.77.64,1,1,0,0,1-.76.25A11.39,11.39,0,0,1,36.38,90c-.4-.17-.69-.28-.86.19s-.32.93.38,1.09c.4.09.58.27.42.72-.22.65.13.82.72.81a2.15,2.15,0,0,1,.64.23c.06.15.11.42.19.43a21.76,21.76,0,0,1,2.31.24,17.85,17.85,0,0,0,5,.43,12.67,12.67,0,0,0-1.35.47c-.41.19-1,.39-1.1.73a2.49,2.49,0,0,0,.08,1.39,11.46,11.46,0,0,0,.48,1.47A1.11,1.11,0,0,1,44.69,99.17Z"/><path class="cls-2" d="M44.69,99.17a1.11,1.11,0,0,0-1.41-1,11.46,11.46,0,0,1-.48-1.47,2.49,2.49,0,0,1-.08-1.39c.15-.34.69-.54,1.1-.73a12.67,12.67,0,0,1,1.35-.47h.47c.07.09.13.25.22.26a9.55,9.55,0,0,0,1.31.15.65.65,0,0,0,.4-.17.76.76,0,0,1,1.16.08,1.65,1.65,0,0,0,.6.27l.22-.6,2-.37c.27,0,.54-.19.81-.22a35.53,35.53,0,0,1,3.56-.27c.82,0,1.7-.58,2.49.16,0,0,.33-.06.42-.17a4.79,4.79,0,0,0,.46-.71h.6c.31.22.62.36.8-.15.68-.74,1.59-.61,2.46-.62a1.64,1.64,0,0,0,.53-.09,6.27,6.27,0,0,1,2.06-.77,2.45,2.45,0,0,0,2.2-1.3,3.31,3.31,0,0,1,.55-.5l.88.24c0,.25-.06.48-.09.7a.77.77,0,0,1,0,.15c-.08,0-.23.1-.24.16,0,.52-.31.75-.74,1a8.34,8.34,0,0,0-1.56,1.68c-.11.13,0,.44,0,.65a2.31,2.31,0,0,1-.35,1c-.45.56-1,1.06-1.47,1.58-1.41.36-2.8.8-4.22,1s-2.66.22-4,.38c-1.14.14-2.25.43-3.38.58s-2.35.15-3.52.3c-1.62.2-3.24.47-4.86.7A.47.47,0,0,1,44.69,99.17ZM66,93.83s.1.06.13,0,0-.08.06-.12-.1-.07-.13-.05S66.05,93.79,66,93.83Z"/><path class="cls-3" d="M17.89,73.94a36.33,36.33,0,0,1,2.55-8.06c.8-1.77,1.43-3.62,2.17-5.42,1-2.35,2-4.67,3-7,.77-1.84,1.46-3.72,2.25-5.55.67-1.58,1.53-3.08,2.13-4.68a20.41,20.41,0,0,0,.68-3.36c0-.17,0-.36,0-.54.48-2.58-.35-4.92-1.31-7.24-1-2.54-2.07-5.09-3.05-7.66-1.25-3.25-2.45-6.51-3.68-9.77-.21-.58-.5-1.13-.75-1.7a2.15,2.15,0,0,0,.46-.21,2.93,2.93,0,0,0,.36-.43,3.63,3.63,0,0,1,.48.7q1.45,3.64,2.88,7.31c.78,2,1.52,4,2.33,6S30.18,30.5,31,32.62a18.77,18.77,0,0,1,1.07,6.91c0,2.54-1,4.65-2,6.84-.51,1.18-1.14,2.31-1.64,3.5-.59,1.43-1.08,2.9-1.67,4.33-.4,1-.92,1.92-1.32,2.9s-.81,2.24-1.25,3.34c-.84,2.07-1.77,4.11-2.54,6.2-.7,1.89-1.25,3.84-1.86,5.77l-.69,2.13Z"/><path class="cls-4" d="M69.71,69.73l-.51-.26c.83,2.48,1.61,4.8,2.38,7.13h-.65l-.18-.73c-.15.14-.3.29-.46.42a.28.28,0,0,1-.19.07c-.89-.14-.63.35-.48.83a1.27,1.27,0,0,1-.37,1.59,3.77,3.77,0,0,0-.69-.46c-1.28-.54-2.56-1.06-3.84-1.58a1.11,1.11,0,0,0,0-.45,1.88,1.88,0,0,0-.37-.43l-.55.72-.35-.08c.12-.5,0-.68-.59-.72a1.77,1.77,0,0,1-1.05-.51c-.47-.5-.75-.57-1.24-.14l.73,1-2-.19c-.31-1-1.25-.58-1.81-.93l-.55-.43.15-1.1.48-.65h.63l.05.9.23,0,.18-.78,2,.17c0,.18-.2.46-.13.53.36.37,1.24,0,1.38-.49h.3l.46.94.85-.29.23.7.18,0,.32-1,4.53,1.17c0-.15-.1-.42-.18-.68l-1.71-5.23c-.35-1.06-.64-2.14-1-3.18-1.3-3.37-2.63-6.73-3.94-10.1.7-.32.36-.85.19-1.38l1.2.29c.45.93.94,1.84,1.33,2.79.54,1.34,1,2.72,1.51,4.06.81,2.06,1.65,4.11,2.49,6.15.06.13.29.18.44.26l-.61.36.1.46-.89-.57-.17.87a6.85,6.85,0,0,0,1,.43c.33.08.68,0,1,.1C69.62,69.31,69.65,69.58,69.71,69.73Zm-9.9,3.88c-.24-.13-.41-.27-.47-.24a1.07,1.07,0,0,0-.38.41s.22.28.25.26A5.16,5.16,0,0,0,59.81,73.61Z"/><path class="cls-4" d="M64.82,13.87c-.5,1.66-1,3.32-1.5,5s-1,3.31-1.35,5a16.89,16.89,0,0,0-.2,2.33l1.85.1v1h-.31l-.44-.58-.18.12.18.55a1.11,1.11,0,0,1-.29.07c-1-.15-1.17-.05-1.32,1a2.42,2.42,0,0,1-.21.9c-.53.87-1.2,1.67-1.66,2.58A12.58,12.58,0,0,0,58,37.48a30.26,30.26,0,0,0,.4,4.22c.18,1.56.37,3.12.56,4.68l-1.45.35c0-.07-.11-.13-.12-.2-.4-2.1-.73-4.22-1.21-6.31a10.31,10.31,0,0,1,1-7.17c.59-1.18,1.35-2.28,1.84-3.49A17.56,17.56,0,0,0,60,26a5.6,5.6,0,0,0-.29-1.77,2.72,2.72,0,0,0,.22-3.07,1.67,1.67,0,0,1,.47-2.35c.33-.27.4-.86.58-1.3l.15-.28.33-.79.31-.47,1.7-2.21Z"/><path class="cls-4" d="M50.66,0A19,19,0,0,0,53,.29c1.09,0,2.18-.21,3.26-.21,1.67,0,3.33.13,5,.2l-.4.41a9.53,9.53,0,0,0-.77.79s-.36-.23-.42-.27l.69-.73L60.22.32l-3.5,1.59-.17-.29.92-.83a5.36,5.36,0,0,1-.77.1c-.78,0-.87.11-.54.84.07.17.18.32.24.48s0,.13-.08.2l-.63-.19c.14.81.6,1,1.25.73l.07.44,1.45-.29.64,0h0v.32c-.24.54-.49,1-1.2,1.09-.22,0-.4.41-.6.63l-.94.33a8.23,8.23,0,0,0-1.11-1.1c-.36-.24-.85-.43-1.18.13a6.52,6.52,0,0,1-.74.16c-.67.07-.78.29-.46.84a3,3,0,0,1,.23.74l-.66.14c-.16-.32-.24-.69-.36-.7a1.41,1.41,0,0,0-1,.17A5.24,5.24,0,0,0,50.33,7l-.91.21.13.53.78-.27L50,8.87c-.15-.07-.42-.13-.42-.2,0-.78-.62-.68-1.11-.73V6.06l1.28.38A1.87,1.87,0,0,0,50,6c0-.25.09-.63,0-.74s-.51-.08-.77-.06a3.84,3.84,0,0,0-.59.11c-.42,0-.81,0-.8.58l-.61,0c-.75-.57-1-1.28-.84-1.51a7.67,7.67,0,0,0,1.57,0c.16,0,.25-.42.36-.65l.78-.06.21.27.26-.29h.31l.21.43.26-.45c1.55,0,3.15.18,4.66-.52l-5.75-.42L47.78,1.39l.35,1.16-.46-.07-.19-.25-.12.25-.78,0L46.42,2V1.84c.25-.06.59-.05.74-.21.47-.5.86-1.08,1.28-1.62h.47c.08.19.15.54.25.55.48,0,.68.23.75.7,0,.11.32.24.49.25s.3-.19.35-.33A1.49,1.49,0,0,0,50.7.58L52,.74Zm-.81,1.91-.17-.27-.58.46.14.19ZM51.2,1.1v.19l.46,0V1.13Z"/><path class="cls-5" d="M69.25,78.78a1.27,1.27,0,0,0,.37-1.59c-.15-.48-.41-1,.48-.83a.28.28,0,0,0,.19-.07c.16-.13.31-.28.46-.42l.18.73h.65c0,.41.09.83.14,1.25.12.25.25.5.38.75s.22.5.32.75l.42,1,0,.47c-.13.06-.33.08-.37.17a2.27,2.27,0,0,0,.43,2.35c.62.79.35,1.46.25,2.24a12.46,12.46,0,0,0,0,1.73,5.65,5.65,0,0,1-1.64,3.21l.08-1.12c-.72,1-.72,1-1.91.66a2.36,2.36,0,0,0-.38,0l.09-.7-.88-.24a5.85,5.85,0,0,1,.66-.94,8.21,8.21,0,0,1,1.06-.77l.57-1c.48,0,.53-.42.38-1a5,5,0,0,1,.24-2.69c.21-.67-.21-.9-.78-1.08l-.18.93-1.91.14-.66,1.13c-.54,0-1.12-.11-1.45.53,0,.08-.27.07-.42.1L66.3,83l1.37.32-.45-1c.19-.23.37-.46.57-.68s.67-.68,1-1l.62-.19.28.35,0-.48a.14.14,0,0,1,.12,0l.65-.09V80l-.6-.1Zm1.23-.36-.11-.27-.46.26.1.2Z"/><path class="cls-6" d="M48.3,3.64c-.11.23-.2.62-.36.65a7.67,7.67,0,0,1-1.57,0c-.18.23.09.94.84,1.51l-6.89-.27A1,1,0,0,0,39,5a6.37,6.37,0,0,1-.87.17L38,4.86l1.15-.52a1.8,1.8,0,0,0-.7-.09c-.25,0-.56,0-.71-.17a2.37,2.37,0,0,0-2.44-.67l-1.09-.79-.37-.5-.15.13,0,.53-.64.29-.17-.81-.68.62-.15-.68c-.68.85-1.12,0-1.66-.07l.64-.75a4.19,4.19,0,0,0,2.92,0A26.39,26.39,0,0,1,38.48.47a.68.68,0,0,1,.28.1l.47.67-.17.12L38.26,1l.19,1.62-2.05.22c2.52.36,5,.53,7.51.7.4,0,.81.1,1.22.1C46.19,3.66,47.25,3.65,48.3,3.64Z"/><path class="cls-5" d="M66.05.85l.68.41.48,1.37A6.08,6.08,0,0,1,66,2.48a2.4,2.4,0,0,0-2,.17.62.62,0,0,1-.93-.18,3.28,3.28,0,0,0-.85-.55c-.45,1.87-.45,1.87.78,2.69l-.63,1.45a3.56,3.56,0,0,0,.82.37c.78.14,1.46.83,2.33.42-.16.86-.25,1.75-.49,2.59a1.34,1.34,0,0,0,.76,1.78l-.27.48-.14.18h0c-.72.15-1.1,0-.83-.85a2,2,0,0,0,0-.65c-.71-.25-1.33-.25-1.66.44s-.59.82-1.17.64c-.11.5-.22,1-.3,1.4-.15.87-.28,1.73-.42,2.6a3.86,3.86,0,0,0-.6.21,7.15,7.15,0,0,0-.7.53l-.27-.9h0l.31-.31v-.31l-.15-.32.15-.62v-.32l.16-.31a12.22,12.22,0,0,0,1-1c.06-.07-.15-.49-.16-.49-.89.26-.7-.4-.73-.85h0a4.38,4.38,0,0,0,1.63-.37,1.86,1.86,0,0,0,.81-2.25c-.3-1.06-.14-1.11-1.12-1.06a4.31,4.31,0,0,0-1.86-2.19l.12-.15h.78l.26-.54L60.89,4l.16.71.31-.14a7,7,0,0,0,0-1.12,8.2,8.2,0,0,0-.29-1.16c.07-.2.1-.55.21-.58a10.08,10.08,0,0,1,1.46-.22l1.47-.17h.3Z"/><path class="cls-4" d="M17.89,73.94l1.24.6c0,.33-.09.65-.12,1,0,.11,0,.27.07.32s.22,0,.33,0c1.84-.52,3.6-1.3,5.62-1.14a25.67,25.67,0,0,0,4.18-.32c.23.3,1,.08.79.81l0,.07,0-.07.7,0c-.14.18-.26.45-.44.51-.56.19-.44.68-.54,1.07-.1.08-.19.21-.29.23-.66.07-1.33.14-2,.17a55.42,55.42,0,0,0-5.63.29c-1.06.16-2.46.12-2.91,1.58a3,3,0,0,1-.23-1,18.81,18.81,0,0,1,.43-2c-.23.12-.43.21-.62.32-.42.27-.83.56-1.25.84C17.45,76.13,17.67,75,17.89,73.94Z"/><path class="cls-7" d="M81,52.92a14.41,14.41,0,0,1,1.24,5.46c-.06,1.4.07,2.81.1,4.21a4.52,4.52,0,0,1-1.12,2.8,10,10,0,0,1-3.13,2.66,4.12,4.12,0,0,1-.72.27v-.64c.39,0,.54-.11.3-.49a5.65,5.65,0,0,1-.31-.66c2-1.4,3.33-3.14,3-5.75l-.57-4.37.48-1.31-.34.29-.49-.52.32-.34a1.49,1.49,0,0,0,.21,0,6.26,6.26,0,0,0,.61-.21s0-.13,0-.21a4.12,4.12,0,0,1-.59.07.63.63,0,0,1-.42-.08c-.06-.06,0-.27,0-.39a2.51,2.51,0,0,1,.3-.45l-.71-.1,1-.77.75.78Z"/><path class="cls-3" d="M83.49,3.67c-2-.19-4.09-.44-6.14-.56-1.5-.08-3,0-4.52,0l-.77.05c.56-.68-.53-1-.33-1.6l.79-.66.4.42L73,.59a8.25,8.25,0,0,1,3.64-.2c2.46.45,5,.66,7.46,1,.23,0,.44.28.65.43l-2,1Z"/><path class="cls-7" d="M63.62,27.3v-1l2.79.35c.08,0,.15.07.23.07,2.52-.15,3.82,1.63,5,3.37C72.58,31.41,73.2,33,74,34.37a22.3,22.3,0,0,1,2.08,5.17,1,1,0,0,1-1.33-.41l-.58.41c-.45-1.2-.82-2.45-1.36-3.62C71.93,34,71,32.15,70,30.33A4.74,4.74,0,0,0,67.27,28,31.7,31.7,0,0,0,63.62,27.3Z"/><path class="cls-4" d="M81,52.92l-.14.23-.75-.78-1,.77.71.1a2.51,2.51,0,0,0-.3.45c0,.12-.08.33,0,.39a.63.63,0,0,0,.42.08,4.12,4.12,0,0,0,.59-.07c0,.08,0,.21,0,.21a6.26,6.26,0,0,1-.61.21,1.49,1.49,0,0,1-.21,0l-.32.34.49.52.34-.29-.48,1.31c-.3-1.17-.55-2.35-.91-3.51s-.79-2.06-1.19-3.1C77,47.87,76.2,46,75.5,44c-.4-1.11-.72-2.26-1.07-3.38.1.07.26.12.28.21.2.82.64,1,1.37.57a2.16,2.16,0,0,1,.51-.16c1.43,3.61,2.86,7.21,4.28,10.83A4.61,4.61,0,0,1,81,52.92Z"/><path class="cls-8" d="M31.09,1.38l-.64.75c.54,0,1,.92,1.66.07l.15.68.68-.62.17.81.64-.29.48-.16,1.09.79c-.15.1-.3.28-.43.28-1.13-.07-1.13-.08-1.13,1l-.94-.31L32.35,4l-.09.24.41.09-.79.77c0-.8-.73-.82-1.07-1.26L30.64,4l.3.8h-.78c-.27-.88-.89-1.32-1.38-.92L30,4.82l-.32.46L29.36,5a4.2,4.2,0,0,0-.91-.69,7,7,0,0,0-1.14-.19c-.63-.16-1.1-.07-1.38.59-.05.13-.29.19-.45.28l-.93-.8L24.88,3l.76-.33c-.6-.1-1-.17-1.36-.22s-.64-.06-1-.13A1.54,1.54,0,0,1,23,2.09,23,23,0,0,1,31.09,1.38Z"/><path class="cls-9" d="M23,2.09a1.54,1.54,0,0,0,.38.23c.31.07.63.08,1,.13s.76.12,1.36.22L24.88,3l-.33,1.16.93.8-1.29.58.52.66-1,.65V6.38l.1-.38L23.7,6l-.11.42-.46-.63,1-1.09-1,.15.42-.65c-.32.26-1.38-.71-1,.66a8.28,8.28,0,0,1-1.24-.07c-.71-.14-.78.13-.53.69a3.57,3.57,0,0,1-.8-.26c-.36-.2-.68-.47-1-.71a3.78,3.78,0,0,1-1.25-.35,1.41,1.41,0,0,1-.61-1c0-.28.5-.7.82-.75a8,8,0,0,1,2.81-.08A8.93,8.93,0,0,0,23,2.09Z"/><path class="cls-4" d="M73,.59l-.09.77-.4-.42-.79.66c-.2.61.89.92.33,1.6l-4.19.63c-.39.07-1.05-.19-.93.64l-.19,0-.17-.33.17-.77.46-.78-.48-1.37A20.7,20.7,0,0,1,70.48,1C71.43,1.13,72.12.41,73,.59Z"/><path class="cls-10" d="M77.37,66.53a5.65,5.65,0,0,0,.31.66c.24.38.09.5-.3.49l-1,.09.37.73c-2,.6-3.84,1.72-6,1.4l-.92-.11c.76-.41.49-1.12.51-1.75.39,0,.78,0,1.16,0A7.39,7.39,0,0,0,75,67.52C75.78,67.17,76.58,66.85,77.37,66.53Zm-1.28,1.83s-.06.1,0,.13.08,0,.13.06.06-.1,0-.13S76.14,68.38,76.09,68.36Z"/><path class="cls-11" d="M61,15.45c.14-.87.27-1.73.42-2.6.08-.45.19-.9.3-1.4.58.18.91-.09,1.17-.64s1-.69,1.66-.44a2,2,0,0,1,0,.65c-.27.85.11,1,.83.85-.08.36-.15.71-.22,1.07a2.91,2.91,0,0,0-.59-.34c-.16,0-.45,0-.52.06a7.38,7.38,0,0,0-.58,1.07l-1.7,2.21L61,15.45Z"/><path class="cls-8" d="M64.26,1.35l-1.47.17a10.08,10.08,0,0,0-1.46.22c-.11,0-.14.38-.21.58l-1.25-.18-.13-.59-.5.92-.15.15-.63.48L57,3.39,56.94,3c-.65.24-1.11.08-1.25-.73l.63.19c0-.07.1-.15.08-.2s-.17-.31-.24-.48c-.33-.73-.24-.85.54-.84a5.36,5.36,0,0,0,.77-.1l-.92.83.17.29L60.22.32l.16.16-.69.73c.06,0,.38.31.42.27a9.53,9.53,0,0,1,.77-.79l.4-.41h.31c.28.35.56.64.79,0L63.62.3,64,.91C64.06,1.06,64.16,1.2,64.26,1.35Z"/><path class="cls-5" d="M64.87,96.24c.49-.52,1-1,1.47-1.58a2.31,2.31,0,0,0,.35-1c0-.21-.11-.52,0-.65a8.34,8.34,0,0,1,1.56-1.68c.43-.29.72-.52.74-1,0-.06.16-.11.24-.16,0,.5,0,1-.08,1.51l.8-.1c-.3.65-.57,1.32-.91,2a5.8,5.8,0,0,1-.89,1.25A4.24,4.24,0,0,1,64.87,96.24Z"/><path class="cls-5" d="M23.31,93.31c.6,0,.87.18.67.85a1.12,1.12,0,0,0,.31.78,12.93,12.93,0,0,0,1.26,1.3c.15.14.42.15.63.23.63.23,1.33.41,1.27,1.41,1.31-.78,2.3,0,3.44.58-.13-.87.23-1.09.78-1l.42,1.36a2.7,2.7,0,0,0,.31,0l.78-.25c0,.32,0,.65,0,1a4.75,4.75,0,0,1-.05.53l-.5-.22-.06-.59-.39.5-.81-.4.26-.21s-.1-.09-.11-.08a3.57,3.57,0,0,0-.28.27c-.82-.18-1.64-.33-2.44-.54a6.33,6.33,0,0,1-1-.44c-.68-.3-1.5-.32-1.9-1.1a2.56,2.56,0,0,0-.05-.27l-.16.11A7,7,0,0,1,23.31,93.31Z"/><path class="cls-4" d="M38.45,2.63,38.26,1l.8.35.17-.12L38.76.57l1.12,0c-.07.41-.15.82-.25,1.39l.57-.46.42.44.29-1,.75.34L41.9.47h.31l1-.08L45.64.1l-.15,1H45C44.86.38,44.45.31,43,.83l1.28.71v.3l-.78.63Z"/><path class="cls-7" d="M19,4.47c.35.24.67.51,1,.71a3.57,3.57,0,0,0,.8.26v.17c-.12,0-.32,0-.34.11-.21.69-.8.89-1.35,1.16l-1.89.94.3.44-1.16.4.07.49-.94-.42a1.81,1.81,0,0,0,.44-2.24c.81-.44,1.62-.86,2.41-1.34A3.48,3.48,0,0,0,19,4.47Z"/><path class="cls-12" d="M17.5,80.65a7.44,7.44,0,0,0-.54,5,11.2,11.2,0,0,0,1.42,2.94c.13.26.34.5.47.77a1,1,0,0,0,1.08.68c.4,0,2,1.93,2,2.36-4.64-2.43-6.88-6.35-5.25-11.62Z"/><path class="cls-13" d="M16.4,9.15l-.07-.49,1.16-.4c.1,0,.22,0,.3.05,1,.61,1.92,1.25,2.9,1.83a5,5,0,0,1,2,2.16,2.93,2.93,0,0,1-.36.43,2.15,2.15,0,0,1-.46.21,10.76,10.76,0,0,0-4.45-3.1A8.81,8.81,0,0,1,16.4,9.15Z"/><path class="cls-14" d="M65.77,11.22A1.34,1.34,0,0,1,65,9.44c.24-.84.33-1.73.49-2.59l.33-.77c.66,0,1.1-.59,1.22-1.52.37-.15.7,0,.6.37C67.06,7,66.41,9.13,65.77,11.22Z"/><path class="cls-9" d="M17.5,80.65l-.78.16c.17-1.19.34-2.39.5-3.58.42-.28.83-.57,1.25-.84.19-.11.39-.2.62-.32a18.81,18.81,0,0,0-.43,2,3,3,0,0,0,.23,1l-.77,1.11Z"/><path class="cls-6" d="M45.49,1.06l.15-1L48.45,0c-.42.54-.81,1.12-1.28,1.62-.15.16-.49.15-.74.21V.65l-.38,0-.29,1.18-1.52-.25L43,.83c1.49-.52,1.9-.45,2.06.23C45.18,1.57,45.33,1.3,45.49,1.06Z"/><path class="cls-4" d="M73.1,87.3a12.46,12.46,0,0,1,0-1.73c.1-.78.37-1.45-.25-2.24A2.27,2.27,0,0,1,72.45,81c0-.09.24-.11.37-.17a8.94,8.94,0,0,1,.78,5.24A6.66,6.66,0,0,1,73.1,87.3Z"/><path class="cls-15" d="M70.33,68c0,.63.25,1.34-.51,1.75a.24.24,0,0,1-.11-.06c-.06-.15-.09-.42-.18-.44-.33-.07-.68,0-1-.1a6.85,6.85,0,0,1-1-.43l.17-.87.89.57-.1-.46.61-.36Z"/><path class="cls-12" d="M83.49,3.67l-.75-.85,2-1a3,3,0,0,1,.33,2.29Z"/><path class="cls-10" d="M44.06,99a.68.68,0,0,1,0,.14,7.26,7.26,0,0,1-1.58.23c-1,0-2.1-.21-3.15-.32a9.24,9.24,0,0,1,2-.5,13.81,13.81,0,0,1,2.39.29Z"/><path class="cls-5" d="M67.05,4.56c-.12.93-.56,1.48-1.22,1.52-.15-.35-.28-.71-.45-1-.26-.48-.27-.85.27-1.16.16-.09.22-.34.3-.47h.8c0,.25-.11.51-.17.77l-1,.35.12.35,1.1-.37.19,0A.19.19,0,0,1,67.05,4.56Z"/><path class="cls-16" d="M70,91.59l-.8.1c0-.52.06-1,.08-1.51a.77.77,0,0,0,0-.15,2.36,2.36,0,0,1,.38,0c1.19.33,1.19.33,1.91-.66l-.08,1.12Z"/><path class="cls-6" d="M50.66,0,52,.74,50.7.58a1.49,1.49,0,0,1,.06.59c0,.14-.23.33-.35.33s-.47-.14-.49-.25c-.07-.47-.27-.68-.75-.7-.1,0-.17-.36-.25-.55Z"/><path class="cls-6" d="M41.9.47l-.24.77L40.91.9l-.29,1-.42-.44-.57.46c.1-.57.18-1,.25-1.39Z"/><path class="cls-13" d="M15.9,6.49a1.81,1.81,0,0,1-.44,2.24C14.49,8.12,14.66,7.25,15.9,6.49Z"/><path class="cls-7" d="M76.59,41.25a2.16,2.16,0,0,0-.51.16c-.73.44-1.17.25-1.37-.57,0-.09-.18-.14-.28-.21l0-.31.08-.4a.21.21,0,0,0,0-.12c.62-.15.77.27.81.66l1.14.31Zm-1-.08a1,1,0,0,0-.2-.18s-.09,0-.14,0,0,.15.1.17S75.49,41.19,75.61,41.17Z"/><path class="cls-17" d="M63.47,13.73a7.38,7.38,0,0,1,.58-1.07c.07-.1.36-.1.52-.06a2.91,2.91,0,0,1,.59.34c-.11.31-.22.62-.34.93Z"/><path class="cls-4" d="M76.39,40.77l-1.14-.31c0-.39-.19-.81-.81-.67l-.27-.25.58-.41a1,1,0,0,0,1.33.41C76.18,40,76.29,40.36,76.39,40.77Z"/><path class="cls-5" d="M33.44,100c.22-.5.83-.29,1-.43.69-.5,1.11,0,1.63.16Z"/><path class="cls-8" d="M66.05.85l-1.49.49c0-.29.11-.59.16-.89Z"/><path class="cls-4" d="M64.72.45c0,.3-.11.6-.16.89h-.3c-.1-.15-.2-.29-.29-.44L63.62.3Z"/><path class="cls-6" d="M76.78,68.5l-.37-.73,1-.09v.64Z"/><path class="cls-4" d="M62.38.23c-.23.68-.51.39-.79,0Z"/><path class="cls-4" d="M72.84,80.34l-.42-1Z"/><path class="cls-1" d="M32.2,99.67l.39-.5.06.59Z"/><path class="cls-6" d="M43.19.38l-1,.08Z"/><path class="cls-4" d="M72.1,78.6c-.13-.25-.26-.5-.38-.75C71.84,78.1,72,78.35,72.1,78.6Z"/><path class="cls-12" d="M22.86,92.83l.43.48Z"/><path class="cls-1" d="M31.26,99.25a3.57,3.57,0,0,1,.28-.27s.07,0,.11.08l-.26.21A.19.19,0,0,1,31.26,99.25Z"/><path class="cls-12" d="M22,92.45l.55.13Z"/><path class="cls-1" d="M25.71,97l.16-.11a2.56,2.56,0,0,1,.05.27Z"/><path class="cls-11" d="M65.36,11.88l.14-.18Z"/><path class="cls-18" d="M33.91,83.71c1.33-.14,2.65-.32,4-.38.89,0,1.8.17,2.7.15,1.66,0,3.31-.13,5-.19a8.58,8.58,0,0,1,1,0l.9.8,0,.3.17.48.16.76-.47.16-.75.41.75.36c.17.09.36.16.52.26l1,.71.47.45.15.46a1.56,1.56,0,0,0,.22,1.76,1.91,1.91,0,0,1,.32,1.29c0,.2-.41.4-.49.47-.36-.41-.58-.87-.87-.92-.47-.09-.78.26-.77.82a4.44,4.44,0,0,1-.22.93,4.86,4.86,0,0,1-.54,0c-.17,0-.33-.07-.51-.1-.07.72-.19.75-1.16.25l.41-.8c-.83-.48-1.25-.35-1.66.47-.57,1.15-.57,1.15-1.75.87a1.63,1.63,0,0,0-.31,0L37.68,93a2.15,2.15,0,0,0-.64-.23c-.59,0-.94-.16-.72-.81.16-.45,0-.63-.42-.72-.7-.16-.53-.66-.38-1.09s.46-.36.86-.19a11.39,11.39,0,0,0,2.14.62,1,1,0,0,0,.76-.25,1.88,1.88,0,0,1,1.77-.64c.25,0,.55-.19.8-.4.3.08.58.68.91-.21.14-.38.91-.52,1.38-.77.26-.14.61-.24.76-.47.3-.47.57-.89,1.21-.89.09,0,.18-.25.28-.39a1.55,1.55,0,0,0-.51-.23c-.49-.06-1-.07-1.5-.09L44.33,86a2.46,2.46,0,0,1-.28.41.52.52,0,0,1-.38.1c-.07,0-.18-.24-.14-.3.53-.83-.29-1.22-.43-1.63a6.75,6.75,0,0,0-1.19-.13c-.52,0-1,.18-1.55.28-.36.07-.73.12-1.09.2a12,12,0,0,0-1.69.43c-.74.29-1.22-.21-1.8-.44-.28-.11-.58-.19-1-.32v-.34Zm12.78,7.48s-.06.1,0,.13a.13.13,0,0,0,.12.05s.07-.09.06-.12S46.74,91.21,46.69,91.19Z"/><path class="cls-17" d="M37.68,93l4.53.47a1.63,1.63,0,0,1,.31,0c1.18.28,1.18.28,1.75-.87.41-.82.83-1,1.66-.47l-.41.8c1,.5,1.09.47,1.16-.25.18,0,.34.08.51.1a4.86,4.86,0,0,0,.54,0,4.44,4.44,0,0,0,.22-.93c0-.56.3-.91.77-.82.29.05.51.51.87.92.08-.07.48-.27.49-.47a1.91,1.91,0,0,0-.32-1.29,1.56,1.56,0,0,1-.22-1.76l.3-.08.82-.1.09.8c0,.14,0,.32.07.41.45.56.92,1.09,1.38,1.64h0l.63.62.31.16L52.69,93c-.24,0-.58-.17-.72-.07-.64.5-1.29.24-2,.09l-.45.62-.31.31-3.6.17h-.47a17.85,17.85,0,0,1-5-.43,21.76,21.76,0,0,0-2.31-.24C37.79,93.43,37.74,93.16,37.68,93Z"/><path class="cls-18" d="M25.15,82.22l1.67.33a1.23,1.23,0,0,1,.19,0c.69.25,1.36.55,2.06.73a6.61,6.61,0,0,0,1.41,0c-.15.48-.4.71-.92.45-.13-.06-.42-.08-.46,0-.36.55-.71.17-1.07,0-.89-.33-1.78-.68-2.69-1C24.85,82.71,25.06,82.48,25.15,82.22Z"/><path class="cls-18" d="M22.64,81.56l2.05.58C23.79,82.86,22.84,82.59,22.64,81.56Z"/><path class="cls-12" d="M19.68,81l1.88.46c-.71.76-.84.75-1.88-.14Z"/><path class="cls-9" d="M19.68,81v.32c-.54-.35-1.48-.12-1.56-1.11Z"/><path class="cls-18" d="M31.44,83.39l.91.25-.49.44Z"/><path class="cls-18" d="M32.81,83.66l.33,0-.18.19Z"/><path class="cls-2" d="M44.06,99l-.31-.16Z"/><path class="cls-8" d="M52.2,91.14c-.46-.55-.93-1.08-1.38-1.64-.08-.09-.06-.27-.07-.41l-.09-.8-.82.1-.3.08L49.39,88l-.47-.45-1-.71c-.16-.1-.35-.17-.52-.26v-.77l.47-.16h1.55l-.21-.57-.11.2-1.39-.39-.17-.48c1.24-.43,1.24-.43,1-1.26l.62,0c.08,1.36.29,1.71.92,1.63v-.86a2.32,2.32,0,0,1,.7.07c.37.14.86.25.44,1l.83-.24-.22-1.82.61,0c0,1.11,0,1.12,1,1l.43.77.85-1.37.34.14-.18,1.17.88.3c0-.22,0-.32,0-.36-.35-.28-.44-.64-.07-.89a1.3,1.3,0,0,1,.93-.15,5.71,5.71,0,0,1,1,.48c.38.17.78.3,1.32.5l-.51-1,.13-.08.44.33c.26-.2.46-.48.64-.47a13.61,13.61,0,0,1,1.92.24,5.46,5.46,0,0,1,.73.28l-.74.4s0,.08-.11.27l1.48-.23-.24-.13.14-1.53h0l.33-.4,1.23-.19c-.18.26-.35.53-.59.89.56-.17,1-.29.92-.91l4.22-1.25c-.33.34-.67.67-1,1s-.38.45-.57.68a2.94,2.94,0,0,0-1,.2c-.77.49-1.5,1.05-2.22,1.6-.11.08-.14.26-.21.4l-.31-.76a3.21,3.21,0,0,0-.23.38c-.25.62-.61.76-1.31.6A5.41,5.41,0,0,0,60,84.9c-.21,0-.4.26-.68.47.47.12.85.11,1,.29.61.55,1.16.63,1.72,0,.37.17.68,1,1,.08l.71.26.43-1.39L66,84.41c.15,0,.38,0,.42-.1.33-.64.91-.53,1.45-.53a7,7,0,0,1,1.26-.5c.23,0,.72.17.72.26a8.35,8.35,0,0,1-.19,1.94,1.78,1.78,0,0,0,.55,1.9,8.21,8.21,0,0,0-1.06.77,5.85,5.85,0,0,0-.66.94,3.31,3.31,0,0,0-.55.5,2.45,2.45,0,0,1-2.2,1.3,6.27,6.27,0,0,0-2.06.77,1.64,1.64,0,0,1-.53.09c-.87,0-1.78-.12-2.46.62l-.8.15h-.6a6.21,6.21,0,0,0-.86,0c-.4,0-.8.09-1.2.15-.1-.26-.15-.67-.33-.73-1.29-.49-2.61-.91-3.92-1.35C52.43,90.39,52.15,90.55,52.2,91.14Zm3.24-1.56h-.22c.12.24.18.59.38.7.46.26.93.44.9,1.09,0,.06.23.2.29.18.58-.23,1.14-.49,1.71-.74l0-.29-.89-.35-.5,1a5.09,5.09,0,0,0-.65-1.06A4.85,4.85,0,0,0,55.44,89.58Zm-.58,1.11.08-.23-.6-.19a1.27,1.27,0,0,0-.06.18C54.47,90.54,54.67,90.61,54.86,90.69Z"/><path class="cls-1" d="M57.2,92.65c.4-.06.8-.13,1.2-.15a6.21,6.21,0,0,1,.86,0,4.79,4.79,0,0,1-.46.71c-.09.11-.37.22-.42.17-.79-.74-1.67-.17-2.49-.16a35.53,35.53,0,0,0-3.56.27c-.27,0-.54.17-.81.22l-2,.37v-.47L50,93c.68.15,1.33.41,2-.09.14-.1.48,0,.72.07h1.08l.47-.13.31,0c.71.32,1.36-.07,2-.16Z"/><path class="cls-1" d="M45.64,94.11l3.6-.17.31.16-.22.6a1.65,1.65,0,0,1-.6-.27.76.76,0,0,0-1.16-.08.65.65,0,0,1-.4.17,9.55,9.55,0,0,1-1.31-.15C45.77,94.36,45.71,94.2,45.64,94.11Z"/><path class="cls-1" d="M59.86,92.52l.8-.15C60.48,92.88,60.17,92.74,59.86,92.52Z"/><path class="cls-5" d="M66,93.83s0-.11.06-.12.08,0,.13.05,0,.11-.06.12S66.07,93.85,66,93.83Z"/><path class="cls-19" d="M59.59,47.48c.76,1.36,1.53,2.71,2.27,4.08.5.93,1,1.88,1.45,2.82l-1.2-.29c.17.53.51,1.06-.19,1.38C61,53.59,60,51.71,59,49.82c-.52-1-1-2.06-1.53-3.09L59,46.38h0l.33.61,0,0,.23.16a2.47,2.47,0,0,1,.1.29l-.12.13Z"/><path class="cls-6" d="M63.43,76.5l-2.15-.39-.73-1c.49-.43.77-.36,1.24.14a1.77,1.77,0,0,0,1.05.51C63.38,75.82,63.55,76,63.43,76.5Z"/><path class="cls-7" d="M55,72.61l1.07,0v1l.94-.16-.15,1.1h0l-1.41-.94Z"/><path class="cls-6" d="M62.21,73.16l2,.33c-.11.34-.22.69-.32,1l-.18,0-.23-.7-.85.29Z"/><path class="cls-13" d="M58.31,75.8l-1.89-.37.48-.87h0l.55.43c.56.35,1.5-.11,1.81.93l-.48-.11-.27-.29Z"/><path class="cls-13" d="M57.05,73.46l-.94.16v-1l1.42.23Z"/><path class="cls-6" d="M60.66,73.13l1.25,0c-.14.54-1,.86-1.38.49C60.46,73.59,60.61,73.31,60.66,73.13Z"/><path class="cls-6" d="M64.72,76.74l-.94-.16.55-.72a1.88,1.88,0,0,1,.37.43A1.11,1.11,0,0,1,64.72,76.74Z"/><path class="cls-13" d="M59.81,73.61a5.16,5.16,0,0,1-.6.43s-.27-.23-.25-.26a1.07,1.07,0,0,1,.38-.41C59.4,73.34,59.57,73.48,59.81,73.61Z"/><path class="cls-13" d="M58.16,72.82l.46.14-.18.78-.23,0Z"/><path class="cls-11" d="M48.41,40.65l-.26.29-.31,0-.31-1.36.33-1.26c.22-.24.68-.53.64-.7-.17-.68.25-1,.66-1.19-.21-.3-.5-.53-.53-.78-.07-.69,0-1.39,0-2.09a7.55,7.55,0,0,0-.13-.83,5.24,5.24,0,0,1-.16-1.22c.1-.91.38-1.81.39-2.72A10.75,10.75,0,0,1,49,25.89c.22-.75-.16-1.57,0-2.44.34-1.94.42-3.92.58-5.89,0-.33-.19-.81,0-1,.72-.78.38-1.72.47-2.57.15-1.55.14-3.11.2-4.66.1-.49.23-.94.78-.75a11.6,11.6,0,0,0,.92-1.46c.16-.36.3-.39.68-.39a2.64,2.64,0,0,0,1.23-.38c.92-.48.44-1.21.28-1.88.33-.56.82-.37,1.18-.13a8.23,8.23,0,0,1,1.11,1.1l.45,1.19.49-1.52c.2-.22.38-.61.6-.63.71-.08,1-.55,1.2-1.09l.23-.12-.23-.2h0V2.62l.15-.15.63-.33,1.25.18a8.2,8.2,0,0,1,.29,1.16,7,7,0,0,1,0,1.12l-.31.14L60.89,4l-.24.17-.26.54h-.78l-.12.15a4.31,4.31,0,0,1,1.86,2.19c1,0,.82,0,1.12,1.06a1.86,1.86,0,0,1-.81,2.25,4.38,4.38,0,0,1-1.63.37l-.09-.59c-.43.36-.47.59.09.59,0,.45-.16,1.11.73.85,0,0,.22.42.16.49a12.22,12.22,0,0,1-1,1l-.18-.41a1.86,1.86,0,0,0-2.57-.82c-.48.44-.9.93-1.24,1.28l.85,1.43c.1.18.2.36.29.55a.89.89,0,0,0,1.27.5c.35-.14.73-.23,1.1-.34l.27.9a7.15,7.15,0,0,1,.7-.53,3.86,3.86,0,0,1,.6-.21h0l.5,1-.33.79-.33-.72c-.53.57,0,.75.18,1-.18.44-.25,1-.58,1.3a1.67,1.67,0,0,0-.47,2.35,2.72,2.72,0,0,1-.22,3.07l-.73.68-1.23.06-1-.63L56,25.46a2.15,2.15,0,0,0-.73.11c-.42.22-.72.3-.88-.28a1.1,1.1,0,0,0-.21-.33,7.57,7.57,0,0,0-1,.35,8.86,8.86,0,0,1-1.17.75,2.3,2.3,0,0,0-1.58,2.77c.09.3.42.54.64.8l.47-.7.9.3-.07.2h-.62c.6.89,1.45.53,2.22.55l.22,1.07-.91.51.63.41c-.08.36-.13.66-.22,1a2.27,2.27,0,0,1-.37.8,6.36,6.36,0,0,0-1.59,3.69,2.78,2.78,0,0,1-1,1.9c-.51.41-.85,1.28-1.81.9C48.77,40.18,48.56,40.5,48.41,40.65Zm2.33-23c-.22,1.35-.13,1.57.86,2.22a2.89,2.89,0,0,1,.68.49c.34.41.64.31,1,.05.68-.46.61-1.21.78-1.87a1.49,1.49,0,0,0-1.58-2c-.49,0-.83.11-.87.62S51.28,17.84,50.74,17.63Zm2.15-4.7c.57,0,1,0,1.39,0a.9.9,0,0,0,.6-.26,14.14,14.14,0,0,0,.7-1.41A5.56,5.56,0,0,0,54.75,10a2.6,2.6,0,0,0-2.9.3,1.86,1.86,0,0,0-.05,1.55C52,12.37,52.62,12.68,52.89,12.93Z"/><path class="cls-5" d="M61.46,16.41l-.5-1,.81.49Z"/><path class="cls-5" d="M61,17.48c-.21-.25-.71-.43-.18-1l.33.72Z"/><path class="cls-7" d="M63.31,27.29l-.44.09-.18-.55.18-.12Z"/><path class="cls-14" d="M47.86,38.29c-.17-2.24-.45-4.48-.49-6.73,0-3.29,0-6.59.17-9.87.23-4.59.62-9.16.94-13.75.49,0,1.07-.05,1.11.73,0,.07.27.13.42.2s.11.32.17.48c-.06,1.55,0,3.11-.2,4.66-.09.85.25,1.79-.47,2.57-.16.17.06.65,0,1-.16,2-.24,4-.58,5.89-.15.87.23,1.69,0,2.44a10.75,10.75,0,0,0-.27,2.87c0,.91-.29,1.81-.39,2.72a5.24,5.24,0,0,0,.16,1.22,7.55,7.55,0,0,1,.13.83c0,.7,0,1.4,0,2.09,0,.25.32.48.53.78-.41.24-.83.51-.66,1.19C48.54,37.76,48.08,38.05,47.86,38.29ZM49.28,9.45s.06-.1,0-.13-.08,0-.13-.06-.06.1-.05.13S49.23,9.43,49.28,9.45Z"/><path class="cls-20" d="M50.18,9.35c-.06-.16-.12-.32-.17-.48.11-.46.21-.93.32-1.4V7a5.24,5.24,0,0,1,.78-1.16,1.41,1.41,0,0,1,1-.17c.12,0,.2.38.36.7l.66-.14a3,3,0,0,0-.23-.74c-.32-.55-.21-.77.46-.84a6.52,6.52,0,0,0,.74-.16c.16.67.64,1.4-.28,1.88a2.64,2.64,0,0,1-1.23.38c-.38,0-.52,0-.68.39A11.6,11.6,0,0,1,51,8.6C50.41,8.41,50.28,8.86,50.18,9.35Z"/><path class="cls-21" d="M45.79,2.44H44.71l-.48-.59v-.3l1.52.25L46.05.61l.38,0V2Z"/><path class="cls-22" d="M48.49,6.06l-.18-.17.31-.61a3.84,3.84,0,0,1,.59-.11c.26,0,.61-.08.77.06s.08.49,0,.74a1.87,1.87,0,0,1-.25.47Z"/><path class="cls-23" d="M57.3,5.13l-.49,1.52-.45-1.19Z"/><path class="cls-6" d="M49.24,2.61l-1.11-.06c-.11-.35-.21-.69-.35-1.16Z"/><path class="cls-8" d="M50.33,7v.47l-.78.27-.13-.53Z"/><path class="cls-6" d="M48.62,5.28l-.31.61-.49,0C47.81,5.28,48.2,5.27,48.62,5.28Z"/><path class="cls-6" d="M49.85,1.93l-.61.38-.14-.19.58-.46Z"/><path class="cls-6" d="M45.79,2.44,46.42,2l.16.45Z"/><path class="cls-5" d="M59.09,2.62v.46l-.63,0Z"/><path class="cls-6" d="M49.86,3.57l.47,0L50.07,4Z"/><path class="cls-6" d="M51.2,1.1l.45,0v.18l-.46,0Z"/><path class="cls-6" d="M49.08,3.58l.47,0-.26.29Z"/><path class="cls-6" d="M47.67,2.48h-.31l.12-.25Z"/><path class="cls-5" d="M59.1,3.09l.23.2-.23.12Z"/><path class="cls-24" d="M70.18,87.38a1.78,1.78,0,0,1-.55-1.9,8.35,8.35,0,0,0,.19-1.94c0-.09-.49-.31-.72-.26a7,7,0,0,0-1.26.5l.66-1.13,1.91-.14.18-.93c.57.18,1,.41.78,1.08a5,5,0,0,0-.24,2.69c.15.59.1,1-.38,1Z"/><path class="cls-24" d="M63.77,84.57c.07-.14.1-.32.21-.4.72-.55,1.45-1.11,2.22-1.6a2.94,2.94,0,0,1,1-.2l.45,1L66.3,83,66,84.41l-1.72.16Z"/><path class="cls-8" d="M69.84,80.32l0-.45.6.1v.26Z"/><path class="cls-4" d="M70.48,78.42l-.47.19-.1-.2.46-.26Z"/><path class="cls-8" d="M69.41,80.48l.31-.13,0,.48Z"/><path class="cls-4" d="M40.32,5.57,38,5.47c-.2-.34-.4-.56-.63,0H35.94l-.3.16L34.4,5.31l-.64-.65c0-1.05,0-1,1.13-1,.13,0,.28-.18.43-.28a2.37,2.37,0,0,1,2.44.67c.15.15.46.15.71.17a1.8,1.8,0,0,1,.7.09L38,4.86l.07.28A6.37,6.37,0,0,0,39,5,1,1,0,0,1,40.32,5.57Z"/><path class="cls-4" d="M34.23,2.62l-.48.16,0-.53.15-.13Z"/><path class="cls-11" d="M66.75,3.41H66c-.08.13-.14.38-.3.47-.54.31-.53.68-.27,1.16.17.33.3.69.45,1l-.33.77c-.87.41-1.55-.28-2.33-.42a3.56,3.56,0,0,1-.82-.37L63,4.61c-1.23-.82-1.23-.82-.78-2.69a3.28,3.28,0,0,1,.85.55.62.62,0,0,0,.93.18,2.4,2.4,0,0,1,2-.17,6.08,6.08,0,0,0,1.22.15C67.06,2.89,66.91,3.15,66.75,3.41Z"/><path class="cls-1" d="M59.4,15.29c-.37.11-.75.2-1.1.34a.89.89,0,0,1-1.27-.5c-.09-.19-.19-.37-.29-.55l-.85-1.43c.34-.35.76-.84,1.24-1.28a1.86,1.86,0,0,1,2.57.82l.18.41-.16.31v.32l-.15.62.15.32V15l-.31.31Z"/><path class="cls-11" d="M59.4,15.29l.31-.31Z"/><path class="cls-11" d="M59.71,13.73v0Z"/><path class="cls-11" d="M59.71,14.67l-.15-.32Z"/><path class="cls-7" d="M29.21,74.37a60.79,60.79,0,0,1,6.09-1c1.19-.07,2.32-.37,3.47-.49,2.07-.22,4.16-.26,6.24-.37l-.07.83c.23.11.61.18.65.34.21.74.83.71,1.46.78v.73l-4.37,0c-2.23.19-4.47.37-6.7.59-.16,0-.29.29-.43.44h0a6.91,6.91,0,0,0-1.42-.14c-1.48.18-2.94.44-4.41.66.1-.39,0-.88.54-1.07.18-.06.3-.33.44-.51l-.7,0h0C30.21,74.45,29.44,74.67,29.21,74.37Z"/><path class="cls-7" d="M30,75.18l0,.07,0-.07Z"/><path class="cls-10" d="M77.38,68.28v0Z"/><path class="cls-15" d="M33.76,4.66l.64.65c.11.45.21.89.36,1.48L35.47,6v0c0,.92,0,1.83,0,2.74a15.83,15.83,0,0,0,.28,1.79c-.15.17-.41.33-.44.53-.08.51-.07,1-.1,1.57l-.19.15c-.34-.36-.82-.68-1-1.11s.21-.8.37-1.31l-.53-.16.15-.78-.15-.62c-.52-.67-1.05-1.3-2-1l-1-.31-.08.32.62.16v.31l-.31.31-.16.16-1.23-.16c.23-1-.45-2.07-1.29-2a10.21,10.21,0,0,0-2,.37.75.75,0,0,0-.6,1c.07.39-.34.85-.54,1.29.07-.48-.13-.7-.62-.62l-.94-1.88,1-.65-.52-.66L25.48,5c.16-.09.4-.15.45-.28.28-.66.75-.75,1.38-.59a7,7,0,0,1,1.14.19,4.51,4.51,0,0,1,.92.69c.1.11.21.21.32.31L30,4.82h.93c.1.14.27.27.3.43.08.53.4.57.83.46l-.19-.57.79-.77h.15Z"/><path class="cls-4" d="M31.88,5.13l.19.57c-.43.11-.75.07-.83-.46,0-.16-.2-.29-.3-.43l-.3-.8.17-.14C31.15,4.31,31.89,4.33,31.88,5.13Z"/><path class="cls-4" d="M30.16,4.81H30l-1.23-.93C29.27,3.49,29.89,3.93,30.16,4.81Z"/><path class="cls-4" d="M32.82,4.35h-.15l-.41-.09L32.35,4Z"/><path class="cls-4" d="M29.69,5.28c-.11-.1-.22-.2-.32-.31C29.47,5.08,29.58,5.18,29.69,5.28Z"/><path class="cls-21" d="M23.75,6.85c.32.62.63,1.25.94,1.88l.34.63.26.32,0,.75-1.72-.15c-1.46-1.24-2-3.06-2.84-4.67V5.44c-.25-.56-.18-.83.53-.69a8.28,8.28,0,0,0,1.24.07c-.38-1.37.68-.4,1-.66l-.42.65v.94l.46.63h.16Z"/><path class="cls-15" d="M23.13,5.75V4.81l1-.15Z"/><path class="cls-15" d="M23.75,6.38h-.16L23.7,6l.15,0Z"/><path class="cls-14" d="M66.75,4.51l-1.1.37-.12-.35,1-.35Z"/><path class="cls-6" d="M76.09,68.36s.11,0,.13.06,0,.08,0,.13-.12,0-.13-.06S76.07,68.4,76.09,68.36Z"/><path class="cls-5" d="M59.87,2.14l-.63.33c.14-.26.27-.51.5-.92Z"/><path class="cls-6" d="M44.23,1.84l.48.59-1.26,0Z"/><path class="cls-21" d="M45.49,1.06c-.16.24-.31.51-.47,0Z"/><path class="cls-4" d="M74.4,40.32c0-.14.06-.27.08-.4C74.45,40.05,74.43,40.18,74.4,40.32Z"/><path class="cls-4" d="M75.61,41.17c-.12,0-.19.06-.24,0s-.07-.11-.1-.17.11-.06.14,0A1,1,0,0,1,75.61,41.17Z"/><path class="cls-19" d="M35.55,76.28h0l3.29-.37,1.36-.13,2.45-.26c1,.13,2.05.3,3.07.37,2.26.16,4.54.14,6.78.43a19.09,19.09,0,0,1,4,1.26c.63.23.69,1.27.18,1.87a6.33,6.33,0,0,1-4.36,2.29c-2.11.22-4.21.62-6.32.81-1.6.15-3.22.11-4.83.11-1.42,0-2.85-.06-4.27-.14-1.14-.07-2.28-.17-3.41-.32a9.81,9.81,0,0,1-3.92-2c-.22-.15-.43-.69-.34-.84.29-.41.27-1.19,1.12-1.07.65.09,1.32.09,2.06.13-.09,1.22-1.27.29-1.79,1a4.43,4.43,0,0,0,2.09.95c2.35.21,4.69.53,7,.59,2.56.06,5.12,0,7.67-.24a58.6,58.6,0,0,0,5.88-.84,3,3,0,0,0,1.32-.73c.31-.27-.34-1-1-1.09-1.21-.09-2.43-.15-3.65-.2-1.44,0-2.89-.06-4.44-.1.07-.09,0,0,0,0,.14,1.11.15,1.13-1,1.31a20.62,20.62,0,0,1-3.72.49,40.38,40.38,0,0,1-5-.61,1.29,1.29,0,0,1-1.1-1.81C34.86,76.75,35.26,76.54,35.55,76.28Zm7.77,1.14a11,11,0,0,0-6.44.31A14,14,0,0,0,43.32,77.42Z"/><path class="cls-4" d="M47.05,75.2v-.73c-.63-.07-1.25,0-1.46-.78,0-.16-.42-.23-.65-.34l.07-.83,1.08-.07-.4.81c.39,0,.67,0,1,.1s.4.1.61.15l0-.22L46.8,73l.08-.22c.29.06.68,0,.84.21a3.64,3.64,0,0,1,.48,1h-.46c.11.23.35.41.43.35.61-.4,1.2-.85,1.86-1.34.35.22.73.12.93-.5l1.87-.16-.47,1.09c.62-.62,1.09-.15,1.58,0s1,.7,1.55.13l1.41.94-.48.87h-.91c-.12-.19-.24-.52-.37-.53-.5,0-1.1-.2-1.37.47l-1.24-.07c0-.32-.06-.63-.1-1.13l-.7,1.12h-.3c-.52-.39-1-1-1.58-1.1s-1.16.45-1.63.66l-.06.43Z"/><path class="cls-3" d="M62.69,82.53l-.14,1.53.24.13-1.48.23c.08-.19.08-.25.11-.27l.74-.4a5.46,5.46,0,0,0-.73-.28,13.61,13.61,0,0,0-1.92-.24c-.18,0-.38.27-.64.47l-.44-.33-.13.08.51,1c-.54-.2-.94-.33-1.32-.5a5.71,5.71,0,0,0-1-.48,1.3,1.3,0,0,0-.93.15c-.37.25-.28.61.07.89,0,0,0,.14,0,.36l-.88-.3.18-1.17-.34-.14-.85,1.37-.43-.77c-.91.12-.92.11-1-1,2-.11,3.91-.19,5.87-.34,1.33-.1,2.66-.28,4-.43Z"/><path class="cls-3" d="M51.75,82.89,52,84.71l-.83.24c.42-.72-.07-.83-.44-1a2.32,2.32,0,0,0-.7-.07v.86c-.63.08-.84-.27-.92-1.63Z"/><path class="cls-23" d="M42.65,75.52l-2.45.26-1.36.13-3.29.37c.14-.15.27-.42.43-.44,2.23-.22,4.47-.4,6.7-.59Z"/><path class="cls-7" d="M48.16,75.28l.06-.43c.47-.21,1.09-.73,1.63-.66s1.06.71,1.58,1.1Z"/><path class="cls-6" d="M48.46,83.16c.28.83.28.83-1,1.26,0-.1,0-.2,0-.3l.27-.52-.56-.32Z"/><path class="cls-13" d="M53.77,75.37c.27-.67.87-.49,1.37-.47.13,0,.25.34.37.53Z"/><path class="cls-8" d="M47.19,83.28l.56.32-.27.52-.9-.8Z"/><path class="cls-7" d="M51.73,75.29l.7-1.12c0,.5.07.81.1,1.13Z"/><path class="cls-3" d="M64.57,81.92c.07.62-.36.74-.92.91.24-.36.41-.63.59-.89Z"/><path class="cls-8" d="M62.69,82.53l-.46-.43h.45v.44Z"/><path class="cls-4" d="M58.31,75.8l.2-.28.27.29Z"/><path class="cls-3" d="M62.68,82.53v-.44l.33,0Z"/><path class="cls-17" d="M47.67,84.9l1.39.39.11-.2.21.57H47.83Z"/><path class="cls-17" d="M47.36,85.82v.77l-.75-.36Z"/><path class="cls-17" d="M48.92,87.56l.47.45Z"/><path class="cls-17" d="M46.69,91.19c.05,0,.11,0,.13.06s0,.11-.06.12a.13.13,0,0,1-.12-.05S46.67,91.23,46.69,91.19Z"/><path class="cls-10" d="M54.55,92.81l-.31,0-.47.13h-.31c-.1-.36-.21-.72-.32-1.07l-.31-.16.1-.62H52.2c-.05-.59.23-.75.75-.57,1.31.44,2.63.86,3.92,1.35.18.06.23.47.33.73h-.61c-.32-.88-.68-.15-1,0C54.9,92.29,54.9,92.29,54.55,92.81Z"/><path class="cls-8" d="M53.14,91.92c.11.35.22.71.32,1.07h-.77Z"/><path class="cls-8" d="M52.2,91.14h.73l-.1.62Z"/><path class="cls-2" d="M49.55,94.1l-.31-.16.31-.31Z"/><path class="cls-7" d="M63.77,84.57h.48c-.13.44-.27.87-.43,1.4l-.71-.26c-.34.94-.65.09-1-.08-.56.66-1.11.58-1.72,0-.19-.18-.57-.17-1-.29.28-.21.47-.44.68-.47a5.41,5.41,0,0,1,1.91-.11c.7.16,1.06,0,1.31-.6a3.21,3.21,0,0,1,.23-.38Z"/><path class="cls-10" d="M55.44,89.58a4.85,4.85,0,0,1,1,.57,5.09,5.09,0,0,1,.65,1.06l.5-1,.89.35,0,.29c-.57.25-1.13.51-1.71.74-.06,0-.29-.12-.29-.18,0-.65-.44-.83-.9-1.09-.2-.11-.26-.46-.38-.7Z"/><path class="cls-10" d="M54.86,90.69c-.19-.08-.39-.15-.58-.24a1.27,1.27,0,0,1,.06-.18l.6.19Z"/><path class="cls-8" d="M54.55,92.81c.35-.52.35-.52,1-.18.35-.13.71-.86,1,0C55.91,92.74,55.26,93.13,54.55,92.81Z"/><path class="cls-8" d="M53.77,93l.47-.13Z"/><path class="cls-12" d="M56,25.46l.77-1.15,1,.63L59,24.88l-2.87,4.67a4.6,4.6,0,0,0-.37.6c-1.4,3.16-2.77,6.34-4.2,9.49a2.53,2.53,0,0,1-1,1,11.19,11.19,0,0,1-1.65.74l-.5-.75c.15-.15.36-.47.43-.44,1,.38,1.3-.49,1.81-.9a2.78,2.78,0,0,0,1-1.9,6.36,6.36,0,0,1,1.59-3.69,2.27,2.27,0,0,0,.37-.8c.09-.29.14-.59.22-1l-.63-.41.91-.51c-.07-.33-.14-.7-.22-1.07.17-.44.36-.87.49-1.31.33-1.09.14-2.43,1.52-3C56,25.65,56,25.54,56,25.46Z"/><path class="cls-5" d="M40.8,37l.09.61c-.12.4-.25.8-.35,1.2s.09.74.61.66l.14.17-.83,1.7-1,.45-.77-1.13c.16-.43.36-.84-.11-1.26A5.73,5.73,0,0,1,37,36.68c-.07-.24-.39-.4-.59-.59l-.26-.18L36,35.3,35.81,35l-.16-.46a1.45,1.45,0,0,0,0-.35c-.31-1.55-.63-3.11-.95-4.66l1,1.68-.28.63.2,0c.1.29.21.57.32.85a.63.63,0,0,0,.16.25A1.46,1.46,0,0,0,38,32.71a2.5,2.5,0,0,1,.39-.23v2.21c1,.41,1.62.56,1.65,2.26,0,.18.21.36.36.6Z"/><path class="cls-7" d="M23.61,10.28l1.72.15.29,0-.39,1,.73-.07c.1.07.24.12.29.22.67,1.26,1.33,2.51,2,3.78s1.28,2.66,1.91,4c0,.12,0,.28.1.36a5.57,5.57,0,0,1,1.5,2.75l.13.51-.71-.35-.67.63c-.44-.78-.92-1.55-1.31-2.36-.84-1.72-1.57-3.49-2.45-5.19s-1.8-3.07-2.7-4.61C23.86,10.84,23.75,10.55,23.61,10.28Z"/><path class="cls-4" d="M30.48,23.26l.67-.63.71.35c-.06-.25-.1-.38-.13-.51l.78-.14h0l-.38,1.26c0-.17,0-.11,0-.08.36.46.34,1.43,1.36,1,0,0,.29.31.25.39-.31.68.13,1.18.39,1.73.06.13,0,.29.08.43.15.54.33,1.08.49,1.61,0,.26,0,.52.07.79.32,1.55.64,3.11.95,4.66a1.45,1.45,0,0,1,0,.35c-.4-1-.76-1.92-1.2-2.86-1.26-2.68-2.56-5.35-3.85-8C30.55,23.51,30.52,23.39,30.48,23.26Z"/><path class="cls-7" d="M40.46,41.36l.83-1.7c1.09.23,2.16.7,3.32.36.16-.05.37.1.56.15l-.31.76c.49.38,1.33-.23,1.42.72-.39.09-.77.19-1.16.26-.15,0-.31-.06-.46,0A10,10,0,0,1,40.46,41.36Z"/><path class="cls-7" d="M51,72.53c-.2.62-.58.72-.93.5-.66.49-1.25.94-1.86,1.34-.08.06-.32-.12-.43-.35h.46a3.64,3.64,0,0,0-.48-1c-.16-.18-.55-.15-.84-.21L46.8,73l.5.31,0,.22c-.21-.05-.4-.12-.61-.15s-.56-.06-1-.1l.4-.81,2.69,0h.44Zm-1.84.87s.06-.09.05-.12-.08,0-.12-.06-.07.09,0,.12S49.08,73.39,49.12,73.4Z"/><path class="cls-22" d="M46.28,41.65c-.09-.95-.93-.34-1.42-.72l.31-.76a9.79,9.79,0,0,1,1.34-.66,3.21,3.21,0,0,1,1,0c.1.45.2.91.31,1.36v.16Z"/><path class="cls-10" d="M36.42,36.09c.2.19.52.35.59.59a5.73,5.73,0,0,0,1.58,2.74c.47.42.27.83.11,1.26a6.9,6.9,0,0,1-1-1.26c-.52-1-.93-2.12-1.38-3.18Z"/><path class="cls-13" d="M55.49,73.62c-.56.57-1.05,0-1.55-.13s-1-.65-1.58,0l.47-1.09,2.21.24Z"/><path class="cls-4" d="M49.22,72.49h0Z"/><path class="cls-4" d="M36.42,36.09l-.14.15-.12-.33Z"/><path class="cls-4" d="M35.81,35l.16.32Z"/><path class="cls-12" d="M47.83,41.07v-.16l.31,0Z"/><path class="cls-4" d="M59.28,47,59,46.39Z"/><path class="cls-4" d="M59.48,47.18,59.25,47Z"/><path class="cls-4" d="M59.59,47.48l-.13.12.12-.13Z"/><path class="cls-1" d="M56,25.46c0,.08,0,.19-.07.21-1.38.57-1.19,1.91-1.52,3-.13.44-.32.87-.49,1.31-.77,0-1.62.34-2.22-.55h.62l.07-.2-.9-.3-.47.7c-.22-.26-.55-.5-.64-.8a2.3,2.3,0,0,1,1.58-2.77,8.86,8.86,0,0,0,1.17-.75,7.57,7.57,0,0,1,1-.35,1.1,1.1,0,0,1,.21.33c.16.58.46.5.88.28A2.15,2.15,0,0,1,56,25.46Z"/><path class="cls-1" d="M50.74,17.63c.54.21.84.1.88-.48s.38-.64.87-.62a1.49,1.49,0,0,1,1.58,2c-.17.66-.1,1.41-.78,1.87-.37.26-.67.36-1-.05a2.89,2.89,0,0,0-.68-.49C50.61,19.2,50.52,19,50.74,17.63Z"/><path class="cls-1" d="M52.89,12.93c-.27-.25-.86-.56-1.09-1a1.86,1.86,0,0,1,.05-1.55,2.6,2.6,0,0,1,2.9-.3,5.56,5.56,0,0,1,.83,1.21,14.14,14.14,0,0,1-.7,1.41.9.9,0,0,1-.6.26C53.88,13,53.46,12.93,52.89,12.93Z"/><path class="cls-5" d="M60,10.76c-.56,0-.52-.23-.09-.59l.09.59Z"/><path class="cls-25" d="M34.67,28.72c-.16-.53-.34-1.07-.49-1.61,0-.14,0-.3-.08-.43-.26-.55-.7-1.05-.39-1.73,0-.08-.21-.4-.25-.39-1,.38-1-.59-1.36-1,0,0,0-.09,0,.08l.38-1.26,0-.06,0,.06-.78.14a5.57,5.57,0,0,0-1.5-2.75c-.08-.08-.07-.24-.1-.36,1.3-.19,1.54-.15.87-1.41-.08-.15-.14-.31-.21-.47l1.32-.23a5.16,5.16,0,0,1,.19-.71c.51-1.19.28-1.88-.8-2.45-.07,0-.07-.23-.1-.36l.72-.39.86.28c-.08-.48-.15-.82-.19-1.17s.08-.59,0-.65a1.77,1.77,0,0,0-.86-.18,1.79,1.79,0,0,0-.59.22l-1-1.22.76-.8.59.08-.52.75a8.7,8.7,0,0,0,1.4.4c.6.06,1.16-.07,1.35-.77l.53.16c-.16.51-.48,1-.37,1.31s.63.75,1,1.11l.19-.15c0-.52,0-1.06.1-1.57,0-.2.29-.36.44-.53.11.67.24,1.34.33,2,.07.53,0,1.07.15,1.58a21.4,21.4,0,0,0,.68,2.37,12.77,12.77,0,0,0,.7,1.38,47.66,47.66,0,0,1,1.29,8.73l.31,1.43,0,.78c-.08.34-.41.73.2.91,0,.11,0,.21.05.31-.12.26-.23.53-.36.79s-.42.76-.62,1.15c0-.71.59-1.64-.85-1.78.77-.88-.05-.64-.41-.69A1.66,1.66,0,0,1,37.4,29c.31-.42.26-.85-.23-.84s-1.12-.71-1.25.37c0,.23-.28.45-.48.61,0,.05-.3-.15-.45-.25Zm2-4.79a15.52,15.52,0,0,1-.2-2.51c.05-.68-.13-1.23-.68-1.45a2,2,0,0,0-2.06,0c-.5.36-.79.7-.37,1.39.21.36.49,1.06-.34,1.33-.1,0-.12.32-.24.69l.84-.56,0,.25Z"/><path class="cls-4" d="M37.64,18a12.77,12.77,0,0,1-.7-1.38,21.4,21.4,0,0,1-.68-2.37c-.11-.51-.08-1.05-.15-1.58-.09-.68-.22-1.35-.33-2a15.83,15.83,0,0,1-.28-1.79c-.06-.91,0-1.82,0-2.74l.67-.36a7.59,7.59,0,0,1,.59,1.65c.34,3.27.63,6.54.93,9.81A6.77,6.77,0,0,1,37.64,18Z"/><path class="cls-4" d="M38.48,32.06c.2-.39.42-.76.62-1.15s.24-.53.36-.79c.45,2.3.89,4.6,1.34,6.9l-.36.53c-.15-.24-.36-.42-.36-.6,0-1.7-.61-1.85-1.65-2.26V32.48C38.44,32.34,38.46,32.2,38.48,32.06Z"/><path class="cls-24" d="M39.24,28.12l-.31-1.43c.15-.1.41-.18.45-.31.17-.72.85-.62,1.23-.58s.69.54.93.9.13.54.62.45c.22,0,.53.38.78.57-.16.86-.83,1.08-1.47,1.23-.15,0-.43-.48-.59-.68Z"/><path class="cls-20" d="M44.09,8.08c.72,1.06.3,1.93-1,2-.14,0-.41-.23-.43-.39a7.75,7.75,0,0,1,.07-1.06c0-.2,0-.49-.09-.59-.57-.48-.14-.93.08-1.3a1.19,1.19,0,0,1,.86-.47.88.88,0,0,1,.74,1.43A3.18,3.18,0,0,1,44.09,8.08Z"/><path class="cls-14" d="M40.29,13.16c-.17-.58-.57-1.18-.45-1.66a1.26,1.26,0,0,1,1.54-1,1.39,1.39,0,0,1,.9.88C42.49,12.59,41.41,12.75,40.29,13.16Z"/><path class="cls-20" d="M45.39,18.1c-.65,0-.81-.31-.79-1.51,0-.54.18-.94.84-.9s1.76.72,1.73,1.23S46.24,18.11,45.39,18.1Z"/><path class="cls-24" d="M46,24.83a10.12,10.12,0,0,1-1.14.84c-.32.18-1,.4-1,.32a2.83,2.83,0,0,1-.53-1.46c0-.27.54-.65.91-.77.84-.26,1.51.16,1.54.85Z"/><path class="cls-9" d="M42.22,30.82c.24.34.75.77.84,1.28,0,.29-.53,1-.9,1-1,.15-1.43-.22-1.43-.91A1.41,1.41,0,0,1,42.22,30.82Z"/><path class="cls-15" d="M40.79,19.76c.13.36.48.85.36,1-.3.51-.5,1.25-1.32,1.21-.14,0-.39-.08-.4-.13A5.74,5.74,0,0,1,39.51,20c.07-.2.84-.18,1.29-.26Z"/><path class="cls-24" d="M39,8.36a1.49,1.49,0,0,1,.32-2.27.77.77,0,0,1,1.09.42,1.15,1.15,0,0,1-.56,1.55C39.61,8.16,39.35,8.24,39,8.36Z"/><path class="cls-24" d="M40.79,19.76h0a2.72,2.72,0,0,1,.93-2.55c.35.35.93.66,1,1.08.11.58-.42,1-1,1.18Z"/><path class="cls-16" d="M45.74,13.55c-.53-1.08-.11-2.33.8-2.33.31,0,.67.35.89.63.08.1-.11.54-.28.7C46.71,12.92,46.22,13.22,45.74,13.55Z"/><path class="cls-24" d="M46.23,35.91c.92,1.13,1,1.53.35,1.87a1.48,1.48,0,0,1-1.31-.15C44.82,37.26,45.24,36.55,46.23,35.91Z"/><path class="cls-15" d="M38.5,15c0-1,.51-1.57,1.12-1.45s.91.5.55,1.07a2.76,2.76,0,0,1-1.09.88C39,15.55,38.61,15.09,38.5,15Z"/><path class="cls-15" d="M45.61,30.29c-.71-.87-.56-1.28.78-2.17C47.15,29.34,47.09,29.52,45.61,30.29Z"/><path class="cls-16" d="M42.36,35.37a6.83,6.83,0,0,1,1.19,1.11c.1.15-.16.74-.39.85a1.6,1.6,0,0,1-1.07-.08c-.11,0-.13-.48-.09-.72A9.2,9.2,0,0,1,42.36,35.37Z"/><path class="cls-9" d="M44.09,21.62a3.39,3.39,0,0,1,0-1.17c.11-.28.48-.62.72-.61s.61.34.92.53a5.35,5.35,0,0,1-.7.91A3.47,3.47,0,0,1,44.09,21.62Z"/><path class="cls-15" d="M42.45,23.31a4,4,0,0,1,.22-1.45c.11-.21.69-.22,1-.2.12,0,.36.44.31.6C43.84,22.91,43.34,23.22,42.45,23.31Z"/><path class="cls-20" d="M43.81,31.7c0-.72-.44-1.32.2-1.73.39-.24,1-.25,1.08.32C45.27,31.13,44.46,31.22,43.81,31.7Z"/><path class="cls-24" d="M43.42,16l.5.54c-.4.27-.79.54-1.21.77,0,0-.38-.29-.36-.42C42.41,16.41,42.49,15.9,43.42,16Z"/><path class="cls-4" d="M41.15,39.49c-.52.08-.75-.13-.61-.66s.23-.8.35-1.2C41,38.25,41.06,38.87,41.15,39.49Z"/><path class="cls-4" d="M39.41,29.81c-.61-.18-.28-.57-.2-.91C39.28,29.2,39.35,29.51,39.41,29.81Z"/><path class="cls-6" d="M36.13,5.72l-.67.36V6c.06-.15.11-.3.17-.44l.3-.16Z"/><path class="cls-6" d="M37.35,5.44c.23-.53.43-.31.63,0Z"/><path class="cls-4" d="M49.28,9.45c-.05,0-.12,0-.13-.06s0-.09.05-.13.11,0,.13.06S49.3,9.41,49.28,9.45Z"/><path class="cls-23" d="M35.64,5.6c-.06.14-.11.29-.17.44l-.71.75c-.15-.59-.25-1-.36-1.48Z"/><path class="cls-17" d="M30.79,17.48c.07.16.13.32.21.47.67,1.26.43,1.22-.87,1.41-.63-1.33-1.26-2.67-1.91-4s-1.3-2.52-2-3.78c-.05-.1-.19-.15-.29-.22-.11-.31-.23-.61-.34-.91l-.29,0c0-.25,0-.5,0-.75.53.39,1,.8,1.6,1.15a1.66,1.66,0,0,0,1,.33c1.2-.19,1.66-.86,1.83-2.44l1.23.16.16.94-.76.8,1,1.22a1.79,1.79,0,0,1,.59-.22,1.77,1.77,0,0,1,.86.18c.1.06,0,.43,0,.65s.11.69.19,1.17l-.86-.28-.72.39a5.3,5.3,0,0,1-1,.3,1.15,1.15,0,0,0-1,1.43A3.83,3.83,0,0,0,30.79,17.48Z"/><path class="cls-2" d="M29.71,8.72c-.17,1.58-.63,2.25-1.83,2.44a1.66,1.66,0,0,1-1-.33c-.56-.35-1.07-.76-1.6-1.15L25,9.36h.28c.2-.44.61-.9.54-1.29a.75.75,0,0,1,.6-1,10.21,10.21,0,0,1,2-.37C29.26,6.65,29.94,7.76,29.71,8.72Z"/><path class="cls-2" d="M31.1,9.82l-.16-.94.16-.16.31-.31V8.1l.48-.17c1-.35,1.51.28,2,1l-.65.51.8.11-.15.78c-.19.7-.75.83-1.35.77a8.7,8.7,0,0,1-1.4-.4l.52-.75Z"/><path class="cls-5" d="M31.89,7.93l-.48.17-.62-.16.08-.32Z"/><path class="cls-25" d="M34.07,9.5l-.8-.11.65-.51Z"/><path class="cls-17" d="M25.31,9.35H25c-.11-.21-.22-.42-.34-.63C25.18,8.65,25.38,8.87,25.31,9.35Z"/><path class="cls-5" d="M31.41,8.41l-.31.31Z"/><path class="cls-23" d="M43.32,77.42a14,14,0,0,1-6.44.31A11,11,0,0,1,43.32,77.42Z"/><path class="cls-2" d="M38.48,32.06c0,.14,0,.28,0,.42a2.5,2.5,0,0,0-.39.23,1.46,1.46,0,0,1-1.88.18.63.63,0,0,1-.16-.25c-.11-.28-.22-.56-.32-.85l-.2,0,.28-.63-1-1.68c0-.27,0-.53-.07-.79l.32.19c.15.1.4.3.45.25.2-.16.46-.38.48-.61.13-1.08.88-.36,1.25-.37s.54.42.23.84a1.66,1.66,0,0,0-.18.57c.36.05,1.18-.19.41.69C39.07,30.42,38.5,31.35,38.48,32.06Z"/><path class="cls-21" d="M25.62,10.46c.11.3.23.6.34.91l-.73.07Z"/><path class="cls-4" d="M49.12,73.4s-.11,0-.12-.06,0-.08,0-.12.11,0,.12.06S49.14,73.36,49.12,73.4Z"/><path class="cls-2" d="M36.67,23.93l-3.08-.87,0-.25-.84.56c.12-.37.14-.66.24-.69.83-.27.55-1,.34-1.33-.42-.69-.13-1,.37-1.39a2,2,0,0,1,2.06,0c.55.22.73.77.68,1.45A15.52,15.52,0,0,0,36.67,23.93Z"/><path class="cls-2" d="M30.79,17.48a3.83,3.83,0,0,1-1.38-2,1.15,1.15,0,0,1,1-1.43,5.3,5.3,0,0,0,1-.3c0,.13,0,.32.1.36,1.08.57,1.31,1.26.8,2.45a5.16,5.16,0,0,0-.19.71Z"/><path class="cls-4" d="M32.51,22.33l0-.06,0,.06Z"/></g></svg>