<svg xmlns="http://www.w3.org/2000/svg" viewBox="0 0 100 100"><defs><style>.cls-1{fill:#89bebf;}.cls-2{fill:#9cc9ca;}.cls-3{fill:#a9cfd1;}.cls-4{fill:#6aadaf;}.cls-5{fill:#93c4c5;}.cls-6{fill:#a2cbcd;}.cls-7{fill:#7db7b9;}.cls-8{fill:#78b5b7;}.cls-9{fill:#96c5c7;}.cls-10{fill:#74b2b4;}.cls-11{fill:#99c7c8;}.cls-12{fill:#8ec1c2;}.cls-13{fill:#a5cdcf;}.cls-14{fill:#70b0b2;}.cls-15{fill:#6dafb1;}.cls-16{fill:#83bbbc;}.cls-17{fill:#52a1a3;}.cls-18{fill:#91c2c4;}.cls-19{fill:#f1f8f8;}.cls-20{fill:#e9f3f3;}.cls-21{fill:#eef6f6;}.cls-22{fill:#e1eeef;}.cls-23{fill:#67abad;}.cls-24{fill:#62a9ab;}</style></defs><g id="Ebene_3" data-name="Ebene 3"><path class="cls-1" d="M25.24,56.93l-1.55-.81-.53-.87-.68,2.47-.36.62-.95.4a1.51,1.51,0,0,1-1.11-1.92c0-.14-.22-.32-.35-.49,0-.65,0-1.3,0-2,.36-1.7.17-2.1-1-2.16l-1.38-.56-.59-.25a1.4,1.4,0,0,0-.26-.39c-.94-.81-1.89-1.6-2.85-2.39-.19-.2-.37-.42-.57-.61l-1.67-1.53c-.2-.34-.4-.67-.59-1,.09-.25.11-.61.29-.72a16.22,16.22,0,0,1,1.67-.83l.77-.05.56.61.46-1,.59.2.49.61c.21.19.4.48.66.56,1.3.41,2.68.63,3.74,2a9.92,9.92,0,0,1-4.79-.8c1,1.58,1.95,3.1,3,4.54A9.68,9.68,0,0,0,19.8,52c.28-1.45.55-2.62.71-3.8s.17-2.54.38-3.78c.15-.86.56-1.67.79-2.52s-1.21-2.35-2.12-2.25a9.1,9.1,0,0,1-1,0c-.91,0-1.73-.61-2.75-.12a4.92,4.92,0,0,1-2.2,0,.75.75,0,0,1-.48-.31c-.31-.44-.58-.9-1-1.51.27-.22.6-.73.91-.72,1.05,0,2.1.32,3.15.35a13.4,13.4,0,0,0,2.33-.3,1.5,1.5,0,0,0,2.27-.28l.53.9c.06.21.05.49.19.61a5.43,5.43,0,0,0,1.12.77,3.93,3.93,0,0,0,.85.22l0-.79-.25-.61-.32.38-1.2-.78-.18-1a3.33,3.33,0,0,1,.64.45,1.29,1.29,0,0,0,1.53.53L25.52,39c.32.38-1.24.34-.23,1a3.3,3.3,0,0,0-1,3.33,3,3,0,0,1-.1.77l-.94-.34-.62,1.1A11.62,11.62,0,0,0,23.29,46a2,2,0,0,0,.51.33,19.07,19.07,0,0,0-.75,7.14l2.79,1.14c0,.3-.06.67.08.88a4.22,4.22,0,0,0,2.83,1.95c.09-.54.2-1-.59-1.17-.26-.05-.41-.56-.75-1.06l1.38.09a5.74,5.74,0,0,0-.88-.62c-.41-.19-.85-.31-1.28-.47l1.57-1.52A11.89,11.89,0,0,0,28.9,54c.14.2.45.28.68.41a6.62,6.62,0,0,0,.09-1c0-.17-.17-.33-.27-.49.9.05.93.72.81,1.31a26.83,26.83,0,0,1-.79,2.7,5.65,5.65,0,0,0,.48.32L34,59.48l-.16,1.4H32.76a.23.23,0,0,1,0-.14l.43-.52c-.47-.3-.85-.51-1,.24h-.39l-.08-.88h-.19l-.13.49-.6-.17.66-1.38-1.45,1A9.18,9.18,0,0,1,28.65,59c-1-.56-2-1.17-2.95-1.76Z"/><path class="cls-2" d="M32.76,60.88h1.05l.16-1.4.8.37c-.53,1.11-.41,1.38.84,1.65.39.08.92-.12,1.2.07a1.88,1.88,0,0,0,2-.09c1.09.14,2.18.29,3.27.39,1.37.14,2.74.23,4.11.34l0,.46.18.57.4.39A4.93,4.93,0,0,0,48.1,64,16.15,16.15,0,0,0,50,63.69l.18.35.76-1.5c1.38-.25,2.76-.54,4.16-.74.86-.14,1.75-.15,2.62-.22l.58.87L58,63.7l-.08.48h-.32l-.85.22a11.07,11.07,0,0,1-1.35.42c-1,.19-2,.33-3,.48a8.62,8.62,0,0,1-.87.11,14.63,14.63,0,0,1-2.63.16c-1.76-.19-3.5-.53-5.25-.81l-1-.15-.61-.11-2-.28-.58-.08-1.2-.32-.8-.35-1.38-.63L35,62.24Z"/><path class="cls-2" d="M80.15,29.93c2.58-.4,5.2-.64,7.74-1.25,2.92-.69,5.78-1.7,8.67-2.55A5.47,5.47,0,0,1,97.71,26l.68.27c.62.62,1.61.95,1.58,2.06v.59c.17.81-.39,1.2-1,1.59l-1.45-.92-.83.47c.07-.29.13-.59.25-1.1-1.17.33-2.15.61-3.14.87-.81.22-1.61.41-2.42.61.45-1.42.34-1.83-.55-2.22-.38.74-.55,1.63-1.65,1.74-.29,0-.56.31-.83.5-1.16.82-1.16.82,0,1.49l-.46.34c-.3-.13-.61-.39-.89-.36-.47,0-.92.31-1.39.4-1.12.21-2.26.38-3.38.56a3,3,0,0,0,.54-.91,1.53,1.53,0,0,0-.15-1.1c-.17-.23-.64-.24-.82-.29a13.28,13.28,0,0,0-1.14.82c-.52.45-1,.94-1.52,1.4a1,1,0,0,1-.51.21.46.46,0,0,1-.34-.27c-.17-.72-.3-1.46-.44-2.19l1.6-.49Z"/><path class="cls-3" d="M82.52,59.89c-.17.33-.33.67-.52,1-.55,1-1.08,1.95-1.7,2.88A7.46,7.46,0,0,1,79,65.22c-1.23,1.07-2.57,2-3.73,3.17a54,54,0,0,1-7,5.49,2.78,2.78,0,0,1,0-.77c.35-1-.21-1.2-1-1.19l2.23-2c1.12-1,2.23-2,3.36-3,1.5-1.29,3-2.51,4.52-3.83A8.11,8.11,0,0,0,79.32,61c1-1.92,2.77-2.93,4.4-4.13a2.18,2.18,0,0,1,.87-.18,2,2,0,0,1-.07.81,8.92,8.92,0,0,1-.8,1.06C83.27,58.93,82.42,59,82.52,59.89Z"/><path class="cls-4" d="M54.59,79.08l-1.79-.23-.41-.06a3.34,3.34,0,0,0-1-.25,4.84,4.84,0,0,0-1.08.3l-.75-.13L49,78.63l-.4-.09-3-.27c-.12-.08-.25-.15-.38-.22l-4.75-1.24c-.19-.72-.36-1.47-1.38-1.35l-.22,0-.2-.2,0-2a.43.43,0,0,0,0-.11l1.61.1L44,74.52l.67.15.58,0,1.88,1.5,1.3-1.06,2.36.25c.19.56.22,1.26,1,1.31a.84.84,0,0,0,1-1l2.58.2c-.09.61-.44,1.32.64,1.46.13,0,.21.47.34.77h-.7l.11.87-.18.14L55.17,79l-.32-.37-.29.31ZM53.48,77l-.09.19a9.88,9.88,0,0,0,1.16.39c.09,0,.24-.24.36-.37-.14-.1-.28-.28-.42-.29A6.87,6.87,0,0,0,53.48,77Z"/><path class="cls-5" d="M33.76,32.89l1.94.22,2,.29,1.36.17h.43l4.93.74c.07.09.14.17.2.26l.21-.25.39-.08.41.15.4.42-.21,1-1,1.76-.43.67a16.67,16.67,0,0,1-1.88-.09c-1.61-.27-3.22-.52-4.8-.92s-3.19-1-4.79-1.48c-.46-.88-.48-1.62.51-2.19C33.64,33.5,33.66,33.13,33.76,32.89Z"/><path class="cls-6" d="M48.21,31l.61.37a.8.8,0,0,0,0,.15l-1.4,1.37a14.73,14.73,0,0,0-1.34-.75c-1.45-.63-2.9-1.25-4.37-1.81s-2.76-1-4.15-1.44a15.59,15.59,0,0,0-1.81-.33c-1.54-.29-3.07-.66-4.62-.87A27.31,27.31,0,0,0,28,27.56l-.2-.4c0-.13-.05-.25-.07-.38s.05-.27.08-.4a3.57,3.57,0,0,1,3.25-.85c2.42.51,4.89.79,7.29,1.32a37,37,0,0,1,3.86,1.37c.79.27,1.6.5,2.42.7s1.53.25,2,1Z"/><path class="cls-7" d="M58,63.7l.38-1.25.59-.39.69.53c.87-.05,1.34-1.68,2.34-.34.53-.68,1.43-1.07,1.13-2.11,1.57-.52,3.13-1.06,4.7-1.56a2.49,2.49,0,0,0,1.82-1.49c.41-1.09.9-2.15,1.29-3.25.3-.86.72-1.17,1.57-1,.28.07.56.17.83.26l-.18.18,1.09,1.09c.05,1.09,0,2.1-1.5,2.15-.1,0-.23.12-.3.21-.53.71-1,1.42-1.58,2.12l-.42.78a14.6,14.6,0,0,1-2.48,1.58c-1.9.74-3.85,1.32-5.8,1.92-1,.3-2,.48-3,.72L59,63.8l-.42-.12Z"/><path class="cls-8" d="M55.76,79l-.11-.87h.7c-.13-.3-.21-.75-.34-.77-1.08-.14-.73-.85-.64-1.46a12.41,12.41,0,0,0,6.32-1.17c1.15-.54,2.66-.67,3.36-2,.09-.18.41-.28.65-.36.52-.15,1-.27,1.57-.4.82,0,1.38.18,1,1.19a2.78,2.78,0,0,0,0,.77h0c-.51.05-1.26-.12-.74.83h0c-.34,0-.77,0-1,.17-.9.72-1.75,1.51-2.61,2.28-.79.25-1.57.55-2.37.76-1.44.36-2.89.66-4.33,1l-.43,0Z"/><path class="cls-3" d="M12.75,43.92a16.22,16.22,0,0,0-1.67.83c-.18.11-.2.47-.29.72-1.12-1.35-2.31-2.64-3.32-4.06-1.39-2-2.66-4-4-6.07-.51-.8-1-1.64-1.46-2.46a3.2,3.2,0,0,1,.9.4c.65.61,1.23,1.28,1.84,1.93l.33,0A6.32,6.32,0,0,0,5.21,34c-.08-.77-.24-1.53-.37-2.29.45.89.83,1.82,1.35,2.67.91,1.5,1.9,3,2.85,4.44a11.31,11.31,0,0,0,.86,1.27A14,14,0,0,1,12.75,43.92Z"/><path class="cls-3" d="M64.69,29a2.55,2.55,0,0,1-2.83.66c-1.28-.52-1.86.1-2.52.89l-.81.05c-1.94.33-3.9.55-5.56,1.78a11.41,11.41,0,0,1-1.78.9c-.54-1.66-.54-1.66,1.17-2.27l.42.68c.21-.24.29-.54.19-.62s-.62-.49-.88-.43a13.16,13.16,0,0,0-1.87.69h0l-.43-.41.25-.37,1.57-1,1-.4c1.75-1,3.74-.86,5.63-1.2,1-.17,1.9-.59,2.87-.8a15.92,15.92,0,0,1,2.19-.21c-.08.36-.15.72-.27,1.29l1.65.54C64.66,28.66,64.68,28.82,64.69,29Z"/><path class="cls-3" d="M86.09,46.48a28.24,28.24,0,0,1-6.54,6.32,26.07,26.07,0,0,0-2.18,1.78l-.74.2c-1.48.48-1.6.4-1.66-1.08,0-.09,0-.21.11-.26,1.56-1.27,3.16-2.51,4.69-3.81,1-.87,2-1.83,2.94-2.75l.81-.4C84.38,46.32,85.24,45.64,86.09,46.48Z"/><path class="cls-9" d="M26,22.83c-.23,2.14-.44,4.29-.69,6.42a4.44,4.44,0,0,1-.45,1.06l-1.14-1c.07,0-.07,0-.08,0-.13,1.13-1.43,1.79-1.22,3.06,0,.14-.18.32-.28.49l-3.8-1a.88.88,0,0,0-.45-1.26c-.19-.1-.24-.46-.36-.71,1.24.25,2.49.47,3.72.77.57.14,1,.33,1-.56a9.21,9.21,0,0,1,.37-2.2c.29-1.13.68-2.24,1-3.37.21-.77.35-1.57.51-2.35a3.64,3.64,0,0,1,.94.05A6.43,6.43,0,0,1,26,22.83Z"/><path class="cls-6" d="M60.79,34.5l2.3-.13.41-.09,2.21-.51a4.12,4.12,0,0,1-.27.69c-.33.55-.87.44-1.42.47a22.18,22.18,0,0,0-2.75.55l-.72,1.26c.62.3,1.22.41,1.5.76a8.81,8.81,0,0,1,.87,1.86c0,.21,0,.42,0,.63-1,0-.88-.93-1.09-1.5-.4-1.05-.66-1.26-1.7-1.05-1.56.32-3.11.65-4.68.92-.78.14-1.59.08-2.36.22s-1.64.4-2.46.61a4.62,4.62,0,0,1,.54-1.09c.69-.76.74-1.23.05-1.65a15.79,15.79,0,0,0,2.17.07c.93-.09,1.84-.33,2.76-.49a4.89,4.89,0,0,1,1.25-.17,3.73,3.73,0,0,0,2.94-1Z"/><path class="cls-10" d="M78,30.58c.14.73.27,1.47.44,2.19a.46.46,0,0,0,.34.27,1,1,0,0,0,.51-.21c.52-.46,1-.95,1.52-1.4a13.28,13.28,0,0,1,1.14-.82c.18.05.65.06.82.29a1.53,1.53,0,0,1,.15,1.1,3,3,0,0,1-.54.91c-.72.72-1.45,1.43-2.15,2.16s-1,1.3-1.66,1.85-1.64.13-1.68-.45c-.08-1-1-1.36-1.45-2l-.78-1.26,3.14-1.07-.89-.28c-.47-.14-1.19.2-1.25-.68l.17-.09.59-.18H77l.21-.17Z"/><path class="cls-11" d="M75.61,31.16c.06.88.78.54,1.25.68l.89.28-3.14,1.07.78,1.26c-1.32.51-2.75.41-4.12,1s-2.92.42-4.4.59l.66-1.72-.28-.61Z"/><path class="cls-12" d="M4.84,31.67c.13.76.29,1.52.37,2.29a6.32,6.32,0,0,1-.09,1.22l-.33,0C4.18,34.56,3.6,33.89,3,33.28a3.2,3.2,0,0,0-.9-.4c-.47-1.5-.88-3-1.42-4.5C.36,27.64-.2,27,.07,26.12a1.16,1.16,0,0,1,1.57-.84,11.66,11.66,0,0,0,1.19.35c-.07.56-.13,1.12-.2,1.68a6.36,6.36,0,0,0,.32,1C3.57,29.43,4.21,30.55,4.84,31.67Z"/><path class="cls-13" d="M2.63,27.31c.07-.56.13-1.12.2-1.68h.94l.46.36A3.85,3.85,0,0,0,7,27c.35,0,.71.29,1.08.39,1.59.41,3.2.73,4.77,1.21a16.29,16.29,0,0,1,2.32,1.09c-.48-.06-1.16.05-1.39-.22-1-1.19-.95,0-1.21.47-.1.2-.17.42-.26.62l-4.2-1.17-1.27-.31c-.73-.2-1.5-.05-2.16-.71A7.4,7.4,0,0,0,2.63,27.31Z"/><path class="cls-10" d="M12.32,30.55c.09-.2.16-.42.26-.62.26-.49.2-1.66,1.21-.47.23.27.91.16,1.39.22l.53.09,1,.13.78.05c.12.25.17.61.36.71a.88.88,0,0,1,.45,1.26c-.15.28-.31.56-.33.61-.5.28-1,.49-1,.58.31,1.37-.29,1.25-1.18.78a1,1,0,0,0-.49,0,1.75,1.75,0,0,1-2-1.34,5,5,0,0,0-.38-.67C12.73,31.44,12.53,31,12.32,30.55Z"/><path class="cls-12" d="M97.57,32.87c-1,1.57-2,3.15-3,4.71-.52.81-1.08,1.59-1.62,2.39l-.72.63h0l-.69-.54c-.65,1.17-1.19,1.31-1.75.47a4.45,4.45,0,0,0,.72-.64,5.76,5.76,0,0,0,.71-1.19c.19-.43.17-1,.44-1.34,1.18-1.55,2.43-3,3.65-4.56Zm-5.13,6.24-.15,0,.07.36.17,0Z"/><path class="cls-10" d="M67.25,33.72l.28.61-.66,1.72a8.92,8.92,0,0,0-1.19,1.1,14.33,14.33,0,0,0-1,1.66c-.57-.2-1.06-.29-1,.57H63.5l-.58,0a8.81,8.81,0,0,0-.87-1.86c-.28-.35-.88-.46-1.5-.76l.72-1.26A22.18,22.18,0,0,1,64,34.93c.55,0,1.09.08,1.42-.47a4.12,4.12,0,0,0,.27-.69Z"/><path class="cls-14" d="M22.11,32.88c.1-.17.3-.35.28-.49-.21-1.27,1.09-1.93,1.22-3.06,0,0,.15-.08.08,0l1.14,1-.06.38-.44.23.28.19.09.31c-.09.74-.18,1.48-.26,2.21a3.74,3.74,0,0,0-.56,2.54l-.23,1v.18a1.29,1.29,0,0,1-1.53-.53,3.33,3.33,0,0,0-.64-.45V36l.35-.37-.57-.42L21.2,35Z"/><path class="cls-11" d="M64.69,29c0-.15,0-.31,0-.2L63,28.23c.12-.57.19-.93.27-1.29l.6-.25.8-.11,5.89.67a3.46,3.46,0,0,0,1,.05c.8-.14.66.31.65.61Zm-.24-1,.29.11c.08-.25.18-.5.25-.75a1.09,1.09,0,0,0-.23-.09C64.65,27.45,64.55,27.69,64.45,27.94Z"/><path class="cls-15" d="M33.76,32.89c-.1.24-.12.61-.29.71-1,.57-1,1.31-.51,2.19l-.39.24-2.51-.58-.06,1-1.79-1.76c0-.36-.09-1,.05-1,.78-.33,1.58-1,2.49-.43.66.42.85.06,1-.46Z"/><path class="cls-5" d="M31.78,32.73c-.18.52-.37.88-1,.46-.91-.58-1.71.1-2.49.43-.14.06,0,.68-.05,1-.8-.16-1.61-.28-2.4-.48a10.59,10.59,0,0,1-1.37-.55c.08-.73.17-1.47.26-2.21L30,32.3l.6.19Z"/><path class="cls-3" d="M89.83,40.53c.56.84,1.1.7,1.75-.47l.69.54c-.71,1.69-2.3,2.52-3.57,3.67-.6.55-1.22,1.07-1.82,1.6l.78-1.71-1.61-.28Z"/><path class="cls-16" d="M49.79,30.89l.43.41,0,.09,0-.09a13.16,13.16,0,0,1,1.87-.69c.26-.06.63.22.88.43s0,.38-.19.62L52.36,31c-1.71.61-1.71.61-1.17,2.27a1.84,1.84,0,0,1-2.94.08,5.3,5.3,0,0,0-.8-.48l1.4-1.37Z"/><path class="cls-17" d="M51.2,36.45c.69.42.64.89-.05,1.65a4.62,4.62,0,0,0-.54,1.09.26.26,0,0,1-.15,0L50,39.3l-.4,0a.29.29,0,0,0,0-.16c0-.62-.29-.78-.8-.38h-.6V35.85h.21l.58.06.78.15h0l.39.18Z"/><path class="cls-15" d="M97.57,32.87l-2.22-.07,1.39-2.72.83-.47,1.45.92c-.08.2-.15.4-.23.61l-.14.16-.54.77-.53.79Z"/><path class="cls-11" d="M75,53.7c.06,1.48.18,1.56,1.66,1.08l-.87,1.12-1.6,1.16-.77.63c-1-.09-1.27,1-2,1.39l-.59-.18c.53-.7,1-1.41,1.58-2.12.07-.09.2-.21.3-.21,1.48,0,1.55-1.06,1.5-2.15Z"/><path class="cls-8" d="M86.05,43.88l1.61.28-.78,1.71-.79.61c-.85-.84-1.71-.16-2.57,0,.13-.54.25-1.07.37-1.6Z"/><path class="cls-3" d="M26,22.83a6.43,6.43,0,0,0-.95-.54,3.64,3.64,0,0,0-.94-.05c-.06-1.72.58-2.24,2.15-1.63Z"/><path class="cls-3" d="M19.71,56.33c.13.17.37.35.35.49a1.51,1.51,0,0,0,1.11,1.92l.95-.4c-.08.52-.17,1-.25,1.55l-.18.2C20.1,59.47,19.62,58.56,19.71,56.33Z"/><path class="cls-3" d="M63.87,77.17c.86-.77,1.71-1.56,2.61-2.28.24-.18.67-.12,1-.17-1,.63-1.39,2-2.68,2.33C64.5,77.12,64.18,77.13,63.87,77.17Z"/><path class="cls-1" d="M48.43,75.08l-1.3,1.06-1.88-1.5Z"/><path class="cls-18" d="M52.79,75.69a.84.84,0,0,1-1,1c-.81,0-.84-.75-1-1.31Z"/><path class="cls-9" d="M38.67,73.25l0,2-1-.68C38.26,74.29,37.57,73.17,38.67,73.25Z"/><path class="cls-8" d="M50.36,78.84a4.84,4.84,0,0,1,1.08-.3,3.34,3.34,0,0,1,1,.25l-.07.38-1.12.25Z"/><path class="cls-9" d="M39.13,75.46c1-.12,1.19.63,1.38,1.35l-1.32-.59Z"/><path class="cls-5" d="M47.05,35.24l1.18.42a1.09,1.09,0,0,1,0,.18h0c-.53.11-1.07.58-1.59,0Z"/><path class="cls-3" d="M47.05,35.24l-.4.59-.79,0,.21-1,.58,0,.39.21A1.09,1.09,0,0,1,47.05,35.24Z"/><path class="cls-19" d="M40.3,73.24l-1.61-.1C39.19,72.49,39.73,72.52,40.3,73.24Z"/><path class="cls-20" d="M50.36,78.84l.84.58c-.87.52-1.28,0-1.59-.71Z"/><path class="cls-20" d="M37.74,33.4l-2-.29Z"/><path class="cls-2" d="M30,59.49l1.45-1-.66,1.38Z"/><path class="cls-20" d="M58,63.7l.57,0,.42.13.19.1-1.26.28C57.91,64,57.94,63.86,58,63.7Z"/><path class="cls-2" d="M32.18,60.66v-.2c.12-.75.5-.54,1-.24l-.43.52Z"/><path class="cls-3" d="M67.51,74.71c-.52-.95.23-.78.74-.83C68,74.15,67.76,74.43,67.51,74.71Z"/><path class="cls-20" d="M55.17,79l.41.11c-.35.37-.68.48-1,0l0-.12Z"/><path class="cls-2" d="M31.79,60.46l-.21,0-.19-.42.13-.49h.19Z"/><path class="cls-12" d="M97.58,32.86l.53-.79Z"/><path class="cls-3" d="M92.27,40.6,93,40Z"/><path class="cls-21" d="M58.53,30.57l.81-.05C59.1,31.07,58.83,31.06,58.53,30.57Z"/><path class="cls-20" d="M30.59,32.49,30,32.3Z"/><path class="cls-19" d="M64.69,26.58l-.8.11Z"/><path class="cls-20" d="M56.71,64.39l.85-.22Z"/><path class="cls-19" d="M76.37,30.89l-.59.18Z"/><path class="cls-19" d="M98.39,26.29,97.71,26Z"/><path class="cls-19" d="M80.15,29.93l-.6.16Z"/><path class="cls-21" d="M42.08,64.49l.61.11Z"/><path class="cls-21" d="M100,28.94v0Z"/><path class="cls-21" d="M39.53,64.13l.58.08Z"/><path class="cls-21" d="M44.67,74.67,44,74.52Z"/><path class="cls-9" d="M24.61,31.11l-.28-.19.44-.23Z"/><path class="cls-15" d="M49.81,36,49,35.89Z"/><path class="cls-19" d="M60.79,34.5l-.47.33Z"/><path class="cls-21" d="M27.83,26.38c0,.13,0,.27-.08.4l-.24-.24Z"/><path class="cls-21" d="M27.82,27.16l.2.4Z"/><path class="cls-3" d="M44.87,34.33l-.21.25c-.06-.09-.13-.17-.2-.26Z"/><path class="cls-19" d="M63.5,34.28l-.41.09Z"/><path class="cls-20" d="M39.53,33.58h0Z"/><path class="cls-20" d="M45.26,78.05c.13.07.26.14.38.22C45.52,78.19,45.39,78.12,45.26,78.05Z"/><path class="cls-20" d="M48.62,78.54l.4.09Z"/><path class="cls-20" d="M56.74,79l.43,0Z"/><path class="cls-20" d="M52.32,79.17l.07-.38.41.06Z"/><path class="cls-15" d="M50.21,36.23l-.39-.18Z"/><path class="cls-19" d="M77.19,30.72l-.21.17Z"/><path class="cls-21" d="M98.65,31.3l.14-.16Z"/><path class="cls-19" d="M21.69,60.09l.18-.2Z"/><path class="cls-15" d="M48.24,35.84a1.09,1.09,0,0,0,0-.18l.22.17Z"/><path class="cls-5" d="M32.57,36c-.21.63-.23,1.55-.67,1.84-.8.52-1.21,1.67-2.51,1.52a9,9,0,0,0-2.16.44c-.64.1-1.3.12-1.94.17-1-.68.55-.64.23-1L23.65,37.4v-.18l.91.6.69-1,5.05.7L30,36.42l.06-1Z"/><path class="cls-2" d="M14.14,42.15c-.06-1,.82-1.44,1.42-2,.1-.09.68.1.74.27a2.51,2.51,0,0,1,.14,1.32c-.21.88-.54,1.73-.82,2.59l-.49-.61L15,42.45Z"/><path class="cls-4" d="M25.84,54.58l.79-.4c.43.16.87.28,1.28.47a5.74,5.74,0,0,1,.88.62l-1.38-.09c.34.5.49,1,.75,1.06.79.17.68.63.59,1.17a4.22,4.22,0,0,1-2.83-1.95C25.78,55.25,25.86,54.88,25.84,54.58Z"/><path class="cls-3" d="M18.51,37c.89-.69,1.43-1.83,2.69-2a2.68,2.68,0,0,0,.07.27c.07.26.14.53.22.79v.38l.18,1-.35.2-.53-.9A1.5,1.5,0,0,1,18.51,37Z"/><path class="cls-6" d="M24.16,44.1l-.36,2.2a2,2,0,0,1-.51-.33,11.62,11.62,0,0,1-.69-1.11l.62-1.1Z"/><path class="cls-22" d="M21.31,37.64l.35-.2,1.2.78.57.23,0,.79a3.93,3.93,0,0,1-.85-.22,5.43,5.43,0,0,1-1.12-.77C21.36,38.13,21.37,37.85,21.31,37.64Z"/><path class="cls-13" d="M28.2,52.66l1.2.31c.1.16.26.32.27.49a6.62,6.62,0,0,1-.09,1c-.23-.13-.54-.21-.68-.41A11.89,11.89,0,0,1,28.2,52.66Z"/><path class="cls-3" d="M14.14,42.15l.88.3.11,1.27-.59-.2-.82-.59Z"/><path class="cls-2" d="M13.72,42.93l.82.59-.46,1-.56-.61C13.59,43.56,13.66,43.24,13.72,42.93Z"/><path class="cls-5" d="M23.43,38.45l-.57-.23c.11-.12.21-.25.32-.38Z"/><path class="cls-1" d="M46.23,62.21a25.39,25.39,0,0,1,.43-3.62c.31-1.19.6-1.05,1.76-.68,1,.32.88.94,1,1.65a11.05,11.05,0,0,0,.92,2l.42.87L49.7,62.4c-.34,0-.84-.19-1,0-.62.63-1.12.44-1.59-.09l-.84.38Z"/><path class="cls-15" d="M34.77,59.85l.6-.14a4.06,4.06,0,0,0,.83.12c.83-.08,1.65-.21,2.47-.32l.18,2a1.88,1.88,0,0,1-2,.09c-.28-.19-.81,0-1.2-.07C34.36,61.23,34.24,61,34.77,59.85Z"/><path class="cls-23" d="M46.27,62.67l.84-.38c.47.53,1,.72,1.59.09.16-.17.66,0,1,0l1.11.05a.56.56,0,0,1,.17.09c-.26.5-.51,1-.76,1.5L50,63.69A16.15,16.15,0,0,1,48.1,64a4.93,4.93,0,0,1-1.25-.33l-.4-.39Z"/><path class="cls-1" d="M57.76,61.58l.57-.13.6.61-.59.39Z"/><path class="cls-1" d="M46.45,63.24l.4.39Z"/><path class="cls-8" d="M90.43,31.89c0,.4,0,.79,0,1.19l-2.33-.22L88,32.31l.46-.34c-1.21-.67-1.21-.67,0-1.49.27-.19.54-.47.83-.5,1.1-.11,1.27-1,1.65-1.74.89.39,1,.8.55,2.22l-.81,1C90.56,31.62,90.5,31.76,90.43,31.89Z"/><path class="cls-8" d="M53.48,77a6.87,6.87,0,0,1,1-.08c.14,0,.28.19.42.29-.12.13-.27.39-.36.37a9.88,9.88,0,0,1-1.16-.39Z"/><path class="cls-8" d="M55.17,79,54.56,79l.29-.31Z"/><path class="cls-1" d="M49.62,39.34c-.19.84-.37,1.68-.59,2.51-.05.19-.24.46-.36.47a1.57,1.57,0,0,1-1-.21,6.65,6.65,0,0,1-.83-1.17c.64-.39.27-.8,0-1.16,0-.06-.41.15-.63.23l-1.8-1.73c.14-.23.29-.45.43-.67,1,.12,1.19,1.21,1.86,1.71l0-.29,1.47-.23h.6l.8.38A.29.29,0,0,1,49.62,39.34Z"/><path class="cls-15" d="M48.23,38.8,46.76,39l0,.29c-.67-.5-.84-1.59-1.86-1.71l1-1.76.79,0c.52.6,1.06.13,1.59,0C48.24,36.83,48.23,37.82,48.23,38.8Z"/><path class="cls-24" d="M58.93,62.06l-.6-.61a.39.39,0,0,1,.07-.16,4.63,4.63,0,0,0,1.13-.75c.62-.77,1.21-1.2,2-.3l.86-.58.73.48c.3,1-.6,1.43-1.13,2.11-1-1.34-1.47.29-2.34.34Z"/><path class="cls-2" d="M59,63.8l-.42-.13Z"/><path class="cls-2" d="M82.71,46.88a6.3,6.3,0,0,0-4.81.5,15.55,15.55,0,0,1-3.93,1l-1.7.39c.24,1.25.59,2.38.14,3.5l-.42.07L71.25,49c-.42.18-.85.32-1.24.53a5.07,5.07,0,0,1-3.54.77c-.18,0-.41.14-.61.22a4.67,4.67,0,0,1-2.29.6,8.7,8.7,0,0,0-2.9.82l.74,1.46c-.5.37-1.07,1.12-1.61,1.11-.95,0-.55-1.07-.74-1.68-.07-.24-.13-.5-.23-.87-3.22,1.65-6.74.92-9.9,1.43-.06,1-.08,1.8-.2,2.64,0,.1-.62.11-.9.16-.07-.93-.11-1.73-.22-2.52s-.53-1-1.27-.73c-.58.23-1.18.42-1.61.57-1.86-1.21-3.94-.87-5.84-1.4,0,1.07,0,2,0,2.86,0,.29-.37.55-.57.82-.25-.27-.67-.53-.7-.83a16.66,16.66,0,0,1,0-2.34c0-.18.13-.37.09-.53-.1-.44-.26-.86-.4-1.29,1.62.22,3.23.47,4.85.66a8.85,8.85,0,0,0,3.47-.11c.78-.22,1.15-.46,1.22-1.23A7.8,7.8,0,0,1,47.09,49l.62,0V52.2c1.7-1.06,3.68-1,5.76-.7a9.44,9.44,0,0,0,2.67-.25,23.4,23.4,0,0,0,4.21-.68c1.57-.52,3.61-.53,4.12-2.71h1.62c0,.65.31.8,1,.73a11.72,11.72,0,0,0,3.17-1.17,25.57,25.57,0,0,1,4.51-.92,22,22,0,0,0,2.58-.59c.65-.22.84-.67.69-1.46a16.08,16.08,0,0,1-.15-3.67c0-.34.48-.66.74-1,.39.41,1,.77,1.12,1.24A33.89,33.89,0,0,1,80,44.7c0,.18.13.36.1.28a13.22,13.22,0,0,0,2.25.35,5.33,5.33,0,0,0,1.51-.45c-.12.53-.24,1.06-.37,1.6Z"/><path class="cls-11" d="M63.5,40h-.6c0-.21,0-.42,0-.63l.58,0Z"/><path class="cls-3" d="M92.44,39.11l.09.35-.17,0-.07-.36Z"/><path class="cls-11" d="M64.72,38.81l-.21.58h-.83C63.66,38.52,64.15,38.61,64.72,38.81Z"/><path class="cls-6" d="M63.68,39.38h.83l-1,.6v-.6Z"/><path class="cls-1" d="M23.88,36.17l1.37.62-.69,1-.91-.6Z"/><path class="cls-1" d="M21.49,36c-.08-.26-.15-.53-.22-.79l.57.42Z"/><path class="cls-3" d="M64.45,27.94c.1-.25.2-.49.31-.73a1.09,1.09,0,0,1,.23.09c-.07.25-.17.5-.25.75Z"/><path class="cls-3" d="M50.22,31.3l0,.09,0-.09Z"/><path class="cls-15" d="M49.63,39.18l-.8-.38C49.34,38.4,49.59,38.56,49.63,39.18Z"/><path class="cls-1" d="M50.46,39.23,50,39.3Z"/><path class="cls-13" d="M37.34,50.77c.14.43.3.85.4,1.29,0,.16-.06.35-.09.53-.08-.1-.14-.28-.23-.3-1.1-.25-2.19-.52-3.3-.69s-2-.09-3-.27c-.3,0-.53-.56-.79-.87L31.43,49a16,16,0,0,1,5.23,1.24A4.29,4.29,0,0,1,37.34,50.77Z"/><path class="cls-8" d="M31.43,49l-1.08,1.46c-.44-.14-.88-.32-1.34-.42a18.86,18.86,0,0,0-2-.34,10.19,10.19,0,0,0-1.46,0c-.35,0-.69,0-1,.06.18-1.87,1.85-2.08,3.5-1.54a.79.79,0,0,1-.1.27c-.15.22-.32.42-.48.63a5.22,5.22,0,0,0,.84.29,1.58,1.58,0,0,0,.53-.07l-.39-1,.56-.65c.32,0,.83.21.91.09.43-.64.55.13.81.13Z"/><path class="cls-1" d="M62.36,59.66l-.86.58c-.76-.9-1.35-.47-2,.3a4.63,4.63,0,0,1-1.13.75c.31-1.49.59-3,1-4.46,0-.2.56-.43.83-.39a8.11,8.11,0,0,1,1.49.48Z"/><path class="cls-9" d="M30.81,45.14,29,43.61l1.33-3.78c1.2.2.74,1,.82,1.51a4.74,4.74,0,0,1,.17,1.34C31.24,43.42,31,44.15,30.81,45.14Z"/><path class="cls-12" d="M47.71,49.08l-.62,0a3.34,3.34,0,0,0-.29-2.69,1.12,1.12,0,0,1,0-.83c.23-.78.52-1.53.8-2.35.6-.11.92,0,1.06.79.2,1.11.35,2.06-.65,2.91-.27.24-.19.91-.25,1.38A7.58,7.58,0,0,0,47.71,49.08Z"/><path class="cls-9" d="M38.67,59.51c-.82.11-1.64.24-2.47.32a4.06,4.06,0,0,1-.83-.12c.45-.81.85-1.65,1.35-2.42s1-.11,1.12.15A12.09,12.09,0,0,1,38.67,59.51Z"/><path class="cls-3" d="M66.09,47.87H64.47c-.08-1.34-.16-2.68-.26-4.25.91.57,1.41,1,1.28,1.9,0,.29.27.61.35.93S66,47.39,66.09,47.87Z"/><path class="cls-3" d="M88.11,32.86l2.33.22c.79.65,0,1.16-.21,1.7-.06.21-.68.48-.84.38A3,3,0,0,1,88.3,34.1,3.3,3.3,0,0,1,88.11,32.86Z"/><path class="cls-6" d="M30.71,47.89c-.26,0-.38-.77-.81-.13-.08.12-.59-.06-.91-.09a8.2,8.2,0,0,1,.15-1.87c.08-.24.69-.45,1-.42.19,0,.43.55.48.87A11.19,11.19,0,0,1,30.71,47.89Z"/><path class="cls-11" d="M28.43,48.32l.39,1a1.58,1.58,0,0,1-.53.07,5.22,5.22,0,0,1-.84-.29c.16-.21.33-.41.48-.63a.79.79,0,0,0,.1-.27Z"/><path class="cls-15" d="M46.23,40c.22-.08.59-.29.63-.23.29.36.66.77,0,1.16Z"/><path class="cls-3" d="M90.43,31.89c.07-.13.13-.27.19-.41C90.56,31.62,90.5,31.76,90.43,31.89Z"/></g></svg>