<svg xmlns="http://www.w3.org/2000/svg" viewBox="0 0 100 100"><defs><style>.cls-1{fill:#8ec1c2;}.cls-2{fill:#62a9ab;}.cls-3{fill:#5ba5a8;}.cls-4{fill:#6caeb0;}.cls-5{fill:#93c4c5;}.cls-6{fill:#91c2c4;}.cls-7{fill:#5ea7a9;}.cls-8{fill:#8bbfc1;}.cls-9{fill:#a3cdce;}.cls-10{fill:#66abad;}.cls-11{fill:#7eb8b9;}.cls-12{fill:#78b5b6;}.cls-13{fill:#71b1b3;}.cls-14{fill:#73b2b4;}.cls-15{fill:#97c6c7;}.cls-16{fill:#88bdbf;}.cls-17{fill:#b1d4d5;}.cls-18{fill:#eff6f7;}.cls-19{fill:#e4f0f1;}.cls-20{fill:#e9f3f3;}.cls-21{fill:#51a0a2;}.cls-22{fill:#4c9da0;}.cls-23{fill:#8fc2c3;}.cls-24{fill:#a8cfd1;}</style></defs><g id="Ebene_5" data-name="Ebene 5"><path class="cls-1" d="M32.32,60.71v.67l-.12.85c-.08.81.1,1.68-.57,2.3a6.93,6.93,0,0,1-1.55-4.82c0-.23-.07-.46-.11-.69L30,54.45l2,1.66c.23-1,.43-1.8.6-2.63,0,0-.15-.13-.22-.21a2,2,0,0,1,.08-2.69,8.85,8.85,0,0,0,5.37,6.28l.1-1.39.79.86v1l-.6-.09v1.23l.6.05a5.43,5.43,0,0,0,1.76,2.7,2.51,2.51,0,0,1,.44.67,4.57,4.57,0,0,1-.19,1.64c-.51.93-.6,2.06-1.64,2.77-.68.46-1,1.5-1.59,2.07a14.54,14.54,0,0,0-3,3.39c-.48.78-1.16,1.43-1.68,2.19-.82,1.18-.62,1.66.74,2.13a11.94,11.94,0,0,1,1.49.8c-.06.19-.21.41-.17.57a5.77,5.77,0,0,0,.43,1c-.37,0-.8.26-1.08.13-.68-.32-1,.17-1.35.49s-.17.56.29.57h0v.32a5.46,5.46,0,0,1-3.54-3.86l-.16-.51a3.51,3.51,0,0,1,1.23-3.47,11.26,11.26,0,0,0,1.12-1.56c.89-1.16,1.76-2.35,2.72-3.46.77-.89,1.72-1.62,2.46-2.53a3.31,3.31,0,0,0,.86-2.94c-.13-.47-.76-.81-1.16-1.2-.3-.6-.67-.1-1-.07-.73-.47-1.47-.92-2.18-1.41a4.68,4.68,0,0,1-.67-.73l-.45-.43-.08.61v2.36Z"/><path class="cls-2" d="M57.25,92.72a.19.19,0,0,0-.12.07l-.42.25-.77.72-.72.31c-.23.06-.56.06-.69.21a.88.88,0,0,1-1.34,0,1.55,1.55,0,0,1-.34-1.18,9.9,9.9,0,0,1,.46-1.65c.16-.58.3-1.17.44-1.76V89.2l-.27-1L52.22,87a.17.17,0,0,0-.1-.06l-.56-.82c-.46-.33-.91-.68-1.39-1a17.37,17.37,0,0,0-1.72-1,3.13,3.13,0,0,0-.93-.16H46.15l-.6-.26-.74-.46c-.51-.21-1-.46-1.54-.62a10.56,10.56,0,0,0-1.49-.27l-.18-.29.67-.23,1.17-.43.82-.31c-.14-.31-.21-.79-.45-.91a30.26,30.26,0,0,0-3.17-1.32c-.41-.14-.57-.24-.41-.68.27-.73.49-1.46,1.6-1.41A8.68,8.68,0,0,0,41,75.39c-.78-.89-1-.9-1.85-.35l.61-1.36.94-.24c.24.37-.22,1.25.76,1.09l.56.19.11-.86a1.16,1.16,0,0,0,1.38-.73,1,1,0,0,1,1.83.05l-.66-.11.32.79c-.1.18-.2.36-.29.55l-.2.29-.32-.8c-.62-.27-1.1.21-1.3.76s.49.66.88.84a.64.64,0,0,0,.24,0c-.07.14-.1.33-.22.42a2.27,2.27,0,0,0-.8,2.27,3.23,3.23,0,0,0-.17.47c.63.37,1.27.71,2,1.07.15.69.15.66.88.68a2.19,2.19,0,0,1,.8.33c.25.1.51.32.73.29.7-.12,1.39-.33,2.08-.5a.21.21,0,0,1,.12,0L49.43,82l.59-.16c.62-.18,1.2-.32,1.41.57,0,.12.41.22.62.22a4.73,4.73,0,0,0,.9-.16l2.11,1.9.21-.7c.23.38.45.76.69,1.12s.52.72.77,1.08.33.8.5,1.19c0,0,.13.07.13.1-.14,1.16,1.23,2.1.48,3.38a3.87,3.87,0,0,0-.21,1.39Z"/><path class="cls-3" d="M71.64,26l-2.23,1.83A.79.79,0,0,0,68.3,28a1.2,1.2,0,0,1-.79.29c-.5,0-1-.1-1.19.6s-.52,1.39-.78,2.07v0l-.48.18L64.2,31l-1-1.69h0l.68-.67A1.16,1.16,0,0,1,65,27.83c.6,0,.56-.28.35-.68,0,0,0-.1,0-.16.54-.44,1.35-.79,1.58-1.36a5.06,5.06,0,0,1,1.47-2.05,1.81,1.81,0,0,0,.64-1.82l1.37-2.7.1-.23,0-.23,0-.63c.1-.08.27-.15.3-.25.3-1.13.59-2.26.84-3.4a2.68,2.68,0,0,0-.12-.87,4,4,0,0,1-1.23-.32,1.59,1.59,0,0,1-.73-1A6.08,6.08,0,0,1,70,10.51a2,2,0,0,0,2-.08,1.53,1.53,0,0,1,2.11.73,27.3,27.3,0,0,1,1.36,2.5l.11.18L75.68,15l.16.85c0,.45,0,.9,0,1.35l-.12,1.52-.39,1.36-.12.15L73,24.47Z"/><path class="cls-4" d="M57,8.79l.3-2L58,6.23l-.42,2.39,1-.28.12-1.16L60.94,8.8l.07,0v.34c-.11.14-.31.28-.32.44-.09.92-.14,1.84-.2,2.76-.09.14-.27.27-.27.4,0,1.49,0,3,0,4.48l4.64-.35,4.36.37.09.33c-.35.1-.68.22-1,.31a2.21,2.21,0,0,0-1.54,1.85l-1.84.71a6.1,6.1,0,0,0-1.33-.19,26,26,0,0,1-3,.29,1,1,0,0,0-1,.4,2.47,2.47,0,0,0-2.19-.83c-.68.17-.84.73-.85,1.35l-.65.07-.51-.59A7.54,7.54,0,0,0,53,20.65a1.22,1.22,0,0,1-1.43-.49l-.52-.1h-.34l-.18-.53c1-.25.59-1,.53-1.61h1.52c.33.1.65.6,1,0a1.84,1.84,0,0,1,.41-.06c2,.22,2.8-1.32,2.77-2.77,0-.67-.09-1.34-.15-2-.05-.51-.11-1-.17-1.55l-.33-.18Z"/><path class="cls-5" d="M57,8.79l-.88,2.59.33.18c.06.54.12,1,.17,1.55a15.38,15.38,0,0,0-3.06.75,30.39,30.39,0,0,0-7.72,4.76,10.85,10.85,0,0,0-1.52,1.85,30.68,30.68,0,0,0-1.71,2.74c-.28.53-.3,1.22-.62,1.73a4.41,4.41,0,0,0-.47,3.23l-2.89.68c-1-2.51.25-4.63,1.16-6.83a22.34,22.34,0,0,1,2.83-4.49,12.8,12.8,0,0,1,3.84-3.32c.75-.47,1.47-1,2.21-1.44l.39-.26c1.52-.8,3-1.63,4.57-2.37a6.68,6.68,0,0,1,1.62-.35C56,9.66,56.67,9.55,57,8.79Z"/><path class="cls-6" d="M55.28,20.91l.51.59.65-.07.17.16v.34h0c-.68.15-.09.56-.17.84s0,.67,0,1c0,.17,0,.34,0,.52a8.59,8.59,0,0,0-1.13.32,29,29,0,0,0-3,1.36c-1,.58-2,1.34-3,2a41,41,0,0,0-4.24,2.68C43,32.4,41,34.31,39.05,36.26a26.71,26.71,0,0,0-2.31,3,1.77,1.77,0,0,1-.39-.26c-.53-.66-.8-.38-1,.25l-.67-.17.16-.67.17-.33.48-.8-1,.12-.26-.06c.52-1.86,1.92-3.06,3.22-4.35.61-.6,1.2-1.22,1.79-1.83.19.27.4.8.56.79.75-.06,1,.41,1.3.92a2.27,2.27,0,0,0,.46.47l.16-.12L41.41,32a3.3,3.3,0,0,0,.36-1A18.12,18.12,0,0,0,41.61,29c.57-.31,1.16-.6,1.71-.94,2.09-1.28,4.15-2.59,6.25-3.86a21.91,21.91,0,0,1,5.25-2.8C55,21.34,55.13,21.07,55.28,20.91Z"/><path class="cls-7" d="M38.74,57.33v-1a1.86,1.86,0,0,1,.09-.48c.38-.71.11-1.14-.59-1.38h-.17l.08-.33,1.25-.35,0-.35-1.28-.32.11-.34a14.17,14.17,0,0,1,1.47.08,5.26,5.26,0,0,1,.93.29,2.3,2.3,0,0,0,.12-.44,3.82,3.82,0,0,0-.89-.27c-.61-.08-.63-.59-.7-1,0-.15.26-.35.41-.53l.34-.42-.63-.24L39.18,50c0-.15,0-.3,0-.45h.53l.54.61,1.82-.6-.68,1.52a2.17,2.17,0,0,0-.18.62c0,.59.41,1.32.18,1.73a2.94,2.94,0,0,0,0,2.36l-.11.49v.39c.46.93.47,2.2,1.81,2.51,0,1,.72.33,1.19.39l-.26.83a8.55,8.55,0,0,1,2.07.39,9.29,9.29,0,0,1,1.7,1.27,1.57,1.57,0,0,1,1,.24c.5.4.9.93,1.37,1.38.16.16.4.37.59.35,1.09-.09,1.19.67,1.3,1.43l-.09.27c-.2.67-.88.69-1.35,1-.86.52-.95,1.69-1.88,2.14-.08,0,0,.29-.12.39a3.6,3.6,0,0,1-.47.39,8,8,0,0,1,1.4-2.46c.79-.65.53-1.09.08-1.81l1.49-.13,0-.39c-.58,0-1.32-.22-1.72,0-.56.38-.94.56-1.42.12-.36.32.23,1.11-.66,1.06,0-.63.1-1.26.1-1.89a.72.72,0,0,0-.27-.59,1.14,1.14,0,0,0-.73,0,1.49,1.49,0,0,0-.46.31,7.85,7.85,0,0,0-1.35-.82c-1.21-.45-2.45-.82-3.68-1.22a2.51,2.51,0,0,0-.44-.67,5.43,5.43,0,0,1-1.76-2.7Z"/><path class="cls-1" d="M44.69,74.41l.29-.55.52-.49.16,0L46,73c.52-.51,1.45-.68,1.36-1.68l.46,0c-.25,1.11-.14,1.15,1,1.59a23.07,23.07,0,0,1,2.86,1.52c.94.54,1.84,1.17,2.82,1.64a5.77,5.77,0,0,1,2.79,3.29,14.56,14.56,0,0,1,.48,1.75c0,.12,0,.24,0,.35-.09.62-.18,1.24-.26,1.86-.06.22-.13.44-.19.66-.18.63-.37,1.25-.56,1.87-.25-.36-.52-.71-.77-1.08s-.46-.74-.69-1.12c-.12-1.13.34-2.28-.34-3.4-.38-.63-.56-1.29-1.45-1.39a3.63,3.63,0,0,1-1.11-.56L52,77.12l-.62.52-.49-.22A1.12,1.12,0,0,0,50.62,76c-.36-.34-.63-.77-1-1.13a.5.5,0,0,0-.42,0c-.07,0-.15.26-.11.34.14.26.3.65.52.7.73.19.7.66.57,1.21-.71-.21-1.42-.43-2.13-.63a3.6,3.6,0,0,1-2.8-2.08S44.89,74.39,44.69,74.41Z"/><path class="cls-8" d="M35,38.12l-.17.33-.81.08.65.59.67.17v.34l.15.34.25.73-1,1.14c-.35.22-.82.37-1,.69s.16.64.26,1c-.27,1-.53,2.08-.81,3.17l3.61.24C37.88,47,39,46.42,40,47c.11.06.5-.19.59-.37.46-.94.9-1.89,1.28-2.87.64-1.68,2.19-2.51,3.38-3.69-.07.34,0,.79-.22,1a8.45,8.45,0,0,0-2.5,3.21A28,28,0,0,0,41.27,47l-.34.17-.51.68h-.16l-.67,0-.4,1.56c-1.17,0-2.33-.09-3.49-.07a9.47,9.47,0,0,0-1.36.3c-.54.1-1.09.17-1.64.25-.24-.89-.73-1.82.32-2.57a3.51,3.51,0,0,0-.46-.83c-.16-.21-.43-.32-.58-.53a2.16,2.16,0,0,1-.22-2A12.39,12.39,0,0,0,31.83,41l-.5-1.18h.5l.07.76.2,0,1.42-2.33.74-.9.26.06Zm-2.31,4.62c.13-.14.24-.21.25-.29s-.1-.15-.15-.22-.19.11-.23.19S32.65,42.58,32.72,42.74Z"/><path class="cls-1" d="M69.2,17.21l-4.36-.37c1.26-1.28,3.06-1.94,4.2-3.53L64.65,11.7a2.78,2.78,0,0,0-2.26.05,13.41,13.41,0,0,1-1.9.56c.06-.92.11-1.84.2-2.76,0-.16.21-.3.32-.44l.51-.32c.62-.12,1.24-.27,1.86-.34,1.55-.16,2.79.72,4.15,1.24.79.31,1.61.55,2.43.82a6.08,6.08,0,0,0-.28,1.66,1.59,1.59,0,0,0,.73,1,4,4,0,0,0,1.23.32c-.14.19-.39.36-.41.56A5.13,5.13,0,0,1,69.2,17.21Z"/><path class="cls-9" d="M60.82,59.73a45.53,45.53,0,0,0,4.51,3.14,25.13,25.13,0,0,0,4.24,1.42,9.22,9.22,0,0,0,1.59.45c.94.13,1.89.16,2.84.23l1.17,2a35.49,35.49,0,0,1-4,.09,19.23,19.23,0,0,1-3.73-.8,17.56,17.56,0,0,1-6-3.18c-1-.79-2-1.61-2.91-2.44a2.45,2.45,0,0,1-.38-.6c.63.18,1.57-.2,1.76.9l.1-.84Z"/><path class="cls-5" d="M52.1,65.48c-.11-.76-.21-1.52-1.3-1.43-.19,0-.43-.19-.59-.35-.47-.45-.87-1-1.37-1.38a1.57,1.57,0,0,0-1-.24,9.29,9.29,0,0,0-1.7-1.27,8.55,8.55,0,0,0-2.07-.39l.26-.83c-.47-.06-1.16.63-1.19-.39,3.14.69,6.11,1.71,8.31,4.26a8.14,8.14,0,0,0,2-4,14.47,14.47,0,0,0,.31-1.7c0-.95-.14-1.89-.22-2.83,1.23,0,1.6,1.1,2.27,1.85.55-1,.57-1.31.1-2s-.3-1.4.57-1.87l2.29,4.35c-.33.16-.75.54-1,.44a1.48,1.48,0,0,0-1.47.26h0c-.12-.21-.24-.43-.37-.63a1.48,1.48,0,0,0-.26.13L56,58a49.15,49.15,0,0,1-1.74,4.76A16.16,16.16,0,0,1,52.1,65.48Z"/><path class="cls-6" d="M56.11,49.41c0,.56,0,1.12.07,1.68l.1.34c0,.28,0,.55,0,.82-1,.27-1.07.23-1-.78,0-.78.11-1.56.18-2.44l-1.92-1-.49.84c-.1-.76-.25-1.53-.28-2.29a12.64,12.64,0,0,1,.92-6.4,3.13,3.13,0,0,0,.23-1.14c.08-.83.12-1.66.17-2.49l.92-.44.51,1.16.41-.87h.16c0,.28.07.56.1.83s0,.35,0,.52l-.07.33-.13.34c-.07,1.93-.16,3.86-.2,5.79,0,.63.09,1.27.14,1.91-.47.21-.23.4,0,.59L56,48.89Z"/><path class="cls-10" d="M31.83,41A12.39,12.39,0,0,1,31.76,44,2.16,2.16,0,0,0,32,46c.15.21.42.32.58.53a3.51,3.51,0,0,1,.46.83c-1.05.75-.56,1.68-.32,2.57-.07.21-.15.41-.22.62a2,2,0,0,0-.08,2.69c.07.08.23.16.22.21-.17.83-.37,1.66-.6,2.63l-2-1.66c-.06-.27-.11-.54-.16-.81s-.15-.48-.23-.72c0-.6.06-1.2.08-1.8l.91-.13,0-.22-.88-.35c0-.1,0-.2,0-.3a9.19,9.19,0,0,1,.74-.89A.87.87,0,0,0,30.62,48a8,8,0,0,1-.47-.92l.51-.48L29.39,46l-.74.16.15-.5,1.1-.64-.48-.36-.37-.31c0-.18,0-.36,0-.53a3,3,0,0,0,2.28-2.56C31.37,41.18,31.66,41.09,31.83,41Z"/><path class="cls-1" d="M60.94,8.8,58.71,7.18l-.12,1.16-1,.28L58,6.23l-.66.53c.34-1.65.66-3.3,1-4.94A11,11,0,0,1,58.66.71L59.82.16c1.32,0,1.7.37,1.71,1.68,0,1.7,0,3.39,0,5.08l-.11.35C61.25,7.78,61.09,8.29,60.94,8.8Zm.34-4.38a.74.74,0,0,0-.65-1.06,3,3,0,0,0-.78.09,4.18,4.18,0,0,0,.6.59A4.68,4.68,0,0,0,61.28,4.42Z"/><path class="cls-6" d="M30.15,47.05a8,8,0,0,0,.47.92.87.87,0,0,1-.11,1.26,9.19,9.19,0,0,0-.74.89l-.07,0c-.38-1.56-1.72-1.22-2.77-1.36a12.21,12.21,0,0,0-2,.05l-.69.11A7.9,7.9,0,0,1,22.43,48a1.9,1.9,0,0,1-.31-1.33c0-.16.54-.29.84-.44l.27-.16.52-.06a18.9,18.9,0,0,1,2,.06c.73.08,1.45.27,2.17.38a2.88,2.88,0,0,0,.71-.06,2.41,2.41,0,0,0,.55.47A5.36,5.36,0,0,0,30.15,47.05Z"/><path class="cls-5" d="M69.63,57.15a7.48,7.48,0,0,1-.51-.86c-.17-.41-.35-.81.12-1.2s.85-.85,1.46-.46a4.84,4.84,0,0,0,3.16.5c.64-.05,1.27-.31,1.91-.42s1.46-.23,1.91.28c-.26.68-.52,1.27-.72,1.87a2.11,2.11,0,0,1-2,1.28l-.73.1c-.26-.31-.46-.78-.72-.81-.76-.11-1.67-.81-2.25.35,0,.06-.21,0-.32,0h0c-.07-1.45-.18-1.62-.93-1.55l.44.88Zm6.08-1.5c-1,.58-1.34,1.34-.91,2.1C75.11,57.05,75.38,56.41,75.71,55.65Z"/><path class="cls-11" d="M60.59,44.5l.09-.31-.11-.7c.08-.22.17-.45.25-.68s.19-.33.28-.5c.41-1,.32-1.23-.6-1.67l-.22-.72a1,1,0,0,1-.15-.39c0-.53,0-1.06,0-1.59a9.62,9.62,0,0,1,1.44.25,10.3,10.3,0,0,1,1.35.63l.57.28,1.16.41c-.17.92-.71,1.83-.16,2.79-.69-.26-1.06.14-1.37.66l-.29.39a8.29,8.29,0,0,1-.74,1,5.71,5.71,0,0,1-.9.68l-.56-.2Z"/><path class="cls-12" d="M72,42.16l0-.36c-1-.88-.22-1.71.13-2.61h-1l.56-1.11A2.41,2.41,0,0,1,74,37.76l.12.19A5.34,5.34,0,0,0,75,41.16a3.68,3.68,0,0,1,.31,1.39,2.78,2.78,0,0,1-.06.64c0,.36,0,1-.14,1-.46.19-1.15.39-1.5.18-.73-.45-1.57-1-1.48-2.07Z"/><path class="cls-11" d="M31.83,41c-.17.11-.46.2-.48.32a3,3,0,0,1-2.28,2.56c0-1.11,0-2.22.05-3.33,0-.41,0-.84,0-1.25.16-1.23.34-2.46.51-3.69.25.07.65.07.73.24.47.87,1.06.84,1.78.36.12-.09.32-.07.48-.1l-.33,1.85c-.16.62-.33,1.24-.49,1.86h-.5c0-.08,0-.2-.06-.24a5.51,5.51,0,0,0-.58-.34,2.65,2.65,0,0,0-.14.26,2.82,2.82,0,0,0,.53.31.68.68,0,0,0,.25,0Z"/><path class="cls-13" d="M53.05,48.9l.49-.84,1.92,1c-.07.88-.17,1.66-.18,2.44,0,1,.06,1.05,1,.78l.12.7c-.87.47-1.07,1.11-.57,1.87s.45,1-.1,2c-.67-.75-1-1.86-2.27-1.85l-.09-1.34,0-.51C53.3,51.72,53.18,50.31,53.05,48.9Z"/><path class="cls-12" d="M65.88,42.44l-.48,0c-.06-.27-.11-.55-.17-.84l1.68.3V39.52l.67-.07.07.5a6.52,6.52,0,0,1,1.62,0,6.67,6.67,0,0,1,1.4.8L70.1,42a9.3,9.3,0,0,0-.32,1.44c-.07.81-.25,1.43-1.16,1.65a1.66,1.66,0,0,1-1.86-1.2,4.12,4.12,0,0,0,.29-1c0-.22-.18-.61-.33-.63S66.16,42.36,65.88,42.44Z"/><path class="cls-12" d="M33.18,79.59c-.46,0-.7-.2-.29-.57s.67-.81,1.35-.49c.28.13.71-.08,1.08-.13a5.77,5.77,0,0,1-.43-1c0-.16.11-.38.17-.57l1,.67.34.47.34-.38.68.07v.87a4.06,4.06,0,0,0,.49.44s.19-.14.28-.22l-.27-.22v-.72l.64,0h.18c0,.1,0,.21-.07.32a2,2,0,0,0,1.26,2.55c0,.49.89.67.52,1.33-.7-.22-1.38-.48-2.09-.65s-1.41-.24-2.12-.36l-.35-.18c-.26-.49-.43-1.18-1.22-.58l-.82-.24L33.53,80l-.35,0v-.32l.48-.32-.24-.2Zm4.36,1.31.21.13.27-.47-.19-.1Z"/><path class="cls-14" d="M41.61,29a18.12,18.12,0,0,1,.16,1.94,3.3,3.3,0,0,1-.36,1l.34,1.3-.16.12a2.27,2.27,0,0,1-.46-.47c-.3-.51-.55-1-1.3-.92-.16,0-.37-.52-.56-.79l-.36-.5L38.67,30l-.11-.5V29a1.19,1.19,0,0,1,.08-.16l2.89-.68C41.55,28.45,41.58,28.73,41.61,29Z"/><path class="cls-6" d="M64.2,31l.85.17.19.18c-2.16,1.13-4.33,2.26-6.5,3.37-.81.42-1.64.79-2.46,1.18l-.34.15-.77-.83,1.3-.38a15.23,15.23,0,0,1,2.84-1.6,5.31,5.31,0,0,1,1.79,0c0-.06-.07-.23,0-.25a11.22,11.22,0,0,1,1.8-1.17A2.71,2.71,0,0,0,64.2,31Z"/><path class="cls-15" d="M70.1,42l.57-1.18a6.67,6.67,0,0,0-1.4-.8,6.52,6.52,0,0,0-1.62,0l-.07-.5c.54-.2,1.07-.42,1.62-.6.8-.27,1.61-.51,2.42-.77l-.56,1.11h1c-.35.9-1.13,1.73-.13,2.61Z"/><path class="cls-5" d="M32.65,36.09c-.16,0-.36,0-.48.1-.72.48-1.31.51-1.78-.36-.08-.17-.48-.17-.73-.24.06-.27.11-.54.18-.8a1.68,1.68,0,0,1,2.25-1.18c.2.08.31.41.46.63s.09.44.13.67Z"/><path class="cls-11" d="M75.17,67,74,65a4.45,4.45,0,0,1,3-.53c.35.44.67.9.37,1.5Z"/><path class="cls-6" d="M66.91,39.52v2.33l-1.68-.3c.06.29.11.57.17.84l-.86-.09c-.55-1,0-1.87.16-2.79Z"/><path class="cls-1" d="M48.19,69.65a3.6,3.6,0,0,0,.47-.39c.08-.1,0-.35.12-.39.93-.45,1-1.62,1.88-2.14.47-.29,1.15-.31,1.35-1a4.32,4.32,0,0,1-1.28,2.74l-.51.31-2.35,2.4L48,69.81Z"/><path class="cls-5" d="M60.82,59.73l-.79.36-.1.84c-.19-1.1-1.13-.72-1.76-.9l0,0a2.91,2.91,0,0,0-.28-.83l.69.12a.64.64,0,0,0-.32-.56s-.22.2-.37.44L57,58.85l-.17-.19c0-.43.18-.51.58-.44A1.31,1.31,0,0,0,59,57.49C59.6,58.24,60.21,59,60.82,59.73Zm-1.38-.81s-.07.1-.06.13.09.05.14.07.06-.11,0-.14S59.48,58.94,59.44,58.92Z"/><path class="cls-16" d="M65.54,31c.26-.68.58-1.36.78-2.07s.69-.57,1.19-.6A1.2,1.2,0,0,0,68.3,28a.79.79,0,0,1,1.11-.23C68.6,29.46,67,30.11,65.54,31Z"/><path class="cls-17" d="M71,57.82c.11,0,.29,0,.32,0,.58-1.16,1.49-.46,2.25-.35.26,0,.46.5.72.81l.73-.1a5,5,0,0,1-1.74.44A10.9,10.9,0,0,1,71,57.82Z"/><path class="cls-18" d="M31.83,39.8c.16-.62.33-1.24.49-1.86l1.2.34L32.1,40.61l-.2,0Z"/><path class="cls-15" d="M36.23,81.1c.71.12,1.43.19,2.12.36s1.39.43,2.09.65l.51,0h0v.32c-1.1-.26-2.21-.5-3.3-.78C37.16,81.52,36.47,81.88,36.23,81.1Z"/><path class="cls-9" d="M59,57.49a1.31,1.31,0,0,1-1.63.73c-.4-.07-.61,0-.58.44l-.5-.66a1.48,1.48,0,0,1,1.47-.26c.22.1.64-.28,1-.44Z"/><path class="cls-11" d="M30.15,47.05a5.36,5.36,0,0,1-1-.22,2.41,2.41,0,0,1-.55-.47.41.41,0,0,1,0-.16l.74-.16,1.27.53Z"/><path class="cls-17" d="M69.63,57.15h.84L70,56.27c.75-.07.86.1.93,1.55Z"/><path class="cls-7" d="M48,69.81l-.15,1.39a.14.14,0,0,1-.06.11l-.46,0c-.08-.25-.31-.61-.22-.74A4,4,0,0,1,48,69.81Z"/><path class="cls-11" d="M29.05,44.39l.37.31.48.36-1.1.64Z"/><path class="cls-6" d="M65.88,42.44c.28-.08.58-.26.84-.21s.34.41.33.63a4.12,4.12,0,0,1-.29,1c0-.41,0-.83-.06-1.28Z"/><path class="cls-15" d="M34.66,80.34c.79-.6,1,.09,1.22.58l-.33.07H35.2Z"/><path class="cls-18" d="M77.38,65.94c.3-.6,0-1.06-.37-1.5.46,0,.74.15.82.67C77.88,65.46,78,65.94,77.38,65.94Z"/><path class="cls-19" d="M71.64,26,73,24.47Z"/><path class="cls-19" d="M52.22,87l1.27,1.17Z"/><path class="cls-6" d="M29.78,50.42l.88.35,0,.22-.91.13C29.75,50.89,29.77,50.65,29.78,50.42Z"/><path class="cls-19" d="M75.73,18.73l.12-1.52Z"/><path class="cls-9" d="M58,59.19l.18.81L57,58.85Z"/><path class="cls-20" d="M46.15,84h1.37A.88.88,0,0,1,46.15,84Z"/><path class="cls-19" d="M59.82.16,58.66.71C58.8,0,59.19-.17,59.82.16Z"/><path class="cls-9" d="M56,58l-.3-.52a1.48,1.48,0,0,1,.26-.13c.13.2.25.42.37.63Z"/><path class="cls-20" d="M32.32,58.35l.08-.61.45.43Z"/><path class="cls-20" d="M32.32,60.71v0Z"/><path class="cls-18" d="M60.28,39.92l.22.72C60.06,40.51,59.73,40.35,60.28,39.92Z"/><path class="cls-12" d="M41,82.42V82.1l.65,0,.18.29Z"/><path class="cls-19" d="M75.84,15.86,75.68,15C76.18,15.21,76.07,15.52,75.84,15.86Z"/><path class="cls-19" d="M51.56,86.16l.56.82C51.49,87,51.57,86.55,51.56,86.16Z"/><path class="cls-18" d="M35.7,60.31c.34,0,.71-.53,1,.07Z"/><path class="cls-20" d="M32.21,62.23l.12-.85Z"/><path class="cls-19" d="M60.57,43.49c0,.23.08.47.11.7C60.65,44,60.61,43.72,60.57,43.49Z"/><path class="cls-19" d="M29.65,52.92c.08.24.15.48.23.72C29.8,53.4,29.73,53.16,29.65,52.92Z"/><path class="cls-19" d="M30,59c0,.23.08.46.11.69C30.06,59.48,30,59.25,30,59Z"/><path class="cls-20" d="M44.81,83.31l.74.46Z"/><path class="cls-20" d="M24.24,48.89l.69-.11Z"/><path class="cls-18" d="M32.68,34.91c0-.23-.09-.45-.13-.67C32.59,34.46,32.64,34.68,32.68,34.91Z"/><path class="cls-20" d="M55.22,94.07l.72-.31Z"/><path class="cls-19" d="M74.11,38,74,37.76l.39-.06Z"/><path class="cls-18" d="M56.17,37.78c0-.17,0-.35,0-.52C56.19,37.43,56.18,37.61,56.17,37.78Z"/><path class="cls-19" d="M63.54,39.1,63,38.82Z"/><path class="cls-19" d="M53.76,89.2v0Z"/><path class="cls-5" d="M38.67,30l.24.69Z"/><path class="cls-18" d="M56.11,49.41,56,48.89Z"/><path class="cls-18" d="M23.75,46l-.52.06.27-.32Z"/><path class="cls-18" d="M29.48,75.54l.16.51Z"/><path class="cls-18" d="M55.93,46.74c-.25-.19-.49-.38,0-.59C55.92,46.35,55.92,46.54,55.93,46.74Z"/><path class="cls-19" d="M61.1,42.31c-.09.17-.18.34-.28.5C60.92,42.65,61,42.48,61.1,42.31Z"/><path class="cls-16" d="M65.24,31.38l-.19-.18.48-.18Z"/><path class="cls-20" d="M50.22,68.8l.51-.31Z"/><path class="cls-18" d="M55.94,36.08l.34-.15c-.06.17-.12.34-.19.5h-.16Z"/><path class="cls-20" d="M61.52,8.79,61,9.11V8.77Z"/><path class="cls-18" d="M56,38.45l.13-.34Z"/><path class="cls-20" d="M62.88,43.35l.29-.39Z"/><path class="cls-19" d="M60.59,44.5l.09.35-.28-.13Z"/><path class="cls-19" d="M27.92,25.12c0,.12,0,.25,0,.37l-.22-.2Z"/><path class="cls-20" d="M61.4,7.27l.11-.35Z"/><path class="cls-18" d="M56.28,51.43l-.1-.34C56.22,51.2,56.25,51.32,56.28,51.43Z"/><path class="cls-18" d="M33.53,80l.31.15Z"/><path class="cls-18" d="M35.2,81h.35a2,2,0,0,1-.19.22Z"/><path class="cls-18" d="M57.74,100c0-.12,0-.24,0-.35C57.73,99.76,57.74,99.88,57.74,100Z"/><path class="cls-20" d="M49.07,12.51l-.39.26Z"/><path class="cls-19" d="M75.22,20.24l.12-.15Z"/><path class="cls-15" d="M72,42.16l.12.17Z"/><path class="cls-19" d="M75.5,13.84l-.11-.18Z"/><path class="cls-4" d="M38,55.47c0-.11,0-.21,0-.32l.27-.68c.7.24,1,.67.59,1.38a1.86,1.86,0,0,0-.09.48Z"/><path class="cls-4" d="M38.74,57.33v1.19l-.6-.05V57.24Z"/><path class="cls-21" d="M39.74,73.68c.07-.16.13-.33.19-.5,1-.14,1.09-.92,1.16-1.7h0l.67-.89c.33-.38.67-.76,1-1.15L44.64,68a4.94,4.94,0,0,1,.55-.32c.15-.09.39-.13.44-.26a2.75,2.75,0,0,1,1.7-1.36c.89,0,.3-.74.66-1.06.48.44.86.26,1.42-.12.4-.27,1.14,0,1.72,0l0,.39-1.49.13c.45.72.71,1.16-.08,1.81a8,8,0,0,0-1.4,2.46l-.17.16a4,4,0,0,0-.89.78c-.09.13.14.49.22.74.09,1-.84,1.17-1.36,1.68l-.33.34-.16,0-.18-.19a1,1,0,0,0-1.83-.05,1.16,1.16,0,0,1-1.38.73c-.52-.08-.74.15-.67.67-1,.16-.52-.72-.76-1.09Z"/><path class="cls-22" d="M38.92,75.55l.21-.51c.87-.55,1.07-.54,1.85.35a8.68,8.68,0,0,1,.85,1.45c-1.11,0-1.33.68-1.6,1.41-.16.44,0,.54.41.68a30.26,30.26,0,0,1,3.17,1.32c.24.12.31.6.45.91l-.82.31-1.17.43-.67.23-.65,0h0a3.9,3.9,0,0,1-.17-.81c0-.7-.37-.68-.86-.5a2,2,0,0,1-1.26-2.55c0-.11.05-.22.07-.32s-.09-.23-.14-.34V75.88l.16-.17h0Z"/><path class="cls-11" d="M43,78.24c.49.17,1,.36,1.46.51s1.18.28,1.73.5c1,.41,2.05.88,3.08,1.33-.69.17-1.38.38-2.08.5-.22,0-.48-.19-.73-.29a2.19,2.19,0,0,0-.8-.33c-.73,0-.73,0-.88-.68-.68-.36-1.32-.7-2-1.07A3.23,3.23,0,0,1,43,78.24Z"/><path class="cls-11" d="M49.36,80.63a13.59,13.59,0,0,1,1.54.59c.7.37,1.37.81,2.05,1.22a4.73,4.73,0,0,1-.9.16c-.21,0-.59-.1-.62-.22-.21-.89-.79-.75-1.41-.57l-.59.16Z"/><path class="cls-4" d="M44.49,74.7l-.5.85a.64.64,0,0,1-.24,0c-.39-.18-1.11-.21-.88-.84s.68-1,1.3-.76Z"/><path class="cls-4" d="M41.44,74.53c-.07-.52.15-.75.67-.67l-.11.86Z"/><path class="cls-4" d="M45.32,73.18l.18.19-.52.49-.32-.79Z"/><path class="cls-4" d="M55.94,36.08v.35l-.41.87L55,36.14l-.92.44L51.77,38c-.64-.09-.8.33-.87.83h0c-.37,0-.73-.06-.7.48h0l-.43.44-.23.42c-1.33-.2-1.89,1-2.58,1.66-.47.48-.83,1.18-1.35,1.7-.25.25-.75.52-.73.72.14,1-.77,1.34-1.17,2-.07.12-.2.25-.18.35.26,1.22-.9,1.76-1.25,2.68a1.59,1.59,0,0,1-.07-.52A1.35,1.35,0,0,0,41.27,47a28,28,0,0,1,1.29-2.77,8.45,8.45,0,0,1,2.5-3.21c.21-.2.15-.65.22-1l.12-.26.27-.49c.67-.59,1.31-1.22,2-1.76a39.67,39.67,0,0,1,3.55-2.49c1.52-.91,3.14-1.66,4.69-2.53a1.59,1.59,0,0,0,.63-.81,3.26,3.26,0,0,0,0-1l.83.84,1.54-1a20,20,0,0,0,2-.79c.81-.43,1.56-1,2.33-1.45l.53.38-.68.67-.09-.59-.28.12.37.47,1,1.69a2.71,2.71,0,0,1-1.33.78A11.22,11.22,0,0,0,61.07,33s0,.19,0,.25a5.31,5.31,0,0,0-1.79,0,15.23,15.23,0,0,0-2.84,1.6l-1.3.38Zm-8.83,4.86s-.1-.07-.13-.06,0,.09-.07.14.11.06.14,0S47.09,41,47.11,40.94Z"/><path class="cls-1" d="M70.58,18.6a5.92,5.92,0,0,0-1,.19c-.81.29-1.6.63-2.41.93a1.43,1.43,0,0,1-.5,0,2.21,2.21,0,0,1,1.54-1.85c.35-.09.68-.21,1-.31l1.33.43Z"/><path class="cls-12" d="M65.19,26.43c1-1.27,2-2.55,3-3.81a8.93,8.93,0,0,1,.88-.86,1.81,1.81,0,0,1-.64,1.82A5.06,5.06,0,0,0,67,25.63c-.23.57-1,.92-1.58,1.36Z"/><path class="cls-18" d="M70.62,18l-1.33-.43-.09-.33a5.13,5.13,0,0,0,2-3.2c0-.2.27-.37.41-.56a2.68,2.68,0,0,1,.12.87c-.25,1.14-.54,2.27-.84,3.4C70.89,17.82,70.72,17.89,70.62,18Z"/><path class="cls-12" d="M63.34,28.29l.83-1,1.21-.15c.21.4.25.7-.35.68a1.16,1.16,0,0,0-1.16.84Z"/><path class="cls-23" d="M65.38,27.15l-1.21.15,1-.87.21.56C65.39,27.05,65.39,27.1,65.38,27.15Z"/><path class="cls-1" d="M70.46,19.06c0-.07.07-.15.1-.23C70.53,18.91,70.49,19,70.46,19.06Z"/><path class="cls-11" d="M64.88,20.41a10.57,10.57,0,0,1-4.78,2.25,7.25,7.25,0,0,0-.78.28l-.18-.34.17-.17.17-.67v-.85a1,1,0,0,1,1-.4,26,26,0,0,0,3-.29A6.1,6.1,0,0,1,64.88,20.41Z"/><path class="cls-3" d="M59.48,20.91v.85l-.17.67-.17.17-1.06.59c-.72-.13-.72-.13-1.29.59h-.33v-1l.17-.84h0l.26-.14-.27-.2-.17-.16c0-.62.17-1.18.85-1.35A2.47,2.47,0,0,1,59.48,20.91Z"/><path class="cls-23" d="M50.71,20.05c-1.06.3-1.76,0-2-.87-.07-.23,0-.73.18-.77.71-.23,1.44-.34,2.17-.5.06.62.52,1.36-.53,1.61Z"/><path class="cls-23" d="M52.58,17.9l1,0C53.23,18.5,52.91,18,52.58,17.9Z"/><path class="cls-23" d="M51.57,20.16l-.52-.1Z"/><path class="cls-11" d="M56.6,30.69a24.74,24.74,0,0,1-.41-2.94,33.56,33.56,0,0,1,.26-3.46c0-.18,0-.35,0-.52h.33c.28.21.77.37.82.63.2.9.85.7,1.43.73,0,1.45-.1,2.89-.14,4.33,0,.36.05.71.07,1.06l-1.54,1Z"/><path class="cls-17" d="M36.74,39.3l-1,1.4c-.09-.24-.17-.49-.25-.73l-.15-.34v-.34c.18-.63.45-.91,1-.25A1.77,1.77,0,0,0,36.74,39.3Z"/><path class="cls-17" d="M35,38.12l-.51-.68,1-.12Z"/><path class="cls-24" d="M34.7,39.12l-.65-.59.81-.08Z"/><path class="cls-4" d="M56.62,21.93l-.17.84C56.53,22.49,55.94,22.08,56.62,21.93Z"/><path class="cls-4" d="M56.61,21.59l.27.2-.26.14Z"/><path class="cls-16" d="M47.33,66.09a2.75,2.75,0,0,0-1.7,1.36c-.05.13-.29.17-.44.26a4.94,4.94,0,0,0-.55.32l-1.88,1.42,3.83-4.15c.62-.67.6-.78-.22-1.09a2.21,2.21,0,0,1-.4-.28,1.49,1.49,0,0,1,.46-.31,1.14,1.14,0,0,1,.73,0,.72.72,0,0,1,.27.59C47.43,64.83,47.37,65.46,47.33,66.09Z"/><path class="cls-21" d="M41.27,47a1.35,1.35,0,0,1,.94,1.68,1.59,1.59,0,0,0,.07.52v.34h-.16l-1.82.6-.54-.61,1-1.34.16-1Z"/><path class="cls-6" d="M42.68,51.67l-1.26,4.14a2.94,2.94,0,0,1,0-2.36c.23-.41-.13-1.14-.18-1.73a2.17,2.17,0,0,1,.18-.62Z"/><path class="cls-4" d="M38.21,52.78c.24-.67.47-1.35.7-2l.35-.51.63.24-.34.42c-.15.18-.44.38-.41.53.07.41.09.92.7,1a3.82,3.82,0,0,1,.89.27,2.3,2.3,0,0,1-.12.44,5.26,5.26,0,0,0-.93-.29A14.17,14.17,0,0,0,38.21,52.78Z"/><path class="cls-4" d="M40.77,48.23l-1,1.34h-.53a.08.08,0,0,1,0-.09c.13-.49.26-1,.4-1.56l.67,0,.51.34Z"/><path class="cls-4" d="M42.68,51.67l-1.25-.57.68-1.52h.16l.54.47c-.86.52-.87.74-.18,1.21l.06.38Z"/><path class="cls-4" d="M38.15,54.14c0-.34,0-.68,0-1l1.28.32,0,.35Z"/><path class="cls-1" d="M38.24,54.47l-.27.68c0-.23.07-.45.1-.68Z"/><path class="cls-8" d="M39.26,50.25l-.35.51.27-.74Z"/><path class="cls-6" d="M41.31,56.3v0Z"/><path class="cls-24" d="M50.87,77.42l-.66-.36c.13-.55.16-1-.57-1.21-.22,0-.38-.44-.52-.7,0-.08,0-.32.11-.34a.5.5,0,0,1,.42,0c.34.36.61.79,1,1.13A1.12,1.12,0,0,1,50.87,77.42Z"/><path class="cls-24" d="M52.37,78.29l-1-.66.62-.51Z"/><path class="cls-4" d="M45.66,73.35,46,73Z"/><path class="cls-11" d="M34.78,41.84l-.43.82c-.06.12-.11.23-.17.34s-.11.34-.17.5c-.1-.33-.38-.78-.26-1S34.43,42.06,34.78,41.84Z"/><path class="cls-4" d="M40.93,47.21l-.16,1h0l-.35-.34Z"/><path class="cls-11" d="M32.72,42.74c-.07-.16-.15-.26-.13-.32s.15-.13.23-.19.15.15.15.22S32.85,42.6,32.72,42.74Z"/><path class="cls-10" d="M40.42,47.89l.35.34-.51-.34Z"/><path class="cls-6" d="M35.37,39.63l.15.34Z"/><path class="cls-24" d="M61.28,4.42A4.68,4.68,0,0,1,60.45,4a4.18,4.18,0,0,1-.6-.59,3,3,0,0,1,.78-.09A.74.74,0,0,1,61.28,4.42Z"/><path class="cls-17" d="M75.71,55.65c-.33.76-.6,1.4-.91,2.1C74.37,57,74.69,56.23,75.71,55.65Z"/><path class="cls-8" d="M31.33,39.8a.68.68,0,0,1-.25,0,2.82,2.82,0,0,1-.53-.31,2.65,2.65,0,0,1,.14-.26,5.51,5.51,0,0,1,.58.34c.05,0,0,.16.06.24Z"/><path class="cls-5" d="M53.41,53.63l0-.51Z"/><path class="cls-2" d="M39.92,80.78c.49-.18.87-.2.86.5a3.9,3.9,0,0,0,.17.81l-.51,0C40.81,81.45,40,81.27,39.92,80.78Z"/><path class="cls-1" d="M37.41,77.71l.5.15v.72h-.5Z"/><path class="cls-14" d="M37.4,78.58h.5l.27.22c-.09.08-.25.24-.28.22A4.06,4.06,0,0,1,37.4,78.58Z"/><path class="cls-1" d="M36.05,77.55l.68.09-.34.38Z"/><path class="cls-14" d="M37.54,80.9l.29-.44.19.1-.27.47Z"/><path class="cls-14" d="M33.18,79.59l.24-.52.24.2-.48.32Z"/><path class="cls-14" d="M38.59,77.57c0,.11.09.22.14.34h-.18Z"/><path class="cls-9" d="M57.77,59.15c.25-.22.43-.44.47-.42a.64.64,0,0,1,.32.56Z"/><path class="cls-9" d="M59.44,58.92s.12,0,.13.06,0,.09,0,.14-.12,0-.14-.07S59.42,59,59.44,58.92Z"/><path class="cls-2" d="M41.09,71.48c-.07.78-.16,1.56-1.16,1.7C40.32,72.62,40.71,72.05,41.09,71.48Z"/><path class="cls-2" d="M41.76,70.6l-.67.89Z"/><path class="cls-2" d="M38.75,75.71l-.16.17Z"/><path class="cls-2" d="M38.92,75.55l-.17.16Z"/><path class="cls-23" d="M42.63,51.26c-.69-.47-.68-.69.18-1.21l-.54-.47v-.34c.35-.92,1.51-1.46,1.25-2.68,0-.1.11-.23.18-.35.4-.65,1.31-1,1.17-2,0-.2.48-.47.73-.72.52-.52.88-1.22,1.35-1.7.69-.7,1.25-1.86,2.58-1.66-.34.52-.64,1.07-1,1.57-.61.78-1.26,1.53-1.88,2.31a11.83,11.83,0,0,0-1.07,1.48,12.17,12.17,0,0,0-1.87,4.13A6.16,6.16,0,0,1,43,51.26Z"/><path class="cls-23" d="M51.77,38l-.87.83C51,38.3,51.13,37.88,51.77,38Z"/><path class="cls-3" d="M63.19,29.34l-.37-.47.28-.12.09.59Z"/><path class="cls-23" d="M50.9,38.8l-.7.48C50.17,38.74,50.53,38.77,50.9,38.8Z"/><path class="cls-23" d="M50.2,39.28l-.43.44Z"/><path class="cls-8" d="M45.4,39.81l.27-.49Z"/><path class="cls-23" d="M47.11,40.94s0,.11-.06.13-.09,0-.14,0,0-.12.07-.14S47.07,40.92,47.11,40.94Z"/><path class="cls-4" d="M59,25.14c-.58,0-1.23.17-1.43-.73,0-.26-.54-.42-.82-.63.57-.72.57-.72,1.29-.59l1.06-.59.18.34C59.23,23.67,59.13,24.41,59,25.14Z"/><path class="cls-4" d="M59.31,22.43l.17-.67Z"/><path class="cls-8" d="M34.18,43c.06-.11.11-.22.17-.34Z"/><path class="cls-6" d="M42.63,51.26H43c-.09.13-.18.25-.26.38Z"/></g></svg>