<svg xmlns="http://www.w3.org/2000/svg" viewBox="0 0 100 100"><defs><style>.cls-1{fill:#6fb0b2;}.cls-2{fill:#b0d3d5;}.cls-3{fill:#78b5b6;}.cls-4{fill:#5ca5a8;}.cls-5{fill:#66abad;}.cls-6{fill:#75b3b5;}.cls-7{fill:#82babc;}.cls-8{fill:#6caeb0;}.cls-9{fill:#88bebf;}.cls-10{fill:#72b2b3;}.cls-11{fill:#8fc2c3;}.cls-12{fill:#96c5c7;}.cls-13{fill:#5ea7a9;}.cls-14{fill:#99c7c8;}.cls-15{fill:#a1cbcd;}.cls-16{fill:#9dc9cb;}.cls-17{fill:#aad0d2;}.cls-18{fill:#80b9ba;}.cls-19{fill:#8cc0c1;}.cls-20{fill:#a6ced0;}.cls-21{fill:#a4cdcf;}</style></defs><g id="Ebene_2" data-name="Ebene 2"><path class="cls-1" d="M14.37,68.52c-.16.49-.33,1-.49,1.45l-1,.9.47.42c-.12.42-.23.83-.34,1.25-.25.22-.64.38-.74.66a11.19,11.19,0,0,0-.47,2c-.35,2.22-.68,4.45-1,6.79l-.88-.25-.23-1.1-1.35.76c.16-1.73.34-3.27.41-4.81a9.54,9.54,0,0,0-.26-1.9c.47-2.35.79-4.74,1.44-7,.88-3.12,2-6.19,3.08-9.24A25.42,25.42,0,0,1,15,54.82c.05-.08.26-.07.4-.1a7.15,7.15,0,0,1,1.2-.95,4,4,0,0,1,1.82-.59c.27,0,.53.74.8,1.14-.62,2.13-1.19,4.27-1.87,6.37-.55,1.69-1.24,3.34-1.87,5A2.18,2.18,0,0,0,14.37,68.52Z"/><path class="cls-2" d="M24,66.57c-.12-2.59-.79-5.16-.2-7.8a10.8,10.8,0,0,0-.14-2.93c1.3,0,1.43.18,1.39,1.41,1,.08,1.25-.45.9-1.82.32-.15.86-.25.91-.46A24.06,24.06,0,0,0,27.57,51c.07-1.11.36-1.44,1.41-1a6.1,6.1,0,0,1,1.19.62,1.26,1.26,0,0,0,2-.7.81.81,0,0,0-.21-.7c-.94-.54-1.91-1-2.87-1.53.47-.82-.17-1.24-.63-1.72l.85-.42.42.53.63.07a8.16,8.16,0,0,0,4.5,1.34,2.76,2.76,0,0,1,.94.26c-.21.18-.4.47-.64.52-1,.2-.94.65-.35,1.29a1.28,1.28,0,0,1,.17.45l-.85.55c.41.21.79.09,1,.23a1.34,1.34,0,0,0,1.73-.11A1,1,0,0,1,38.4,51a1.09,1.09,0,0,0,1.52.45,30.1,30.1,0,0,0,3.26-1.75c.24-.14.29-.59.43-.89,1.29-.06,1.29,1.06,1.58,1.86,0,.11-.56.66-.66.61-1.31-.7-2.49.14-3.72.25-1.69.15-3.39.24-5.08.43a14,14,0,0,0-2.07.53L31.85,53c-.46.11-1.15,0-1.34.33a4.46,4.46,0,0,0-.59,1.89c-.39,3-.68,6-1.09,9-.21,1.57-.58,3.12-.87,4.67-.34.5-.67,1-1.08,1.59a1.48,1.48,0,0,1-1.52-1.38,3.2,3.2,0,0,1,.25-1.06l1,.15c.88-1,.17-2.27.65-3.42.39-.94-.33-2.35-.55-3.46l-2,.71-.41-.74a5.16,5.16,0,0,0-.13,2.42c.1.36.84.53,1.51.91l-1.17.89-.1-.21Z"/><path class="cls-3" d="M48,50.08l.15-1c.09-.15.19-.3.28-.46a2.62,2.62,0,0,1,2.46-1.37c.57-.05,1.15-.17,1.72-.26l-.33.86c1,.09,2-.57,2.55.26l1.91-.55c.49-.14,1-.28,1.5-.38.35-.07.72-.05,1.08-.11,1.34-.24,2.79.91,3.9-.25a13.69,13.69,0,0,0,2.1,1.14c1.4.47,2.85.8,4.33,1.21l.49-.56h0c.31.59-.11,1.48.89,1.82a7.77,7.77,0,0,1,1.71,1.26c-.16.76.8.8,1.3,1.24.76,1.66.72,2.13-.33,4.77a8,8,0,0,1-1.54.28,1.26,1.26,0,0,1-.94-.42,7.43,7.43,0,0,1-1-2c-.91-3.11-3.31-4.3-6.1-4.93a7.74,7.74,0,0,0-2.07.16,2.52,2.52,0,0,1-1.32-.07c-1.8-1.06-3.69-.29-5.53-.38-1.57-.08-3.13-.2-4.7-.31-.43-.39-.86-.66-1.29,0a.34.34,0,0,1-.17.08Z"/><path class="cls-4" d="M67.14,21.81c-.08.22-.15.44-.22.65-.48.23-.47.45,0,.66v1.7l-.68.4v-1a5.34,5.34,0,0,0-1.46.42c-.31.19-.71.72-.64,1,.24,1,.95,2-.2,2.91-.09.06,0,.33,0,.49a7,7,0,0,1-.39,1.3c-.18.41-.55.74-.71,1.16a1.58,1.58,0,0,1-2.17,1l.25-1.24c.9-.3.72-.88.39-1.51l.24-1.7a3.32,3.32,0,0,0,.63,0c.26,0,.74-.12.74-.2,0-.4,0-1-.18-1.15s-.86-.14-1.31-.19c0-.64.11-1.27.16-1.91.05-.8.09-1.59.14-2.39l.18-2.45c0-.26,0-.53,0-.79l0-.36c0-.72-.07-1.44-.11-2.16l-.12-1.26a2.35,2.35,0,0,0-.25-2.38c0-.13,0-.26,0-.39,0-.43,0-.87.07-1.31,0-.24-.05-.49-.07-.74a6.86,6.86,0,0,1,.86-1.52c.15-.16.72,0,1.06.12.13,0,.15.4.22.62l.36.11c.16-.41.35-.81.47-1.23a5.16,5.16,0,0,0,.1-.89l.36.38L66,9c.26.42.51.84.77,1.25l-.59,2.07c.1.75.18,1.78.39,2.79.25,1.19.62,2.35.94,3.52l-.34,1.7-.14.65v.31ZM62.65,28.3c-.18.48-.42.87-.34,1a3.39,3.39,0,0,0,.9.55l.21-.28Z"/><path class="cls-5" d="M90.16,22.66l-.18.46-1.1,1-.17.08a3.21,3.21,0,0,0-2.31,1.72l-.8.25c-.55-.08-1.24-.42-1.61-.19a2,2,0,0,1-2.52-.06c-.36-.28-.76-.53-1.14-.79l.14-.29h-.83l-1.8-1.1.59-.76c-.19-.6-.5-1.06-.38-1.35a1.29,1.29,0,0,1,1-.6,1.6,1.6,0,0,1,1,.45c1,.81,1.67.72,2.39-.4l.78-.42.62.7-.14-1.2c1.92-1.54,3.14-3.88,5.47-5a3.72,3.72,0,0,0,.71-.62c.11-.14.22-.28.34-.41l.54-.09c-.08.33-.15.66-.25,1.07l.8.28-.09-.33a6.26,6.26,0,0,0,1.11-.77,1.56,1.56,0,0,0,.52-1c0-.66.19-1,.83-.77a6.6,6.6,0,0,1,1.11.59l-.6,1.09,1.75.09c-.32.66-.29,1.59-1.29,1.74l-.11-.85-.78.34-1-.76c-.14.4-.31.78-.42,1.19a3.17,3.17,0,0,0-.07.65l-1.37.5,1,1.52a18.77,18.77,0,0,1,1.32-1.78c.23-.25.29-1.22,1-.42h0l-.2.24c-1.12,1.85-2.25,3.69-3.38,5.54Zm.73-2.84.73-.68-.73-.77Z"/><path class="cls-6" d="M29.31,45.59l-.85.42-1.07-.87-.21-1.33L28.42,42l.12.34h1.67l3.24-.63.9-.09c2.42.22,4.63-.73,6.93-1.23s4.92-.88,7.37-1.36c1.57-.31,3.12-.7,4.67-1-.14.41-.16,1-.43,1.18-1.3.64-1.2,1.9-1.46,3a4.91,4.91,0,0,0-1.67.32,3.79,3.79,0,0,1-3.12.74c-1.3-.39-2.2.34-3.23.81L43,44l-2.33.64-.82,0-.63,0-.36.08-.69.13-3.93.28-.52.25-.62.07-1.27.16-.42.06-1.67-.16Z"/><path class="cls-7" d="M82.4,21.07c-.72,1.12-1.39,1.21-2.39.4A1.6,1.6,0,0,0,79,21a1.29,1.29,0,0,0-1,.6c-.12.29.19.75.38,1.35l-.59.76,1.8,1.1a5.9,5.9,0,0,1-1,0,5.25,5.25,0,0,1-.92-.38,18.46,18.46,0,0,1-7.62-4.74,26.63,26.63,0,0,0-2.35-1.76c-.07.26-.12.48-.18.7-.32-1.17-.69-2.33-.94-3.52-.21-1-.29-2-.39-2.79l.59-2.07a34.16,34.16,0,0,0,3.37,4A55.44,55.44,0,0,0,76.4,19a27.31,27.31,0,0,0,4.66,2.22C81.42,21.38,82,21.13,82.4,21.07Z"/><path class="cls-2" d="M19.17,54.32c-.27-.4-.53-1.14-.8-1.14a4,4,0,0,0-1.82.59,7.15,7.15,0,0,0-1.2.95c.31-.53.35-.93-.41-1s-1.43-.31-2.16-.4-1.29-.19-1.45-1.08c0-.2-.62-.38-1-.43-.69-.09-1.41,0-2.09-.12a1.68,1.68,0,0,1-1.48-2,2,2,0,0,1,2.15-1.3c1.88.33,3.75.75,5.65,1a2.34,2.34,0,0,0,1.64-.41,5.4,5.4,0,0,1,3.33-1.29,6,6,0,0,0,1.52-.35c.14.93.29,1.85.43,2.78a12,12,0,0,1-2.73.81A3,3,0,0,0,16.71,52c.14.08.2.14.25.14a1.79,1.79,0,0,0,.4-.09c2.12-.6,4.21-1.32,6.47-1,0,.58,0,1.08-.74,1.23-.22,0-.4.6-.48.95,0,.09.38.26.54.44a2.75,2.75,0,0,1,.31.59Z"/><path class="cls-8" d="M60.66,32.49a1.58,1.58,0,0,0,2.17-1c.16-.42.53-.75.71-1.16a7,7,0,0,0,.39-1.3c0-.16-.07-.43,0-.49,1.15-.92.44-1.9.2-2.91-.07-.27.33-.8.64-1a5.34,5.34,0,0,1,1.46-.42v1l.68-.4c0,1.6,0,3.2,0,4.8,0,.14-.06.3,0,.42.64,1.61-.35,2.8-1,4a42.45,42.45,0,0,1-2.29,3.62,4,4,0,0,1-1,.79c0-1.12-.88,0-1.12-.54a1.24,1.24,0,0,0-1.7-1.29,2.29,2.29,0,0,1-2.27-.31l.45-.62c.54-.59,1.1-1.16,1.62-1.77S60.29,33,60.66,32.49Z"/><path class="cls-9" d="M87.42,49.79c-2.09,0-2.86,1.57-3.63,3.13-.32.63-.5,1.33-.86,1.92a6,6,0,0,1-1.25,1.36A16.46,16.46,0,0,1,80,57.3,4.13,4.13,0,0,1,79.1,53c.39-1.38.52-2.83,1.59-3.94a9.9,9.9,0,0,1,4.85-3,2.22,2.22,0,0,0,2.34,1.55l.41-1,1.12.87c-.39.37-.64.79-1,.88A1.18,1.18,0,0,0,87.42,49.79Z"/><path class="cls-10" d="M95.9,14.34l-1.75-.09.6-1.09a6.6,6.6,0,0,0-1.11-.59c-.64-.2-.84.11-.83.77a1.56,1.56,0,0,1-.52,1,6.26,6.26,0,0,1-1.11.77l.09.33-.8-.28c.1-.41.17-.74.25-1.07h0l.61-.22L91,13.48c1.33-1.6,2.63-3.21,4-4.78.76-.89,1.31-2.14,2.84-1.9.13,0,.32-.33.48-.51a1.52,1.52,0,0,1,.32.1c1.73,1.23,1.63,1.18.82,3.2A14.88,14.88,0,0,1,95.9,14.34Z"/><path class="cls-10" d="M21.51,50.06c-.14-.93-.29-1.85-.43-2.78l.75-1.23c.09-.17.18-.34.26-.52,0-.34.05-.68.07-1v-.43c.14-1.21.27-2.42.41-3.63l.14-.31c.06-.68.11-1.36.16-2,.23-.22.45-.48.7-.68a1.79,1.79,0,0,0,.94-1.5c0-.2.61-.4.95-.6-.16,1.26-.38,2.52-.45,3.78s0,2.32.06,3.47c0,.52.11,1,.1,1.54,0,1.13-.7,2.22,0,3.39.33.54-1,2.34-1.53,2.36S22.22,50,21.51,50.06Z"/><path class="cls-11" d="M33.84,88.8c0-.21,0-.42,0-.62l.67-.09c.1-.62.15-1,.23-1.37.14-.66.31-1.32.47-2l.42-1.29H36l.2,1.84.89-.37a5.53,5.53,0,0,0,.29.82,6.89,6.89,0,0,0,.53.75l-.81.74c.92,1.2.92,1.2,2,.71-.07.28-.15.56-.23.84s-.42.27-.46.45c-.1.47.06,1.22-.2,1.39-1,.65-.55,1.5-.51,2.31l0,.35-.18.5c-.16.92-.3,1.85-.49,2.76,0,.15-.26.25-.4.37a2.15,2.15,0,0,0-.23-.78,8,8,0,0,0-.95-.88c-.1.32-.22.65-.29,1a3.31,3.31,0,0,0,0,.63c-1.28-.73-1.14-2-1.05-3.14l.29-.61h.89c0-.21-.07-.58-.17-.6-1.38-.36-.62-1.34-.54-2.13l.61,1.32.91-.81c-.74-.44-.77-1.66-1.87-1.26Z"/><path class="cls-1" d="M14,31.74c-.05.19-.11.37-.17.55s-.11.29-.16.43l-.09.42c-.43-.27-1.16-.47-1.22-.8-.17-.93-.72-.91-1.37-.88l-2.31-.64-1-.37c-.05-.31-.25-.88-.13-.95.8-.53.31-1.22.32-1.84l1.29-.9c.45-.8.91-1.6,1.45-2.57.45,1.14,1.53,1.35,2.72,1.28l.58,1a4.4,4.4,0,0,0,.09.74c.43,1.29.44,1.28-.84,1.3-.06,0-.12.07-.22.14.05,1.18,1,.68,1.64.78l-.2,1a.51.51,0,0,1-.09.18C14.17,31,14.07,31.35,14,31.74Z"/><path class="cls-2" d="M39.18,88c-1.12.49-1.12.49-2-.71L38,86.5a6.89,6.89,0,0,1-.53-.75,5.53,5.53,0,0,1-.29-.82l-.89.37c-.07-.63-.13-1.23-.2-1.84l0-.27c.58.39.85.1,1.08-.44.84-2,2.67-3.22,3.93-4.88-.07.68.2,1,.88.88a5.61,5.61,0,0,1,.82,0,13.21,13.21,0,0,1-2,5.78A26.8,26.8,0,0,0,39.18,88Z"/><path class="cls-12" d="M13.3,25.47c-1.19.07-2.27-.14-2.72-1.28-.54,1-1,1.77-1.45,2.57q.76-6.1,1.52-12.2c1.24-.34,2.34.62,2.45,2.1.05.62.15,1.25.23,1.88-.08,1.17-.2,2.34-.23,3.52a19.22,19.22,0,0,0,.2,2.12Z"/><path class="cls-13" d="M57.49,36.35a2.29,2.29,0,0,0,2.27.31A1.24,1.24,0,0,1,61.46,38c.24.5,1.16-.58,1.12.54a.11.11,0,0,1-.12.07l-.52.34-.35.29-1.13.35-2,1.36-1.25-.21-.08.78-.42.06-.37-.62-.69.81-.84.22-.43.18-.2,0-.67-.09c0-.44.12-.86,0-1.09a.91.91,0,0,0-.88-.21c-.22.12-.28.56-.39.86s-.1.34-.15.5l-.61,0c.26-1.1.16-2.36,1.46-3,.27-.14.29-.77.43-1.18l1.17-.33.93.28a3.39,3.39,0,0,0,.67.34c.44-.58,1.37-.83,1.23-1.81A.27.27,0,0,1,57.49,36.35Z"/><path class="cls-4" d="M8.49,74.69a9.54,9.54,0,0,1,.26,1.9c-.07,1.54-.25,3.08-.41,4.81l1.35-.76c.09.41.16.76.23,1.1-.14.2-.39.4-.4.6,0,.87,0,1.74,0,2.61l.82,2.37.06,1.14-.05.56L10,90.61c0,.47-.08.94-.13,1.41,0,0-.05,0-.05.06a.89.89,0,0,0,0,.14c0,.15,0,.3,0,.45s-.22.53-.32.79l-.33,0L9.1,91.57l-1.59.64-.07-.43a5.2,5.2,0,0,0-.25-3.62l.45-5.57,0-.41c0-.22,0-.44,0-.66L8,78.45V77.37c.07-.32.15-.65.23-1s.13-.77.19-1.16Z"/><path class="cls-7" d="M64.52,7.59a5.16,5.16,0,0,1-.1.89c-.12.42-.31.82-.47,1.23l-.36-.11c-.07-.22-.09-.57-.22-.62-.34-.12-.91-.28-1.06-.12a6.86,6.86,0,0,0-.86,1.52c-1.79-2.15-3.6-4.29-5.33-6.48-.17-.22.05-.81.17-1.19a4.11,4.11,0,0,1,.81.09c0,.31-.08.62-.14,1.11.78.19,1.55.4,2.33.55.13,0,.31-.21.47-.33a2,2,0,0,0-.36-.45,2.07,2.07,0,0,0-.51-.19V3.32l.77-.13c1,.83,2.08,1.62,3.06,2.49A24.94,24.94,0,0,1,64.52,7.59Z"/><path class="cls-2" d="M30.21,42.29H28.54L28.42,42l-1.24,1.86c.07.47.14.9.21,1.33l-.57,0c-.08-1.33-.18-2.66-.23-4-.06-1.49-.08-3-.08-4.47,0-.62.08-1.24.13-1.86l.34,0c.14-.12.41-.29.38-.37s-.24-.33-.37-.49V33.6l.21-.86a1.48,1.48,0,0,1,0-.21c.4.08.79.19,1.19.23.16,0,.33-.15.49-.23.1.08.3.17.3.24,0,1.28-.1,2.56-.12,3.83,0,1.73,0,3.45,0,5.14Z"/><path class="cls-14" d="M24,66.57l.39-1.25.1.21,1.17-.89c-.67-.38-1.41-.55-1.51-.91a5.16,5.16,0,0,1,.13-2.42l.41.74,2-.71c.22,1.11.94,2.52.55,3.46-.48,1.15.23,2.39-.65,3.42l-1-.15a3.2,3.2,0,0,0-.25,1.06,1.48,1.48,0,0,0,1.52,1.38c.41-.59.74-1.09,1.08-1.59-.11.64-.21,1.27-.31,1.9a9,9,0,0,0-1.16.83c-.09.09.08.46.14.7l-.3.6a3.75,3.75,0,0,1-1-.66C24,70.62,24.27,68.52,24,66.57Zm1.67-.75-.23-.16c-.18.21-.5.43-.5.65a1.73,1.73,0,0,0,.38,1c.11.14.46.08.69.11a4.05,4.05,0,0,0-.32-.62c-.06-.09-.21-.12-.31-.18Z"/><path class="cls-15" d="M35.2,84.74c-.16.66-.33,1.32-.47,2-.08.37-.13.75-.23,1.37l-.67.09c-.12-1.05-.22-2.1-.38-3.13-.32-2.06-.7-4.12-1-6.18a3.75,3.75,0,0,1,.09-1.45c.08-.36.34-.94.56-1a1.75,1.75,0,0,1,1.26.45,5.82,5.82,0,0,1,1.52,4.83H34l.83,1.19L34,83c.24.57.44,1.11.7,1.61C34.76,84.72,35,84.7,35.2,84.74Z"/><path class="cls-16" d="M14.35,30.39l.2-1c-.65-.1-1.59.4-1.64-.78.1-.07.16-.14.22-.14,1.28,0,1.27,0,.84-1.3a4.4,4.4,0,0,1-.09-.74,10.41,10.41,0,0,1,5.62-.35A2,2,0,0,1,21,27.55c.05.14-.25.57-.46.63-1.55.41-3.14.7-4.68,1.16A5.49,5.49,0,0,0,14.35,30.39Z"/><path class="cls-17" d="M87.42,49.79a1.18,1.18,0,0,1,1-1.45c.33-.09.58-.51,1-.88l-1.12-.87-.41,1A2.22,2.22,0,0,1,85.54,46a2.31,2.31,0,0,1,.68-.21c2.07.09,4.13.19,6.2.32.61,0,1.21.17,1.82.26l-.95.16.61.52c-.39.86-2.72.56-1.39,2.4L90,49.6Z"/><path class="cls-12" d="M43.61,48.84c-.14.3-.19.75-.43.89a30.1,30.1,0,0,1-3.26,1.75A1.09,1.09,0,0,1,38.4,51a1,1,0,0,0-1.56-.31,1.34,1.34,0,0,1-1.73.11c-.19-.14-.57,0-1-.23l.85-.55a1.28,1.28,0,0,0-.17-.45c-.59-.64-.67-1.09.35-1.29.24-.05.43-.34.64-.52l.43,0,2,1.74C38.8,48.1,40,48.63,41,48.31a.37.37,0,0,1,.14.07l.64.4Z"/><path class="cls-15" d="M70.18,48.56l-.49.56c-1.48-.41-2.93-.74-4.33-1.21a13.69,13.69,0,0,1-2.1-1.14c-1.11,1.16-2.56,0-3.9.25-.36.06-.73,0-1.08.11-.51.1-1,.24-1.5.38l-1.91.55c-.58-.83-1.59-.17-2.55-.26l.33-.86c1.17,0,2.35,0,3.52,0,.32,0,.86-.08.93-.27.52-1.36,1.65-1.11,2.59-1,2.85.48,5.69,1,8.5,1.68A7.43,7.43,0,0,1,70.18,48.56Z"/><path class="cls-11" d="M11,31.46c.65,0,1.2-.05,1.37.88.06.33.79.53,1.22.8-.11,1.29-.22,2.58-.32,3.87,0,.41,0,.83-.08,1.23s-.23.9-.35,1.35l-.3-.05a12.81,12.81,0,0,1-1.63-2.6,8.64,8.64,0,0,1-.05-2.74C10.86,33.28,10.92,32.37,11,31.46Z"/><path class="cls-18" d="M3.4,68.7c-.32.14-.67.45-1,.39C1.2,68.84-.2,67.19,0,66a8.29,8.29,0,0,1,1.36-2.5s.54.29.84.45l.09.28a3.71,3.71,0,0,0,.6.59A10.93,10.93,0,0,0,4,65.27l.21,3-.63.22Z"/><path class="cls-15" d="M28.88,32.53c-.16.08-.33.24-.49.23-.4,0-.79-.15-1.19-.23a6.29,6.29,0,0,0-.72-1.67c-.5-.59-.1-.89.16-1.3s.57-.66.49-.8a4.69,4.69,0,0,0-.91-.93c-.08-.44-.35-1-.21-1.32a1.94,1.94,0,0,1,1.09-1.15,1,1,0,0,1,1.35.91c.16,1.75.4,3.49.58,5.23A4.58,4.58,0,0,1,28.88,32.53Z"/><path class="cls-15" d="M7.84,27.66c0,.62.48,1.31-.32,1.84-.12.07.08.64.13.95l1,.37c-1.5.15-3,.7-4.53.17a1.8,1.8,0,0,1-1-2.79Z"/><path class="cls-18" d="M43.75,63.76a2.42,2.42,0,0,1-2.46,2.64,3.71,3.71,0,0,1-1.7-1.15A2.69,2.69,0,0,1,39,64.13c-.09-.27-.15-.69,0-.85.39-.44.95-1.16,1.34-1.11a12.28,12.28,0,0,1,2.91,1.06C43.49,63.32,43.63,63.62,43.75,63.76Z"/><path class="cls-19" d="M26.22,27.83a4.69,4.69,0,0,1,.91.93c.08.14-.31.53-.49.8s-.66.71-.16,1.3a6.29,6.29,0,0,1,.72,1.67,1.48,1.48,0,0,0,0,.21L27,33.6V34c0,.29,0,.57,0,.86l-.34,0L26.37,34a4.42,4.42,0,0,0-.59-.56c-.06,0-.4.22-.4.34s.21.31.34.47l-.25,1.08c-.34.2-.95.4-.95.6a1.79,1.79,0,0,1-.94,1.5c-.25.2-.47.46-.7.68A6.88,6.88,0,0,1,24.66,33a4.65,4.65,0,0,0,.68-1.83C25.65,30.06,25.93,28.94,26.22,27.83Z"/><path class="cls-12" d="M23.46,54.33a2.75,2.75,0,0,0-.31-.59c-.16-.18-.56-.35-.54-.44.08-.35.26-.91.48-.95.78-.15.77-.65.74-1.23.86.1,1,.79,1.23,1.47.28.95.58,1.89.87,2.84.35,1.37.09,1.9-.9,1.82,0-1.23-.09-1.36-1.39-1.41Z"/><path class="cls-6" d="M9.5,85c0-.87,0-1.74,0-2.61,0-.2.26-.4.4-.6l.88.25c.35-2.34.68-4.57,1-6.79a11.19,11.19,0,0,1,.47-2c.1-.28.49-.44.74-.66a1.17,1.17,0,0,1,0,.32c-.43,2.38-.88,4.77-1.31,7.15-.22,1.21-.41,2.42-.61,3.63l-.66-.86-.19,2.67Z"/><path class="cls-6" d="M7.51,92.21l1.59-.64.09,1.86.33,0c.1-.26.21-.52.32-.79a24.74,24.74,0,0,1-.37,2.87c-.08.36-.62.9-.88.86a1.43,1.43,0,0,1-1-.87,12.78,12.78,0,0,1-.1-2.48C7.48,92.77,7.5,92.49,7.51,92.21Zm.38,1C8,93.09,8,93,8,93s-.09-.08-.15-.11Z"/><path class="cls-18" d="M35.81,32.76A1.71,1.71,0,0,1,36.56,30a1.29,1.29,0,0,1,.75,0,9.25,9.25,0,0,1,1,.37l.27-.19.36,2.1a9.74,9.74,0,0,1-1.68.56A6,6,0,0,1,35.81,32.76Z"/><path class="cls-11" d="M92.51,49.47c-1.33-1.84,1-1.54,1.39-2.4l-.61-.52.95-.16c.86.46,2.18.77,1.79,2s-1.64,1-2.68,1.07l-.44,0Z"/><path class="cls-17" d="M51.43,42.11l.61,0,1.31.49a4.67,4.67,0,0,1-1.27.54c-1.66.2-3.34.26-5,.48a11.07,11.07,0,0,0-2.37.69c-.55.21-1,.3-1.3-.35,1-.47,1.93-1.2,3.23-.81a3.79,3.79,0,0,0,3.12-.74A4.91,4.91,0,0,1,51.43,42.11Z"/><path class="cls-20" d="M60.66,32.49c-.37.49-.71,1-1.1,1.47s-1.08,1.18-1.62,1.77l2.43-5.92c.33-.81.69-1.6,1-2.39.05.2.09.41.14.62l-.24,1.7c-.93.29-.26,1-.39,1.51Z"/><path class="cls-6" d="M32,7.16l2.64,1.55c-.75,1-1.87,1.63-2.61,1.26-.45-.23-1.09-.85-1-1.18A5.09,5.09,0,0,1,32,7.16Z"/><path class="cls-15" d="M77.69,24.44a5.25,5.25,0,0,0,.92.38,5.9,5.9,0,0,0,1,0h.83l-.14.29c.38.26.78.51,1.14.79A2,2,0,0,0,84,26c.37-.23,1.06.11,1.61.19a3.08,3.08,0,0,1-3.81.64c-1.31-.55-2.54-1.27-3.8-1.94C77.85,24.79,77.79,24.58,77.69,24.44Z"/><path class="cls-19" d="M42.78,78.75a5.61,5.61,0,0,0-.82,0c-.68.09-1-.2-.88-.88.44-.7.84-1.43,1.32-2.1a.71.71,0,0,1,.69.06,2.5,2.5,0,0,1,.55,1.4A4.66,4.66,0,0,1,42.78,78.75Z"/><path class="cls-10" d="M94.17,16.47c-.7-.8-.76.17-1,.42a18.77,18.77,0,0,0-1.32,1.78l-1-1.52,1.37-.5a3.17,3.17,0,0,1,.07-.65c.11-.41.28-.79.42-1.19l1,.76.78-.34.11.85Z"/><path class="cls-15" d="M33.84,88.8l.43.84c1.1-.4,1.13.82,1.87,1.26l-.91.81-.61-1.32c-.08.79-.84,1.77.54,2.13.1,0,.12.39.17.6h-.89l-.29.61c0-.66-.1-1.32-.14-2C34,90.77,33.9,89.78,33.84,88.8Z"/><path class="cls-15" d="M74.08,52.88c-.5-.44-1.46-.48-1.3-1.24a7.77,7.77,0,0,0-1.71-1.26c-1-.34-.58-1.23-.89-1.82C71.63,49.86,73.55,50.73,74.08,52.88Z"/><path class="cls-2" d="M41,48.31c-.93.32-2.16-.21-2.75,1.26l-2-1.74a9.44,9.44,0,0,1,4.23.15A2.54,2.54,0,0,1,41,48.31Zm-2.49-.07,0-.24-.59.06,0,.26Z"/><path class="cls-2" d="M35.2,84.74c-.17,0-.44,0-.48-.12-.26-.5-.46-1-.7-1.61l.79-.08L34,81.74h1.88c.07.36.13.71.19,1.07l-.43.64Z"/><path class="cls-21" d="M59.67,3.19l-.77.13v.17a2.07,2.07,0,0,1,.51.19,2,2,0,0,1,.36.45c-.16.12-.34.36-.47.33-.78-.15-1.55-.36-2.33-.55.06-.49.1-.8.14-1.11.6,0,1.22,0,1.82,0A2.68,2.68,0,0,1,59.67,3.19Z"/><path class="cls-2" d="M35.81,32.76a6,6,0,0,0,1.45.12,9.74,9.74,0,0,0,1.68-.56c.21.81-.82,1.82-1.73,1.66C36.52,33.86,35.89,33.63,35.81,32.76Z"/><path class="cls-1" d="M9.5,85l.79.5.19-2.67.66.86c-.06.65-.11,1.3-.16,2-.21.2-.53.36-.61.6a4.23,4.23,0,0,0,0,1.13Z"/><path class="cls-2" d="M4.23,68.26l-.21-3c.35.42.89.8,1,1.27S5.14,68,4.23,68.26Z"/><path class="cls-16" d="M13.3,24.18a19.22,19.22,0,0,1-.2-2.12c0-1.18.15-2.35.23-3.52.1.13.3.27.29.4C13.53,20.69,13.41,22.44,13.3,24.18Z"/><path class="cls-2" d="M35.2,96.87a3.31,3.31,0,0,1,0-.63c.07-.33.19-.66.29-1a8,8,0,0,1,.95.88,2.15,2.15,0,0,1,.23.78C36.16,97.42,35.67,97.46,35.2,96.87Z"/><path class="cls-2" d="M37.78,92.94c0-.81-.46-1.66.51-2.31.26-.17.1-.92.2-1.39,0-.18.3-.3.46-.45C38.75,90.23,38.91,91.77,37.78,92.94Z"/><path class="cls-6" d="M53.35,42.62,52,42.13c.05-.16.09-.34.15-.5s.17-.74.39-.86a.91.91,0,0,1,.88.21c.15.23,0,.65,0,1.09l.67.09v.23Z"/><path class="cls-8" d="M61.54,28c0-.21-.09-.42-.14-.62s0-.6,0-.9c.45.05,1,0,1.31.19s.2.75.18,1.15c0,.08-.48.16-.74.2A3.32,3.32,0,0,1,61.54,28Z"/><path class="cls-8" d="M57.32,36.41c.14,1-.79,1.23-1.23,1.81a3.39,3.39,0,0,1-.67-.34l.64-1Z"/><path class="cls-6" d="M14.37,68.52a2.18,2.18,0,0,1,1.06-2.82Z"/><path class="cls-15" d="M86.4,25.91a3.21,3.21,0,0,1,2.31-1.72Z"/><path class="cls-6" d="M7.19,88.16a5.2,5.2,0,0,1,.25,3.62C7.36,90.58,7.27,89.37,7.19,88.16Z"/><path class="cls-6" d="M10.32,87.32a4.23,4.23,0,0,1,0-1.13c.08-.24.4-.4.61-.6l-.6,2.87Z"/><path class="cls-7" d="M61.46,12.82a2.35,2.35,0,0,1,.25,2.38C61.62,14.41,61.54,13.61,61.46,12.82Z"/><path class="cls-2" d="M26.63,72.35c-.06-.24-.23-.61-.14-.7a9,9,0,0,1,1.16-.83Z"/><path class="cls-17" d="M40.65,44.65,43,44Z"/><path class="cls-6" d="M56.06,36.87l-.64,1-.93-.28Z"/><path class="cls-6" d="M57.11,41.47l.08-.78,1.25.21a.44.44,0,0,1-.07.19l-.46.52-.8,0A.6.6,0,0,0,57.11,41.47Z"/><path class="cls-6" d="M13.38,71.29l-.47-.42,1-.9C13.71,70.41,13.54,70.85,13.38,71.29Z"/><path class="cls-17" d="M54.16,42.39v-.23l.2,0,.43-.19.84-.22.6.13Z"/><path class="cls-1" d="M8,78.45l-.36,3.07Z"/><path class="cls-7" d="M61.83,16.46c0,.72.07,1.44.11,2.16C61.9,17.9,61.87,17.18,61.83,16.46Z"/><path class="cls-6" d="M56.23,41.85l-.6-.13.69-.81.37.62,0,.27Z"/><path class="cls-14" d="M29.72,45.58l1.67.16-1,.45-.63-.07Z"/><path class="cls-7" d="M66,9,64.88,8C65.64,7.9,66.14,8.11,66,9Z"/><path class="cls-7" d="M61.72,22.22c0,.8-.09,1.59-.14,2.39C61.63,23.81,61.67,23,61.72,22.22Z"/><path class="cls-6" d="M10,90.61,10.33,89Z"/><path class="cls-7" d="M61.52,11.12c0,.44-.05.88-.07,1.31C61.47,12,61.5,11.56,61.52,11.12Z"/><path class="cls-14" d="M31.81,45.68l1.27-.16Z"/><path class="cls-15" d="M88.88,24.11l1.1-1Z"/><path class="cls-15" d="M49.29,50c.43-.67.86-.4,1.29,0Z"/><path class="cls-6" d="M60.46,39.54l1.13-.35Z"/><path class="cls-15" d="M48,50.08h1.08C48.76,50.61,48.4,50.67,48,50.08Z"/><path class="cls-7" d="M83.66,20.15l.14,1.2-.62-.7Z"/><path class="cls-16" d="M14,31.74c.09-.39.19-.78.28-1.17C14.17,31,14.07,31.35,14,31.74Z"/><path class="cls-1" d="M8.41,75.24c-.06.39-.13.77-.19,1.16C8.28,76,8.35,75.63,8.41,75.24Z"/><path class="cls-2" d="M34.35,41.57l-.9.09Z"/><path class="cls-5" d="M91,13.48l.34.36-.61.22Z"/><path class="cls-8" d="M67.06,21l.14-.65Z"/><path class="cls-8" d="M66.93,23.12c-.48-.21-.49-.43,0-.66C66.93,22.68,66.93,22.9,66.93,23.12Z"/><path class="cls-17" d="M38.15,44.92l.69-.13Z"/><path class="cls-15" d="M35.62,83.45l.43-.64c0,.13,0,.26,0,.38l0,.27Z"/><path class="cls-17" d="M39.2,44.71l.63,0Z"/><path class="cls-17" d="M57.91,41.61l.46-.52Z"/><path class="cls-2" d="M41.74,48.78l-.64-.4Z"/><path class="cls-15" d="M48.47,48.57c-.09.16-.19.31-.28.46C48.29,48.88,48.38,48.73,48.47,48.57Z"/><path class="cls-17" d="M92.91,49.46l.44,0Z"/><path class="cls-2" d="M22.09,45.53c-.08.18-.17.35-.26.52C21.92,45.88,22,45.71,22.09,45.53Z"/><path class="cls-14" d="M33.7,45.45l.52-.25Z"/><path class="cls-10" d="M90.18,14.15c-.12.13-.23.27-.34.41C90,14.42,90.06,14.28,90.18,14.15Z"/><path class="cls-2" d="M22.17,44.08v0Z"/><path class="cls-17" d="M56.64,41.8l0-.27.42-.06a.6.6,0,0,1,0,.19Z"/><path class="cls-2" d="M37.56,93.79l.18-.5Z"/><path class="cls-15" d="M90.16,22.66l.43-.41Z"/><path class="cls-6" d="M61.94,38.9l.52-.34Z"/><path class="cls-1" d="M7.62,82.18l0,.41Z"/><path class="cls-11" d="M13.65,32.72c0-.14.11-.28.16-.43C13.76,32.44,13.7,32.58,13.65,32.72Z"/><path class="cls-7" d="M61.91,19c0,.26,0,.53,0,.79C61.9,19.51,61.91,19.24,61.91,19Z"/><path class="cls-1" d="M8,77.37v0Z"/><path class="cls-8" d="M67.14,21.81l-.09-.51Z"/><path class="cls-19" d="M22.72,40.14l-.14.31Z"/><path class="cls-2" d="M2.31,64.2l-.09-.28Z"/><path class="cls-2" d="M3.4,68.7l.2-.22Z"/><path class="cls-10" d="M94,16.71l.2-.24Z"/><path class="cls-6" d="M9.82,92.22a.89.89,0,0,1,0-.14s0,0,.05-.06A.15.15,0,0,1,9.82,92.22Z"/><path class="cls-12" d="M29.09,47.73c-.25,0-.49,0-.74,0-1.87,0-2.33-.78-1.53-2.61l.57,0,1.07.87C28.92,46.49,29.56,46.91,29.09,47.73Z"/><path class="cls-8" d="M62.65,28.3l.77,1.23-.21.28a3.39,3.39,0,0,1-.9-.55C62.23,29.17,62.47,28.78,62.65,28.3Z"/><path class="cls-8" d="M60.91,31.25c.13-.51-.54-1.22.39-1.51C61.63,30.37,61.81,31,60.91,31.25Z"/><path class="cls-10" d="M90.89,19.82V18.37l.73.77Z"/><path class="cls-6" d="M54.79,41.94l-.43.19Z"/><path class="cls-15" d="M27,33.6l.21-.86Z"/><path class="cls-15" d="M27,34.88c0-.29,0-.57,0-.86.13.16.32.31.37.49S27.12,34.76,27,34.88Z"/><path class="cls-17" d="M25.65,65.82l-.29.78c.1.06.25.09.31.18a4.05,4.05,0,0,1,.32.62c-.23,0-.58,0-.69-.11a1.73,1.73,0,0,1-.38-1c0-.22.32-.44.5-.65Z"/><path class="cls-2" d="M26.37,34l-.65.25c-.13-.16-.34-.31-.34-.47s.34-.37.4-.34A4.42,4.42,0,0,1,26.37,34Z"/><path class="cls-4" d="M7.89,93.19l0-.31c.06,0,.13.06.15.11S8,93.09,7.89,93.19Z"/><path class="cls-12" d="M38.47,48.24l-.59.08,0-.26.59-.06Z"/></g></svg>