<svg xmlns="http://www.w3.org/2000/svg" viewBox="0 0 100 100"><defs><style>.cls-1{fill:#a08d9f;}.cls-2{fill:#bfbfcb;}.cls-3{fill:#cacbd4;}.cls-4{fill:#c5c6d1;}.cls-5{fill:#afb1bf;}.cls-6{fill:#a2a3b4;}</style></defs><g id="Ebene_20" data-name="Ebene 20"><path class="cls-1" d="M54.16,27.45l2.46-.16a13.1,13.1,0,0,1,3.11,9.37c-.18,3.53-1.13,6.91-1.47,10.4-.11,1.06-.25,2.12-.37,3.18l-1.36,3.28c-1.07-.21-2.17.95-3.23-.06l-.48-1.36c.13-2.6.27-5.2.4-7.8a3.53,3.53,0,0,0,0-.46,36.65,36.65,0,0,1,.39-8.37c-.11-.66-.22-1.32-.32-2v0c-.19-.6-.37-1.19-.48-1.52-1.78.25-3.21.42-4.62.64-.75.12-1.5.29-2.24.48-1,.25-1.9.65-2.87.83a6.46,6.46,0,0,0-4.26,2.74.81.81,0,0,1-.37.15,1.55,1.55,0,0,0-2,1.07c-.57.52-1.13,1.06-1.71,1.56a8.21,8.21,0,0,0-3.14,7.11c.16,2.43.32,4.87.59,7.3A18.42,18.42,0,0,0,33,56.22a2.4,2.4,0,0,1-1.89,3,2.24,2.24,0,0,1-2.66-1.62c-.56-2.23-1.12-4.46-1.52-6.72a10.24,10.24,0,0,1,0-3.62c.68-3.3,1.1-6.72,3.24-9.53l.4-.39.07,0c2.35-.52,2.44-.6,2.59-2.47l.55-.47c.17.28.33.56.5.83a6.17,6.17,0,0,0,.14-.86,2.85,2.85,0,0,0-.14-.63L35.53,33l2.33,1.24c-.18-1.09-.29-1.77-.4-2.45l1.83-.68c1.08,1.26,1.8.25,2.32-.19.68.18,1.22.51,1.64.4,1.65-.44,3.26-1,4.89-1.55a17.91,17.91,0,0,0,1.92.22c1.47,0,1.78-1.52,2.78-2.14l.74-.14ZM55.39,52c-.12-.06-.28-.18-.37-.15s-.12.24-.17.36c.13.06.28.19.37.15S55.34,52.09,55.39,52Z"/><path class="cls-1" d="M61.63,78.14c-1.34-.55-2.74-1-4-1.66-2.61-1.33-5.2-2.7-7.73-4.17-1.78-1-3.06-2.83-5.12-3.5-.26-.08-.47-.4-.64-.65a18.1,18.1,0,0,1-3.06-10.67c0-3.46-.2-6.92-.23-10.38,0-1.51.19-3,.32-5a32.22,32.22,0,0,1,3,1.36,2.85,2.85,0,0,1,1.48,2.7,26.33,26.33,0,0,0,.16,2.94c.12,1.38.35,2.75.42,4.13a64.27,64.27,0,0,0,1.43,11.9,2.21,2.21,0,0,0,.89,1.25c2.21,1.41,4.45,2.77,6.71,4.1,1,.59,2.06,1.06,3.09,1.59.49.46.9,1.16,1.48,1.36,2.44.85,3.71,3,5.33,4.71.46.51,1,1,0,1.91-.66-.46-1.36-1-2.11-1.46A7.15,7.15,0,0,0,61.63,78.14Z"/><path class="cls-2" d="M52.15.13c3.64-.51,6.46.6,8.38,3.36s3.73,5.87,2.62,9.62a2,2,0,0,0-.15.67c.4,3.49-2,5.28-4.29,7.16a10.77,10.77,0,0,0-1.39,1.21,10.05,10.05,0,0,1-13,1.75,13.61,13.61,0,0,1-3.83-4.55,12.57,12.57,0,0,1-2.14-7.86,9.31,9.31,0,0,1,1.43-4.3,18.58,18.58,0,0,1,6-5.68A9.15,9.15,0,0,1,52.15.13ZM56.34,4.3a21.3,21.3,0,0,1-3.5-.38,6.87,6.87,0,0,0-6.19,1.46C45.87,6,45,6.46,44.2,7,43.55,7,43.06,6.8,43,6c.75,0,1.27-.26,1.21-1.5-.82.47-1.64.45-1.64,1.51-2.16,2.47-2.18,5.64-2.77,8.61A3.18,3.18,0,0,0,40.11,16c.5,1.78,1.83,2.89,3,4.2a5.38,5.38,0,0,0,3.72,2A29,29,0,0,0,55,20.9a11,11,0,0,0,6-5.7C63.2,11,62.37,6.81,58.63,3.53,57.29,2.36,57,2.49,56.34,4.3Z"/><path class="cls-3" d="M61.63,78.14a7.15,7.15,0,0,1,1.41.51c.75.45,1.45,1,2.11,1.46,1-.86.49-1.4,0-1.91-1.62-1.75-2.89-3.86-5.33-4.71-.58-.2-1-.9-1.48-1.36,4.13-.34,6.22,2.48,8.28,5.34a30.82,30.82,0,0,0,1.82,2.64c3.12,3.42,3.81,7.44,3.21,11.87a19.08,19.08,0,0,0,0,4.34,3.52,3.52,0,0,1-2,3.52A2.06,2.06,0,0,1,67,98.78a8,8,0,0,1-.46-2.7c0-2.93.47-5.89.16-8.78-.19-1.8-1.31-3.56-2.22-5.22A40.87,40.87,0,0,0,61.63,78.14Z"/><path class="cls-1" d="M33.18,87.87c3.64-4.38,7.27-8.77,10.94-13.12a4.06,4.06,0,0,1,1.51-1c1.62-.66,2.69.06,2.48,1.77a11.4,11.4,0,0,1-4,7.58c-.81.69-1.59,1.41-2.38,2.12-.41.15-1,.19-1.2.49-1.71,2.39-4.69,2.17-7,3.73C33.38,88.73,33.28,88.3,33.18,87.87Z"/><path class="cls-4" d="M33.18,87.87c.1.43.2.86.35,1.54,2.27-1.56,5.25-1.34,7-3.73.22-.3.79-.34,1.2-.49-.85,1.16-1.67,2.37-2.58,3.49s-1.84,2.07-2.78,3.08-1.8,2.07-3.29,2.37a2.85,2.85,0,0,0-1.55,1c-1.24,1.64-3.14.93-4.7,1.4-.2.06-.73-.48-.88-.84a1.31,1.31,0,0,1,.18-1.08C28.08,92,30,89.23,33.18,87.87Z"/><path class="cls-1" d="M66.19,46.61a17.21,17.21,0,0,1-5-6.21c-.51-1-.33-2.34-.49-3.79a8,8,0,0,1,5.72,4l.86,1.62c.11.81.2,1.61.34,2.41C67.84,45.93,67.69,46.15,66.19,46.61Z"/><path class="cls-2" d="M66.19,46.61c1.5-.46,1.65-.68,1.43-1.92-.14-.8-.23-1.6-.34-2.41A10.35,10.35,0,0,1,69,43.72c.9,1.19,1.78,2.26,3.41,2.5a1.79,1.79,0,0,1,1.74,2.06c-.12,1.19-.77,1.78-2.18,1.91A5.31,5.31,0,0,1,66.19,46.61Z"/><path class="cls-4" d="M56.53,53.52l1.36-3.28c.12.19.39.42.35.56-.64,2.28.25,4.54.08,6.8a18.63,18.63,0,0,1-.51,3.15,2.57,2.57,0,0,1-2.87,1.77,1.74,1.74,0,0,1-1.68-2.05c1,.6,1.69.36,2-.69C55.71,57.71,56.1,55.61,56.53,53.52Z"/><path class="cls-5" d="M38.8,36.64a6.46,6.46,0,0,1,4.26-2.74c1-.18,1.91-.58,2.87-.83.74-.19,1.49-.36,2.24-.48,1.41-.22,2.84-.39,4.62-.64.11.33.29.92.48,1.52-1.6.12-3.2.2-4.8.36a14.3,14.3,0,0,0-2.5.47c-1.17.33-2.31.75-3.47,1.13Z"/><path class="cls-6" d="M56.53,53.52c-.43,2.09-.82,4.19-1.32,6.26-.26,1-1,1.29-2,.69,0-.15,0-.31,0-.47a1.09,1.09,0,0,0,.09-1.85c-.12-1.39-.24-2.77-.35-4.15l.29-.49.06,0C54.36,54.47,55.46,53.31,56.53,53.52Z"/><path class="cls-2" d="M48.14,29.73c-1.63.53-3.24,1.11-4.89,1.55-.42.11-1-.22-1.64-.4-.52.44-1.24,1.45-2.32.19.66-1.26,2-1.25,3.1-1.55,1.89-.5,3.84-.76,5.76-1.12Z"/><path class="cls-5" d="M48.14,29.73V28.4l4.69-.59c-1,.62-1.31,2.16-2.78,2.14A17.91,17.91,0,0,1,48.14,29.73Z"/><path class="cls-5" d="M33.15,34.78c-.15,1.87-.24,1.95-2.59,2.47Z"/><path class="cls-6" d="M37.46,31.75c.11.68.22,1.36.4,2.45L35.53,33Z"/><path class="cls-3" d="M53.3,58.15A1.09,1.09,0,0,1,53.21,60,1.2,1.2,0,0,1,53.3,58.15Z"/><path class="cls-5" d="M36.44,37.86a1.55,1.55,0,0,1,2-1.07C37.87,37.33,37.45,38.15,36.44,37.86Z"/><path class="cls-6" d="M34.2,33.65a2.85,2.85,0,0,1,.14.63,6.17,6.17,0,0,1-.14.86c-.17-.27-.33-.55-.5-.83Z"/><path class="cls-5" d="M53.28,33.49c.1.66.21,1.32.32,2C53.49,34.81,53.38,34.15,53.28,33.49Z"/><path class="cls-6" d="M52.82,52.1l.48,1.36-.06,0a2.73,2.73,0,0,1-.4,0C52.83,53,52.82,52.56,52.82,52.1Z"/><path class="cls-3" d="M52.84,53.46a2.73,2.73,0,0,0,.4,0L53,54C52.91,53.82,52.88,53.64,52.84,53.46Z"/><path class="cls-5" d="M54.16,27.45l-.58.22Z"/><path class="cls-5" d="M30.49,37.3l-.4.39Z"/><path class="cls-6" d="M55.39,52c0,.12-.08.32-.17.36s-.24-.09-.37-.15c0-.12.08-.32.17-.36S55.27,51.91,55.39,52Z"/><path class="cls-1" d="M43,6c0,.76.53,1,1.18,1-.08.47-.15.93-.22,1.39-.91.07-1.34.34-1.18,1.46.2,1.36,1.13,2.08,2.1,3.14,1.05-.9,1.89-.28,2.66.61a1.86,1.86,0,0,0,2,.73c1.54,1.44,3.21,1.13,4.64,0a23.09,23.09,0,0,0,3.35-3.49,2.83,2.83,0,0,0,.14-3.63A26.84,26.84,0,0,1,56.34,4.3c.7-1.81.95-1.94,2.29-.77C62.37,6.81,63.2,11,61.05,15.2a11,11,0,0,1-6,5.7,29,29,0,0,1-8.13,1.28,5.38,5.38,0,0,1-3.72-2c-1.21-1.31-2.54-2.42-3-4.2a3.18,3.18,0,0,1-.29-1.34c.59-3,.61-6.14,2.77-8.61H43Z"/><path class="cls-6" d="M43,6h-.43c0-1.06.82-1,1.64-1.51C44.29,5.78,43.77,6,43,6Z"/><path class="cls-2" d="M44,8.38c.25.81.5,1.61.81,2.58,1.43-.55,2.24.13,2.92,1.32a12.37,12.37,0,0,0,1.87,2,1.86,1.86,0,0,1-2-.73C46.79,12.7,46,12.08,44.9,13c-1-1.06-1.9-1.78-2.1-3.14C42.64,8.72,43.07,8.45,44,8.38Z"/></g></svg>