<svg xmlns="http://www.w3.org/2000/svg" viewBox="0 0 100 100"><defs><style>.cls-1{fill:#62a9ab;}.cls-2{fill:#69acae;}.cls-3{fill:#91c2c4;}.cls-4{fill:#92c3c5;}.cls-5{fill:#8fc1c3;}.cls-6{fill:#8abfc0;}.cls-7{fill:#87bdbe;}.cls-8{fill:#84bbbd;}.cls-9{fill:#8ec0c2;}.cls-10{fill:#98c7c8;}.cls-11{fill:#7fb9ba;}.cls-12{fill:#94c4c6;}.cls-13{fill:#8cbfc1;}</style></defs><g id="Ebene_4" data-name="Ebene 4"><path class="cls-1" d="M47.34,46.68l-.67.17h-1.1l-.22,0h-.68l-1-.1H42.33a5.49,5.49,0,0,1-2.88-.95l-2.26-1-.51-.28-1.26-.61-1-1.53-1,.92-.44,0c-.18-.24-.25-.89-.69-.19l-.64,0-.46-.15-1.09-.12-.92.07-.06,0-.16,0-.93.26-2.48.61-1.13-.1-.75-.08-.47.41-.69.3L21,44.67c-.06-.11-.12-.22-.19-.33l-.28.33h0l-1.8.35-.41.07a6.31,6.31,0,0,0-1.57-.27c-1.21.09-2.48.09-3.3,1.25l-.84.05-1.15-.07L9.74,46l-3.59-.86-.83-.28-.52-.12c-2.36-1.34-3.6-3.5-4.55-6A1.78,1.78,0,0,1,1,36.26c1.3-.8,2.26-.42,2.6,1a2.45,2.45,0,0,0,.22.5,2.37,2.37,0,0,0-.17.84,1.23,1.23,0,0,0,.47.66c.31.23.73.31,1,.56.68.62,1.31,1.29,2,1.94,1.48,1.5,3.38.37,5,.79.08,0,.23-.25.34-.39l.6-.05c.31,1,.63.32,1,0l.85-.08.23,0,7.22-1.62,1.2-.29L27.21,39a1.18,1.18,0,0,0,1.9.55c.3-.18.65-.32,1-.49l.39,1.21a6,6,0,0,1,1.06-.45c1.91-.42,3.53.59,5.24,1.12.07,0,.08.26.12.4a1.21,1.21,0,0,0-.29.2c-.17.2-.32.41-.48.62.25,0,.53.09.73,0a6.77,6.77,0,0,0,.91-.63l1.8.48c2.55,1.86,5.39,1.43,8,.57a38,38,0,0,0,6.46-3.2,21.58,21.58,0,0,1,6-2.7c1-.21,2-.76,3-.94,1.78-.32,3.59-.5,5.4-.69a1.18,1.18,0,0,1,.82.27c1.63,1.47,3.83,1.52,5.71,2.37S79,38.94,80.64,40c3.62,2.4,7.36,2.34,11.29,1.25a1.89,1.89,0,0,0,2.06.21c1.1-.53,2.21-1,3.29-1.6.17-.08.23-.44.26-.67s0-.73,0-1.1l.42,0c0,.27,0,.66.12.81,1.18,1.1.77,2.3.29,3.52-1,.57-2,1.22-3,1.69-3.87,1.72-7.91,1.78-12.05,1.27a27.89,27.89,0,0,1-6.84-2,53.08,53.08,0,0,0-7.09-2c-.4-.09-1,.3-1.4.63-.79.69-1.08.64-1.54-.31-.16-.34-.58-.79-.9-.8a62.19,62.19,0,0,0-6.69.08c-.74.06-1.42.83-2.13,1.28-.51,1.11-1.58,1.12-2.56,1.29a2.26,2.26,0,0,0-2.24.65,3,3,0,0,1-1.16.54c-1,.43-2.09.82-3.11,1.28C47.51,46.12,47.45,46.46,47.34,46.68Z"/><path class="cls-2" d="M23,30.83l3.72-1.56.36.29.34-.53A17.33,17.33,0,0,1,36,26.11c1.24,0,2.48-.33,3.72-.35,1.65,0,3.36-.2,4.71,1.2a9.57,9.57,0,0,0,2.34,1.64,1.88,1.88,0,0,0,1.32,0c1.37-.5,2.72-1.09,4.07-1.64l1-.53,6.39-.53.66.06,2.45.35.43.26.88.44.08.57a20,20,0,0,1,2.61.73c.74.32,1.36.9,2.09,1.26,1.37.69,2.83,1.22,4.16,2a2.07,2.07,0,0,0,1.91.31,9.69,9.69,0,0,1,1.08,1.59c.29.7-.37,1.46-1.23,1.51-.47,0-.94,0-1.41,0-.35-.43-.64-1.15-1-1.22-2-.33-3.65-1.54-5.44-2.38a19.12,19.12,0,0,0-4.31-1.64,28.19,28.19,0,0,0-5.51-.43,11.78,11.78,0,0,0-2.72.64c-1.93.7-3.86,1.39-5.77,2.11a1.49,1.49,0,0,0-.55.51c-.78,1.08-1.45,1.19-2.57.44s-2.59-1.64-3.79-2.57a5.57,5.57,0,0,0-3.87-.92c-1.51.07-3,.39-4.52.53a3.25,3.25,0,0,0-2.59,1.43c-.83-.38-1.33.31-2,.5-1.41.42-2.37,1.4-3.56,2.08-1,.52-2.09,1-3.07,1.58-1.66,1-3.46.67-5.22.6-.46,0-.9-.5-1.42-.81L16.75,34a6.34,6.34,0,0,0,1.38,0c.76-.17,1.68-.24,1.58-1.41l.33-.12A4.58,4.58,0,0,1,21.75,32c.76.09.54-.37.62-.7a.37.37,0,0,1,.18-.08Z"/><path class="cls-3" d="M43.56,62a17.62,17.62,0,0,1,2.63.26c3.47.86,6.62,0,9.73-1.54,2.18-1.09,4.53-1.83,6.77-2.81a4.38,4.38,0,0,0,1.4-1.32,5,5,0,0,1,4.16-2.1l.57,1.77c-.13.6-.8.86-1.67,1a3.31,3.31,0,0,0-1.3.92,15.22,15.22,0,0,1-1.8,1.87,44.5,44.5,0,0,1-6.56,4c-1.78.8-3.65,1.73-5.78,1.61-1.14-.07-2.3.23-3.46.26a19.63,19.63,0,0,1-3.16-.17A35.13,35.13,0,0,1,41,65a27.49,27.49,0,0,1-2.73-1.06,4.34,4.34,0,0,1,2.6-.06,31.29,31.29,0,0,0,4.13.74,5.73,5.73,0,0,0,1.06-.16Z"/><path class="cls-1" d="M43.56,62l2.51,2.45a5.73,5.73,0,0,1-1.06.16,31.29,31.29,0,0,1-4.13-.74,4.34,4.34,0,0,0-2.6.06l-.48-.15-.41-.29L37,63.39l-1-.5-.56-.18-2.08-1-.62-.66-.52-.4a11.71,11.71,0,0,1-5.64-3.86c-.16-1.1.12-1.85,1.39-2a7.52,7.52,0,0,0,1.56-.52l.32.16.56.53a2.87,2.87,0,0,1,.72.22c1.69,1,3.32,2.23,5.08,3.17C38.6,59.69,41.1,60.8,43.56,62Z"/><path class="cls-4" d="M52,72.63c-3.6,2.34-8.06,2-10.13-.14A4.17,4.17,0,0,1,43,71.83c1.06-.16,2-.83,3.23-.42a6.21,6.21,0,0,0,3.26,0A1.79,1.79,0,0,1,52,72.63Z"/><path class="cls-5" d="M54.19,29.89a11.78,11.78,0,0,1,2.72-.64,28.19,28.19,0,0,1,5.51.43,19.12,19.12,0,0,1,4.31,1.64c1.79.84,3.4,2,5.44,2.38.4.07.69.79,1,1.22-1.27-.37-2.57-.65-3.79-1.13-2.31-.91-4.53-2.11-6.89-2.85a34.88,34.88,0,0,0-5.73-.87C55.93,30,55.06,30,54.19,29.89Z"/><path class="cls-6" d="M54.2,43.57c1-.17,2-.18,2.56-1.29a6.25,6.25,0,0,1,3.59,3.85,1,1,0,0,1-.21.89c-.34.2-.94.38-1.2.2-1.61-1.09-3.17-2.28-4.74-3.43Z"/><path class="cls-5" d="M74.77,31.86a2.07,2.07,0,0,1-1.91-.31c-1.33-.77-2.79-1.3-4.16-2-.73-.36-1.35-.94-2.09-1.26A20,20,0,0,0,64,27.57s0-.3-.08-.57l.67-.21a16.47,16.47,0,0,1,3.15.77c2,.91,4,2,5.93,3.05C74.13,30.87,74.41,31.44,74.77,31.86Z"/><path class="cls-5" d="M12.42,42.2c-.11.14-.26.41-.34.39-1.65-.42-3.55.71-5-.79-.64-.65-1.27-1.32-1.95-1.94-.28-.25-.7-.33-1-.56a1.23,1.23,0,0,1-.47-.66,2.37,2.37,0,0,1,.17-.84L5,38.41c.16.08.32.13.47.22,1.87,1.1,3.71,2.23,5.6,3.29A4.57,4.57,0,0,0,12.42,42.2Z"/><path class="cls-7" d="M39.6,42l-1.8-.48a6.77,6.77,0,0,1-.91.63c-.2.09-.48,0-.73,0,.16-.21.31-.42.48-.62a1.21,1.21,0,0,1,.29-.2c0-.14,0-.37-.12-.4-1.71-.53-3.33-1.54-5.24-1.12a6,6,0,0,0-1.06.45l-.39-1.21c-.36.17-.71.31-1,.49a1.18,1.18,0,0,1-1.9-.55,4.71,4.71,0,0,1,1-.24,22.08,22.08,0,0,1,7,1.07A13.09,13.09,0,0,1,39.6,42Z"/><path class="cls-3" d="M97.57,38.12c0,.37,0,.74,0,1.1s-.09.59-.26.67c-1.08.57-2.19,1.07-3.29,1.6a1.89,1.89,0,0,1-2.06-.21,4.48,4.48,0,0,1,.84-.49,4.09,4.09,0,0,0,2.72-2C95.91,37.92,96.57,37.37,97.57,38.12Z"/><path class="cls-8" d="M25.56,43.78,28,43.17l.93-.26-1,1.05.16.9c-.33,1.54-1.4,2-2.93,1.83C25.29,45.72,25.42,44.75,25.56,43.78Z"/><path class="cls-4" d="M25,34c1.19-.68,2.15-1.66,3.56-2.08.65-.19,1.15-.88,2-.5A6.86,6.86,0,0,1,25,34Z"/><path class="cls-3" d="M98.4,42.42c.48-1.22.89-2.42-.29-3.52-.15-.15-.08-.54-.12-.81.77-.59,1.2.17,1.52.53A2.53,2.53,0,0,1,98.4,42.42Z"/><path class="cls-9" d="M54.2,43.57v.22c-.73.37-1.44.81-2.2,1.12-1.54.62-3.11,1.19-4.66,1.77.11-.22.17-.56.35-.64,1-.46,2.08-.85,3.11-1.28A3,3,0,0,0,52,44.22,2.26,2.26,0,0,1,54.2,43.57Z"/><path class="cls-10" d="M13.49,46.08c.82-1.16,2.09-1.16,3.3-1.25a6.31,6.31,0,0,1,1.57.27,18.58,18.58,0,0,1-2.8,1.12A6.68,6.68,0,0,1,13.49,46.08Z"/><path class="cls-11" d="M39.45,45.78a5.49,5.49,0,0,0,2.88.95l-1.3.74-.23-.15-.08.38-1.6.26c.08-.55.15-1.1.23-1.65C39.38,46.14,39.42,46,39.45,45.78Z"/><path class="cls-10" d="M29.51,54.33a7.52,7.52,0,0,1-1.56.52c-1.27.14-1.55.89-1.39,2-1.15-.44-.93-.33-.39-1.45A2.18,2.18,0,0,1,28.45,54,4.28,4.28,0,0,1,29.51,54.33Z"/><path class="cls-12" d="M19.71,32.58c.1,1.17-.82,1.24-1.58,1.41a6.34,6.34,0,0,1-1.38,0,14.7,14.7,0,0,1,1.44-.93A10.88,10.88,0,0,1,19.71,32.58Z"/><path class="cls-3" d="M33.34,61.76l2.08,1c-.62.06-1.24.17-1.86.18a5,5,0,0,1-1.13-.28Z"/><path class="cls-10" d="M6.15,45.17,9.74,46A3.75,3.75,0,0,1,6.15,45.17Z"/><path class="cls-6" d="M33.43,43.28l1-.92,1,1.53Z"/><path class="cls-12" d="M22.37,31.27c-.08.33.14.79-.62.7a4.58,4.58,0,0,0-1.71.49Z"/><path class="cls-6" d="M28.09,44.86l-.16-.9,1-1.05.16,0Z"/><path class="cls-10" d="M23.68,43.6l.75.08a1.49,1.49,0,0,1-1.91.63l.69-.3Z"/><path class="cls-10" d="M18.77,45l1.8-.35Z"/><path class="cls-12" d="M64.59,26.79l-.67.21L63,26.56v-.25Z"/><path class="cls-10" d="M11.5,46.06l1.15.07Z"/><path class="cls-5" d="M14,42.16c-.32.31-.64,1-1,0Z"/><path class="cls-7" d="M23.47,40.15l-1.2.29Z"/><path class="cls-3" d="M36,62.89l1,.5Z"/><path class="cls-6" d="M32.3,43.06c.44-.7.51-.05.69.19Z"/><path class="cls-12" d="M53.11,26.42l-1,.53Z"/><path class="cls-6" d="M29.19,42.84l.92-.07Z"/><path class="cls-12" d="M27.45,29l-.34.53-.36-.29Z"/><path class="cls-12" d="M60.16,26l-.66-.06Z"/><path class="cls-10" d="M30.39,55l-.56-.53Z"/><path class="cls-12" d="M23,30.83l-.48.36Z"/><path class="cls-3" d="M37.39,63.47l.41.29Z"/><path class="cls-3" d="M32.2,60.7l.52.4Z"/><path class="cls-5" d="M63,26.31v.25l-.43-.26Z"/><path class="cls-11" d="M43.71,46.73l1,.1Z"/><path class="cls-6" d="M31.2,42.89l.46.15Z"/><path class="cls-6" d="M36.68,44.5l.51.28Z"/><path class="cls-13" d="M20.56,44.67l.28-.33c.07.11.13.22.19.33Z"/><path class="cls-10" d="M4.8,44.77l.52.12Z"/><path class="cls-1" d="M40.72,47.7l.08-.38.23.15Z"/><path class="cls-11" d="M46.23,46.86h0Z"/><path class="cls-5" d="M15.05,42.06l-.23,0Z"/><path class="cls-11" d="M45.35,46.82l.22,0Z"/><path class="cls-13" d="M23.68,43.6l-.47.41Z"/></g></svg>