<svg xmlns="http://www.w3.org/2000/svg" viewBox="0 0 100 100"><defs><style>.cls-1{fill:#8ec1c2;}.cls-2{fill:#91c2c4;}.cls-3{fill:#5ea7a9;}.cls-4{fill:#6caeb0;}.cls-5{fill:#4c9da0;}.cls-6{fill:#8bbfc1;}.cls-7{fill:#8fc2c3;}.cls-8{fill:#88bdbf;}.cls-9{fill:#97c6c7;}.cls-10{fill:#7eb8b9;}.cls-11{fill:#71b1b3;}.cls-12{fill:#66abad;}.cls-13{fill:#85bbbd;}.cls-14{fill:#a8cfd1;}.cls-15{fill:#a3cdce;}.cls-16{fill:#b1d4d5;}.cls-17{fill:#e4f0f1;}.cls-18{fill:#eff6f7;}.cls-19{fill:#e9f3f3;}.cls-20{fill:#51a0a2;}.cls-21{fill:#62a9ab;}.cls-22{fill:#5ba5a8;}</style></defs><g id="Ebene_5" data-name="Ebene 5"><path class="cls-1" d="M22.58,73.05h.68l2.56.62A5.74,5.74,0,0,1,30,80a7.11,7.11,0,0,0-.1.79c-.11,1-.2,2-1.53,2.15-.35,0-.65.49-1,.75-.8.61-1.39.41-1.52-.6a11.52,11.52,0,0,1,0-2.42c.08-.94-.08-1.65-1.08-2-.32-.12-.54-.52-.81-.79-.56-.58-1.1-.79-1.61.05L21.61,79c-.07.23-.15.46-.22.69l0,1c.06.16.12.31.19.46.19.85.37,1.69.56,2.53l.13,1.43c1.08.08,1.5.64,1.4,2l1.92.65.76-1.07.42.31c.24.36.49.7.69,0l.39-.3.63.9,1.32-.82-.5-1.18a13.19,13.19,0,0,0,4.43-5.87,8.17,8.17,0,0,1,.73-2.14,4.27,4.27,0,0,0,.78-3.2,46,46,0,0,0-.32-5.21c-.37-2.18.91-3.93,2.23-5.56.29-.36.6-.7.87-1.07A6,6,0,0,1,43.92,60c.75.07,1.52-.19,2.27-.13a4.52,4.52,0,0,1,1.35.58l2.12.94A2.38,2.38,0,0,1,51.11,63c.17.62.79,1.1,1.09,1.71.47.93,1.08,1.85,0,2.89a5.18,5.18,0,0,0-.74,1.72l-1.16-.25-.59-.94-1-1.4-1.39-.93c-.62-.14-1.26-1.33-1.84,0-.61,0-1.22.09-1.83.12l-.72.13-.76.41-.41.45-1.86,2.33c0,.24-.08.48-.13.72l-.09,1.14-.14.71c-.21.81-.43,1.62-.63,2.43-.35,1.4-.79,2.79-1,4.21A13.38,13.38,0,0,1,34.63,85a53.74,53.74,0,0,1-4.34,4.33c-.11.11-.36.08-.55.12l-.85.48-.47-.8a6.83,6.83,0,0,1-1.85.62c-1.22.06-2.44-.08-3.66-.1-1.72,0-2-.35-1.32-2.11L20,88.18l1.54,2.11-.79.06-.94-.92a1,1,0,0,0-1.11-1.17c-.16-.31-.33-.61-.49-.91,0-.59.05-1.18.09-1.95l-1,.78a1.72,1.72,0,0,1-.07-.21l-.19-.23c-.25-.93-.49-1.85-.74-2.77,0-.39-.07-.78-.11-1.17-.63-2.82,1.08-4.56,2.88-6.25l.7-.45,2.3-2ZM27,88.74c-.06.1-.17.2-.15.26s.18.18.22.16a1.16,1.16,0,0,0,.23-.26Zm-4.12.3c.07,0,.15.09.19.07s.06-.12.09-.18-.14-.09-.19-.08S22.92,89,22.89,89Z"/><path class="cls-2" d="M54.7,0c1.89.22,3.79.41,5.69.66a48.54,48.54,0,0,1,4.83.76,27.56,27.56,0,0,1,3.14,1.23c.67.24,1.39.36,2.06.6C73.85,4.41,77,6,79.28,9a1.44,1.44,0,0,0,.39.42c2,1,3.12,2.89,4.37,4.61a42.7,42.7,0,0,1,2.5,3.88c1,1.71,1.91,3.47,2.88,5.2a7.64,7.64,0,0,1,1.31,4.53,18.36,18.36,0,0,1-.61,1.86A8.34,8.34,0,0,0,90,31c-.22-.26-.57-.5-.64-.8-.27-1-.14-2.31-.71-3.09a9.87,9.87,0,0,1-1.34-3.78c-.25-1-.58-1.61-1.66-1.61l.14-1.35c-1.33.19-.89,1.32-1.24,2a12.41,12.41,0,0,1-1.82-1.18,9.66,9.66,0,0,1-1.16-1.57l-.3.19c.34.83.68,1.66,1,2.52a21.94,21.94,0,0,0-2.84-1.74,6.25,6.25,0,0,1-2-1.3c-.39-.39-1.16-.39-1.76-.56l-.91.22L73.19,17.8l-.46,0-.55-.94c-1.19.91-1.52-.08-2-.84-.51.54-.24,1.65-1.44,1.58a23.4,23.4,0,0,0-3,.21l-1.15-.47-.08-1.06-.23,0-.15.81h-.69L63,16.41c1.59-1,3.38-.91,5.1-.82a43.11,43.11,0,0,1,5.63.8,19.57,19.57,0,0,1,3,.9c.84.29,1.65.69,2.47,1l.3-.31a10.23,10.23,0,0,0-1.1-2c-1.36-1.54-2.77-3-4.26-4.46a17.38,17.38,0,0,0-7-4.23c-2.12-.64-4.18-1.53-6.33-2s-4.3-.66-6.46-1l1.39-1.5h.44Z"/><path class="cls-3" d="M63.49,17.09h.69l.46.22,1.15.47.9.46a3.41,3.41,0,0,1,.67.3,5.76,5.76,0,0,1,.64.75l.37-1.1c.61,0,1.29,0,2-.1s1.6-.21,2.4-.32l.46,0,1.63,1.14.91-.22c.08,1,.06,2.1,1.25,2.7l.32-1.07c1,.95,1.09,2.35.21,2.38s-.53.53-.63.88l-1.37-1.2-.06-.93H73.89c-.44-.78-1-.52-1.62-.23l-2.22-1.19-1.75,1,2.14,1.39-.17.34-2.12-.56a2.36,2.36,0,0,1-1.39.48c-.87,0-1.74-.18-2.61-.26-.06,0-.14.24-.21.37l-.24.46-.45.47-.46.47c-1.17-.11-1.68.55-1.85,1.6L58.49,27.8a9.7,9.7,0,0,0-1.18-.74,2.11,2.11,0,0,0-.8,0,2.43,2.43,0,0,0,.15.67,5,5,0,0,0,.61.77l-1.79.73-.58.28-.89.25c-.66-.73-1.26-.31-1.89.06S50.69,30.57,50,31a4.21,4.21,0,0,0-.64.56l-.36.16-1.49.47-3.13.22H42.62l-.36-.16L41,31.74,38.8,30.38,38.31,30l-.68-1a5.83,5.83,0,0,0,.35-1c.15-.73.07-1.63,1.29-1.37.09,0,.37-.33.36-.48a8.67,8.67,0,0,1,.78-5,6.44,6.44,0,0,1,.69,1.29A3.54,3.54,0,0,0,43.25,25a21.93,21.93,0,0,0,2.9,1A2.62,2.62,0,0,0,49,25l.17-.15.46-.12c.47,1.16,1.1.63,1.8.23s1.43-.67,2.35-1.08a4.45,4.45,0,0,1-.15.67c-.14.33-.29.65-.44,1,.31.13.67.42.91.34s.46-.49.64-.78c.38-.64.68-1.38,1.65-.7a.92.92,0,0,0,.79-.29c.17-.87.9-.92,1.5-1.19a5.84,5.84,0,0,0,.8-.57l-1.06-.64,0-.28,1.9-.24L59.9,19A6.21,6.21,0,0,0,63.49,17.09Zm-.55,4h5C67.17,19.85,64.9,19.86,62.94,21.11Z"/><path class="cls-4" d="M68.27,61l.12,1c-.18,1.19.83,1.44,1.52,1.95a.27.27,0,0,1,.08.16c.17.56,0,1.37.93,1.41h0c-.67,1.08.11,2,.15,2.88l2.55-.5,0,0,.5.41.29.37-1,.57,1.21,1.31H73c.28.38.45.82.66.84,1,.11,1.18,1,1.75,1.46s.88,2.3,2.26.88c.06-.06.29.09.44.09s.17-.09.33-.18l-.59-.48.22-.31a5.12,5.12,0,0,1,.77.69c.17.22.15.59.32.81A3.94,3.94,0,0,0,80,75c.14-.34.31-.66.42-1a1.6,1.6,0,0,0,0-.57l1.6.62a2.1,2.1,0,0,0,2.16,1.21c1.22-.17,2.37-.37,3.19.4L89.46,72l-1-.62h0l1.86-.3a5.42,5.42,0,0,0,0-4.08l-.06-.59c0-.11-.09-.23-.14-.34s0-.25-.08-.37-.25-.38-.38-.56l-.29-.4-.2-.29-.92-1.29a11.71,11.71,0,0,1-1.1-1.13,2.44,2.44,0,0,0-2.73-1.16c-.34.07-.9-.43-1.18-.81-.1-.13.23-.78.52-1a1.67,1.67,0,0,1,2.38.37c.34.37.56.61,1.23.34a7.32,7.32,0,0,1,2.45-.17,8.19,8.19,0,0,1,3,5.57c.15,1.12.44,2.21.65,3.31a5.21,5.21,0,0,1,0,.79c-.28.13-.72.18-.82.39-.82,1.72-1.53,3.49-2.37,5.19-.22.46-.75.76-1.14,1.13L88,75.35l.25,1.15a9,9,0,0,0-.82.94,1.78,1.78,0,0,0-.14.67,1,1,0,0,0,0,.17l-.43.29-2.56.31-.19-.12c-.39-.64-.79-.57-1.21,0l-.64,0c-.1-.75-.38-1.1-1.29-1a3.58,3.58,0,0,1-2.42-.43,4.9,4.9,0,0,0-2.79-.82c-1.13-.62-2.31-1.16-3.37-1.87a16.1,16.1,0,0,1-2-1.82l-.71-1.39c-.14-.45-.29-.91-.44-1.36,0-.17,0-.34,0-.5L69,68.4v-.69l-1.92-2,.46-.91c-.47-.66-.84-1.16-1.18-1.68s-.62-1.5-1.18-1.81a2.55,2.55,0,0,1-1.29-1.65c-.06-.2-.43-.31-.66-.47l-.3.73c-.1.26-.17.52-.28.78s-.38.79-.57,1.18c-.54.94-1.08,1.87-1.63,2.8a1.57,1.57,0,0,1-.2.25l-1.43.21c.53-.75.11-1.11-.47-1.25-1.27-.3-.83-1-.5-1.73.55-1.17,1.12-2.32,1.69-3.48h0c.23-.15.47-.29.71-.43a4.1,4.1,0,0,1,1.1-.41c.79-.08,1.58-.05,2.37-.07l.4,0,0,0C65.39,59.08,66.52,60.44,68.27,61Zm18,16.22c.06,0,.14.09.18.07s.06-.11.09-.18-.14-.09-.19-.07S86.25,77.19,86.23,77.25Z"/><path class="cls-5" d="M40.41,21.23a8.67,8.67,0,0,0-.78,5c0,.15-.27.5-.36.48-1.22-.26-1.14.64-1.29,1.37a5.83,5.83,0,0,1-.35,1l-.45-.86c0-.15,0-.39-.07-.43-1.82-1-2-2.83-2.26-4.54s-.44-3.46-.65-5.19c-.1-.3-.21-.59-.31-.88l.39-1.77L33,15.92l-1.19-.66a1.35,1.35,0,0,0-.12-.43c-1.08-1.46-3.06-1.35-4.32-2.5l-.13.13.62,1c-1,.28-1.75.2-2.21-.72-.2-.4-.36-.81-.54-1.21l.24-.24,1.12-.14,1.19-.08c.63,1.09,1.69,1.2,2.72.33a5.05,5.05,0,0,1,1.17-.56l.52.32.64.14.61.29,1.72,1.08.33,1.11c.38-.4.69-.58.75-.83.4-1.53.75-3.08,1.13-4.62a1.5,1.5,0,0,1,.36-.71c.67-.72,1.38-1.4,2.08-2.09h0l.44-.25.9-.93.72-.45h0a2.86,2.86,0,0,0,2.77-1.6l.22-.26c.31.11.8-.26.86.54,0,.36.82.67,1.26,1a3.79,3.79,0,0,0,.65-1c.31-1.06.4-1.18,1.16-1l-.4,1.18a2.1,2.1,0,0,0,.71.17.89.89,0,0,0,.86-1.09A6,6,0,0,1,50.08.45c2.19.06,3,.93,2.6,2.66L51.46,3V4.73L49,5.39l-1.5.31-.59.15L46.61,6a.58.58,0,0,1-.19,0l-.25.26a.27.27,0,0,1-.06.17c-1.85.09-2,.38-1.38,2.08a3.18,3.18,0,0,1,.08.33l-.73.42L43.5,7.85c-.64,1-1,1.59-1.47,2.21l-1.87-.71c.3,1,.22,1.56-.81,1.55-.19,0-.52.43-.57.69-.25,1.49-.47,3-.62,4.48,0,.24.31.65.57.75a3.33,3.33,0,0,0,1.14,0v.7l0,.46-.08.45-1.48,3.14,2-.38Z"/><path class="cls-3" d="M85.69,21.69c1.08,0,1.41.58,1.66,1.61a9.87,9.87,0,0,0,1.34,3.78c.57.78.44,2.05.71,3.09.07.3.42.54.64.8,0,.22,0,.44,0,.66l-.54.46.41.26c0,.45-.06.91-.1,1.36a.47.47,0,0,0-.17,0c-.31.22-.79.37-.88.66-.44,1.36-1.35,2.93-1,4.11.48,1.67-.86,2.45-.95,3.7a6.7,6.7,0,0,1-1.39,3.88c-.18.21.16.84.26,1.28-.52,1.24-1.42,2.46-1.45,3.71a7.43,7.43,0,0,1-1.1,3.22l-2.45,0c0-.15.05-.29.07-.44.6-.5,1.15-1,.57-1.88l.36-5.75c.26-.3.46-.71.79-.9,1.07-.62.42-2,1.16-2.69a.58.58,0,0,0-.12-.52c-.95-.42-.85-1.35-.93-2.08-.11-1.22,0-2.45,0-3.74,1.17.23,2,.28,2.58-.83l-2.31-1.06,0-.65,1-.19v-.32l-1.31-.45c1.11-.6.66-1.29.39-2a7.25,7.25,0,0,1-.25-1.23c.69-.79.67-1.42-.06-1.84S81,27,82.07,26.05c.07-.07,0-.29,0-.43a2.5,2.5,0,0,1,1.64-2.76l-.22,1.32,1,.6,1.21-1.39C84.86,22.79,84.87,22.21,85.69,21.69Z"/><path class="cls-3" d="M13.34,19l.23-.26.48-.61,1.82-1.47c.64.36,1,.19,1.54-.39a12.16,12.16,0,0,1,2.37-1.89,7.49,7.49,0,0,1,1.61-.78c.45-.18.93-.29,1.39-.43l0,0a10.87,10.87,0,0,1-.92,1.3c-.24.24-.7.54-.94.46-1.1-.35-1.35.42-1.76,1,.73.23,1.35.48,2,.62.25.05.55-.14.82-.24A5.84,5.84,0,0,1,23,16c.85-.12,1.71-.17,2.56-.25v.65l-.69.21-.69.26-1.52.57-.56.35-1.8,1.69c-1.34,0-1.69.44-1.6,1.87h0c-.46,0-1-.16-1.36,0A18.37,18.37,0,0,0,14.92,23c-.29.23-.65.61-.64.91.05,1.08-.6,1.88-.93,2.8-.18.49-.3,1-.44,1.5l-.77,2.25c-.36.91-1.15,1.91-1,2.72.29,1.47-.38,2.68-.47,4a2.44,2.44,0,0,0,.21,1.26c.06.12.7,0,1-.11,1.72-.6,1.72-.61,2.1,1.13l-.64.42.22.22.42-.64,1.07,1.54c0-1.32.58-1.62,1.5-1.53-.24.77-.48,1.54-.73,2.3h-.46l-.92-.23-1.63-.73-.17.32.93.81-1.9.53V40l-1.66,1.42,1.65,1.33c.11,1,0,1.84-1.38,1.62H9.87c-.83-.77-.73-1.77-.69-2.76,1.2-.67,1.16-1.32-.2-2.48l.33-.72L8,37V34.43c.94-.77.14-1.7.23-2.56l0-2.75.6-.4-.37-.3-.16-1.13c.07-.24.15-.48.22-.72l1.8-.81-1.11-.58,0-.23,1.69-2.2a7,7,0,0,0,1.32.43c.2,0,.43-.21.75-.37l-.6-.53.27-2.63.25-.24Zm-4.13,8.7.15-.2L8.9,27.1l-.15.2Z"/><path class="cls-6" d="M82.79,34.42l2.31,1.06c-.61,1.11-1.41,1.06-2.58.83,0,1.29-.1,2.52,0,3.74.08.73,0,1.66.93,2.08a.58.58,0,0,1,.12.52c-.74.74-.09,2.07-1.16,2.69-.33.19-.53.6-.79.9-.36-2.26-.55-4.56-1.11-6.77-.82-3.23-2.2-6.16-5.09-8.19-1.62-1.14-3.07-2.52-4.58-3.82-1.79-1.55-3.68-2.75-6.2-2.1l-1.4-1.57.45-.47.65.05-.41-.51c.07-.13.15-.37.21-.37.87.08,1.74.23,2.61.26a2.36,2.36,0,0,0,1.39-.48l2.12.56.17-.34L68.3,21.1l1.75-1,2.22,1.19,1.62.23h1.56l.06.93-4.24.19c1.34,1.16,2.55,2.25,3.8,3.29a34,34,0,0,1,4,3.36,39,39,0,0,1,2.94,4.62A2.8,2.8,0,0,0,82.79,34.42Z"/><path class="cls-4" d="M14,39.51c-.38-1.74-.38-1.73-2.1-1.13-.34.12-1,.23-1,.11a2.44,2.44,0,0,1-.21-1.26c.09-1.33.76-2.54.47-4-.16-.81.63-1.81,1-2.72-.41,2.31.62,4.35,1.18,6.48l.68.66c.57-.6,1-1.06,1.42-1.47s.9-.68,1.3-1.07.66-1.1,1.09-1.21c1-.24.84-.9.82-1.57l.45-.31.34.48.39-.83A.2.2,0,0,1,20,31.6c.36.06.86.39.78-.39l.82-.32.81-.56.91-.27.7-.21.92-.26.48-.11,2.52-.84.47-.21.7-.7a2.54,2.54,0,0,1,.37.44c.11.2.13.59.24.61s.75,0,.8-.15c.28-.73.45-1.51.66-2.28l.42-.26.5-.69C34,23.29,34.21,20.68,34.2,18c.21,1.73.34,3.48.65,5.19s.44,3.56,2.26,4.54c.08,0,0,.28.07.43-1,.49-2,.93-3,1.46s-1.67,1.07-2.51,1.61c-.41,0-1.12-.64-1,.48l-.39.23-.59.24-.57.22-2.28.46-.29,0-2.12.56-.36.06c-.21.14-.41.29-.61.44a1.69,1.69,0,0,1-.39.22c-1.31.26-2.12.9-1.9,2.37-.44.15-.9.48-1.3.42-1.13-.16-1.57.5-1.94,1.35L16.6,39.52c-.92-.09-1.53.21-1.5,1.53Z"/><path class="cls-6" d="M18,38.27c.37-.85.81-1.51,1.94-1.35.4.06.86-.27,1.3-.42l.28,2a1.66,1.66,0,0,0,.44-.23c1.38-1.79,3.34-2.19,5.45-2.42a24.81,24.81,0,0,0,3.5-1,10,10,0,0,1,5.92.1c1.11.38,2,2.34,1.32,3.28a2,2,0,0,1-1.53.57c-1,0-1.94-.38-2.92-.45a16.74,16.74,0,0,0-5.6.61c-1.73.45-3.32.81-4.5,2.24a1.62,1.62,0,0,1-.75.52c-1.66.4-2.07,1.56-2.16,3.1s-.43,3.08-.66,4.62c-.28-.86-1.29-.86-1.71-.8-1.32.21-1.5-.43-1.39-1.49H15.64l-.46-1.38c.05-.82.09-1.63.16-2.45,0,0,.21-.06.32-.1l.32,3.4h.42Z"/><path class="cls-2" d="M65.55,68.43l.21,2.22-.37.54c-1.28,1.86-2.6,3.66-5,4.28a1.6,1.6,0,0,0-.74.52,6.47,6.47,0,0,1-4.79,2.1,9.27,9.27,0,0,1-2.6.18,13.21,13.21,0,0,1-3-1.3c-.95-.49-1.85-1.09-2.8-1.56a5.11,5.11,0,0,0-1.31-.3l1.18-1.62c1.13-1.31,1.49-1.39,2.88-.64.93.51,1.83,1.08,2.79,1.52,1.66.76,3.15-.09,4.55-.75A27,27,0,0,0,60,71.38,5.73,5.73,0,0,0,62.12,69a1.84,1.84,0,0,1,3-.76Z"/><path class="cls-2" d="M77.08,39.33c.84,2.66.16,5.09-2.2,6.22-.1.05-.25.08-.29.17-1,2.15-3.38,1.59-5,2.48a7.2,7.2,0,0,1-2,.79,27,27,0,0,1-2.85.33c-2.46.26-3.68-1.57-5.09-3.06-.14-.13-.19-.37-.34-.46C58,45,58.8,44,59.07,43.17c.17-.55,1.58-.72,2.16-.31.86.62,1.66,1.36,2.56,1.92a2.86,2.86,0,0,0,1.62.4,20.4,20.4,0,0,0,3.75-.41,10.82,10.82,0,0,0,5.43-3.23C75.36,40.74,76.25,40.07,77.08,39.33Z"/><path class="cls-7" d="M69,28.28a27.89,27.89,0,0,0,2.76,1.18c2,.62,2.9,2.27,3.6,4a3.06,3.06,0,0,1-.49,2.11c-.24.46-1.58-.11-1.74-.87s-.71-1-1.33-1.2-1.41-.72-2.15-1a2.77,2.77,0,0,0-1.4-.33c-2.19.4-4.5.56-6.08,2.48a.69.69,0,0,1-.28.2,4.11,4.11,0,0,1-3.19-1c-.27-.51-.55-1,.45-1.23a4.31,4.31,0,0,0,1.73-1.08,10,10,0,0,1,5.47-2.66c.15,0,.37-.14.44-.08C67.69,29.51,68.34,28.85,69,28.28Z"/><path class="cls-8" d="M80.63,54.31l2.45,0c0,1.09,0,2.19,0,3.28.39.73.9.47,1.42.18l1.79-.2c.15,0,.34-.07.44,0,1,.68,2.05,1.39,3.06,2.09a7.32,7.32,0,0,0-2.45.17c-.67.27-.89,0-1.23-.34a1.67,1.67,0,0,0-2.38-.37c-.29.2-.62.85-.52,1,.28.38.84.88,1.18.81a2.44,2.44,0,0,1,2.73,1.16,11.71,11.71,0,0,0,1.1,1.13c-1.19-.1-2.39-.22-3.59-.27-.29,0-.78.13-.86.33-.42,1-1,2-.46,3.27a3.9,3.9,0,0,1,.19,2c-.16,1.2-1.7,1.66-2.91.69a3.64,3.64,0,0,1-1.79-3.13c.94.62,1.61.49,2.1-.48a7,7,0,0,0,.57-1.72c.15-.77.17-1.56.27-2.65L80.57,62l-1-.26c.07-.22.06-.5.2-.63,1.27-1.25.78-2.81.81-4.28C80.55,56,80.6,55.14,80.63,54.31Z"/><path class="cls-1" d="M16.84,61a.45.45,0,0,1,0-.23c1.06.43,2.13.08,3.19,0h.23c0,.2,0,.41,0,.62l.33.55c0,.46,0,.92.05,1.38l.18,1.39c0,.29.07.59.1.88l.35.29.37.08.42-.35.93-.23.67.42.23-.66h.54l.22.42c.22.38-.69,1.08.35,1.23l-.38.7L23.73,67l.51,1c-.91,1-1.75,2.1-2.73,3a11,11,0,0,1-4.19,2.7c-.63.22-1.11.88-1.71,1.37a1.68,1.68,0,0,1-.38-2.29,10.48,10.48,0,0,1,2.06-2.64c1.54-1.27,1-2.66.54-4.11-.13-.45-.2-.93-.3-1.39-.08-.69-.17-1.37-.25-2,0-.17,0-.34,0-.51Z"/><path class="cls-9" d="M36.2,51.46c-2.15.55-4.27,1.32-6.51.35-1.26-.53-2.52-1.06-3.8-1.5a1.37,1.37,0,0,1-1-1.67c0-.51,0-1,0-1.39,2.06-.91,3.81.27,5.67.48,1.61.18,3.3-.36,5-.59l.83,1L34,48.7l.29,1.37c2.1.19,2.11.18,2.07-1.41,1.27-.48,1.67-.13,1.74,1.5h0l-.92.71h0C36.71,50.83,36.19,50.72,36.2,51.46Z"/><path class="cls-6" d="M52.16,85.51c.9.12,1.53,1,1.58,2.38s0,2.72,0,4.08c0,.4-.07.79-.11,1.19a9.79,9.79,0,0,0,0,3c.47,1.48-.48,2.43-.9,3.58a.61.61,0,0,1-.54.29.91.91,0,0,1-.49-.53c-.5-2-1.06-4-1.41-6s-.66-3.83.36-5.68c.2-.36,0-.93.17-1.34a5.08,5.08,0,0,1,.78-1.11Z"/><path class="cls-6" d="M60.91,91.06v4.37c-.14.47-.28.94-.41,1.41a9.55,9.55,0,0,1-.34,1.3,3.1,3.1,0,0,1-.58.74c-.23-.22-.61-.41-.67-.66-.43-2-.84-4.08-1.19-6.13-.27-1.58-.46-3.16-.66-4.75-.06-.53,0-1.07-.05-1.61l1.16-.23c.6.56,1.41,1,1.76,1.71a16,16,0,0,1,.89,3.14Z"/><path class="cls-8" d="M47.6,86.24c-.45,1.17-.84,2.13-1.18,3.1A50.33,50.33,0,0,0,44.8,94.2a4.61,4.61,0,0,1-1.89,2.48.62.62,0,0,1-.59,0,1.2,1.2,0,0,1-.29-.8c.08-.52.37-1,.44-1.52a27.59,27.59,0,0,1,2.44-8.55c.27-.57,1-.93,1.5-1.38Z"/><path class="cls-2" d="M66.31,93.89c-.47-.92-1-1.81-1.39-2.76s-.61-2.2-1.05-3.25c-.29-.66-1-1.16-1.25-1.83a8.76,8.76,0,0,1-.45-2.5c0-.17.53-.57.6-.52.76.5,1.93.1,2.38,1.37.61,1.75,1.55,3.4,2.25,5.12a3.2,3.2,0,0,1,.18,1.78,19.55,19.55,0,0,1-.9,2.49Z"/><path class="cls-8" d="M8,36.05V37a4.23,4.23,0,0,1,.18,1.29,3.43,3.43,0,0,0,1,3.34c0,1-.14,2,.69,2.76.08.62.15,1.24.23,1.86,0,.07,0,.15,0,.22l-1.18.48L7.7,44.84c0-.16-.09-.32-.13-.48A11.77,11.77,0,0,1,6.44,38.8a26.24,26.24,0,0,1,.42-3.91l0-.7c.07-.49.15-1,.23-1.46.3-1.71.6-3.42.92-5.13,0-.12.18-.21.27-.31.05.38.1.75.16,1.13-.08.23-.15.46-.23.7,0,.92,0,1.84,0,2.75-.2.12-.58.24-.57.34.07.74.21,1.48.34,2.22v.69C8,35.43,8,35.74,8,36.05Z"/><path class="cls-8" d="M38,93.19c-.69.16-1.15,1.54-2,.43A41.66,41.66,0,0,0,37.37,89a5.17,5.17,0,0,1,1.25-2.64,3,3,0,0,1,2-1c.8.08,1.22,1.91.8,2.8a33.48,33.48,0,0,1-1.54,3,12.27,12.27,0,0,1-1.41,1.66Z"/><path class="cls-10" d="M38.08,50.16c-.07-1.63-.47-2-1.74-1.5,0,1.59,0,1.6-2.07,1.41L34,48.7l2.37-.54-.83-1a10.38,10.38,0,0,1,1.3-1.27c1-.73,2.13-1.39,3.24-2,.12-.07.65.25.7.46a16.85,16.85,0,0,1,.4,2.36c0,.28,0,.77-.2.86C39.76,48.16,39.57,49.88,38.08,50.16Z"/><path class="cls-9" d="M20,60.78c-1.06.08-2.13.43-3.19,0q-.59-3-1.16-6c1.31-.42,2.88.33,4-.91,0,0,.07,0,.11,0a4.34,4.34,0,0,0-.21,1.22c.13,1.4.32,2.79.5,4.19,0,.18,0,.36,0,.54S20,60.45,20,60.78Z"/><path class="cls-11" d="M19.8,53.84s-.1,0-.11,0c-1.13,1.24-2.7.49-4,.91a1.56,1.56,0,0,0-.59-2.2l.12-.12.93.29c.39-.48.67-.83,1-1.17s.59-.49.55-.59c-.31-.75-.53-1.77-1.13-2.12a1.53,1.53,0,0,1-.89-1.7h1.25c-.11,1.06.07,1.7,1.39,1.49.42-.06,1.43-.06,1.71.8l0,1.4c-.54.23-.54.47,0,.71L20,53.38l-.23.45Z"/><path class="cls-7" d="M71.55,82.51c.21.32.42.63.62.95.69,1.17-.19,3.28-1.52,3.45-.89-1.9-1.75-3.84-2.72-5.73-.35-.69-.45-1.4.2-1.67a2,2,0,0,1,1.66.49,8.74,8.74,0,0,1,1.26,1.85Z"/><path class="cls-8" d="M85.63,47.36c-.1-.44-.44-1.07-.26-1.28a6.7,6.7,0,0,0,1.39-3.88c.09-1.25,1.43-2,.95-3.7-.34-1.18.57-2.75,1-4.11.09-.29.57-.44.88-.66l.07.48Q89.3,37.09,88.9,40c-.16.39-.32.79-.47,1.18a11,11,0,0,1-.54,2.79A29.09,29.09,0,0,1,85.63,47.36Z"/><path class="cls-6" d="M59.55,58.69C59,59.85,58.41,61,57.86,62.17c-.33.7-.77,1.43.5,1.73.58.14,1,.5.47,1.25l1.43-.21a2.36,2.36,0,0,1-3.07,2.3,9.88,9.88,0,0,0-1.69-.09c.29-.34.44-.69.61-.7,1.16-.08,1.11-1,.87-1.59-.72-1.91.24-3.5.8-5.17C58.07,58.85,58.8,58.75,59.55,58.69Z"/><path class="cls-7" d="M70.16,77.75c1-1.34,1.69-1.4,2.68-.3a38.26,38.26,0,0,1,2.57,3.14,3.37,3.37,0,0,1,.48,1.61c0,.13-.56.5-.79.44A2.44,2.44,0,0,1,74,82C72.67,80.58,71.44,79.18,70.16,77.75Z"/><path class="cls-12" d="M51.46,4.73V3l1.22.07c.44-1.73-.41-2.6-2.6-2.66V.23l3-.06c.45.36.87.52,1.18-.14l.45,0c.52.94,1,1.88,1.58,2.82h-.44l-1.39,1.5-.81.14-.58.25Z"/><path class="cls-13" d="M80.36,73.46a1.6,1.6,0,0,1,0,.57c-.11.35-.28.67-.42,1a3.94,3.94,0,0,1-.78-.6c-.17-.22-.15-.59-.32-.81a5.12,5.12,0,0,0-.77-.69l-.22.31.59.48c-.16.09-.25.18-.33.18s-.38-.15-.44-.09c-1.38,1.42-1.71-.37-2.26-.88s-.79-1.35-1.75-1.46c-.21,0-.38-.46-.66-.84h1.57L73.4,69.33l1-.57a8.67,8.67,0,0,1,1.75,2c.67,1.55,2.09,1.76,3.35,2.31Z"/><path class="cls-14" d="M20.75,90.35l.79-.06L20,88.18l1.59-.62c-.65,1.76-.4,2.08,1.32,2.11,1.22,0,2.44.16,3.66.1a6.83,6.83,0,0,0,1.85-.62l.47.8c-.19.29-.38.57-.56.86a10.25,10.25,0,0,1-1.13.77,2.06,2.06,0,0,1-1.17.35c-1.73-.4-3.45-.91-5.17-1.39C20.81,90.53,20.78,90.42,20.75,90.35Z"/><path class="cls-3" d="M25.12,11.56c.18.4.34.81.54,1.21.46.92,1.22,1,2.21.72l-.62-1,.13-.13c1.26,1.15,3.24,1,4.32,2.5a1.35,1.35,0,0,1,.12.43H27.2l-1.16,0a2.43,2.43,0,0,0-3.23-2.06l0,0c.41-.49.81-1,1.21-1.48Z"/><path class="cls-2" d="M62.09,61.89c.19-.39.39-.78.57-1.18s.18-.52.28-.78l.3-.73c.23.16.6.27.66.47a2.55,2.55,0,0,0,1.29,1.65c.56.31.78,1.19,1.18,1.81s.71,1,1.18,1.68l-.46.91,1.92,2L67,67a10.77,10.77,0,0,0-3.31-4.76C63.34,61.94,62.63,62,62.09,61.89Z"/><path class="cls-9" d="M89.15,76c.39-.37.92-.67,1.14-1.13.84-1.7,1.55-3.47,2.37-5.19.1-.21.54-.26.82-.39a17.1,17.1,0,0,0,.06,2.15A2.66,2.66,0,0,1,92.39,74l-.52.82v0l-.4.5a4.76,4.76,0,0,1-2.3,2.17l-1.41.59h-.48a1.78,1.78,0,0,1,.14-.67,9,9,0,0,1,.82-.94Z"/><path class="cls-8" d="M88.43,71.39l1,.62-2.15,3.68c-.82-.77-2-.57-3.19-.4A2.1,2.1,0,0,1,82,74.08c1.7.6,2.84-.82,4.28-1.2a8.19,8.19,0,0,0,1.25-.57l.11.1v0l-.12-.09Z"/><path class="cls-12" d="M79.52,61.72l1,.26,1.18-.75c-.1,1.09-.12,1.88-.27,2.65a7,7,0,0,1-.57,1.72c-.49,1-1.16,1.1-2.1.48-.64-1,0-1.83.22-2.72C79.17,62.81,79.36,62.27,79.52,61.72Z"/><path class="cls-4" d="M50.08.23V.45a6,6,0,0,0-.21,1.38A.89.89,0,0,1,49,2.92a2.1,2.1,0,0,1-.71-.17l.4-1.18c-.76-.17-.85-.05-1.16,1a3.79,3.79,0,0,1-.65,1c-.44-.33-1.24-.64-1.26-1-.06-.8-.55-.43-.86-.54A12.44,12.44,0,0,1,50.08.23Z"/><path class="cls-1" d="M39.7,5.56c-.7.69-1.41,1.37-2.08,2.09a1.5,1.5,0,0,0-.36.71c-.38,1.54-.73,3.09-1.13,4.62-.06.25-.37.43-.75.83-.15-.52-.24-.81-.33-1.11s.06-.59.08-.88c.29-.89.61-1.77.85-2.66A5,5,0,0,1,39.7,5.56Z"/><path class="cls-7" d="M24,11.66c-.4.49-.8,1-1.21,1.48-.46.14-.94.25-1.39.43a7.49,7.49,0,0,0-1.61.78,12.16,12.16,0,0,0-2.37,1.89c-.51.58-.9.75-1.54.39C18.07,14.14,20.55,12.12,24,11.66Z"/><path class="cls-3" d="M10.09,46.44c0-.07,0-.15,0-.22h.46l1.29.45c.27,2,.27,2,1.71,1.44a2.72,2.72,0,0,1-.71,2.73l-.45-.45-.09-.31-.12.28H12L10.77,49l.78-1.57-1,0H10.1Z"/><path class="cls-1" d="M36,87c-.15,2.48-2.11,3.5-3.06,5.16a8.17,8.17,0,0,1,1.7-4.74C34.83,87.17,35.42,87.19,36,87Z"/><path class="cls-8" d="M81,71.64c-1.78-.14-4-2.1-3.75-3.33C78.38,68.37,81,70.7,81,71.64Z"/><path class="cls-4" d="M12.64,19.65l-.27,2.63.6.53c-.32.16-.55.39-.75.37a7,7,0,0,1-1.32-.43L9.21,25A13.31,13.31,0,0,1,12.64,19.65Z"/><path class="cls-13" d="M73.62,68l-2.55.5c0-.89-.82-1.8-.15-2.88.35.06.83,0,1,.18C72.56,66.44,73.07,67.22,73.62,68Zm-1.33-.76.18-.24L72,66.63l-.13.17Z"/><path class="cls-14" d="M26.32,86.62l-.76,1.07L23.64,87c.1-1.31-.32-1.87-1.4-2l-.13-1.43.58.5c.87.83,1.41,2.17,3,1.88C25.87,86,26.11,86.42,26.32,86.62Z"/><path class="cls-15" d="M75.73,76.5a4.9,4.9,0,0,1,2.79.82,3.58,3.58,0,0,0,2.42.43c.91-.1,1.19.25,1.29,1l-1.58-.24-1-.18A5.17,5.17,0,0,1,75.73,76.5Z"/><path class="cls-11" d="M12,50.37h.22l.21,0,.45.45c.79.7,1.59.39,2.39,0,.39-.17.75-.38,1.13-.57l.28.4c-.31.33-.64.65-.93,1s-.34.48-.51.72l-.12.12C13.71,52.31,12.4,52,12,50.37Z"/><path class="cls-7" d="M68.27,61c-1.75-.59-2.88-2-4.11-3.2C65.91,58.41,67.83,58.77,68.27,61Z"/><path class="cls-8" d="M90.3,67a5.42,5.42,0,0,1,0,4.08l-1.86.3A8.28,8.28,0,0,0,90.3,67Z"/><path class="cls-9" d="M49.35,31.55A4.21,4.21,0,0,1,50,31c.7-.42,1.43-.8,2.13-1.22S53.35,29,54,29.71c-.17.2-.3.51-.51.58C52.13,30.74,50.74,31.14,49.35,31.55Z"/><path class="cls-3" d="M31.56,10.87a5.05,5.05,0,0,0-1.17.56c-1,.87-2.09.76-2.72-.33A5.1,5.1,0,0,1,31.56,10.87Z"/><path class="cls-14" d="M20.09,59.25c-.18-1.4-.37-2.79-.5-4.19a4.34,4.34,0,0,1,.21-1.22H20c.12,1.62.24,3.25.33,4.87C20.34,58.88,20.17,59.06,20.09,59.25Z"/><path class="cls-6" d="M60.94,25.86c.17-1.05.68-1.71,1.85-1.6l0,1.07Z"/><path class="cls-16" d="M29.27,85.5l.5,1.18-1.32.82-.63-.9Z"/><path class="cls-16" d="M62.76,25.33l0-1.07.46-.47,1.4,1.57Z"/><path class="cls-13" d="M69.91,64c-.69-.51-1.7-.76-1.52-1.95A1.68,1.68,0,0,1,69.91,64Z"/><path class="cls-9" d="M67,67l2,.69c0,.23,0,.46,0,.69l-.88,0v.71h0Z"/><path class="cls-9" d="M57.27,28.45a5,5,0,0,1-.61-.77,2.43,2.43,0,0,1-.15-.67,2.11,2.11,0,0,1,.8,0,9.7,9.7,0,0,1,1.18.74Z"/><path class="cls-4" d="M44.55,2.33a2.86,2.86,0,0,1-2.77,1.6Z"/><path class="cls-17" d="M45.47,65.88c.58-1.37,1.22-.18,1.84,0C46.72,66.78,46.09,66.12,45.47,65.88Z"/><path class="cls-18" d="M35.13,11.82c0,.29-.05.59-.08.88l-1.72-1.08Z"/><path class="cls-4" d="M9.24,25.18l1.11.58-1.8.81C8,25.74,9.21,25.74,9.24,25.18Z"/><path class="cls-6" d="M24.46,33.41l2.12-.56C26,33.43,25.47,34.38,24.46,33.41Z"/><path class="cls-4" d="M10.55,47.38l1,0L10.77,49l-.46-.45Z"/><path class="cls-18" d="M46.4,73.49l-1.18,1.62a1,1,0,0,1,.5-1.6A3.06,3.06,0,0,1,46.4,73.49Z"/><path class="cls-14" d="M17.33,86.18l1-.78c0,.77-.06,1.36-.09,1.95Z"/><path class="cls-17" d="M84.27,78.88l2.56-.31c-.07.12-.11.35-.19.36a19.24,19.24,0,0,1-2,.28C84.53,79.22,84.39,79,84.27,78.88Z"/><path class="cls-8" d="M81.27,52c.58.86,0,1.38-.57,1.88Z"/><path class="cls-18" d="M25.82,73.67l-2.56-.62A2.24,2.24,0,0,1,25.82,73.67Z"/><path class="cls-18" d="M48.7,66.77l1,1.4C48.68,68.22,48.36,67.74,48.7,66.77Z"/><path class="cls-4" d="M10.09,46.44c0,.31,0,.62,0,.93l-.72.25c-.15-.24-.31-.47-.47-.7Z"/><path class="cls-9" d="M17.28,62.64c.08.68.17,1.36.25,2C17.45,64,17.36,63.32,17.28,62.64Z"/><path class="cls-8" d="M9.38,47.62l.72-.25h.45l-.24,1.17Z"/><path class="cls-6" d="M26.87,32.87l2.28-.46C28.43,32.74,27.82,33.67,26.87,32.87Z"/><path class="cls-18" d="M41.75,67l.41-.45a2.34,2.34,0,0,1,.45.5s-.28.38-.34.36A2.47,2.47,0,0,1,41.75,67Z"/><path class="cls-9" d="M42.62,32.4h1.75A1.12,1.12,0,0,1,42.62,32.4Z"/><path class="cls-18" d="M60.5,96.84c.13-.47.27-.94.41-1.41C61.36,96.07,61.37,96.58,60.5,96.84Z"/><path class="cls-18" d="M38,93.19l.5-.33.48,1-.23.22Z"/><path class="cls-14" d="M22.36,77.9c.51-.84,1.05-.63,1.61-.05Z"/><path class="cls-9" d="M47.5,32.18,49,31.71C48.67,32.42,48.1,32.36,47.5,32.18Z"/><path class="cls-14" d="M25.05,66.79c-1-.15-.13-.85-.35-1.23C24.82,66,24.94,66.38,25.05,66.79Z"/><path class="cls-10" d="M36.2,51.46c0-.74.51-.63,1-.59C37.25,51.72,36.67,51.5,36.2,51.46Z"/><path class="cls-17" d="M69.68,71.42l.71,1.39Z"/><path class="cls-13" d="M70.92,65.59c-1,0-.76-.85-.93-1.41Z"/><path class="cls-14" d="M20.87,64.72l-.18-1.39Z"/><path class="cls-17" d="M84.51,57.75c-.52.29-1,.55-1.42-.18Z"/><path class="cls-14" d="M18.7,88.26a1,1,0,0,1,1.11,1.17Z"/><path class="cls-18" d="M71.55,82.51l-.5-.66,1.22-.28Z"/><path class="cls-17" d="M87.75,78.1l1.41-.59Z"/><path class="cls-14" d="M23.94,65.15l-.23.66L23,65.39Z"/><path class="cls-9" d="M69.26,69.56c0,.16,0,.33,0,.5l-1.11-1h0Z"/><path class="cls-18" d="M50.31,69.11l1.16.25C51.06,69.82,50.75,69.76,50.31,69.11Z"/><path class="cls-9" d="M41,31.74l1.28.5Z"/><path class="cls-2" d="M54.25,0c-.31.66-.73.5-1.18.14Z"/><path class="cls-17" d="M53.65,93.16c0-.4.07-.79.11-1.19C53.72,92.37,53.69,92.76,53.65,93.16Z"/><path class="cls-6" d="M30.7,31.72c-.15-1.12.56-.51,1-.48Z"/><path class="cls-15" d="M82.87,78.73c.42-.54.82-.61,1.21,0Z"/><path class="cls-18" d="M16.22,81.8c0,.39.07.78.11,1.17C15.62,82.64,15.74,82.24,16.22,81.8Z"/><path class="cls-9" d="M16.84,61l.49,1.12Z"/><path class="cls-19" d="M58.17,85.5,57,85.73C57.27,85,57.71,85.2,58.17,85.5Z"/><path class="cls-10" d="M37.16,50.87l.92-.71Z"/><path class="cls-18" d="M88.43,41.13c.15-.39.31-.79.47-1.18C88.74,40.34,88.58,40.74,88.43,41.13Z"/><path class="cls-14" d="M24.24,68l-.51-1,.94.48Z"/><path class="cls-2" d="M89.87,32.35l-.41-.26.54-.46C90,31.87,89.91,32.11,89.87,32.35Z"/><path class="cls-14" d="M20,60.78c0-.33,0-.66,0-1,.06.33.13.66.19,1H20Z"/><path class="cls-17" d="M79.66,78.33l1,.18Z"/><path class="cls-18" d="M91.87,74.82l.52-.82Z"/><path class="cls-17" d="M39.53,71.89l.14-.71Z"/><path class="cls-17" d="M39.76,70c.05-.24.09-.48.13-.72C39.85,69.56,39.81,69.8,39.76,70Z"/><path class="cls-18" d="M49.4,68.71l-.19.28a1.23,1.23,0,0,1-.24-.28s.12-.19.19-.2S49.31,68.63,49.4,68.71Z"/><path class="cls-6" d="M20,51.54c-.54-.24-.54-.48,0-.71Z"/><path class="cls-18" d="M60.91,91.06l-.09-.71Z"/><path class="cls-17" d="M42.92,66.13l.72-.13Z"/><path class="cls-17" d="M6.91,34.19l0,.7Z"/><path class="cls-14" d="M21.39,79.72c.07-.23.15-.46.22-.69C21.54,79.26,21.46,79.49,21.39,79.72Z"/><path class="cls-6" d="M60.26,58.26c-.24.14-.48.28-.71.43C59.78,58.54,60,58.4,60.26,58.26Z"/><path class="cls-6" d="M23.49,33.91c.2-.15.4-.3.61-.44C23.89,33.61,23.69,33.76,23.49,33.91Z"/><path class="cls-14" d="M27.43,86.9c-.2.73-.45.39-.69,0Z"/><path class="cls-4" d="M14.05,18.1l-.48.61Z"/><path class="cls-3" d="M26.48,11.18l-1.12.14Z"/><path class="cls-19" d="M19.8,75.1l-.7.45Z"/><path class="cls-1" d="M41.76,3.92,41,4.37Z"/><path class="cls-18" d="M7.57,44.36c0,.16.09.32.13.48C7.66,44.68,7.61,44.52,7.57,44.36Z"/><path class="cls-6" d="M20,53.83h-.21c.08-.15.16-.3.23-.45Z"/><path class="cls-19" d="M89.67,34.21l-.07-.48a.47.47,0,0,1,.17,0C89.74,33.88,89.71,34,89.67,34.21Z"/><path class="cls-7" d="M64.13,57.8l-.4,0a3.46,3.46,0,0,0,.22-.31Z"/><path class="cls-6" d="M29.72,32.19l.59-.24Z"/><path class="cls-18" d="M65.39,71.19l.37-.54Z"/><path class="cls-9" d="M38.31,30l.49.35Z"/><path class="cls-18" d="M52.16,85.51l-.54-.19Z"/><path class="cls-9" d="M54.9,29.46l.58-.28Z"/><path class="cls-18" d="M22.58,73.05l-.48.06Z"/><path class="cls-14" d="M20.64,62l-.33-.55Z"/><path class="cls-14" d="M21.55,81.13c-.07-.15-.13-.3-.19-.46C21.42,80.83,21.48,81,21.55,81.13Z"/><path class="cls-17" d="M87.27,78.11h.48l-.49.18A1,1,0,0,1,87.27,78.11Z"/><path class="cls-13" d="M74.14,68.39l-.5-.41Z"/><path class="cls-18" d="M65.55,68.43l-.46-.22Z"/><path class="cls-18" d="M91.46,75.34l.4-.5Z"/><path class="cls-4" d="M13.34,19l-.45.44Z"/><path class="cls-14" d="M24.48,65.14h0Z"/><path class="cls-8" d="M89.64,65.16c.13.18.25.37.38.56Z"/><path class="cls-14" d="M22.11,65.62l-.42.35Z"/><path class="cls-3" d="M32.72,11.33l-.64-.14Z"/><path class="cls-14" d="M21.32,65.89,21,65.6Z"/><path class="cls-1" d="M40.14,5.3l-.44.25Z"/><path class="cls-8" d="M89.15,64.47l.2.29C89.28,64.66,89.21,64.57,89.15,64.47Z"/><path class="cls-8" d="M90.1,66.09c.05.11.09.23.14.34C90.19,66.32,90.15,66.2,90.1,66.09Z"/><path class="cls-14" d="M17.07,85.74l.19.23Z"/><path class="cls-14" d="M27,88.74l.3.16a1.16,1.16,0,0,1-.23.26s-.2-.09-.22-.16S27,88.84,27,88.74Z"/><path class="cls-14" d="M22.89,89c0-.07.05-.17.09-.19s.13.05.19.08,0,.16-.09.18S23,89.06,22.89,89Z"/><path class="cls-11" d="M49.61,24.68l5-3.43a11.37,11.37,0,0,0,2.15-1.48c1.54-1.69,3.78-2.1,5.6-3.26a1.81,1.81,0,0,1,.67-.1l.47.68A6.21,6.21,0,0,1,59.9,19l.43,2.1-1.9.24,0,.28,1.06.64a5.84,5.84,0,0,1-.8.57c-.6.27-1.33.32-1.5,1.19a.92.92,0,0,1-.79.29c-1-.68-1.27.06-1.65.7-.18.29-.37.69-.64.78s-.6-.21-.91-.34c.15-.33.3-.65.44-1a4.45,4.45,0,0,0,.15-.67c-.92.41-1.67.69-2.35,1.08S50.08,25.84,49.61,24.68Z"/><path class="cls-11" d="M85.69,21.69c-.82.52-.83,1.1,0,1.7l-1.21,1.39-1-.6.22-1.32a2.5,2.5,0,0,0-1.64,2.76c0,.14.07.36,0,.43-1.1,1-.17,1.29.52,1.69s.75,1.05.06,1.84c-.22-.26-.59-.49-.65-.77a2.18,2.18,0,0,0-1.92-2L78.25,24.5c1.14-.69,1.71.31,2.49.94l.9-2.55a7.22,7.22,0,0,0-.86-.76,2.37,2.37,0,0,0-.73-.18,2.77,2.77,0,0,0,.15.79c.09.16.37.2.66.34-.57.69-.93,1.27-1.9.59-.52-.36-1.25-.21-1.14.77l-.94-.83c.1-.35-.25-.84.63-.88s.8-1.43-.21-2.38L77,21.42c-1.19-.6-1.17-1.68-1.25-2.7.6.17,1.37.17,1.76.56a6.25,6.25,0,0,0,2,1.3,21.94,21.94,0,0,1,2.84,1.74c-.36-.86-.7-1.69-1-2.52l.3-.19a9.66,9.66,0,0,0,1.16,1.57,12.41,12.41,0,0,0,1.82,1.18c.35-.7-.09-1.83,1.24-2Z"/><path class="cls-11" d="M72.73,17.78c-.8.11-1.6.24-2.4.32s-1.35.07-2,.1L68,19.3a5.76,5.76,0,0,0-.64-.75,3.41,3.41,0,0,0-.67-.3l-.9-.46a23.4,23.4,0,0,1,3-.21c1.2.07.93-1,1.44-1.58.43.76.76,1.75,2,.84Z"/><path class="cls-11" d="M74.82,18.94,73.19,17.8Z"/><path class="cls-11" d="M64.64,17.32l-.46-.22.15-.81.23,0Z"/><path class="cls-10" d="M62.94,21.11c2-1.25,4.23-1.26,5,0Z"/><path class="cls-11" d="M73.89,21.48l-1.62-.23C72.86,21,73.45,20.7,73.89,21.48Z"/><path class="cls-16" d="M63.94,22.86l.41.51-.65-.05Z"/><path class="cls-11" d="M49,25l.17-.15Z"/><path class="cls-2" d="M69.26,69.56l-1.12-.49v-.71l.88,0Z"/><path class="cls-8" d="M89.15,76l-.92.48c0-.25-.11-.51-.25-1.15Z"/><path class="cls-9" d="M86.23,77.25c0-.06,0-.16.08-.18s.13,0,.19.07,0,.16-.09.18S86.29,77.28,86.23,77.25Z"/><path class="cls-3" d="M44.08,9.28c-2.39,2-3.38,4.73-4.2,7.58a3.37,3.37,0,0,1-1.15,0c-.26-.1-.6-.51-.57-.75.15-1.5.37-3,.62-4.48,0-.26.38-.69.57-.69,1,0,1.11-.57.81-1.55l1.87.71c.42-.62.83-1.25,1.47-2.21Z"/><path class="cls-3" d="M39.84,18.47c.19.92.37,1.84.56,2.76l-2,.38Z"/><path class="cls-4" d="M46.11,6.45c-.28.89-.26,1.94-1.3,2.41a3.18,3.18,0,0,0-.08-.33C44.07,6.83,44.26,6.54,46.11,6.45Z"/><path class="cls-3" d="M33.89,17.13,33,15.92l1.27-.56Z"/><path class="cls-2" d="M49,5.39l-1.5.31Z"/><path class="cls-3" d="M39.88,17.56l0,.46Z"/><path class="cls-4" d="M46.42,6l-.25.26Z"/><path class="cls-2" d="M46.92,5.85,46.61,6Z"/><path class="cls-6" d="M82.82,33.77q-1.38-3.47-2.74-7a2.18,2.18,0,0,1,1.92,2c.06.28.43.51.65.77a7.25,7.25,0,0,0,.25,1.23c.27.71.72,1.4-.39,2l1.31.45v.32Z"/><path class="cls-20" d="M15.21,52.43c.17-.24.32-.5.51-.72s.62-.66.93-1l-.28-.4c-.38.19-.74.4-1.13.57-.8.34-1.6.65-2.39,0a2.72,2.72,0,0,0,.71-2.73c-1.44.56-1.44.56-1.71-1.44l-1.29-.45-.23-1.85c1.35.22,1.49-.6,1.38-1.62a1.77,1.77,0,0,1,0-.23l1.9-.53-.93-.81.17-.32,1.63.73.23.23.23.7-.23.92-1.11.65.65,1,.92.7.46,1.38a1.53,1.53,0,0,0,.89,1.7c.6.35.82,1.37,1.13,2.12,0,.1-.37.38-.55.59s-.58.69-1,1.17Z"/><path class="cls-5" d="M22.81,13.17A2.43,2.43,0,0,1,26,15.23c-.16.16-.31.32-.47.47-.85.08-1.71.13-2.56.25a5.84,5.84,0,0,0-1,.38c-.27.1-.57.29-.82.24-.65-.14-1.27-.39-2-.62.41-.6.66-1.37,1.76-1,.24.08.7-.22.94-.46A10.87,10.87,0,0,0,22.81,13.17Z"/><path class="cls-7" d="M18.69,21.31c-1.65,2.12-3.29,4.24-5,6.34a3.61,3.61,0,0,1-.82.6c.14-.5.26-1,.44-1.5.33-.92,1-1.72.93-2.8,0-.3.35-.68.64-.91a18.37,18.37,0,0,1,2.41-1.7C17.68,21.15,18.23,21.31,18.69,21.31Z"/><path class="cls-18" d="M18,38.27,16.4,46.62H16c-.11-1.13-.22-2.26-.32-3.4l.12-.7.09-.69c.25-.76.49-1.53.73-2.3Z"/><path class="cls-4" d="M9.18,41.6a3.43,3.43,0,0,1-1-3.34A4.23,4.23,0,0,0,8,37L9.31,38.4,9,39.12C10.34,40.28,10.38,40.93,9.18,41.6Z"/><path class="cls-4" d="M11.72,42.52a1.77,1.77,0,0,0,0,.23l-1.65-1.33L11.72,40Z"/><path class="cls-7" d="M20.3,19.43,18.7,21.3C18.61,19.87,19,19.47,20.3,19.43Z"/><path class="cls-7" d="M25.57,15.7c.16-.15.31-.31.47-.47l1.16,0c-.19.89-1,.85-1.64,1.1C25.56,16.13,25.57,15.92,25.57,15.7Z"/><path class="cls-4" d="M8,34.43c-.13-.74-.27-1.48-.34-2.22,0-.1.37-.22.57-.34C8.15,32.73,9,33.66,8,34.43Z"/><path class="cls-4" d="M10.33,44.37l.23,1.85H10.1C10,45.6,10,45,9.87,44.36Z"/><path class="cls-21" d="M15.87,41.82l-.09.69H15l-.23-.7h1.15Z"/><path class="cls-22" d="M14,39.51l-.42.64-.22-.22Z"/><path class="cls-4" d="M8,36.05c0-.31,0-.62,0-.93C8,35.43,8,35.74,8,36.05Z"/><path class="cls-4" d="M15.41,41.82h-.69l-.23-.23Z"/><path class="cls-4" d="M8.26,29.12c.08-.24.15-.47.23-.7l.37.3Z"/><path class="cls-4" d="M9.21,27.67l-.46-.37.15-.2.46.37Z"/><path class="cls-7" d="M24.87,16.56l-.69.26Z"/><path class="cls-7" d="M22.66,17.39l-.56.35Z"/><path class="cls-7" d="M13.32,37c.18-.06.46-.07.5-.19.94-2.22,3.35-2.84,4.81-4.47,0,.67.2,1.33-.82,1.57-.43.11-.69.83-1.09,1.21s-.89.69-1.3,1.07S14.57,37,14,37.64Z"/><path class="cls-6" d="M29.06,27.73l2.07-1.38c-.21.77-.38,1.55-.66,2.28,0,.15-.54.19-.8.15s-.13-.41-.24-.61A2.54,2.54,0,0,0,29.06,27.73Z"/><path class="cls-7" d="M19.08,32l.73-.35-.39.83Z"/><path class="cls-7" d="M21.55,30.89l.81-.56Z"/><path class="cls-7" d="M20,31.6l.78-.39C20.81,32,20.31,31.66,20,31.6Z"/><path class="cls-7" d="M23.27,30.06l.7-.21Z"/><path class="cls-6" d="M31.55,26.09l.5-.69Z"/><path class="cls-7" d="M24.89,29.59l.48-.11Z"/><path class="cls-6" d="M27.89,28.64l.47-.21Z"/><path class="cls-4" d="M15,42.52h.83l-.12.7c-.11,0-.31.06-.32.1-.07.82-.11,1.63-.16,2.45l-.92-.7c.15-.54.3-1.08.46-1.62Z"/><path class="cls-2" d="M53.64,4.45l-.58.25Z"/><path class="cls-4" d="M87.49,72.3l.12.09v0l-.11-.1Z"/><path class="cls-20" d="M12.4,50.39l-.21,0,.12-.28Z"/><path class="cls-4" d="M72.29,67.2l-.44-.4.13-.17.49.33Z"/><path class="cls-21" d="M78.25,24.5l-.43-.06c-.11-1,.62-1.13,1.14-.77,1,.68,1.33.1,1.9-.59-.29-.14-.57-.18-.66-.34a2.77,2.77,0,0,1-.15-.79,2.37,2.37,0,0,1,.73.18,7.22,7.22,0,0,1,.86.76l-.9,2.55C80,24.81,79.39,23.81,78.25,24.5Z"/><path class="cls-21" d="M14.72,43.44c-.16.54-.31,1.08-.46,1.62l-.65-1Z"/></g></svg>