<svg xmlns="http://www.w3.org/2000/svg" viewBox="0 0 100 100"><defs><style>.cls-1{fill:#978075;}.cls-2{fill:#c2b4ad;}.cls-3{fill:#b9a9a2;}.cls-4{fill:#c0b2ab;}.cls-5{fill:#b1a098;}.cls-6{fill:#b8a8a0;}.cls-7{fill:#c3b6af;}.cls-8{fill:#a28e84;}.cls-9{fill:#9f897f;}.cls-10{fill:#bdafa7;}.cls-11{fill:#baaba4;}.cls-12{fill:#a49086;}.cls-13{fill:#c7bab4;}.cls-14{fill:#a69389;}.cls-15{fill:#aa978e;}.cls-16{fill:#b6a69e;}.cls-17{fill:#9b857b;}.cls-18{fill:#988277;}.cls-19{fill:#a08c82;}.cls-20{fill:#b3a39b;}.cls-21{fill:#ae9c93;}</style></defs><g id="Ebene_10" data-name="Ebene 10"><path class="cls-1" d="M32.52,58.68c0-.14-.07-.27-.1-.4-.07-.3-.13-.6-.19-.89.88-.17,1-.84,1-1.56V54.29h.23l-.51-.74,0-.18L34,52.82c0-.26,0-.72.1-.75.8-.24.45-.76.35-1.23h0c1.38-.07,1.72-.4,1.74-1.71l1-.21.58-.18a10.29,10.29,0,0,1,5.13.37,44.34,44.34,0,0,0,4.7,1.06c1.21.2,2.62-.1,3.62.43,1.18.61,2.23-.1,3.32.28A8.91,8.91,0,0,0,57,51l.76.47c-.16,1.46-1.14.6-1.92.53.13.44.43,1,.3,1.1-.62.74-.12,1.22.28,1.75L56,56.05a4.35,4.35,0,0,1,.55.5.94.94,0,0,1-.6,1.57c-.77,0-.86.46-.9,1,1,.39,1,.45,1.11,1.51l-.58,1-1.15,1.93c-.74.17-1.18.51-.77,1.34l-.38,1-.39.39-.38.38h-.38a3.7,3.7,0,0,0-.36-.33.69.69,0,0,0-.17.17c.1.12.22.24.33.35l.19.58c.46.43,0,1.43,1,1.54h.19l1,.57h.19l.39,1.35-.2.19-.93.29.1,1-.33.16c-.19-.31-.4-.61-.56-.93a5,5,0,0,1-.2-.69l.2-1-.77.2-2.27.76L49,69.1l-.27.12.05.94-.49-.61a1.1,1.1,0,0,0,0,.64c0,.29,0,.59.05.88-.33,0-.65,0-1,0s-.86,0-1.39.08l.42,1.06c.36.58.3,1.5,1.15,1.51v1.76l1-.19.58,1.53v.39l.19.58h0l.2,1-1.11,1.37L48,79l-.22,0v2.13l-3-1.81-3,2-.26-2.74-1.12,1.5-.56-1c.05,1.38-1.07.93-1.62,1.08-.9.25-.92.15-.49.94.06.09,0,.24,0,.36s.15.42.22.62a5.05,5.05,0,0,0,.58-.36c.21-.15.45-.53.56-.49.48.18,1.28.45,1.3.73a1,1,0,0,0,1.29,1,5.07,5.07,0,0,1,2.13.1c.13,0,.3-.07.44-.13l1.24-.56c.35,1.64-.2,2.2-1.61,2.06a2.93,2.93,0,0,0-1.07.22c-.55.14-1.06.58-1.65,0a1,1,0,0,0-1.59,0c-.13.13-.41.12-.62.17,0-.59-.07-1.12-.6-1.09-.16.61-.15,1.2-.43,1.47-.43.42-1,.91-1.69.15-.14-.16-.55-.09-.94-.13l.34.83c-1.29.24-1.39.15-1.5-1a2.57,2.57,0,0,0-.2-.59V82.76l-.12-.41-.06-1.13c.17-.67.35-1.33.5-2a.61.61,0,0,0-.09-.52c-.94-.78-.19-1.08.4-1.42a1.47,1.47,0,0,0,.76-2,.76.76,0,0,1,.28-.72c.81-.31,1.66-.53,2.52-.78l.38-2-.22-.18c-.35.37-.93.7-1,1.13-.14.74-.35.94-1.06.7a.77.77,0,0,0-.65.25,1.94,1.94,0,0,1-2,.85c.07-1.8-.33-3.65.43-5.4.06-.13-.11-.38-.21-.56a5.57,5.57,0,0,1-1-3.77c.09-.62.47-1.33.28-1.84a2.26,2.26,0,0,1,.19-1.8A1.9,1.9,0,0,0,32.52,58.68Zm22.9-5.24c-.06-1.37-1.29-.52-1.64-1.15-.08-.16-.78-.21-.83-.11a10.23,10.23,0,0,0-.57,1.5l1.84.46C54,53.24,54.33,52.94,55.42,53.44Z"/><path class="cls-2" d="M67.35,91.21c0,1.92.25,4-1,5.54a6.37,6.37,0,0,1-4.82,2.72c-3.17.11-6.34.46-9.51.52-2.45.05-4.91-.16-7.36-.28-.82,0-1.64-.15-2.46-.23l-.75-.54.09-.2,1,.05.1-.24c-.3-.13-.65-.43-.91-.37a12.69,12.69,0,0,0-1.85.7l-.73-1.13-.61.27-.33-.56-.2.11L38.72,99a4.29,4.29,0,0,1-2.88-1.5l.09-1.23L37.21,98a6.45,6.45,0,0,0,.53-.89,7.69,7.69,0,0,0,.24-1,20.86,20.86,0,0,0,3.34.82c3.56.27,7.13.53,10.69.55a72.31,72.31,0,0,0,7.32-.64c1.45-.15,2.93.15,4.29-.91a4.33,4.33,0,0,0,1.6-4.43s0-.11,0-.16l1.37.37Z"/><path class="cls-3" d="M37.18,48.92l-1,.21c-.73-.16-.67-.75-.71-1.3,0-.15-.17-.29-.26-.44V47A2.34,2.34,0,0,1,36,47c1.64.32,3.27.74,4.93,1,2.28.34,4.57.65,6.86.83a53.23,53.23,0,0,0,7.77.28c3.41-.26,6.79-.92,10.24-1.42v-1l1.1-.92-1.42-1.59-.18-.76.9-.2h0l.13.9,1-.6c-.06.4-.14.79-.19,1.19a1.52,1.52,0,0,0,1.23,2V47c-.19.51-.38,1-.58,1.54l0,0-1.61-.85-.87,3.52L61.56,52l-.75-.56A8.94,8.94,0,0,0,57,51a8.91,8.91,0,0,1-2.44-.16c-1.09-.38-2.14.33-3.32-.28-1-.53-2.41-.23-3.62-.43a44.34,44.34,0,0,1-4.7-1.06,10.29,10.29,0,0,0-5.13-.37Z"/><path class="cls-3" d="M33,53.36c0,.06,0,.12,0,.18l-.51,0c0-2.64-.06-5.28,0-7.91a7.58,7.58,0,0,1,3.66-6.16c1.27-.88,2.5-1.82,3.76-2.73a1.36,1.36,0,0,1,.67-.33c1.19,0,2-.89,3-1.32l-.19,1.34,1.94.39c-.57.46-1.14.9-1.69,1.37-1.79,1.57-3.5,3.25-5.39,4.69a7,7,0,0,0-3,3.93c-.28,0-.57,0-.86,0-.85,0-1.32.64-1.43,1.7s.38,1.17,1.16,1.2l.39,1.13h0A3.15,3.15,0,0,0,33,53.36Z"/><path class="cls-2" d="M68.31,46.62a1.52,1.52,0,0,1-1.23-2c0-.4.13-.79.19-1.19l-1,.6-.13-.9.8-.11-.6-.89.75-.3c-.1-.31-.18-.56-.28-.8a5.09,5.09,0,0,0-.32-.56c-.15.17-.41.35-.42.53,0,.71,0,1.42.07,2.12l-.9.2a8.85,8.85,0,0,0-.42-1.55,2.12,2.12,0,0,0-.83-1c-1.27-.63-2.62-1.07-3.88-1.72-1.45-.74-2.82-1.62-4.23-2.44a2.83,2.83,0,0,0,2-2.65c1.24.76,2.46,1.56,3.73,2.28a4.18,4.18,0,0,0,1.66.58,5,5,0,0,1,4.23,3.89c.27,1.6.57,3.19.82,4.79A5.29,5.29,0,0,1,68.31,46.62Z"/><path class="cls-4" d="M33.71,81.22l.06,1.13.12.41v1.72c0,1-.93,1.74-.58,2.78,0,.14-.08.31-.06.47,0,.48.1,1,.15,1.45h.29l-1.15,1.69c-.76-.65-.58-1.52-.46-2.31.24-1.59.62-3.16.87-4.75a7,7,0,0,0,0-1.88c-.15-1.36-.48-2.71-.5-4.06,0-2.72.19-5.44.11-8.15a32.18,32.18,0,0,0-.76-4.51c-.1-.59-.19-1.19-.25-1.79,0-.18,0-.48.1-.54,1.3-.69.51-1.92.75-2.88a8.08,8.08,0,0,0,.15-1.31,1.9,1.9,0,0,1,.68,2.43,2.26,2.26,0,0,0-.19,1.8c.19.51-.19,1.22-.28,1.84a5.57,5.57,0,0,0,1,3.77c.1.18.27.43.21.56-.76,1.75-.36,3.6-.43,5.41a12,12,0,0,0-.45,1.63c-.06.46.08.94,0,1.4A5.35,5.35,0,0,0,33.71,81.22Z"/><path class="cls-5" d="M68.19,73.18l.06.52h-.14l-.38.39-.37,3.08c-.33,1.31-1.16,1.36-2.3.68l.09,1.24h-2l.16.92-1.52.45a2.32,2.32,0,0,0-.53-.25,4,4,0,0,1-.89-.18c-.2-.12-.28-.44-.42-.67.24,0,.48,0,.72,0a4.78,4.78,0,0,0,1.26-.09,12.05,12.05,0,0,0,1.52-.77c.2-.1.41-.17.61-.26l.06-.24a2,2,0,0,1-1.89-1.84c-.1-.49-.74-.86-1.13-1.28-.2,0-.17-.19-.07-.32.35-.47.68-.92.21-1.51,0,0,.09-.2.15-.31.8.34,1.62.67,2.41,1,1.16.53,1.37,1.18.81,2.42a1.92,1.92,0,0,0,0,.29c.53.18.89.17.88-.53s0-1.38.06-2.06c0-.45.08-.9.12-1.35h0c1-.29,1.5.14,1.67,1.11l.61-.7Z"/><path class="cls-6" d="M43.2,30.69c-.2-.67-.4-1.33-.59-2a16.68,16.68,0,0,1-.55-2.16,4.15,4.15,0,0,1,.23-1.37c.29-1.42.64-2.83.87-4.26a5.4,5.4,0,0,0-.25-1.56c.12.07.32.11.37.21.49,1,.94,1.15,1.9.73a5.33,5.33,0,0,1,.81-.2c-.13.85-.25,1.7-.37,2.54-.08.61.23.76.79.75,1.2,0,2.4,0,3.6,0,.69,0,1,.34,1.24,1.26-1,.09-2,.21-3,.26s-1.72,0-2.58,0c-.54,0-.79.21-.6.77-.73.44-1.48.86-2.18,1.35-.08.06,0,.61.18.73a19,19,0,0,0,1.75,1l-.58.57c-.52.1-.9.29-.69,1C43.61,30.36,43.33,30.55,43.2,30.69Z"/><path class="cls-2" d="M58.12,19.91c-.56,1.74.35,3.3.62,4.93a6.8,6.8,0,0,1-.51,4.48,22.44,22.44,0,0,0-1.11,3.3l-2.43.76c0-.58.09-1.15.14-1.73l1.49-.36.26.49h.23l.36-1.67h-1.9a14.25,14.25,0,0,1,.65-2.23,3.54,3.54,0,0,0,.5-2.81,34.25,34.25,0,0,1-.79-4.76,8.8,8.8,0,0,0,1.26,0A9,9,0,0,0,58.12,19.91Z"/><path class="cls-7" d="M63.3,80l-.16-.92h2l-.09-1.24c1.14.68,2,.63,2.3-.68l.73.37v.21l-.28.17.26.2c-.19,1.89-.48,3.78-.53,5.67,0,1.42.23,2.85.33,4.28a3.34,3.34,0,0,1-.13.82,4.63,4.63,0,0,1-1-.52c-.42-.38-.81-.6-1.33-.23-.12-2.86-.23-5.71-.35-8.56Z"/><path class="cls-7" d="M43,16.87c0-1.16.05-2.33,0-3.49-.14-1.73-.32-3.47-.63-5.18a4.52,4.52,0,0,1,.48-3.11l2.09.63A4.92,4.92,0,0,0,44.68,7c.11,1.61.27,3.22.47,4.82a11.76,11.76,0,0,1,0,5Z"/><path class="cls-3" d="M53.9.32l2.69,1c.09.6,0,1.55.3,1.72.87.46.24.65,0,1l-.79-.63-.9,1c-2.38-.11-4.75-.24-7.13-.33-.7,0-1.4.05-2.1.08L46.77,3c.46.67,1-.26,1.54,0L48,2.14c.73-.14.78-.57.52-1.18A4.54,4.54,0,0,1,48.34,0l.74,0c.08.28.33.68.22.81-.48.62.1.71.39,1,.65.65.86-.32,1.32-.34l.15.52.24-.15L51,1.47c.46-.88,1-.09,1.31.06.6.27,1.13.43,1.53-.09C54,1.21,53.89.7,53.9.32Zm-1,2-.07.16s.12.08.16.06.05-.09.07-.15Z"/><path class="cls-7" d="M57.39,9.15c.06,1.31.1,2.63.17,3.94,0,.86.15,1.71.22,2.56,0,.28,0,.56.07.83a2.49,2.49,0,0,0-2.44,0c0-.34-.06-.69-.08-1-.06-.91-.13-1.82-.18-2.74,0-.47,0-.94,0-1.41l.09-5.37,1,.8,1.31-.23,0,.78-.71-.11a10.27,10.27,0,0,0-.8,1,2.65,2.65,0,0,0-.19.71l.82.17Z"/><path class="cls-3" d="M68.28,53.54l-.09.57-.11.38L68,56.39c-.12.4-.23.8-.41,1.39L67.2,58l0,.28,1.15-.06c0,.3,0,.61,0,.91-.53,0-.67.23-.69.74,0,.81-.44,1-1.16.68l-.49-.25a6,6,0,0,1-.11-1,4.57,4.57,0,0,0-.44-2.87,2.42,2.42,0,0,1-.15-1.47c.16-1.22.42-2.43.64-3.64l1.25-.14.06.24.44-.69.53,1-1.14.45C67.55,52.64,67.92,53.09,68.28,53.54Z"/><path class="cls-8" d="M32.54,90.86l1.15-1.69H33.4c0-.48-.12-1-.15-1.45,0-.16.1-.33.06-.47-.35-1,.55-1.82.58-2.78a2.57,2.57,0,0,1,.2.59c.11,1.17.21,1.26,1.5,1l-.34-.83c.39,0,.8,0,.94.13.66.76,1.26.27,1.69-.15.28-.27.27-.86.43-1.47.53,0,.61.5.6,1.09-.27.76-.4,1.66-1.56,1.51,0,0-.11.27-.17.41l-1-.19-.37,1-.23,0-.07-.68c-.81.81-.8,1,0,1.73.11.12.11.34.17.51l-.44,0,.25,3c-.78.6-1.58,1-2.46.18Z"/><path class="cls-9" d="M44.27,29.32l.58-.57h.65l.54.72-.06,2h-.26l.55.64a1,1,0,0,0,.7,1.48,1.73,1.73,0,0,1-.73,2.61s0,.06,0,.09l-.94.57-1.94-.39.19-1.34a2.13,2.13,0,0,0,.33-.68,8.59,8.59,0,0,0-.07-1.24c.52-.16.6-.44.3-.91a4.84,4.84,0,0,1-.37-1c.62-.67.9.47,1.62.21Z"/><path class="cls-10" d="M67.89,73l-.61.7c-.17-1-.71-1.4-1.67-1.11-.12-1.79-.3-3.58-.32-5.37a34.74,34.74,0,0,1,.31-3.66,3.68,3.68,0,0,1,.58.44c.14.14.16.44.31.5,1.06.48.9,1.46,1,2.33a3.51,3.51,0,0,0,.33.78c0,.19,0,.37,0,.56h-.69l-.18.21.85,1c0,.19,0,.37,0,.55-.8.28-1,.76-.56,1.42a8.34,8.34,0,0,0,.79.9c0,.14,0,.27,0,.41S68,72.84,67.89,73Z"/><path class="cls-11" d="M33,92.35c.88.87,1.68.42,2.46-.18a2.84,2.84,0,0,0,1.21,2.91A16.55,16.55,0,0,1,38,96.14a7.69,7.69,0,0,1-.24,1,6.45,6.45,0,0,1-.53.89L35.93,96.3l-.09,1.23L35,97.07c0-.19-.06-.38-.1-.58l-.27.18A5.8,5.8,0,0,1,33,92.35Z"/><path class="cls-12" d="M55.41,16.44a2.49,2.49,0,0,1,2.44,0,3.38,3.38,0,0,1,.27,3.43,9,9,0,0,1-1.23.35,8.8,8.8,0,0,1-1.26,0l-1.16-.19.47-.6c-1.22-1.15.3-1.5.66-2.16l-.44-.83Z"/><path class="cls-13" d="M67.85,67.58a3.51,3.51,0,0,1-.33-.78c-.13-.87,0-1.85-1-2.33-.15-.06-.17-.36-.31-.5a3.68,3.68,0,0,0-.58-.44c.16-1.09.31-2.18.46-3.27l.49.25c.72.35,1.14.13,1.16-.68,0-.51.16-.77.69-.74-.08,1.33-.16,2.66-.25,4Z"/><path class="cls-14" d="M46.77,3,46,4.1,44.9,5.72l-2.09-.63c.24-.82.47-1.65.7-2.47l1-1.38,1.1.61,1.15.77Z"/><path class="cls-12" d="M43,16.87l2.14,0,.48.38L46,20.08h0a5.33,5.33,0,0,0-.81.2c-1,.42-1.41.25-1.9-.73-.05-.1-.25-.14-.37-.21,0-.5,0-1-.08-1.52,0-.2.09-.4.13-.6Z"/><path class="cls-9" d="M54.69,33.38l2.43-.76c-.36.81.15,1.12.8,1.34a2.83,2.83,0,0,1-2,2.65l-.88-.14c-.15-.27-.31-.55-.45-.83a2.62,2.62,0,0,1-.26-.63,7.68,7.68,0,0,1-.06-1.07Z"/><path class="cls-7" d="M46.77,3V2.62l.29-.85a7.32,7.32,0,0,0-.94-.12,1.5,1.5,0,0,0-.5.2l-1.1-.61-1,1.38c-.76-.63,0-1,.29-1.42A3,3,0,0,1,46.38.13c.65,0,1.31-.06,2-.09a4.54,4.54,0,0,0,.18.92c.26.61.21,1-.52,1.18l.31.89C47.76,2.73,47.23,3.66,46.77,3Z"/><path class="cls-7" d="M51,1.46c-.46,0-.67,1-1.32.34-.29-.28-.87-.37-.39-1,.11-.13-.14-.53-.22-.81L53.9.32c0,.38.14.89,0,1.12-.4.52-.93.36-1.53.09C52,1.38,51.47.59,51,1.47Z"/><path class="cls-15" d="M65.45,88.15c.52-.37.91-.15,1.33.23a4.63,4.63,0,0,0,1,.52l-.12,1.51-.21.48-.06.32-.74.53-1.37-.37.18-.74c.09-.15.27-.3.26-.44-.07-.64-.18-1.28-.28-1.92A.17.17,0,0,1,65.45,88.15Z"/><path class="cls-16" d="M57.53,6.46l-1.31.23-1-.8.08-1a2.17,2.17,0,0,1,2.3,0Z"/><path class="cls-7" d="M57.62,4.91a2.17,2.17,0,0,0-2.3,0l-.09-.58.9-1,.79.63c.21-.37.84-.56,0-1-.32-.17-.21-1.12-.3-1.72C58.05,2.17,58,3.5,57.62,4.91Z"/><path class="cls-11" d="M38.72,99l-.78-1.46.2-.11.33.56.61-.27.73,1.13a12.69,12.69,0,0,1,1.85-.7c.26-.06.61.24.91.37l-.1.24-1-.05-.09.2.75.54Z"/><path class="cls-2" d="M68.28,53.54l-1.14-1.39,1.14-.45-.53-1c0-.51,0-1,0-1.53l.73-.2Z"/><path class="cls-14" d="M32.43,53.56l.51,0,.51.74h-.23v1.54c0,.72-.11,1.39-1,1.56l-.17,0c0-.24,0-.48,0-.72l.92-.55-.71-.51Z"/><path class="cls-6" d="M57.39,9.15,56.62,9l-.82-.17A2.65,2.65,0,0,1,56,8.13a10.27,10.27,0,0,1,.8-1l.71.11C57.46,7.88,57.43,8.51,57.39,9.15Z"/><path class="cls-15" d="M44.27,29.32l1.06,2.14c-.72.26-1-.88-1.62-.21h-.34c-.06-.18-.12-.37-.17-.55.13-.14.41-.33.38-.41C43.37,29.61,43.75,29.42,44.27,29.32Z"/><path class="cls-13" d="M68.09,77.55l-.73-.37c.12-1,.25-2.05.37-3.08l.38-.39h.14C68.19,75,68.14,76.27,68.09,77.55Z"/><path class="cls-13" d="M68.39,58.18l-1.15.06,0-.28.35-.18c.18-.59.29-1,.41-1.39C68.69,56.84,68.46,57.53,68.39,58.18Z"/><path class="cls-13" d="M68.07,72.18a8.34,8.34,0,0,1-.79-.9c-.45-.66-.24-1.14.56-1.42C67.91,70.63,68,71.41,68.07,72.18Z"/><path class="cls-6" d="M43.37,31.24h.34a4.84,4.84,0,0,0,.37,1c.3.47.22.75-.3.91l-.87-.54Z"/><path class="cls-2" d="M67.73,48.55c.2-.52.39-1,.58-1.54.06.57.12,1.15.17,1.73Z"/><path class="cls-13" d="M67.85,69.31l-.85-1,.18-.21h.69C67.87,68.53,67.86,68.92,67.85,69.31Z"/><path class="cls-4" d="M32.26,55.58l.71.51-.92.55Z"/><path class="cls-4" d="M32.06,57.36l.17,0c.06.29.12.59.19.89C31.46,58.3,32.17,57.67,32.06,57.36Z"/><path class="cls-3" d="M67.73,48.55l.75.19v.19l-.73.2c0-.19,0-.38-.05-.56Z"/><path class="cls-7" d="M43,17.23c0,.2-.09.4-.13.6C42.87,17.63,42.92,17.43,43,17.23Z"/><path class="cls-13" d="M67.89,73c.06-.13.11-.26.17-.38,0,.19.08.39.13.59Z"/><path class="cls-2" d="M34.64,96.67l.27-.18c0,.2.07.39.1.58C34.89,96.93,34.76,96.8,34.64,96.67Z"/><path class="cls-5" d="M68.07,78.13l-.26-.2.28-.17Z"/><path class="cls-2" d="M67.41,90.89l.21-.48Z"/><path class="cls-2" d="M68.08,54.49l.11-.38Z"/><path class="cls-17" d="M37.18,86.77c.06-.13.13-.4.17-.4,1.16.15,1.29-.75,1.56-1.51.21,0,.49,0,.62-.17a1,1,0,0,1,1.59,0c.59.59,1.1.15,1.65,0a2.93,2.93,0,0,1,1.07-.22c1.41.14,2-.42,1.61-2.06L44.21,83c-.14.06-.31.17-.44.13a5.07,5.07,0,0,0-2.13-.1,1,1,0,0,1-1.29-1c0-.28-.82-.55-1.3-.73-.11,0-.35.34-.56.49a5.05,5.05,0,0,1-.58.36c-.07-.2-.16-.41-.22-.62s0-.27,0-.36c-.43-.79-.41-.69.49-.94.55-.15,1.67.3,1.62-1.08l.56,1,1.12-1.5.26,2.74,3-2,3,1.81V79L48,79l.4,1.1,1.11-1.37a2.46,2.46,0,0,0,1.91-2.35c0-.41,0-.78.58-.73l.58.58,1.75-.11L54,74.46l-1.41.41-.38-.38-.38-.78c-.7.33-1.39,1.66-2.12,0,.18-.13.44-.23.54-.42s-.1-.36-.16-.55v-1l.59-.63c.62,2.27,1.24,2.62,2.64,1.26L53,74l1.31-1.21c-.21,1.08.07,1.66,1.21,1.81a5.13,5.13,0,0,0-.28-.73c-.1-.18-.39-.43-.36-.48.64-.88-.22-1.59-.24-2.39l.2-.19,1.45.2s0,0,0-.09c.11-.86-.64-1.43-1.89-1.46h-.19l-1-.57h-.19L53,68.15h.9c.9.08,1.84.9,2.56-.22l1.18,1,.45-2.68c-.63-.18-1.12-.3-1.6-.45s-.7-.25-1.06-.38v-.58L56,64.3l1.15-.38c1,.51,2.19.62,2.8,1.72,0,0,0,0,.09,0a4.66,4.66,0,0,1,.34,1.62c-.21,1.18-.21,1.25.71,1.07.35.44.79.76.87,1.15a4.85,4.85,0,0,1-.2,1.53l-1.36.52.12.93-.16.09-.72-.86a1.1,1.1,0,0,0,.08,1,1,1,0,0,1-.08,1.52c-.31.29-.64.58-.92.9a12.41,12.41,0,0,1-2,2.33c-.86.61-.93,1.13-.49,1.94a.64.64,0,0,1-.07.5c0,.07-.28.06-.42,0a6.22,6.22,0,0,1-.67-.27c.05.92.09,1.74.13,2.55l-.19.39-.4.2h-.38l-.38-.22h-.38l-.31-.06.1.47c-.1.33-.23.66-.3,1-.15.81-.85.66-1.33.66s-.81-.4-1.24-.48A9.55,9.55,0,0,1,48.73,84c-.94-.36-1,.42-1.31.83s-.65.67-1,1l-.23-.21a1.32,1.32,0,0,0,.12-.43,8.48,8.48,0,0,0-.06-.87l-.66.58a4.78,4.78,0,0,0-.58.52c-.33.39-.62.8-.93,1.21.43.22,1,.75,1.25.62.72-.38,1.3,0,1.89.12s.83.4,1.3,0c.1-.08.4.08.61.13a3.23,3.23,0,0,1,1.12.26c.47.32,1.41-.35,1.5.71a1.73,1.73,0,0,1-.54.11c-1.24-.08-2.49-.21-3.73-.28-.75,0-1.52.07-2.25,0a11.52,11.52,0,0,1-1.92-.67l.06-.2-.84.13L41.21,87l.47-.85L40,85.64l-.14.2.6,1-.58.59Z"/><path class="cls-17" d="M57,51a8.94,8.94,0,0,1,3.84.4c0,1.36-.92.82-1.6.8l-.5,1.06a12.4,12.4,0,0,0,2,.77,4.27,4.27,0,0,0,1.38-.2q0,3,.07,6l-.73.21c-.29-.4-.6-.78-.86-1.2-.6-1-.78-1-1.33,0l.77.57a4.46,4.46,0,0,0-.73.45,4.74,4.74,0,0,0-.54.71l-1-.38-.58-.19-.77-.68c.79-.81,1.56-1.62,3-1.5l-.74-1.08-.92.4c-.22-.56-.62-1.1-.58-1.59.07-.71-.2-.77-.73-.74-.4-.53-.9-1-.28-1.75.13-.15-.17-.66-.3-1.1.78.07,1.76.93,1.92-.53Z"/><path class="cls-18" d="M54.66,71c0,.8.88,1.51.24,2.39,0,0,.26.3.36.48a5.13,5.13,0,0,1,.28.73c-1.14-.15-1.42-.73-1.21-1.81L53,74l.26-1.6c-1.4,1.36-2,1-2.64-1.26l-.59.63a14,14,0,0,0-1.72,0c-.15,0-.28.36-.35.58s.15.3.25.31c.61,0,1.21,0,1.82,0,.06.19.23.43.16.55s-.36.29-.54.42c.73,1.64,1.42.31,2.12,0l.38.78L52,75.64c-.56,0-.55.32-.58.73a2.46,2.46,0,0,1-1.91,2.35l-.2-1c1,.19,1.17-.55,1.52-1.12l-.11-.3-1.6.45-.58-1.53a3.89,3.89,0,0,1,0-.76,4.7,4.7,0,0,1,.25-.78l.3-.15-.3-.23-1.46-.54c-.07-.32-.13-.63-.21-1l-.64.39L46,71.12c.53,0,1-.07,1.39-.08s.64,0,1,0c0-.29,0-.59-.05-.88a1.1,1.1,0,0,1,0-.64l.49.61-.05-.94L49,69.1l.87,1.73,2.27-.76-.92,1c.7,1.07,1-.15,1.49-.25a5,5,0,0,0,.2.69c.16.32.37.62.56.93l.33-.16-.1-1Z"/><path class="cls-19" d="M33.71,81.22a5.35,5.35,0,0,1-.57-3.7c0-.46-.11-.94,0-1.4a12,12,0,0,1,.45-1.63,2,2,0,0,0,2-.86.77.77,0,0,1,.65-.25c.71.24.92,0,1.06-.7.08-.43.66-.76,1-1.13l.22.18-.38,2c-.86.25-1.71.47-2.52.78a.76.76,0,0,0-.28.72,1.47,1.47,0,0,1-.76,2c-.59.34-1.34.64-.4,1.42a.61.61,0,0,1,.09.52C34.06,79.89,33.88,80.55,33.71,81.22Z"/><path class="cls-18" d="M56.39,54.89c.53,0,.8,0,.73.74,0,.49.36,1,.58,1.59l.92-.4.74,1.08c-1.41-.12-2.18.69-3,1.5l.77.68-.38.57H56.2c-.07-1.06-.12-1.12-1.11-1.51,0-.56.13-1,.9-1a.94.94,0,0,0,.6-1.57,4.35,4.35,0,0,0-.55-.5Z"/><path class="cls-18" d="M57.16,63.92,56,64.3c.4-.53-.14-.68-.39-1l-.14-.51-.15,0-.09.49.19,1.54v.58L55,66.53l-.49-.7-.37.59-.77-.58.38-1,1.06,0c-.07-.37-.13-.75-.2-1.13a.51.51,0,0,0-.09-.16l1.15-1.93,1.16-.38v1.34C56.31,63.19,56.94,63.5,57.16,63.92Z"/><path class="cls-17" d="M55.42,53.44c-1.09-.5-1.46-.2-1.2.7l-1.84-.46a10.23,10.23,0,0,1,.57-1.5c0-.1.75,0,.83.11C54.13,52.92,55.36,52.07,55.42,53.44Z"/><path class="cls-14" d="M34.48,50.84l-.39-1.13.75.06.41-2.38c.09.15.25.29.26.44,0,.55,0,1.14.71,1.3C36.2,50.44,35.86,50.77,34.48,50.84Z"/><path class="cls-17" d="M48.71,73.72a4.7,4.7,0,0,0-.25.78,3.89,3.89,0,0,0,0,.76l-1,.19V73.69c-.85,0-.79-.93-1.15-1.51l.64-.39c.08.38.14.69.21,1l1.46.54Z"/><path class="cls-18" d="M53.9,68.15H53l.13.77c-1-.11-.51-1.11-1-1.54L53,67.3l-.4-.69.38-.38,1.16.57Z"/><path class="cls-14" d="M33,53.36a3.15,3.15,0,0,1,1.51-2.52c.1.47.45,1-.35,1.23-.1,0-.07.49-.1.75Z"/><path class="cls-18" d="M54.47,69.49c1.25,0,2,.6,1.89,1.46,0,.07-.09.14,0,.09l-1.45-.2Z"/><path class="cls-17" d="M49.09,76.79l1.6-.45.11.3c-.35.57-.56,1.31-1.52,1.12h0l-.19-.58Z"/><path class="cls-17" d="M54.47,63.54a.51.51,0,0,1,.09.16c.07.38.13.76.2,1.13l-1.06,0C53.29,64.05,53.73,63.71,54.47,63.54Z"/><path class="cls-17" d="M52.74,70.84c-.48.1-.79,1.32-1.49.25l.92-1,.77-.2Z"/><path class="cls-17" d="M56.78,61.23l-1.16.38.58-1h.58Z"/><path class="cls-17" d="M54.09,66.8l-1.16-.57.39-.39.77.58Z"/><path class="cls-17" d="M52.55,66.61l.4.69-.79.08L52,66.8l.2-.19Z"/><path class="cls-18" d="M53.32,68.92l1,.57Z"/><path class="cls-18" d="M52.17,66.61l-.2.19c-.11-.11-.23-.23-.33-.35a.69.69,0,0,1,.17-.17A3.7,3.7,0,0,1,52.17,66.61Z"/><path class="cls-14" d="M37.18,48.92l.58-.18Z"/><path class="cls-18" d="M49.09,77.18l.19.58Z"/><path class="cls-8" d="M33.89,82.76l-.12-.41Z"/><path class="cls-6" d="M65.22,91.53l-1.91,0c0-.43,0-.85,0-1.28s.09-.74.66-.54a7.38,7.38,0,0,0,1,.18l.46.69-.18.74S65.23,91.48,65.22,91.53Z"/><path class="cls-12" d="M66,51.25h-.77l.87-3.52,1.61.85c0,.18,0,.37.05.56,0,.51,0,1,0,1.53l-.44.69-.06-.24Z"/><path class="cls-12" d="M35.22,46.83l0,.2v.36l-.41,2.38-.75-.06c-.78,0-1.25-.29-1.16-1.2s.58-1.67,1.43-1.7C34.65,46.8,34.94,46.82,35.22,46.83Z"/><path class="cls-15" d="M61.56,52c.17.62.33,1.24.49,1.87a4.27,4.27,0,0,1-1.38.2,12.4,12.4,0,0,1-2-.77l.5-1.06c.68,0,1.65.56,1.6-.8Z"/><path class="cls-2" d="M65.79,46.63c-.11-.84-.22-1.67-.32-2.51l1.42,1.59Z"/><path class="cls-3" d="M66.19,43.16c0-.7-.09-1.41-.07-2.12,0-.18.27-.36.42-.53a5.09,5.09,0,0,1,.32.56c.1.24.18.49.28.8l-.75.3.6.89-.8.11Z"/><path class="cls-14" d="M55.25,82.19l-.13-2.55a6.22,6.22,0,0,0,.67.27c.14,0,.38,0,.42,0a.64.64,0,0,0,.07-.5c-.44-.81-.37-1.33.49-1.94a12.41,12.41,0,0,0,2-2.33c.28-.32.61-.61.92-.9a1,1,0,0,0,.08-1.52,1.1,1.1,0,0,1-.08-1l.72.86.16-.09-.12-.93L61.77,71c.06.26.13.52.2.78l-.59,1c-.06.11-.19.28-.15.31.47.59.14,1-.21,1.51-.1.13-.13.32.07.32.39.42,1,.79,1.13,1.28A2,2,0,0,0,64.11,78l-.06.24c-.2.09-.41.16-.61.26a12.05,12.05,0,0,1-1.52.77,4.78,4.78,0,0,1-1.26.09c-.24,0-.48,0-.72,0,.14.23.22.55.42.67a4,4,0,0,0,.89.18,2.32,2.32,0,0,1,.53.25l-2.85.58L57.54,82l-.93-.12-.22,1.28-.58-.2C55.82,82.55,55.88,82.11,55.25,82.19Z"/><path class="cls-10" d="M61.38,72.76l.59-1a1.58,1.58,0,0,0,1-1.86c-.32-1.17-.34-1.25.91-1.44l-.28-.37a2.52,2.52,0,0,1,.27-2.5c.81.58.58,1.5.71,2.3,0,.17-.16.38-.11.54.45,1.63-.38,2.72-1.53,3.68a2.52,2.52,0,0,0-.08.41h2.71c0,.45-.1.9-.12,1.35,0,.68-.06,1.37-.06,2.06s-.35.71-.88.53a1.92,1.92,0,0,1,0-.29c.56-1.24.35-1.89-.81-2.42C63,73.43,62.18,73.1,61.38,72.76Z"/><path class="cls-10" d="M68.11,73.71l-.38.39Z"/><path class="cls-14" d="M46.83,28.82l-1.33-.06h-.65a19,19,0,0,1-1.75-1c-.16-.12-.26-.67-.18-.73.7-.49,1.45-.91,2.18-1.35l2.07.42c-.12.17-.2.43-.35.5-1.08.43-1.2.81-.47,1.66C46.52,28.42,46.67,28.62,46.83,28.82Z"/><path class="cls-16" d="M46,29.48h7.81c.1.94.32,1,1.42.62h1.9l-.36,1.67h-.23l-.26-.49-1.49.36a20.52,20.52,0,0,1-6.58.57c-.65-.08-1.32-.09-2-.13l-.55-.64H46Z"/><path class="cls-7" d="M51,1.47l.39.36L51.16,2,51,1.46Z"/><path class="cls-7" d="M52.88,2.31l.16.07c0,.06,0,.14-.07.15s-.11,0-.16-.06S52.86,2.37,52.88,2.31Z"/><path class="cls-5" d="M53.7,91.19c-2.4-.21-4.81-.39-7.22-.63-2.08-.2-4.17-.43-6.25-.71-1.54-.21-3.06-.51-4.59-.77-.06-.17-.06-.39-.17-.51-.76-.77-.77-.92,0-1.73l.07.68.23,0,.37-1,1,.19,2.68.6,2.7.18.84-.13-.06.2a11.52,11.52,0,0,0,1.92.67c.73.11,1.5,0,2.25,0,1.24.07,2.49.2,3.73.28a1.73,1.73,0,0,0,.54-.11l1.73.39c-.28.49.76,1.39-.82,1.52l.82.4Z"/><path class="cls-11" d="M47,33.57c1.42.17,2.84.41,4.26.5a26,26,0,0,0,3.05-.13A7.68,7.68,0,0,0,54.34,35a2.62,2.62,0,0,0,.26.63c.14.28.3.56.45.83a14.26,14.26,0,0,1-2.54.5,15,15,0,0,1-6.3-.7s0-.07,0-.09A1.73,1.73,0,0,0,47,33.57Z"/><path class="cls-6" d="M45.63,17.23c1.3-.06,2.6-.08,3.89-.19s2.62-.36,3.94-.5a16,16,0,0,1,1.7,0l.44.83c-.36.66-1.88,1-.66,2.16l-.47.6-8.47,0C45.88,19.13,45.75,18.18,45.63,17.23Z"/><path class="cls-3" d="M45.63,1.85a1.5,1.5,0,0,1,.5-.2,7.32,7.32,0,0,1,.94.12l-.29.85Z"/><path class="cls-5" d="M64.28,88.16l1.12.11c.1.64.21,1.28.28,1.92,0,.14-.17.29-.26.44L65,89.94a7.38,7.38,0,0,1-1-.18c-.57-.2-.67.08-.66.54s0,.85,0,1.28l-6.4-.19a1.94,1.94,0,0,1-.52-.19l.49-1.56,1,.56c.06-.16.22-.38.16-.48-.27-.46-.55-.92-1.25-.81a6.76,6.76,0,0,1-1.19,0H54.28l.19-.78,1.47.13c-.19-.94-.45-1.05-1.48-.7l-.66-.39.45-.18,1.12-.33a6.13,6.13,0,0,1-.81-.88,1.53,1.53,0,0,1-.09-.78c0-.33.23-.7.14-1s-.53-.23-.84-.34l-.26-.75h0l.39-.39.38.22c0,.16.07.32.11.48h.15l.12-.48c.13-.07.26-.14.4-.2l.75.36.58.2c.85.49.67,1.09.19,1.73L56.1,85l.29.24L56.29,87h-.23l.87,1.17a4,4,0,0,1,.67-.54c.23-.11.68-.25.75-.16.62.82,1.14.46,1.62-.1,1.28,1,1.33,1,2.29-.31a2.16,2.16,0,0,1-.84-.12,2.72,2.72,0,0,1-.58-.67c.22-.14.42-.37.66-.41a8.49,8.49,0,0,1,1.24,0h0c-.09,1.39,0,1.46.95,1.35l.39.2v.35c0,.14,0,.28,0,.42s-.27.55-.2.76.41.25.77.44Zm-1.91.63-.55,2.33.25,0,1.37-2.36Zm-2,2.31.2-.25-.24-.95-.3-.08c-.12.27-.35.57-.31.82S60.13,91,60.36,91.1Zm.47-2.19.05.31.8-.06-.09-.51Zm-.64.06s-.08.12-.06.16.1.05.15.07.07-.12.06-.16S60.24,89,60.19,89Zm-4.81-5.38c0,.06-.08.12-.06.16s.1,0,.15.07.08-.11.06-.15S55.43,83.62,55.38,83.59Zm3.44,5.65s-.12-.08-.16-.06,0,.09-.07.15.12.08.16.06S58.8,89.29,58.82,89.24Z"/><path class="cls-15" d="M53.51,82.94l.26.75c.31.11.77.15.84.34s-.11.64-.14,1a1.53,1.53,0,0,0,.09.78,6.13,6.13,0,0,0,.81.88L54.25,87l-.45.18.66.39c0,.19,0,.38,0,.57l-.19.78h-.77l-1.73-.39c-.09-1.06-1-.39-1.5-.71a3.23,3.23,0,0,0-1.12-.26c-.21-.05-.51-.21-.61-.13-.47.39-.85.09-1.3,0s-1.17-.5-1.89-.12c-.23.13-.82-.4-1.25-.62.31-.41.6-.82.93-1.21a4.78,4.78,0,0,1,.58-.52l.66-.58a8.48,8.48,0,0,1,.06.87,1.32,1.32,0,0,1-.12.43l.23.21c.32-.32.67-.63,1-1s.37-1.19,1.31-.83a9.55,9.55,0,0,0,1.71.09c.43.08.83.48,1.24.48s1.18.15,1.33-.66c.07-.34.2-.67.3-1Zm-2.22,2.62.31-.1-.26-.6-.26.1Z"/><path class="cls-15" d="M63.91,65.63a2.52,2.52,0,0,0-.27,2.5l.28.37c-1.25.19-1.23.27-.91,1.44a1.58,1.58,0,0,1-1,1.86c-.07-.26-.14-.52-.2-.78a4.85,4.85,0,0,0,.2-1.53c-.08-.39-.52-.71-.87-1.15-.92.18-.92.11-.71-1.07a4.66,4.66,0,0,0-.34-1.62h0l1,.44c-.05-.41-.34-.67-.48-1a3.87,3.87,0,0,1-.13-1l.35.06c.17.16.35.48.51.47A4,4,0,0,1,63.91,65.63Z"/><path class="cls-1" d="M54.09,66.8v-.38l.37-.59.49.7.48-1.07c.36.13.7.27,1.06.38s1,.27,1.6.45L57.64,69l-1.18-1c-.72,1.12-1.66.3-2.56.22Z"/><path class="cls-1" d="M57.16,63.92c-.22-.42-.85-.73-.38-1.35H57c.26.16.51.34.79.48L60,64.11v1.54h0s-.09,0-.09,0C59.35,64.54,58.13,64.43,57.16,63.92Z"/><path class="cls-1" d="M50.05,72.76c-.61,0-1.21,0-1.82,0-.1,0-.28-.24-.25-.31s.2-.56.35-.58a14,14,0,0,1,1.72,0Z"/><path class="cls-18" d="M52.55,74.87,54,74.46l.34,1.65-1.75.11.86-.63Z"/><path class="cls-1" d="M42.56,87.56l-2.7-.18.58-.59.77.19Z"/><path class="cls-8" d="M41.21,87l-.77-.19-.6-1,.14-.2,1.7.49Z"/><path class="cls-1" d="M52.55,74.87l.86.72-.86.63L52,75.64l.2-1.15Z"/><path class="cls-1" d="M55.43,64.88l-.19-1.54h.38c.25.28.79.43.39,1Z"/><path class="cls-20" d="M55.81,82.94l-.75-.36.19-.39C55.88,82.11,55.82,82.55,55.81,82.94Z"/><path class="cls-20" d="M54.66,82.78l-.12.48h-.15c0-.16-.08-.32-.11-.48Z"/><path class="cls-5" d="M53.51,82.94h-.2l-.1-.47.31.07v.39Z"/><path class="cls-20" d="M53.51,82.94v-.39h.38Z"/><path class="cls-1" d="M58.7,60.65a4.74,4.74,0,0,1,.54-.71,4.46,4.46,0,0,1,.73-.45l-.77-.57c.55-1,.73-1,1.33,0,.26.42.57.8.86,1.2v1l-1.09-.61-.45.61-.57.19h-.39Z"/><path class="cls-18" d="M58.7,60.65l.19.58c-.22.82.25,1.37.73,2a3.57,3.57,0,0,1,.42.93l-2.28-1.06c-.28-.14-.53-.32-.79-.48l.77-.76c.19.83.19.83.93.52l-.55-.52c0-.42,0-.83-.57-.77l.19-.77Z"/><path class="cls-16" d="M61.39,61v-1l.73-.21c.5,1.49-.14,2.79-.69,4.1a1.58,1.58,0,0,1,0-2.25C61.52,61.6,61.4,61.27,61.39,61Z"/><path class="cls-1" d="M57.74,60.27l-.19.77h0l-.39.57h-.38v-1l.38-.57Z"/><path class="cls-1" d="M48.71,73.72v-.38l.3.23Z"/><path class="cls-17" d="M56.78,61.61h.38l.39-.57h0c.61-.06.59.35.57.77h-.38l-.77.76h-.19Z"/><path class="cls-17" d="M55.62,63.34h-.38l.09-.49.15,0Z"/><path class="cls-16" d="M55.62,88.91a6.76,6.76,0,0,0,1.19,0c.7-.11,1,.35,1.25.81.06.1-.1.32-.16.48l-1-.56-.49,1.56H53.7l-.19-.37,1.29-.31,1-.23L55.5,90Z"/><path class="cls-17" d="M61.39,61c0,.23.13.56,0,.68a1.58,1.58,0,0,0,0,2.25l-.6.2-.35-.06a3.87,3.87,0,0,0,.13,1c.14.33.43.59.48,1l-1-.44V64.11a3.57,3.57,0,0,0-.42-.93c-.48-.58-.95-1.13-.73-2h.39l.57-.19.45-.61Z"/><path class="cls-20" d="M62.74,85.82a8.49,8.49,0,0,0-1.24,0c-.24,0-.44.27-.66.41a2.72,2.72,0,0,0,.58.67,2.16,2.16,0,0,0,.84.12c-1,1.35-1,1.35-2.29.31-.48.56-1,.92-1.62.1-.07-.09-.52.05-.75.16a4,4,0,0,0-.67.54L56.06,87h.23l.1-1.73.19-.38c.48-.64.66-1.24-.19-1.73l.22-1.28.93.12.14.89,1.43-1v2c1.34-.56,1.66-.46,1.87.72l1.28-.3v-.17l-1-.18c.78-.9.94-.92,1.3,0A6.57,6.57,0,0,1,62.74,85.82Z"/><path class="cls-2" d="M62.74,85.82A6.57,6.57,0,0,0,62.59,84c-.36-.94-.52-.92-1.3,0l1,.18v.17l-1.28.3c-.21-1.18-.53-1.28-1.87-.72v-2l-1.43,1L57.54,82l1.39-.93a4.25,4.25,0,0,0,1,.26,5.7,5.7,0,0,1,1.84.11c.33.31.62.82,1,.89,2.5.44,2.09,1,1.9,2.61-.1.82-.29,1.63-.43,2.45h-.16l-.39-.2c-.22-.52-.21-1.2-.95-1.35Z"/><path class="cls-6" d="M64.28,88.16l.35,1.18c-.36-.19-.71-.26-.77-.44s.12-.5.2-.76Z"/><path class="cls-6" d="M64.08,87.37h.16l-.17.35Z"/><path class="cls-20" d="M46.83,28.82c-.16-.2-.31-.4-.48-.59-.73-.85-.61-1.23.47-1.66.15-.07.23-.33.35-.5,1.18.12,2.36.29,3.54.34.79,0,1.58-.15,2.37-.15.29,0,.56.31.86.43a6.69,6.69,0,0,0,.8.21l.67.15a2.45,2.45,0,0,1-.21.68A3.22,3.22,0,0,1,52.33,29C50.5,29,48.67,28.87,46.83,28.82Z"/><path class="cls-21" d="M50.91,5.71a1.73,1.73,0,0,1,1.58,1.75c.06.73-1.49,1.83-2.59,1.83-.47,0-1.36-1.29-1.41-2.06S49.53,5.75,50.91,5.71Z"/><path class="cls-4" d="M55.62,88.91,55.5,90l.3.25-1,.23-1.29.31-.82-.4c1.58-.13.54-1,.82-1.52h2.11Z"/><path class="cls-6" d="M62.37,88.79h1.07l-1.37,2.36-.25,0Z"/><path class="cls-16" d="M54.47,88.13c0-.19,0-.38,0-.57,1-.35,1.29-.24,1.48.7Z"/><path class="cls-20" d="M62.74,85.82c.74.15.73.83.95,1.35C62.7,87.28,62.65,87.21,62.74,85.82Z"/><path class="cls-16" d="M60.36,91.1c-.23-.15-.62-.28-.65-.46s.19-.55.31-.82l.3.08.24.95Z"/><path class="cls-6" d="M60.83,88.91l.76-.26.09.51-.8.06Z"/><path class="cls-15" d="M56.58,84.87l-.19.38L56.1,85Z"/><path class="cls-16" d="M60.19,89c.05,0,.13,0,.15.07s0,.11-.06.16-.14,0-.15-.07S60.16,89,60.19,89Z"/><path class="cls-14" d="M55.38,83.59s.14,0,.15.08,0,.1-.06.15-.14,0-.15-.07S55.36,83.65,55.38,83.59Z"/><path class="cls-16" d="M58.82,89.24c0,.05,0,.14-.07.15s-.11,0-.16-.06,0-.14.07-.15S58.77,89.21,58.82,89.24Z"/><path class="cls-17" d="M51.29,85.56l-.21-.6.26-.1.26.6Z"/><path class="cls-18" d="M59.85,61l-.57.19Z"/><path class="cls-1" d="M57.74,61.81h.38l.55.52C57.93,62.64,57.93,62.64,57.74,61.81Z"/><path class="cls-18" d="M57.55,61l-.39.57Z"/></g></svg>