<svg xmlns="http://www.w3.org/2000/svg" viewBox="0 0 100 100"><defs><style>.cls-1{fill:#52a0a3;}.cls-2{fill:#6dafb1;}.cls-3{fill:#94c4c6;}.cls-4{fill:#69acae;}.cls-5{fill:#98c7c8;}.cls-6{fill:#6caeb0;}.cls-7{fill:#469a9d;}.cls-8{fill:#5fa7aa;}.cls-9{fill:#4f9ea1;}.cls-10{fill:#9dc9ca;}.cls-11{fill:#a6cecf;}.cls-12{fill:#8cbfc1;}.cls-13{fill:#54a1a4;}.cls-14{fill:#92c3c5;}.cls-15{fill:#8abfc0;}.cls-16{fill:#65abad;}.cls-17{fill:#7fb9ba;}.cls-18{fill:#62a9ab;}.cls-19{fill:#8ec0c2;}.cls-20{fill:#87bdbe;}.cls-21{fill:#76b3b5;}.cls-22{fill:#84bbbd;}.cls-23{fill:#91c2c4;}.cls-24{fill:#8fc1c3;}.cls-25{fill:#57a3a6;}</style></defs><g id="Ebene_4" data-name="Ebene 4"><path class="cls-1" d="M18.49,78.07l.43-.19c.07.4.14.81.26,1.48l2.41-1.76s0-.07,0-.1l.21-.21,1.24-.42h.39l.66-.66.23-.12.14,0,.69.55c.16-1.2.29-2.23.47-3.26a4.19,4.19,0,0,1,.43-1.23.83.83,0,0,1,.56-.35c.08,0,.23.27.33.43a4.11,4.11,0,0,0,.41.71c.35.39.75.74,1.13,1.1l-.18.25.68-.12c.32.09.66.31.94.24a5.54,5.54,0,0,0,1.57-.65c1-.58,1.94-1.23,2.91-1.86l.09,0h.09l2-1.25a2.8,2.8,0,0,0,2.09-1.84,18.83,18.83,0,0,0,.89-3,3,3,0,0,0,0-1.08,14.19,14.19,0,0,0-.31-1.44l-.24-1.06a2.6,2.6,0,0,0-.17-.56c-.52-1.06-1.1-2.09-1.59-3.17a15.48,15.48,0,0,0-1.4-3.18,8,8,0,0,1-1.79-3.88c0-.16-.45-.27-.69-.4-.19-1.43-.27-2.88-.59-4.29-.6-2.61-1.32-5.2-2-7.79-.37-1.93-1.15-2.71-2.37-2.33l.63,1.15-2.74-.44,0-.33,1.11-.4c-1.05-.67-.64-1.26-.11-1.87a17.85,17.85,0,0,1,1.28-1.57,13.25,13.25,0,0,1,1.77-1.17l.22-1.58.36-.31c.25.1.63.35.74.26.83-.67,1.18.05,1.67.49a7.58,7.58,0,0,0,.93.63l-.21,1.23c-.93-.09-1,.53-.71,1.1a9.17,9.17,0,0,0,1.09,1.59l.19.6-.49.39.53.45c.21,1.24.4,2.48.63,3.71.5,2.64.88,5.31,1.57,7.89a60.67,60.67,0,0,0,2.26,5.87,1.47,1.47,0,0,0,.91,2.1l.21.4c-.35.56-.27.86.46.79h0c.05,2.05,1.34,3.4,2.73,4.67.18.17.62,0,.95.06l2.28.81c-.09.7,0,1.28,1,1.14v-.8H49.2l.2.27.22-.25.61,0-.15,1.28.33.15.66-1.37.6-.1.13,1.26,1.11-.65-.09,1.13,1.13.32-.19.87-.58.19-.68,0-1.65-.23h-.41L48.9,64.69a7.57,7.57,0,0,0,0,1.08,4.52,4.52,0,0,0,.3.82l-1.05,0-.39,0c-.78-.14-1.46-1-2.35-.35l-.33-.1c-.42-.22-.83-.41-1,.26-.08.19-.17.39-.26.58l-.65.21,0,.19.5,0a24.72,24.72,0,0,1-1.55,4.51,11.62,11.62,0,0,1-5.31,4.52c-1.16.57-2.25,1.29-3.42,1.82a40.19,40.19,0,0,1-4.35,1.67c-2.46.76-5,1.41-7.45,2.1l-.23.14-.8.31c-.53-.8-1.56-.48-1.93-.28a6.8,6.8,0,0,1-2.59.47c-.74-.14-.68-.5-.3-1,1.15.58,1.58.14,1.66-1.64C18.75,79.93,18.34,78.85,18.49,78.07Z"/><path class="cls-2" d="M29,74.21l-.68.12.18-.25c-.38-.36-.78-.71-1.13-1.1a4.11,4.11,0,0,1-.41-.71c-.1-.16-.25-.44-.33-.43a.83.83,0,0,0-.56.35,4.19,4.19,0,0,0-.43,1.23c-.18,1-.31,2.06-.47,3.26l-.69-.55a4.2,4.2,0,0,0,.12-1.35,19.91,19.91,0,0,0-.81-2.19l.48,0c.12-.28.38-.58.33-.82A5.47,5.47,0,0,0,24,70.54a14.1,14.1,0,0,1-1-1.9c-.44-1.34-.78-2.72-1.16-4.08-.06-.21-.26-.5-.18-.62.58-.95-.05-1.42-.69-1.9l.05-2c.9-.7.9-.84,0-1.7L21,57.74l1-.81-.73-.88.05-.77A2.09,2.09,0,0,0,21.6,53l.22-.82.57-.28L22,51.55c.34-1.25.61-2.52,1.05-3.73.86-2.34,1.82-4.65,2.74-7l.8-2.09c-1.36.23-1,1.13-1.09,1.8a.37.37,0,0,1-.18.08l-.56-.88a3.37,3.37,0,0,0-1.82,1.46,3.9,3.9,0,0,1-.87.85c-.32.25-.7.44-1.05.66.29.3.56.62.87.9.11.1.32.09.48.13A15.37,15.37,0,0,0,18,53.39l-.9,2.66h-.29c-.31-1.12-.67-2.22-.89-3.36a25.77,25.77,0,0,1-.26-2.8l1.4.74a2.52,2.52,0,0,0,.86-3.26l-2.22.48c0-.28,0-.56,0-.84,2,.09,3.25-1,2.73-3-.61,0-1.25-.13-1.89-.12a8.2,8.2,0,0,0-1.38.2c-.42-2.21.38-4.31.63-6.45.2-1.69.62-3.37,1-5,.09-.24.19-.48.29-.72.12-.44.25-.88.37-1.33a1.86,1.86,0,0,0,.79,0c.23-.12.36-.42.53-.64a4.11,4.11,0,0,0-.69-.42,1.19,1.19,0,0,0-.49,0c.13-.27.27-.54.41-.8s.23-.6.34-.89.21-.5.32-.76l.3-.45h0c.54,0,.85-.22.46-.79.15-.28.31-.55.46-.82l.51-.91a.14.14,0,0,1,0-.13c.75,0,1.47,0,1.46-1l1.26.2L23,22.76l.89-.45.2.82-.24.59H22.26l.2.37a14.18,14.18,0,0,1-.57,1.32c-.55,1-1.51,1.89-1.6,2.9a8.75,8.75,0,0,1-.85,2.81c-.19.47-.5,1.26.31,1.69l-.32.78c-.44-.13-.87-.23-.91.45l-1.13-.22-.2,1c1,.11,1,.69.85,1.43-.05.27.17.58.26.88l.21.61.18.2-.27,1.64c-1-.11-.51.95-1,1.28-.17.1-.22.56-.16.82a15.45,15.45,0,0,0,.59,1.72l.9-1L30.66,30.5l-.22,1.58a13.25,13.25,0,0,0-1.77,1.17,17.85,17.85,0,0,0-1.28,1.57c-.53.61-.94,1.2.11,1.87l-1.11.4,0,.33,2.74.44-.63-1.15c1.22-.38,2,.4,2.37,2.33l-.93.81a1.56,1.56,0,0,0-.83,1.9l-.15.51a16.33,16.33,0,0,0-1.66,1.29c-.57.56-.42,1.18.27,1.61l-.12.65-.42.65a.23.23,0,0,1,0,.14,3,3,0,0,0-.6.5c-.27.39-.49.84-.65,1.12a8.41,8.41,0,0,1-.22,1.49c-.22.64-.34,1.14.56,1.23l-.08.2-.47,1.44c-.12.54-.26,1.08-.37,1.63-.05.27,0,.55-.05.82a27,27,0,0,0-.44,4.63c.19,2.92.66,5.82,1,8.72a2.8,2.8,0,0,0,.36.71c.16.32.3.65.46,1A4.78,4.78,0,0,0,27,71c.79.88,2.3,1.31,1.86,3C28.86,74,29,74.12,29,74.21Z"/><path class="cls-3" d="M82.37,23.33c1.08,2.5,2.33,5,3.22,7.52A27.51,27.51,0,0,1,87.1,41c-.17,3.71-.24,7.43-.44,11.14a6.3,6.3,0,0,1-.76,1.92l-.44-.26-.63-1.22-.19-5.24-.27,0L84,48l-.46-.5-.3.15.85,2-.53,2.55-.21.61a1.34,1.34,0,0,0,0,.2l-1.21-.2a1.34,1.34,0,0,0,0-.2l-.57-.66a3,3,0,0,0,.36-.81,14.79,14.79,0,0,0-.82-5.43c-.66-2.27-1.18-4.59-1.82-6.86a13.27,13.27,0,0,0-3.1-5.5c-.45-.48-.85-1-1.27-1.52l-.26.15A32.32,32.32,0,0,0,75.82,36a17.93,17.93,0,0,1,1.28,5.71,10.37,10.37,0,0,1,0,1.93,11.81,11.81,0,0,1-.36,1.51c-.51-.58-1-1.17-1.54-1.73-.25-.28-.55-.52-.82-.78.11-.18.34-.39.31-.54-.21-1.06-.46-2.12-.73-3.17-.54-2.1-1-4.22-1.69-6.27a44.45,44.45,0,0,0-1.87-4.18c1.16-.12,1.18.86,1.43,1.58,1.3-.42,1.3-.42,1.5.67l1.71.77.16-.16L73.47,29c.72-.8.48-1.55-.76-2.26a2,2,0,0,1-1.23-2l1.21.91a16.72,16.72,0,0,1,2.88,2.28c1.58,1.91,3,4,4.42,6,.24.33.36.78.66,1,1.92,1.56,2,3.88,2.52,6,.4,1.62.66,3.26,1,4.89a11.8,11.8,0,0,0,.5-2.8A29,29,0,0,0,83,31.35c-.26-.77-.4-1.59-.67-2.36-.74-2.16-1.53-4.3-2.3-6.46.22-.26.43-.53.67-.77a4.84,4.84,0,0,1,.54-.46c.11.18.29.36.31.55,0,.58,0,1.17,0,1.85Z"/><path class="cls-4" d="M70.8,73.93l-.59.26-.54-.71-.08.92h0c-.84.15-.63.8-.59,1.3.08,1,.28,2,.33,3.08a1.12,1.12,0,0,1-.45.91c-.25.11-.72-.1-1-.31a1.9,1.9,0,0,1-.55-.95c-.21-.81-.33-1.63-.49-2.48-.79,0-.55.75-.61,1.22-.24,1.8-.41,3.62-.66,5.42,0,.32-.36.61-.55.92-.2-.16-.56-.31-.57-.48-.1-1.2-.15-2.4-.18-3.6,0-.82.48-1.7-.37-2.38l.32-1.82V74.6l1.35,1,0,.42c.51-.29,1.43-.54,1.47-.88.11-1,.67-1.15,1.39-1.32s.87-.47.53-1.11a5.73,5.73,0,0,1-.29-.76l-1.33-.22c.57-.25,1.15-.47,1.7-.76a23.22,23.22,0,0,0,2.23-1.26c.27-.17.41-.54.61-.82L76.16,66l1.61-.08-.19-1.18h0l.87-.34c.4-.19.81-.35,1.2-.57,1.46-.81,2.17-2.3,3.1-3.56a8.35,8.35,0,0,0,.82-2.28c.26.13.54.41.78.38.88-.09,1.51.15,1.74.88h1.41c-.85.61-.68,1.65-1,2.48l-.47.56-1.89,1.57L85,65c-.93.43-1.75,1.12-2.57,1.12a4.21,4.21,0,0,0-4.19,3.13l-2.63,1.72-.24.16-.36.26a1.2,1.2,0,0,0-1.47.92,1.37,1.37,0,0,1-1.88,1C71,73.07,70.86,73.42,70.8,73.93Z"/><path class="cls-4" d="M68.3,3.17l.44.28c.85.41,1.11,1.77,2.26,1.49a6.87,6.87,0,0,0,.51,1c.47.65,1,1.23,1.47,1.91.32.5.37,1.18.71,1.65a3.92,3.92,0,0,1,.44,3.26c-.24,0-.54,0-.69-.13-1.32-1.14-2.61-2.32-3.9-3.48.06-1.47-.48-2-2.06-1.9L65.27,6a4.45,4.45,0,0,0-.56-1.23A3.13,3.13,0,0,0,62.35,4c-.36,0-1-.57-1,.4l-.61,0a2.08,2.08,0,0,0-3.1-.78h-.41C56.84,3,56.47,2.47,56,2c-.08-.09-.6,0-.7.18a9,9,0,0,0-.56,1.39L54,3.61c-1.34,0-1.77.26-2.35,1.61l-.77.28c0-.3,0-.61-.06-.92,0-1.25-.39-1.62-1.65-1.64a15.44,15.44,0,0,1,1.26-1.17c.31-.24.81-.27,1.07-.55.85-.88,1.93-.8,3-.88C56.16.22,57.81,0,59.45,0a6.28,6.28,0,0,1,1.9.46q1.89.6,3.75,1.26c.48.17.94.39,1.41.59l.14.53.27-.31.38.1Zm-15-.07-.14-.27a1,1,0,0,0-.23.23s.09.17.15.18S53.24,3.16,53.32,3.1Z"/><path class="cls-5" d="M15.66,49.89a25.77,25.77,0,0,0,.26,2.8c.22,1.14.58,2.24.89,3.36h.29l.9-2.66c0,1.56.05,3.12.1,4.68A8.13,8.13,0,0,0,18.27,60a27.17,27.17,0,0,1,1.21,3.78c.34,2.78,2.15,4.74,3.56,7A28.46,28.46,0,0,1,21,62c.64.48,1.27,1,.69,1.9-.08.12.12.41.18.62.38,1.36.72,2.74,1.16,4.08a14.1,14.1,0,0,0,1,1.9,5.47,5.47,0,0,1,.56,1.27c.05.24-.21.54-.33.82l-.48,0a19.91,19.91,0,0,1,.81,2.19,4.2,4.2,0,0,1-.12,1.35l-.14,0c-.57-.41-1.14-.82-1.7-1.25a7.84,7.84,0,0,1-1.76-1.44,53.27,53.27,0,0,1-3.09-5.05c-1.76-3.29-3.2-6.74-3.14-10.56,0-2.55.39-5.1.62-7.64a1.23,1.23,0,0,1,.21-.45Z"/><path class="cls-5" d="M70.8,73.93c.06-.51.2-.86.84-.66a1.37,1.37,0,0,0,1.88-1A1.2,1.2,0,0,1,75,71.35c-1.4,1.12-.76,2.17-.1,3.45,1.42,2.75,2.43,5.73,4,8.43,2,3.45,2.85,7.24,4.06,10.94a13.12,13.12,0,0,1,.56,3.35,10.56,10.56,0,0,1-.57,2.48,9.2,9.2,0,0,1-1.16-1.59c-.81-1.88-1.56-3.79-2.32-5.69q-3.34-8.32-6.67-16.64a6.45,6.45,0,0,1-.45-1.25C72.13,73.93,71.67,73.61,70.8,73.93Z"/><path class="cls-2" d="M18.49,78.07c-.15.78.26,1.86-1.07,2-.08,1.78-.51,2.22-1.66,1.64-.38.47-.44.83.3,1A5.76,5.76,0,0,1,15,84.16a3.83,3.83,0,0,0-1.47,3.62c0,.14,0,.28,0,.41l-.26.65v.39c-.09.35-.17.69-.26,1l0,.82c-.14.29-.42.59-.39.85A18.56,18.56,0,0,0,13,94h0c-.82,0-.63.58-.64,1l-.22,0-.43.12a4.53,4.53,0,0,1-1.17,0,10,10,0,0,1-1.44-.74c.14-1.89.29-3.9.45-5.92l.51-1.67v-.41l1.74-2.1-.55-.43A13.07,13.07,0,0,1,18.49,78.07Z"/><path class="cls-6" d="M35.57,4.75l2.32-1.59c.35,0,.7,0,1,0s.49-.16.65-.08c1.23.62,1.47,2.14,2.58,2.88.09.05,0,.32,0,.49l-2.81.07c-.37,0-.83-.09-1.09.09-.92.64-2.32.3-3,1.48a.6.6,0,0,1-.56.14c-1.41-.81-1,.35-1.11,1.13l-2.52.48c1.11.61,1.23,1.15.49,1.81a12.5,12.5,0,0,1-1.85,1.2c.41,1.09-1.72,3.49-3.34,3.26l1.3,1.33-.68.62a2.23,2.23,0,0,0-.71.34c-.38.38-.68.82-1,1.23l-.28-.09.19-1.21-.32-.1c-.13.5-.28,1-.37,1.49a7.66,7.66,0,0,0-.06,1l-.62-1L23.67,18l1.21-1.67c1.08.23,1.14.16.85-1L26,14.9a3,3,0,0,0,.66-.43c1.43-1.61,2.87-3.21,4.24-4.87.53-.65.92-1.32,1.84-.82,0-.43,0-.92.16-1.09A22.85,22.85,0,0,1,35.19,6C35.68,5.68,35.92,5.32,35.57,4.75Z"/><path class="cls-5" d="M65.05,83.51c.19-.31.5-.6.55-.92.25-1.8.42-3.62.66-5.42.06-.47-.18-1.18.61-1.22.16.85.28,1.67.49,2.48a1.9,1.9,0,0,0,.55.95c.25.21.72.42,1,.31a1.12,1.12,0,0,0,.45-.91c0-1-.25-2-.33-3.08,0-.5-.25-1.15.59-1.3.36,2,.73,4.08,1.09,6.12.13.74.23,1.48.35,2.22.32,1.92-.8,3.31-2,4.51-.78.8-2,.37-3-.09V83.52l-.49-.21-.34.94-.19-.14Zm2.24,1.14c.59-.85.13-4.12-.72-4.83C66.62,81.5,66.35,83.13,67.29,84.65Z"/><path class="cls-5" d="M78.22,69.21a4.21,4.21,0,0,1,4.19-3.13c.82,0,1.64-.69,2.57-1.12l-.83-1.15L86,62.24a.89.89,0,0,1-.06.3c-1.77,2.19-.29,4,.82,5.7s2.46,3.07,3.11,5c.3.89,1.11,1.59,1,2.66,0,.4-.06.79-.08,1.19h0A7.3,7.3,0,0,1,89.15,76c-.76-.82-1.35-1.79-2.05-2.68-.58-.74-1.29-1.4-1.81-2.18-1-1.49-1.89-3-2.81-4.53Z"/><path class="cls-3" d="M74.13,12.81a3.92,3.92,0,0,0-.44-3.26C73.35,9.08,73.3,8.4,73,7.9c-.42-.68-1-1.26-1.47-1.91a6.87,6.87,0,0,1-.51-1c-1.15.28-1.41-1.08-2.26-1.49a6.33,6.33,0,0,1,3.73,1.92,23,23,0,0,1,2.87,3.28c1.14,1.55,2.16,3.18,3.18,4.82a8.88,8.88,0,0,1,.69,1.78c.32.88.62,1.78.92,2.67l.54.89a.49.49,0,0,1,.06.17l-.66.94-.3-.13-.3-1.42c-.75.25-.58.63-.34,1.16a4.12,4.12,0,0,1,.14,1.33c-.83-1.4-1.61-2.83-2.48-4.2S75,14.09,74.13,12.81Z"/><path class="cls-7" d="M49.2,2.94c1.26,0,1.62.39,1.65,1.64,0,.31,0,.62.06.92-.25.45-.49.9-.73,1.35a13.58,13.58,0,0,0-1.44.68,2.09,2.09,0,0,0-.9.86c-.07.19.36.65.66.87a1.39,1.39,0,0,1,.77,1.46,9.24,9.24,0,0,0,.61,2.62l-1.29.11-.22-.62.35-.2-.08-.22-1.29.22-.4,0a14.11,14.11,0,0,0,0-1.72,8.39,8.39,0,0,0-.39-1.36,6.13,6.13,0,0,0-.05-1.72,2.27,2.27,0,0,1,.59-2.32A9,9,0,0,0,48,3.77l.23-.21.18-.2h0l.19-.22Z"/><path class="cls-8" d="M42.2,6.42c0-.17.06-.44,0-.49-1.11-.74-1.35-2.26-2.58-2.88-.16-.08-.43.07-.65.08s-.7,0-1,0a10.47,10.47,0,0,1,1.61-.93,13.94,13.94,0,0,1,2.15-.47c1.09-.2,1.71.63,2.47,1.16l.1,0h.25l1.41,1.89L44.25,6.26Z"/><path class="cls-9" d="M87.51,59.2H86.1c-.23-.73-.86-1-1.74-.88-.24,0-.52-.25-.78-.38l-.2-.16.72-.8a2.62,2.62,0,0,1-.42-.81c-.13-1-.19-2-.28-3l0-.22a1.34,1.34,0,0,1,0-.2c.2.12.58.24.58.36,0,1.08.67,1.16,1.48,1.09a1.09,1.09,0,0,1,0,.18l0,.44-.06.31.29-.09.23,0,.39.07,1,.71.49.28.39.6a.19.19,0,0,1,.05.16l.18.87.06.56Z"/><path class="cls-7" d="M67.33,71.7l1.33.22a5.73,5.73,0,0,0,.29.76c.34.64.08,1-.53,1.11s-1.28.36-1.39,1.32c0,.34-1,.59-1.47.88l0-.42-1.35-1H64c-.11-.19-.23-.38-.35-.57.12-.29.23-.58.34-.87l0-.61,1.65-1.09.67.24Z"/><path class="cls-2" d="M44.25,6.26l1.63-1.42L44.47,3c.38.09.88,0,1.12.29.72.69,1.41,1.14,2.38.53a9,9,0,0,1-.9,1.72,2.27,2.27,0,0,0-.59,2.32,6.13,6.13,0,0,1,.05,1.72A3.5,3.5,0,0,0,45.9,12L45,10.13l0-.37.71-.34L45,8.69l-.09-1.42.37-.64-.8,0Z"/><path class="cls-10" d="M35.57,4.75c.35.57.11.93-.38,1.26a22.85,22.85,0,0,0-2.32,1.68c-.19.17-.11.66-.16,1.09-.92-.5-1.31.17-1.84.82-1.37,1.66-2.81,3.26-4.24,4.87a3,3,0,0,1-.66.43,2.79,2.79,0,0,1,.34-.83c2.21-2.59,4.4-5.2,6.7-7.7A11.48,11.48,0,0,1,35.57,4.75Z"/><path class="cls-11" d="M65.05,83.51l0,.6.19.14.34-.94.49.21v3.64a4.36,4.36,0,0,1-2.32-3.82,47.31,47.31,0,0,1,.15-6.29c.85.68.35,1.56.37,2.38,0,1.2.08,2.4.18,3.6C64.49,83.2,64.85,83.35,65.05,83.51Z"/><path class="cls-12" d="M13.51,87.78A3.83,3.83,0,0,1,15,84.16a5.76,5.76,0,0,0,1.08-1.49,6.8,6.8,0,0,0,2.59-.47c.37-.2,1.4-.52,1.93.28-1.07.47-2.18.87-3.2,1.44A8.06,8.06,0,0,0,13.51,87.78Z"/><path class="cls-13" d="M15.15,44.11a8.2,8.2,0,0,1,1.38-.2c.64,0,1.28.08,1.89.12.52,2-.7,3.07-2.73,3Z"/><path class="cls-14" d="M64,72.56c0,.21,0,.41,0,.61-.16.24-.32.47-.47.71a30.09,30.09,0,0,1-2.67-4.18,20.4,20.4,0,0,0-2.82-3.94c-.13-.18-.54-.15-.83-.21.08-.13.15-.26.22-.4h0l1,0h.42C60.27,66.52,60.48,68.65,62,70c.15.13.11.45.21.66a3,3,0,0,0,.36.56c.24.29.47.58.73.84A7.15,7.15,0,0,0,64,72.56Z"/><path class="cls-11" d="M79.27,20.86a4.12,4.12,0,0,0-.14-1.33c-.24-.53-.41-.91.34-1.16l.3,1.42.3.13.66-.94,1.64,4.35-.83.37c0-.68,0-1.27,0-1.85,0-.19-.2-.37-.31-.55a4.84,4.84,0,0,0-.54.46c-.24.24-.45.51-.67.77Z"/><path class="cls-13" d="M15.66,49.89l-.19-.19c0-.12.07-.25.11-.37s.05-.3.07-.46c0-.34,0-.68,0-1l2.22-.48a2.52,2.52,0,0,1-.86,3.26Z"/><path class="cls-15" d="M23.67,18c.07.54.13,1.08.2,1.63l-1.65,2.05c-.75.27-.89.72-.41,1.25h0c0,1-.71,1.06-1.46,1Z"/><path class="cls-16" d="M57.45,65.15l-.22.4-3.47.88c.06-.29.12-.58.19-.87l.77-.87v1.5c.61-.46,1.06-.76,1.47-1.11A.84.84,0,0,1,57.45,65.15Z"/><path class="cls-2" d="M21.6,77.5s0,.08,0,.1l-2.41,1.76c-.12-.67-.19-1.08-.26-1.48l1.39-.42Z"/><path class="cls-17" d="M50.44,66.37h.41l1.65.23.68,0a5.58,5.58,0,0,1-5,0l1.05,0Z"/><path class="cls-5" d="M87.51,59.2l.88-.91a4.15,4.15,0,0,1-1.88,3.39C86.83,60.85,86.66,59.81,87.51,59.2Z"/><path class="cls-10" d="M11.25,83.83l.55.43-1.74,2.1C10.46,85.52,10.85,84.67,11.25,83.83Z"/><path class="cls-12" d="M13,94a18.56,18.56,0,0,1-.43-2.07c0-.26.25-.56.39-.85C13,92.07,13,93,13,94Z"/><path class="cls-15" d="M17.53,29.5a1.19,1.19,0,0,1,.49,0,4.11,4.11,0,0,1,.69.42c-.17.22-.3.52-.53.64a1.86,1.86,0,0,1-.79,0C17.43,30.21,17.48,29.86,17.53,29.5Z"/><path class="cls-17" d="M45.42,66.24c.89-.61,1.57.21,2.35.35A1.67,1.67,0,0,1,45.42,66.24Z"/><path class="cls-2" d="M23.05,76.87l-1.24.42,0-.58.61-.2Z"/><path class="cls-15" d="M25.73,15.31c.29,1.17.23,1.24-.85,1Z"/><path class="cls-10" d="M10.06,86.77l-.51,1.67Z"/><path class="cls-5" d="M21.83,76.71l0,.58-.21.21-1.29,0Z"/><path class="cls-12" d="M12.36,95.07c0-.47-.18-1.06.64-1C12.77,94.36,13.25,95.14,12.36,95.07Z"/><path class="cls-5" d="M23.05,76.87l-.61-.36,1-.18c0,.18,0,.36,0,.54Z"/><path class="cls-2" d="M23.44,76.87c0-.18,0-.36,0-.54l.62-.12Z"/><path class="cls-4" d="M87.22,55.82l-1-.71Z"/><path class="cls-5" d="M69.59,74.4l.08-.92.54.71Z"/><path class="cls-15" d="M19.35,25.81c.39.57.08.75-.46.79Z"/><path class="cls-4" d="M63.55,73.88c.15-.24.31-.47.47-.71-.11.29-.22.58-.34.87Z"/><path class="cls-12" d="M12.94,90.27c.09-.35.17-.69.26-1C13.11,89.58,13,89.92,12.94,90.27Z"/><path class="cls-15" d="M20.32,24.08l-.51.91Z"/><path class="cls-3" d="M68.3,3.17l-1-.54Z"/><path class="cls-11" d="M80.67,18.81l-.54-.89Z"/><path class="cls-15" d="M18.28,27.81c-.11.29-.23.59-.34.89C18.05,28.4,18.17,28.1,18.28,27.81Z"/><path class="cls-12" d="M13.2,88.84l.26-.65Z"/><path class="cls-17" d="M44.06,66.4c.2-.67.61-.48,1-.26Z"/><path class="cls-17" d="M43.69,67.41l-.5,0,0-.19L43.8,67C43.76,67.12,43.72,67.27,43.69,67.41Z"/><path class="cls-3" d="M85.42,54.85c0-.14,0-.29,0-.44l.35-.19.09.82-.23,0Z"/><path class="cls-3" d="M66.92,2.53l-.27.31-.14-.53Z"/><path class="cls-15" d="M17,31.89c-.1.24-.2.48-.29.72C16.82,32.37,16.92,32.13,17,31.89Z"/><path class="cls-14" d="M64,74.61h.21v.63Z"/><path class="cls-2" d="M85.79,54.22l-.35.19a1.09,1.09,0,0,0,0-.18V53.8l.44.26A.36.36,0,0,1,85.79,54.22Z"/><path class="cls-4" d="M88.1,56.7l-.39-.6Z"/><path class="cls-15" d="M18.9,26.6l-.3.45Z"/><path class="cls-4" d="M88.33,57.73l-.18-.87Z"/><path class="cls-5" d="M15.65,48.87c0,.16,0,.31-.07.46C15.61,49.18,15.63,49,15.65,48.87Z"/><path class="cls-12" d="M11.71,95.14l.43-.12Z"/><path class="cls-5" d="M90.81,77.09c0,.06.08.12,0,0,0,.11,0,0,0,0Z"/><path class="cls-2" d="M48.38,3.36l-.18.2Z"/><path class="cls-5" d="M75.35,71.09l.24-.16Z"/><path class="cls-12" d="M21.38,82.17l.23-.14Z"/><path class="cls-2" d="M48.58,3.14l-.19.22Z"/><path class="cls-2" d="M44.22,3l-.1,0,.06,0Z"/><path class="cls-2" d="M31,30.19q3.23-3.42,6.46-6.85a3.08,3.08,0,0,0,1-.34c.85-.76,1.57-1.67,2.47-2.34.74-.55.86-1.33,1.24-2a14.39,14.39,0,0,1,1-1.26c.31-.45.56-.94.87-1.4.61-.91.27-2.56,2-2.49l-.13-1.06,1.05.19.4,0-.21.2c-.63.47-.55.81.19,1h0c0,.13,0,.26,0,.4s-.09.28-.14.43l-.18.43c-1.1-.25-1.15.42-1.07,1.21l.2.42a.66.66,0,0,0,0,.2c-.41.69-.82,1.38-1.22,2.07-1.06.53-1.66,1.73-2.9,2a1,1,0,0,0,0,.65,1.59,1.59,0,0,1-.77,2.51c-.24.11-.36.49-.53.74-2.47,1.47-4,3.85-5.77,6-.2.23-.42.44-.62.66a7.58,7.58,0,0,1-.93-.63c-.49-.44-.84-1.16-1.67-.49C31.65,30.54,31.27,30.29,31,30.19Z"/><path class="cls-14" d="M39.07,62.31a15.68,15.68,0,0,1-2-2.39c-.74-1.38-1.27-2.88-1.93-4.44l-.42.6-.81.21-1.26-.42c.14-1.46.28-2.93.44-4.39,0-.13.19-.24.29-.36.24.13.66.24.69.4a8,8,0,0,0,1.79,3.88,15.48,15.48,0,0,1,1.4,3.18c.49,1.08,1.07,2.11,1.59,3.17A2.6,2.6,0,0,1,39.07,62.31Z"/><path class="cls-9" d="M54.77,63.14l.61,0a.54.54,0,0,0,0,.18l.26,1,1.28-.74,0-.75,1.39-.92c.14.41.28.83.41,1.24l-.82,1.65-.41.42h0a.84.84,0,0,0-1.26-.07c-.41.35-.86.65-1.47,1.11v-1.5l-.77.87-1.13-.32.09-1.13,1.8-.29Z"/><path class="cls-15" d="M35.42,68.23c.41.82.81,1.65,1.22,2.47L34.58,72c.13-.9,0-1.63-1.07-1.87a.18.18,0,0,1,0-.16,4,4,0,0,1,.17-.68c.18-.39.31-.89.62-1.09S35,68.19,35.42,68.23Z"/><path class="cls-15" d="M40.8,57.69l3.68,4.73c-.33,0-.77.11-.95-.06C42.14,61.09,40.85,59.74,40.8,57.69Z"/><path class="cls-18" d="M54.77,63.14l-.06.68-1.8.29-1.11.65-.13-1.26C52.69,63.26,53.63,62.27,54.77,63.14Z"/><path class="cls-2" d="M34.15,32.8c.13.9.25,1.8.38,2.69a9.17,9.17,0,0,1-1.09-1.59C33.18,33.33,33.22,32.71,34.15,32.8Z"/><path class="cls-18" d="M50.44,66.37l-1.23.22a4.52,4.52,0,0,1-.3-.82,7.57,7.57,0,0,1,0-1.08Z"/><path class="cls-3" d="M33.51,70.08c1,.24,1.2,1,1.07,1.87H34.5l-.09,0Z"/><path class="cls-15" d="M39.22,54.4c.31.7.61,1.4.91,2.1A1.47,1.47,0,0,1,39.22,54.4Z"/><path class="cls-18" d="M46.76,63.23l1,.34v.8C46.73,64.51,46.67,63.93,46.76,63.23Z"/><path class="cls-18" d="M50.23,63.54l.84.06L50.41,65l-.33-.15Z"/><path class="cls-18" d="M52.5,66.59l-1.65-.23Z"/><path class="cls-15" d="M40.34,56.9c.16.26.31.53.46.79C40.07,57.76,40,57.46,40.34,56.9Z"/><path class="cls-2" d="M34.72,36.09l0,.84-.53-.45Z"/><path class="cls-18" d="M49.2,63.56l.42,0c-.07.08-.14.17-.22.25Z"/><path class="cls-15" d="M23.84,23.72c-.94,1.87-1.93,3.71-2.81,5.61-.51,1.12-.86,2.32-1.28,3.48-.81-.43-.5-1.22-.31-1.69a8.75,8.75,0,0,0,.85-2.81c.09-1,1.05-1.93,1.6-2.9a14.18,14.18,0,0,0,.57-1.32l-.2-.37Z"/><path class="cls-19" d="M25.32,40.64l-2.95,3.12c-.16,0-.37,0-.48-.13-.31-.28-.58-.6-.87-.9.35-.22.73-.41,1.05-.66a3.9,3.9,0,0,0,.87-.85,3.37,3.37,0,0,1,1.82-1.46Z"/><path class="cls-15" d="M27.06,18c-.29.6-.55,1.21-.88,1.79-.48.84-1,1.67-1.52,2.49a9.34,9.34,0,0,1-.58.82c-.07-.28-.14-.55-.2-.82l.61-1.65a7.66,7.66,0,0,1,.06-1c.09-.5.24-1,.37-1.49l.32.1-.19,1.21.28.09c.34-.41.64-.85,1-1.23A2.23,2.23,0,0,1,27.06,18Z"/><path class="cls-16" d="M24.49,20.66l-.61,1.65-.89.45.08.36-1.26-.2h0l.41-1.25,1.65-2.05Z"/><path class="cls-19" d="M27,46.6c-.15,1.12-.27,2.23-.46,3.34a4.46,4.46,0,0,1-.45,1c-.9-.09-.78-.59-.56-1.23a8.41,8.41,0,0,0,.22-1.49c.16-.28.38-.73.65-1.12A3,3,0,0,1,27,46.6Z"/><path class="cls-20" d="M18.42,39.59l.32,2.8-.9,1a15.45,15.45,0,0,1-.59-1.72c-.06-.26,0-.72.16-.82C17.91,40.54,17.45,39.48,18.42,39.59Z"/><path class="cls-20" d="M19.32,34.25l-.06.61-.33.42-.32.16.32.25h.21l-.09.61c-.65-.08-.81.28-.74.83h0c-.09-.3-.31-.61-.26-.88.14-.74.12-1.32-.85-1.43l.2-1,1.13.22Z"/><path class="cls-19" d="M28.93,42.26c-.46,1-.93,1.94-1.39,2.9-.69-.43-.84-1-.27-1.61A16.33,16.33,0,0,1,28.93,42.26Z"/><path class="cls-19" d="M25.79,40.85l-.29-.29c.1-.67-.27-1.57,1.09-1.8Z"/><path class="cls-5" d="M21,57.74c.09-.56.17-1.12.26-1.69.24.3.49.59.73.88Z"/><path class="cls-5" d="M21.32,55.28c.09-.76.19-1.53.28-2.29A2.09,2.09,0,0,1,21.32,55.28Z"/><path class="cls-5" d="M21.09,60c0-.56,0-1.13,0-1.7C22,59.18,22,59.32,21.09,60Z"/><path class="cls-19" d="M29.91,39.85c-.28.63-.56,1.27-.83,1.9A1.56,1.56,0,0,1,29.91,39.85Z"/><path class="cls-3" d="M19.32,34.25l-.8-.21c0-.68.47-.58.91-.45C19.39,33.81,19.36,34,19.32,34.25Z"/><path class="cls-19" d="M26,51.14c-.16.48-.31,1-.47,1.44C25.66,52.1,25.81,51.62,26,51.14Z"/><path class="cls-5" d="M21.82,52.17l.18-.62.39.34Z"/><path class="cls-19" d="M27.42,45.81l-.42.65Z"/><path class="cls-20" d="M18.79,37.12l0,.41-.25.22-.21-.61h.49Z"/><path class="cls-3" d="M18.51,37.75l.25-.22c0,.14-.05.28-.07.42Z"/><path class="cls-8" d="M58.27,61.84l-1.39.92,0,.75-1.28.74c-.09-.33-.18-.64-.26-1l.43-.34.2-.08c1-.55.44-1.37.25-2a.8.8,0,0,0-1.3-.45l-.18-.22c.07-.33.3-.81.17-.94a2.84,2.84,0,0,0-1.06-.46c-.15-.18-.29-.37-.43-.55l-.38-.7c-.48-.33-.23-1.38-1.19-1.24-.39-.49-.79-1-1.16-1.47a7.12,7.12,0,0,1-.48-.78l.76-.14-1-2c-.33-.87-.66-1.74-1-2.61L49,48.49l-.24-6.88c.38-1.54.75-3.09,1.14-4.63a1.65,1.65,0,0,1,.28-.75,59.33,59.33,0,0,1,4.18-4.35,3.92,3.92,0,0,1,4-1.09,4.09,4.09,0,0,0,1.9-.2c1.36-.29,2.29.69,3.42,1.07.6.19,1.22.28,1.83.42a11,11,0,0,0,.93,2.06c.5.72,1.06,1.55,2.18,1.34l.2.2.45.37v.05l0-.05c0,1.22,1.07,1.38,1.77,1.91l3.34,4.71c.27.26.57.5.82.78.52.56,1,1.15,1.54,1.73a5.66,5.66,0,0,0,.44.89c.91,1.28,1.83,2.55,2.75,3.83l-.29.61.89,0,.28.33c0,.09,0,.18-.07.27-.69,0-.85.5-.41.82a6.37,6.37,0,0,0,1.86.63,1.34,1.34,0,0,1,0,.2,5.05,5.05,0,0,1-.74.79c-.42.29-.88.51-1.5.85V52.81l-1.12,1.85-1.63-1.4c.32-.82.64-1.71-.22-2.35s-.91-2.06-2.07-1.93a4.84,4.84,0,0,0-.64-1.31,20.42,20.42,0,0,0-1.84-1.52l-.59.89c-.79-1-1.61-2-2.38-3C68,42,66.57,39.91,65,38c-1.32-1.63-2.72-3.26-4.9-3.81a3.81,3.81,0,0,1-.53-.29c-.33-.27-.64-.8-.95-.79a3.5,3.5,0,0,0-1.34.64l.45.46c-1.6-.53-1.31,1.05-1.88,1.74l-.73-.61c-1.18,1-1.18,1-.21,1.83,0,0,0,.13,0,.19a43.2,43.2,0,0,0-2,4.73,7.21,7.21,0,0,0,.35,5l1.06,2.4.12.26,0,.42c-.88.7-.6,1.43,0,2.09l-.77.79c0,.17-.19.46-.14.49.58.41,1.19.78,1.79,1.16v.2c.13.58.48,1.23.34,1.74-.32,1.18.3,1.19,1.1,1.14l.4,0Z"/><path class="cls-21" d="M70.68,24.13l.8.59a2,2,0,0,0,1.23,2c1.24.71,1.48,1.46.76,2.26l1.7,2.37-.16.16-1.71-.77c-.2-1.09-.2-1.09-1.5-.67-.25-.72-.27-1.7-1.43-1.58-.55-1.4-1.92-2-2.93-2.91a12,12,0,0,0-1.14-.84L68,23.52c.6.16,1.2.34,1.8.48A8.86,8.86,0,0,0,70.68,24.13Z"/><path class="cls-2" d="M78.81,54.66l1.12-1.85v1.61c.62-.34,1.08-.56,1.5-.85a5.05,5.05,0,0,0,.74-.79l1.21.2c0,.07,0,.14,0,.22l-.62.61h-.42c-.73.69-1.84,1.08-1.89,2.33Z"/><path class="cls-2" d="M83.6,52.17l.53-2.55-.85-2,.3-.15L84,48l.33-.68.27,0c.06,1.75.13,3.49.19,5.24Z"/><path class="cls-8" d="M83.6,52.17l1.23.41.63,1.22c0,.14,0,.29,0,.43-.81.07-1.48,0-1.48-1.09,0-.12-.38-.24-.58-.36Z"/><path class="cls-2" d="M82.16,52.58A6.37,6.37,0,0,1,80.3,52c-.44-.32-.28-.81.41-.82l.87.8h0Z"/><path class="cls-15" d="M66.08,70.94a2.93,2.93,0,0,0,1,0c1.61-.66,3.21-1.38,4.81-2.08-.2.28-.34.65-.61.82A23.22,23.22,0,0,1,69,70.94c-.55.29-1.13.51-1.7.76h-1C66.24,71.46,66.16,71.2,66.08,70.94Z"/><path class="cls-14" d="M76.16,66l1.42-1.26c.07.42.14.85.19,1.18Z"/><path class="cls-14" d="M77.59,64.69l.87-.34Z"/><path class="cls-22" d="M65.27,6,61.36,4.36c0-1,.63-.42,1-.41a3.13,3.13,0,0,1,2.36.85A4.45,4.45,0,0,1,65.27,6Z"/><path class="cls-22" d="M57.24,3.55H54.76a9,9,0,0,1,.56-1.39c.1-.15.62-.27.7-.18C56.47,2.47,56.84,3,57.24,3.55Z"/><path class="cls-22" d="M60.75,4.32l-3.1-.78A2.08,2.08,0,0,1,60.75,4.32Z"/><path class="cls-14" d="M69.54,9.2,67.48,7.3C69.06,7.24,69.6,7.73,69.54,9.2Z"/><path class="cls-22" d="M54,3.61c-.79.53-1.57,1.07-2.35,1.61C52.26,3.87,52.69,3.56,54,3.61Z"/><path class="cls-22" d="M53.32,3.1c-.08.06-.16.16-.22.14s-.16-.15-.15-.18a1,1,0,0,1,.23-.23Z"/><path class="cls-12" d="M39.39,6.49A3.46,3.46,0,0,1,37,7.71a1.71,1.71,0,0,0-1,.56c-1.7,1.71-3.41,3.42-5,5.2-.91,1-1.67,2.15-2.51,3.22a9.2,9.2,0,0,1-.68.72l-1.3-1.33c1.62.23,3.75-2.17,3.34-3.26a12.5,12.5,0,0,0,1.85-1.2c.74-.66.62-1.2-.49-1.81l2.52-.48c.09-.78-.3-1.94,1.11-1.13a.6.6,0,0,0,.56-.14c.65-1.18,2.05-.84,3-1.48C38.56,6.4,39,6.51,39.39,6.49Z"/><path class="cls-8" d="M55.44,14.44,60,17.28c-.24.23-.48.67-.72.66a14.13,14.13,0,0,1-1.89-.33,1.52,1.52,0,0,0-.57.13l-1-.19c-.63-.89-1.55-.85-2.48-.79L49.77,16l-1-1.08v-.4l.5-.37-.7-.66,1.29-.11a9.24,9.24,0,0,1-.61-2.62,1.39,1.39,0,0,0-.77-1.46c-.3-.22-.73-.68-.66-.87a2.09,2.09,0,0,1,.9-.86,13.58,13.58,0,0,1,1.44-.68c-.41,1.32.62,2.31.81,3.49l-.54.67,1,.77c.06,1.13.18,1.31,1.39,1.39C53.06,14.34,54.07,14.83,55.44,14.44Z"/><path class="cls-8" d="M47,12.61l-1.05-.19V12a3.5,3.5,0,0,1,.63-2.49,8.39,8.39,0,0,1,.39,1.36A14.11,14.11,0,0,1,47,12.61Z"/><path class="cls-2" d="M48.59,13.45l.7.66-.5.37L48,14.27l0-.35-.58-.46V13l1-.21Z"/><path class="cls-8" d="M48.37,12.83l-1,.21-.2-.21.21-.2,1.29-.22.08.22Z"/><path class="cls-8" d="M83.38,57.78a3.82,3.82,0,0,1-2.91-1.64c0-1.25,1.16-1.64,1.89-2.33l-.18,1.57h1.24l-.64-1.57.62-.61c.09,1,.15,2,.28,3a2.62,2.62,0,0,0,.42.81Z"/><path class="cls-8" d="M85.42,54.85l.23.22-.29.09Z"/><path class="cls-4" d="M66.08,70.94c.08.26.16.52.23.77l-.67-.24L64,72.56a6.24,6.24,0,0,1-.71-.53c-.26-.26-.49-.55-.73-.84a3,3,0,0,1-.36-.56c-.1-.21-.06-.53-.21-.66-1.5-1.32-1.71-3.45-3.09-4.83A5.52,5.52,0,0,0,60,64.7c.24-.16.54-.49.52-.72a6.6,6.6,0,0,0-.42-1.4c-.25.1-.48.22-.73.31s-.45.13-.67.19c-.13-.41-.27-.83-.41-1.24l-1-4.1h.43c.61,1,1.21,1.93,1.82,2.9,1.4,2.26,2.79,4.53,4.21,6.77C64.46,68.6,65.29,69.76,66.08,70.94Z"/><path class="cls-23" d="M45.9,12v.4L46,13.48c-1.7-.07-1.36,1.58-2,2.49-.31.46-.56,1-.87,1.4a14.39,14.39,0,0,0-1,1.26c-.38.7-.5,1.48-1.24,2-.9.67-1.62,1.58-2.47,2.34a3.08,3.08,0,0,1-1,.34,25.42,25.42,0,0,1,2.07-2.73,21.43,21.43,0,0,0,5.14-9.51c.09-.33.21-.65.32-1Z"/><path class="cls-23" d="M45,9.76c0-.36,0-.71,0-1.07l.72.73Z"/><path class="cls-23" d="M44.86,7.27l-.43-.59.8,0Z"/><path class="cls-8" d="M58.68,63.08c.22-.06.45-.11.67-.19s.48-.21.73-.31A6.6,6.6,0,0,1,60.5,64c0,.23-.28.56-.52.72a5.52,5.52,0,0,1-1.09.44h-.42l-.61-.4Z"/><path class="cls-4" d="M57.86,64.73l.61.4-1,0Z"/><path class="cls-2" d="M22.22,21.67l-.41,1.25C21.33,22.39,21.47,21.94,22.22,21.67Z"/><path class="cls-23" d="M56.8,17.74a1.52,1.52,0,0,1,.57-.13,14.13,14.13,0,0,0,1.89.33c.24,0,.48-.43.72-.66,2.33,1.34,4.7,2.62,7,4,1.31.81,2.48,1.86,3.72,2.81a8.86,8.86,0,0,1-.9-.13c-.6-.14-1.2-.32-1.8-.48-.13-.14-.24-.35-.4-.4a18.18,18.18,0,0,1-2.11-.57c-2-.88-3.32-.09-3.28,2.1a5.42,5.42,0,0,1-3.9.66c.05-.28.19-.56.12-.78-.34-1,.37-1.31,1.08-1.59s1.24-.46,2-.73l-3.12-2.29a1.07,1.07,0,0,0-1.15-1.4Z"/><path class="cls-20" d="M40.75,24.93c.17-.25.29-.63.53-.74a1.59,1.59,0,0,0,.77-2.51A1,1,0,0,1,42,21c1.24-.28,1.84-1.48,2.9-2-.48,1-1,1.93-1.37,2.77A11.41,11.41,0,0,1,45.86,23a5.88,5.88,0,0,1,1.56,2.13c.12.29-.43,1-.83,1.34a1.23,1.23,0,0,1-1.14.06c-.4-.21-.65-.68-1-1a2.08,2.08,0,0,0-2.43-.78A6.18,6.18,0,0,1,40.75,24.93Z"/><path class="cls-19" d="M50.25,54.05a7.12,7.12,0,0,0,.48.78c.37.5.77,1,1.16,1.47-.34.18-.68.54-1,.52-2.22-.16-3.91-1.5-5.57-2.8-.21-.16-.09-1,.1-1.37.09-.21.73-.37,1-.27C47.72,52.88,49,53.49,50.25,54.05Z"/><path class="cls-8" d="M62.19,24.65c0-2.19,1.23-3,3.28-2.1a18.18,18.18,0,0,0,2.11.57c.16.05.27.26.4.4L66.3,24.76C64.9,25.83,63.57,24.56,62.19,24.65Z"/><path class="cls-24" d="M38.35,33.21c.29.21.6.41.88.65a3.22,3.22,0,0,0,3.18.38l.43,1.6-2.26.71c-.22-.36-.35-.87-.67-1s-.71.15-1.08.25L37.71,35c.85-.63-.41-1-.13-1.68Z"/><path class="cls-16" d="M42.84,35.84l-.43-1.6,1.16-.87,1.88.89A4.29,4.29,0,0,1,46,35.73a1.59,1.59,0,0,1-.72,1.15,1.3,1.3,0,0,1-1.83-.42A6.28,6.28,0,0,0,42.84,35.84Z"/><path class="cls-17" d="M68.58,35.48c-1.12.21-1.68-.62-2.18-1.34a11,11,0,0,1-.93-2.06A24.79,24.79,0,0,1,67.72,31a5.52,5.52,0,0,1,1.48-.14c-.23.3-.44.63-.7.91-.8.85-.73,1.49.27,2.08l-1.58.36Z"/><path class="cls-17" d="M45.45,34.26l-1.88-.89c.48-.72.93-1.45,1.47-2.13a.83.83,0,0,1,.78-.18c.35.21.8.54.85.88A2.09,2.09,0,0,1,45.45,34.26Z"/><path class="cls-2" d="M38.35,33.21l-.77.1c-.28.68,1,1,.13,1.68-.31.16-.6.35-.92.49s-.94.52-1.22.39c-.65-.32-.41-1-.2-1.52s.32-1,.48-1.53l2-.41Z"/><path class="cls-6" d="M38.83,35.76c.37-.1.84-.39,1.08-.25s.45.68.67,1v2.21c-.6.48-1.17.36-1.39-.52A22.79,22.79,0,0,1,38.83,35.76Z"/><path class="cls-10" d="M56.8,17.74l.39.78a1.07,1.07,0,0,1,1.15,1.4l-.24,0h-.28l-3.67-1.67c0-.27.07-.53.12-.92,1.11,1.13,1.24,1.14,1.53.25Z"/><path class="cls-17" d="M69.58,31c.64,1.16,1.3,2.3,1.89,3.48.12.25,0,.64-.07,1.24l-2-1.46a3.43,3.43,0,0,0,.21-2.95A1.08,1.08,0,0,1,69.58,31Z"/><path class="cls-25" d="M69.58,31a1.08,1.08,0,0,0,0,.31,3.43,3.43,0,0,1-.21,2.95l-.62-.45c-1-.59-1.07-1.23-.27-2.08.26-.28.47-.61.7-.91Z"/><path class="cls-11" d="M48.73,41.61,49,48.49c-1-.76-.83-2-1-3a11.43,11.43,0,0,1,.09-2.92C48.13,42.24,48.51,41.93,48.73,41.61Z"/><path class="cls-23" d="M37.83,32.41l-2,.41a6,6,0,0,1-.38-1.25c0-.26.2-.72.39-.77a1.22,1.22,0,0,1,1,.24A9,9,0,0,1,37.83,32.41Z"/><path class="cls-14" d="M48,14.27l.83.21v.4c.25,1,.49,2.08.74,3.13A4,4,0,0,1,48,14.27Z"/><path class="cls-23" d="M55.8,17.55c-.29.89-.42.88-1.53-.25-.05.39-.08.65-.12.92l-1.28-.38.45-1.08C54.25,16.7,55.17,16.66,55.8,17.55Z"/><path class="cls-10" d="M53.32,16.76l-.45,1.08A5.35,5.35,0,0,1,49.77,16Z"/><path class="cls-20" d="M55,60.41a.8.8,0,0,1,1.3.45c.19.65.74,1.47-.25,2l-.69-1.65Z"/><path class="cls-11" d="M49.06,49.25c.32.87.65,1.74,1,2.61A1.94,1.94,0,0,1,49.06,49.25Z"/><path class="cls-23" d="M46.12,17a.66.66,0,0,1,0-.2c-.07-.14-.14-.28-.2-.42-.08-.79,0-1.46,1.07-1.21Z"/><path class="cls-17" d="M71,38c-.7-.53-1.81-.69-1.77-1.91Z"/><path class="cls-20" d="M53.89,58.79a2.84,2.84,0,0,1,1.06.46c.13.13-.1.61-.17.94C54.48,59.72,54.18,59.26,53.89,58.79Z"/><path class="cls-20" d="M53.08,57.54l.38.7Z"/><path class="cls-14" d="M47.35,13.46l.58.46-.59-.06h0Z"/><path class="cls-17" d="M69.23,36.05l-.45-.37Z"/><path class="cls-23" d="M47.16,14.69c.05-.15.09-.29.14-.43C47.25,14.4,47.21,14.54,47.16,14.69Z"/><path class="cls-20" d="M55.81,63l-.43.34a.54.54,0,0,1,0-.18Z"/><path class="cls-23" d="M57.82,19.89h0Z"/><path class="cls-3" d="M18.79,37.12h-.48c-.07-.55.09-.91.74-.83C19,36.57,18.88,36.84,18.79,37.12Z"/><path class="cls-3" d="M18.93,35.28l.33-.42-.12.83h-.21Z"/><path class="cls-3" d="M35.42,68.23c-.39,0-.89-.24-1.15-.08s-.44.7-.62,1.09a4,4,0,0,0-.17.68,9.88,9.88,0,0,1-.69-1.61,26.35,26.35,0,0,1-1-4.84,21.94,21.94,0,0,1,.6-4.29A2.75,2.75,0,0,0,34,56.29l.81-.21c-.09,1.16-.17,2.33-.25,3.49l-1.53.2c.09.34.3.57.52.59a3.84,3.84,0,0,0,1-.15c0,.13,0,.26,0,.39-.47.37-.5.72,0,1-.55,2,.41,3.8.73,5.69C35.31,67.64,35.36,67.93,35.42,68.23Z"/><path class="cls-11" d="M34,56.29a2.75,2.75,0,0,1-1.57,2.89c.11-1.1.21-2.21.31-3.31Z"/><path class="cls-23" d="M47.35,13.46l0,.4c-.74-.22-.82-.56-.19-1l.2.21C47.35,13.18,47.35,13.32,47.35,13.46Z"/><path class="cls-20" d="M45.91,16.33c.06.14.13.28.2.42C46,16.61,46,16.47,45.91,16.33Z"/><path class="cls-11" d="M34.5,60.21a3.84,3.84,0,0,1-1,.15c-.22,0-.43-.25-.52-.59l1.53-.2C34.51,59.79,34.51,60,34.5,60.21Z"/><path class="cls-11" d="M34.52,61.65c-.53-.33-.5-.68,0-1Z"/><path class="cls-17" d="M18.93,35.28v.41l-.32-.25Z"/><path class="cls-17" d="M55.44,14.44c-1.37.39-2.38-.1-2.63-1.27-1.21-.08-1.33-.26-1.39-1.39l-1-.77.54-.67a10.33,10.33,0,0,0,3.5,3.33A6.28,6.28,0,0,1,55.44,14.44Z"/><path class="cls-21" d="M77.18,53.26c-1.23,0-1.58-1.18-2.19-1.9C73.84,50,72.87,48.49,71.82,47l.59-.89a20.42,20.42,0,0,1,1.84,1.52A4.84,4.84,0,0,1,74.89,49c1.16-.13,1.25,1.33,2.07,1.93S77.5,52.44,77.18,53.26Z"/><path class="cls-17" d="M60.11,34.17a6.73,6.73,0,0,1-.87.27,3.46,3.46,0,0,0-2.45,1.48A8.07,8.07,0,0,1,55,37.34c0-.06,0-.15,0-.19-1-.86-1-.85.21-1.83l.73.61c.57-.69.28-2.27,1.88-1.74l-.45-.46a3.5,3.5,0,0,1,1.34-.64c.31,0,.62.52.95.79A3.81,3.81,0,0,0,60.11,34.17Z"/><path class="cls-17" d="M54.53,50.11c.42,1.1.85,2.19,1.27,3.29L53.73,53l.77-.79C53.93,51.54,53.65,50.81,54.53,50.11Z"/><path class="cls-4" d="M56.3,54.86c.1.34.19.68.29,1-.46,0-.65.11-.4.59s.43.83.64,1.25c-.8.05-1.42,0-1.1-1.14.14-.51-.21-1.16-.34-1.74Z"/><path class="cls-4" d="M53.73,53l2.07.41a.17.17,0,0,1,0,.14l-.45,1.1c-.6-.38-1.21-.75-1.79-1.16C53.54,53.45,53.68,53.16,53.73,53Z"/><path class="cls-20" d="M56.83,57.72c-.21-.42-.41-.84-.64-1.25s-.06-.62.4-.59c.36.61.71,1.23,1.07,1.85h-.43Z"/><path class="cls-17" d="M55.38,54.64l.45-1.1.47,1.32-.91,0Z"/><path class="cls-2" d="M79.9,49.9l.6.63-.89,0Z"/><path class="cls-3" d="M81.58,51.93l-.87-.8c0-.09.05-.18.07-.27C81.05,51.22,81.32,51.57,81.58,51.93Z"/><path class="cls-17" d="M54.38,49.43l.12.26Z"/><path class="cls-9" d="M82.78,53.81l.64,1.57H82.18l.18-1.57Z"/></g></svg>