<svg xmlns="http://www.w3.org/2000/svg" viewBox="0 0 100 100"><defs><style>.cls-1{fill:#9cc9ca;}.cls-2{fill:#74b2b4;}.cls-3{fill:#91c2c4;}.cls-4{fill:#96c5c7;}.cls-5{fill:#89bebf;}.cls-6{fill:#8ec1c2;}.cls-7{fill:#6aadaf;}.cls-8{fill:#67abad;}.cls-9{fill:#93c4c5;}.cls-10{fill:#52a1a3;}.cls-11{fill:#83bbbc;}.cls-12{fill:#99c7c8;}.cls-13{fill:#62a9ab;}.cls-14{fill:#78b5b7;}.cls-15{fill:#a2cbcd;}.cls-16{fill:#a9cfd1;}.cls-17{fill:#7db7b9;}.cls-18{fill:#a5cdcf;}.cls-19{fill:#e1eeef;}.cls-20{fill:#e9f3f3;}.cls-21{fill:#eef6f6;}.cls-22{fill:#f1f8f8;}.cls-23{fill:#70b0b2;}.cls-24{fill:#6dafb1;}</style></defs><g id="Ebene_3" data-name="Ebene 3"><path class="cls-1" d="M43.55,10.6a1.62,1.62,0,0,0,2.28.47c1.62-.81,3.3-1.63,5.23-1.38a.6.6,0,0,0,.37-.09,18.35,18.35,0,0,1,5.74-2.26c.75-.22,1.28-1,2.22-.77.72.17,1.47.25,2.21.38l.6.13L66,8.35a1.91,1.91,0,0,0-.17.22c.71.66.44,1.31,0,2,0,0,.07.09.16.19l.69-.31-.11.91-1.4-.79-.38-.43-1.21-.57L63,9.28l-.58.26-.4.18c-.3,0-.66.1-.89,0-.76-.44-1.48-1-2.34-.19,0,.05-.28,0-.36-.1-1.13-1.26-2.4-.56-3.55-.15A7,7,0,0,0,52,10.84c-1.36,1.61-3.47,1.7-5,2.9-1.05.83-3.31.2-4.2-1a2.75,2.75,0,0,0-2.5-1.44.63.63,0,0,1-.53-.2c-.57-1-1.42-.52-2.1-.3a5.21,5.21,0,0,1-3.74-.58c-.52-.22-1-.49-1.52-.74l-.42,0-2.2.6-.39.22a4,4,0,0,0-1,.41c-1.91,1.44-3.79,2.9-5.69,4.36-.91.7-1.8,1.43-2.77,2-.64.42-1.43.59-2.1,1-.92.54-1.78,1.18-2.67,1.77l-.63.56-4.18,3-1.64,1L5.52,25.9c.17-.6.31-1.06.44-1.53.57-.35,1.3-.57,1.21-1.47l7.77-6,.41-.4q2.51-1.47,5-2.95a2.35,2.35,0,0,0,.4-.43l.83-.79c2-1.46,3.84-3,5.91-4.33a22.28,22.28,0,0,1,4-1.44,3,3,0,0,1,3,.52A9.8,9.8,0,0,0,36.56,8h1.2l.61.15,1.2.23.39.23,2.4,1.18Z"/><path class="cls-2" d="M39.57,27.34l-.61.11a12.38,12.38,0,0,1-1.49,0c-.47,0-1.18,0-1.35-.34-.37-.61-.74-.32-1.15-.25l-.81-1.37a3.1,3.1,0,0,1,.93-.17,9.58,9.58,0,0,0,5.21-.7c1.18.76,2.32.13,3.46-.11l1.66.18,1.36.17a5.41,5.41,0,0,1,.89-.11c2,0,4.08.07,6.12.11a35.86,35.86,0,0,1,4.15.06c2.84.38,5.67.88,8.5,1.41,1.59.3,1.79.28,2.43-1.05l.56,0,.09.4-.71.57.12.17.61-.11.11.31a.77.77,0,0,0,.7,1.07A3.3,3.3,0,0,1,71,28c.44.19.89.36,1.33.54s1,.78,1.4.67c1.38-.44,2.37.68,3.66.72a30.41,30.41,0,0,0,3.86.36,1.79,1.79,0,0,1,1,.21,2.89,2.89,0,0,0,3.29-.39l1,0,.41.08.59.14c.11.24.21.49.45,1l.38-1,5.59.32h.4a6.7,6.7,0,0,0,1.49-.05c1.26-.32,1.92.48,2.55,1.29s0,1.64-1,1.71c-.8,0-1.6,0-2.4,0,0-.69-.41-.88-1-.87a12.81,12.81,0,0,0-3.84.24,7.78,7.78,0,0,1-2.74-.13H85.62a6.79,6.79,0,0,0-1.84-.14c-1,.16-1.83-.9-2.77-.08-.4-.1-.81-.19-1.2-.3-1.14-.32-2.27-.66-3.42-1-.74-.2-1.52-.29-2.26-.51-.95-.29-1.86-.76-2.84-1a22,22,0,0,0-3.78-.57c-.83-.05-1.19-.37-1.19-1l-1.81.81c-2.42-.4-4.82-.93-7.26-1.17-2.59-.26-5.21-.27-7.82-.36s-5.37-.17-8.06-.25Z"/><path class="cls-3" d="M22.34,58.72a3.13,3.13,0,0,1-3.46-1.52c-.93-1.43-2.09-2.75-2.38-4.47a16.49,16.49,0,0,1,0-3.37c0-1,.41-1.86-.88-2.49a38.13,38.13,0,0,1-4.06-2.7l.77-1c.19.72,2,2.1,2.73,2a2.52,2.52,0,0,0,.74-.39c1.43.79,1.36.74,2.35-.64a10.55,10.55,0,0,1,2-1.72l.43,0c.09.2.31.44.26.59-.36,1.17,1,.62,1.22,1.2a4.38,4.38,0,0,0,.69-.16c.95,1.46,2.64,1.7,4,2.42a3.93,3.93,0,0,0,1.06.16,5.72,5.72,0,0,0,3.23.09c.06,0,.17.08.26.13s0,.25,0,.37h-.22l-.09,0,.08.05c.25.26.49.53.73.8s.45.49.67.74l-1.39,0-.73-1.4-1.06.85-.48-.32.16-.29-.78-.11L26.76,47A6.67,6.67,0,0,0,25,46.59c-.9,0-1.56-.12-1.92-1a1.83,1.83,0,0,0-.62-.76c-.17-.12-.62-.15-.68-.06-.71,1.11-2.07,1.66-2.34,3.2a8.4,8.4,0,0,0,1.24,6.59,1.13,1.13,0,0,0,.53.41c1.85.62,3.71,1.17,5.54,1.83a2,2,0,0,0,2.1-.34,34,34,0,0,1,3.77-2.12,1,1,0,0,1,.9.24c.23.63.5,1.35-.35,1.82-.16.09-.38.36-.34.43.36.7-.17,1.1-.51,1.54a4.88,4.88,0,0,0-1,3.38.79.79,0,0,1,0,.2,2.08,2.08,0,0,1-.53.32,3.35,3.35,0,0,1-1.16.21c-.14,0-.38-.37-.38-.57,0-.75-.11-1.33-1-1.47a17.61,17.61,0,0,1-2-.54L25,59.53l-.43-.34L24,58.94C23.49,58.31,22.92,58.5,22.34,58.72Zm8.2,2.14-.36,0L30,62.18l.45,0Z"/><path class="cls-3" d="M28.23,17l2.92-1.1.4-.17,1.6-.24,2,0h1.41l1.18.08.42.15,5.19,1.05,1.42.11,1,.29-.13,1.72h-.26l-.72-1-1.28,1.53A21.56,21.56,0,0,1,39,18.7,11.58,11.58,0,0,0,34.25,18c-1.63.09-3.22.54-3.88,2.37a1.92,1.92,0,0,1-.72,1c-.94.43-1,1.25-1.08,2s-.11,1.31-.17,2c0,.3-.08.61-.12.91l.9-.09.39-.06-.82,1.33c-.13,0-.35,0-.38,0-.45-1-1-.66-1.58-.12a5.46,5.46,0,0,0,.08-.68c0-1.81,0-3.62-.09-5.43,0-.68-.42-.85-1-.6-1.19.51-2.41.95-3.55,1.54-1.71.89-3.36,1.87-5,2.81,0-.52-.06-1-.09-1.75-.36.19-.73.37-1.09.58-.7.43-.83,1.65-2,1.44-.06,0-.18.31-.27.48l-.93.3.05.2.7-.11v.77l-1.18.5-.52-2.1.31-.33v0l.87.24.51-1.25.6-.4.19-.15.21-.05.19-.15,1-.48c.84.59.82,0,.8-.59h0l.42-.39a19.07,19.07,0,0,1,6.6-3.42l.4-.17.4,0,.8-.16.4,0,1-.33.39,0,.4-.19.4-.06Z"/><path class="cls-4" d="M50.64,68.31c.37,2.08-1.32,3-2.43,4.19l-.47-.09.31-.9c-.24-.05-.64-.22-.69-.15a1.56,1.56,0,0,0-.35.93c0,.27.35.51.54.76l-.51.28c-.42-.38-.83-.77-1.39-1.3-.24.46-.36,1-.71,1.28a3.87,3.87,0,0,1-1.43.37c0-1.14.37-1.67,1.3-1.8-.1-.35-.19-.68-.28-1h0l.41-.4c.34-.36.66-.75,1-1.08a6.27,6.27,0,0,0,2.06-7.15,2.59,2.59,0,0,1,.13-2.63c1.64.43,1.81,1.75,2,3.08.13,1,.08,2.3,1.09,2.67a20.57,20.57,0,0,0,5.11,1.07,15.64,15.64,0,0,0,4-.33c2.36-.39,4.37-1.37,5.4-3.72a2.12,2.12,0,0,1,.46-.49,2.92,2.92,0,0,0,.37.48c.27.21.57.38.85.56v.4a1.68,1.68,0,0,0-1.3,2c1-.25,1.74-.63,1.5-1.79.83,0,.84.36.37,1l1,.16-2.86,2.91C64.84,68.89,63.2,69,61.6,69.16l-.61.13-3,.31-.61.09-1.6-.2-.41-.18-.59-.23-1.41-.54L52,68.29C51.54,68.18,51.07,67.49,50.64,68.31Z"/><path class="cls-5" d="M74.22,45.52c.64.38,1.68.15,1.83,1.23l-.84,0-1,1.2c-.41-.32-.69-.67-1-.77s-.86-.81-1.18.08l-.4-.39.63-.47c.53-.37.77-.87.41-1.43-.19-.3-.79-.7-.86-.63A21.83,21.83,0,0,0,70,46a2,2,0,0,1-.21-.66A2.2,2.2,0,0,0,68.57,43c1.3-1,2.53-2.2,3.92-3.12a30.53,30.53,0,0,1,9.33-3.69,5.88,5.88,0,0,1,1.57-.1c2.59.06,5.18.14,7.77.22.31.44.56,1,1.27.53h1.81c.25.12.68.21.72.38.26,1,.79.53,1.28.27l1.43.34.36.62c-1-.07-2-.11-2.93-.22a14.17,14.17,0,0,0-2-.34c-1.09.06-2.17.31-3.26.44-.5,0-1,0-1.54,0-1.5.06-3,.3-4.3-.84-.63.82-1.09,1.63-2.29,1.77a8.75,8.75,0,0,0-2.66,1.11c-.19.09-.25.46-.37.71l.54,0,0,.85c0,.11,0,.21-.08.32l-.8.4-.35.06c.1-.39.2-.77.33-1.29-1.09.19-1.84,1.75-3.1.34L75.63,44,74,45.21l-.79.23.28.9Z"/><path class="cls-6" d="M83.82,22.31l1.54,1.29,1.27.84c.61.59,1.6.84,1.42,2.06-.12.8-.37,1.2-1.2,1.17-.52,0-1,0-1.57,0l-.47-.41c.58-.79,0-1.46-.14-2.22s-.48-1-1.16-.61c-.9-1.22-1.39-1.19-2.23.11A3.54,3.54,0,0,0,81,25,2.92,2.92,0,0,1,78.59,24a2.15,2.15,0,0,0-1.29-.86,10.21,10.21,0,0,1-3.53-1.21c-.59-.31-1.18-.59-1.78-.88,0-1.46-.65-2.05-2-2.07-.41,0-.84-.48-1.19-.81a4.61,4.61,0,0,1-.62-1l-.81,1.16-1-.11-4-.34-.2-2.69c.53.05,1,.06,1.57.15a30.63,30.63,0,0,1,4.61,1c1.82.63,3.5,1.62,5.27,2.39a24,24,0,0,0,2.53.81c.46.15.94.26,1.4.42,1.73.6,3.46,1.22,5.19,1.83ZM63.51,16.6c.18-.19.38-.31.39-.45s-.21-.24-.33-.36c-.11.14-.27.25-.32.41S63.39,16.42,63.51,16.6Z"/><path class="cls-7" d="M39,44l.6.08.8.13.4.11,1,.1.61,0c0,.21.07.42.11.62l1-.36,1.28.14c.68.48,1.35,1,2,1.44a1.25,1.25,0,0,0,.52.13,11.43,11.43,0,0,1,1.44.27c.78.25,1.53.65,2.33.85,1,.25,2.1.13,2.94.58a3.66,3.66,0,0,0,2.37.37,20.08,20.08,0,0,1,2.79.07c0,.6,0,1.2,0,1.79h0l-.82-.19c-1.67.12-3.27-.77-5-.25-.45.13-1.06-.27-1.61-.41a2.09,2.09,0,0,0-.56-.05A21.7,21.7,0,0,1,44.73,49a5,5,0,0,0-2-.33,3.88,3.88,0,0,1-2.56-.48l-.37-1.16.6-1.6-1.83-.65Z"/><path class="cls-1" d="M72,47.22c.32-.89.82-.19,1.18-.08s.63.45,1,.77l1-1.2.84,0,0,0,.06.28.12-.23c1.32,1.12,1.29,2.64,1.26,4.16.06.2.11.39.16.59A20.64,20.64,0,0,1,78,55a3.29,3.29,0,0,1-.81,2,20.05,20.05,0,0,1-2.48,2l-1.25-.34-.12.39,1.19.36-2.15,1.81c-.31-.09-.81-.11-.89-.3a3,3,0,0,1-.18-1.45c0-.19.5-.33.79-.47,1.13-.56,1.26-.87.63-1.71a5.59,5.59,0,0,0-.75.7,1.11,1.11,0,0,1-1.62.4c.85-.79,1.74-1.53,2.53-2.36,1.35-1.42,2.58-3.38,1-5.77C73.27,49.2,72.64,48.2,72,47.22Z"/><path class="cls-8" d="M79.22,41l-.54,0c.12-.25.18-.62.37-.71a8.75,8.75,0,0,1,2.66-1.11c1.2-.14,1.66-1,2.29-1.77,1.26,1.14,2.8.9,4.3.84.51,0,1,.06,1.54,0,1.09-.13,2.17-.38,3.26-.44a14.17,14.17,0,0,1,2,.34c1,.11,2,.15,2.93.22h.21a3.94,3.94,0,0,1,1.1.27c.27.14.44.47.66.71l-.16.16-1,.31-.43,0-.59.16a11.56,11.56,0,0,1-1.73.62,11.68,11.68,0,0,1-2.21.24c-1,0-1.92,0-2.88,0l-1.8-.16a3.44,3.44,0,0,0-2.56.37,1.67,1.67,0,0,1-2.29-.42c-.17-.24-.84-.19-1.28-.18a5,5,0,0,0-1.06.22l-.39,0c-.59-.42-1.14-.5-1.61.17Z"/><path class="cls-9" d="M57.44,79.08l-.45.77a2.59,2.59,0,0,1-1-.36c-.23-.21-.27-.61-.48-1.17-.05,1.09-.31,2,.8,2.35.06,0,0,.24.05.37h0l-.59.4a6.62,6.62,0,0,1-4.9.59A4.42,4.42,0,0,1,47.67,79a6.3,6.3,0,0,1,1.23-3.4A13.89,13.89,0,0,0,50,74.27l1.55-.38.22,2.71a1.38,1.38,0,0,0-.55.3,8.72,8.72,0,0,0-.67,1.1,4.63,4.63,0,0,0,1,.43,1.67,1.67,0,0,0,1.78-.6l1.09.43,0-.2-.75-.66.21-.55a16.65,16.65,0,0,1,1.57.82C56.18,78.11,56.8,78.61,57.44,79.08Z"/><path class="cls-3" d="M66.6,11.33l.11-.91-.69.31c-.09-.1-.17-.18-.16-.19.42-.66.69-1.31,0-2A1.91,1.91,0,0,1,66,8.35L69.67,9c.5.36,1.08.84,1.72,1.23a17,17,0,0,0,3.8,2A49.82,49.82,0,0,0,80,13.78a5.2,5.2,0,0,1,1.42.89l-.81.44-.5-1-.71,1,.66.63-1,.87a6.57,6.57,0,0,0-1-1c-.44-.27-1-.4-1,.43h0l-1.49-.67-.92.28-.78-.23c-.12-1,.7-.56,1.19-.68-.06-.24,0-.53-.14-.58a17.81,17.81,0,0,0-1.78-.82c-.09,0-.35.11-.38.21a.83.83,0,0,0,.08.53,9,9,0,0,0,.4.83l-.59,0-.85-1-.14-.14c-.48-.32-.94-.65-1.42-.95s-1-.63-1.58-.94l-1-1.6L67,11.38Z"/><path class="cls-10" d="M31.34,46.81c-.09-.05-.2-.15-.26-.13a5.72,5.72,0,0,1-3.23-.09,3.93,3.93,0,0,1-1.06-.16c-1.4-.72-3.09-1-4-2.42l-1.47-.95.46-1.12a8.66,8.66,0,0,1,1,.48,1.2,1.2,0,0,0,1.59-.21l.59,0,.82.58H26l.25.3.15-.3,1,.19.26.36L28,43l1.65.14,1.09,1V43.05l.7-.06,1.14.2a2.39,2.39,0,0,0,.23.22A8.88,8.88,0,0,1,33.17,45C33.33,46.77,33.31,46.77,31.34,46.81Z"/><path class="cls-6" d="M59.19,48.59a20.08,20.08,0,0,0-2.79-.07A3.66,3.66,0,0,1,54,48.15c-.84-.45-2-.33-2.94-.58-.8-.2-1.55-.6-2.33-.85a11.43,11.43,0,0,0-1.44-.27,1.25,1.25,0,0,1-.52-.13c-.69-.46-1.36-1-2-1.44,1.67.2,3.34.43,5,.61,2.39.27,4.79.54,7.2.74,1.87.15,3.75.18,5.63.26.06.63.13,1.27.19,1.9H60Z"/><path class="cls-11" d="M70.4,58.31a1.11,1.11,0,0,0,1.62-.4,5.59,5.59,0,0,1,.75-.7c.63.84.5,1.15-.63,1.71-.29.14-.76.28-.79.47a3,3,0,0,0,.18,1.45c.08.19.58.21.89.3l-2,1.17-1,1.23,0,0-2-.59c-.28-.18-.58-.35-.85-.56a2.92,2.92,0,0,1-.37-.48c-.26-1.56-.26-3.17-1.17-4.59a6.23,6.23,0,0,1-.5-1.66c1.66.06,1.79.15,2.84,1.62A3.15,3.15,0,0,0,70.4,58.31Z"/><path class="cls-2" d="M43.38,19.42l1.28-1.53.72,1h.26l.13-1.72,1.65,0,.06.14.07-.14L50,16.39c.46.17.91.36,1.38.52.31.11.64.17,1,.25-1.28.54-1.6,1.12-1,2-.13.13-.23.35-.39.39-1.44.42-2.2,1.67-3.16,2.63a7,7,0,0,0-1,2.1l-.58-.5-.71.3-.11-1.75c.7-.63.89-1.66.33-1.91a14.29,14.29,0,0,0-1.48-.5Zm3.6-1.9-.49.51a3.49,3.49,0,0,0,.7.2c.1,0,.21-.19.31-.29Z"/><path class="cls-12" d="M34,72.9l-2.48-3c.68-.45,1.29-.91.9-1.88-.07-.16,0-.38,0-.58a10.44,10.44,0,0,1,.88.88,4.27,4.27,0,0,0,2.7,2,26.32,26.32,0,0,1,2.57.68l.41.1.39.07.2.26.22-.25,1,.09.4,1-.6.4-.25-.3-.15.5L40,74.47l-.8-.06-.57-.21c-1.09-.07-2.25.22-3.2-.65-.15-.14-.5-.08-.76-.11Zm5.18-.6L39,71.81l-1.39.52.15.42Z"/><path class="cls-10" d="M26.79,27.3c.58-.54,1.13-.92,1.58.12,0,.06.25,0,.38,0s.56.18.75.08c1.11-.54,2.19-1.15,3.27-1.73l1.39-.31L35,26.88c0,.2,0,.39,0,.59l-.6.4-.62.42-.6.12c-1.41-.2-2.72.86-4.17.32-.07,0-.29.23-.38.38-.28.46-.53.93-.8,1.43L27,30c-.43.54-.77,1-1.17,1.44-1.18,1.26-2,1.21-2.87-.16l.21-.39.6-1,.38-.2c1.13.94.74-.33,1-.67l.53-.41c.8.09,1.17-.24,1-1.06Z"/><path class="cls-6" d="M51.3,19.15c-.56-.87-.24-1.45,1-2-.32-.08-.65-.14-1-.25-.47-.16-.92-.35-1.38-.52,1.36-.35,2.72-.73,4.1-1,1.22-.26,2.45-.42,3.68-.62h.42l1-.08.4.08a13.18,13.18,0,0,1-.56,1.4c-.38.73-.83,1.42-1.24,2.13-.64.19-1.43.7-1.9.5C54.24,18.06,52.82,18.94,51.3,19.15Z"/><path class="cls-3" d="M85.61,30.11a2.89,2.89,0,0,1-3.29.39,1.79,1.79,0,0,0-1-.21,30.41,30.41,0,0,1-3.86-.36c-1.29,0-2.28-1.16-3.66-.72-.35.11-.92-.46-1.4-.67S71.48,28.19,71,28a3.3,3.3,0,0,0-.69-.32.77.77,0,0,1-.7-1.07c2,.3,4,.57,6.07.9a14.34,14.34,0,0,1,3.4.76,5.73,5.73,0,0,0,2.69.4l.83.2.34.43h0l1.44.47.6.07.62.15A.36.36,0,0,1,85.61,30.11Z"/><path class="cls-13" d="M31.34,46.81c2,0,2,0,1.83-1.85a8.88,8.88,0,0,0-.41-1.55l.39-.16.79.09,1,.11,1,.2.2,0,.38.06,0,.25-.15,1,1.75-.22h.4l1.83.65-.6,1.6.37,1.16c-.72,0-1.43-.06-2.14-.11s-1.39-.14-2.09-.19c-.23,0-.53.1-.67,0-1.18-.91-2.62-.36-3.89-.72Z"/><path class="cls-13" d="M24.35,42.21a1.2,1.2,0,0,1-1.59.21,8.66,8.66,0,0,0-1-.48l-.46,1.12,1.47.95a4.38,4.38,0,0,1-.69.16c-.23-.58-1.58,0-1.22-1.2.05-.15-.17-.39-.26-.59,0,0,0-.08,0-.13l.07-.62.43-.19L21,41.28l-.5.18L20.16,41a11.47,11.47,0,0,0,.36-1.8A4.2,4.2,0,0,0,20.18,38c0-.27,0-.54.05-.81,0-.65.09-1.29.13-1.93l.95-1.06.24-.58.16-.41c1.19.19,2,.95,1.67,1.6s-.07.95.43,1.22a.22.22,0,0,1-.08.18v.2l0,.58c-.25.22-.6.39-.75.66a2.73,2.73,0,0,0,.21,2.54Z"/><path class="cls-14" d="M62.8,48.39c-.06-.63-.13-1.27-.19-1.9a4.69,4.69,0,0,0,3-1.5,4.4,4.4,0,0,1,1.11-.61l.44-.41.59-.19a2.67,2.67,0,0,0,.44,2.07,2.4,2.4,0,0,0,.49.46c.1-.23.34-.53.26-.66-.35-.65-.79-1.25-1.2-1.87.27-.26.54-.52.8-.79a2.2,2.2,0,0,1,1.23,2.35A2,2,0,0,0,70,46h0l-.58,1.24-1.13.21.4.57-.11.17-.19.18L67,49.23l.48-.72-.13-.24-1.76.92c-.18-.18-.39-.52-.53-.49-.44.09-.82.32-.47.88L64,50C64,48.21,64,48.21,62.8,48.39Z"/><path class="cls-6" d="M3.52,37.63,0,34.86l3.17-2.58,2.06.41-.85.79-.77,0,0,.28.78.24,2.38.24c.06.77.13,1.53.2,2.3l-.83,0-1.18.19L5,38.13h.18l.27-.48L6.79,38,8,39a5.31,5.31,0,0,1-3.53-1.16C4.31,37.65,3.85,37.7,3.52,37.63Z"/><path class="cls-4" d="M64.51,29.14l1.81-.81c0,.62.36.94,1.19,1a22,22,0,0,1,3.78.57c1,.22,1.89.69,2.84,1,.74.22,1.52.31,2.26.51,1.15.3,2.28.64,3.42,1,.39.11.8.2,1.2.3l.36.33.45.48a23.61,23.61,0,0,1-8.5-1.29c-2.83-.95-5.67-1.85-8.5-2.78A1.18,1.18,0,0,1,64.51,29.14Z"/><path class="cls-15" d="M5.23,32.69l-2.06-.41.76-1,.42-.4,1-.81.45-.37c1.73-1.37,3.45-2.76,5.2-4.12a7.9,7.9,0,0,1,1.18-.65l-.31.33c.2.79.36,1.44.52,2.1-.3.95-1.19,1.15-1.95,1.51a7.41,7.41,0,0,0-3.49,2.62C6.59,32,5.8,32.3,5.23,32.69Z"/><path class="cls-16" d="M32.41,67.47c0,.2-.1.42,0,.58.39,1-.22,1.43-.9,1.88a5.58,5.58,0,0,1-1.13-1.15,11.15,11.15,0,0,1-1.57-6.6c.09-.86-.16-1.33-1.07-1.52a6.21,6.21,0,0,1-1.54-.78,17.61,17.61,0,0,0,2,.54c.93.14,1,.72,1,1.47,0,.2.24.57.38.57a3.35,3.35,0,0,0,1.16-.21,2.08,2.08,0,0,0,.53-.32,8.76,8.76,0,0,0,1,4.48,2.44,2.44,0,0,1,.14.87l0,.22Z"/><path class="cls-17" d="M23.81,36.06c-.5-.27-.81-.53-.43-1.22s-.48-1.41-1.67-1.6l1.25-2c.84,1.37,1.69,1.42,2.87.16.4-.42.74-.9,1.17-1.44l.79.56c.27-.5.52-1,.8-1.43.09-.15.31-.41.38-.38,1.45.54,2.76-.52,4.17-.32a42.34,42.34,0,0,0-4,1.87,13.7,13.7,0,0,0-3,2.37A9.69,9.69,0,0,0,23.81,36.06Z"/><path class="cls-18" d="M3.52,37.63c.33.07.79,0,.95.22A5.31,5.31,0,0,0,8,39l4.31,3.18v1l-.77,1a28.37,28.37,0,0,1-2.72-1.86C7,40.8,5.28,39.2,3.52,37.63Z"/><path class="cls-9" d="M50.62,91.4a7.18,7.18,0,0,1-.18-1.22,3.85,3.85,0,0,1,.22-.92,1.48,1.48,0,0,0,1.26,1.45c1.19-.07,1.15.39.89,1.21,0,.12.06.28.15.61l1.55-1.8-.38,0-1.23-1c.91-.43,2.12-.52,1.68-1.89a2.25,2.25,0,0,1,1.35,3.26c-.26.53-.5,1.08-.77,1.6a1.37,1.37,0,0,1-.34.45,3.2,3.2,0,0,1-3,.18l-.2-.65.67-.32-.86-1L51,92a.2.2,0,0,1,0-.15Z"/><path class="cls-15" d="M57.44,79.08c-.64-.47-1.26-1-1.93-1.41a16.65,16.65,0,0,0-1.57-.82c.07-.78.14-1.56.2-2.34l1.67-.21-.44-1.57,2.44,2c0,.13,0,.27,0,.41L58,77.27l.16.46Z"/><path class="cls-17" d="M54.58,87.85c.44,1.37-.77,1.46-1.68,1.89l1.23,1,.38,0L53,92.53c-.09-.33-.19-.49-.15-.61.26-.82.3-1.28-.89-1.21a1.48,1.48,0,0,1-1.26-1.45c-.09-.58-.32-1.23.65-1.3.06,0,.16,0,.17-.08.52-1.67,1.47-.53,2.27-.34A8.29,8.29,0,0,1,54.58,87.85Z"/><path class="cls-1" d="M57.79,18.28c.41-.71.86-1.4,1.24-2.13a13.18,13.18,0,0,0,.56-1.4l.8,0,1.81.45c.07.89.14,1.79.2,2.69C60.92,18.68,59.31,18,57.79,18.28Z"/><path class="cls-14" d="M55.37,72.73l.44,1.57-1.66.21a2.65,2.65,0,0,0-2.56-.62L50,74.27c0-.26,0-.52,0-.77l.27-.66.28-.32c1-.27,1.91-.56,2.86-.81S54.76,72.36,55.37,72.73Z"/><path class="cls-11" d="M24.35,42.21l-1.2-2,1.06,0c.66.43,1.35.82,2,1.3a4.51,4.51,0,0,0,2.69.81,12.91,12.91,0,0,1,2.52.68l-.7.06V44.1l-1.09-1L28,43h-.6l-1-.19h-.59l-.82-.58Z"/><path class="cls-16" d="M44.53,70.86l.28,1c-.93.13-1.27.66-1.3,1.8a3.87,3.87,0,0,0,1.43-.37c.35-.26.47-.82.71-1.28.56.53,1,.92,1.39,1.3l-2.66,1.21-.61.13L43,74.6a4.91,4.91,0,0,1-.3-.89,4.74,4.74,0,0,1-.06-1.13c0-.41.1-.82.16-1.24Z"/><path class="cls-1" d="M87.43,32.86a7.78,7.78,0,0,0,2.74.13A12.81,12.81,0,0,1,94,32.75c.63,0,1,.18,1,.87H87.42C87.43,33.37,87.43,33.11,87.43,32.86Z"/><path class="cls-9" d="M42.76,71.34c-.06.42-.14.83-.16,1.24a4.74,4.74,0,0,0,.06,1.13,4.91,4.91,0,0,0,.3.89l-2,0,1.2-2.56L42,71.84l-.78.45c-.13-.34-.27-.68-.4-1Z"/><path class="cls-1" d="M75.63,44l-.38-2.33c1.26,1.41,2-.15,3.1-.34-.13.52-.23.9-.33,1.29Z"/><path class="cls-1" d="M81.82,33.45,81.37,33,81,32.64c.94-.82,1.82.24,2.77.08a6.79,6.79,0,0,1,1.84.14l.21.74-.8,0h-.41Z"/><path class="cls-16" d="M41.17,72.29l.78-.45.23.24L41,74.64l-1-.17c.06-.53.13-1,.2-1.58l.4-.2Z"/><path class="cls-6" d="M82.64,28.87l-.83-.2c-.14-.59-.29-1.18-.44-1.77l1.69-.25c.36.09.75.07,1.12.14.11,0,.18.27.26.42l-.6.49h-.16l-1-.18-.08.33.83.23L83,28.7Z"/><path class="cls-17" d="M35,27.47c0-.2,0-.39,0-.59.41-.07.78-.36,1.15.25.17.29.88.3,1.35.34a12.38,12.38,0,0,0,1.49,0l-5.22.84.62-.42Z"/><path class="cls-18" d="M77,16.12c0-.83.56-.7,1-.43a6.57,6.57,0,0,1,1,1c-1.48-.22-3.06.16-4.42-.73a.61.61,0,0,0,0-.19l.92-.28,1.49.67.09.05Z"/><path class="cls-17" d="M24.21,40.2l-1.06,0a2.73,2.73,0,0,1-.21-2.54c.15-.27.5-.44.75-.66C23.86,38.08,24,39.14,24.21,40.2Z"/><path class="cls-18" d="M73.19,15a9,9,0,0,1-.4-.83.83.83,0,0,1-.08-.53c0-.1.29-.25.38-.21a17.81,17.81,0,0,1,1.78.82c.1,0,.08.34.14.58-.49.12-1.31-.3-1.19.68l-.22,0-.39-.22Z"/><path class="cls-16" d="M67.4,62.93l2,.59-.46,1.21-1-.16c.47-.68.46-1.08-.37-1l-.2-.2Z"/><path class="cls-15" d="M56.38,81c0-.13,0-.36-.05-.37-1.11-.37-.85-1.26-.8-2.35.21.56.25,1,.48,1.17a2.59,2.59,0,0,0,1,.36Z"/><path class="cls-16" d="M47.55,73.05c-.19-.25-.51-.49-.54-.76a1.56,1.56,0,0,1,.35-.93c0-.07.45.1.69.15l-.31.9.47.09Z"/><path class="cls-16" d="M51,92l.46-.66.86,1-.67.32.2.65C50.89,93.31,51,92.6,51,92Z"/><path class="cls-5" d="M80,40.81c.47-.67,1-.59,1.61-.17-.15.25-.29.51-.44.77l-.38.05-.4.16-.21.06L80,41.61Z"/><path class="cls-1" d="M67,11.38l.63-1.08,1,1.6-1.2-.18L67,11.55A1,1,0,0,1,67,11.38Z"/><path class="cls-19" d="M96.24,37.48c-.49.26-1,.78-1.28-.27,0-.17-.47-.26-.72-.38A1.54,1.54,0,0,1,96.24,37.48Z"/><path class="cls-16" d="M80.07,15.78l-.66-.63.71-1,.5,1C80.43,15.33,80.25,15.56,80.07,15.78Z"/><path class="cls-11" d="M36.57,44l0-.25L39,44l-.39.77h-.4C38.05,43.71,37.18,44.11,36.57,44Z"/><path class="cls-15" d="M13.54,23.89,13,25.14l-.87-.24Z"/><path class="cls-1" d="M80,40.81v.8a1.29,1.29,0,0,1,0,.19l-.73.07,0-.85Z"/><path class="cls-20" d="M35.17,15.45l-2,0A1.5,1.5,0,0,1,35.17,15.45Z"/><path class="cls-11" d="M74.57,59.33,73.38,59l.12-.39,1.25.34Z"/><path class="cls-21" d="M74.22,45.52l-.69.82-.28-.9.79-.23Z"/><path class="cls-5" d="M85.83,33.6l-.21-.74h1.21l-.21.73Z"/><path class="cls-17" d="M39.57,27.34l1.8,0Z"/><path class="cls-20" d="M89.22,40.69l1.8.16Z"/><path class="cls-19" d="M92.43,36.83c-.71.51-1-.09-1.27-.53Z"/><path class="cls-20" d="M22.34,58.72c.58-.22,1.15-.41,1.62.22Z"/><path class="cls-20" d="M44.79,16.84l-1.42-.11Z"/><path class="cls-11" d="M43.48,44.74l-1,.36c0-.2-.08-.41-.11-.62Z"/><path class="cls-15" d="M16.52,22.07c0,.59,0,1.18-.8.59Z"/><path class="cls-3" d="M88.45,30.34l-.38,1c-.24-.53-.34-.78-.45-1Z"/><path class="cls-3" d="M83.45,28.08l-.83-.23.08-.33,1,.18C83.6,27.82,83.52,28,83.45,28.08Z"/><path class="cls-22" d="M84.43,29.78,83,29.31Z"/><path class="cls-22" d="M50.63,72.52l-.28.32-.4.45-.32-.46Z"/><path class="cls-22" d="M81.2,41.41c.15-.26.29-.52.44-.77l.39,0C81.75,40.92,81.47,41.16,81.2,41.41Z"/><path class="cls-21" d="M83.82,22.31l-1-.58C83.25,21.69,83.75,21.6,83.82,22.31Z"/><path class="cls-11" d="M41.75,44.45l-1-.1Z"/><path class="cls-11" d="M35,43.45l-1-.11Z"/><path class="cls-20" d="M26.55,17.52l-1,.33Z"/><path class="cls-20" d="M25.14,17.9l-.8.16Z"/><path class="cls-5" d="M87.43,32.86c0,.25,0,.51,0,.77H87c0-.25,0-.5,0-.75Z"/><path class="cls-21" d="M73.6,15.54l.22,0,.78.23a.61.61,0,0,1,0,.19Z"/><path class="cls-20" d="M36.58,15.45h-.83C36,15,36.3,15,36.58,15.45Z"/><path class="cls-21" d="M73.19,15l0,.33L72.6,15Z"/><path class="cls-11" d="M40.36,44.24l-.8-.13Z"/><path class="cls-1" d="M87,32.87c0,.25,0,.5,0,.75l-.41,0,.21-.73Z"/><path class="cls-21" d="M14.51,20.49l.63-.56Z"/><path class="cls-21" d="M57.39,69.69,58,69.6Z"/><path class="cls-21" d="M61,69.29l.61-.13Z"/><path class="cls-9" d="M50,73.29l.4-.45-.27.66Z"/><path class="cls-16" d="M38.6,74.2l.57.21Z"/><path class="cls-11" d="M33.15,43.25l-.39.16a2.39,2.39,0,0,1-.23-.22Z"/><path class="cls-22" d="M43.77,74.67l.61-.13Z"/><path class="cls-22" d="M85.65,30,85,29.85Z"/><path class="cls-22" d="M38.37,8.12,37.76,8Z"/><path class="cls-22" d="M37.17,8h0Z"/><path class="cls-19" d="M98.24,38.44H98l-.36-.62Z"/><path class="cls-15" d="M55.79,81.45l.59-.4Z"/><path class="cls-21" d="M77.63,51.57c0-.2-.1-.39-.16-.59C77.53,51.18,77.58,51.37,77.63,51.57Z"/><path class="cls-22" d="M82.64,28.87,83,28.7c0,.2,0,.4,0,.6C82.86,29.16,82.75,29,82.64,28.87Z"/><path class="cls-22" d="M63,9.28l.64.26Z"/><path class="cls-22" d="M29.36,10.36l.39-.22Z"/><path class="cls-22" d="M64.82,10.11l.38.43Z"/><path class="cls-20" d="M24.54,59.19l.43.34Z"/><path class="cls-22" d="M62,9.72l.4-.18Z"/><path class="cls-22" d="M32,9.54l.42,0Z"/><path class="cls-22" d="M67,11.55l.41.17Z"/><path class="cls-22" d="M40,8.58l-.39-.23Z"/><path class="cls-21" d="M5.77,29.69l-.45.37Z"/><path class="cls-22" d="M87,30.16l-.41-.08Z"/><path class="cls-19" d="M94.44,30.66h0Z"/><path class="cls-20" d="M38.18,15.68l-.42-.15Z"/><path class="cls-20" d="M31.55,15.71l-.4.17Z"/><path class="cls-21" d="M4.35,30.87l-.42.4Z"/><path class="cls-20" d="M84.62,33.63h0Z"/><path class="cls-21" d="M15.35,16.52l-.41.4Z"/><path class="cls-20" d="M28.23,17l-.49.25Z"/><path class="cls-20" d="M27.34,17.29l-.4.19Z"/><path class="cls-21" d="M55.38,69.31l.41.18Z"/><path class="cls-20" d="M23.94,18.1l-.4.17Z"/><path class="cls-16" d="M50.62,91.4l.32.48Z"/><path class="cls-5" d="M67.19,44l-.44.41Z"/><path class="cls-21" d="M57.85,75.09c0-.14,0-.28,0-.41l.3.18Z"/><path class="cls-15" d="M16.94,21.69l-.42.39Z"/><path class="cls-21" d="M58.15,77.73,58,77.27Z"/><path class="cls-22" d="M80.42,41.62l.4-.16Z"/><path class="cls-5" d="M98.64,40l-.21-.18.43,0Z"/><path class="cls-5" d="M76.21,46.82l-.12.23L76,46.77A.2.2,0,0,1,76.21,46.82Z"/><path class="cls-15" d="M14.73,23.14l-.19.15Z"/><path class="cls-22" d="M80,41.8a1.29,1.29,0,0,0,0-.19l.19.07Z"/><path class="cls-11" d="M36.16,43.69l-.2,0Z"/><path class="cls-15" d="M14.33,23.34l-.19.15Z"/><path class="cls-17" d="M23.72,36.44v0Z"/><path class="cls-20" d="M47.55,17.1l-.07.14-.06-.14Z"/><path class="cls-5" d="M99.84,39.58l.16-.16Z"/><path class="cls-21" d="M71.61,13.79l.14.14A.32.32,0,0,1,71.61,13.79Z"/><path class="cls-12" d="M40.3,24.64c1.12-1,2.3-.37,3.46-.11C42.62,24.77,41.48,25.4,40.3,24.64Z"/><path class="cls-9" d="M45.42,24.71c0-.22,0-.43,0-.64l.71-.3.58.5.06.61Z"/><path class="cls-3" d="M69.52,25.67c0,.21,0,.42,0,.63l-.61.11-.12-.17Z"/><path class="cls-6" d="M69.42,24.89c0,.13,0,.26,0,.38l-.56,0c0-.2,0-.41,0-.61Z"/><path class="cls-1" d="M65.22,50.59c-.17.18-.31.46-.51.52-1.85.53-3.64,1.42-5.65.85-1,.64-2.21-.26-3.11.16a2.38,2.38,0,0,1-2.34.05A6.7,6.7,0,0,0,50,51.55a2,2,0,0,1-.89-.07c-1-.49-1.8-1-3-.43-.48.23-1.34-.43-2-.6-3-.69-6-1.39-9-2a9,9,0,0,0-2.54.26c-.22-.25-.44-.5-.67-.74s-.48-.54-.73-.8h.23c1.27.36,2.71-.19,3.89.72.14.11.44,0,.67,0,.7.05,1.39.14,2.09.19s1.42.08,2.14.11a3.88,3.88,0,0,0,2.56.48,5,5,0,0,1,2,.33,21.7,21.7,0,0,0,6.48.46,2.09,2.09,0,0,1,.56.05c.55.14,1.16.54,1.61.41,1.73-.52,3.33.37,5,.25l.55.72.27-.53h0a3.82,3.82,0,0,0,.66.12c.93,0,1.89.32,2.74-.32h1.2Z"/><path class="cls-23" d="M15.48,41.44l0,1.17.15,1.21c0,.32.06.65.1,1a2.52,2.52,0,0,1-.74.39c-.7.12-2.54-1.26-2.73-2v-1l.84-.56Z"/><path class="cls-1" d="M31.16,48.7l-1.79-.55,1.06-.85Z"/><path class="cls-16" d="M30.54,60.86l-.07,1.35-.45,0,.16-1.35Z"/><path class="cls-1" d="M28.89,47.83c-.2-.14-.41-.27-.62-.4l.78.11Z"/><path class="cls-9" d="M20.15,42.43l.41-.18s0,.09,0,.13Z"/><path class="cls-1" d="M31.15,47.2l-.08-.05.09,0Z"/><path class="cls-23" d="M13.66,26.93a.25.25,0,0,1-.12-.08c0-.26,0-.52,0-.77l.18-.39c.09-.17.21-.49.27-.48,1.19.21,1.32-1,2-1.44.36-.21.73-.39,1.09-.58,0,.72.06,1.23.09,1.75a.61.61,0,0,1-.07.14l-.38.4h0l-1.16-.59c.39,1.24-.69,1.29-1.24,1.79Z"/><path class="cls-2" d="M29.57,26.14l3.2-.32c-1.08.58-2.16,1.19-3.27,1.73-.19.1-.5-.05-.75-.08C29,27,29.29,26.58,29.57,26.14Z"/><path class="cls-15" d="M13.71,25.69l-.18.39-.7.11-.05-.2Z"/><path class="cls-5" d="M67.4,63.33l.2.2c.24,1.16-.48,1.54-1.5,1.79A1.68,1.68,0,0,1,67.4,63.33Z"/><path class="cls-16" d="M44.55,70.87c.13-.14.27-.27.41-.4C44.82,70.6,44.68,70.73,44.55,70.87Z"/><path class="cls-23" d="M71.6,46.83,71,46.76A.78.78,0,0,0,70,46h0a21.83,21.83,0,0,1,1.77-1.7c.07-.07.67.33.86.63.36.56.12,1.06-.41,1.43Z"/><path class="cls-8" d="M81.43,25.08,81,25a3.54,3.54,0,0,1,.25-.52c.84-1.3,1.33-1.33,2.23-.11.68-.39.95-.18,1.16.61s.72,1.43.14,2.22l-.37,0c-.08-.15-.15-.4-.26-.42-.37-.07-.76-.05-1.12-.14l-1.69.25c0-.47.07-.93.11-1.4l.26-.19Z"/><path class="cls-24" d="M72,21l-.23.25-1,.22H70l-.41-.81-.19-.6a1.87,1.87,0,0,0-1.94-1l-.09-.78.81-1.16a4.61,4.61,0,0,0,.62,1c.35.33.78.81,1.19.81C71.34,19,72,19.58,72,21Z"/><path class="cls-1" d="M63.51,16.6c-.12-.18-.29-.32-.26-.4s.21-.27.32-.41c.12.12.35.25.33.36S63.69,16.41,63.51,16.6Z"/><path class="cls-17" d="M62.6,50.18c-.85.64-1.81.32-2.74.32a3.82,3.82,0,0,1-.66-.12c0-.59,0-1.19,0-1.79l.81-.2c-.26,1.17.4,1.82,1.59,1.64A3.64,3.64,0,0,1,62.6,50.18Z"/><path class="cls-17" d="M59.2,50.38l-.27.53-.55-.72Z"/><path class="cls-15" d="M53.34,77.83c.13-.14.26-.29.4-.43l.74.66,0,.2Z"/><path class="cls-13" d="M24.94,42.23l.82.58Z"/><path class="cls-13" d="M27.35,43H28l-.34.36Z"/><path class="cls-13" d="M26,42.82h.4l-.15.3Z"/><path class="cls-7" d="M62.6,50.18a3.64,3.64,0,0,0-1-.15c-1.19.18-1.85-.47-1.59-1.64h.59a1.32,1.32,0,0,0,2.21,0h0C64,48.21,64,48.21,64,50l-.2.2Z"/><path class="cls-14" d="M62.8,48.39a1.32,1.32,0,0,1-2.21,0Z"/><path class="cls-9" d="M45.32,22.32l-1.15-2.41a14.29,14.29,0,0,1,1.48.5C46.21,20.66,46,21.69,45.32,22.32Z"/><path class="cls-3" d="M47,17.52l.52.42c-.1.1-.21.29-.31.29a3.49,3.49,0,0,1-.7-.2Z"/><path class="cls-16" d="M39.14,72.3l-1.4.45-.15-.42L39,71.81Z"/><path class="cls-9" d="M40.57,72.69l-.4.2.15-.5Z"/><path class="cls-16" d="M38.56,71l.41.1Z"/><path class="cls-16" d="M39.36,71.16h.42l-.22.25Z"/><path class="cls-17" d="M25.66,28.62l1-1.06C26.83,28.38,26.46,28.71,25.66,28.62Z"/><path class="cls-17" d="M24.15,29.7l1-.67C24.89,29.37,25.28,30.64,24.15,29.7Z"/><path class="cls-17" d="M23.17,30.87l.6-1Z"/><path class="cls-2" d="M35,27.47l-.6.4Z"/><path class="cls-7" d="M36.57,44c.61.11,1.48-.29,1.6.8L36.42,45Z"/><path class="cls-9" d="M13.66,26.93l.68-.25.1,1.41.93.61c0,.69.1,1.39-.86,1.76-.57.23-.34,1.95.12,2.48a2.33,2.33,0,0,1,.53,1.25c.05.55.25.74.75.62a6.89,6.89,0,0,1,4.45.48c0,.64-.09,1.28-.13,1.93-1.3-.08-2.61-.12-3.91-.25A6.28,6.28,0,0,1,15,36.52a5.07,5.07,0,0,0-3.15.2,5.21,5.21,0,0,1-1.05.05l.5-1.21.49.64,1.14-.74-.14-.61c.21-.55.78-1.31.59-1.62-.66-1.07-.19-2-.05-3S13.54,28,13.66,26.93Z"/><path class="cls-9" d="M20.16,41c0-1,0-2,0-3a4.2,4.2,0,0,1,.34,1.19A11.47,11.47,0,0,1,20.16,41Z"/><path class="cls-17" d="M21.31,34.23l.24-.58Z"/><path class="cls-3" d="M20.63,41.63l-.13-.17.5-.18.06.16Z"/><path class="cls-15" d="M70,46a.78.78,0,0,1,1,.76L68.7,48l-.4-.57,1.13-.21Z"/><path class="cls-12" d="M67,49.23c-.13.94-1,.93-1.61,1.16l-.2-.81.4-.39,1.76-.92.13.24Z"/><path class="cls-5" d="M67.77,43.78c.41.62.85,1.22,1.2,1.87.08.13-.16.43-.26.66a2.4,2.4,0,0,1-.49-.46,2.67,2.67,0,0,1-.44-2.07Z"/><path class="cls-7" d="M65.6,49.19l-.4.39h-.6c-.35-.56,0-.79.47-.88C65.21,48.67,65.42,49,65.6,49.19Z"/><path class="cls-17" d="M64.6,49.58h.6l.2.81-.18.2-1.42-.41L64,50Z"/><path class="cls-15" d="M68.59,48.19l-.19.18Z"/><path class="cls-18" d="M12.74,34.85l.14.61-1.14.74-.49-.64-.5,1.21c-1.29.12-2.59.59-3.83-.19-.07-.77-.14-1.53-.2-2.3,1.44.28,2.88.62,4.34.82A5.9,5.9,0,0,0,12.74,34.85Z"/><path class="cls-18" d="M6.09,36.62,6.79,38l-1.35-.35-.27.48H5l-.08-1.32Z"/><path class="cls-15" d="M4.38,33.48c0,.19,0,.37,0,.56l-.78-.24,0-.28Z"/><path class="cls-12" d="M32.4,67.28l0,.22Z"/><path class="cls-3" d="M77,16.12l.09.05L77,16.12Z"/><path class="cls-17" d="M69.6,20.7l.41.81v.39c-.7,0-1.4,0-.77,1,0,.05-.25.29-.39.44-.91-1.26-1.89-2.5-1.38-4.23a1.87,1.87,0,0,1,1.94,1l-.38.55Z"/><path class="cls-24" d="M68.85,23.33c.14-.15.42-.39.39-.44-.63-1,.07-1,.77-1l.79,1.36-.59.24-.28-.29-.09.54-.2.36-.79-.22Z"/><path class="cls-3" d="M68.85,23.89l.79.22c-.07.26-.15.52-.22.78l-.54-.2Z"/><path class="cls-6" d="M70.8,23.26,70,21.9v-.39h.79l.62.59Z"/><path class="cls-17" d="M71.42,22.1l-.62-.59,1-.22C71.64,21.56,71.53,21.83,71.42,22.1Z"/><path class="cls-6" d="M69.84,23.75l.09-.54.28.29Z"/><path class="cls-6" d="M81.43,25.08l.31.23-.26.19C81.46,25.36,81.44,25.22,81.43,25.08Z"/><path class="cls-8" d="M41.59,56.71c-.7,0-1.21-.17-1.19-.91a1,1,0,0,1,1.34-1c.42.07,1,.64,1,1A.91.91,0,0,1,41.59,56.71Z"/><path class="cls-13" d="M58.57,61c.73-1.25,1.42-1.61,2.2-1.18.46.26.68.57.32,1.12C60.55,61.76,60.08,61.8,58.57,61Z"/><path class="cls-13" d="M22.65,51.64c.33-.44.55-1,.85-1.08a2.22,2.22,0,0,1,1.31.5c.09,0,0,.56-.12.74C24.11,52.54,23.53,52,22.65,51.64Z"/><path class="cls-13" d="M40.63,65.67c.16.37.53.82.43,1.1-.27.76-.93.51-1.72.3l.89-1.39Z"/><path class="cls-18" d="M15.48,41.44l-2.33.19c.13-.3.18-.74.4-.87a3.27,3.27,0,0,1,1.5-.45C15.19,40.31,15.34,41.05,15.48,41.44Z"/><path class="cls-18" d="M15.68,43.82l-.15-1.21Z"/><path class="cls-3" d="M15.37,28.7l-.93-.61-.1-1.41c.55-.5,1.63-.55,1.24-1.79l1.16.59v1L16,26.13l-.63,2.56Z"/><path class="cls-9" d="M15.35,28.69,16,26.13l.76.35Z"/><path class="cls-9" d="M16.75,26.09v-.61h.2Z"/><path class="cls-3" d="M16.94,25.48h-.21l.38-.4C17.05,25.21,17,25.35,16.94,25.48Z"/><path class="cls-6" d="M69.6,20.7,69,20.65l.38-.55C69.47,20.3,69.54,20.5,69.6,20.7Z"/></g></svg>