<svg xmlns="http://www.w3.org/2000/svg" viewBox="0 0 100 100"><defs><style>.cls-1{fill:#59a4a6;}.cls-2{fill:#57a3a5;}.cls-3{fill:#91c2c4;}.cls-4{fill:#87bdbe;}.cls-5{fill:#9bc8c9;}.cls-6{fill:#92c3c5;}.cls-7{fill:#7db7b9;}.cls-8{fill:#67acae;}.cls-9{fill:#90c2c3;}.cls-10{fill:#75b3b5;}.cls-11{fill:#96c5c7;}.cls-12{fill:#94c4c6;}.cls-13{fill:#b5d6d7;}.cls-14{fill:#8dc0c2;}.cls-15{fill:#6fafb1;}.cls-16{fill:#8bbfc0;}.cls-17{fill:#64aaac;}.cls-18{fill:#6aadaf;}.cls-19{fill:#83bbbc;}.cls-20{fill:#ddeced;}.cls-21{fill:#f4f9fa;}</style></defs><g id="Ebene_6" data-name="Ebene 6"><path class="cls-1" d="M3.12,82.88c-.92-1.11-.79-2.48-.91-3.78a3.74,3.74,0,0,0,0-.67c-1.07-3.56-.05-7.15-.12-10.73s0-7.07,0-10.61c0-1.77.2-3.53.22-5.3,0-3.17-.08-6.35,0-9.51.14-4.17.46-8.33.65-12.49.11-2.36.11-4.72.16-7.08.18-.26.37-.51.81-1.12l.09,1.85.33.1c.11-.24.32-.49.31-.74,0-1.26-.21-2.52-.18-3.77a2,2,0,0,1,.73-1.34,2.43,2.43,0,0,0,.8-3.08,1.29,1.29,0,0,1-.1-.89,2.07,2.07,0,0,1,2.84-1.05c.36-.57.74-1.11,1.06-1.68.09-.16.06-.59,0-.62-1.07-.43-.25-1.25-.42-1.86l.48-.31L10.24,8l1.63-.86L13,6.35l.83-.26.26.39.27-.75.57-.16.27.36.28-.65.77-.35.31-.16,4.29-1.54L21.5,3l2-.37c.93.31,1.9.8,2.32-.65l.8-.07c.7.63,1.07.19,1.39-.42l.81-.06.78.84L30.77,3l.3,2.49.35,0c-.23.41-.45.83-.68,1.25l-1,.46c-1.55-1.24-2.33.54-3.45.88l-.71-1L23.35,8.67l-.51,0-.42-.37L22,8.78l-4,2.14c-3.57,1.9-7,3.9-8.54,8-.71,1.89-.27,3.84,1.62,4.48,1,.32,2,.54,3,.81l.61,0,.77-.05c.68,1.64,2.3.8,3.44,1.21.15.05.63-.81.95-1.25l1.09.29a6.34,6.34,0,0,1,1.09.82c.89,1,1.11.24,1.4-.46l1.6,0a2.79,2.79,0,0,0,.73.44c.92.2,2.1.06,2.74.59,1,.82,1.57.37,2.39-.08a1.84,1.84,0,0,1,1.4-.05,4.72,4.72,0,0,1,2.6,3.11c-.58.18-1.18.33-1.75.56s-1,.49-1.55.75l-1,.15-.65.15-.77-.1-.6-.14-.46.07-.37.17a9,9,0,0,1-2.25.44c-3.17-.17-6.35-.38-9.5-.72-1.8-.19-3.56-.65-5.34-1-1-.2-1.48.14-1.48,1.17,0,1.88.05,3.77-.05,5.65s-.45,3.86-.55,5.8c-.17,3.29-.22,6.59-.33,9.89-.07,1.93-.08,3.87-.26,5.79s-.6,4.09-.81,6.14a32.1,32.1,0,0,0-.06,3.4,29,29,0,0,0,.06,5.36C7.5,74.13,8.47,75.87,9,77.72a4.24,4.24,0,0,0,1.78,2.75c.22.36.36.86.68,1.06.76.48,1.62.8,2.42,1.23a18.65,18.65,0,0,0,2.64,1.48c1.91.65,3.88,1.08,5.81,1.66.57.17,1.07.73,1.63.77,1.71.12,3.44.07,5.16.08l.54,0,.3,0,7.23-1.32c.78.81,1.28,1.8,1.91,1.88A13.1,13.1,0,0,0,42.5,87L43,86.8,45,86.45a12.63,12.63,0,0,0,1.69.51c1,.18,1.39.49,1.42,1.66,0,1.61-1,2-2,2.6a15,15,0,0,1-2.5,1.26,45.47,45.47,0,0,1-4.5.94c-1.1.19-2.22.3-3,.4A14.49,14.49,0,0,0,34,93.23c-2.87-.3-5.74-.55-8.61-.83a2.55,2.55,0,0,1-.63-.24l-.56-.09L22.05,92a6,6,0,0,0-6.16-1.58c-.13-.31-.27-.62-.4-.92l-2.06.3-1.26-.42-.38-.12-.5-.31c0-.41,0-.83,0-1.24a7.07,7.07,0,0,0-1.13.06c-.2,0-.37.25-.56.38l-.71-.44L6,85.57c-.2-.32-.4-.63-.61-.94l-.62-.37h0L4.47,84h0l-.3-.26-.82-.51C3.27,83.11,3.19,83,3.12,82.88Z"/><path class="cls-2" d="M73.05,17l.08.78c-1.06,2.25,1.14,3.68,1.44,5.59a6.39,6.39,0,0,0,.91,1.83c.74,1.33,1.66,2.65,2.22,4,.84,2,2.7,2.89,3.65,4.44s2.73,2.42,3.8,3.89c-.28,1.72-1.62,2.28-3,2.76h0l-.61-.5-1-.58c-.24-1.6-1.74-1.42-2.75-1.94a.39.39,0,0,1-.19-.1l-.81-.5-2.3-1.9-.31.23c.09,1.16.25,2.33.27,3.49,0,2.22.06,4.45,0,6.67,0,1.27-.27,2.55-.42,3.82l0,.67a.26.26,0,0,1-.13.16L72,50.53l1.64.9V52L72,53c.37.44.71.82,1,1.23.43.58.76,1.18,0,1.75-.39.29-.66,3.94-.31,4.26.15.14.42.14.64.2.1.44.21.88.32,1.32-.92-.64-1.55-.71-1.57.71s-.46,2.53.37,3.82c.33.5-.06,1.53-.26,2.29-.12.48-.55.88-.74,1.36-.74,1.86-.73,1.86,1.16,2.5l-.37,1.36L71,74.57l.13.29,1,.07c.09.26.17.51.25.77l.31,1.72.12.56c-.93,1.78-.93,1.79.66,1.88.27.35.55.69.81,1,1,1.44,2.08,2.9,3.15,4.33a9.64,9.64,0,0,0,1.2,1.19l.21.58,1.45.76a1.73,1.73,0,0,0,2,1.32h0c0,.17-.11.41,0,.52,1,1.53.84,2.77-.87,3.64-1.64-.46-3.34-.79-4.92-1.4-2-.78-3.23-2.59-4.42-4.3-.8-1.14-1.4-2.41-2.13-3.61a7.2,7.2,0,0,0-.78-.89l-2.78-3.77-.88.5-.22-.73c1.65-1.17,1.82-2.85,1.65-4.67a19.08,19.08,0,0,1-.21-3.1c.31-4.43.71-8.84,1-13.27.3-4,.61-8.1.75-12.15.14-3.87,0-7.75.12-11.62.06-2.43.33-4.85.45-7.28,0-.32-.33-.66-.51-1A8.09,8.09,0,0,0,69,23.8c-.06-1.29-.34-2.57-.53-3.86l.37-1,1.05-2.47.95-.42Z"/><path class="cls-3" d="M82.12,40.27c1.41-.48,2.75-1,3-2.76a61.08,61.08,0,0,0,5.74,2.27,8.72,8.72,0,0,0,3.6,0c1.89-.28,2.36,0,2.69,1.89.11.64.52,1.22.67,1.86s.22,1.58.33,2.37c-1.61,1-1.7,2.38-.24,3.3,0,.54,0,1.08,0,1.63l-2.11-.11c.15,1.53.29,3,.41,4.14l2-.42.06,1.06v1.1c0,.26,0,.53-.05.8-.09.64-.18,1.28-.28,1.92l0,4.37L96.5,61.8c-.13.29-.34.55-.28.65a2.17,2.17,0,0,1-.28,2.86c-.09.09.22.57.29.75l1.66-.94L98,67c0,.36-.06.71-.1,1.07s0,1,0,1.42l-.31.51-.83-1.13-.4.21a9,9,0,0,1,.5,1.49,20.64,20.64,0,0,0,.35,3.17c.41,1.3-.21,2.11-1.05,3,0-.44.06-.89.08-1.33l-.42-.21-.79,1.42c-.74.24-2-.68-2.75.54l.09-1.64,1.22-.27.79-1.32-2.09-1.15c.07-1.24.17-2.48.2-3.72.12-3.93.2-7.86.31-11.79,0-1,.23-2,.21-3,0-2.78-.12-5.57-.29-8.36a2,2,0,0,0-.84-1.54c-1.15-.46-2.49-.46-3.62-1C86.19,42.48,84.17,41.33,82.12,40.27Z"/><path class="cls-4" d="M65.21,79.05l.22.73.88-.5,2.78,3.77a8.59,8.59,0,0,1-1.65,2,15.09,15.09,0,0,1-3.76,1.79Q56.57,89,49.39,90.93a18.66,18.66,0,0,1-3.36.29c1-.61,2.09-1,2-2.6,0-1.17-.47-1.48-1.42-1.66A12.63,12.63,0,0,1,45,86.45c3.86-1.08,7.73-2.13,11.58-3.26C59.65,82.27,62.85,81.52,65.21,79.05Z"/><path class="cls-5" d="M92.33,77.13c.78-1.22,2-.3,2.75-.54l.79-1.42.42.21c0,.44-.05.89-.08,1.33.84-.85,1.46-1.66,1.05-3a20.64,20.64,0,0,1-.35-3.17,9,9,0,0,0-.5-1.49l.4-.21L97.64,70,98,69.5c.07,2.77.25,5.55.2,8.32s-.29,5.8-.48,8.71a7.89,7.89,0,0,1-.3,2.06c-.74,2.24.39,4.36.32,6.54a3.36,3.36,0,0,1-.36,1,10.48,10.48,0,0,0-4.84-2.31Q92.42,85.46,92.33,77.13Z"/><path class="cls-6" d="M51.8.85c2.24.35,4.5.62,6.71,1.08a43.3,43.3,0,0,1,4.24,1.33l-.53,1.22.33.24,1-1,3,1.44c0,1.44.29,1.59,1.57.91l.91,1.34-.81.53.13.3,1-.3c.44.92.88,1.85,1.33,2.77l0,.28a.62.62,0,0,1,0,.27L69.1,12l.51.25L68,11.78C67.43,10,66,9.29,64.26,9a11.53,11.53,0,0,1-2.09-.73l.65-2.58-.39-.14-.93.85c-.17-.85-.32-1.65-.43-2.23L59.51,5.47l2.13,2.62c-.73-.32-1.44-.69-2.19-1-1.37-.49-2.68-1.22-4.24-1-.2,0-.46-.22-.69-.34.36-.26.73-.73,1.09-.72,1.67,0,1.84-.09,1.94-1.81l.55-.81-.43-.14-.12,1L56.72,3l.11-.7-.91.13a15.7,15.7,0,0,0-2.48-.6,7.25,7.25,0,0,0-1.91.34V1.39ZM69.58,9.91c-1.28-1.18-1.69-1-2,.61Zm-5.68-4,1.84.87C65.62,5.16,65,5.17,63.9,5.87ZM59.53,3.48c-.32-.15-.53-.33-.73-.32s-.22.31-.34.47c.2.13.38.33.58.36S59.31,3.72,59.53,3.48ZM58,5.6c0,.07-.11.16-.09.22s.14.07.22.1.11-.17.09-.22S58.1,5.63,58,5.6Z"/><path class="cls-7" d="M30.74,6.72c.23-.42.45-.84.68-1.25l-.35,0L30.77,3a5.88,5.88,0,0,1,.94.1c1.11.3,1.59,0,1.27-1.22a2.36,2.36,0,0,1,.07-.71l1.25-.06c.19.19.35.47.58.55.61.22,1.25.36,1.88.54a5.64,5.64,0,0,0,1.81.62c.22,0,.48-.92.64-1.44a3,3,0,0,0,0-.94H40c.29,1,.75,1.68,1.92,1.47.22.66.41,1.35,1.37,1.09l.82-.27L45.52,3l1.09-.55c.54.31,1.15,1,1.37-.27,0-1.27.77-1.28,1.65-.89a17.51,17.51,0,0,1,1.64.91l-1.67.38-.13-.36L47.63,4.63c-2.41-1.2-3-1-3.47,1.11l-2.75.15c.26-.13.51-.38.77-.38,1,0,1.32-.57,1.35-1.16-1.29-.47-2.42-.92-3.59-1.27a1.15,1.15,0,0,0-.93.37,1.38,1.38,0,0,0-.14,1,14.17,14.17,0,0,0,.37,1.53L37.31,6c-.3-.75-.6-1.51-1-2.42-.42.89-1,.93-1.61.2a.73.73,0,0,0-.7,0c-.61.55-1.16,1.16-1.78,1.79L33.2,6Z"/><path class="cls-8" d="M92.49,93.77a10.48,10.48,0,0,1,4.84,2.31c-.14,1-.26,2-.4,2.93-.11.82-1.4,1.23-2.48.84-1.9-.69-3.8-1.34-5.7-2,.37-.74.75-1.48,1.1-2.22s.39-1.34-.67-1.58c-.6-.14-1.56-.15-1.28-1.28a9.41,9.41,0,0,0,1.75.57C90.6,93.46,91.4,94.64,92.49,93.77Z"/><path class="cls-9" d="M87.9,92.77c-.28,1.13.68,1.14,1.28,1.28,1.06.24,1,.81.67,1.58s-.73,1.48-1.1,2.22a25.81,25.81,0,0,1-2.64-1.29c-1.62-1-3.18-2.21-4.77-3.31,1.71-.87,1.87-2.11.87-3.64-.07-.11,0-.35,0-.52a4.9,4.9,0,0,1,.84.38C84.7,90.56,86.3,91.67,87.9,92.77Z"/><path class="cls-10" d="M9.43,8.51c.17.61-.65,1.43.42,1.86.08,0,.11.46,0,.62-.32.57-.7,1.11-1.06,1.68A2.07,2.07,0,0,0,6,13.72a1.29,1.29,0,0,0,.1.89,2.43,2.43,0,0,1-.8,3.08A2,2,0,0,0,4.54,19c0,1.25.14,2.51.18,3.77,0,.25-.2.5-.31.74l-.33-.1L4,21.59c-.44.61-.63.86-.81,1.12a27.08,27.08,0,0,1,.39-4.25A18.46,18.46,0,0,1,8.85,8.83,2.48,2.48,0,0,1,9.43,8.51Z"/><path class="cls-11" d="M44.15,2.76,43.33,3a3.56,3.56,0,0,0,0-.8,8.39,8.39,0,0,0-.44-1L42,1.94c-1.17.21-1.63-.52-1.92-1.47L44.15.3c.07.27.13.76.22.77a14.47,14.47,0,0,0,2.55,0c.2,0,.34-.5.51-.76C48.72,0,50-.3,51.2.59l-.84.07L50.29,1l1.24.44v.82l-.26,0a17.51,17.51,0,0,0-1.64-.91C48.75.93,48,.94,48,2.21l-1.37.27L45.52,3c-.16-.37-.31-.74-.59-1.41Z"/><path class="cls-11" d="M68,11.78l1.59.42L69.1,12l1.57-.72V12c-.66,1.32.2,2,1.48,2.58-1.26.33-2.42.41-2.29,1.84l-1.05,2.47-.36-5.16-.36-.87Z"/><path class="cls-12" d="M13.43,89.8l2.06-.3c.13.3.27.61.4.92A6,6,0,0,1,22.05,92c-2.69-.82-5.74-.11-8.23-1.85A4.25,4.25,0,0,1,13.43,89.8Z"/><path class="cls-13" d="M98.23,54.47l-2,.42c-.12-1.17-.26-2.61-.41-4.14l2.11.11C98,52.06,98.14,53.26,98.23,54.47Z"/><path class="cls-6" d="M69.87,16.45c-.13-1.43,1-1.51,2.29-1.84C70.88,14,70,13.35,70.68,12c.69,1.19,1.42,2.36,2.06,3.58A5.79,5.79,0,0,1,73.05,17l-2.23-1Z"/><path class="cls-6" d="M75.48,25.22a6.39,6.39,0,0,1-.91-1.83c-.3-1.91-2.5-3.34-1.44-5.59a7.25,7.25,0,0,1,1.24,1.8c.49,1.66.79,3.38,1.15,5.09A2,2,0,0,1,75.48,25.22Z"/><path class="cls-11" d="M36.76,2.22c-.63-.18-1.27-.32-1.88-.54-.23-.08-.39-.36-.58-.55L32.83.51l3.4-.24c.19.19.38.39.58.57l.77.65Z"/><path class="cls-6" d="M36.76,2.22l.82-.73L36.81.84c-.2-.18-.39-.38-.58-.57l1.09,0,.52,0L39.2.46a3,3,0,0,1,0,.94c-.16.52-.42,1.44-.64,1.44A5.64,5.64,0,0,1,36.76,2.22Z"/><path class="cls-6" d="M32.83.51l1.47.62-1.25.06A2.36,2.36,0,0,0,33,1.9c.32,1.2-.16,1.52-1.27,1.22a5.88,5.88,0,0,0-.94-.1l-1.16-.78,2.93.21L32.69,2l-1.57-.77.45-.48Z"/><path class="cls-5" d="M97.89,65.12l-1.66.94c-.07-.18-.38-.66-.29-.75a2.17,2.17,0,0,0,.28-2.86c-.06-.1.15-.36.28-.65l1.43,1.92C97.92,64.19,97.91,64.65,97.89,65.12Z"/><path class="cls-11" d="M31.57.73l-.45.48L32.69,2l-.15.47-2.93-.21-.78-.84Z"/><path class="cls-13" d="M97.94,49.23c-1.46-.92-1.37-2.26.24-3.3Z"/><path class="cls-6" d="M47.43.3c-.17.26-.31.74-.51.76a14.47,14.47,0,0,1-2.55,0c-.09,0-.15-.5-.22-.77Z"/><path class="cls-12" d="M6,85.57l2.93,2.14A3.39,3.39,0,0,1,6,85.57Z"/><path class="cls-12" d="M9.62,88.15c.19-.13.36-.34.56-.38a7.07,7.07,0,0,1,1.13-.06c0,.41,0,.83,0,1.24Z"/><path class="cls-11" d="M25.83,2c-.42,1.45-1.39,1-2.32.65Z"/><path class="cls-11" d="M68.18,6c-1.28.68-1.54.53-1.57-.91Z"/><path class="cls-11" d="M28,1.46c-.32.61-.69,1-1.39.42Z"/><path class="cls-7" d="M51.53,1.39,50.29,1l.07-.29L51.2.59l.6.26Z"/><path class="cls-11" d="M63.56,3.69l-1,1-.33-.24.53-1.22Z"/><path class="cls-13" d="M98,59.35c.1-.64.19-1.28.28-1.92C98.15,58.07,98.06,58.71,98,59.35Z"/><path class="cls-11" d="M69.38,7.91l-1,.3-.13-.3.81-.53C69.19,7.56,69.28,7.74,69.38,7.91Z"/><path class="cls-13" d="M98.29,56.63v0Z"/><path class="cls-5" d="M97.94,68.08c0-.36.07-.71.1-1.07C98,67.37,98,67.72,97.94,68.08Z"/><path class="cls-10" d="M13,6.35l-1.1.78Z"/><path class="cls-10" d="M14.33,5.73l-.27.75-.26-.39Z"/><path class="cls-10" d="M15.45,5.28l-.28.65-.27-.36Z"/><path class="cls-6" d="M21.5,3l-.68.26Z"/><path class="cls-12" d="M4.75,84.26l.62.37Z"/><path class="cls-11" d="M37.84.33l-.52,0Z"/><path class="cls-12" d="M24.18,92.07l.56.09Z"/><path class="cls-12" d="M11.79,89.26l.38.12Z"/><path class="cls-12" d="M4.47,84l.29.26Z"/><path class="cls-12" d="M4.17,83.74l.3.26Z"/><path class="cls-11" d="M70.68,11l0-.28Z"/><path class="cls-10" d="M16.53,4.77l-.31.16Z"/><path class="cls-10" d="M10.24,8l-.33.21Z"/><path class="cls-12" d="M3.12,82.88c.07.12.15.23.23.35C3.27,83.11,3.19,83,3.12,82.88Z"/><path class="cls-12" d="M42.5,26l6-1c1.51-.23,3-.51,4.54-.69,3.37-.4,6.75-.69,10.11-1.16,2.18-.31,4.22-1,5.27-3.27.19,1.29.47,2.57.53,3.86A8.09,8.09,0,0,1,68.49,26c-1.4,1.74-3.56,1.65-5.43,2.12a50.58,50.58,0,0,1-7.74,1.27c-4.59.38-9.11,1.91-13.74,1.22-2.94-.43-5.83,0-8.73-.21a8.5,8.5,0,0,1-1.3-.32c.52-.26,1-.54,1.55-.75s1.17-.38,1.75-.56a7.31,7.31,0,0,1,4.25-.18,3.42,3.42,0,0,0,2.51-.72C42.09,27.51,42.22,26.64,42.5,26Z"/><path class="cls-10" d="M42.5,26c-.28.62-.41,1.49-.89,1.82a3.42,3.42,0,0,1-2.51.72,7.31,7.31,0,0,0-4.25.18,4.72,4.72,0,0,0-2.6-3.11,1.84,1.84,0,0,0-1.4.05c-.82.45-1.39.9-2.39.08-.64-.53-1.82-.39-2.74-.59a2.79,2.79,0,0,1-.73-.44c3-1.11,6,.23,8.93.35,2.57.1,5.13.35,7.69.56A3.41,3.41,0,0,1,42.5,26Z"/><path class="cls-14" d="M10.76,80.47a22.21,22.21,0,0,0,2.23.91c2.15.62,4.32,1.19,6.48,1.75a30.35,30.35,0,0,1,3,.74c2,.73,3.91,1.57,5.86,2.38a5.42,5.42,0,0,1,.78.5c-1.72,0-3.45,0-5.16-.08-.56,0-1.06-.6-1.63-.77-1.93-.58-3.9-1-5.81-1.66a18.65,18.65,0,0,1-2.64-1.48c-.8-.43-1.66-.75-2.42-1.23C11.12,81.33,11,80.83,10.76,80.47Z"/><path class="cls-7" d="M29.74,7.18c-.71,1-1.43,1.86-2.88,1.4-.43-.14-1,.15-1.47.16-.68,0-1.36,0-2-.07l2.23-1.59.71,1C27.41,7.72,28.19,5.94,29.74,7.18Z"/><path class="cls-4" d="M15.42,24.15a26.45,26.45,0,0,1,3-.52,3.73,3.73,0,0,1,1.35.48c-.32.44-.8,1.3-.95,1.25C17.72,25,16.1,25.79,15.42,24.15Z"/><path class="cls-10" d="M20.9,24.4l2.49.36c-.29.7-.51,1.49-1.4.46A6.34,6.34,0,0,0,20.9,24.4Z"/><path class="cls-7" d="M22.84,8.64,22,8.78l.42-.51Z"/><path class="cls-4" d="M14,24.24l.61,0Z"/><path class="cls-12" d="M29.16,30.25l-.6-.14Z"/><path class="cls-12" d="M30.58,30.2l-.65.15Z"/><path class="cls-4" d="M42.5,87,43,86.8Z"/><path class="cls-12" d="M28.1,30.18l-.37.17Z"/><path class="cls-14" d="M29.64,86.78l.3,0Z"/><path class="cls-15" d="M73.59,61.8c0,.85,0,1.69,0,2.53a36.91,36.91,0,0,1-.18,3.8c-.19,1.46-.56,2.9-.85,4.35-1.89-.64-1.9-.64-1.16-2.5.19-.48.62-.88.74-1.36.2-.76.59-1.79.26-2.29C71.56,65,72,63.79,72,62.51S72.67,61.16,73.59,61.8Z"/><path class="cls-15" d="M73.66,52c0,.82,0,1.65-.06,2.47-.1,2-.22,4-.33,6-.22-.06-.49-.06-.64-.2-.35-.32-.08-4,.31-4.26.79-.57.46-1.17,0-1.75-.31-.41-.65-.79-1-1.23Z"/><path class="cls-3" d="M80.48,39.18l-2.75-1.94C78.74,37.76,80.24,37.58,80.48,39.18Z"/><path class="cls-15" d="M73.87,49.78l-.21,1.65L72,50.53Z"/><path class="cls-15" d="M72.78,78l.66,1.88C71.85,79.77,71.85,79.76,72.78,78Z"/><path class="cls-9" d="M80.26,87.77l2,1.32A1.73,1.73,0,0,1,80.26,87.77Z"/><path class="cls-15" d="M72.18,73.84c0,.36-.05.73-.08,1.09l-1-.07L71,74.57Z"/><path class="cls-15" d="M72.35,75.7c.1.57.21,1.15.31,1.72C72.56,76.85,72.45,76.27,72.35,75.7Z"/><path class="cls-3" d="M77.54,37.14l-.81-.5Z"/><path class="cls-15" d="M74,49l.43.38-.39.29Z"/><path class="cls-3" d="M82.12,40.26l-.61-.5Z"/><path class="cls-9" d="M78.6,86.43l.21.58Z"/><path class="cls-5" d="M92.3,73.59c0-.28,0-.56,0-.84l2.09,1.15-.79,1.32C93.35,74.55,93.66,73.38,92.3,73.59Z"/><path class="cls-16" d="M92.3,73.59c1.36-.21,1,1,1.34,1.63l-1.22.27Z"/><path class="cls-17" d="M45.51,5.67l-1.35.07c.44-2.11,1.06-2.31,3.47-1.11l1.84-2.38.13.36,1.67-.38.26,0a7.25,7.25,0,0,1,1.91-.34,15.7,15.7,0,0,1,2.48.6l.8.57.83.27h0c-.1,1.72-.27,1.83-1.94,1.81-.36,0-.73.46-1.09.72l-7.08-.25C46.77,5.05,46.12,4.91,45.51,5.67Z"/><path class="cls-11" d="M62.17,8.28l-.52-.19L59.51,5.47l1.56-1.29c.11.58.26,1.38.43,2.23l.93-.85.39.14Z"/><path class="cls-11" d="M69.58,9.91l-2,.61C67.89,8.89,68.3,8.73,69.58,9.91Z"/><path class="cls-11" d="M63.9,5.87c1.14-.7,1.72-.71,1.84.87Z"/><path class="cls-11" d="M59.53,3.48c-.22.24-.37.52-.49.51s-.38-.23-.58-.36c.12-.16.22-.46.34-.47S59.21,3.33,59.53,3.48Z"/><path class="cls-11" d="M56.72,3l-.8-.57.91-.13Z"/><path class="cls-11" d="M57.55,3.31l.12-1,.43.14-.55.81Z"/><path class="cls-11" d="M58,5.6c.08,0,.2.05.22.1s-.06.15-.09.22-.19,0-.22-.1S58,5.67,58,5.6Z"/><path class="cls-18" d="M41.41,5.89l-2.17.05a14.17,14.17,0,0,1-.37-1.53,1.38,1.38,0,0,1,.14-1,1.15,1.15,0,0,1,.93-.37c1.17.35,2.3.8,3.59,1.27,0,.59-.33,1.17-1.35,1.16C41.92,5.51,41.67,5.76,41.41,5.89Z"/><path class="cls-8" d="M37.31,6,33.2,6l-.93-.45c.62-.63,1.17-1.24,1.78-1.79a.73.73,0,0,1,.7,0c.64.73,1.19.69,1.61-.2C36.71,4.48,37,5.24,37.31,6Z"/><path class="cls-6" d="M42,1.94l.92-.74a8.39,8.39,0,0,1,.44,1,3.56,3.56,0,0,1,0,.8C42.37,3.29,42.18,2.6,42,1.94Z"/><path class="cls-6" d="M44.15,2.76l.78-1.14c.28.67.43,1,.59,1.41Z"/><path class="cls-6" d="M46.61,2.48,48,2.21C47.76,3.51,47.15,2.79,46.61,2.48Z"/><path class="cls-6" d="M68.46,13.76l-.36-.87Z"/><path class="cls-4" d="M18.06,42.91c-1.92-.84-2.29-1.66-2-3.67.2-1.64.2-3.3.36-4.94,0-.37.39-1,.64-1a4,4,0,0,1,1.91.27,1.3,1.3,0,0,1,.57,1c0,2.43.2,4.9-.79,7.22A10,10,0,0,1,18.06,42.91Z"/><path class="cls-4" d="M14.39,58.2c2.95-1.12,3.25.52,3.42,2.74a10.41,10.41,0,0,1-.59,3.69c-.14.44-.89.75-1.42,1-.12,0-.55-.54-.75-.88C13.81,62.64,14.55,60.41,14.39,58.2Z"/><path class="cls-6" d="M16.25,54.76c-.63-2.3-1.46-4.17-.91-6.28a5.58,5.58,0,0,0,.4-1.43c0-1,.65-1.17,1.31-1.2s1.13.24,1.4,1.11c.65,2.16-.4,4-.72,6C17.65,53.54,16.92,54,16.25,54.76Z"/><path class="cls-5" d="M14.42,76.33c-.14-1.75-.28-3.5-.41-5.2,2.13-.76,2.63-.47,2.91,1.63.12.9.11,1.82.16,2.74C16,75.13,15,75.1,14.42,76.33Z"/><path class="cls-7" d="M14.42,76.33c.59-1.23,1.57-1.2,2.66-.83-.08,1.3-.14,2.61-.27,3.91a1.08,1.08,0,0,1-.56.74,4.06,4.06,0,0,1-1.54.34,8,8,0,0,1-.55-2.3A9.25,9.25,0,0,1,14.42,76.33Z"/><path class="cls-17" d="M39.79,8.89a12.23,12.23,0,0,0,6.54.4c.47.28.91.75,1.41.81a37.55,37.55,0,0,0,4,.18c.12,0,.24-.24.36-.37a4.44,4.44,0,0,1,2.71,6.5,6,6,0,0,1-3,2.28c-2.09.79-4.32,1.24-6.49,1.83-.17.05-.39,0-.52.14-1.05.86-2.17.71-3.43.5-1.67-.28-3.42-.13-5.11-.34a25.18,25.18,0,0,1-3.77-.9,11.57,11.57,0,0,1-2.21-.84,4,4,0,0,1-.89-.93,11,11,0,0,1,1.8-2.32c.37-.29,1.27.11,1.94.19-.19-1.51-.18-1.5,1-3.13.15-.2.06-.65,0-1a7,7,0,0,0-.57-1l.84-.45c0,.14,0,.31.05.4a10.34,10.34,0,0,0,3.75.27C38.67,10.39,39.23,9.63,39.79,8.89Zm2.18,7,.81,0c1.72.83,3.43.14,5.12-.08.42-.05.77-.69,1.15-1.06l1-.81-6.12-.57-.28,0H42.24l-1.37.08c-.35-1-.91-1.26-1.8-.54a2.19,2.19,0,0,1-.74.28L34,14.5l.09.54c1.15.43,2.24,1.16,3.61.73l3.88.3Z"/><path class="cls-19" d="M33.45,10.9a7,7,0,0,1,.57,1c.1.3.19.75,0,1-1.17,1.63-1.18,1.62-1,3.13-.67-.08-1.57-.48-1.94-.19a11,11,0,0,0-1.8,2.32c-1.69-.76-1.3-2.16-.83-3.36a7.77,7.77,0,0,1,3.9-4.45Z"/><path class="cls-19" d="M39.79,8.89c-.56.74-1.12,1.5-1.7,2.23a10.34,10.34,0,0,1-3.75-.27c-.07-.09,0-.26-.05-.4l1.65-.88c.93-.23,1.85-.49,2.79-.69A4.7,4.7,0,0,1,39.79,8.89Z"/><path class="cls-16" d="M52.07,9.91c-.12.13-.24.38-.36.37a37.55,37.55,0,0,1-4-.18c-.5-.06-.94-.53-1.41-.81a5.5,5.5,0,0,1,4.53-.37C51.33,9.07,51.67,9.57,52.07,9.91Z"/><path class="cls-20" d="M35.94,9.57l-1.65.88-.84.45-1.05-.56A19.56,19.56,0,0,1,34.22,9C35,8.54,35.62,8.65,35.94,9.57Z"/><path class="cls-7" d="M45.51,5.67c.61-.76,1.26-.62,1.93-.08Z"/><path class="cls-21" d="M42.78,15.89l-.81,0-.37.14-3.88-.3c.07-.38,0-1,.22-1.11.94-.5,2-.85,2.93-1.26l1.37-.08H43.6l.28,0,6.12.57-1,.81A12.34,12.34,0,0,0,42.78,15.89Z"/><path class="cls-16" d="M40.87,13.4c-1,.41-2,.76-2.93,1.26-.21.12-.15.73-.22,1.11-1.37.43-2.46-.3-3.61-.73L34,14.5l4.31-1.36a2.19,2.19,0,0,0,.74-.28C40,12.14,40.52,12.4,40.87,13.4Z"/><path class="cls-3" d="M42.78,15.89a12.34,12.34,0,0,1,6.27-1.14c-.38.37-.73,1-1.15,1.06C46.21,16,44.5,16.72,42.78,15.89Z"/><path class="cls-16" d="M43.05,13.33h0Z"/><path class="cls-3" d="M41.6,16.07l.37-.14Z"/><path class="cls-16" d="M43.88,13.37l-.28,0Z"/></g></svg>