<svg xmlns="http://www.w3.org/2000/svg" viewBox="0 0 100 100"><defs><style>.cls-1{fill:#a07674;}.cls-2{fill:#936260;}.cls-3{fill:#8f5d5b;}.cls-4{fill:#c2a7a6;}.cls-5{fill:#9d716f;}.cls-6{fill:#c6adab;}.cls-7{fill:#a98281;}.cls-8{fill:#b89896;}.cls-9{fill:#976867;}.cls-10{fill:#9b6e6c;}.cls-11{fill:#ad8887;}.cls-12{fill:#bea19f;}.cls-13{fill:#c4aaa9;}.cls-14{fill:#b59493;}.cls-15{fill:#b49290;}.cls-16{fill:#c1a4a3;}.cls-17{fill:#ba9b9a;}.cls-18{fill:#b18e8c;}.cls-19{fill:#a7807f;}.cls-20{fill:#f3eded;}.cls-21{fill:#a57c7b;}.cls-22{fill:#a47a79;}</style></defs><g id="Ebene_18" data-name="Ebene 18"><path class="cls-1" d="M27.7,74.13c-.46-1.1-.83-2.25-1.38-3.3s-1.31-2.07-2-3.09a3.39,3.39,0,0,1-.41-3.15c.54-1.46.88-3,1.46-4.43C26.64,57.09,28,54.05,29.29,51c.25-.6.43-1.23.73-1.81.42-.79,1-1.52,1.37-2.33.84-1.77,1.59-3.57,2.41-5.35q1-2.26,2.14-4.49c1.09-2.2,2.2-4.4,3.34-6.58s2.34-4.22,3.45-6.36c1.28-2.47,2.47-5,3.73-7.47.73-1.46,1.47-2.92,2.28-4.33a10.63,10.63,0,0,1,1.5-1.86,3.78,3.78,0,0,0,1-1.9c.19-.39.37-.78.58-1.2l.71.36c-.51.63-.44.79.41,1l.17.17c0,.05,0,.09,0,.13l.35.58.27-.27L53.86,9h1.5c.07.71.13,1.42.2,2.12-.67.46-1.16,0-1.68-.31l-.47-.19c-.19,0-.44-.14-.58-.06-.83.44-.9,1.46-1.49,2.09,0,0,.08.22.13.33-.5.77-.94,1.58-1.49,2.31a28.41,28.41,0,0,0-3.62,7c-.53,1.38-1.08,2.74-1.65,4.1-.38.91-.81,1.81-1.18,2.73-.29.7-.45,1.45-.8,2.11-1,1.86-2.07,3.65-3,5.51-1.21,2.34-2.32,4.72-3.5,7.07-.78,1.57-1.64,3.1-2.4,4.68s-1.39,3.28-2.16,4.89c-1,2.19-2.2,4.32-3.19,6.53a47,47,0,0,0-1.85,5,1.84,1.84,0,0,0,.12,1.86c.44.55.8,1.16,1.2,1.74a12.65,12.65,0,0,1,2.16,3.69,8,8,0,0,0,.81,1.48c.3-.77.53-1.37.78-2l2.56-6.27.84-.76.33.43-.37.76-.11.3c-.28,1.65-.49,3.31-.88,4.93-.45,1.9-1.08,3.75-1.6,5.63-.28,1-.38,2-.74,3A1.29,1.29,0,0,0,32,81.19c.77.73,1.61,1.39,2.43,2.08.22.45.42.92.67,1.36.12.21.37.34.5.55.34.58.64,1.19,1,1.78.06.11.16.24.27.26.88.18.64,1,.92,1.55s.64,1.18,0,1.86c1.33-.45,1.35-.47,1.4-1.63l.15-1.65,0-.47,0-.59,1-.53.45.16.1-.22-1-.51-.49.63v-1.5l.55.61a3.65,3.65,0,0,0,.17-.79c0-1.18,0-1.23,1.06-1l.41,1.19c.1,1.48.2,3,.29,4.42a.15.15,0,0,1,0,.07V91l-.74.65-.51-.15.08,1.07-1.25-.67-.13.16a3.59,3.59,0,0,0,.27.47c.28.37.32.66-.17.9-.15.08-.21.32-.34.45-.3.31-.63.61-.94.91-.08-.45-.15-.91-.26-1.35a4.91,4.91,0,0,0-.35-.78v-.29l.84-.62,0-.13-1,.12-.13-.16L37,91c-.51-.79-1-1.61-1.54-2.35a8.56,8.56,0,0,0-1.23-1.09c-1.47-1.6-3-3.17-4.37-4.82a13.34,13.34,0,0,1-1.24-2.19c.09-.11.28-.23.27-.33a8.28,8.28,0,0,1,0-2.72,3.35,3.35,0,0,0-.42-1.65C28.28,75.25,28,74.7,27.7,74.13ZM39.81,91.06l.22.12c.15-.19.42-.38.41-.56s-.28-.39-.44-.59l-.19.12Zm1-5c-.06.14-.14.23-.12.28s.14.12.21.18.14-.14.13-.21S41,86.19,40.86,86.07Zm-.07-1.57c-.06-.06-.1-.14-.15-.15s-.12,0-.18.05.07.15.12.18S40.7,84.54,40.79,84.5Z"/><path class="cls-2" d="M55.68,84.16a.12.12,0,0,1,0-.09,4,4,0,0,0-.15-.62,20.22,20.22,0,0,1-.85-1.91,1.43,1.43,0,0,0-1.49-1.14c-1.71-1-2.69,0-3.54,1.43L48.35,80.4l-.26,2.52-.41,0,.13-2.53c.09-.2.29-.44.24-.59a7.74,7.74,0,0,1-.59-2.34A10.24,10.24,0,0,0,47,75.27c0-.17-.34-.26-.52-.38.08-.5.15-1,.23-1.49v-.31c-.07-1.61-.15-3.23-.22-4.84.18.29.49.56.52.86.07.92,0,1.84.06,2.76a2.73,2.73,0,0,0,.3.79l.25,0c-.36-1.12.49-1.08,1.06-1.38l.4.82c.33-.45.19-1.35,1-.9l.26-.68.58-1a.09.09,0,0,1,.09,0l.4-.17L54,68.29c.42.5.83.22,1.24,0a12.46,12.46,0,0,1,2-1.09c1.1-.37,2.2-1,3.44-.61v.29a1.61,1.61,0,0,0,0,.38c.21.72,0,1-.8,1-.07,0-.18,0-.21.06a4.08,4.08,0,0,0-.29.5c.17,0,.41.06.49,0a.5.5,0,0,1,.84.06,2.29,2.29,0,0,1,.43,1c.05.29-.18.62-.14.92a10.89,10.89,0,0,0,.34,1.42l-1,.42c.77.22,1.23.39,1,1.15,0,.19.25.61.48.76a9.89,9.89,0,0,0,1.36.62l.49,1.39c0,.67-.21,1.3-1.26,1.07L63,78.82l-1.06.59.22.08c0,.49.12,1,.15,1.47.06.94.1,1.89.14,2.67l1.43.31,0,.26c-.15.08-.35.11-.44.23s-.28.4-.23.56.33.51.46.49c1-.19.88.34.72.71a11.41,11.41,0,0,0,.62,1.1c.32.4-.08,1.36.79,1.18a5.87,5.87,0,0,1,.47,1c.08.35.2,1,.06,1-.59.36-.68,1.12-1.42,1.43a.81.81,0,0,1-1-.06l.28-.82L64,91l-.93.64c-.61-.39-1.24-.76-1.83-1.17a3.29,3.29,0,0,1-.66-.63,9.75,9.75,0,0,0-.72-1c-.39-.38-1-.6-1.29-1-.54-.74-.85-1.67-1.45-2.36C56.74,84.93,56.57,84.06,55.68,84.16Zm5.24-4.9-.24.24.73.73.23-.25Z"/><path class="cls-3" d="M63.08,91.6,64,91l.15.12-.28.82a.81.81,0,0,0,1,.06c.74-.31.83-1.07,1.42-1.43.14-.08,0-.7-.06-1a5.87,5.87,0,0,0-.47-1c-.87.18-.47-.78-.79-1.18a11.41,11.41,0,0,1-.62-1.1c.16-.37.27-.9-.72-.71-.13,0-.4-.29-.46-.49s.1-.41.23-.56.29-.15.44-.23l0-.26-1.43-.31c0-.78-.08-1.73-.14-2.67,0-.49-.1-1-.15-1.47l-.22-.08L63,78.82l-.53-1.19c1.05.23,1.27-.4,1.26-1.07l-.49-1.39a9.89,9.89,0,0,1-1.36-.62c-.23-.15-.53-.57-.48-.76.23-.76-.23-.93-1-1.15l1-.42A10.89,10.89,0,0,1,61,70.8c0-.3.19-.63.14-.92a2.29,2.29,0,0,0-.43-1,.5.5,0,0,0-.84-.06c-.08.08-.32,0-.49,0a4.08,4.08,0,0,1,.29-.5s.14-.06.21-.06c.75,0,1-.28.8-1a1.61,1.61,0,0,1,0-.38L61.9,67c-.15.7.46.69.94.88-.65.57-.59.89.21,1,.18,0,.33.22.51.3s.5.15.75.23l-.14-.76.18-.77c.15.75.3,1.49.46,2.23s.27,1.25.41,1.88a1.9,1.9,0,0,0-.73-.12c-.11,0-.29.44-.23.5.28.33.63.48,1,.07v2l0,.42.12.61a3.37,3.37,0,0,0-.18,2.32,5.15,5.15,0,0,1,.22.9c0,.08.1.21.16.22a.45.45,0,0,0,.31-.12,2.31,2.31,0,0,0,.28-.46c.26.15.64.29.63.38a.55.55,0,0,0,.54.73,8.17,8.17,0,0,0,1.11.08c.06,0,.17-.23.16-.33a2.83,2.83,0,0,0-.23-.54l.76.25c0,.31-.11.75.47.69l.6.32h.15c.18.59.19,1.38.59,1.73.83.72.85,1.73,1.26,2.59a3,3,0,0,0,.36.43l.16-1.15a12.23,12.23,0,0,1,1.34,1c.07.06-.16.44-.28.74.37.45,1,.88.71,1.69l-.77.32a1.63,1.63,0,0,1,.88,1.81c-.2.91-.36,1.83-.62,2.73a15.51,15.51,0,0,1-.74,1.73H73a2.53,2.53,0,0,0-.19.45,1.41,1.41,0,0,0,0,.45.87.87,0,0,1-.23,0c-.91-.19-1.25.11-1.15,1,0,.44,0,.79-.59.82s-.54.34-.36.74.33.82.5,1.22l-.79-.54a4.47,4.47,0,0,1,.15-2,16.26,16.26,0,0,0,0-2.34l-1.69.79-.58-.49-.16.15.46.83A1.36,1.36,0,0,1,67,94.3a8.13,8.13,0,0,0-2.16-1.17.91.91,0,0,0-.37,0c-.17-.21-.33-.44-.52-.64S63.37,91.89,63.08,91.6Zm1.64-10.53c.54.22,1.62.35,1.81.82.36.91,1,1.12,1.72,1.42a1.26,1.26,0,0,0,.45.15c.39,0,.77-.06,1.2-.1v.83L71.1,84l0-.2-.66-.15c.56-.64,0-.86-.33-1.18-.16-.17-.41-.29-.48-.49a1.88,1.88,0,0,0-1.77-1.14,2.83,2.83,0,0,1-1.59-.61,4.64,4.64,0,0,0-1.15-.54c-.22-.07-.5.07-.65.1Z"/><path class="cls-4" d="M63.24,34.13c.76,2.73,1.53,5.46,2.26,8.2s1.49,5.73,2.19,8.61c.58,2.41,1.1,4.84,1.64,7.27s1,4.59,1.5,6.86c.61,2.54,1.29,5.06,1.94,7.59a.25.25,0,0,1-.12,0c-.2-.33-.4-.5-.63,0l-.43,0c-.08-.38-.15-.76-.25-1.14a19.85,19.85,0,0,1-.61-2.26c-.08-.55-.25-.77-.79-.7a10.33,10.33,0,0,1-.35-1c-.27-1.18-.47-2.37-.78-3.54-.55-2.14-1.18-4.27-1.73-6.41C66.35,54.78,65.63,52,65,49.1c-.49-2.18-.85-4.39-1.29-6.58-.32-1.6-.65-3.2-1-4.79-.18-.8-.43-1.59-.64-2.39l1.11.75c-.09-.7-.17-1.19-.2-1.68C62.94,34.32,63.14,34.22,63.24,34.13Z"/><path class="cls-5" d="M71.59,72.64l.43,0,.63,0a.25.25,0,0,0,.12,0l0,.44c.1.77.19,1.55.33,2.32a4.62,4.62,0,0,0,.37,1.16c.23.48.52.93.78,1.39.54,2.32,1.16,4.62,1.6,7a20.64,20.64,0,0,1,.39,4.7,13.45,13.45,0,0,1-1,3.29,7.07,7.07,0,0,1-.5.94c-.12,0-.31-.17-.37-.12-.45.38-.8.15-1.14-.17A15.51,15.51,0,0,0,74,91.83c.26-.9.42-1.82.62-2.73a1.63,1.63,0,0,0-.88-1.81l.77-.32c.31-.81-.34-1.24-.71-1.69.12-.3.35-.68.28-.74a12.23,12.23,0,0,0-1.34-1l-.16,1.15a3,3,0,0,1-.36-.43c-.41-.86-.43-1.87-1.26-2.59-.4-.35-.41-1.14-.59-1.73l1.67.89a8.82,8.82,0,0,1,.29,1.39c0,1,.1,1.09.89.66-.15-.35-.27-.68-.42-1s-.41-.71-.61-1.07l-.14-.74.25-.19-.49-.43-1.1-4.22.78.51,0-.79.16,0,.4.62c.33-.49.3-.63-.16-.93A1.34,1.34,0,0,1,71.59,72.64Z"/><path class="cls-6" d="M63.24,34.13c-.1.09-.3.19-.29.28,0,.49.11,1,.2,1.68L62,35.34a3.39,3.39,0,0,1-.15-.41c-.6-3.37-2.08-6.44-3.15-9.65-.83-2.5-1.81-4.94-2.67-7.42-.51-1.45-.92-2.92-1.37-4.38-.28-.9-.54-1.81-.82-2.71.52.34,1,.77,1.68.31.54,1.54,1.08,3.07,1.6,4.61.69,2.08,1.34,4.16,2,6.23.94,2.75,1.94,5.48,2.87,8.24C62.51,31.46,62.86,32.8,63.24,34.13Z"/><path class="cls-7" d="M52.92,8.66c-.85-.19-.92-.35-.41-1l-.71-.36c-.21.42-.39.81-.58,1.2.24-1.3.52-2.59.7-3.89.12-.89,0-1.8.16-2.69A4.18,4.18,0,0,1,52.55.65.74.74,0,0,1,53.71.32l.57,0,.19.13c-.59.45-.39.87-.06,1.41A5.94,5.94,0,0,1,55,3.69a14.46,14.46,0,0,1,.19,1.74c0,.52.11,1,.17,1.56L54,6.84c-.13-.74-.26-1.49-.38-2.24l-.25,0Z"/><path class="cls-8" d="M63.08,91.6c.29.29.58.58.86.88s.35.43.52.64.1.69.3.82c1,.67,2.11,1.25,3.13,1.91.61.41,1.52.6,1.45,1.63a27.21,27.21,0,0,1-10-8.27c-1-1.48-2.19-2.89-3.28-4.33a6.3,6.3,0,0,1-.4-.72c.89-.1,1.06.77,1.45,1.23.6.69.91,1.62,1.45,2.36.32.43.9.65,1.29,1a9.75,9.75,0,0,1,.72,1,3.29,3.29,0,0,0,.66.63C61.84,90.84,62.47,91.21,63.08,91.6Z"/><path class="cls-9" d="M38.11,94.78c.31-.3.64-.6.94-.91.13-.13.19-.37.34-.45.49-.24.45-.53.17-.9a3.59,3.59,0,0,1-.27-.47l.13-.16,1.25.67-.08-1.07.51.15.74-.65,0,.2c.63.61-.31,1-.26,1.46.75.29,1.14.86.76,1.14s-.32.89-.45,1.33l0,0,0,0-1.18-.38L40.43,96H41a2.28,2.28,0,0,1-2.29,1.36,8.23,8.23,0,0,0-.15-1.11C38.42,95.76,38.26,95.27,38.11,94.78Z"/><path class="cls-5" d="M69.34,97.48c.07-1-.84-1.22-1.45-1.63-1-.66-2.11-1.24-3.13-1.91-.2-.13-.21-.54-.3-.82a.91.91,0,0,1,.37,0A8.13,8.13,0,0,1,67,94.3a1.36,1.36,0,0,0,1.41.41l-.46-.83.16-.15.58.49,1.69-.79a16.26,16.26,0,0,1,0,2.34,4.47,4.47,0,0,0-.15,2Z"/><path class="cls-10" d="M73.27,93.56c.34.32.69.55,1.14.17.06,0,.25.08.37.12l-1,1.69-.32-.43a1.69,1.69,0,0,0-1,1.75c.15.8.41,1.56-.65,1.71,0,.43.09.76.13,1.09L71,98.27c-.17-.4-.33-.81-.5-1.22s-.13-.72.36-.74.64-.38.59-.82c-.1-.92.24-1.22,1.15-1a.87.87,0,0,0,.23,0c.27,0,.56,0,.28-.41a2,2,0,0,1-.14-.49Z"/><path class="cls-11" d="M71.86,99.66l-.13-1.09c1.06-.15.8-.91.65-1.71a1.69,1.69,0,0,1,1-1.75l.32.43a13.44,13.44,0,0,0-.19,1.4c0,.58,0,1.16,0,1.74a7.68,7.68,0,0,1-.23,1.14C72.86,99.65,72.28,100.42,71.86,99.66Z"/><path class="cls-12" d="M27.7,74.13c.27.57.58,1.12.81,1.7a3.35,3.35,0,0,1,.42,1.65,8.28,8.28,0,0,0,0,2.72c0,.1-.18.22-.27.33-.73-.37-.7-1.16-.77-1.76C27.72,77.24,27.75,75.68,27.7,74.13Z"/><path class="cls-13" d="M55.37,7c-.06-.52-.12-1-.17-1.56A14.46,14.46,0,0,0,55,3.69a5.94,5.94,0,0,0-.6-1.81c-.33-.54-.53-1,.06-1.41.15.15.38.27.43.45.37,1.44.79,2.89,1,4.36A4.51,4.51,0,0,1,55.49,7Z"/><path class="cls-1" d="M41.92,95.12c.13-.44-.07-1,.45-1.33s0-.85-.76-1.14c0-.51.89-.85.26-1.46l.46-.21.32,1.33.78.06c-.14.48-.29,1,.51.9C43.69,94.35,42.51,94.42,41.92,95.12Z"/><path class="cls-14" d="M38.11,94.78c.15.49.31,1,.43,1.47a8.23,8.23,0,0,1,.15,1.11c-1.12-.42-1.15-.6-1.18-1.84a18.4,18.4,0,0,0-.46-2.72l.45-.15a4.91,4.91,0,0,1,.35.78C38,93.87,38,94.33,38.11,94.78Z"/><path class="cls-15" d="M53.09,81.2c0-.27,0-.53,0-.8a1.43,1.43,0,0,1,1.49,1.14,20.22,20.22,0,0,0,.85,1.91,4,4,0,0,1,.15.62l-1-1.15Z"/><path class="cls-15" d="M55.37,7h.12c0,.09,0,.19,0,.29-.36.12-.38.28,0,.47L55.36,9H54c0-.71,0-1.42,0-2.13Z"/><path class="cls-16" d="M34.26,87.54a8.56,8.56,0,0,1,1.23,1.09c.56.74,1,1.56,1.54,2.35l-.58.15c-.23-.37-.47-.73-.69-1.1Z"/><path class="cls-8" d="M49.67,86.5a12,12,0,0,0,.69-1.73c.2-.81.23-1.66.42-2.47a8.71,8.71,0,0,1,.64-1.48c-.24,1.29-.41,2.6-.75,3.87A8.71,8.71,0,0,1,49.67,86.5Z"/><path class="cls-4" d="M74.27,78c-.26-.46-.55-.91-.78-1.39a4.62,4.62,0,0,1-.37-1.16c-.14-.77-.23-1.55-.33-2.32.1.22.22.43.3.66.39,1.23.78,2.46,1.15,3.7A1.73,1.73,0,0,1,74.27,78Z"/><path class="cls-8" d="M44.3,92.19l2.3-2.57.37,0c-.06,1-1,1.35-1.51,2a8.39,8.39,0,0,1-.82.75A3.79,3.79,0,0,1,44.3,92.19ZM46,90.57s.09.06.12.05,0-.08.06-.12-.1-.06-.13,0S46.05,90.53,46,90.57Z"/><path class="cls-1" d="M41,96h-.55l.32-1.26,1.18.38Z"/><path class="cls-17" d="M44.3,92.19a3.79,3.79,0,0,0,.34.2c-.23.3-.47.59-.7.88-.8.06-.65-.42-.51-.9Z"/><path class="cls-16" d="M37.5,92.65l-.45.15-.37-1.18.53-.05.13.16c0,.21.11.42.16.63Z"/><path class="cls-14" d="M37.21,91.57l-.53.05c-.08-.17-.16-.33-.23-.49L37,91Z"/><path class="cls-8" d="M48.69,87.77l.88-1Z"/><path class="cls-13" d="M54.28.34l-.57,0C53.91-.06,54.11-.16,54.28.34Z"/><path class="cls-15" d="M52.19,80.67l.48.29Z"/><path class="cls-13" d="M55.46,7.76c-.33-.19-.31-.35,0-.47C55.49,7.44,55.48,7.6,55.46,7.76Z"/><path class="cls-8" d="M51.57,80.63h0Z"/><path class="cls-12" d="M34.22,65.39c.34-1,.62-2,1-3,.92-2.29,1.89-4.56,2.84-6.83a6.19,6.19,0,0,1,.3-.57h.26c.06.36.26.75.17,1.06a64.7,64.7,0,0,1-3.25,8.75,2.13,2.13,0,0,1-.16.25l-.33-.43Z"/><path class="cls-16" d="M40.2,80.82l.17.24h.19c.37-2.85.73-5.69,1.1-8.54l.25-.11c.13.24.38.48.38.72-.07,1.83-.17,3.67-.28,5.5a14.81,14.81,0,0,1-.2,1.49c-.08.52-.47,1,.11,1.53.09.07,0,.37-.06.57-.11.69-.23,1.38-.34,2.08-.14-.4-.28-.8-.41-1.2a1.47,1.47,0,0,0-.92-1.58C39.83,81.35,39.74,81.05,40.2,80.82Z"/><path class="cls-18" d="M34.45,83.27a15.39,15.39,0,0,1,3.76,4.5c.28.43.62.82.94,1.23,0,1.16-.07,1.18-1.4,1.63.67-.68.33-1.27,0-1.86s0-1.37-.92-1.55c-.11,0-.21-.15-.27-.26-.33-.59-.63-1.2-1-1.78-.13-.21-.38-.34-.5-.55C34.87,84.19,34.67,83.72,34.45,83.27Z"/><path class="cls-19" d="M40.2,80.82c-.46.23-.37.53,0,.71a1.47,1.47,0,0,1,.92,1.58c-1.07-.2-1.11-.15-1.06,1a3.65,3.65,0,0,1-.17.79l-.55-.61A22,22,0,0,1,40,78.38l.38.05Z"/><path class="cls-20" d="M54,6.84c0,.71,0,1.42,0,2.13h-.16l-.46-.16a.32.32,0,0,0-.14,0h-.17l-.17-.17.45-4,.25,0C53.74,5.35,53.87,6.1,54,6.84Z"/><path class="cls-18" d="M53.41,10.58a9.8,9.8,0,0,0-.43.94c-.23.78-.53,1.45-1.51,1.42,0-.11-.17-.29-.13-.33.59-.63.66-1.65,1.49-2.09C53,10.44,53.22,10.56,53.41,10.58Z"/><path class="cls-19" d="M39.32,86.29l0-.47.49-.63,1,.51-.1.22-.45-.16Z"/><path class="cls-9" d="M39.81,91.06v-.91L40,90c.16.2.42.38.44.59s-.26.37-.41.56Z"/><path class="cls-14" d="M37.5,92.36c0-.21-.11-.42-.16-.63l1-.12,0,.13Z"/><path class="cls-7" d="M53.26,8.83a.32.32,0,0,1,.14,0l.32.45-.27.27L53.1,9Z"/><path class="cls-15" d="M53.72,9.27l-.32-.45.46.16Z"/><path class="cls-19" d="M40.86,86.07c.12.12.22.18.22.25s-.08.14-.13.21-.17-.11-.21-.18S40.8,86.21,40.86,86.07Z"/><path class="cls-19" d="M39.3,87.35l0-.47Z"/><path class="cls-19" d="M40.79,84.5c-.09,0-.17.1-.21.08s-.08-.11-.12-.18.13-.06.18-.05S40.73,84.44,40.79,84.5Z"/><path class="cls-12" d="M35,65.82l-.11.3Z"/><path class="cls-15" d="M53.26,8.83,53.1,9s0-.08,0-.13Z"/><path class="cls-1" d="M49.13,60.53c.18,1.35.35,2.71.53,4.07-.27.11-.67.15-.76.34a.5.5,0,0,0,.4.78c.11,0,.27.33.24.48-.13.7-.32,1.39-.49,2.11.9.38.35,1,.27,1.28l1.06,1-.26.68c-.86-.45-.72.45-1,.9l-.4-.82c-.57.3-1.42.26-1.06,1.38l-.25,0a2.73,2.73,0,0,1-.3-.79c0-.92,0-1.84-.06-2.76,0-.3-.34-.57-.52-.86a26.71,26.71,0,0,1-.33-8.6c.05-.39.39-.74.45-1.13.11-.74.11-1.5.15-2.25l.55,0a6.63,6.63,0,0,1,.53-1c.68.19.42.79.46,1.28a11.64,11.64,0,0,0,.42,3.57C48.78,60.28,49,60.39,49.13,60.53Z"/><path class="cls-10" d="M63.13,61.69c.21.8.44,1.59.63,2.4s.43,1.94.61,2.92a4,4,0,0,1,0,.91l-.18.77c-.28-.21-.67-.37-.82-.66a2,2,0,0,0-1.45-1l-1.21-.16v-.29l.15-.15c.63,0,.35-.47.3-.7-.36-1.8-.78-3.58-1.16-5.37a6.69,6.69,0,0,1-.07-.9c.24.54.49,1.07.78,1.7l.72-1.28,1.1.17.29.61.31.91H63l-1-1.09c-.14.13-.45.34-.42.41A10.24,10.24,0,0,0,62.15,62l-.89,1.23a12.72,12.72,0,0,0,0,1.53,11.88,11.88,0,0,0,.34,1.4l.23,0,.47-.71a10.41,10.41,0,0,0,.36,1.08,2.74,2.74,0,0,0,.43.55c.21-.2.6-.42.58-.6a17,17,0,0,0-.42-2.1c-.07-.34-.18-.67-.27-1a1.33,1.33,0,0,0-.25.6,2.73,2.73,0,0,1-.33.53c-.14-.19-.42-.39-.41-.57a8,8,0,0,1,.29-1.35c.52.22.74,0,.67-.48Z"/><path class="cls-11" d="M50.38,70.54l-1.06-1c.08-.28.63-.9-.27-1.28.17-.72.36-1.41.49-2.11,0-.15-.13-.47-.24-.48a.5.5,0,0,1-.4-.78c.09-.19.49-.23.76-.34l.15.43-.29.36.37.12a5.67,5.67,0,0,1,.19.79c.09,1.15.17,2.29.26,3.49l.62-.21Z"/><path class="cls-1" d="M60.83,66.43l-.15.15c-1.24-.34-2.34.24-3.44.61a12.46,12.46,0,0,0-2,1.09c-.41.23-.82.51-1.24,0,1.41-.61,2.79-1.28,4.23-1.82A2.94,2.94,0,0,1,60.83,66.43Z"/><path class="cls-3" d="M60.92,79.26l.72.72-.23.25-.73-.73Z"/><path class="cls-11" d="M51.05,69.53l.4-.17Z"/><path class="cls-2" d="M64.72,81.07l-.28-1.31c.15,0,.43-.17.65-.1a4.64,4.64,0,0,1,1.15.54,2.83,2.83,0,0,0,1.59.61A1.88,1.88,0,0,1,69.6,82c.07.2.32.32.48.49.31.32.89.54.33,1.18l.66.15,0,.2-1.2.22v-.83c-.43,0-.81.09-1.2.1a1.26,1.26,0,0,1-.45-.15c-.71-.3-1.36-.51-1.72-1.42C66.34,81.42,65.26,81.29,64.72,81.07Z"/><path class="cls-1" d="M65.4,75.48a1.78,1.78,0,0,1,.08.59,1.44,1.44,0,0,0,.72,1.79,20.57,20.57,0,0,0,2.2.8,2.83,2.83,0,0,1,.23.54c0,.1-.1.33-.16.33a8.17,8.17,0,0,1-1.11-.08.55.55,0,0,1-.54-.73c0-.09-.37-.23-.63-.38a2.31,2.31,0,0,1-.28.46.45.45,0,0,1-.31.12c-.06,0-.14-.14-.16-.22a5.15,5.15,0,0,0-.22-.9A3.37,3.37,0,0,1,65.4,75.48Z"/><path class="cls-2" d="M61.9,67a2,2,0,0,1,1.45,1c.15.29.54.45.82.66l.14.76c-.25-.08-.51-.13-.75-.23s-.33-.28-.51-.3c-.8-.12-.86-.44-.21-1C62.36,67.72,61.75,67.73,61.9,67Z"/><path class="cls-21" d="M69.16,78.91,72,80.07h.1l.14.74-.15,0-1.67-.89h-.15l-.18-.55-.42.23C69.05,79.66,69.21,79.22,69.16,78.91Z"/><path class="cls-10" d="M65.22,72l0,.45c-.35.41-.7.26-1-.07-.06-.06.12-.48.23-.5A1.9,1.9,0,0,1,65.22,72Z"/><path class="cls-5" d="M69.63,79.6l.42-.23.18.55Z"/><path class="cls-5" d="M73,93.57a2,2,0,0,0,.14.49c.28.41,0,.4-.28.41a1.41,1.41,0,0,1,0-.45A2.53,2.53,0,0,1,73,93.57Z"/><path class="cls-1" d="M65.24,74.45c0,.14,0,.28,0,.42C65.27,74.73,65.25,74.59,65.24,74.45Z"/><path class="cls-22" d="M70.72,75.22A19.63,19.63,0,0,0,70.25,73c-.48-1.48-.11-3-.31-4.5.54-.07.71.15.79.7a19.85,19.85,0,0,0,.61,2.26c.1.38.17.76.25,1.14a1.34,1.34,0,0,0,.35,2c.46.3.49.44.16.93l-.4-.62-.16,0,0,.79Z"/><path class="cls-22" d="M72.65,72.64l-.63,0C72.25,72.14,72.45,72.31,72.65,72.64Z"/><path class="cls-3" d="M72.05,80.82l.15,0c.2.36.42.71.61,1.07s.27.65.42,1c-.79.43-.85.37-.89-.66A8.82,8.82,0,0,0,72.05,80.82Z"/><path class="cls-3" d="M72.06,80.06H72c0-.21-.09-.42-.14-.63l.49.43Z"/><path class="cls-1" d="M42.89,90.4l.65-.81a1.69,1.69,0,0,1,.12.65c0,.17-.23.32-.36.48Z"/><path class="cls-1" d="M44.2,91.41,44,91l.2-.1.25.45Z"/><path class="cls-1" d="M42.33,91l.31-.31Z"/><path class="cls-4" d="M49.13,60.53c-.14-.14-.35-.25-.42-.41a11.64,11.64,0,0,1-.42-3.57c0-.49.22-1.09-.46-1.28a6.63,6.63,0,0,0-.53,1l-.55,0c-.1-2.83-.22-5.67-.28-8.5,0-.8.2-1.6.2-2.4,0-2-.08-4-.06-6.06a22.75,22.75,0,0,1,.24-2.46,3.83,3.83,0,0,1,.66-.48c.53-.23.74-1,1.48-.88l-.13,1.06c-.31.72-.61,1.44-1,2.23l.81-.1c0,2.13.13,4.27.13,6.4,0,1.53-.13,3.06-.14,4.6,0,1,.13,2,.18,3.08,0,.64,0,1.28,0,1.92C49,56.63,49.06,58.58,49.13,60.53Z"/><path class="cls-16" d="M59.44,53.19V53l1,0-.07-1.58-.8.17c-.23-1.31-.51-2.62-.7-3.94-.38-2.7-.72-5.41-1-8.13-.11-.91-.13-1.84-.2-2.76l.2-.12a4.27,4.27,0,0,1,1,.66,3,3,0,0,1,1,1.83c.21,2.19.47,4.39.78,6.57.23,1.68.58,3.34.89,5,.08.44.19.87.28,1.31-.63.27-1,.67-.64,1.31l-1.76.52,0-.33Z"/><path class="cls-1" d="M59.34,53.85l1.76-.52c-.36-.64,0-1,.64-1.31.24,1.92.47,3.85.71,5.77-.1,0-.28,0-.28.05.06.56.14,1.11.21,1.67l.28-.06a.08.08,0,0,1,0,.1v.25l0,.23-.2,0-1.1-.17-.72,1.28c-.29-.63-.54-1.16-.78-1.7s-.21-1-.31-1.52l.48.18a10.79,10.79,0,0,0,.08-1.58c0-.5-.28-1-.28-1.47s-.27-.45-.57-.47Z"/><path class="cls-4" d="M43.43,53.18A2.48,2.48,0,0,1,44,55.26c-.12,1.27-.32,2.54-.42,3.82-.13,1.78-.19,3.56-.32,5.34-.11,1.53-.27,3-.43,4.57a3.16,3.16,0,0,1-.36.79C41.65,68.94,42.44,54.3,43.43,53.18Z"/><path class="cls-4" d="M54.16,20a5,5,0,0,0,0,1,25.09,25.09,0,0,0,.61,3.13c.27.88.82,1.68,1.1,2.55.55,1.74,1,3.51,1.5,5.27.16.56.28,1.13.49,1.67a1.09,1.09,0,0,1-.6,1.5,18.77,18.77,0,0,1-.89-2.38,47.8,47.8,0,0,0-2.07-7.14,8.81,8.81,0,0,1-.49-5.08,5.18,5.18,0,0,1,.17-.56Z"/><path class="cls-8" d="M49,35.49c-.74-.11-1,.65-1.48.88a3.83,3.83,0,0,0-.66.48c.08-2.73.16-5.47.24-8.32,1,.32,1.15,1.11,1.39,1.69a7.88,7.88,0,0,1,.42,2.34C49,33.53,49,34.51,49,35.49Z"/><path class="cls-11" d="M59.3,54.6c.3,0,.57,0,.57.47s.25,1,.28,1.47a10.79,10.79,0,0,1-.08,1.58l-.48-.18C59.49,56.82,59.4,55.71,59.3,54.6Z"/><path class="cls-21" d="M59.53,51.59l.8-.17L60.4,53l-1,0Z"/><path class="cls-17" d="M48.71,38.68l-.81.1c.35-.79.65-1.51,1-2.23Z"/><path class="cls-2" d="M62.66,59.45l-.28.06c-.07-.56-.15-1.11-.21-1.67,0,0,.18,0,.28-.05Z"/><path class="cls-2" d="M62.5,60.05l.2,0,.09.63Z"/><path class="cls-1" d="M49.89,65.51l-.37-.12.29-.36Z"/><path class="cls-21" d="M59.44,53.19l-.08.33Z"/><path class="cls-2" d="M63,61.57h.15a.27.27,0,0,1,0,.12L63,62Z"/><path class="cls-10" d="M62.67,59.8v0Z"/><path class="cls-1" d="M63,61.57V62c.07.52-.15.7-.67.48A8,8,0,0,0,62,63.86c0,.18.27.38.41.57a2.73,2.73,0,0,0,.33-.53,1.33,1.33,0,0,1,.25-.6c.09.33.2.66.27,1a17,17,0,0,1,.42,2.1c0,.18-.37.4-.58.6a2.74,2.74,0,0,1-.43-.55,10.41,10.41,0,0,1-.36-1.08l-.47.71-.23,0a11.88,11.88,0,0,1-.34-1.4,12.72,12.72,0,0,1,0-1.53L62.15,62a10.24,10.24,0,0,1-.63-1.07c0-.07.28-.28.42-.41Z"/></g></svg>