<svg xmlns="http://www.w3.org/2000/svg" viewBox="0 0 100 100"><defs><style>.cls-1{fill:#65abad;}.cls-2{fill:#6caeb0;}.cls-3{fill:#69acae;}.cls-4{fill:#54a1a4;}.cls-5{fill:#57a3a6;}.cls-6{fill:#8abfc0;}.cls-7{fill:#9dc9ca;}.cls-8{fill:#8ec0c2;}.cls-9{fill:#8fc1c3;}.cls-10{fill:#94c4c6;}.cls-11{fill:#5ba5a7;}.cls-12{fill:#91c2c4;}.cls-13{fill:#87bdbe;}.cls-14{fill:#84bbbd;}.cls-15{fill:#8cbfc1;}.cls-16{fill:#92c3c5;}.cls-17{fill:#76b3b5;}.cls-18{fill:#6dafb1;}.cls-19{fill:#a6cecf;}.cls-20{fill:#98c7c8;}.cls-21{fill:#469a9d;}.cls-22{fill:#7fb9ba;}</style></defs><g id="Ebene_4" data-name="Ebene 4"><path class="cls-1" d="M66.55,44.23c0,.13,0,.26,0,.39s-.07.27-.1.41l-.42,1.82c0,.14-.09.28-.14.42s0,.4,0,.6a4.16,4.16,0,0,0-.87.59c-.33.36-.63,1.17-.85,1.13-.81-.11-.84.54-1.15.89a12.4,12.4,0,0,0-.76,1c-1.06.42-1.06.42-1.67-1.06-1.25.12-1.45,1.11-1.79,2-.28.77-.9.79-1.31.1-.25-.43-.42-.91-.76-1.66l-3,6.72L52.82,56l-.3,0c0,1,0,2-.05,3-.25.51-.71,1-.73,1.52-.09,1.83,0,3.67,0,5.51,0,.89.39,1.29,1.26,1.29l.55.22.83.22,1.63,0h.81a5.43,5.43,0,0,1,.81,0,2.37,2.37,0,0,1,.56.26,2.3,2.3,0,0,1,.09-.71c.15-.28.38-.69.62-.73,1.13-.15,2.28-.2,3.42-.28a.25.25,0,0,1,.17.08,6.15,6.15,0,0,0,2.4,4l-.36.56H63.07a17.38,17.38,0,0,1-1.78-1.64A1.38,1.38,0,0,0,59.4,69a5.28,5.28,0,0,0-1.58.88c-1.11,1.17-2.68,1.14-4,1.7a2.49,2.49,0,0,1-2.74-.76c.1-.63,0-1.11-.74-1.31a1.13,1.13,0,0,1-.55-.64c.51-.7,0-1.33-.13-2-.26-1.56.31-3.22-.54-4.71,0,0,0-.18,0-.19.87-.53.43-1.32.55-2s-.76-1-.45-1.66c0-.12,0-.23,0-.34.28-.22.74-.4.81-.67.28-1.18.36-2.41.68-3.57s.21-2.59,1.58-3.32l-.63-.67c.43-1,.84-2,1.23-3,0-.06,0-.13,0-.2s.15-.23.22-.34l1-.47-.85-.88-.75,0-.15-.51-.25.31-.79-.1.3-1.23a3.86,3.86,0,0,1-.24-1.67c0-.1.49-.18.76-.27L55.06,43A23.94,23.94,0,0,1,58,39.86a16.11,16.11,0,0,1,3.85-2.09c1.23-.51,1.28-.39,1-1.76,0-.1,0-.2,0-.3a9.11,9.11,0,0,1,1,.47c.29.17.51.49.8.58a.79.79,0,0,0,.71-.29c.09-.15-.08-.66-.22-.69-.89-.24-.85-.9-.86-1.6s.19-1.55-.15-1.85c-1.21-1.07-.29-2.32-.72-3.62l1,.35a2.59,2.59,0,0,1,1.32,2l-.67.13c.16.87.26,1.57.43,2.27.22,1,.46,1.91.73,2.86.2.69.45,1.37.69,2.05,0,.13,0,.25-.07.38s-.35.32-.39.5A9.88,9.88,0,0,0,66.16,41c0,.57-.39,1.31.5,1.62l0,.38C65.59,43.29,66.38,43.8,66.55,44.23Zm-1.07-5.32c-.63-1.48-1-1.75-1.93-1.46a11.43,11.43,0,0,0-.38,1.78,1.27,1.27,0,0,0,.43.91c.33.26.7.27.93-.29C64.68,39.49,65.11,39.26,65.48,38.91Z"/><path class="cls-2" d="M66.11,15.22l.39.39c-.19.23-.39.45-.79.91L67,16.38l.15.22c0,1-.57.47-1.23.27.3.51.39.88.62,1,1.25.69,1.53,2.08,2.34,3.09s1,2.09,2.35,2.33l.12.43-.31.39.5.23c0,.37.09.73.13,1.1a3.57,3.57,0,0,0,1.22,3.37c.09,1.84.17,3.68.27,5.52,0,.5.09,1,.08,1.48,0,.33-.07.93-.18.94a3.18,3.18,0,0,1-1.86,0c-.33-.19-.35-1-.38-1.62,0-1,0-2.06,0-3.09l.6-.07-.75-1.37c0-.25-.09-.5-.13-.74a3.84,3.84,0,0,0-1-2.7c0-.3-.06-.6-.08-.91A1.16,1.16,0,0,0,69,24.72a1.18,1.18,0,0,1-.55-.7c-.1-.76-.63-1.05-1.21-1.33l-.73-1c-.22-.87-.09-1.95-1.32-2.22-.1,0-.16-.21-.24-.32A26.1,26.1,0,0,1,63.2,17a1.57,1.57,0,0,0-1.73-.81.59.59,0,0,1-.46-.12c-.78-1.13-1.95-.84-3-.84l-2.39-.33c-.24-.56-.53-1.07-1.27-.77-.92.37-1.63.22-2-.69-.92.22-1.69,1.16-2.39.5l-3.9.82L46,15l1,.42-.67.39c-.76.21-1.6.68-2.17-.51v.92l-.59.14-.55-.72-.54.47a3.64,3.64,0,0,1-.55.42c-1.64.94-3.47,1.58-4.68,3.16-.9,1.19-2.15,2.15-2.32,3.76l-1.51.38c-.14.58-.25,1-.34,1.43-.16.82-.32,1.64-.44,2.47,0,.07.22.19.34.28-.08.36-.15.72-.24,1.08a25.7,25.7,0,0,0-.87,3.51c-.21,2-.22,4-.32,6-.18-.13-.42-.22-.53-.39-.47-.71-.88-1.45-1.33-2.16-.19-.29-.43-.55-.79-1,1.41-.09,1.95-.56,1.52-1.73-.05-.13.14-.46.3-.55.75-.44.59-1.16.45-1.74A3.61,3.61,0,0,1,32,27.7c.11-.1.12-.3.17-.45l.38-1.06c-.12-.33-.42-.74-.33-1.05.23-.85-.17-1.1-.86-1.22l0-.49c.12-.39.25-.78.37-1.17l.76-.49.77.51c1.07-1.26,2.08-2.46,3.1-3.65.35-.4.94-.67.73-1.37l1-.86.44-.36,1.16-.87a2.09,2.09,0,0,0,2.11-.75.58.58,0,0,1,.4-.19c.79.06,1.07-.41,1.18-1.08a.15.15,0,0,1,.13,0l.69-.27.41-.25c.15.71.38.47.74.11A7.06,7.06,0,0,1,46.43,12l.45,0c.8-.15,1.59-.34,2.39-.42,1.14-.12,2.29-.15,3.43-.22l.44,0,2.23.07a6.55,6.55,0,0,1,1.42.34,56,56,0,0,1,5.4,3.3,1.51,1.51,0,0,0,2.3-.73l.42.09-.43,1.24Z"/><path class="cls-3" d="M39.63,69.58c-.45-1.6-1.7-2.66-2.66-3.92-.45-.57-.86-1.16-1.28-1.75.07-.75-.36-1.08-1-1.21a.29.29,0,0,1-.07-.12c.06-1.44-.4-2.18-1.42-2.28-.38-.95-.77-1.89-1.13-2.85-.46-1.26-.89-2.52-1.33-3.79-.13-1-.14-2-1.07-2.75l-.23-.6.16-.4c.27.13.76.23.77.38.11,1.19.9.79,1.55.78l.12-1c.23.67.8.62,1.34.62l.19.78,0,.43c.16.48.34.94.47,1.42.38,1.42.69,2.87,1.14,4.27A14.92,14.92,0,0,0,39.72,64L41.8,66a7.22,7.22,0,0,0,.69,1.82,22.42,22.42,0,0,1,3.33,7.33C46.6,78,47.25,81,48,83.92c.24,1,.6,1.91.91,2.87.11.23.22.46.34.69a.19.19,0,0,1,0,.13l.33.48a.26.26,0,0,1,.08.13,1.54,1.54,0,0,0,.17.55c.62.79,1.26,1.58,1.91,2.34a1.71,1.71,0,0,1-.13,2.68l-1.18-.67-1-1-.19-.41-.62-.39-.61-.22c-.24-.42-.51-.83-.72-1.26-.5-1-1-2-1.46-3a.85.85,0,0,0-.45-.38c-.59-.25-.49-.61-.22-1a1.54,1.54,0,0,0-1-2.26l-.31-.82-.09-.58c.2-.22.54-.43.57-.67.07-.63-.32-.94-.94-1-.24-1.32-.47-2.64-.71-4-.1-.23-.21-.46-.32-.69s0-.39-.08-.59l-.12-.43,0,0a23.57,23.57,0,0,1-1-2.61A4.59,4.59,0,0,0,39.63,69.58Z"/><path class="cls-3" d="M48.68,20.61l3.86-.24c.17.6.12,1.2-.5,1.44a3.87,3.87,0,0,1-1.36,0l-1.59,0,0,.35.92.15c-.22.37-.39.67-.56,1h-.43l-1.3-.18c.38-1.16.17-1.39-1-1.24-.1,0-.2,0-.3,0-1.47-1-1.93-.92-2.73.64-.11.2-.13.51-.3.62-1.15.78-.38,1.68-.29,2.48l2.52-.9c-.18.9-.33,1.8-.54,2.69s-.6,1.88-.81,2.84c-.28,1.34-.44,2.72-.72,4.06,0,.22-.38.38-.58.56a10.57,10.57,0,0,0-.43-1c-.12-.23-.28-.57-.44-.59s-.46.23-.69.36c.61,1,.12,3.43-.81,4.45a10.41,10.41,0,0,1,.06-1.68c.44-2,1-4,1.39-6.05.27-1.25.42-2.53.62-3.8l-.3-.15A9.72,9.72,0,0,0,39.25,29c-1.19,1.34-1.33,3.12-1.78,4.7a37.56,37.56,0,0,0-.94,6.63,1.74,1.74,0,0,0,.72,1.41,2,2,0,0,0,3.07-1.15c1.11.56.81,1.25.18,2l-.68-.28c-.49.31-.88.6-1.31.82a2.36,2.36,0,0,1-.71.14l.5.76c-.17.36-1.56-.5-.8.8l-.11.39-1.11.22-.71-.35-.11.54h0c-1.08.12-.19-1.24-1-1.32l-.67.52-.23-.39.13-.3-.3.24L33,44.31c0-1.08-.87-.67-1.38-.89-.32-.68-.81-1.33-.35-2.14l2.4.24c0-.34,0-.64,0-.93a19.73,19.73,0,0,1,.81-7.28c.48-1.35.89-2.73,1.46-4.05a8.46,8.46,0,0,1,1.66-3,60.55,60.55,0,0,1,5.35-4.19,2.26,2.26,0,0,0,.87-1.34c.31-1-.24-2.16.73-2.94.56.12,1.23-.51,1.71.25,0,.4.09.81.14,1.22v.59c0,.28,0,.56,0,.83-.34.72.13.89.63.74A9.84,9.84,0,0,0,48.68,20.61Z"/><path class="cls-2" d="M63.07,71h1.42c.13.11.25.27.39.3.45.11.91.17,1.38.24l1.93-.76.52,1.06,2.8-2.27-.33-1.23c0-.14.09-.28.13-.42L71,67.37c0-.24-.09-.48-.13-.72a10.48,10.48,0,0,0-.25-1.11c-.19-.57-.77-1.12,0-1.72a.47.47,0,0,0,0-.43.74.74,0,0,0-.51-.16c-.87.12-1.11-.4-1.22-1.12s-.25-1.63-.38-2.45A12.73,12.73,0,0,1,71,54.56a6.18,6.18,0,0,0,.79-2.5,15.67,15.67,0,0,0-.57-8c-.22-.73,0-1.23.57-1.35a1.65,1.65,0,0,1,1.42.47,23.73,23.73,0,0,1,1.45,3c-.16.63.22.72.71.7a.51.51,0,0,1,.07.17l0,.21c-1,.52-.59,1.3-.38,2.05v1.2l.12,3.24a11.38,11.38,0,0,0-1.46,1.7c-.4.66-.9,1.4-.45,2.27l-.15.49c-1.19.18-.44-1-1-1.41-.37.44-1,.84-1,1.32-.17,1.21-.74,2.43-.09,3.69.23.45.15,1,1,.78.15-.05.44.23.61.41a8,8,0,0,1,.61.82,5.72,5.72,0,0,0-.29,1.86,26.62,26.62,0,0,0,1,3.11c.46,1.34-.57,2.25-1,3.35-.07.2-.38.49-.56.48-1-.08-1.12.6-1.14,1.35l-4.83-.37-1.21-1.27.07-.34-1.77-.33Z"/><path class="cls-4" d="M49.48,23.32l.56-1-.92-.15,0-.35,1.59,0a3.87,3.87,0,0,0,1.36,0c.62-.24.67-.84.5-1.44l2,.35.66.13.54.31c.57.44,1.15.88,1.72,1.34a13.92,13.92,0,0,1,2.3,1.93c.5.64.9,1,1.7.71q1.41,1.72,2.84,3.44l0,.34a.11.11,0,0,1,0,.14l-1-.35c.43,1.3-.49,2.55.72,3.62.34.3.15,1.22.15,1.85s0,1.36.86,1.6c.14,0,.31.54.22.69a.79.79,0,0,1-.71.29c-.29-.09-.51-.41-.8-.58a9.11,9.11,0,0,0-1-.47c-.13-.35-.26-.7-.38-1.05l-.14-.17,0-.42c0-.36.1-.72.16-1.09a1.1,1.1,0,0,0-1.06-1.17.61.61,0,0,1-.4-.09c-.76-.6-.9-.11-.95.54l-.41.15-.17-.16L58.82,32c.1-.65.48-1.23.14-2a5.54,5.54,0,0,1-.05-2c-.69.19-.77-1.44-1.93-.94-.08,0-.29-.3-.47-.44s-.55-.56-.85-.59a4,4,0,0,0-1.27.28c.16-1.27-.57-1.51-1.55-1.65-.42-.06-.75-.59-1.18-.77a7,7,0,0,0-1.39-.28l-.58-.05Z"/><path class="cls-5" d="M31.26,41.28c-.46.81,0,1.46.35,2.14V44h0l-.61.6c-.14.21-.4.44-.38.63A7.56,7.56,0,0,0,31,47a10.35,10.35,0,0,0,.8,1.46c.07.54.14,1.08.2,1.63l-.12,1c-.65,0-1.44.41-1.55-.78,0-.15-.5-.25-.77-.38h-.22c0-.11,0-.22,0-.33,0-.49-.07-1-.1-1.48.38-.17,1.1-.36,1.09-.5a.93.93,0,0,0-1.14-.94H29l-.48-1.06c-.05-.24-.09-.48-.14-.72-.17-.8.92-1.78-.19-2.3l.2-1.63c0-.85,0-1.7-.07-2.54,0-.2-.38-.37-.58-.56,0-.31.05-.62.07-.94.07-.13.13-.27.2-.4a6.88,6.88,0,0,0,.39-4.27c.5-1.72,1-3.45,1.51-5.17a3.12,3.12,0,0,1,.53-.71,2.77,2.77,0,0,0,.49,0c.29,0,.58-.05.87-.08-.16-.25-.31-.5-.47-.74L30.86,25l.09-.61.45-.43c.69.12,1.09.37.86,1.22-.09.31.21.72.33,1.05l-.38,1.06c-.05.15-.06.35-.17.45A3.61,3.61,0,0,0,31.2,31c.14.58.3,1.3-.45,1.74-.16.09-.35.42-.3.55.43,1.17-.11,1.64-1.52,1.73.36.45.6.71.79,1,.45.71.86,1.45,1.33,2.16.11.17.35.26.53.39,0,.2,0,.4,0,.59l-1-.17c.26.66.44,1.13.62,1.61Z"/><path class="cls-6" d="M51.66,93.79a1.71,1.71,0,0,0,.13-2.68c-.65-.76-1.29-1.55-1.91-2.34a1.54,1.54,0,0,1-.17-.55,10.09,10.09,0,0,1,1.71,1.68A5,5,0,0,0,55,92.1a42.09,42.09,0,0,0,4.2.44l.82-.06,3.82-.07-.37.33.41.41h1c.95,0,2.18-.66,2.56.95,0,0,.18,0,.28.06l0,.25c-.5,1-1.46.63-2.25.75l0-1.14L65.22,94l-.1,1.26-4.48.51v-1.1c-.88.08-.86.49-.63,1a1.78,1.78,0,0,1-.39.07c-1.83-.24-3.67-.41-5.48-.78A11.73,11.73,0,0,1,51.66,93.79Zm9.92,1.14c-.06,0-.13-.08-.17-.07s0,.11-.08.17.13.07.17.06S61.55,95,61.58,94.93Z"/><path class="cls-7" d="M71.41,88.69c.78-.82,1.62-1.59,2.34-2.46a11.31,11.31,0,0,0,1.55-2.34c.79-1.73,1.53-3.49,2.15-5.29a18,18,0,0,0,.46-2.86c.09-.54.22-1.08.38-1.8.81.72,1.3,1.33,1.22,2.2-.14,1.58-.28,3.16-.5,4.73-.12.86-.42,1.7-.62,2.55,0,.21-.08.53,0,.66.6.66.18,1.14-.14,1.76a16,16,0,0,1-3.22,4.3l-1.58-1L72.11,90.3c.26-1.6.84-2,2.35-1.43l-.5-1.6C73.1,87.87,72.49,88.66,71.41,88.69Z"/><path class="cls-8" d="M62.35,80.84c-.15.36-.3.73-.46,1.08-.07.15-.22.26-.27.41-.5,1.82-1.42,2.33-3.3,2A5.42,5.42,0,0,1,54,81.42c-1-1.87-2.35-3.57-3.53-5.33.8-1.23.83-1.27,2-.48a7.71,7.71,0,0,1,1.35,1.33c1,1.11,1.93,2.22,2.81,3.4a2.22,2.22,0,0,0,2.6.76c.94-.21,1.89-.35,2.85-.52Z"/><path class="cls-9" d="M41.8,66,39.72,64c.08-.72.15-1.43.23-2.15l1.81.16c.11-.49.22-1.22.42-1.93a4.23,4.23,0,0,1,.51-.86,4.05,4.05,0,0,1,1.5,2.15,22.08,22.08,0,0,0,2,3.68C47,66.4,47.94,67.66,48.71,69c.13.22-.15.76-.36,1.07-.06.08-.63-.07-.86-.26a9.07,9.07,0,0,1-1.76-1.68c-1-1.47-2-3-2.94-4.55l-.42-.64L42,63c0,.73,0,1.46,0,2.18A3.41,3.41,0,0,1,41.8,66Z"/><path class="cls-10" d="M62.27,51.51a12.4,12.4,0,0,1,.76-1c.31-.35.34-1,1.15-.89.22,0,.52-.77.85-1.13a4.16,4.16,0,0,1,.87-.59A43.07,43.07,0,0,1,63.81,57a2.58,2.58,0,0,1-2.63,1.5,2.86,2.86,0,0,1,.28-2.74,3.2,3.2,0,0,0,.3-1.14C61.94,53.61,62.1,52.56,62.27,51.51Z"/><path class="cls-11" d="M42.69,59.25a4.23,4.23,0,0,0-.51.86c-.2.71-.31,1.44-.42,1.93L40,61.88c0-.4-.07-.8-.1-1.2.7-.36.52-.62-.09-.84,0-.44-.07-.87-.1-1.31,0-.87-.1-1.74,0-2.61,0-.57,0-1.42.38-1.64.89-.56.72-1.31.52-2a1.74,1.74,0,0,1,0-1.38l.6-.33-.41-1.3,1.22.21a1,1,0,0,0,.2,1.62c-.15,1.51-.36,3-.43,4.53,0,.75-.38,1.67.59,2.18l0,.4.19.41Z"/><path class="cls-12" d="M39.63,69.58a4.59,4.59,0,0,1,1.57,2.24,23.57,23.57,0,0,0,1,2.61c-.21.22-.58.42-.6.66-.14,1.2-.14,2.42-.27,3.62a32.34,32.34,0,0,1-.6,3.52c-.06.23-.52.4-.82.51a1.07,1.07,0,0,1-.38-.6c0-1.44,0-2.88,0-4.33C39.52,75.07,39.58,72.32,39.63,69.58Z"/><path class="cls-8" d="M71.41,88.69c1.08,0,1.69-.82,2.55-1.42l.5,1.6c-1.51-.57-2.09-.17-2.35,1.43l1.38-1.14,1.58,1a9.93,9.93,0,0,1-1.22,1c-1.11.71-2.24,1.41-3.4,2-.86.47-1.79.81-2.69,1.21l0-.25c0-.79.19-1.64-.6-2.22.85-.36.07-.69,0-1h0l1.61.87.81-1.5h0L70,89.9l.35-.24.9.28L71,89.09Z"/><path class="cls-6" d="M73.82,68.79a26.62,26.62,0,0,1-1-3.11,5.72,5.72,0,0,1,.29-1.86,8,8,0,0,0-.61-.82c-.17-.18-.46-.46-.61-.41-.8.26-.72-.33-1-.78-.65-1.26-.08-2.48.09-3.69.06-.48.68-.88,1-1.32.58.45-.17,1.59,1,1.41a5.52,5.52,0,0,0,.68,3.88A2.85,2.85,0,0,1,74.15,64a3.89,3.89,0,0,0,.37,2.53c-.56,0-.46.34-.35.75s.31.7.8.51c0,.2,0,.4,0,.6s0,.25,0,.38c0,.33.09.67.13,1l-.28,0Z"/><path class="cls-13" d="M52.14,41.37c-.27.09-.76.17-.76.27a3.86,3.86,0,0,0,.24,1.67l-.3,1.23a5.15,5.15,0,0,1-1-.13,5.55,5.55,0,0,0-4,.47l-2,.76.21-1.81a5.85,5.85,0,0,1,1.51,0c.7.2,1.21.19,1.62-.52.1-.18.56-.21.86-.23.48,0,1.14.22,1.41,0s.42-1,.67-1.64l-4.45.33c-.22-.18-.51-.56-.64-.52-1,.38-1.17-.66-1.79-.9,1.16-.11,2.33-.15,3.49-.33C49.12,39.74,50.57,40.73,52.14,41.37Z"/><path class="cls-14" d="M71.18,68.36l.33,1.23-2.8,2.27-.52-1.06-1.93.76c-.47-.07-.93-.13-1.38-.24-.14,0-.26-.19-.39-.3l.36-.56a6.15,6.15,0,0,1-2.4-4c1.25-.15,1.69,1,2.53,1.58a13.81,13.81,0,0,1,1.34,1.21,3.52,3.52,0,0,0,3.84.31A6.12,6.12,0,0,0,71.18,68.36Z"/><path class="cls-15" d="M49.21,58.36c-.31.64.59.89.45,1.66s.32,1.51-.55,2c0,0,0,.14,0,.19.85,1.49.28,3.15.54,4.71.1.62.64,1.25.13,2a1.13,1.13,0,0,0,.55.64c.74.2.84.68.74,1.31-1.44-.52-1.69-1.89-2.18-3.08-1-2.51-.57-5.12-.36-7.7A6.56,6.56,0,0,1,49.21,58.36Z"/><path class="cls-6" d="M64.49,14.28a1.51,1.51,0,0,1-2.3.73,56,56,0,0,0-5.4-3.3,6.55,6.55,0,0,0-1.42-.34,21,21,0,0,1,4.65.3A21.5,21.5,0,0,1,64.26,14C64.36,14,64.41,14.17,64.49,14.28Z"/><path class="cls-16" d="M28.15,44.86c-.6-.21-1.19-.44-1.8-.62-1.7-.49-3.41-1-5.1-1.45a3.22,3.22,0,0,1-.77-.49c.3-.28.6-.81.9-.81,1.32,0,2.64.16,4,.26-.1,1.92,1.62,1.34,2.5,1.79C28,44,28.05,44.45,28.15,44.86Z"/><path class="cls-16" d="M58,15.21c1.08,0,2.25-.29,3,.84a.59.59,0,0,0,.46.12A1.57,1.57,0,0,1,63.2,17a26.1,26.1,0,0,0,1.74,2.22c.08.11.14.3.24.32,1.23.27,1.1,1.35,1.32,2.22a37.61,37.61,0,0,0-2.7-2.8,21.43,21.43,0,0,0-2.64-1.73Z"/><path class="cls-17" d="M44.6,43.83l-.21,1.81-.48.11-.12-.1-.21-.41-.4-.81.84-.74-.14-.15-1.3.29c.14-.53.28-1.06.43-1.58.05-.19.21-.45.13-.56-.7-1.07-.29-2.11,0-3.15H44l-.38,1-.42.3.33.29.25.2c.62.24.82,1.28,1.79.9.13,0,.42.34.64.52l-2,1.17Z"/><path class="cls-15" d="M52.85,46.57c0,.07.06.14,0,.2-.39,1-.8,2-1.23,3l.63.67c-1.37.73-1.26,2.14-1.58,3.32s-.4,2.39-.68,3.57c-.07.27-.53.45-.81.67.48-2.08,0-4.32,1.35-6.28a18.84,18.84,0,0,0,1.26-3.35A16.26,16.26,0,0,1,52.85,46.57Z"/><path class="cls-6" d="M71.22,23.3c-1.32-.24-1.65-1.46-2.35-2.33s-1.09-2.4-2.34-3.09c-.23-.13-.32-.5-.62-1,.66.2,1.27.69,1.23-.27.69.88,1.41,1.73,2,2.64a24,24,0,0,1,1.62,2.64A6.81,6.81,0,0,1,71.22,23.3Z"/><path class="cls-7" d="M73.82,68.79l1,1,.33.41c-.29,2.41-1.32,3.38-4,3.75,0-.75.09-1.43,1.14-1.35.18,0,.49-.28.56-.48C73.25,71,74.28,70.13,73.82,68.79Z"/><path class="cls-12" d="M47,15.4,46,15l0-.24,3.9-.82c.7.66,1.47-.28,2.39-.5.39.91,1.1,1.06,2,.69.74-.3,1,.21,1.27.77A29,29,0,0,0,47,15.4Zm2.7-.69.07-.16c-.06,0-.13-.08-.17-.07s-.05.11-.07.16Z"/><path class="cls-17" d="M42.32,57.84c-1-.51-.63-1.43-.59-2.18.07-1.51.28-3,.43-4.53V49.5h.89c0,.93.11,1.87,0,2.8-.12,1.63-.34,3.26-.54,4.88A2.8,2.8,0,0,1,42.32,57.84Z"/><path class="cls-15" d="M66.86,38.34c-.24-.68-.49-1.36-.69-2.05-.27-.95-.51-1.9-.73-2.86-.17-.7-.27-1.4-.43-2.27l.67-.13A9.15,9.15,0,0,1,66.86,38.34Z"/><path class="cls-15" d="M44.2,83.19a1.54,1.54,0,0,1,1,2.26c-.27.43-.37.79.22,1a.85.85,0,0,1,.45.38c.5,1,1,2,1.46,3,.21.43.48.84.72,1.26l-.25.28a5.84,5.84,0,0,1-2.34-3.17c-.5-1.37-.84-2.81-1.25-4.22C44.21,83.74,44.21,83.47,44.2,83.19Z"/><path class="cls-6" d="M73.28,57.72c-.45-.87,0-1.61.45-2.27a11.38,11.38,0,0,1,1.46-1.7c0-1.19-.08-2.21-.12-3.24l1.2,1c.36,1.77-.65,3.07-1.55,4.39C74.28,56.56,73.76,57.12,73.28,57.72Z"/><path class="cls-9" d="M37.1,17.26c.21.7-.38,1-.73,1.37-1,1.19-2,2.39-3.1,3.65l-.77-.51-.76.49a2.85,2.85,0,0,1,1.6-1.83,1.77,1.77,0,0,0,.75-.8A6.56,6.56,0,0,1,37.1,17.26Z"/><path class="cls-10" d="M68.57,59.66c.13.82.27,1.63.38,2.45s.35,1.24,1.22,1.12a.74.74,0,0,1,.51.16.47.47,0,0,1,0,.43c-.75.6-.17,1.15,0,1.72a10.48,10.48,0,0,1,.25,1.11,6.53,6.53,0,0,1-2.54-4.1A8.71,8.71,0,0,1,68.57,59.66Z"/><path class="cls-9" d="M53,67.35c-.87,0-1.28-.4-1.26-1.29,0-1.84-.05-3.68,0-5.51,0-.51.48-1,.73-1.52-.07,1.57-.24,3.14-.17,4.7A26.45,26.45,0,0,0,53,67.35Z"/><path class="cls-14" d="M62.28,66.35c-1.14.08-2.29.13-3.42.28-.24,0-.47.45-.62.73a2.3,2.3,0,0,0-.09.71,2.37,2.37,0,0,0-.56-.26,5.43,5.43,0,0,0-.81,0l.76-1.35.25.08-.25-.64.23-.12,1-.32c.34,0,.73-.22,1-.12C60.67,65.59,61.47,66,62.28,66.35Z"/><path class="cls-14" d="M61.46,25.14c-.8.3-1.2-.07-1.7-.71a13.92,13.92,0,0,0-2.3-1.93c-.57-.46-1.15-.9-1.72-1.34C58.4,21.41,60.1,23,61.46,25.14Z"/><path class="cls-3" d="M28.15,44.86c-.1-.41-.19-.83-.31-1.32-.88-.45-2.6.13-2.5-1.79l.39-.13,2,.57L27.57,41l.78,0-.2,1.63c1.11.52,0,1.5.19,2.3A.4.4,0,0,1,28.15,44.86Z"/><path class="cls-7" d="M67.14,91.94c.79.58.59,1.43.6,2.22-.1,0-.27,0-.28-.06-.38-1.61-1.61-.9-2.56-.95l-.6-.78L66.72,91Z"/><path class="cls-17" d="M33,1.56C33.78,1.09,32.78,0,34,0c.68,0,1.43.7,1.24,1.26a2.21,2.21,0,0,1-1,1.19C34,2.54,33.49,2,33,1.56Z"/><path class="cls-2" d="M32.78,78.57c-1.39-1-1.65-1.56-1.07-2.19s1.06-.26,1.52.22C33.92,77.31,33.87,77.59,32.78,78.57Z"/><path class="cls-7" d="M45.24,8.91c0-.2-.05-.39-.07-.59.42-.28.75-.55,0-.84l.6-1.14c1.22.14,1.4.77.89,2.95Z"/><path class="cls-3" d="M29.51,64.21c-.72,1.22-1.59,1.72-2.12,1.21a1.41,1.41,0,0,1-.3-1.32C27.88,62.87,28.62,64.13,29.51,64.21Z"/><path class="cls-9" d="M46.25,18.05c-.48-.76-1.15-.13-1.71-.25-.12-.53-.24-1.07-.35-1.6v-.92c.57,1.19,1.41.72,2.17.51C46.32,16.54,46.28,17.29,46.25,18.05Z"/><path class="cls-18" d="M46.88,47.69c.48.05,1,0,1.31.19a1.9,1.9,0,0,1,.61,1.3c0,.56-1.69.58-1.84,0A10.45,10.45,0,0,1,46.88,47.69Z"/><path class="cls-19" d="M76.27,51.54l-1.2-1c0-.4,0-.8,0-1.2l.69-.12-.31-1.93,0-.21a4.12,4.12,0,0,1,.82,3.53A7.65,7.65,0,0,0,76.27,51.54Z"/><path class="cls-18" d="M45.08,59.6c.48-.47.9-1.08,1.09-1a4.85,4.85,0,0,1,1.29,1A7.94,7.94,0,0,1,46,60.5C45.9,60.56,45.53,60,45.08,59.6Z"/><path class="cls-8" d="M45.24,8.91l1.44.38c0,.21,0,.42,0,.62-1,.17-1.07.39-.61,1.22a6.71,6.71,0,0,1,.34.82,7.06,7.06,0,0,0-1.09.76c-.36.36-.59.6-.74-.11l.4-.25c0-.27.11-.55.16-.82l0-1.61.33-.22-.27-.19Z"/><path class="cls-8" d="M43.37,13.15c-.11.67-.39,1.14-1.18,1.08a.58.58,0,0,0-.4.19,2.09,2.09,0,0,1-2.11.75,8.63,8.63,0,0,1,1.53-1.32A13,13,0,0,1,43.37,13.15Z"/><path class="cls-18" d="M23.65,27.84c.68.46,1.61.41,1.38,1.38-.16.66-.48,1.31-1.55.84C23.53,29.41,23.58,28.71,23.65,27.84Z"/><path class="cls-19" d="M28.35,41l-.78,0h-.21c.11-1,.23-2.08.34-3.12.2.18.56.35.58.55C28.36,39.26,28.33,40.11,28.35,41Z"/><path class="cls-14" d="M63.42,71.66l1.77.33-.07.34,1.21,1.27C65.1,73.35,63.82,73.17,63.42,71.66Z"/><path class="cls-16" d="M67.23,22.69c.58.28,1.11.57,1.21,1.33a1.18,1.18,0,0,0,.55.7,1.16,1.16,0,0,1,.48,1.54c-.6-.72-1.24-1.41-1.77-2.18A5.69,5.69,0,0,1,67.23,22.69Z"/><path class="cls-20" d="M28.36,32.25A6.88,6.88,0,0,1,28,36.52h-.24c0-.11,0-.23,0-.34s-.09-.44-.13-.66Z"/><path class="cls-15" d="M66.66,42.62c-.89-.31-.5-1-.5-1.62a9.88,9.88,0,0,1,.24-1.78c0-.18.26-.33.39-.5C66.75,40,66.7,41.32,66.66,42.62Z"/><path class="cls-17" d="M27.53,53.11a4.07,4.07,0,0,1-1.34,0c-.16,0-.17-.71-.15-1.08,0-.11.42-.34.5-.29a11,11,0,0,1,1.14.9Z"/><path class="cls-18" d="M53.72,7l1,1.35c-.26.18-.56.56-.78.52-1.16-.2-.37-1.08-.58-1.63Z"/><path class="cls-18" d="M40.66,98.15l1,1-1,.86-.46-1.6Z"/><path class="cls-17" d="M43.15,46.46l-.09,2.23h-.9v-.4l.33-.27L42,47.68c.06-.27.12-.54.19-.81Z"/><path class="cls-19" d="M69.54,90.28l-.81,1.5-1.61-.87Z"/><path class="cls-9" d="M57.54,65.86l.25.64-.25-.08-.76,1.35H56c-.13-.33-.27-.66-.4-1l0-.06.62-.6a.76.76,0,0,0,1.29-.22A.08.08,0,0,1,57.54,65.86Z"/><path class="cls-10" d="M33.17,60.3c1,.1,1.48.84,1.42,2.28C34.12,61.82,33.65,61.06,33.17,60.3Z"/><path class="cls-16" d="M29.21,48.1c0,.49.06,1,.1,1.48a5.5,5.5,0,0,1-.83-4L29,46.67C29,47.14,29.13,47.62,29.21,48.1Z"/><path class="cls-3" d="M43.15,46.46l-1,.41L42.77,45v-.61h.41l.4.81-.2.62,0,.28Z"/><path class="cls-6" d="M72.88,28.82a3.57,3.57,0,0,1-1.22-3.37C72.07,26.57,72.47,27.7,72.88,28.82Z"/><path class="cls-15" d="M48.66,91.34l.62.39c.06.13.13.27.19.41l1,1a2.3,2.3,0,0,1-.85-.14c-.57-.37-1.09-.82-1.63-1.23Z"/><path class="cls-16" d="M27.36,41h.21c.05.35.09.71.15,1.19l-2-.57Z"/><path class="cls-16" d="M69.55,27.17a3.84,3.84,0,0,1,1,2.7A2.76,2.76,0,0,1,69.55,27.17Z"/><path class="cls-7" d="M46.43,12a6.71,6.71,0,0,0-.34-.82c-.46-.83-.35-1.05.61-1.22l.18,2Z"/><path class="cls-17" d="M30.86,25l.43.63c.16.24.31.49.47.74-.29,0-.58.07-.87.08a2.77,2.77,0,0,1-.49,0C30.56,25.9,30.71,25.43,30.86,25Z"/><path class="cls-9" d="M48.68,20.61a9.84,9.84,0,0,1-1.66.82c-.5.15-1,0-.63-.74Z"/><path class="cls-16" d="M29.64,50.91c.93.7.94,1.75,1.07,2.75C30.35,52.75,30,51.83,29.64,50.91Z"/><path class="cls-20" d="M43.43,80.14c.62,0,1,.35.94,1,0,.24-.37.45-.57.67C43.68,81.24,43.55,80.69,43.43,80.14Z"/><path class="cls-6" d="M66.11,15.22l-1.63.39.43-1.24Z"/><path class="cls-13" d="M53.26,44.88l.85.88-1,.47C53.14,45.78,53.2,45.33,53.26,44.88Z"/><path class="cls-19" d="M75,67.8c-.49.19-.67,0-.8-.51s-.21-.7.35-.75Z"/><path class="cls-9" d="M54.34,67.79l-.83-.22,2-.86,0,.06Z"/><path class="cls-8" d="M60,95.63c-.23-.51-.25-.92.63-1v1.1Z"/><path class="cls-8" d="M64.3,92.37l.6.78h-1l-.41-.41.37-.33Z"/><path class="cls-16" d="M70.68,30.61,71.43,32l-.6.07Z"/><path class="cls-7" d="M71,89.09l.23.85-.9-.28Z"/><path class="cls-10" d="M34.66,62.7c.67.13,1.1.46,1,1.21C35.35,63.51,35,63.1,34.66,62.7Z"/><path class="cls-3" d="M42.16,48.69h.9c0,.26,0,.53,0,.8h-.89Z"/><path class="cls-19" d="M67.14,91.94l-.42-1,.4-.06C67.21,91.25,68,91.58,67.14,91.94Z"/><path class="cls-15" d="M66.55,44.23c-.17-.43-1-.94.14-1.23C66.64,43.41,66.59,43.82,66.55,44.23Z"/><path class="cls-6" d="M67,16.38l-1.28.14c.4-.46.6-.68.79-.91Z"/><path class="cls-8" d="M65.12,95.22l.1-1.26.34.06,0,1.14Z"/><path class="cls-20" d="M44.2,83.19c0,.28,0,.55,0,.82-.1-.55-.21-1.1-.32-1.64Z"/><path class="cls-6" d="M48.66,91.34l-.66.41-.2-.35.25-.28Z"/><path class="cls-6" d="M75.4,46.88c-.49,0-.87-.07-.71-.7Z"/><path class="cls-6" d="M71.53,24.35l-.5-.23.31-.39C71.4,23.94,71.46,24.14,71.53,24.35Z"/><path class="cls-14" d="M57.43,65.89a.76.76,0,0,1-1.29.22Z"/><path class="cls-8" d="M45.19,7.48c.73.29.4.56,0,.84C45.18,8,45.18,7.76,45.19,7.48Z"/><path class="cls-9" d="M58.81,65.42l-1,.32Z"/><path class="cls-7" d="M60,92.48l-.82.06Z"/><path class="cls-17" d="M31.4,23.92l-.45.43.42-.92Z"/><path class="cls-7" d="M45.16,11.53c0,.27-.11.55-.16.82C45.05,12.08,45.11,11.8,45.16,11.53Z"/><path class="cls-13" d="M52.11,44.64l.25-.31.15.51Z"/><path class="cls-19" d="M27.59,35.51c0,.22.09.44.13.66C27.68,36,27.63,35.73,27.59,35.51Z"/><path class="cls-9" d="M46.4,19.86c0-.2,0-.4,0-.59C46.4,19.46,46.4,19.66,46.4,19.86Z"/><path class="cls-12" d="M42.4,75.48c.11.23.22.46.32.69C42.62,75.94,42.51,75.71,42.4,75.48Z"/><path class="cls-10" d="M71,67.37l.27.57Z"/><path class="cls-6" d="M49.25,87.48c-.12-.23-.23-.46-.34-.69C49,87,49.13,87.25,49.25,87.48Z"/><path class="cls-8" d="M44.19,12.85l-.69.27Z"/><path class="cls-19" d="M75.18,70.22l-.33-.41.28,0C75.15,69.93,75.17,70.07,75.18,70.22Z"/><path class="cls-9" d="M38.52,16l-.44.36Z"/><path class="cls-6" d="M49.63,88.09l-.33-.48Z"/><path class="cls-19" d="M75,68.78v0Z"/><path class="cls-6" d="M53.14,11.3l-.44,0Z"/><path class="cls-19" d="M27.73,36.51H28c-.07.13-.13.27-.2.4Z"/><path class="cls-15" d="M66.47,45c0-.14.06-.27.1-.41C66.53,44.76,66.5,44.89,66.47,45Z"/><path class="cls-17" d="M42.54,58.65l-.19-.41Z"/><path class="cls-12" d="M42.2,74.46l.12.43Z"/><path class="cls-19" d="M70,89.9l-.43.39Z"/><path class="cls-16" d="M29.35,49.91h.22l-.16.4Z"/><path class="cls-7" d="M45.26,9.51l.27.19-.33.22Z"/><path class="cls-10" d="M65.91,47.27c0-.14.1-.28.14-.42C66,47,66,47.13,65.91,47.27Z"/><path class="cls-14" d="M55.2,20.85l-.66-.13Z"/><path class="cls-17" d="M43.42,46.14l0-.28.41-.21.12.1Z"/><path class="cls-1" d="M64.35,28.92l0-.34Z"/><path class="cls-21" d="M65.48,38.91c-.37.35-.8.58-1,.94-.23.56-.6.55-.93.29a1.27,1.27,0,0,1-.43-.91,11.43,11.43,0,0,1,.38-1.78C64.46,37.16,64.85,37.43,65.48,38.91Z"/><path class="cls-14" d="M54.34,67.79l1.23-1,.4,1Z"/><path class="cls-10" d="M43.6,16.34l-4.31,3.25a11.11,11.11,0,0,1-1,.75c-1.81,1.07-2.66,2.92-3.68,4.62-.58,1-1,2-1.55,3-.12-.09-.35-.21-.34-.28.12-.83.28-1.65.44-2.47.09-.43.2-.85.34-1.43L35,23.43c.17-1.61,1.42-2.57,2.32-3.76,1.21-1.58,3-2.22,4.68-3.16a3.64,3.64,0,0,0,.55-.42l.54-.47Z"/><path class="cls-13" d="M32.05,46.24c.32.89.69,1.76,1,2.66a16.53,16.53,0,0,1,.34,1.84c-.54,0-1.11,0-1.34-.62-.06-.55-.13-1.09-.2-1.63,0-.37.09-.83-.09-1.09C31.31,46.8,31.52,46.51,32.05,46.24Z"/><path class="cls-6" d="M49.47,92.14c-.06-.14-.13-.28-.19-.41C49.34,91.86,49.41,92,49.47,92.14Z"/><path class="cls-13" d="M33.54,51.52c0,.15,0,.29,0,.43C33.57,51.81,33.55,51.67,33.54,51.52Z"/><path class="cls-4" d="M40.32,40.57v-.4l.19-.66c0-.45,0-.91.08-1.37.93-1,1.42-3.42.81-4.45.23-.13.47-.38.69-.36s.32.36.44.59a10.57,10.57,0,0,1,.43,1v.61c-.21.57-.93,1.21.19,1.63v.4l0,.41v.6c-.34,1-.75,2.08,0,3.15.08.11-.08.37-.13.56-.15.52-.29,1-.43,1.58,0,.06,0,.13,0,.19-.75,0-.93.45-1,1.23l.79-.21h.4l-.61,1.83c-.07.27-.13.54-.19.81s.13.4.19.61V49.5H42l-1.22-.21a5.08,5.08,0,0,1,.12-1.18c.47-1.23.49-1.23-.87-1.26l.07-.63.6-.34-.54-.24-.42-.54-.76-.49L38.3,44l-.5-.76a2.36,2.36,0,0,0,.71-.14c.43-.22.82-.51,1.31-.82l.68.28C41.13,41.82,41.43,41.13,40.32,40.57Z"/><path class="cls-8" d="M39.66,58.53a10.07,10.07,0,0,1-1-1.33c-.85-1.55-1.7-3.1-2.45-4.7a31.44,31.44,0,0,1-1.07-3l.71.63,1-1.35-1.71-2.06.3-1.08h0l.82-.19,1.11-.22c.31,1.81.56,3.63,1,5.42a19.12,19.12,0,0,0,1.1,2.82l.22-.11c.16-1.08.33-2.17.49-3.25l.39.82a1.74,1.74,0,0,0,0,1.38c.2.66.37,1.41-.52,2-.34.22-.35,1.07-.38,1.64C39.56,56.79,39.64,57.66,39.66,58.53Z"/><path class="cls-13" d="M43.19,38.54v-.6l.31-.17-.33-.24c0-.13,0-.27,0-.4C43.1,36.59,43,36,43,35.5v-.61c.2-.18.54-.34.58-.56.28-1.34.44-2.72.72-4.06.21-1,.57-1.89.81-2.84s.36-1.79.54-2.69l.59-.62c-.26,1.79-.51,3.57-.78,5.36-.45,3-.92,6-1.38,9l0,.09Z"/><path class="cls-21" d="M46.21,24.12l-.59.62-2.52.9c-.09-.8-.86-1.7.29-2.48.17-.11.19-.42.3-.62.8-1.56,1.26-1.67,2.73-.64l-.66,1.73.6.28Z"/><path class="cls-22" d="M35.45,45.64l-.3,1.08,1.71,2.06-1,1.35-.71-.63c-.07-.27-.15-.53-.23-.8l.55-.72-.64-.27c-.14-.71-.24-1.43-.43-2.13a3,3,0,0,0-.53-.74l.67-.52C35.26,44.4,34.37,45.76,35.45,45.64Z"/><path class="cls-4" d="M46.36,23.91l-.6-.28.66-1.73c.1,0,.2,0,.3,0,1.2-.15,1.41.08,1,1.24l1.3.18v.31l-1,.12h-.42Z"/><path class="cls-8" d="M38.93,44.8l-1.43,0c-.76-1.3.63-.44.8-.8l.64.58A1.09,1.09,0,0,0,38.93,44.8Z"/><path class="cls-22" d="M33,44.31,31.61,44v-.6C32.12,43.64,33,43.23,33,44.31Z"/><path class="cls-22" d="M36.28,45.45l-.82.19c0-.17.07-.34.11-.54Z"/><path class="cls-18" d="M49.05,23.63v-.31h.43l.21.27Z"/><path class="cls-22" d="M33.6,44.45a.25.25,0,0,1-.17-.06l.3-.24Z"/><path class="cls-6" d="M75.44,47.26l.31,1.93-.69.12C74.85,48.56,74.42,47.78,75.44,47.26Z"/><path class="cls-18" d="M48.47,29a8.54,8.54,0,0,1,1.7-4.11c.23-.26,1-.78.1-1.26a7,7,0,0,1,1.39.28c.43.18.76.71,1.18.77,1,.14,1.71.38,1.55,1.65a4,4,0,0,1,1.27-.28c.3,0,.58.37.85.59s.39.47.47.44c1.16-.5,1.24,1.13,1.93.94A5.54,5.54,0,0,0,59,30c.34.76,0,1.34-.14,2l-1.3-.59a14.56,14.56,0,0,0-.9,1.64c-.45,1.12-1,1.34-2,.75a1.94,1.94,0,0,0-.34-.11l-.1,1.11c.31.11.69.13.84.33s.29.84.2.89c-.65.37-1.35.65-2,1a4.81,4.81,0,0,0-.54-.77c-.41-.39-.87-.74-1.31-1.1.09-.15.29-.36.25-.45-.48-1-.3-1.38.82-1.49.18,0,.48-.15.47-.21a.84.84,0,0,0-.23-.56c-.3-.26-.87-.4-1-.69a6.3,6.3,0,0,1-.14-4.26c1.35.43,2.28.21,2.47-.37a10.19,10.19,0,0,1-1.69-.82,11.18,11.18,0,0,1-1.38-1.59,14.33,14.33,0,0,1-1.48,2.89C49,28,49.46,29,48.47,29Z"/><path class="cls-18" d="M62.28,34.07c-.17-.19-.49-.38-.49-.58,0-1.23-.92-1.19-1.76-1.23,0-.65.19-1.14.95-.54a.61.61,0,0,0,.4.09A1.1,1.1,0,0,1,62.44,33C62.38,33.35,62.33,33.71,62.28,34.07Z"/><path class="cls-18" d="M62.47,34.66l-.14-.17Z"/><path class="cls-18" d="M59.62,32.41l-.17-.16Z"/><path class="cls-3" d="M32.05,46.24c-.53.27-.74.56-.33,1.16.18.26.07.72.09,1.09A10.35,10.35,0,0,1,31,47a7.56,7.56,0,0,1-.39-1.77c0-.19.24-.42.38-.63l.62.2c.06.2.11.41.16.61l-.29.21.41.16Z"/><path class="cls-3" d="M29.21,48.1c-.08-.48-.17-1-.25-1.43h.2a.93.93,0,0,1,1.14.94C30.31,47.74,29.59,47.93,29.21,48.1Z"/><path class="cls-2" d="M31.56,39.14c-.12.48-.23,1-.35,1.44-.18-.48-.36-.95-.62-1.61Z"/><path class="cls-22" d="M31.62,44.83l-.62-.2.61-.6Z"/><path class="cls-7" d="M63.48,92.74l.41.41Z"/><path class="cls-8" d="M61.58,94.93c0,.06,0,.14-.08.16s-.11,0-.17-.06,0-.15.08-.17S61.52,94.9,61.58,94.93Z"/><path class="cls-3" d="M40.16,50.11C40.1,49,40,47.94,40,46.86c1.36,0,1.34,0,.87,1.26a5.08,5.08,0,0,0-.12,1.18l.41,1.3-.6.33Z"/><path class="cls-3" d="M42,49.51h.2v1.63A1,1,0,0,1,42,49.51Z"/><path class="cls-9" d="M39.85,60.68l-.09-.84C40.37,60.06,40.55,60.32,39.85,60.68Z"/><path class="cls-3" d="M44.6,43.83,44.22,43l2-1.17,4.45-.33c-.25.66-.31,1.32-.67,1.64s-.93,0-1.41,0c-.3,0-.76,0-.86.23-.41.71-.92.72-1.62.52A5.85,5.85,0,0,0,44.6,43.83Z"/><path class="cls-13" d="M42.56,44c0-.06,0-.13,0-.19l1.3-.29.14.15-.84.74h-.62Z"/><path class="cls-13" d="M43.63,39.58l-.09.59-.33-.29Z"/><path class="cls-13" d="M43.79,45.65l-.41.21.2-.62Z"/><path class="cls-2" d="M49.73,14.71l-.17-.07c0-.05,0-.14.07-.16s.11,0,.17.07A1.11,1.11,0,0,0,49.73,14.71Z"/><path class="cls-3" d="M42.16,48.29c-.06-.21-.13-.41-.19-.61l.52.34Z"/><path class="cls-17" d="M42.56,44.43h.21V45h-.4Z"/><path class="cls-5" d="M48.47,29c1,0,.54-1,.94-1.45a14.33,14.33,0,0,0,1.48-2.89,11.18,11.18,0,0,0,1.38,1.59,10.19,10.19,0,0,0,1.69.82c-.19.58-1.12.8-2.47.37a6.3,6.3,0,0,0,.14,4.26c.09.29.66.43,1,.69a.84.84,0,0,1,.23.56c0,.06-.29.19-.47.21-1.12.11-1.3.44-.82,1.49,0,.09-.16.3-.25.45-.31-.09-.64-.3-.92-.24-.76.18-1-.25-1.06-.83-.17-1-.28-2.11-.46-3.16a12,12,0,0,0-.46-1.48Z"/><path class="cls-10" d="M48.38,29.4a12,12,0,0,1,.46,1.48c.18,1.05.29,2.11.46,3.16.09.58.3,1,1.06.83.28-.06.61.15.92.24.44.36.9.71,1.31,1.1a4.81,4.81,0,0,1,.54.77,3.77,3.77,0,0,0-.68.18c-1.22.6-2,.56-2.84-.46a19.27,19.27,0,0,1-1.93-2.85c-.11-.18.15-.57.2-.87C48.05,31.79,48.21,30.6,48.38,29.4Z"/><path class="cls-18" d="M47.64,23.74h0Z"/><path class="cls-8" d="M34.79,47.71l.64.27-.55.72Z"/><path class="cls-22" d="M31.9,45.81l-.41-.16.29-.21Z"/><path class="cls-3" d="M40.52,39.51l-.19.66Z"/><path class="cls-3" d="M42.56,44.43l-.19.61-.79.21c.05-.78.23-1.24,1-1.23Z"/><path class="cls-3" d="M43,35.5c.07.54.13,1.09.19,1.63C42,36.71,42.76,36.07,43,35.5Z"/><path class="cls-3" d="M40.06,46.23l.06-.58.54.24Z"/><path class="cls-3" d="M38.93,44.8a1.09,1.09,0,0,1,0-.18l.76.49Z"/><path class="cls-17" d="M43.17,37.53l.33.24-.31.17C43.19,37.8,43.18,37.67,43.17,37.53Z"/></g></svg>