<svg xmlns="http://www.w3.org/2000/svg" viewBox="0 0 100 100"><defs><style>.cls-1{fill:#a08c82;}.cls-2{fill:#b3a39b;}.cls-3{fill:#9f897f;}.cls-4{fill:#baaba4;}.cls-5{fill:#b9a9a2;}.cls-6{fill:#c3b6af;}.cls-7{fill:#bcada6;}.cls-8{fill:#c7bab4;}.cls-9{fill:#aa978e;}.cls-10{fill:#ae9c93;}.cls-11{fill:#9b857b;}.cls-12{fill:#c2b4ad;}.cls-13{fill:#c0b2ab;}.cls-14{fill:#bdafa7;}.cls-15{fill:#b1a098;}.cls-16{fill:#a49086;}</style></defs><g id="Ebene_11" data-name="Ebene 11"><path class="cls-1" d="M17.57,12.82a23.65,23.65,0,0,1,2.09-2.94A7.77,7.77,0,0,1,22,8.31c1.58-.77,3.22-1.4,4.84-2.09,1,2.51,3.48,3.54,5.38,2.33a16.34,16.34,0,0,1,2.61-1.06c-.22-1.56,1.06-2.23,2.72-2.6,1-.22,2.28-.24,2.85-.87,1.17-1.33,2.42-1.07,3.79-.87a17.21,17.21,0,0,0,3.54.43A17.3,17.3,0,0,0,51,2.71a7,7,0,0,0,1.69.18,21.57,21.57,0,0,0,2.51-.54l3.44,1.14.8,0a5.52,5.52,0,0,1,1.06.91c.76,1.12,1.46,2.29,2.18,3.44-.72.16-1.44.3-2.15.49a2.07,2.07,0,0,0-.52.35c-2.37,1.69-4.68,1.39-6.45-1.1-2.32,4.61-3.67.19-5.51-.22a30,30,0,0,1-3.2.62c-3.24.86-6.48,1.77-9.68,2.79-2.3.73-4.62,1.53-5.71,4-.09.22-.38.38-.61.52C27,16.62,25.06,17.77,25,20.7a9,9,0,0,0-1.6-.94c-.53-.16-1.3-.38-1.64-.13a41.26,41.26,0,0,0-3.37,3c-1.4,1.3-2.78,2.62-4.17,3.93a5.52,5.52,0,0,1-1.37,2c-1.21,1-2.35,4.56-1.76,5.94C9.17,36,8.15,41.21,9.47,42.87A7,7,0,0,0,9,49.09c.95,3,1.58,6,.62,9.21a8.47,8.47,0,0,0,0,2.6c1.52.37,2.48.6,3.43.85.66.18,1.3.39,1.95.59Q16,64.63,17.12,67c-.48.51-1.2,1-1.37,1.55a5.76,5.76,0,0,0,.18,2.31c.34,2.11-.36,4.45,1.27,6.28,1.84,2.08,3.54,4.38,5.71,6,1.35,1,3.47,1.08,5.25,1.57l.45,1.66-1.27,1.91,2.08,1c.66-.54-.92-2.58,1.31-1.64h0l2.11,1.28,2.5,1.28.84-.86A12.92,12.92,0,0,0,43.8,91l5.49,2.14-.84,3a24.09,24.09,0,0,1-4-.06c-2.25-.4-4.59,0-6.71-1.55-1.83-1.35-4.12-2.08-6.2-3.09l-2.1-.83a13.32,13.32,0,0,0-2.12-.8C23.66,89.07,20,88.44,18,85.54c-.09-1.25-.13-1.88-.17-2.51l-2.59.43.53-2.85-.59-.15c-.35.67-.69,1.34-1.05,2-3-1.86-5.87-6.26-6-9.24a14.49,14.49,0,0,0-.65-3.65c-.67-2-1.71-3.94-2.26-6a45.9,45.9,0,0,1-1.31-7.28,43.81,43.81,0,0,1-.1-6.68c.09-1.89.47-3.77.75-5.65A21.28,21.28,0,0,1,5,41.12c.47-1.7,1.1-3.36,1.57-5.06.25-.93,0-2.06.49-2.84,1.42-2.47,3-4.84,4.62-7.21.82-1.2,1.81-2.27,2.67-3.44,1-1.33,2.26-2.58,2.72-4.07C17.63,16.72,17.44,14.72,17.57,12.82Zm26.6-8.17L43.76,4l-1.18.77.31.55Z"/><path class="cls-2" d="M14.94,62.34c-.65-.2-1.29-.41-1.95-.59-1-.25-1.91-.48-3.43-.85a8.47,8.47,0,0,1,0-2.6c1-3.17.33-6.24-.62-9.21a7,7,0,0,1,.49-6.22c-1.32-1.66-.3-6.83,1.61-8.35-.59-1.38.55-4.94,1.76-5.94a5.52,5.52,0,0,0,1.37-2c1.39-1.31,2.77-2.63,4.17-3.93a41.26,41.26,0,0,1,3.37-3c.34-.25,1.11,0,1.64.13a9,9,0,0,1,1.6.94c.07-2.93,2-4.08,3.86-5.32.23-.14.52-.3.61-.52,1.09-2.51,3.41-3.31,5.71-4,3.2-1,6.44-1.93,9.68-2.79a30,30,0,0,0,3.2-.62c1.84.41,3.19,4.83,5.51.22,1.77,2.49,4.08,2.79,6.45,1.1a2.07,2.07,0,0,1,.52-.35c.71-.19,1.43-.33,2.15-.49C62,6.74,61.26,5.57,60.5,4.45a5.52,5.52,0,0,0-1.06-.91l.85-2,3,.58,2.21,2.95,2.16-.38-1,3A7.55,7.55,0,0,1,67.87,7c1.06-.29,2.69-1,3.12-.62,1.55,1.52,2.81.42,4.19,0L76.31,7c-.41.81-.81,1.63-1.22,2.45-1.51-.23-3-.54-4.53-.64a1.9,1.9,0,0,0-1.4.86,1.81,1.81,0,0,0,.16,1.43c.18.38.64.63,1.09,1-2.09.27-2.25.09-3.51-1.92-.38-.6-1.23-.91-1.87-1.35v2c-2.31,1-2.54,2.56-.4,4,1.93,1.33,3.41,3.09,5.91,3.9,2,.66,3.56,3.05,5.22,4.76.71.74,1,1.91,1.8,2.51,2.88,2.19,3.68,6,6.64,8.13.18.13.17.52.27.78l2.13,5.31,2-.8c-.14,1.12-.28,2.24-.41,3.36l-1.51.72c1.22,3.1,2.24,6,.22,9-.09-.1-.25-.21-.25-.32C86.68,46,84,40.4,81.5,34.86c-.79-1.76-2.64-3.15-4.23-4.44-2.77-2.23-6.19-3.83-8.49-6.44-4.4-5-9.53-9-14.6-13.24A1.86,1.86,0,0,0,53,10.39c-4.15,0-8.5-.82-11.93,2.57a1.45,1.45,0,0,1-.56.3c-4.46,1.64-8.16,4.46-12,7.19-5.94,4.23-8.93,10.32-12,16.49a2.63,2.63,0,0,0-.24.58c-.41,2.38-.9,4.76-1.18,7.16-.39,3.33-.79,6.68-.86,10A70.15,70.15,0,0,0,14.94,62.34Z"/><path class="cls-3" d="M86.87,52.59c2-3,1-5.9-.22-9l1.51-.72h3.7a18.72,18.72,0,0,1-.27-2.52,5,5,0,0,1,.49-1.48l1.19.63a64.91,64.91,0,0,0,2.86,6.42,8.61,8.61,0,0,1,.77,7l1.44.09c-.28,1.62-.52,3.25-.86,4.85-1.38,6.48-2.62,13.09-6,18.82A52.53,52.53,0,0,1,83.2,86.81c-2,2-4.82,3.14-7.27,4.67L73,90.91c-1.06.8-2,2-3.27,2.35-1,.32-2.43,1.41-3.53-.12-1-1.2-1.32-1.13-2.14.38l-.82,0L62,94h-.84c.17-.36.29-1,.54-1,2.15-.52,1.51-1.9,1.1-3.24l.84-.4,3-2.88a24,24,0,0,0,2.65-1.28c2.45-1.56,5.29-2.79,7.2-4.86,3.72-4,7-8.46,8.07-14.12C85.35,61.66,87.36,57.34,86.87,52.59Z"/><path class="cls-4" d="M61.13,94H62l1.26-.44.82,0,2.14-.38c1.1,1.53,2.51.44,3.53.12,1.23-.39,2.21-1.55,3.27-2.35l2.94.57c-3.05,2.2-6.06,4.49-10,5a4.83,4.83,0,0,0-1.19.42C62,98,59.1,98,56.16,98.11c-4.46.24-8.88,1.17-13.32,1.77s-8.25-1.11-12.27-2.23c-5.88-1.64-10.28-5.83-15-9.23a29.92,29.92,0,0,1-8.15-9.14c-3.69-6.15-4.63-12.68-5-19.52C2,54.44,1,49.09,1.4,43.83c.49-6.68,1.69-13.4,4.72-19.53a17.53,17.53,0,0,1,3.69-4.53c2.5-2.41,5.16-4.64,7.76-6.95-.13,1.9.06,3.9-.48,5.68-.46,1.49-1.75,2.74-2.72,4.07-.86,1.17-1.85,2.24-2.67,3.44-1.6,2.37-3.2,4.74-4.62,7.21-.45.78-.24,1.91-.49,2.84-.47,1.7-1.1,3.36-1.57,5.06A21.28,21.28,0,0,0,4.51,44c-.28,1.88-.66,3.76-.75,5.65a43.81,43.81,0,0,0,.1,6.68A45.9,45.9,0,0,0,5.17,63.6c.55,2.05,1.59,4,2.26,6a14.49,14.49,0,0,1,.65,3.65c.16,3,3,7.38,6,9.24.36-.68.7-1.35,1.05-2l.59.15-.53,2.85L17.81,83c0,.63.08,1.26.17,2.51,2,2.9,5.68,3.53,9.35,4.27a13.32,13.32,0,0,1,2.12.8c.15.53.31,1.06.47,1.6l1.63-.77c2.08,1,4.37,1.74,6.2,3.09,2.12,1.56,4.46,1.15,6.71,1.55a24.09,24.09,0,0,0,4,.06c.17.09.34.25.52.26,1.38.1,2.56-1.43,4.2-.06,2,1.64,1.61-2.4,3.44-1.77.17.06.4-.09.6-.12Z"/><path class="cls-5" d="M51,2.71a17.3,17.3,0,0,1-3.28.87,17.21,17.21,0,0,1-3.54-.43c-1.37-.2-2.62-.46-3.79.87-.57.63-1.87.65-2.85.87-1.66.37-2.94,1-2.72,2.6a16.34,16.34,0,0,0-2.61,1.06c-1.9,1.21-4.36.18-5.38-2.33a31.11,31.11,0,0,1,3-1.41C35.43,2.8,41,.46,47,0a20.94,20.94,0,0,1,3.91.41Z"/><path class="cls-6" d="M75.09,9.45c.41-.82.81-1.64,1.22-2.45,1.92,1.33,4.14,2.39,5.7,4.07a55.35,55.35,0,0,1,6.27,8.31,88.73,88.73,0,0,1,4.11,8.29l-2.09.4c-.27-.84-.55-1.68-.82-2.52l-1.4-3.33-1.51-1.4-.51-.77-.84-1.28-.5-.79L84,17l-5.59-6.23L76.27,9.56Z"/><path class="cls-7" d="M98.34,53l-1.44-.09a8.61,8.61,0,0,0-.77-7,64.91,64.91,0,0,1-2.86-6.42,13.14,13.14,0,0,0-.21-1.67,8.72,8.72,0,0,0-.61-1.32c2.15-.31,1.83,2,2.66,2.73l1.76-1a74,74,0,0,1,1.74,8.1A41.3,41.3,0,0,1,98.34,53Z"/><path class="cls-6" d="M75.18,6.46c-1.38.38-2.64,1.48-4.19,0-.43-.42-2.06.33-3.12.62a7.55,7.55,0,0,0-1.31.61l1-3-2.16.38L63.24,2.1a10,10,0,0,1,2.82.32C69.14,3.68,72.15,5.1,75.18,6.46Z"/><path class="cls-8" d="M96.87,38.26l-1.76,1c-.83-.76-.51-3-2.66-2.73,0-.41,0-.82,0-1.23l1.08-1-1.92-1.16-.41-1.28,0-1.23,1.7-1.42Z"/><path class="cls-6" d="M51,2.71,50.94.43l7.32.87,2,.22-.85,2-.8,0c-.7-1.73-2.11-1.3-3.44-1.14a21.57,21.57,0,0,1-2.51.54A7,7,0,0,1,51,2.71Z"/><path class="cls-5" d="M92.91,29.23l-1.7,1.42-.54-.43-.37-2.15,2.09-.4Z"/><path class="cls-9" d="M17.12,67l6.49,9.61-.49,1c.74,1.53,1.69,2.73,1.85,4s.33,1.63,1.51.88a5.44,5.44,0,0,1,1.37-.4h0l.3,2.65c-1.78-.49-3.9-.53-5.25-1.57-2.17-1.67-3.87-4-5.71-6-1.63-1.83-.93-4.17-1.27-6.28a5.76,5.76,0,0,1-.18-2.31C15.92,67.9,16.64,67.46,17.12,67Z"/><path class="cls-9" d="M61.13,94l-3.92.46c-.2,0-.43.18-.6.12-1.83-.63-1.48,3.41-3.44,1.77-1.64-1.37-2.82.16-4.2.06-.18,0-.35-.17-.52-.26l.84-3h.41a36.7,36.7,0,0,0,5.06-.73c2.71-.76,5.35-1.79,8-2.7.41,1.34,1,2.72-1.1,3.24C61.42,93,61.3,93.63,61.13,94Z"/><path class="cls-7" d="M28.16,84.71l-.3-2.65c1.12.72,2.2,1.47,3.35,2.13,2.53,1.47,5.07,2.91,7.64,4.3a7.76,7.76,0,0,0,6.22.85L43.8,91a12.92,12.92,0,0,1-7.62-1.68l-.84.86-2.5-1.28-2.11-1.28h0c-.07-.51-.14-1-.22-1.65l-1.9.39Z"/><path class="cls-10" d="M43.8,91l1.27-1.67c2.2-1,4.06-.66,5.43,1.46-.27.78-.53,1.57-.8,2.35h-.41Z"/><path class="cls-9" d="M28.61,86.37l1.9-.39c.08.63.15,1.14.22,1.65-2.23-.94-.65,1.1-1.31,1.64l-2.08-1Z"/><path class="cls-2" d="M55.2,2.35c1.33-.16,2.74-.59,3.44,1.14Z"/><path class="cls-9" d="M31.55,91.44l-1.63.77c-.16-.54-.32-1.07-.47-1.6Z"/><path class="cls-9" d="M30.73,87.63l2.11,1.28Z"/><path class="cls-5" d="M44.17,4.65l-1.28.63-.31-.55L43.76,4Z"/><path class="cls-9" d="M35.34,90.19l.84-.86Z"/><path class="cls-11" d="M90.67,30.22l.54.43,0,1.23-.06,1.28c0,.42,0,.85,0,1.27-.28.6-.56,1.22-.86,1.81-.56,1.1-1.13,2.18-1.7,3.27l-2,.8L84.47,35c-.1-.26-.09-.65-.27-.78-3-2.09-3.76-5.94-6.64-8.13-.78-.6-1.09-1.77-1.8-2.51-1.66-1.71-3.17-4.1-5.22-4.76-2.5-.81-4-2.57-5.91-3.9-2.14-1.46-1.91-3,.4-4v-2c.64.44,1.49.75,1.87,1.35,1.26,2,1.42,2.19,3.51,1.92-.45-.41-.91-.66-1.09-1a1.81,1.81,0,0,1-.16-1.43,1.9,1.9,0,0,1,1.4-.86c1.52.1,3,.41,4.53.64l1.18.11,2.14,1.25L84,17l.72.94.5.79.84,1.28.51.77c-.14.5-.27,1-.43,1.6l1.94-.2,1.4,3.33C89,27.34,88.56,29.1,90.67,30.22Z"/><path class="cls-9" d="M88.57,39.51c.57-1.09,1.14-2.17,1.7-3.27.3-.59.58-1.21.86-1.81l1.3.85c0,.41,0,.82,0,1.23a8.72,8.72,0,0,1,.61,1.32,13.14,13.14,0,0,1,.21,1.67l-1.19-.63a5,5,0,0,0-.49,1.48,18.72,18.72,0,0,0,.27,2.52h-3.7C88.29,41.75,88.43,40.63,88.57,39.51Z"/><path class="cls-12" d="M49.7,93.15c.27-.78.53-1.57.8-2.35l13.18-3.1c0,.54,0,1.08-.07,1.62l-.84.4c-2.66.91-5.3,1.94-8,2.7A36.7,36.7,0,0,1,49.7,93.15Z"/><path class="cls-9" d="M63.61,89.32c0-.54,0-1.08.07-1.62l2.94-1.26Z"/><path class="cls-9" d="M66.19,93.14l-2.14.38C64.87,92,65.24,91.94,66.19,93.14Z"/><path class="cls-9" d="M63.23,93.56,62,94Z"/><path class="cls-9" d="M90.67,30.22c-2.11-1.12-1.7-2.88-1.19-4.67.27.84.55,1.68.82,2.52S90.55,29.5,90.67,30.22Z"/><path class="cls-9" d="M88.08,22.22l-1.94.2c.16-.6.29-1.1.43-1.6Z"/><path class="cls-2" d="M78.41,10.81,76.27,9.56Z"/><path class="cls-9" d="M86.06,20.05l-.84-1.28Z"/><path class="cls-9" d="M84.72,18,84,17Z"/><path class="cls-5" d="M92.43,35.28l-1.3-.85c0-.42,0-.85,0-1.27h.47l1.92,1.16Z"/><path class="cls-9" d="M91.59,33.16h-.47l.06-1.28Z"/><path class="cls-13" d="M69.06,47.82q.93-4.18,1.84-8.37c.85-3.9-3-10.45-6.88-11.25-2.71-.56-5,1.09-6.85,2.59a108.2,108.2,0,0,0-8.89,8.52c-2.54,2.55-5.66,4.36-8.3,6.84s-5.21,5.59-9.89,4.53c-.38-1.06-.82-2.32-1.1-3.11,1.6-.72,2.92-1.21,4.14-1.88a15.57,15.57,0,0,0,6.17-5.54C41.91,35.8,46,32.84,50,29.9c2.59-1.89,5.24-3.71,7.71-5.74a5.8,5.8,0,0,1,5.58-1c4.2,1.47,8.48,3.33,10.19,8,.7,1.86.53,4,.65,6.1.18,3,.32,6,.35,9A23.26,23.26,0,0,1,74,49.65c-1-.06-1.82-2.07-3.11-.43C70.27,48.75,69.67,48.28,69.06,47.82Z"/><path class="cls-14" d="M22.17,63.09c-2.92-2.75-3.37-6.1-3.8-9.49C17.47,46.44,19.62,40,23.18,34a56,56,0,0,1,7-8.77,3.28,3.28,0,0,1,3.11-.56c1,.64,2,1.84.77,3.51-2.26,3-4.29,6.17-6.39,9.3-.42.63-.61,1.42-1.05,2a16.32,16.32,0,0,1-2.51,3.08A6.68,6.68,0,0,0,22,48.22c.1,3.1.83,6.18,1,9.29A29.93,29.93,0,0,1,22.17,63.09Z"/><path class="cls-7" d="M74.18,50.07c.91.59,1.26,2.07,2.83,1.67.18-.05.83.89.89,1.42a40.12,40.12,0,0,1-2.08,17.52c-.89,2.69-6.27,6.5-8.74,6.39C65,77,64,75.64,64.93,73.72c.73-1.46,2.07-2.62,3-4s2.1-2.66,2.3-4.11c.56-4.16.67-8.37,1-12.56l.15-.11Z"/><path class="cls-6" d="M69.06,47.82c.61.46,1.21.93,1.81,1.4L71.35,53l-.15.11c-2.56.58-5.18.95-5.92,4.22-.43,1.9-2.06,2.51-3.9,2.62-1,.07-2.08.26-3.13.4l-1.11-1.46-1.9,1.37c0-2-1.59-1.52-2.67-1.68-1.76-.27-3.39-.61-4.24-2.41,1.84-.28,2.17-2.06,3.16-3.19,1.51.74,3.08,1.36,4.51,2.22,2.18,1.32,7.88-.81,9.41-3.42C66.29,50.23,67.82,49.11,69.06,47.82Z"/><path class="cls-12" d="M43.88,56.81a30.73,30.73,0,0,1,3.42,3.63c1.09,1.58,2.41,1.71,4,1.31l-1.56,4c-3.76.91-6.26-.23-8.8-4.25a42.51,42.51,0,0,1-2.26-4.71Z"/><path class="cls-9" d="M49.9,20.35c-.85,1.1-1.4,2.5-2.36,2.88a3.9,3.9,0,0,1-4.69-1.18,6,6,0,0,1-.79-3.43c0-1.66,1.17-2,2.67-1.59a16,16,0,0,1,3.35.87C48.81,18.3,49.19,19.34,49.9,20.35Z"/><path class="cls-2" d="M49.76,65.8l1.56-4,3.92-1.54,1.9-1.37,1.11,1.46c-.47,1-1.27,1.88-1.35,2.87A11.32,11.32,0,0,1,54,69.52c-.15-.36-.52-.81-.42-1.07a12.48,12.48,0,0,1,1.11-1.83l-4.39-.56Z"/><path class="cls-9" d="M53.22,70.85a26.65,26.65,0,0,0,.47,3.46,3.86,3.86,0,0,0,1.16,1.83c1.52,1.28.71,2.51-.21,3.41s-2,.85-3.08-.21c-1.87-1.8-3-3.78-2.55-6.42l1.63.34c.42.1.84.22,1.25.33A5.41,5.41,0,0,0,52,72.28,4.8,4.8,0,0,0,51.4,71Z"/><path class="cls-15" d="M33,75.7c-3.34-.2-5-3.06-3.33-5.69.53-.83,1.16-1.5,2.12-.38.25.28.7.68,1,.62,2.75-.55,2.48,1.85,3.07,3.24C36.3,74.54,34.6,75.79,33,75.7Z"/><path class="cls-9" d="M43.88,56.81l-5.18,0c-1.46-2.77-.67-5.25,1-7.93C42.29,51.09,43,54,43.88,56.81Z"/><path class="cls-12" d="M53.22,70.85,51.4,71A4.8,4.8,0,0,1,52,72.28a5.41,5.41,0,0,1-.14,1.31c-.41-.11-.83-.23-1.25-.33L49,72.92q.65-3.42,1.27-6.86l4.39.56a12.48,12.48,0,0,0-1.11,1.83c-.1.26.27.71.42,1.07C53.72,70,53.47,70.4,53.22,70.85Z"/><path class="cls-15" d="M51.49,52.93c-1,1.13-1.32,2.91-3.16,3.19-1.72-.75-1.47-2.38-1.54-3.75a10.13,10.13,0,0,1,.73-2.82A5.73,5.73,0,0,1,51.49,52.93Z"/><path class="cls-7" d="M27.85,82.05a5.44,5.44,0,0,0-1.37.4c-1.18.75-1.34.51-1.51-.88s-1.11-2.49-1.85-4l.49-1Z"/><path class="cls-16" d="M71.35,53l-.48-3.73c1.29-1.64,2.06.37,3.11.43.07.14.14.28.2.42Z"/></g></svg>