<svg xmlns="http://www.w3.org/2000/svg" viewBox="0 0 100 100"><defs><style>.cls-1{fill:#6aadaf;}.cls-2{fill:#64aaac;}.cls-3{fill:#91c2c4;}.cls-4{fill:#6fafb1;}.cls-5{fill:#90c2c3;}.cls-6{fill:#43989b;}.cls-7{fill:#83bbbc;}.cls-8{fill:#52a0a3;}.cls-9{fill:#87bdbe;}.cls-10{fill:#94c4c6;}.cls-11{fill:#9bc8c9;}.cls-12{fill:#92c3c5;}.cls-13{fill:#96c5c7;}.cls-14{fill:#75b3b5;}.cls-15{fill:#4a9c9f;}.cls-16{fill:#8dc0c2;}.cls-17{fill:#5fa8aa;}.cls-18{fill:#8bbfc0;}.cls-19{fill:#61a8aa;}.cls-20{fill:#67acae;}</style></defs><g id="Ebene_6" data-name="Ebene 6"><path class="cls-1" d="M89.46,35.76l.06,1.13c-.29.26-.76.48-.82.79s.43.56.73.91A9.46,9.46,0,0,0,89.07,44a.82.82,0,0,1-.25.62c-.49.4-.42.83-.32,1.39a7,7,0,0,1,0,2.42A1,1,0,0,0,89,49.64V50c-.32.26-.83.46-.93.79-.39,1.22-.63,2.5-1,3.74-.18.7-.48,1.37-.65,2.07s-.27,1.49-.39,2.24l-1,1L84,59.67l.14.95h0l-1.8.63a13.13,13.13,0,0,1-4.86-.72l-1.66.08-.7-.66a17.62,17.62,0,0,0-2.11-2c-.67-.47-1-1.57-2.08-1.33v0c.22-.78-.12-1.09-.89-1l-.79-.78a3.1,3.1,0,0,0-3-2.31c-.66-1.47-.91-1.63-2-1.37a5.07,5.07,0,0,1-1.13-.42C62.06,49.87,61,49.07,60,48.29l-.79-1.76c.54.4,1.07.82,1.63,1.19.32.21.71.5,1,.45.79-.11,1.37-.08,1.76.76.16.34.65.54,1,.84.52-.93,1.38-1.6.59-2.64l.06-.06a6.7,6.7,0,0,1,1.6.68c2.48,1.91,4.92,3.88,7.38,5.83l.48.29.36.22c0,.48-.39,1.15.45,1.34a8.52,8.52,0,0,0,1.24.1A26.58,26.58,0,0,0,79.64,57c.42.17,1-.07,1.52-.13.26-.09.67-.11.75-.28.49-1,.9-2.08,1.34-3.12L83.57,52c.29-.23.78-.41.84-.69A9.77,9.77,0,0,0,84.89,47,2.87,2.87,0,0,1,85,45.45a3.34,3.34,0,0,0,.18-3c-.1-.19,0-.5.05-.75a5.34,5.34,0,0,0-.6-3.48l0-.54c.32-.54.86-1.07,0-1.61l-.08-1,1-.22-.07-.36h-.89l-.17-2.94c.38-.49.69-1-.09-1.4l-.08-.37,1.19-.14c-.23-1.25-.43-2.31-.62-3.37a.35.35,0,0,1,.07-.27c.38-.36.34-.64-.07-.94a.56.56,0,0,1-.13-.5c.28-.64-.13-.95-.56-1.26V23A6,6,0,0,0,84.59,21a11.11,11.11,0,0,1-.13-3.27c.14-.7-.62-1.57-.93-2.39a12.51,12.51,0,0,1-.38-1.49,8.07,8.07,0,0,0-.67-1.35c-.56-.92-.78-2.1-1.93-2.58a.17.17,0,0,1-.06-.12l-.7-1.27L77,5.78c-.3-.28-.56-.7-.91-.8a22,22,0,0,0-5-1.14,34.07,34.07,0,0,0-5.64.69c-.06-.59.16-.92.79-1A3.08,3.08,0,0,0,67,3.32c1.06-.38,2.13-.81,3.22,0a.68.68,0,0,0,.6-.06c.5-.35,1-.74,1.58-1.24l-1.14-.73.21-.11L71,.13A2.24,2.24,0,0,1,71.8,0c1.74.49,3.47,1,5.2,1.53.51.34,1.23.56,1.5,1a2.21,2.21,0,0,0,2.3,1.17l.34.24c-.29,1.13-.22,1.21.82,1l.18.19a.69.69,0,0,1-.1.25c-.15.17-.32.32-.48.48.26.06.52.13.78.17A1.23,1.23,0,0,0,82.71,6l.39.37.79,1h0c.18.7.35,1.39.54,2.12l1,.07.27.75c0,.14-.12.28-.09.4s.16.24.24.36c-.77.5-.26.66.22.82l.2.39v.39l.19.58h.38l.38,0c0,.11,0,.23,0,.34l0,.21c-.31.45-.81.87-.88,1.34,0,.3.57.69.89,1L88,17c0,.12.06.25.1.37l-.12.37a2.47,2.47,0,0,0-.2.8c.08.6.25,1.18.38,1.77,0,.06,0,.12,0,.17A11.13,11.13,0,0,0,88,24.9c.08,1,.15,2.06.23,3.19h1c0,.13,0,.27-.07.41s-.09.26-.13.39v.38l-.4.39a1.21,1.21,0,0,0,0,.19l-.31.25.31.15.21,2c0,.42-.23,1,.56,1,0,.64.05,1.28.08,1.93Z"/><path class="cls-2" d="M38.82,100l-.77-.07-.26-.11h-1.1a6.48,6.48,0,0,0-1.11-.35c-.46,0-1,.14-1.4,0-1-.4-1.92-1-2.89-1.42-.73-.34-1.34-1-2.29-.77l-.39-.37c0-.52-.19-.79-.74-.48L26.71,96c-.85-.84-1.7-1.7-2.58-2.52-.13-.12-.42-.07-.63-.11l-.18-.18a2,2,0,0,0-1.45-1.84L19.63,88v-.58h0c.55-.52-.14-.56-.31-.8l.09-.39L20,86l-.58-.77c0-.28,0-.57,0-.85.1,0,.2-.08.29-.06.24,0,.59.26.7.17a2.54,2.54,0,0,0,.46-.76l-1.64-.25c0-.19,0-.38-.05-.58.5.18.8.2.95-.49.09-.41.61-.73.93-1.08h.79l.51,1.56-.95.51.17.2,1.51.25a19.26,19.26,0,0,1,1.45,3.18c.45,1.69,1.67,2.73,2.82,3.83a14.07,14.07,0,0,0,2.29,1.71c.21.13.63-.07.95-.12l.84.42-.61.44v.36l4.7,1.83.6.14h.8a6.81,6.81,0,0,0,1.41.14c.19,0,.35-.38.52-.59l.41.06.78.15,1.38-.17c1.43-.4,2.9-.61,4.32-1.1s2.8-.35,3.84-1.47C50,92.23,51,92.34,51,91.37l.3-.07c.62.12,1.12.08,1-.76l.71-.43a22.4,22.4,0,0,0,2.06-1.38,6.66,6.66,0,0,0,1-1.24l.35-.26,2.76-.67-1-.72.76-.38.6-.8.81-.75c1.34,0,1.77,1.23,2.56,2L61,88c-.48.38-1.45.21-1.34,1.22l-.58.57-2.31-1.17L58,90.53l-.34.26-2.08.88,0-.61a.87.87,0,0,0-.41.72c.11.84-.26.92-1,1s-1.49.21-1.82,1.06c-.07.17-.31.3-.5.4-1,.47-1.92,1-2.9,1.38a7.44,7.44,0,0,1-2.73.9c-1.2,0-1.26.56-1.29,1.39l-1.17.41-.78.18L41,99.23l-.46.32-.3.1ZM21.39,84.6,21,85l.76.5.09-.12Z"/><path class="cls-1" d="M55.16,37.27v-.34c.57-.46.4-.85-.11-1.2,0-.13,0-.26,0-.38a1.82,1.82,0,0,0,.22-.6c0-.74,0-1.48,0-2.21.09-1.37.22-2.74.38-4.1.06-.53.29-1,.33-1.56.05-.78,0-1.57,0-2.35,0-.23-.33-.62-.29-.66.68-.73.15-1.62.33-2.41a19.82,19.82,0,0,0,.26-2.56l.06-1c.2-.82.44-1.64.6-2.47A10.27,10.27,0,0,0,57.07,14l.09-1.54c0-.14.07-.28.1-.42.2-.77.41-1.55.61-2.33.06-.14.13-.27.19-.4s.07-.38.1-.57.12-.33.19-.5l.89-1.67.56-.41a5.92,5.92,0,0,0,1.59-.51c.67-.45,1-.15,1.31.37.14.23.26.48.39.72a22,22,0,0,0-1.68,3.46c-.58,2-.89,4.09-1.31,6.13a1.57,1.57,0,0,0-.17,1.79v.76c-.8.18-1.09.61-.7,1.41.09.18.16.51.07.62-.74.88-.38,2-.64,3a7.52,7.52,0,0,0-.17,2.72c.06.63-.39,1.47.5,1.9l0,.37c-.24.27-.68.52-.69.8-.08,1.26,0,2.52,0,3.85l-.48.12A8.93,8.93,0,0,1,58.25,35a4.38,4.38,0,0,1,0,1.14c0,.43,0,.81.59.77l.25,1.31a3.44,3.44,0,0,0,.9,3l.26.52L61,43a13.43,13.43,0,0,0,4.33,4.09l-.06.06c-.81.64-1.62-.44-2.48.14l.14-1.3L61,46.56c-.06-.25-.14-.55-.22-.85-.18-.71-1-1.05-1.47-.52a4.62,4.62,0,0,0-.48,1.31l-2-3c.19-.12.57-.33.56-.34-.28-.54-.6-1.06-.91-1.58v-.19L56.25,41l-.59-1.18c0-.13,0-.25,0-.38-.1-.71-.2-1.41-.31-2.12C55.33,37.31,55.22,37.3,55.16,37.27ZM58.34,20.8c-.05,0-.12-.08-.15-.06s0,.1-.08.15.12.07.16.06S58.32,20.85,58.34,20.8Z"/><path class="cls-3" d="M62.93,85.89c-.79-.75-1.22-2-2.56-2l5.09-6.1c1.05-1.27,2.11-2.53,3.16-3.81a4.93,4.93,0,0,0,.55-.8,35.49,35.49,0,0,0,4-9.15,6,6,0,0,0-.76-5.18c-.54-.73-1-1.52-1.48-2.28,1.11-.25,1.41.85,2.08,1.32a17.62,17.62,0,0,1,2.11,2l.7.66,1.66-.08c0,1.2,0,2.39.08,3.59,0,.14.23.29.21.42-.19,1.4.21,2.86-.76,4.17-.84,1.12-1.33,2.49-2.09,3.67-.54.83-1.28,1.53-1.89,2.31a5.56,5.56,0,0,0-.52,1,2.49,2.49,0,0,1-.31.58,33.94,33.94,0,0,1-2.91,3.08c-1.32,1.12-2.14,2.63-3.31,3.86C65,84.17,63.93,85,62.93,85.89Z"/><path class="cls-4" d="M21,81.37c-.32.35-.84.67-.93,1.08-.15.69-.45.67-.95.49-.62-1-.07-2,0-2.91a34.64,34.64,0,0,1,.79-5.18,18,18,0,0,1,1.35-3.51c.83-1.76,1.69-3.51,2.66-5.19.8-1.36,1.8-2.61,2.7-3.91.18-.26.35-.53.54-.83A4.3,4.3,0,0,0,23.81,61c-1.93.42-3.65-.26-5.44-.64a7.42,7.42,0,0,1-1.26-.48,6.37,6.37,0,0,1-1.1-.65.74.74,0,0,1-.14-.68c.5-.45,1.05-.82,1.59-1.22l.39,0,.47.25,1.44.17h.54a12.13,12.13,0,0,0,6.1-.41,3.71,3.71,0,0,0,2.81-2.32,6.17,6.17,0,0,1,.57-1,8.48,8.48,0,0,1-.2,1.83,8.86,8.86,0,0,1-1.06,2,6.46,6.46,0,0,1-1.34,1.51,7.51,7.51,0,0,1-1.68.74l.12.37,1-.18.82,1.07c.46.59.93,1.13.62,2-.07.22.35.62.54.94v.51c-.12.11-.28.19-.35.32-.79,1.43-1.6,2.85-2.33,4.3s-1.2,2.78-1.86,4.14c-.91,1.87-.92,3.91-1.17,5.9a9.9,9.9,0,0,0,.18,1.3c0,1-.06,2.06-.09,3.09l-1.51-.25-.17-.2.95-.51-.51-1.56c1-.27.38-.73.22-1.13l-.31-.14Zm3.41-10.8a6.92,6.92,0,0,0-1.05.66c-.39.35-.89.76-.16,1.28C24.73,71.28,24.78,71.19,24.41,70.57Zm-2.2,5.19-.51-.15-.37.9.72.3Z"/><path class="cls-5" d="M56.81,43.52l2,3,.37,0c.26.59.53,1.17.79,1.76l-5.32-1.61a.94.94,0,0,0-.29,0c-3.84.32-7.27,1.89-10.68,3.49-1.16.55-2.19,1.37-3.34,1.94a10.78,10.78,0,0,0-3.5,2.33,5.51,5.51,0,0,0-.62,1.09l-.53-.8-.59-1.56,0-.44a2.9,2.9,0,0,0,1-.28c.75-.6,1.4-1.33,2.18-1.89s1.68-.91,2.47-1.45a15.57,15.57,0,0,0,1.54-1.4,2.11,2.11,0,0,1,.4-.39,24,24,0,0,1,2.9-1.58,34.87,34.87,0,0,1,4.67-1.52c1.68-.39,3.42-.59,5.14-.83A6.14,6.14,0,0,1,56.81,43.52Z"/><path class="cls-6" d="M35.1,53.17l.59,1.56c-.26.41-.67.79-.73,1.22a3.08,3.08,0,0,1-2.63,2.92c-.13,0-.22.25-.33.39.16.12.3.3.47.35.46.15,1,.18,1.39.37.84.37,1.61.89,2.45,1.23.55.22,1,.53.87,1.06a1.5,1.5,0,0,1-1.09.84c-1,.06-1.32.56-1.37,1.42l-.19.19a1.91,1.91,0,0,1-.42-.24,9.72,9.72,0,0,1-1.31-1.42A7.63,7.63,0,0,1,32,61.34,11.24,11.24,0,0,1,31.76,60L31.3,60a12.4,12.4,0,0,1-.71,1.16c-.17.22-.45.49-.67.49-.82,0-1.63-.15-2.44-.24l-.82-1.07-1,.18-.12-.37a7.51,7.51,0,0,0,1.68-.74,6.46,6.46,0,0,0,1.34-1.51,8.86,8.86,0,0,0,1.06-2,8.48,8.48,0,0,0,.2-1.83.21.21,0,0,1,0-.13,6,6,0,0,0,.57-.78c.35-.71.66-1.44,1-2.16,1.83,0,1.88,0,2.06.85-.94,0-1.21.33-1.19,1.31a4,4,0,0,1,1.06.58c.7.72,1,.69,1.41-.22C34.79,53.38,35,53.28,35.1,53.17Z"/><path class="cls-7" d="M31.24,47.69c.39-2.6.77-5.19,1.17-7.79a1.24,1.24,0,0,1,.2-.42A16.22,16.22,0,0,0,34.19,37a1.08,1.08,0,0,1,1.29-.79c1.49.07,2.11.83,1.91,2.27-.29,2.08-.48,4.17-.78,6.24-.26,1.79-.61,3.56-.93,5.33H35.5v-.68c0-.73.38-1.6-.78-1.85a1.19,1.19,0,0,1,.06-.72,2.92,2.92,0,0,1,.7-.6c-.68-.92-1.3-.87-1.76,0a7.8,7.8,0,0,1-.83,1,4.89,4.89,0,0,0-.34.64Z"/><path class="cls-8" d="M63.09,6.73c-.13-.24-.25-.49-.39-.72-.32-.52-.64-.82-1.31-.37a5.92,5.92,0,0,1-1.59.51l-.06-.43C60.5,4.49,61.26,3.27,62,2a.22.22,0,0,0,.13-.12C63.5,1.5,64.7.58,66.3.89A6.41,6.41,0,0,0,68.54.45l.43,0,.23,0,.46.42-.35.89,1-.19L70.57.17l.4,0,.49,1-.21.11L72.39,2c-.63.5-1.08.89-1.58,1.24a.68.68,0,0,1-.6.06c-1.09-.78-2.16-.35-3.22,0a3.08,3.08,0,0,1-.74.25c-.63,0-.85.37-.79,1a.28.28,0,0,1-.15.08c-.45,0-.9-.08-.8.6l-.38.37-1-.47.2,1.29ZM61.78,4.57c.36-.3.7-.48.69-.6A4.33,4.33,0,0,0,62.06,3l-.18.08Z"/><path class="cls-8" d="M32.55,47.87a4.89,4.89,0,0,1,.34-.64,7.8,7.8,0,0,0,.83-1c.46-.91,1.08-1,1.76,0a2.92,2.92,0,0,0-.7.6,1.19,1.19,0,0,0-.06.72c1.16.25.79,1.12.78,1.85V50l-1,1.19.76.56c0,.13,0,.26,0,.39a2.56,2.56,0,0,1,0,.27l0,.29c0,.15,0,.29,0,.44s-.31.21-.37.36c-.4.91-.71.94-1.41.22a4,4,0,0,0-1.06-.58c0-1,.25-1.29,1.19-1.31-.18-.83-.23-.85-2.06-.85a2.06,2.06,0,0,1,.86-2.19C32.47,48.67,32.46,48.19,32.55,47.87Z"/><path class="cls-9" d="M44.88,98c0-.83.09-1.42,1.29-1.39a7.44,7.44,0,0,0,2.73-.9c1-.42,1.94-.91,2.9-1.38.19-.1.43-.23.5-.4.33-.85,1.2-1,1.82-1.06s1.13-.21,1-1a.87.87,0,0,1,.41-.72l0,.61,2.08-.88a2.54,2.54,0,0,1-.48.82c-1.09.87-2.21,1.69-3.33,2.53a21.85,21.85,0,0,1-6,3.23A21.86,21.86,0,0,1,44.88,98Z"/><path class="cls-10" d="M89,49.64a1,1,0,0,1-.45-1.21,7,7,0,0,0,0-2.42c-.1-.56-.17-1,.32-1.39a.82.82,0,0,0,.25-.62,9.46,9.46,0,0,1,.36-5.41c-.3-.35-.77-.68-.73-.91s.53-.53.82-.79c.12,2.07.57,4.19.25,6.18a54.24,54.24,0,0,0-.48,5.66A3.85,3.85,0,0,1,89,49.64Z"/><path class="cls-11" d="M56.32,18.9a19.82,19.82,0,0,1-.26,2.56c-.18.79.35,1.68-.33,2.41,0,0,.3.43.29.66,0,.78,0,1.57,0,2.35,0,.52-.27,1-.33,1.56-.16,1.36-.29,2.73-.38,4.1-.06.73,0,1.47,0,2.21a1.82,1.82,0,0,1-.22.6c0-2.35-.13-4.7,0-7a56.86,56.86,0,0,1,.55-5.68C55.71,21.37,56.06,20.14,56.32,18.9Z"/><path class="cls-12" d="M17.46,57.35c-.54.4-1.09.77-1.59,1.22a.74.74,0,0,0,.14.68,6.37,6.37,0,0,0,1.1.65c-1.19-.11-2.38-.2-3.57-.36a.76.76,0,0,1-.4-.63A3,3,0,0,1,17.46,57.35Z"/><path class="cls-10" d="M86.05,58.87c.12-.75.21-1.51.39-2.24s.47-1.37.65-2.07c.34-1.24.58-2.52,1-3.74.1-.33.61-.53.93-.79-.09.45-.16.92-.29,1.37s-.4,1.08-.55,1.63c-.43,1.65-.8,3.31-1.28,4.95C86.77,58.32,86.33,58.57,86.05,58.87Z"/><path class="cls-3" d="M89.18,28.09h-1c-.08-1.13-.15-2.16-.23-3.19a11.13,11.13,0,0,1,.19-4.45l.39.2c0,.1,0,.2.05.3l.15.48c0,.19,0,.38,0,.57v3.49l-.1,0L88.5,27l.73,0c0,.12,0,.25,0,.38s0,.39-.07.59A.25.25,0,0,1,89.18,28.09Z"/><path class="cls-4" d="M32.55,47.87c-.09.32-.08.8-.3,1A2.06,2.06,0,0,0,31.39,51c-.33.72-.64,1.45-1,2.16a6,6,0,0,1-.57.78l1.41-6.26Z"/><path class="cls-13" d="M29,97.26c.95-.28,1.56.43,2.29.77,1,.46,1.9,1,2.89,1.42.4.16.94,0,1.4,0a6.48,6.48,0,0,1,1.11.35A7.79,7.79,0,0,1,32,99a15.38,15.38,0,0,1-1.94-.88A7.5,7.5,0,0,1,29,97.26Z"/><path class="cls-4" d="M10.12,69.89c.34-.4.51-.8.79-.9a1.68,1.68,0,0,1,1.27,0,1.15,1.15,0,0,1,.37,1.1c-.16.33-.51,1-1.18.48A13,13,0,0,0,10.12,69.89Z"/><path class="cls-14" d="M20.86,52.07c-.28-.39-.59-.62-.57-.81a1.11,1.11,0,0,1,1.22-1.12c.29,0,.52.52.78.8Z"/><path class="cls-13" d="M89.23,26.93l-.73,0,.22-1.51.1,0V22a15.16,15.16,0,0,1,.34,1.86C89.23,24.88,89.21,25.9,89.23,26.93Z"/><path class="cls-13" d="M80.8,3.76a2.21,2.21,0,0,1-2.3-1.17c-.27-.48-1-.7-1.5-1a27.17,27.17,0,0,1,2.61,1.1A5.91,5.91,0,0,1,80.8,3.76Z"/><path class="cls-2" d="M46.42,42.4l-.71-.64a6.63,6.63,0,0,1,1.23-.93c.11,0,.5.49.75.76Z"/><path class="cls-13" d="M23.5,93.35c.21,0,.5,0,.63.11.88.82,1.73,1.68,2.58,2.52A5.11,5.11,0,0,1,23.5,93.35Z"/><path class="cls-3" d="M87.2,16.15c-.32-.35-.93-.74-.89-1,.07-.47.57-.89.88-1.34l.27.61.27,1.18C87.56,15.76,87.38,16,87.2,16.15Z"/><path class="cls-4" d="M36.81,27.75c.27-1,.68-1.47,1.49-1.32.2,0,.53.51.47.68C38.45,28.14,37.58,27.43,36.81,27.75Z"/><path class="cls-1" d="M70.57.17,70.3,1.64l-1,.19.35-.89L69.2.52Z"/><path class="cls-13" d="M85.39,9.51l-1-.07c-.19-.73-.36-1.42-.54-2.12Z"/><path class="cls-9" d="M58,90.53l-1.29-1.89L59,89.81Z"/><path class="cls-11" d="M57.07,14A10.27,10.27,0,0,1,57,15.46c-.16.83-.4,1.65-.6,2.47Z"/><path class="cls-3" d="M88.17,20.28c-.13-.59-.3-1.17-.38-1.77a2.47,2.47,0,0,1,.2-.8l.27.17c0,.34,0,.68.08,1,0,.12.09.24.13.37l.06.59Z"/><path class="cls-4" d="M19.17,83.52l1.64.25a2.54,2.54,0,0,1-.46.76c-.11.09-.46-.12-.7-.17-.09,0-.19,0-.29.06C19.3,84.12,19.24,83.82,19.17,83.52Z"/><path class="cls-13" d="M88.79,32.2l-.21-2v-.4a1.21,1.21,0,0,1,0-.19H89l.27,2.56Z"/><path class="cls-13" d="M21.87,91.33a2,2,0,0,1,1.45,1.84C22.84,92.55,22.35,91.94,21.87,91.33Z"/><path class="cls-5" d="M35.23,51.78l-.76-.56,1-1.19h.18Z"/><path class="cls-11" d="M55.16,37.27c.06,0,.17,0,.18.07.11.71.21,1.41.31,2.12C55.48,38.73,55.32,38,55.16,37.27Z"/><path class="cls-13" d="M86.23,12.23l-.2-.39L85.81,11c-.08-.12-.21-.23-.24-.36s.06-.26.09-.4l1.13,2Z"/><path class="cls-13" d="M87.2,16.15c.18-.2.36-.39.53-.59.09.47.19.94.28,1.41Z"/><path class="cls-5" d="M56.46,41.6c.31.52.63,1,.91,1.58,0,0-.37.22-.56.34l-.18-.88C56.57,42.3,56.52,42,56.46,41.6Z"/><path class="cls-13" d="M82.71,6a1.23,1.23,0,0,1-.37.08c-.26,0-.52-.11-.78-.17.16-.16.33-.31.48-.48a.69.69,0,0,0,.1-.25Z"/><path class="cls-13" d="M82,5c-1,.26-1.11.18-.82-1Z"/><path class="cls-9" d="M59.61,89.24c-.11-1,.86-.84,1.34-1.22Z"/><path class="cls-10" d="M82.29,61.25l1.8-.63Z"/><path class="cls-10" d="M84.09,60.62,84,59.67l1.14.18C84.75,60.1,84.42,60.36,84.09,60.62Z"/><path class="cls-11" d="M55.66,39.84c.2.39.39.79.59,1.18L56,41Z"/><path class="cls-12" d="M88.79,32.2h.47l.09,1C88.56,33.21,88.83,32.62,88.79,32.2Z"/><path class="cls-4" d="M19.4,85.27,20,86l-.55.22Z"/><path class="cls-13" d="M86.43,13.2c-.07-.19-.13-.39-.19-.58l.69,0c.08.19.17.38.26.58l-.38,0Z"/><path class="cls-11" d="M55.05,35.73c.51.35.68.74.11,1.2C55.13,36.53,55.09,36.13,55.05,35.73Z"/><path class="cls-13" d="M38.82,100l1.46-.35Z"/><path class="cls-13" d="M83.89,7.32l-.79-1Z"/><path class="cls-11" d="M56.46,41.6c.06.35.11.7.17,1-.19-.41-.37-.82-.55-1.23h.38Z"/><path class="cls-13" d="M27.87,96.41c.55-.31.72,0,.74.48Z"/><path class="cls-4" d="M19.34,86.65c.17.24.86.28.31.8C19.55,87.18,19.45,86.92,19.34,86.65Z"/><path class="cls-12" d="M86.93,12.64l-.69,0c0-.13,0-.26,0-.39h.56Z"/><path class="cls-13" d="M87.46,14.38l-.27-.61a1.55,1.55,0,0,0,0-.21C87.31,13.83,87.38,14.11,87.46,14.38Z"/><path class="cls-11" d="M59.74,5.72l.06.43-.56.41Z"/><path class="cls-9" d="M42.93,98.55l.78-.18Z"/><path class="cls-13" d="M88.17,20.28l.36-.41c0,.26,0,.52,0,.78l-.39-.2C88.18,20.4,88.17,20.34,88.17,20.28Z"/><path class="cls-13" d="M89.17,27.9c0-.2,0-.39.07-.59C89.22,27.51,89.2,27.7,89.17,27.9Z"/><path class="cls-13" d="M89.46,35.76l0-.64Z"/><path class="cls-13" d="M88.26,17.88,88,17.71l.12-.37Z"/><path class="cls-13" d="M88.47,19.28c0-.13-.09-.25-.13-.37Z"/><path class="cls-12" d="M18.32,57.64l-.47-.25Z"/><path class="cls-13" d="M40.58,99.55l.46-.32Z"/><path class="cls-13" d="M88.77,21.43,88.62,21Z"/><path class="cls-5" d="M56.46,41.41h-.38c0-.12-.07-.24-.1-.37l.27,0Z"/><path class="cls-11" d="M57.26,12c0,.14-.07.28-.1.42C57.19,12.31,57.23,12.17,57.26,12Z"/><path class="cls-11" d="M58.35,8.23c-.07.17-.13.34-.19.5C58.22,8.57,58.28,8.4,58.35,8.23Z"/><path class="cls-12" d="M89,29.65h-.41l.4-.39Z"/><path class="cls-11" d="M58.06,9.3c-.06.13-.13.26-.19.4C57.93,9.56,58,9.43,58.06,9.3Z"/><path class="cls-13" d="M89,28.89c0-.13.09-.26.13-.39C89.07,28.63,89,28.76,89,28.89Z"/><path class="cls-4" d="M19.64,87.45v0Z"/><path class="cls-1" d="M69,.49l-.43,0Z"/><path class="cls-12" d="M20.3,57.8h0Z"/><path class="cls-1" d="M62.13,1.92A.18.18,0,0,1,62,2Z"/><path class="cls-5" d="M35.17,52.44a2.56,2.56,0,0,0,0-.27A2.56,2.56,0,0,1,35.17,52.44Z"/><path class="cls-13" d="M37.79,99.82l.26.11Z"/><path class="cls-15" d="M59.18,46.53l-.37,0a4.62,4.62,0,0,1,.48-1.31c.43-.53,1.29-.19,1.47.52.08.3.16.6.22.85L62.89,46l-.14,1.3c.86-.58,1.67.5,2.48-.14.79,1-.07,1.71-.59,2.64-.39-.3-.88-.5-1-.84-.39-.84-1-.87-1.76-.76-.32,0-.71-.24-1-.45C60.25,47.35,59.72,46.93,59.18,46.53Z"/><path class="cls-5" d="M84,23c-.51-2.54-1-5.07-1.52-7.61a21.17,21.17,0,0,0-.56-3,16.4,16.4,0,0,0-1.35-2.55c1.15.48,1.37,1.66,1.93,2.58a8.07,8.07,0,0,1,.67,1.35,12.51,12.51,0,0,0,.38,1.49c.31.82,1.07,1.69.93,2.39A11.11,11.11,0,0,0,84.59,21,6,6,0,0,1,84,23Z"/><path class="cls-10" d="M83.57,52c.29-2.47.67-4.94.86-7.43.16-2.1.11-4.22.15-6.33a5.34,5.34,0,0,1,.6,3.48c0,.25-.15.56-.05.75a3.34,3.34,0,0,1-.18,3A2.87,2.87,0,0,0,84.89,47a9.77,9.77,0,0,1-.48,4.33C84.35,51.6,83.86,51.78,83.57,52Z"/><path class="cls-5" d="M84.11,29.85a16.34,16.34,0,0,1-.18-1.7c0-1.59,0-3.19.06-4.78.43.31.84.62.56,1.26a.56.56,0,0,0,.13.5c.41.3.45.58.07.94a.35.35,0,0,0-.07.27c.19,1.06.39,2.12.62,3.37Z"/><path class="cls-11" d="M69.2,54.72c-.07,0-.15,0-.2,0-1.63-1.16-3.57-1.93-4.74-3.68,1.06-.26,1.31-.1,2,1.37A3.1,3.1,0,0,1,69.2,54.72Z"/><path class="cls-10" d="M81.16,56.9l2.09-3.4c-.44,1-.85,2.1-1.34,3.12C81.83,56.79,81.42,56.81,81.16,56.9Z"/><path class="cls-11" d="M75.11,54.09l1.69,1.44a8.52,8.52,0,0,1-1.24-.1C74.72,55.24,75.16,54.57,75.11,54.09Z"/><path class="cls-5" d="M84.28,31.62l-.09-1.4C85,30.64,84.66,31.13,84.28,31.62Z"/><path class="cls-10" d="M84.53,37.71c0-.54,0-1.07,0-1.61C85.39,36.64,84.85,37.17,84.53,37.71Z"/><path class="cls-3" d="M70.88,56.54l-.89-1C70.76,55.45,71.1,55.76,70.88,56.54Z"/><path class="cls-5" d="M84.46,35.14c0-.19,0-.38,0-.58h.89l.07.36Z"/><path class="cls-5" d="M80.49,9.76c-.23-.42-.47-.84-.7-1.27C80,8.92,80.26,9.34,80.49,9.76Z"/><path class="cls-12" d="M85.81,11l.22.82C85.55,11.68,85,11.52,85.81,11Z"/><path class="cls-11" d="M74.27,53.58l.48.29Z"/><path class="cls-12" d="M88.58,29.85v.4l-.31-.15Z"/><path class="cls-12" d="M86.43,13.2h0Z"/><path class="cls-10" d="M30.54,92.49c-.14-2.68-.29-5.35-.42-8a4.36,4.36,0,0,1,.14-.95,3.22,3.22,0,0,0,.44.77,4.76,4.76,0,0,0,1.16.9A3.44,3.44,0,0,0,33,85.3a1.09,1.09,0,0,0,0,.18v.38a.6.6,0,0,1-.08.08c-.83-.29-.93-.19-.85.68.15,1.6.32,3.22.32,4.83,0,.54.24,1.58-1,1.46Z"/><path class="cls-16" d="M41.18,94.71c3.42-.65,6.54-2.2,9.8-3.34,0,1-1,.86-1.44,1.34-1,1.12-2.54,1-3.84,1.47s-2.89.7-4.32,1.1Z"/><path class="cls-16" d="M53,90.11l3-2.62a6.66,6.66,0,0,1-1,1.24A22.4,22.4,0,0,1,53,90.11Z"/><path class="cls-16" d="M56.43,87.23l1.77-1.39,1,.72Z"/><path class="cls-17" d="M21,81.37l.7-1.27.31.14c.16.4.76.86-.22,1.13Z"/><path class="cls-18" d="M36.88,95.69l1.93-.45c-.17.21-.33.57-.52.59A6.81,6.81,0,0,1,36.88,95.69Z"/><path class="cls-18" d="M41.18,94.71l.2.57L40,95.45V95Z"/><path class="cls-16" d="M51.28,91.3l1-.76C52.4,91.38,51.9,91.42,51.28,91.3Z"/><path class="cls-16" d="M40,95v.49l-.78-.15Z"/><path class="cls-4" d="M21.39,84.6l.46.75-.09.12L21,85Z"/><path class="cls-16" d="M59,85.46l.6-.8Z"/><path class="cls-18" d="M35.48,95.54l.6.14Z"/><path class="cls-5" d="M59.92,18.87c-.22,2.21-.43,4.43-.65,6.64-.1,1-.2,2-.29,3-.89-.43-.44-1.27-.5-1.9a7.52,7.52,0,0,1,.17-2.72c.26-1-.1-2.09.64-3,.09-.11,0-.44-.07-.62C58.83,19.48,59.12,19.05,59.92,18.87Z"/><path class="cls-5" d="M59,28.86c0,1.71-.09,3.41-.13,5.12,0,1,0,2,0,2.93-.59,0-.61-.34-.59-.77a4.38,4.38,0,0,0,0-1.14,8.93,8.93,0,0,0-.51-1.37l.48-.12c0-1.33,0-2.59,0-3.85C58.27,29.38,58.71,29.13,59,28.86Z"/><path class="cls-12" d="M59.06,38.22l.9,3A3.44,3.44,0,0,1,59.06,38.22Z"/><path class="cls-5" d="M60.1,16.32c-.06.6-.11,1.2-.17,1.79A1.57,1.57,0,0,1,60.1,16.32Z"/><path class="cls-12" d="M60.22,41.74,61,43Z"/><path class="cls-5" d="M58.34,20.8c0,.05,0,.13-.07.15s-.1,0-.16-.06,0-.14.08-.15S58.29,20.77,58.34,20.8Z"/><path class="cls-8" d="M29.28,71c-.06-1.1-.12-2.21-.19-3.31,1.22.53,1.49-.57,2-1.09-.4-.63-1-1.19-1-1.77s.68-1,1.16-1.58a2.79,2.79,0,0,0-2.62,1.1c-.19-.32-.61-.72-.54-.94.31-.88-.16-1.42-.62-2,.81.09,1.62.22,2.44.24.22,0,.5-.27.67-.49A12.4,12.4,0,0,0,31.3,60l.46.06A11.24,11.24,0,0,0,32,61.34a7.63,7.63,0,0,0,.78,1.72,9.72,9.72,0,0,0,1.31,1.42,1.91,1.91,0,0,0,.42.24,4.64,4.64,0,0,0-1.11,5.2c-.2.57-.33,1-.5,1.46s-.36.92-.54,1.38a10.17,10.17,0,0,1-1.15,1.37c-.61.53-.95.36-1.11-.35l.85-.72a5.76,5.76,0,0,1-.75-.64c-.27-.31-1-.47-.48-1.12Zm2.5-6c-.08-.06-.14-.15-.2-.15s-.17.14-.15.17a1,1,0,0,0,.2.22Zm-1.84,4.2c-.05,0-.12-.08-.16-.06s-.05.1-.08.15.13.08.17.07S29.92,69.23,29.94,69.17Z"/><path class="cls-2" d="M28.64,64.33a2.79,2.79,0,0,1,2.62-1.1c-.48.61-1.17,1.1-1.16,1.58s.62,1.14,1,1.77c-.54.52-.81,1.62-2,1.09v-.6l.9-.19-1.14-1c-.06-.35-.13-.7-.2-1Z"/><path class="cls-17" d="M24.41,70.57c.37.62.32.71-1.21,1.94-.73-.52-.23-.93.16-1.28A6.92,6.92,0,0,1,24.41,70.57Z"/><path class="cls-17" d="M22.21,75.76l-.16,1-.72-.3.37-.9Z"/><path class="cls-8" d="M36.22,55.53l1.4,2.26a6.62,6.62,0,0,0,1,.26c1.09.15,2.17.26,3.28.39v.93a5.91,5.91,0,0,0,1,.13c.8,0,1.6-.15,2.4-.23l.35,0c.09.09.16.26.25.27,1.2.09,2.41.17,3.61.24l1.09.07-.25,1-1.73.92-.7.06c-1.32-.15-1.48-.05-1.68,1a5.16,5.16,0,0,1-1.59.34,15.61,15.61,0,0,0-7.54.94c-.88-.43-1.57.39-2.39.37.05-.86.39-1.36,1.37-1.42a1.5,1.5,0,0,0,1.09-.84c.17-.53-.32-.84-.87-1.06-.84-.34-1.61-.86-2.45-1.23-.43-.19-.93-.22-1.39-.37-.17,0-.31-.23-.47-.35.11-.14.2-.37.33-.39A3.08,3.08,0,0,0,35,56c.06-.43.47-.81.73-1.22Zm6.47,4.88c.06-.08.16-.14.15-.2s-.13-.16-.16-.15a1.07,1.07,0,0,0-.23.2Z"/><path class="cls-18" d="M34.72,64.53c.82,0,1.51-.8,2.39-.37-.69,1.09-1.45,2.14-2,3.28a20.32,20.32,0,0,0-1.65,3.81,11.54,11.54,0,0,0-.49,6.3c.52,1.93.5,4.14,2.66,5.24.05,0,.08.1.12.15l-.2.38c-.39,0-1,.07-1.14-.14-.53-.67-1.16-.49-1.8-.44l-.2-.39-.18-.79v-.39l-.85-1.72c-.06.11,0,0,.07-.09.92-.42,1.21-1,.6-1.91a.49.49,0,0,1,0-.42c.47-.81.37-1.48-.75-2.1,1.21-.06,1.24-.69,1.18-1.39a6.77,6.77,0,0,1,0-.78c.18-.46.37-.92.54-1.38s.3-.89.5-1.46a4.64,4.64,0,0,1,1.11-5.2Z"/><path class="cls-1" d="M61.78,4.57l.1-1.46L62.06,3a4.33,4.33,0,0,1,.41.94C62.48,4.09,62.14,4.27,61.78,4.57Z"/><path class="cls-1" d="M64.13,5.58c-.27.27-.53.55-.79.82-.06-.36-.11-.72-.2-1.29Z"/><path class="cls-1" d="M65.31,4.61l-.8.6C64.41,4.53,64.86,4.57,65.31,4.61Z"/><path class="cls-19" d="M32.56,82.74c.64,0,1.27-.23,1.8.44.17.21.75.1,1.14.14l.14.66-.93.63L35,85l1.07-.91a10,10,0,0,0,1.2.3c.45.07,1.07.46,1.15-.45h2.74l.21.75.28,0,.13-.8,1.45-.2.89-.17,1-.11.2-.06c1.41-.6,2.82-1.21,4.24-1.79,1.62-.67,2.73-2.22,4.53-2.56.08,0,.15-.12.22-.18C55,78.2,55.69,77.6,56.39,77c.22,0,.48,0,.64-.08,1.22-.8,2.43-1.63,3.63-2.46s1.81-.61,2.05.87a3.76,3.76,0,0,1,0,.58c-.71.79-1.47,1.54-2.13,2.38a7.28,7.28,0,0,0-.7,1.49c-.83,0-1.44.24-1.5,1.19l-.17.22c-.76-.72-1.54,0-2.36-.12l-.41,1.65c-1.95,1.32-3.86,2.7-5.86,3.93a8.29,8.29,0,0,1-2.46.75c-.7.16-1.42.23-2.13.35-1.24.2-2.47.43-3.71.6a9.63,9.63,0,0,1-2.33.16,10.45,10.45,0,0,1-2.21-.63c-.81-.28-1.61-.6-2.42-.91,0-.17,0-.33,0-.5.45-.07,1.07.19,1.18-.74l-1,0-1.13-1.79,0,0Z"/><path class="cls-10" d="M62.74,75.91a3.76,3.76,0,0,0,0-.58c-.24-1.48-.83-1.72-2.05-.87S58.25,76.12,57,76.92c-.16.11-.42.06-.64.09l3.75-3.91c.33-.34.68-.69,1-1l3.19-2.94a2.56,2.56,0,0,0,.6-2.79,13.82,13.82,0,0,1-.26-1.43A22.81,22.81,0,0,0,64,61c-.44-1.24-1.33-2.32-1.9-3.53a3,3,0,0,0-2.55-1.62,2.27,2.27,0,0,0,.69-2.4l-1.18.08.1-.95a5,5,0,0,1,4,1,2.2,2.2,0,0,1,.51.58c.55.83,1.09,1.68,1.64,2.52,0,.09.16.17.15.25-.15,1.69,1.41,2.86,1.37,4.53a2,2,0,0,0,.4,1.26c1.14,1.24.88,2.81,1.08,4.25a12.45,12.45,0,0,1-.14,3.16,2.93,2.93,0,0,1-.54,1.09C66.37,73.16,64.43,74.4,62.74,75.91Z"/><path class="cls-12" d="M45.3,59.27c-.8.08-1.6.18-2.4.23a5.91,5.91,0,0,1-1-.13v-.93c-1.11-.13-2.19-.24-3.28-.39a6.62,6.62,0,0,1-1-.26,25.22,25.22,0,0,0,2.86-2.59,11.12,11.12,0,0,1,6.38-3.62,7.87,7.87,0,0,0,1.88-.78,8.36,8.36,0,0,1,5.94-.49,19.92,19.92,0,0,1,2.15.55,3,3,0,0,1,2.2,1.7,8,8,0,0,0-1.14,1,4.77,4.77,0,0,0-.52,1.09c-1.68-.42-3.18-1.61-5-1.29-1.17.21-2.3.64-3.48.81-2.75.39-4.55,2.2-6.39,4.17.29.13.53.26.79.35C43.94,58.87,44.62,59.07,45.3,59.27Z"/><path class="cls-20" d="M57.37,54.61a4.77,4.77,0,0,1,.52-1.09,8,8,0,0,1,1.14-1l.16,0-.1.95,1.18-.08a2.27,2.27,0,0,1-.69,2.4C58.48,56.09,58.08,55.08,57.37,54.61Z"/><path class="cls-9" d="M55.47,82.72l.41-1.65c.82.13,1.6-.6,2.36.12C57.64,82.28,56.44,82.3,55.47,82.72Z"/><path class="cls-10" d="M34.31,86.47c0,.17,0,.33,0,.5-.93.29-1.2-.38-1.47-1a.6.6,0,0,0,.08-.08h.39l.57.22Z"/><path class="cls-9" d="M58.41,81c.06-1,.67-1.21,1.5-1.19Z"/><path class="cls-2" d="M32.38,72.76a6.77,6.77,0,0,0,0,.78c.06.7,0,1.33-1.18,1.39,1.12.62,1.22,1.29.75,2.1a.49.49,0,0,0,0,.42c.61.9.32,1.49-.6,1.91-.09,0-.13.2-.07.09l.85,1.72L31.31,81a8.49,8.49,0,0,1-.32,1.3,1.07,1.07,0,0,0,.39,1.48c.54.44,1.72.32,1.57,1.5a3.44,3.44,0,0,1-1.09-.12,4.76,4.76,0,0,1-1.16-.9,3.22,3.22,0,0,1-.44-.77c-.18-.63-.35-1.25-.52-1.87.06-1.07.15-2.13.16-3.2a22,22,0,0,0-.1-2.57c-.09-.82.43-1.8-.61-2.37,0-.24-.07-.49-.1-.73s.07-.28.1-.42L29.28,71l.46.32c-.5.65.21.81.48,1.12a5.76,5.76,0,0,0,.75.64l-.85.72c.16.71.5.88,1.11.35A10.17,10.17,0,0,0,32.38,72.76Z"/><path class="cls-11" d="M29.19,73.5c1,.57.52,1.55.61,2.37a22,22,0,0,1,.1,2.57c0,1.07-.1,2.13-.16,3.2a5.22,5.22,0,0,1-.36-1.25c-.1-2-1.09-3.93-.52-6C29,74.09,29.08,73.8,29.19,73.5Z"/><path class="cls-4" d="M28.85,65.89l1.14,1-.9.19Z"/><path class="cls-11" d="M29.19,72.35c0,.14-.07.28-.1.42C29.12,72.63,29.16,72.49,29.19,72.35Z"/><path class="cls-17" d="M33,85.3c.15-1.18-1-1.06-1.57-1.5A1.07,1.07,0,0,1,31,82.32a8.49,8.49,0,0,0,.32-1.3l.86.15v.39l.18.79.2.39.87,1.13,0,0,1.13,1.79-.6.41-.57-.22L33,85.48A1.09,1.09,0,0,1,33,85.3Z"/><path class="cls-2" d="M33,85.48l.39.39H33Z"/><path class="cls-2" d="M31.78,65l-.15.24a1,1,0,0,1-.2-.22s.09-.16.15-.17S31.7,64.91,31.78,65Z"/><path class="cls-2" d="M29.94,69.17c0,.06,0,.14-.07.16s-.11,0-.17-.07,0-.14.08-.15S29.89,69.15,29.94,69.17Z"/><path class="cls-12" d="M45.65,59.31c1.31-.21,2.61-.49,3.92-.62a2.62,2.62,0,0,1,2.92,3.1H48.62l1.73-.92.25-1-1.09-.07c-1.2-.07-2.41-.15-3.61-.24C45.81,59.57,45.74,59.4,45.65,59.31Z"/><path class="cls-12" d="M47.92,61.85l-1.68,1C46.44,61.8,46.6,61.7,47.92,61.85Z"/><path class="cls-12" d="M42.69,60.41l-.24-.15a1.07,1.07,0,0,1,.23-.2s.15.09.16.15S42.75,60.33,42.69,60.41Z"/><path class="cls-2" d="M35.7,82.94l.43.13c0,.34,0,.69,0,1L35,85l-.31-.4.93-.63-.14-.66Z"/><path class="cls-2" d="M32.36,82.35l-.18-.79Z"/><path class="cls-18" d="M36.09,84.1c0-.34,0-.69,0-1l2.31.88c-.08.91-.7.52-1.15.45A10,10,0,0,1,36.09,84.1Z"/><path class="cls-2" d="M33.92,86.09l.6-.41,1,0c-.11.93-.73.67-1.18.74Z"/><path class="cls-18" d="M41.18,84l.62-.09c0,.27-.09.53-.13.8l-.28,0Z"/><path class="cls-18" d="M43.25,83.66l.89-.17Z"/><path class="cls-18" d="M45.09,83.38l.2-.06Z"/></g></svg>