<svg xmlns="http://www.w3.org/2000/svg" viewBox="0 0 100 100"><defs><style>.cls-1{fill:#69acae;}.cls-2{fill:#5ba5a7;}.cls-3{fill:#4f9ea1;}.cls-4{fill:#8abfc0;}.cls-5{fill:#92c3c5;}.cls-6{fill:#6caeb0;}.cls-7{fill:#6dafb1;}.cls-8{fill:#91c2c4;}.cls-9{fill:#469a9d;}.cls-10{fill:#52a0a3;}.cls-11{fill:#62a9ab;}.cls-12{fill:#8fc1c3;}.cls-13{fill:#84bbbd;}.cls-14{fill:#8cbfc1;}.cls-15{fill:#87bdbe;}.cls-16{fill:#7fb9ba;}.cls-17{fill:#8ec0c2;}.cls-18{fill:#94c4c6;}.cls-19{fill:#98c7c8;}.cls-20{fill:#76b3b5;}.cls-21{fill:#65abad;}.cls-22{fill:#5fa7aa;}.cls-23{fill:#9dc9ca;}</style></defs><g id="Ebene_4" data-name="Ebene 4"><path class="cls-1" d="M53.51,30.18a.34.34,0,0,1-.17-.11l-.87-1.18-.69-.82.16-.86c-.53,0-1-.11-1.51-.1-1.89,0-3.91.43-5-1.9l-2,1.94L42,26.24c-.07-.57,0-1.58-.22-1.63a4.37,4.37,0,0,1-2.36-1.94V22.4c.32-.81.59-1.64,1-2.41.15-.3.56-.47.85-.69l0,0a4.5,4.5,0,0,0,.31,1.3A6,6,0,0,0,43.93,23,22.51,22.51,0,0,0,47,24.45a5.2,5.2,0,0,0,1.63-.1c1.12.77,2.5.53,3.91-1,3.64-1.15,7.21-2.64,10.94-3.33a19.65,19.65,0,0,1,7.6.55c1.93.42,3.69,1.62,5.82,2.61-.66-1.51-1.23-2.8-1.8-4.09l-.44-.6-.28-.25a3.88,3.88,0,0,0-1.48-3.21,13.92,13.92,0,0,1-3-3.06c-1.46-2-3.85-2.5-5.8-3.65a21.82,21.82,0,0,0-5.26-2.1c-2.13-.61-4.23-1.61-6.56-1.13a16.15,16.15,0,0,1-3.49.71,2.94,2.94,0,0,0-2.46,1c-1.22.34-2.44.66-3.66,1a2.18,2.18,0,0,0-1.77,1.92L39,9.49c.14-1.19.14-1.19-1.12-2.15C39,6.28,39.34,4.54,41,3.93c1.39-.52,2.73-1.17,4.1-1.76,1,.58,1.9,1.3,2.67-.32a1.48,1.48,0,0,1,1.4-.21c1,1,2,.6,3,.19.62-.23,1.84-.39,2-.14,1.1,2,2.94,1.35,4.22.89s1.71-.43,1.64.89c.62.16,1.31.13,1.55.44A3.9,3.9,0,0,0,64.89,5.3C66,5.36,66.3,6.54,67,6.86c2.39,1.06,4,3,5.86,4.64.66.57,1.26,1.21,1.9,1.8s1,.88,1.48,1.31,1.13,1,1.83,1.58c-.21.5.12.84.92.84.18.59.36,1.19.55,1.79s.22,1.36.42,2c.61,1.91,1.26,3.8,1.89,5.7l-1.12.5-1.83-3-.37-.13c.3,2-1.77,1.1-2.37,2.32l1.41.51L78,28.89a5.58,5.58,0,0,0-.88-.51c-.09,0-.28.19-.43.29-2.05-1.26-4-2.66-6.18-3.74a7.65,7.65,0,0,0-3.66-.72,40.6,40.6,0,0,0-6.2.79c-1.62.31-3.2.88-4.88,1.37.15.35.18.59.31.71a8.54,8.54,0,0,0,6.17,2.55c1,0,2.11,0,3.17,0,1.49.48,3,1.33,4.47,1.36,2,0,3.24,1.34,4.38,2.46A12,12,0,0,0,77.84,36c.15.83-.7,1.91.76,2.51l.21-1.43c.71.23,1.22.49.74,1.44s-.93,2.23-1.27,3.06l-2.34-.11c-.14-.08-.37-.14-.41-.26-.51-1.58-1-3.17-1.47-4.7-.37-.07-.94-.09-1-.19-.23-1.5-1.66-1.71-2.58-2.43a34.81,34.81,0,0,0-3.27-2l-.82,1.33h-.77l-.52.25-5.88-.67C58.59,32.21,58,31.5,57,31.6a1.73,1.73,0,0,1-1.28-.73A1.62,1.62,0,0,0,53.51,30.18Zm1-5.58c-.65.76-1.74,1.48-1.79,2.27,0,.6,1.23,1.29,2,2a6.4,6.4,0,0,1,.49-1.93C55.74,26.07,55.57,25.45,54.48,24.6Z"/><path class="cls-2" d="M9.07,33.71a3.62,3.62,0,0,0,.64-3.24,6.64,6.64,0,0,1,.13-2.65,52.3,52.3,0,0,1,1.47-7.08c1-2.88,3.22-4.93,5.3-7A14.83,14.83,0,0,1,18,12.6c1.07-.15,2.24-.19,1.81-1.82l.06.06-.05-.06.57-.71h0l1.09.51.21-1.25A45.19,45.19,0,0,1,27.78,6c1.68-.63,3.63-.51,5.46-.72-.08.39-.17.79-.25,1.19-1.83-.31-2.5,1.33-3.55,2.3-.81-.81,1.12-1.92-.67-2.5L24.84,9.36l2.24.71a22.21,22.21,0,0,1-2.48,1.75,17.71,17.71,0,0,0-4.22,3.3,3.73,3.73,0,0,0-.26.82,14.07,14.07,0,0,0-2.4,2.2c-1,1.51-1.85,3.18-2.76,4.78-.71.43-1.42.86-2.12,1.3l-.3.58c1.69-.59,1,.65,1.5,1l-.12,1.59a1,1,0,0,0,0,.16c-1,.1-.85.79-.88,1.47l1.19-.15h0l1.3,1.8v.51l-1,1-.27.52-.74.8,1,.75,0,.57-.29.2-2-.5.47,2-.43.94c-1.27-2.45-1.38.71-2.1.44L8.89,36.23l.69-.81-.8-1c0-.15.06-.3.1-.45Z"/><path class="cls-3" d="M76.68,28.67c.15-.1.34-.33.43-.29a5.58,5.58,0,0,1,.88.51l-.41-2.19-1.41-.51c.6-1.22,2.67-.29,2.37-2.32l.37.13,1.83,3,1.12-.5.66,0,.21,1.51-1.59.54.06.44,2,.53h0c-.32,1-.65,2-1,3L81,32.82c.28,2.14.77,2.47,2.75,1.92h0c0,.12,0,.24,0,.36l-.15.68c-1.18.54-.69,1.52-.51,2.31.23,1,.38,1.8-.6,2.53l-1.19-.51,1.63,2.58-.26.82c-.29.26-.62.5-.88.78C81.1,45,80,45.71,80,46.43a8.38,8.38,0,0,1-.87,4.47c0,.05.12.21.18.31l-.22.53a6.87,6.87,0,0,0-1.44,0c-.76.2-1.48.52-2.22.79l-.28-.3a14.72,14.72,0,0,1,.4-1.52c.37-.93.24-1.59-.82-1.85,0-.26.06-.52.1-.78l.14-.27v-.77l-.17-.24,0-.52.21-.5.16-.33.6.06,2.55-.76-.06-.41c-.78-.17-1.83-.09-1.29-1.42.06-.14-.44-.5-.68-.75l-.27-.76,2.34.11c.34-.83.73-2,1.27-3.06s0-1.21-.74-1.44c0-.25,0-.51,0-.76l.94-.48-1-.56-.19-1.52c.2-.14.58-.38.56-.42-.42-.92-.88-1.81-1.34-2.71l-.37-.68-.13-.33Z"/><path class="cls-4" d="M62.32,56.94l1.54-4.17a2.2,2.2,0,0,0,2.58-1.52,5.06,5.06,0,0,0,0-2l-.3-.5c-.32,1.58-.81,1.24-1.33.64a27.89,27.89,0,0,1,1.66-8c1.1,1.14,2.42.7,3.71.52,0,.8-.06,1.61-.18,2.4-.22,1.59-.6,3.17-.75,4.76-.24,2.58-.35,5.17-.52,7.76L68.17,58l-1.39-1.89-2,2.56-2.49-1.5Z"/><path class="cls-5" d="M79,17c-.8,0-1.13-.34-.92-.84-.7-.6-1.27-1.08-1.83-1.58s-1-.86-1.48-1.31-1.24-1.23-1.9-1.8C71,9.88,69.4,7.92,67,6.86c-.71-.32-1-1.5-2.12-1.56a3.9,3.9,0,0,1-3.28-1.39c-.24-.31-.93-.28-1.55-.44.07-1.32-.29-1.36-1.64-.89S55.3,3.7,54.2,1.69c-.14-.25-1.36-.09-2,.14-1.08.41-2,.77-3-.19a1.48,1.48,0,0,0-1.4.21c-.77,1.62-1.71.9-2.67.32A14.19,14.19,0,0,1,47.58,1c1.65-.41,3.34-.66,5-.93C55.17-.31,57.55.62,60,1.24a15.25,15.25,0,0,1,6.17,3.19,2.66,2.66,0,0,0,.8.42c4.89,1.67,7.93,5.51,10.86,9.43A13.08,13.08,0,0,1,79,17Z"/><path class="cls-6" d="M62.32,57.14l2.49,1.5,2-2.56L68.17,58l.61-1.1,1.24.39c0,.51,0,1,0,1.54s-.18,1.1-.27,1.65c0,.17,0,.35,0,.52A5.13,5.13,0,0,0,69,62.33c-.06.3.24.67.39,1-.34,2,.06,4.12-1.21,5.94-.21.31-.13.82-.19,1.23l-1.13.25c-1.1-3.41-.46-6.67-.29-10.1L63.1,61c-1.64-.09-3.29-.16-4.93-.28a17.64,17.64,0,0,1-1.74-.31c-.28-.31-.49-.74-.83-.91-.86-.41-.87-1-.58-1.7.66.41,1.33,1.17,1.81,1.06C58.69,58.42,60.5,57.73,62.32,57.14Z"/><path class="cls-7" d="M8.78,34.43l.8,1-.69.81,1.25,1.71c.72.27.83-2.89,2.09-.44a22.25,22.25,0,0,0-1,4.24c-.09,3.18.37,6.28,2.49,8.87l-.53,1.18h-2L11,52.1c.66.37,1.57.66.79,1.55C9,50.52,7.17,47,7.37,42.69c0-.66-.28-1.33-.31-2A8.73,8.73,0,0,1,8.78,34.43Z"/><path class="cls-6" d="M31.68,52.42H29.94c-.16-1-1.05-.68-1.65-.88-.69-.4-1.38-.81-2.09-1.2-2.05-1.13-2.83-3-3.28-5.16,1.36-.72,2.18-.35,3.21.6a17.73,17.73,0,0,0,4,2.35,1.58,1.58,0,0,0,1.24-.07c1.42-.76,2.8-1.61,4.2-2.41.51-.3,1-.54,1.56-.85s1-.1,1.3.49.64,1.14-.24,1.61c-.38.19-.61.66-.91,1l-.12.61-.27,1c-.75.12-2,0-2.15.4-.53,1.11-1.56,1.19-2.38,1.7A3.52,3.52,0,0,0,31.68,52.42Z"/><path class="cls-1" d="M22.54,36a17.74,17.74,0,0,1,1.77-1,14.16,14.16,0,0,1,4-1.46,15.28,15.28,0,0,1,4.75.7A15.75,15.75,0,0,1,36,35.61c1.52.75,3.27,1.33,3.21,3.48a2.43,2.43,0,0,1-.75,1.54c-.22.2-1,.06-1.32-.16C35.39,39.36,33.72,38.17,32,37a4,4,0,0,0-3.92,0,12.06,12.06,0,0,1-2.59,1c-.52.16-1.14.06-1.63.26-1.25.54-2,.32-2.25-1.12l.29-.64.44-.34.59.38.16-.29Z"/><path class="cls-8" d="M55.61,73.19a2.94,2.94,0,0,1-2.41,2.73,19.51,19.51,0,0,1-7.36.39,23.82,23.82,0,0,1-6.35-2.1A3.79,3.79,0,0,1,38,72.93a1.56,1.56,0,0,1,.13-1.4c.15-.23.84-.31,1.2-.18,2,.68,3.92,1.87,5.94,2.06s4.15.52,5.94-.87a12.87,12.87,0,0,0,1.43-1.43c.73-.77,1.17-.7,1.73.21C54.79,72.06,55.32,72.76,55.61,73.19Z"/><path class="cls-9" d="M37.87,7.34c1.26,1,1.26,1,1.12,2.15l1.92.25-.12.62c-.27.12-.78.25-.78.38,0,1.1-.48,2.34.69,3.19v.77a3,3,0,0,0,0,3.6l.53,1c-.29.22-.7.39-.85.69-.39.77-.66,1.6-1,2.41-1.68,0-2.27-.61-2.32-2.29a7.38,7.38,0,0,0-.29-1.3l-.33-.53.37-.75a4.85,4.85,0,0,0,.61-.84,15.64,15.64,0,0,0,.48-1.64l-1.23-.64-.15-.93.12-1.5A1.42,1.42,0,0,0,35,10.59L34.3,10c0-1.54.18-1.69,1.83-1.77.16,0,.31-.29.47-.45l.77-.5Z"/><path class="cls-8" d="M69.7,60.45c.09-.55.21-1.09.27-1.65s0-1,0-1.54c.81,0,1.62,0,2.43,0a2.67,2.67,0,0,0,.8-.35l1.9-.33c.17.89,2.09,1.81,3.15,1.53a9.38,9.38,0,0,1,7.46.74,12.13,12.13,0,0,0-.29,1.3c-.11.86-.48,1-1.18.52a3.48,3.48,0,0,0-4.31.11,3.23,3.23,0,0,1-2.55.32c-2.3-.93-4.63-.53-7-.58Z"/><path class="cls-6" d="M36.81,18.81a7.38,7.38,0,0,1,.29,1.3c0,1.68.64,2.29,2.32,2.29v.27a4,4,0,0,1-.85.24c-1.09,0-2.11,0-2.86,1.15-.47.69-1.34,1.58-2,1.56-1.42,0-2.26.87-3.3,1.42a24.55,24.55,0,0,0-2.2,1.45l.17.25-1.87.31,1,1.2-1.25-.14c-.19-.76-.61-1.57.63-1.9.2-.05.39-.55.38-.83,0-.72-.16-1.44-.25-2.15a2.81,2.81,0,0,0,0-.29l5.13-2.56c1.17.1,2.1-.16,2.37-1.48l1.58-2.07Z"/><path class="cls-4" d="M63.1,61l3.47-.31c-.17,3.43-.81,6.69.29,10.1L68,70.51c-.07,4.35-.51,8.66-.89,13l-.6.1a6.62,6.62,0,0,1-.79-2c-.1-2.47,0-4.94-.07-7.41s-.36-4.91-.54-7.37a15.59,15.59,0,0,1-.1-2.55c.12-1.25.11-2.32-1.4-2.71C63.4,61.47,63.26,61.16,63.1,61Z"/><path class="cls-6" d="M18.57,42.21c-.15.35-.29.69-.43,1a4.23,4.23,0,0,0-.42.74c-.49,1.41-1,1.57-2.18.72a6.16,6.16,0,0,0-1-.44L14.75,43c.14-.09.37-.14.41-.26.93-2.4,1.86-4.8,2.73-7.22.07-.19-.23-.51-.36-.77l.23-.53,1.61-.75c.47.09,1.05.39,1.4.21,1.17-.58,2.25-1.33,3.36-2l-1.57,2.65-1-.65c-.28,1.08-.13,2.31-1.38,2.26a5.39,5.39,0,0,1,.1,2.12,5.34,5.34,0,0,1-1.5,1.83A1.62,1.62,0,0,0,18.57,42.21Z"/><path class="cls-10" d="M24.13,31.66c-1.11.69-2.19,1.44-3.36,2-.35.18-.93-.12-1.4-.21,0-.17,0-.34,0-.51V31.42l1.44.59c1-.29,1-.31.26-1.39-.18-.27-.3-.94-.2-1,1.26-.7.68-1.87.79-2.85h0l1-.23L25,25.05h1.52l.51.17c.09.71.23,1.43.25,2.15,0,.28-.18.78-.38.83-1.24.33-.82,1.14-.63,1.9l-1.48,1.07-.31.17Z"/><path class="cls-1" d="M70.23,42c-1.29.18-2.61.62-3.71-.52a1.36,1.36,0,0,0-1.69-1,3.09,3.09,0,0,1-3-1.29l-.47-1.53,1.75-1.19,1.79.19.48,1,.64-.84a.3.3,0,0,1,.18.06V39l2.69-2.09.37.27a4.48,4.48,0,0,1,.08,1c-.12.92.17,1.24,1.06.84l1.85,1.43Z"/><path class="cls-6" d="M18.72,61.26c0,1.8.1,3.6,0,5.39,0,.35-.65.68-1,1a5.39,5.39,0,0,1-.64-.79,21.74,21.74,0,0,1-2.6-8.5c0-.68-.12-1.35-.18-2l2.45.78c.43.62,1.34,1.42,1.19,1.82C17.56,60.06,18.27,60.57,18.72,61.26Z"/><path class="cls-5" d="M27.55,30.25l-1-1.2,1.87-.31-.17-.25A24.55,24.55,0,0,1,30.41,27c1-.55,1.88-1.45,3.3-1.42.67,0,1.54-.87,2-1.56.75-1.11,1.77-1.11,2.86-1.15a4,4,0,0,0,.85-.24,4.37,4.37,0,0,0,2.36,1.94c.2.05.15,1.06.22,1.63a13.73,13.73,0,0,1-2.09-1.68c-1-1.14-1.66-1.22-2.28.11C36.86,26.33,35.34,27.1,34,28a34.13,34.13,0,0,1-5,2.29A4,4,0,0,1,27.55,30.25Z"/><path class="cls-11" d="M64.86,49.4c.52.6,1,.94,1.33-.64l.3.5a5.06,5.06,0,0,1,0,2,2.2,2.2,0,0,1-2.58,1.52l-.78-.09L62,52.55c-2.62,0-4.63-1.32-6.44-3.06a11.19,11.19,0,0,1,.88-1.25,4,4,0,0,1,.93-.59C59.42,50.13,62.13,49.8,64.86,49.4Z"/><path class="cls-12" d="M62.32,57.14c-1.82.59-3.63,1.28-5.49,1.69-.48.11-1.15-.65-1.81-1.06-.29.73-.28,1.29.58,1.7.34.17.55.6.83.91a24.33,24.33,0,0,0-2.57.09c-1.66.25-2.94-.65-4.29-1.33a1.37,1.37,0,0,1-.48-1,2.89,2.89,0,0,1,1.45-.9,41.39,41.39,0,0,1,4.72-.3c2.36,0,4.71,0,7.06,0Z"/><path class="cls-4" d="M32.53,98.09l1.32-8.39a3.17,3.17,0,0,0,.12-.49c.08-1.89.51-2.21,2.45-1.68a26.08,26.08,0,0,1-1.67,9.32c-.22.67-1.18,1.09-1.8,1.62Z"/><path class="cls-6" d="M75.15,56.54l-1.9.33c-.27-.68-.93-1.48-.77-2,.59-2,1.44-4,2.2-5.93,1.06.27,1.19.93.82,1.86a14.72,14.72,0,0,0-.4,1.52l.28.3c.74-.27,1.46-.59,2.22-.79a6.87,6.87,0,0,1,1.44,0l-1.11,1.79-.58.71C76.94,56,76.49,56.51,75.15,56.54Z"/><path class="cls-3" d="M16.78,57.13l-2.45-.78c0-.15-.09-.3-.13-.45L14,55.59h0l-.29-.23-.48-.3c0-.36,0-.73-.08-1.17l-1,.19-.31-.42c.78-.89-.13-1.18-.79-1.55l.22-.31h2l.53-1.18.52.12h.22L15.39,52a4.43,4.43,0,0,0,.12-1.36s.39-.11.43,0a8.31,8.31,0,0,1,.59,1c.18.37.34.75.51,1.12l.67.28c.13.83.27,1.66.4,2.48-.18.29-.37.57-.55.85l-.87-.16.1.4Z"/><path class="cls-13" d="M62.86,83.54a4.39,4.39,0,0,1-.28,1.23,7.43,7.43,0,0,1-.91,1.12,6.25,6.25,0,0,1-.8-1.15,46.7,46.7,0,0,1-2-5.08c-.19-.67.23-1.51.37-2.28.83.47,2.09.75,2.4,1.46A25.27,25.27,0,0,1,62.86,83.54Z"/><path class="cls-14" d="M68.54,73.74c1.74-.23,2.3.09,2.82,1.57s1,2.73,1.34,4.13a4.32,4.32,0,0,1,0,2c-.07.32-.55.61-.91.77-.15.07-.6-.19-.69-.4A29.91,29.91,0,0,1,68.54,73.74Z"/><path class="cls-12" d="M14.61,73.3a14.49,14.49,0,0,1,1.45-2.36c1.16-1.31,2.52-2.45,3.68-3.76.78-.89,1.45-.15,2.18-.08a4.1,4.1,0,0,1-.41,1.5,26.15,26.15,0,0,1-3.26,3.55,16.21,16.21,0,0,1-3.18,1.65Z"/><path class="cls-14" d="M39,98.05c0-2.36-.05-4.73,0-7.09,0-.53.51-1,.79-1.57.55.47,1.55.92,1.56,1.41A34,34,0,0,1,41,96.93c-.08.54-1.06,1-1.63,1.43Z"/><path class="cls-13" d="M51.87,93.86a17.56,17.56,0,0,1-.16-1.78c0-.68,0-1.37,1-1.43s1.56.18,1.85,1.12a9.29,9.29,0,0,1-.33,5.71c-.13.43-.75.71-1.15,1.06a5.91,5.91,0,0,1-.56-1.09c-.34-1.16-.63-2.35-.93-3.52Z"/><path class="cls-8" d="M63.1,36.37l-1.75,1.19.47,1.53c-1.48.1-3,.27-4.45.24a2,2,0,0,1-1.51-.86c-.19-.36.12-1.16.45-1.57,1.13-1.43,2.75-1.11,4.27-1C61.43,36,62.26,36.22,63.1,36.37Z"/><path class="cls-15" d="M75.94,41.46l.27.76c-.17,1.11-.35,2.23-.52,3.34l-.6-.06c-.13-.88-.3-1.75-.37-2.63a12.29,12.29,0,0,0-4.44-8.15l-.7-.49-3.15-1,.82-1.33a34.81,34.81,0,0,1,3.27,2c.92.72,2.35.93,2.58,2.43,0,.1.59.12,1,.19.48,1.53,1,3.12,1.47,4.7C75.57,41.32,75.8,41.38,75.94,41.46Z"/><path class="cls-14" d="M34.1,75.59c-.25,3.48-2.29,6.77-5,7.71.47-1.48.87-2.82,1.33-4.13.28-.81.65-1.57,1-2.36C32,75.41,32.45,75.21,34.1,75.59Z"/><path class="cls-5" d="M32.33,69.59c0-2.77,1.36-5,2.7-7.27.16-.26.85-.26,1.3-.25.17,0,.45.35.49.57.39,2.4-1.84,6.11-4.14,7A1.37,1.37,0,0,1,32.33,69.59Z"/><path class="cls-15" d="M57.17,86.72A7.89,7.89,0,0,1,56.49,88c-.55.69-1,.49-1.29-.27-.71-1.9-1.42-3.8-2.06-5.73a1.41,1.41,0,0,1,.24-1.16,1.06,1.06,0,0,1,1-.11,5,5,0,0,1,1.64,1.75A35.71,35.71,0,0,1,57.17,86.72Z"/><path class="cls-4" d="M24,79.87c1.09-2.23,2-4.31,3.15-6.25.27-.46,1.35-.44,2.14-.67C29.22,76.74,26.72,80.14,24,79.87Z"/><path class="cls-16" d="M67.05,84.2a11.33,11.33,0,0,1,1.8,1.39c1.14,1.3,1,2.85.56,4.37a1,1,0,0,1-.81.56,2.25,2.25,0,0,1-1.31-.74A28.92,28.92,0,0,1,66,86.89,1.91,1.91,0,0,1,67.05,84.2Z"/><path class="cls-12" d="M28.83,92.06c-.71-3,.31-5.39,1.23-7.81,1.89.36,2.31.86,1.78,2.73A23.41,23.41,0,0,1,30,91.16C29.84,91.53,29.3,91.72,28.83,92.06Z"/><path class="cls-17" d="M45.14,100c0-2.24,0-4.32,0-6.41a3.13,3.13,0,0,1,.21-1.37c.17-.33.72-.8.93-.73.43.16,1.05.62,1.07,1,.06,1.86,0,3.73-.09,5.6C47.22,98.89,46.28,99.7,45.14,100Z"/><path class="cls-15" d="M21.07,74.16c.9-1.44,1.82-2.86,2.66-4.34.56-1,1.34-1.43,2.3-.83s.3,1.79,0,2.24a19,19,0,0,1-3.18,3.09c-.33.27-.94.2-1.42.29Z"/><path class="cls-14" d="M48.47,81.27c1.32.1,2.07.66,2.19,2,.17,1.78,1.1,3.58-.1,5.31a4,4,0,0,1-.82.71,3.21,3.21,0,0,1-.49-.93c-.29-1.85-.54-3.7-.77-5.55A12.67,12.67,0,0,1,48.47,81.27Z"/><path class="cls-6" d="M17,52.77c-.17-.37-.33-.75-.51-1.12a8.31,8.31,0,0,0-.59-1c0-.06-.43,0-.43,0A4.43,4.43,0,0,1,15.39,52l-.92-1.27c0-.31-.05-.61-.07-.91l.09-2.72.5-.26a4.18,4.18,0,0,1,.54-.57c.22-.17.65-.43.72-.36.55.52,1,1.12,1.54,1.69,0,.53-.05,1-.08,1.57l-.07.1.05.12,0,.53c-.18.2-.48.39-.51.61C17.06,51.28,17.07,52,17,52.77Z"/><path class="cls-5" d="M27.56,83.58c-.95,2-1.81,3.83-2.78,5.64-.15.28-.79.3-1.2.44a3,3,0,0,1-.14-1c.34-1.39.68-2.79,1.13-4.14C25.18,82.72,25.27,82.72,27.56,83.58Z"/><path class="cls-16" d="M70.68,68.23c.22-.37.37-1,.64-1a1.83,1.83,0,0,1,1.48.23,5.26,5.26,0,0,1,1.54,4.68c-.07.34-.59.68-1,.83-.15.06-.57-.35-.75-.62a19.14,19.14,0,0,1-1.25-2.2A18.39,18.39,0,0,1,70.68,68.23Z"/><path class="cls-18" d="M38.11,70.44c-.11-.21-.24-.33-.21-.42.51-1.89,1.06-3.78,1.56-5.68.31-1.19,1.29-.76,2-.94C42.11,65.31,41.07,67.51,38.11,70.44Z"/><path class="cls-12" d="M42.87,88.74c.26-2,.44-3.6.7-5.21a1.23,1.23,0,0,1,1.5-1.19c1,.11,1,.83,1,1.49a6,6,0,0,1-1.69,4.23A6.17,6.17,0,0,1,42.87,88.74Z"/><path class="cls-5" d="M61.62,94.65c-.89-.7-2.49-6-2.1-6.85.09-.21.48-.5.59-.45.43.2,1,.44,1.17.81.39,1,.47,2.17.9,3.17A2.89,2.89,0,0,1,61.62,94.65Z"/><path class="cls-8" d="M36.68,84.86c.32-1.44.59-2.9,1-4.32a2,2,0,0,1,.88-1.16,1.77,1.77,0,0,1,1.45.14c.19.12.16.88,0,1.25a33.93,33.93,0,0,1-1.79,3.87c-.19.34-.86.42-1.31.62Z"/><path class="cls-4" d="M43.5,70.88c.41-2.29.74-4.24,1.16-6.18a1,1,0,0,1,.87-.48,1.29,1.29,0,0,1,.95.62C47.08,66.58,45.67,69.68,43.5,70.88Z"/><path class="cls-6" d="M79.26,51.21c-.06-.1-.21-.26-.18-.31A8.38,8.38,0,0,0,80,46.43c0-.72,1.15-1.44,1.8-2.14.26-.28.59-.52.88-.78C83.37,45.7,82,47.29,81,49A21.92,21.92,0,0,1,79.26,51.21Z"/><path class="cls-12" d="M22.9,77.22C22.46,80.06,21,81.56,19,81.13,19.55,77.63,21,76.22,22.9,77.22Z"/><path class="cls-17" d="M43.44,27.15l2-1.94c1.1,2.33,3.12,1.91,5,1.9.49,0,1,.06,1.51.1l-.16.86a18.5,18.5,0,0,1-7.69-.6A3.56,3.56,0,0,1,43.44,27.15Z"/><path class="cls-14" d="M61.3,68.82a1.61,1.61,0,0,1,0,.63,12.87,12.87,0,0,1-.72,1.24c-.37-.3-.87-.53-1.08-.91a15.52,15.52,0,0,1-.9-2.38c-.24-.72.11-1.15.78-1.34s1.19-.23,1.42.58.46,1.42.69,2.13Z"/><path class="cls-4" d="M48.89,64.17c.88.37,1.83.5,1.94.87a19.2,19.2,0,0,1,.5,3.8c0,.21-.43.58-.7.62s-.52-.36-.62-.63c-.41-1-.78-2-1.1-3.1A6.81,6.81,0,0,1,48.89,64.17Z"/><path class="cls-19" d="M56.22,67.24a10.14,10.14,0,0,1-.42,1.25c-.27.57-.8.7-1,.1a25.29,25.29,0,0,1-1.13-3.88c0-.26.47-.75.83-.94.15-.08.73.29.83.56C55.68,65.28,55.93,66.27,56.22,67.24Z"/><path class="cls-19" d="M82.52,26.55l-.66,0c-.63-1.9-1.28-3.79-1.89-5.7-.2-.65-.28-1.34-.42-2,1,.77,2.06,1.5,1.88,3.09a2.33,2.33,0,0,0,.77,1.51A2.49,2.49,0,0,1,82.52,26.55Z"/><path class="cls-14" d="M69.58,34.23l.7.49a6.93,6.93,0,0,0,.11,4.34c-.89.4-1.18.08-1.06-.84a4.48,4.48,0,0,0-.08-1l-.37-.27L66.19,39V36.79c1.09.56,1.76.42,2.09-.95C68.42,35.23,69.13,34.76,69.58,34.23Z"/><path class="cls-20" d="M18.57,42.21a1.62,1.62,0,0,1,.24-2.34A5.34,5.34,0,0,0,20.31,38a5.39,5.39,0,0,0-.1-2.12c1.25,0,1.1-1.18,1.38-2.26l1,.65-.62,2.18c-.1.21-.2.43-.29.64a3.84,3.84,0,0,0-.83.83C20,39.36,19.31,40.79,18.57,42.21Z"/><path class="cls-7" d="M86.58,50.8a8.92,8.92,0,0,1-2.53.82c-.25,0-.66-1.23-.78-1.94,0-.21.64-.71,1-.79C85.54,48.64,86.23,49.3,86.58,50.8Z"/><path class="cls-21" d="M83.7,34.74c-2,.55-2.47.22-2.75-1.92l1.27-.21c.32-1,.65-2,1-3,.14,1.05.28,2.09.43,3.13l-.43.32.44.44Z"/><path class="cls-20" d="M54.74,52c.45.51,1.36,1.25,1.24,1.49a3,3,0,0,1-1.67,1.62c-.94.19-1.22-.88-1.2-1.62s.22-1.56,1.4-1.17Z"/><path class="cls-8" d="M57.37,47.65a4,4,0,0,0-.93.59,11.19,11.19,0,0,0-.88,1.25A3.05,3.05,0,0,1,54.51,46,2.46,2.46,0,0,1,57.37,47.65Z"/><path class="cls-7" d="M87,69.53c1.13.36,2.25.32,2.05,1.51-.11.62-.81,1.14-1.23,1.7a8.44,8.44,0,0,1-1.48-1.83C86.16,70.61,86.72,70,87,69.53Z"/><path class="cls-20" d="M53.79,40.75a19.16,19.16,0,0,1-2.52-.86,1.29,1.29,0,0,1-.41-1,3.77,3.77,0,0,1,1.47-.8,1,1,0,0,1,.88.36A14.42,14.42,0,0,1,54,40.37Z"/><path class="cls-20" d="M17.79,47.61c-.5-.57-1-1.17-1.54-1.69-.07-.07-.5.19-.72.36a4.18,4.18,0,0,0-.54.57c-.16-.34-.33-.69-.5-1l0-1.55a6.16,6.16,0,0,1,1,.44c1.2.85,1.69.69,2.18-.72a4.23,4.23,0,0,1,.42-.74C18,44.7,17.91,46.16,17.79,47.61Z"/><path class="cls-19" d="M31.68,52.42a3.52,3.52,0,0,1,.72-.85c.82-.51,1.85-.59,2.38-1.7.18-.38,1.4-.28,2.15-.4C35.51,51.05,34.15,52.73,31.68,52.42Z"/><path class="cls-21" d="M82.89,42.69l-1.63-2.58,1.19.51c1-.73.83-1.57.6-2.53-.18-.79-.67-1.77.51-2.31C84.26,38.17,83.54,40.43,82.89,42.69Z"/><path class="cls-7" d="M77.33,82.18c.6.7,1.43,1.26,1.34,1.63-.13.62-.85,1.11-1.32,1.65a9.31,9.31,0,0,1-1.29-1.89C76,83.35,76.72,82.82,77.33,82.18Z"/><path class="cls-1" d="M42,55.71a10,10,0,0,1-1.45-2.09c-.07-.21.76-.73,1.17-1.11a9.28,9.28,0,0,1,1.39,1.76C43.15,54.46,42.5,55,42,55.71Z"/><path class="cls-20" d="M93,42.52c-.16,1.15-.26,2.16-1.25,1.92-.47-.11-.81-1.17-1-1.85,0-.18.75-.8,1.16-.8S92.68,42.32,93,42.52Z"/><path class="cls-18" d="M53.51,30.18a1.62,1.62,0,0,1,2.16.69A1.73,1.73,0,0,0,57,31.6c1.08-.1,1.64.61,2.31,1.18C57.15,32.34,54.82,32.38,53.51,30.18Z"/><path class="cls-20" d="M17.56,56.38c.18-.28.37-.56.55-.85q.32,2.86.61,5.73c-.45-.69-1.16-1.2-.75-2.31.15-.4-.76-1.2-1.19-1.82,0-.17,0-.34,0-.51Z"/><path class="cls-6" d="M60.48,73.77l-2.15.75-.35-.3.66-1.78,1.94.73Z"/><path class="cls-6" d="M79,69.53c.71.1,1.75-.53,1.92.69,0,.34-.86.8-1.33,1.21l-1-1.56Z"/><path class="cls-6" d="M86.11,29.22c.21-.94.42-1.79,1.57-1.62a1.14,1.14,0,0,1,.75.79c0,.28-.43.7-.75.8A6.19,6.19,0,0,1,86.11,29.22Z"/><path class="cls-20" d="M90.87,55.21l1.63.88-.83,1.44-1.26-1.84Z"/><path class="cls-1" d="M33,6.47l.25-1.19,2.93.83-.1.11a5.14,5.14,0,0,1-1-.14c-1-.32-1,.23-.82.9l-.5.26Z"/><path class="cls-21" d="M83.2,29.57l-2-.53-.06-.44,1.59-.54C82.89,28.56,83,29.07,83.2,29.57Z"/><path class="cls-20" d="M17,52.77c0-.74,0-1.49.11-2.23,0-.22.33-.41.51-.61,0,1,0,2.08.05,3.12Z"/><path class="cls-16" d="M19.81,10.78c.43,1.63-.74,1.67-1.81,1.82Z"/><path class="cls-8" d="M69.39,63.34c-.15-.34-.45-.71-.39-1A5.13,5.13,0,0,1,69.65,61C69.56,61.76,69.47,62.55,69.39,63.34Z"/><path class="cls-1" d="M37.37,7.26l-.77.5L36.08,7V6.22l.1-.11Z"/><path class="cls-16" d="M21.69,9.33l-.21,1.25-1.09-.51Z"/><path class="cls-19" d="M28.29,51.53c.6.2,1.49-.15,1.65.88Z"/><path class="cls-14" d="M66,36.73l-.64.84-.48-1Z"/><path class="cls-7" d="M12.12,54.07l1-.19c0,.44.05.81.08,1.17Z"/><path class="cls-18" d="M52.47,28.89l.87,1.18Z"/><path class="cls-8" d="M77.35,54.24l.58-.71Z"/><path class="cls-20" d="M22.54,36l.59.24-.16.29-.59-.38A.22.22,0,0,1,22.54,36Z"/><path class="cls-3" d="M83.63,33.47,83.19,33l.43-.32C83.62,33,83.62,33.21,83.63,33.47Z"/><path class="cls-16" d="M20.39,10.07l-.57.71Z"/><path class="cls-15" d="M65.14,33.45l.52-.25Z"/><path class="cls-4" d="M62,52.55l1.08.13Z"/><path class="cls-19" d="M37.2,48.5l.12-.61Z"/><path class="cls-20" d="M17.69,49.4l-.05-.12.07-.1A.17.17,0,0,1,17.69,49.4Z"/><path class="cls-6" d="M24.51,31.35l.31-.17Z"/><path class="cls-6" d="M14,55.59l.23.31Z"/><path class="cls-6" d="M13.68,55.35l.29.23Z"/><path class="cls-7" d="M9.07,33.71,8.88,34Z"/><path class="cls-21" d="M83.71,35.1c0-.12,0-.24,0-.36C83.69,34.86,83.7,35,83.71,35.1Z"/><path class="cls-8" d="M74.41,18.29A13.32,13.32,0,0,1,72.74,17a35.26,35.26,0,0,0-13-9.16,20.59,20.59,0,0,0-6-1.08c-2.43-.16-4.89,0-7.34.06a2.94,2.94,0,0,1,2.46-1,16.15,16.15,0,0,0,3.49-.71c2.33-.48,4.43.52,6.56,1.13a21.82,21.82,0,0,1,5.26,2.1c2,1.15,4.34,1.61,5.8,3.65a13.92,13.92,0,0,0,3,3.06A3.88,3.88,0,0,1,74.41,18.29Z"/><path class="cls-8" d="M65.41,29.63c2.9-.7,5.84-1,8.29,1.06,1.72,1.44,4,2.55,4.14,5.3a12,12,0,0,1-3.58-2.54C73.12,32.33,71.92,31,69.88,31,68.38,31,66.9,30.11,65.41,29.63Z"/><path class="cls-14" d="M41.29,19.27c.35.33.72.64,1,1,.51.57.88,1.47,1.5,1.7,1.86.69,3.65,1.79,5.83,1.36a12.38,12.38,0,0,1,2.91.07c-1.41,1.48-2.79,1.72-3.91,1a5.2,5.2,0,0,1-1.63.1A22.51,22.51,0,0,1,43.93,23a6,6,0,0,1-2.33-2.41A4.5,4.5,0,0,1,41.29,19.27Z"/><path class="cls-3" d="M54.48,24.6c1.09.85,1.26,1.47.67,2.34a6.4,6.4,0,0,0-.49,1.93c-.74-.71-2-1.4-2-2C52.74,26.08,53.83,25.36,54.48,24.6Z"/><path class="cls-8" d="M75.13,19.14l-.44-.6Z"/><path class="cls-7" d="M21.66,26.78c-.11,1,.47,2.15-.79,2.85-.1.05,0,.72.2,1,.76,1.08.77,1.1-.26,1.39l-1.44-.59H19.1l-.25-.94a7.82,7.82,0,0,1-1.44.32c-.63,0-1.26-.1-1.9-.15l-1.3-1.8a9.71,9.71,0,0,0,1.22-.21C17.51,28,19.59,27.4,21.66,26.78Z"/><path class="cls-3" d="M29.13,9.74a.35.35,0,0,1-.21.1l-1.84.23-2.24-.71,3.93-3.09c1.79.58-.14,1.69.67,2.5,1-1,1.72-2.61,3.55-2.3l.78.77a3,3,0,0,1-.59.75c-.9.56-1.84,1-2.76,1.57h-.76Z"/><path class="cls-17" d="M21.66,26.78c-2.07.62-4.15,1.25-6.23,1.86a9.71,9.71,0,0,1-1.22.21h0c-.1-.44-.21-.88-.31-1.32a1,1,0,0,1,0-.16c1.66-.48,3.3-1,5-1.43,1.93-.45,3.9-.76,5.85-1.11.08,0,.19.14.29.22l-2.32,1.49-1,.23Z"/><path class="cls-14" d="M15.51,30.65c.64.05,1.27.16,1.9.15a7.82,7.82,0,0,0,1.44-.32l.25.94c-.27.5-.55,1-.91,1.64l1.17-.1c0,.17,0,.34,0,.51l-1.61.75c.11-.64,0-.93-.73-.58s-1.68.79-2.52,1.18c0-.19,0-.38,0-.57,1.37-.76-.38-1-.26-1.55l.27-.52,1-1Z"/><path class="cls-13" d="M27.08,10.07l1.84-.23L20.7,15.68a3,3,0,0,1-.58.26,3.73,3.73,0,0,1,.26-.82,17.71,17.71,0,0,1,4.22-3.3A22.21,22.21,0,0,0,27.08,10.07Z"/><path class="cls-7" d="M15,22.92c-.31,1-.61,1.91-.92,2.86-.48-.33.19-1.57-1.5-1l.3-.58Z"/><path class="cls-7" d="M14.22,35l-1.55,1.54-.47-2Z"/><path class="cls-7" d="M14.2,32.7c-.12.55,1.63.79.26,1.55l-1-.75Z"/><path class="cls-7" d="M13.9,27.53c.1.44.21.88.31,1.32L13,29C13.05,28.32,12.93,27.63,13.9,27.53Z"/><path class="cls-7" d="M15.52,31.16l-1,1Z"/><path class="cls-1" d="M75.69,45.56c.17-1.11.35-2.23.52-3.34.24.25.74.61.68.75-.54,1.33.51,1.25,1.29,1.42l.06.41Z"/><path class="cls-20" d="M78.61,33.75l-.78-3.13c.46.9.92,1.79,1.34,2.71C79.19,33.37,78.81,33.61,78.61,33.75Z"/><path class="cls-1" d="M78.82,36.31c0-.35,0-.69,0-1l1,.56Z"/><path class="cls-6" d="M74.72,46.33l.21-.5Z"/><path class="cls-6" d="M74.93,47.09l-.17-.24Z"/><path class="cls-6" d="M74.78,48.13l.14-.27Z"/><path class="cls-20" d="M77.46,29.94c0-.11-.09-.22-.13-.33Z"/><path class="cls-22" d="M30.42,9.56c.92-.52,1.86-1,2.76-1.57a3,3,0,0,0,.59-.75l.5-.26h1.81l.52.78c-.16.16-.31.44-.47.45-1.65.08-1.82.23-1.83,1.77Z"/><path class="cls-1" d="M40.79,10.36c.09.79.24,1.57.26,2.36a4,4,0,0,1-.35,1.21c-1.17-.85-.69-2.09-.69-3.19C40,10.61,40.52,10.48,40.79,10.36Z"/><path class="cls-6" d="M36.85,17.53c-.05-1-.1-2.08-.14-3.12l1.23.64a15.64,15.64,0,0,1-.48,1.64A4.85,4.85,0,0,1,36.85,17.53Z"/><path class="cls-1" d="M40.69,14.7l0,3.6A3,3,0,0,1,40.69,14.7Z"/><path class="cls-6" d="M36.56,13.48,35,10.59A1.42,1.42,0,0,1,36.68,12Z"/><path class="cls-23" d="M36.13,18.83l.35-.55.33.53Z"/><path class="cls-23" d="M32.18,22.38c.72-.62,1.14-1.69,2.37-1.48C34.28,22.22,33.35,22.48,32.18,22.38Z"/><path class="cls-17" d="M26.55,25.06l.5-.12a2.81,2.81,0,0,1,0,.29Z"/><path class="cls-14" d="M14.75,43c-.28-2.41.77-4.46,1.78-6.51.29-.6.67-1.16,1-1.74.13.26.43.58.36.77-.87,2.42-1.8,4.82-2.73,7.22C15.12,42.86,14.89,42.91,14.75,43Z"/><path class="cls-6" d="M19.36,33l-1.17.1c.36-.64.64-1.14.91-1.64h.27C19.37,31.93,19.36,32.45,19.36,33Z"/><path class="cls-7" d="M21.67,26.77l1-.23Z"/><path class="cls-6" d="M17.56,56.38l-.77.24-.1-.4Z"/><path class="cls-14" d="M14.25,50.73l.15-.9c0,.3,0,.6.07.91h-.22Z"/><path class="cls-14" d="M14.49,47.11V45.82c.17.34.34.69.5,1Z"/><path class="cls-3" d="M36.08,7H34.27c-.13-.67-.17-1.22.82-.9a5.14,5.14,0,0,0,1,.14C36.07,6.48,36.07,6.73,36.08,7Z"/><path class="cls-22" d="M29.13,9.74l.53-.18Z"/></g></svg>