<svg xmlns="http://www.w3.org/2000/svg" viewBox="0 0 100 100"><defs><style>.cls-1{fill:#66abad;}.cls-2{fill:#6caeb0;}.cls-3{fill:#5ea7a9;}.cls-4{fill:#93c4c5;}.cls-5{fill:#4c9da0;}.cls-6{fill:#73b2b4;}.cls-7{fill:#62a9ab;}.cls-8{fill:#51a0a2;}.cls-9{fill:#91c2c4;}.cls-10{fill:#78b5b6;}.cls-11{fill:#97c6c7;}.cls-12{fill:#85bbbd;}.cls-13{fill:#8fc2c3;}.cls-14{fill:#8bbfc1;}.cls-15{fill:#7eb8b9;}.cls-16{fill:#a3cdce;}.cls-17{fill:#8ec1c2;}.cls-18{fill:#eff6f7;}.cls-19{fill:#e4f0f1;}.cls-20{fill:#e9f3f3;}.cls-21{fill:#88bdbf;}.cls-22{fill:#b1d4d5;}.cls-23{fill:#71b1b3;}</style></defs><g id="Ebene_5" data-name="Ebene 5"><path class="cls-1" d="M27.78,95.65l-2.49.18-.73-.12h-.91a2.84,2.84,0,0,0-3.82-.7v-.85c-.73-.22-1.35-.41-2-.61a17.24,17.24,0,0,0-3.34-1,2.4,2.4,0,0,1-2-.79c-.61-.7-1.69-1-2.43-1.59-.94-.78-2.11-1.44-2.34-2.8-.3,0-.82,0-1-.19a12.69,12.69,0,0,1-1.53-2.64c-.57-1.5-.95-3.08-1.43-4.62-.17-.51-.41-1-.61-1.5,0-.61,0-1.22,0-1.83.17-1.32.36-2.63.51-4,0-.05-.31-.14-.47-.21,0-.14,0-.27,0-.4.57-1.21,1.17-2.41,1.68-3.64.08-.17-.26-.51-.4-.78.45-.75.93-1.49,1.35-2.26a8.94,8.94,0,0,0,.44-1.26l1.47-4,0,0,.44-.65.66-1h.2c.33.19.79.63,1,.54.91-.49,1.08-2.39.56-3.34-1.07-1.94-2.18-3.93-1-6.25a1.56,1.56,0,0,0,.08-.44c.07-.5.14-1,.24-1.76-.45-.52-.27-1.5.57-2.35a8.09,8.09,0,0,0,1.17-1.71c.05-.09-.3-.39-.47-.6l.81-1.42c1,.27,2.4-1.14,2.51-2.58a.24.24,0,0,1,0-.16l.24-.22c.24-.31.49-.61.73-.91l.66-.47.29-.46,1.54.38-.47-1.33h0l1.56.15.09-2c1,.23,1.24-.74,1.83-1.16l.58.75.34-1h.46l.77.26.16-1.18.16-.38h.2L24,33l-.26-.13c-.41.52-.81,1.06-1.24,1.56a4,4,0,0,1-.7.49c.07-.91-.36-1.22-1.15-1.09v1.32a11.32,11.32,0,0,0-.35,2c0,.27.41.54.63.82l-4.83,6c-1.3-.32-1.48-.16-1.32,1.11,0,.31.06.62.09.93l-.17.94a1.59,1.59,0,0,0-1,2.44l.75-.15v.92a1.83,1.83,0,0,0-1.68,2.7,4,4,0,0,1,.29,1.09c.27,1.33,1.62,3,2.63,3.14l1,1.61c0,.65.12,1.07.89,1.2.34,0,.66.47.9.79.75,1,1.42,2.07,2.21,3,.17.22.68.17,1,.25a18.24,18.24,0,0,1,.4,2.82,1.93,1.93,0,0,1-.71,1.5,2.21,2.21,0,0,1-2.59-.4,13.06,13.06,0,0,1-1.54-2.74l-1.05-1A3.28,3.28,0,0,0,15.89,63c-1-1.21-2.14-2.36-3.22-3.54-.45.29-1.05.6-1.59,1a2.06,2.06,0,0,0-.95,2.14c-.37,1.58-.78,3.15-1.1,4.74-.59,2.89-1.12,5.79-1.67,8.68l.11.31,0,1.61.14.49.06.9c-.42.83-.15,1.35.71,1.61l.38.86a3.93,3.93,0,0,0,.86,3.87,29.35,29.35,0,0,0,2.85,2.17,13.71,13.71,0,0,0,3.92,1.79,13.75,13.75,0,0,0,3.75-.25c.24,0,.61-.08.71,0,.69.87,1.64.68,2.53.73-.19.35-.39.72-.59,1.07a7.81,7.81,0,0,0-.62,1.13c-.07.18.09.45.15.68.22-.08.52-.1.64-.25.48-.59.89-1.22,1.43-2l3.29,3.73,1,.89ZM19.17,36.9,19,36.82c0,.06-.09.14-.07.19s.12.06.18.08A1.08,1.08,0,0,0,19.17,36.9Zm-10.9,50c0-.06.09-.14.07-.18s-.11-.06-.18-.09-.09.14-.07.19S8.21,86.84,8.27,86.86Z"/><path class="cls-2" d="M20.93,37.91c-.22-.28-.64-.55-.63-.82a11.32,11.32,0,0,1,.35-2l1.15-.23a4,4,0,0,0,.7-.49c.43-.5.83-1,1.24-1.56L24,33l-.22-2.13h-.2l-.16.38-.93.92H22l-.92.23c-.59.42-.83,1.39-1.83,1.16l0,0,.87-1.37.08-.22,1.11-.7c.92-.7,1.83-1.42,2.78-2.08a12.26,12.26,0,0,1,1.39-.73L26,28h0l.42-.7.72-.69.44-.46,1.19-1.36.46-.47h0l.9-.7.24-.24c.13-.16.27-.31.4-.46a.7.7,0,0,0,.08-.2c.41-.25,1.27,0,1.07-.95l.1-.2a1.87,1.87,0,0,0,2.1-.6,29.67,29.67,0,0,1,3.2-2.59c1-.77,2.15-1.47,3.26-2.16a2.85,2.85,0,0,1,.86-.18,3,3,0,0,0-.26.61.84.84,0,0,0,0,.59.51.51,0,0,0,.5.09c.54-.49,1-1,1.55-1.55,1.39-.13,2.63-1.07,4.13-.72a2.3,2.3,0,0,0,1.54-.32,8.21,8.21,0,0,1,5-1.07c.55,0,1.15-.4,1.72-.63l.41,0,2.59.18.23.24.71.37.22.06.53.13-.1-.55,0-.7.15-.47a15.05,15.05,0,0,1,1.51-3A22.83,22.83,0,0,1,64.86,6.7l.55-.33c.13-.17.25-.35.38-.53l.58-.36c1.54-.83,3-1.74,4.65-2.46a38.7,38.7,0,0,1,4-1.33l.66-.44.72-.52,1.5-.32,1-.19,3-.22.45.08L84,.13l.24,0-.81,3.2.26-.11L84.23,5H80l-3.86.92a5.49,5.49,0,0,0-1.45-.29,4.48,4.48,0,0,0-1.24.5,41.88,41.88,0,0,0-4.28,1.7c-1.29.67-2.66,1.4-2.85,3-2.09.63-2.74,2.43-3.74,4l.65.56c.21.54.27,1.35.66,1.55A8.58,8.58,0,0,1,67.2,20c1.2,1.9,3,3.47,3.18,5.9L69.93,27l-.24.25-1,.1-2.81-4a43.89,43.89,0,0,1-4.3-4.21c-1-1.22-2.34-1.48-3.51-2.12-1-.55-2.37-.47-3.57-.66-.28-.2-.58-.59-.85-.56-1.17.11-2.35.43-3.18-1.14l-.16,1.08a29.16,29.16,0,0,0-5.44,2c-.76.46-1.17.23-1.86.14v.94L38.7,21.6a1.64,1.64,0,0,0-2.62-.3l1.82.92c-.15.17-.27.37-.43.52l-5.74,5c-.33-.86-.6-1.67.48-2.28.2-.11.11-.72.18-1.3l-4.17,2.43.17.38a5.79,5.79,0,0,1,1.74-.14,6.72,6.72,0,0,1,1.6.9A21.36,21.36,0,0,1,30,29.84a4.34,4.34,0,0,1-1.32.61c.13-.22.26-.44.38-.66-1.21-.8-1.19-.8-1.55.56-.09.34-.44.62-.68.94l-1-.89c0,.48.17.89.05,1-.8.67-.4,1.27,0,1.9-.52.46-1.06.91-1.58,1.39Z"/><path class="cls-3" d="M48.52,57a.66.66,0,0,1-.06.2c0,.18-.05.35-.08.52v.57l-1.47-.14-.91.7-.47.24-.7.21c-1.42,0-1.76,1.13-2.29,2.09a.41.41,0,0,1,0,.19c-1.4-.19-1.71.08-1.58,1.4l-.77.83c-.42,0-1-.22-1.22,0-2,1.76-4,3.55-5.9,5.4A11.08,11.08,0,0,0,31.93,71c-.73,1.11-1.49,2.19-2.28,3.34l.86.67-.72,1.37a14.61,14.61,0,0,0-1.64,2,1.31,1.31,0,0,0,.32,2l-.17.88c-.2.18-.55.33-.59.54a13.11,13.11,0,0,0-.23,2.25c0,.24.3.49.46.73.42,1.22.85,2.43,1.27,3.65-.7.2-1.3.39-1-.8.09-.4-.28-.92-.43-1.36-1.39.1-1.28.12-1-1.22a2.39,2.39,0,0,0-.66-1.77c-.54-.6-1.1-.33-1,.5.08,1.11-.49,1.5-1.42,1.66-.08-1-.19-2-.21-3a7.55,7.55,0,0,1,.25-1.22c.1-.85.16-1.7-.88-2.06l.09-.87.29-.72c.4-1.55,1.95-2.74,1.4-4.58l.44-.72a9.78,9.78,0,0,0,.94-.87c.63-.76.51-2,1.66-2.48a1.32,1.32,0,0,0,.49-1.17c-.29-1,.3-1.2.94-1.54.29-.16.66-.46.71-.74.23-1.45.47-1.63,1.79-1.24a1.94,1.94,0,0,0,.71-.06,3.84,3.84,0,0,0-.25-.67,10.22,10.22,0,0,0-.59-.87l0-.47c1.2.78,1.2-.05,1.58-.58a23.22,23.22,0,0,1,2.69-3.25,1.56,1.56,0,0,0,.62-1.56l3.26-2.93c1.71.35,1.94.95.88,2.24a14.2,14.2,0,0,0-.85,1.28c-.85.92-1.71,1.84-2.55,2.77L32.3,65.29c-.43.58-.87,1.14-1.26,1.74-.06.09.07.4.19.46a.51.51,0,0,0,.49-.1c.42-.66.8-1.34,1.2-2,1-.82,2-1.66,3.11-2.44a24.41,24.41,0,0,0,4.39-3.76C41.54,57.85,43.27,57,44.74,56c.46-.12.93-.21,1.39-.35s1-.33,1.46-.5h.93Z"/><path class="cls-1" d="M47.18,69.91c0,.22-.06.45-.08.68,0,0-.08,0-.08.06a1.13,1.13,0,0,0,0,.18l-.06.65c-.81,0-1,.55-1.28,1.18s-1,1.36-1.29,1.27c-1.25-.37-1.53.41-1.9,1.21a2.56,2.56,0,0,0-.58.35,13.33,13.33,0,0,0-3.82,9.17l.17.47.36.62-.44.89c.66.59,1.13,1.15.6,2.09-.29.53.43,1.46,1.06,1.43a2.3,2.3,0,0,1,2.2,1.15l-2.56.62a2.58,2.58,0,0,0,.35.46c.82.54,1.09,1.09.31,1.94A6.05,6.05,0,0,0,39.49,96c2.46-1.29,3.15-1.24,4.32.13l1-.43c-.12,1.47-1,2-2.33,1.53a2.79,2.79,0,0,0-1.18,0c-.28,0-.62.24-.82.14a2.09,2.09,0,0,0-2.94,1H37l0-.51L34,98l-1.64-.9a1.67,1.67,0,0,0,0-2.32c-.15-.14-.16-.45-.24-.68.25,0,.63,0,.74.14a12.11,12.11,0,0,1,.84,1.49,1.71,1.71,0,0,0,2.33,1,9.49,9.49,0,0,0,1.89-1.8c-1.09-.43-1.81-.85-1.59-1.92L37,93c.09.2.11.5.26.6a3.3,3.3,0,0,0,.9.31c-.12-.52,1.24-.78.27-1.47l0,0c-.19-.78-.39-1.57-.61-2.45a1.79,1.79,0,0,1-2-.73,8.58,8.58,0,0,1-1.57-4.91A22.75,22.75,0,0,1,35,79.63a29.5,29.5,0,0,1,1.57-3.73,8.15,8.15,0,0,0,1.78-1.48A7,7,0,0,1,42.9,71c1.27-.25,1.38-.47.89-1.68v-.06l1.73-.07h.22l-.14,1,.84-.28Z"/><path class="cls-4" d="M53.13,91.79c.84.5,1.64,1.07,2.51,1.5a41.11,41.11,0,0,1,4.73,2.25c2.1,1.4,4.34,1.06,6.58,1.07l.48.17c2-.13,4.08-.2,6.11-.4,1.38-.15,2.74-.52,4.13-.71a3.61,3.61,0,0,1,1.18.22c-.19.57-.22,1.41-.62,1.66-.61.38-1.39.47-1.69,1.29-.05.13-.3.24-.47.28a30.73,30.73,0,0,1-10.26.33c-1-.13-2.24-.47-2.88.55-2.09-.76-4.09-1.51-6.11-2.2a12.49,12.49,0,0,1-5.28-3.49c-.34-.37-.52-1-1-.2-.76-.63-.09-1.54.19-1.46C51.81,93,52.29,91.92,53.13,91.79Z"/><path class="cls-5" d="M36.31,93c-.22,1.07.5,1.49,1.59,1.92A9.49,9.49,0,0,1,36,96.72a1.71,1.71,0,0,1-2.33-1,12.11,12.11,0,0,0-.84-1.49c-.11-.15-.49-.1-.74-.14.08.23.09.54.24.68a1.67,1.67,0,0,1,0,2.32L32,97l-.71-.41L31,96.36l-.43-.22h0l-.91-.49h-.91l0-.18-1-.89-3.29-3.73c-.54.76-.95,1.39-1.43,2-.12.15-.42.17-.64.25-.06-.23-.22-.5-.15-.68a7.81,7.81,0,0,1,.62-1.13c.2-.35.4-.72.59-1.07h.69l.58-.08-.34-.39L24,88.48a.39.39,0,0,1,.08-.14l.34-.29-.35-.19-.8-1.73.33-.8c.93-.16,1.5-.55,1.42-1.66-.07-.83.49-1.1,1-.5a2.39,2.39,0,0,1,.66,1.77c-.27,1.34-.38,1.32,1,1.22.15.44.52,1,.43,1.36-.28,1.19.32,1,1,.8l.64.55.22.16.26,0,1.45,2.32.91-1v0c0,.5-.34,1.17.6,1.21l.72.49,1,.11Z"/><path class="cls-6" d="M48.52,57V55.16l.23-.92,2.37-.92c.31-.11.8-.08.93-.28.53-.88,1.26-.65,2-.53a5.55,5.55,0,0,0,1.21-.1l-.83-1.69c3.16-.84,6.34-1.6,9.47-2.53,2.18-.65,4.29-1.53,6.43-2.3l.5.93c1.84-.38,2-.49,2.1-1.75l4.82-1.91c.41.38.87.77,1.32.12a11.73,11.73,0,0,0,.74-1.51L81,41.12c0,.11,0,.27.08.33.87.73.83,1.24-.29,1.68-.42.16-.73.6-.13,1.06a2.17,2.17,0,0,1,.41.66h0c-.27-.12-.54-.35-.8-.34-.71.06-1.64,0-2.07.38-.86.81-1.22,2.21-2.89,1.82-.25-.06-.66.51-1,.79a14.72,14.72,0,0,1-6,2.54l-2-.19c-.73.32-1.35.59-2,.85s-1.56.61-2.32,1c-.09,0-.06.35-.09.53l-3,.93c-1.6,0-3.29-.5-4.62.88a5,5,0,0,0-3.69.46,3.48,3.48,0,0,0-1.08.12c-.11,0,0,.52-.06.81s.09.75.14,1.12Z"/><path class="cls-7" d="M53.13,91.79c-.84.13-1.32,1.17-2.43.86-.28-.08-1,.83-.19,1.46L50.1,95l-1.34-.41.42,1.26-1.34.81c-.16-.38-.32-.76-.47-1.15.69-1.25,1.39-2.49,2.06-3.7l-.72-1,1.14-.86-.64-1.35.47-.92c.46-1.74.91-3.49,1.41-5.22.08-.3.41-.53.63-.8l.92-.42h0c0,1,.33,1.52,1.41,1.12.09,1.56,1.27,2.93.82,4.58-.57.41-.91.82,0,1.21,0,.14,0,.27,0,.41-.43.23-.85.49-1.29.69-.82.37-.92.91-.49,1.63Z"/><path class="cls-8" d="M84.23,5l-.54-1.69-.26.11.81-3.2L84.9.12l.25.15,2.19.37.59.36V1l.67.43.36.1,1.26.81L92.05,4.3l.16.18,0,.25a2.36,2.36,0,0,0-.5.44,6.38,6.38,0,0,0-.47.9l1,0L91.6,7.25,89.19,6a10.83,10.83,0,0,0-.53,1.77,21.58,21.58,0,0,0,0,2.28c-2-.23-1-2-1.83-2.91l-.52,1.27-.4-.63,0-.71V6.33C85.92,5.15,84.78,5.4,84.23,5Zm2.39.45,0,.35,1.11,1,.36-.14c-.08-.39,0-.92-.28-1.14S87,5.42,86.62,5.4Z"/><path class="cls-9" d="M42.52,75.14c.37-.8.65-1.58,1.9-1.21.3.09,1-.73,1.29-1.27s.47-1.19,1.28-1.18c0,1.83-.12,3.66,0,5.48.13,2.29.42,4.57.67,6.85a1.23,1.23,0,0,0,.37.69,2.48,2.48,0,0,1,.68,2.7l-1.85.28a7.11,7.11,0,0,1-2.19-4.54c-.26-2.5-.21-5-.3-7.55,0-.28-.06-.56-.12-1a8.13,8.13,0,0,1-.88.52A6.14,6.14,0,0,1,42.52,75.14Z"/><path class="cls-4" d="M41.39,16a2.85,2.85,0,0,0-.86.18c-1.11.69-2.21,1.39-3.26,2.16A29.67,29.67,0,0,0,34.07,21a1.87,1.87,0,0,1-2.1.6l2.72-2.14.52-.38c2.4-1.67,4.73-3.43,7.21-5a23.14,23.14,0,0,1,4-1.57l3-.41h2.77l.48.18,3,.75c-.57.23-1.17.68-1.72.63a8.21,8.21,0,0,0-5,1.07,2.3,2.3,0,0,1-1.54.32c-1.5-.35-2.74.59-4.13.72Z"/><path class="cls-4" d="M3.23,78.41c.2.5.44,1,.61,1.5.48,1.54.86,3.12,1.43,4.62A12.69,12.69,0,0,0,6.8,87.17c.14.2.66.14,1,.19.23,1.36,1.4,2,2.34,2.8.74.62,1.82.89,2.43,1.59a2.4,2.4,0,0,0,2,.79,17.24,17.24,0,0,1,3.34,1c.61.2,1.23.39,2,.61V95a2.84,2.84,0,0,1,3.82.7.83.83,0,0,1,0,.22h-.43l-.48-.16-1.36-.06-.56.17-.82,0h-.71l-1.05,0-1-.27c-2.75-.51-4.87-2.17-7-3.83-1-.78-1.91-1.61-2.88-2.39A7.92,7.92,0,0,1,5,85.18C4.33,83.12,3.75,81,3.17,79A1.81,1.81,0,0,1,3.23,78.41Z"/><path class="cls-10" d="M74.08,64.44c-1.11-.71-1.26-1.87-1.39-3l-1.23-1.36L72,58.59l.51-.65c.59-.62,1.13-1.3,1.78-1.86.93-.79,1.54-.55,1.91.69-.09.62-.18,1.23-.28,1.85a.35.35,0,0,0-.12.17c-.83.39-.78.91-.21,1.49a9.72,9.72,0,0,0,.76.66c.15.66.28,1.33.46,2,.28,1.07-.42,1.64-1.13,2.15-.15.11-.56-.17-.86-.27Z"/><path class="cls-11" d="M76.87,83.87a4.66,4.66,0,0,1-4.35-.25c-.25-.14-.63,0-.88-.18a5.64,5.64,0,0,1-1.43-1c-.6-.64-1.08-1.38-1.75-2.25a1.71,1.71,0,0,1,2.44-1,7.4,7.4,0,0,0,5.74.86,6.69,6.69,0,0,0-.3,1.74A10.37,10.37,0,0,0,76.87,83.87Z"/><path class="cls-10" d="M68.85,67.15c-.49.61-.61,1.49-1.68,1.65s-1.4-.12-1.55-.94a24.17,24.17,0,0,1-.24-2.55,1.62,1.62,0,0,0-.53-2.55,4,4,0,0,1-.58-.44c.22-.16.43-.33.66-.47.74-.44,1.8-.44,2-1.54l.68-.06,1.91,2.4,0,.17-1.32.35.84.74c0,.92,0,1.84,0,2.76C69,66.83,68.9,67,68.85,67.15Z"/><path class="cls-11" d="M81.07,44.85a2.17,2.17,0,0,0-.41-.66c-.6-.46-.29-.9.13-1.06,1.12-.44,1.16-1,.29-1.68-.07-.06-.06-.22-.08-.33l2-1.41.59.94-.62.18.19.28.42-.46c.71,0,1.61.33,1.76-.86,0-.1.22-.21.36-.25,2.33-.64,3-2.81,4.09-4.55.72-1.18.63-3,2.66-3,0,0,.08-.34.12-.52H93q-1.06,2-2.11,4.08l-.62.77c-.63.79-1.22,1.6-1.88,2.36a36.37,36.37,0,0,1-3.51,3.82A27.14,27.14,0,0,1,81.07,44.85Z"/><path class="cls-9" d="M97.1,14.4c0,.92,0,1.83,0,2.75,0,.23,0,.46,0,.69,0,1.15,0,2.31-.05,3.46L97,22.7l-.09.9-.17.49-.09.66-.21.46a2.49,2.49,0,0,0-.38.42c-.64,1.17-1.25,2.34-1.88,3.51l-.49.22c.22-.93.19-2.07.73-2.75A2.57,2.57,0,0,0,95,25c.12-1-.22-2.33,1.19-2.8,0-1.39,0-2.69,0-4s.36-2.67-.72-3.84c.93-.33.55-.85.33-1.37-.35-.8-.66-1.63-1-2.43A4.47,4.47,0,0,0,94.4,10L94.15,8.4l.22-1a8.88,8.88,0,0,1,1.55,2,40.85,40.85,0,0,1,1.2,4.27Z"/><path class="cls-10" d="M63,63.62a5,5,0,0,1-1.91,2.93c-.89.77-1.79-.18-2.68-.33-.55-.1-.9-.74-.52-1.48.47-.94.85-1.92,1.27-2.89.1,0,.26-.06.3-.14a2.34,2.34,0,0,1,3.26-1c.09.66,0,1.34.25,1.59C63.56,62.82,63.3,63.18,63,63.62Z"/><path class="cls-11" d="M63,63.62c.29-.44.55-.8,0-1.33-.27-.25-.16-.93-.25-1.59a2.34,2.34,0,0,0-3.26,1c0,.08-.2.1-.3.14.06-1.37-1.2-1.83-1.93-2.63-.49-.55-.61-1.11-.13-1.46s.87-1,1.76-.43a27.88,27.88,0,0,0,4.81,2.72,10.46,10.46,0,0,0,3.29.26c-.24,1.1-1.3,1.1-2,1.54-.23.14-.44.31-.66.47a4,4,0,0,0,.58.44,1.62,1.62,0,0,1,.53,2.55c0-.41,0-.82-.08-1.29Z"/><path class="cls-5" d="M94.15,8.4c.08.53.16,1.06.25,1.59s0,1.22,0,1.83c0,.39.06.78.08,1.17,0,.21-.08.46,0,.62.68,1.24.69,1.23-.76,1.24H92.52l-.35-.06c-.36-1-.71-2-1.06-2.94l1.08.66.89-2.79c-.42.17-.56.18-.61.26a1,1,0,0,1-1.49.18,1.65,1.65,0,0,1-.15-1.31,7.92,7.92,0,0,1,.77-1.61l.69-1.15.47-.48.37,0c.21.45.43.89.64,1.34l-.51.31.4.42Z"/><path class="cls-12" d="M45.53,69.22l-1.73.07c.34-.25.92-.45,1-.75.25-1.45.36-2.93.52-4.39A7,7,0,0,0,46.52,64c.3-.08.8-.34.79-.48a1.61,1.61,0,0,0-.5-1.05,4.21,4.21,0,0,0-1.28-.44l.06-1.61L47,60l-1.43-.94.47-.24,1.17.12-.26-.82,1.47.14-.33,2.39-.8.11V61l.8.12c-.11,1.21-.19,2.43-.33,3.64-.1.86-.27,1.71-.41,2.57C46.68,68,45.29,67.8,45.53,69.22Zm.21-3,.34.19.8-1.39-.44-.24Zm.61-4.92-.19-.08c0,.06-.09.14-.07.18s.12.06.18.09A1.54,1.54,0,0,0,46.35,61.32Z"/><path class="cls-13" d="M11.29,42.5c.17.21.52.51.47.6a8.09,8.09,0,0,1-1.17,1.71c-.84.85-1,1.83-.57,2.35-.1.75-.17,1.26-.24,1.76a1.56,1.56,0,0,1-.08.44c-1.23,2.32-.12,4.31,1,6.25.52,1,.35,2.85-.56,3.34-.18.09-.64-.35-1-.54,0-.15.05-.31.08-.46a23.2,23.2,0,0,1-.7-2.39,10.45,10.45,0,0,1-.26-2.88,32.85,32.85,0,0,1,.89-5.23,29.32,29.32,0,0,1,1.67-3.93C11,43.17,11.13,42.84,11.29,42.5Z"/><path class="cls-14" d="M47.37,95.49l.47,1.15a9.93,9.93,0,0,1-1.79,1.16c-2,.79-4,2-6.31,1-.37-.17-.89,0-1.34,0l-.83-.42a2.09,2.09,0,0,1,2.94-1c.2.1.54-.11.82-.14a2.79,2.79,0,0,1,1.18,0c1.32.5,2.21-.06,2.33-1.53h.67l.71.45.72-.67Z"/><path class="cls-15" d="M76.87,83.87a10.37,10.37,0,0,1-.53-2,6.69,6.69,0,0,1,.3-1.74c.72-.2,1.45-.36,2.16-.58s1.17-.07,1.33.88a1.93,1.93,0,0,1-1.2,2.46C78.23,83.19,77.56,83.54,76.87,83.87Z"/><path class="cls-11" d="M69.56,62.65l-1.91-2.4,3.68-1.4.67-.26-.54,1.46,1.23,1.36c-.65.29-1.29.59-2,.86C70.36,62.42,70,62.52,69.56,62.65Z"/><path class="cls-11" d="M73.66,45.9c.36-.41.8-1.25,1.07-1.16,1.8.58,2.18-1.48,3.11-2.67.47-.6,1.46-.48,2.23-.55.28,0,.57.31.86.49a7.2,7.2,0,0,1-1.41,1.78C77.67,45,75.78,46.07,73.66,45.9Z"/><path class="cls-16" d="M7.8,60.06l-1.47,4a8.94,8.94,0,0,1-.44,1.26c-.42.77-.9,1.51-1.35,2.26l-.42.25c.84-2,1.65-4,2.53-5.91A16.47,16.47,0,0,1,7.8,60.06Z"/><path class="cls-16" d="M61.9,52.2c0-.18,0-.49.09-.53.76-.35,1.55-.64,2.32-1s1.25-.53,2-.85l2,.19-1.45.57a20.13,20.13,0,0,1-1.93.8C63.94,51.73,62.92,51.94,61.9,52.2Z"/><path class="cls-11" d="M54.28,54c1.33-1.38,3-.89,4.62-.88-1.6.65-3,1.81-4.87,1.75C54.12,54.59,54.2,54.3,54.28,54Z"/><path class="cls-17" d="M54.28,54c-.08.29-.16.58-.25.87l0,.09-.5,0,0-.1-.46-.56-.25.56-1.17.5c-.68-.42-1.33-.77-1.34.52l-.8.61c-.05-.37-.09-.75-.14-1.12l1.14-.93A5,5,0,0,1,54.28,54Z"/><path class="cls-17" d="M45.53,69.22c-.24-1.42,1.15-1.27,1.78-1.85,0,.84-.09,1.69-.13,2.54h-.73c0-.42.08-1-.7-.67Z"/><path class="cls-4" d="M4.12,67.84l.42-.25c.14.27.48.61.4.78C4.43,69.6,3.83,70.8,3.26,72c.19-.94.37-1.87.56-2.8l.24-.69Z"/><path class="cls-4" d="M53.12,90.86c-.43-.72-.33-1.26.49-1.63.44-.2.86-.46,1.29-.69A2.52,2.52,0,0,1,53.12,90.86Z"/><path class="cls-11" d="M14.61,38.5c-.11,1.44-1.48,2.85-2.51,2.58Z"/><path class="cls-7" d="M46.85,87.48l1.85-.28,0,.67-.4.31.43.41-.45.44-.93-.47Z"/><path class="cls-18" d="M76.35,60.94a9.72,9.72,0,0,1-.76-.66c-.57-.58-.62-1.1.21-1.49C76.53,59.37,76.91,60,76.35,60.94Z"/><path class="cls-4" d="M3.25,72.41c.16.07.47.16.47.21-.15,1.33-.34,2.64-.51,4A5.87,5.87,0,0,1,3.25,72.41Z"/><path class="cls-2" d="M19.28,33.52l-.09,2-1.56-.15a2.09,2.09,0,0,0,0-.25l1.18-1.34h0l.42-.27Z"/><path class="cls-14" d="M34,98l2.89-.14s0,.27,0,.51l-.16.18c-.69,0-1.38,0-2-.11C34.48,98.4,34.26,98.15,34,98Z"/><path class="cls-7" d="M92.76,5.62l-.47.48-1,0a6.38,6.38,0,0,1,.47-.9,2.36,2.36,0,0,1,.5-.44l.27.25Z"/><path class="cls-19" d="M49.44,12.09l-3,.41A2.77,2.77,0,0,1,49.44,12.09Z"/><path class="cls-11" d="M93.67,29.36l.49-.22-1,1.82L93,30.49C93.2,30.12,93.43,29.74,93.67,29.36Z"/><path class="cls-19" d="M81.94,0l-3,.22Z"/><path class="cls-2" d="M17.64,35.33l.47,1.33-1.54-.38Z"/><path class="cls-19" d="M58.66,13.23l-2.59-.18c.75-.06,1.5-.14,2.26-.16C58.43,12.88,58.55,13.11,58.66,13.23Z"/><path class="cls-4" d="M54.06,82.34c-1.08.4-1.42-.14-1.41-1.12Z"/><path class="cls-18" d="M75.92,58.62c.1-.62.19-1.23.28-1.85.74,0,.8.41.47.94A9.29,9.29,0,0,1,75.92,58.62Z"/><path class="cls-4" d="M49.18,95.83l-.42-1.26L50.1,95C49.8,95.27,49.49,95.55,49.18,95.83Z"/><path class="cls-18" d="M36.79,98.55l.16-.18h.62l.83.42C37.74,99.46,37.27,99,36.79,98.55Z"/><path class="cls-9" d="M48.76,88.59l-.43-.41.4-.31,1-.22c-.15.31-.31.61-.47.92Z"/><path class="cls-19" d="M19.24,33.48l-.42.27,1.29-1.64Z"/><path class="cls-18" d="M69,63.91l-.84-.74,1.32-.35Z"/><path class="cls-9" d="M93,30.49l.21.47c-.06.16-.13.32-.2.47h-.45l-.38-.3Z"/><path class="cls-16" d="M50.39,55.91c0-1.29.66-.94,1.34-.52a.81.81,0,0,1,0,.22Z"/><path class="cls-19" d="M18.82,33.75l-1.18,1.34Z"/><path class="cls-19" d="M84,.13l-1.61,0Z"/><path class="cls-19" d="M97,22.7l.12-1.4Z"/><path class="cls-18" d="M72,58.59l-.67.26c-.06-.89.5-1,1.18-.91Z"/><path class="cls-19" d="M31.87,21.75c.2.94-.66.7-1.07.95Z"/><path class="cls-19" d="M77.88.41l-1.5.32Z"/><path class="cls-4" d="M54.89,88.13c-.92-.39-.58-.8,0-1.21C54.88,87.32,54.88,87.73,54.89,88.13Z"/><path class="cls-2" d="M94.15,8.4l-.49-.66c.09-.17.17-.35.25-.52l.46.23C94.3,7.77,94.23,8.09,94.15,8.4Z"/><path class="cls-18" d="M51.73,55.61a.81.81,0,0,0,0-.22l1.17-.5.24.08Z"/><path class="cls-19" d="M90.23,2.36,89,1.55Z"/><path class="cls-4" d="M52.64,81.21l-.92.42C52,81.35,51.8,80.19,52.64,81.21Z"/><path class="cls-1" d="M29.66,95.64l.91.49Z"/><path class="cls-19" d="M21.3,31.19l-1.11.7Z"/><path class="cls-18" d="M60.25,13.48l.1.55-.53-.13Z"/><path class="cls-17" d="M48.05,61.16l-.8-.12V60.8l.8-.11Z"/><path class="cls-20" d="M90.24,36.28l.62-.77Z"/><path class="cls-19" d="M30.08,23.6l-.9.7Z"/><path class="cls-12" d="M93.91,7.22c-.08.17-.16.35-.25.52l-.4-.42L93.77,7C93.82,7.08,93.87,7.15,93.91,7.22Z"/><path class="cls-11" d="M53.14,55l-.24-.08c.08-.19.16-.37.25-.56l.46.56Z"/><path class="cls-20" d="M17.18,95.59l1,.27Z"/><path class="cls-20" d="M28.72,95.46l0,.18h-1Z"/><path class="cls-12" d="M92.76,5.62,92.51,5l.62.69Z"/><path class="cls-20" d="M74.08,64.44l.74.37Z"/><path class="cls-19" d="M88.61,1.45,87.94,1Z"/><path class="cls-16" d="M4.06,68.52l-.24.69Z"/><path class="cls-19" d="M97.1,14.4l0-.7Z"/><path class="cls-20" d="M23.62,95.92a.83.83,0,0,0,0-.22h.91c0,.07,0,.14,0,.2Z"/><path class="cls-19" d="M97.15,17.84c0-.23,0-.46,0-.69C97.12,17.38,97.14,17.61,97.15,17.84Z"/><path class="cls-20" d="M19.26,95.91h0Z"/><path class="cls-4" d="M24.57,95.91c0-.06,0-.13,0-.2l.73.12Z"/><path class="cls-19" d="M26.37,27.28,26,28Z"/><path class="cls-16" d="M8.26,59.39,7.82,60Z"/><path class="cls-1" d="M31.24,96.63,32,97Z"/><path class="cls-19" d="M59.6,13.84l-.71-.37Z"/><path class="cls-2" d="M16.28,36.74l-.66.47Z"/><path class="cls-19" d="M75.66,1.25,75,1.69Z"/><path class="cls-18" d="M68.85,67.15c.05-.16.1-.32.16-.48Z"/><path class="cls-19" d="M26,28l-.48.4Z"/><path class="cls-19" d="M27.53,26.13l-.44.46Z"/><path class="cls-19" d="M96.42,25.21l.21-.46Z"/><path class="cls-18" d="M53.57,55l.5,0-.24.33Z"/><path class="cls-19" d="M29.18,24.3l-.46.47Z"/><path class="cls-19" d="M96.72,24.09l.17-.49Z"/><path class="cls-19" d="M30.72,22.9c-.13.15-.27.3-.4.46C30.45,23.2,30.59,23.05,30.72,22.9Z"/><path class="cls-19" d="M87.93,1,87.34.64Z"/><path class="cls-20" d="M20.79,95.86l.56-.17Z"/><path class="cls-17" d="M48.38,57.73c0-.17,0-.34.08-.52C48.43,57.39,48.41,57.56,48.38,57.73Z"/><path class="cls-16" d="M9.2,58c0,.15-.06.31-.08.46h-.2C9,58.25,9.11,58.1,9.2,58Z"/><path class="cls-19" d="M35.21,19l-.52.38Z"/><path class="cls-20" d="M22.71,95.75l.48.16Z"/><path class="cls-20" d="M67.43,96.78,67,96.61Z"/><path class="cls-19" d="M66.37,5.48l-.58.36Z"/><path class="cls-19" d="M65.41,6.37l-.55.33Z"/><path class="cls-18" d="M60.43,12.31l-.15.47Z"/><path class="cls-19" d="M52.69,12.27l-.48-.18Z"/><path class="cls-1" d="M30.59,96.14l.43.22Z"/><path class="cls-7" d="M92.21,4.48l-.16-.18Z"/><path class="cls-19" d="M85.15.27,84.9.12Z"/><path class="cls-9" d="M47.05,70.83a1.13,1.13,0,0,1,0-.18s0,0,.08-.06Z"/><path class="cls-11" d="M14.89,38.12l-.24.22Z"/><path class="cls-21" d="M8.8,81.83c1.23,1.23,2.38,2.55,3.7,3.67,2,1.67,4.57,2,7,2.6a24.77,24.77,0,0,0,4.58.38c.11.41.21.82.31,1.23l-.24.47h-.69c-.89,0-1.84.14-2.53-.73-.1-.13-.47-.07-.71,0a13.75,13.75,0,0,1-3.75.25,13.71,13.71,0,0,1-3.92-1.79A29.35,29.35,0,0,1,9.66,85.7,3.93,3.93,0,0,1,8.8,81.83Z"/><path class="cls-21" d="M14.45,50.1a7.84,7.84,0,0,0,.77,3.84A10.26,10.26,0,0,1,15.7,57c-1-.19-2.37-1.81-2.64-3.14a4,4,0,0,0-.29-1.09A1.83,1.83,0,0,1,14.45,50.1Z"/><path class="cls-17" d="M16.27,64.15a38.31,38.31,0,0,1-3.84-3c-.67-.65-.9-.61-1.33.07-.3.47-.65.91-1,1.36a2.06,2.06,0,0,1,.95-2.14c.54-.41,1.14-.72,1.59-1,1.08,1.18,2.18,2.33,3.22,3.54A3.28,3.28,0,0,1,16.27,64.15Z"/><path class="cls-21" d="M16.72,58.64a13.42,13.42,0,0,1,5,5.29c-.36-.08-.87,0-1-.25-.79-1-1.46-2-2.21-3-.24-.32-.56-.74-.9-.79C16.84,59.71,16.69,59.29,16.72,58.64Z"/><path class="cls-21" d="M14.7,46.89c-.08.76-.17,1.52-.25,2.29l-.75.15A1.59,1.59,0,0,1,14.7,46.89Z"/><path class="cls-21" d="M16.1,43.91l-1.23,2c0-.31,0-.62-.09-.93C14.62,43.75,14.8,43.59,16.1,43.91Z"/><path class="cls-3" d="M21.8,34.89l-1.15.23V33.8C21.44,33.67,21.87,34,21.8,34.89Z"/><path class="cls-3" d="M22.49,32.13l.93-.92-.16,1.18Z"/><path class="cls-11" d="M7.71,79.36,8.42,81C7.56,80.71,7.29,80.19,7.71,79.36Z"/><path class="cls-3" d="M21.11,32.36l.92-.23-.34,1Z"/><path class="cls-2" d="M19.17,36.9a1.08,1.08,0,0,1-.08.19c-.06,0-.16,0-.18-.08s0-.13.07-.19Z"/><path class="cls-4" d="M8.27,86.86c-.06,0-.16,0-.18-.08s.05-.12.07-.19.16,0,.18.09S8.3,86.8,8.27,86.86Z"/><path class="cls-11" d="M7.51,78c0,.16.1.33.14.49C7.61,78.3,7.56,78.13,7.51,78Z"/><path class="cls-11" d="M7.36,76.05c0,.1.08.21.11.31C7.44,76.26,7.4,76.15,7.36,76.05Z"/><path class="cls-14" d="M69.69,27.28l-1.56.87L67,30.53c-.63-.51-1.31-.78-1.49-1.25a17,17,0,0,0-4.2-5.73c-.43-.43-.86-.92-.21-1.44s1-1.23,1.89-.29a15.14,15.14,0,0,0,2.26,1.88c.1.07.46-.22.7-.34.91,1.3,1.81,2.6,2.81,4Z"/><path class="cls-17" d="M76.17,5.87c-1.1.43-2.21.83-3.29,1.28A19.38,19.38,0,0,0,65.29,13c-.64.79-1.35,1.53-2,2.28l-.65-.56c1-1.57,1.65-3.37,3.74-4,.19-1.57,1.56-2.3,2.85-3a41.88,41.88,0,0,1,4.28-1.7,4.48,4.48,0,0,1,1.24-.5A5.49,5.49,0,0,1,76.17,5.87Z"/><path class="cls-17" d="M54.53,16.37A80.23,80.23,0,0,1,43,18.85v-.94c.69.09,1.1.32,1.86-.14a29.16,29.16,0,0,1,5.44-2l.16-1.08c.83,1.57,2,1.25,3.18,1.14C54,15.78,54.25,16.17,54.53,16.37Z"/><path class="cls-3" d="M31.73,27.77a6.72,6.72,0,0,0-1.6-.9,5.79,5.79,0,0,0-1.74.14l-.17-.38,4.17-2.43c-.07.58,0,1.19-.18,1.3-1.08.61-.81,1.42-.48,2.28Z"/><path class="cls-7" d="M26.87,32.36l-.92.93c-.42-.63-.82-1.23,0-1.9.12-.1,0-.51-.05-1l1,.89c.24-.32.59-.6.68-.94.36-1.36.34-1.36,1.55-.56-.12.22-.25.44-.38.66l-1.31,1.24C26.94,31.7,26.34,31.59,26.87,32.36Z"/><path class="cls-3" d="M38.16,22l-.26.24-1.82-.92a1.64,1.64,0,0,1,2.62.3h0Z"/><path class="cls-3" d="M41.39,16l1.84-.26c-.51.52-1,1.06-1.55,1.55a.51.51,0,0,1-.5-.09.84.84,0,0,1,0-.59A3,3,0,0,1,41.39,16Z"/><path class="cls-14" d="M70.38,25.92c.43.6.24.95-.45,1.11Z"/><path class="cls-6" d="M54,47.06l-.82.81c-1.56-.17-1.65-.11-1.65,1.13l-1.35.69-.48.47-3.48,2.38c0-.38,0-.77,0-1.15a3.29,3.29,0,0,0-1.09.41,18.13,18.13,0,0,0-2,2.06,4.73,4.73,0,0,0-.53,1.3l-3,2.14A14.2,14.2,0,0,1,40.42,56c1.06-1.29.83-1.89-.88-2.24a26.71,26.71,0,0,1,2.67-2.55,32.72,32.72,0,0,1,3.18-1.77c.88-.52,1.71-1.15,2.59-1.68,3.75-2.26,7-5.28,11.11-7a49.39,49.39,0,0,0,5.57-3.23c.35.82-.12,1.3-.65,1.85a3.48,3.48,0,0,0-.48,1.18l1.09.3.06.07L60.27,43.5c-1.25.73-2.48,1.5-3.76,2.18a14.88,14.88,0,0,1-2,.73Z"/><path class="cls-21" d="M25,72.21c.46-1.32.85-2.68,1.4-4,.81-1.87,1.51-3.81,3.1-5.25,2.28-2.07,4.51-4.19,6.76-6.29a1.56,1.56,0,0,1-.62,1.56A23.22,23.22,0,0,0,33,61.52c-.38.53-.38,1.36-1.58.58l0,.47a10.22,10.22,0,0,1,.59.87,3.84,3.84,0,0,1,.25.67,1.94,1.94,0,0,1-.71.06c-1.32-.39-1.56-.21-1.79,1.24-.05.28-.42.58-.71.74-.64.34-1.23.57-.94,1.54a1.32,1.32,0,0,1-.49,1.17c-1.15.48-1,1.72-1.66,2.48A9.78,9.78,0,0,1,25,72.21Z"/><path class="cls-14" d="M40.14,63.82c-.86,1-1.7,2-2.58,3-2.18,2.42-4.81,4.45-6.34,7.43-.14.28-.47.47-.71.7l-.86-.67c.79-1.15,1.55-2.23,2.28-3.34A11.08,11.08,0,0,1,33,69.19c1.92-1.85,3.89-3.64,5.9-5.4C39.15,63.6,39.72,63.8,40.14,63.82Z"/><path class="cls-17" d="M44.74,56c.08-.25.09-.63.26-.73,1.85-1.05,3.21-2.88,5.56-3.2a20.45,20.45,0,0,0,3.89-1.36l.83,1.69a5.55,5.55,0,0,1-1.21.1c-.76-.12-1.49-.35-2,.53-.13.2-.62.17-.93.28l-2.37.92c-.66,0-1.21,0-1.16.92-.48.17-1,.35-1.46.5S45.2,55.89,44.74,56Z"/><path class="cls-14" d="M23.31,86.13c-1.28-1.52-.72-3.31-.74-5a15.27,15.27,0,0,1,.23-2c1,.36,1,1.21.88,2.06a7.55,7.55,0,0,0-.25,1.22c0,1,.13,2,.21,3Z"/><path class="cls-17" d="M23,77.5a21.79,21.79,0,0,1,.53-3,6.17,6.17,0,0,1,1.1-1.56c.55,1.84-1,3-1.4,4.58Z"/><path class="cls-14" d="M29.79,76.33l-1.32,3.94a1.31,1.31,0,0,1-.32-2A14.61,14.61,0,0,1,29.79,76.33Z"/><path class="cls-22" d="M32.3,65.29l.62.09c-.4.67-.78,1.35-1.2,2a.51.51,0,0,1-.49.1c-.12-.06-.25-.37-.19-.46C31.43,66.43,31.87,65.87,32.3,65.29Z"/><path class="cls-14" d="M28.3,81.15l-.36,3.52c-.16-.24-.46-.49-.46-.73a13.11,13.11,0,0,1,.23-2.25C27.75,81.48,28.1,81.33,28.3,81.15Z"/><path class="cls-6" d="M44.88,59.61,42.54,61.4c.53-1,.87-2.12,2.29-2.09Z"/><path class="cls-11" d="M42.49,61.59,40.91,63C40.78,61.67,41.09,61.4,42.49,61.59Z"/><path class="cls-17" d="M44.88,59.61l-.05-.3.7-.21L47,60l-1.37.42C45.68,59.91,45.81,59.32,44.88,59.61Z"/><path class="cls-23" d="M47.59,55.16c-.05-.87.5-1,1.16-.92l-.23.92Z"/><path class="cls-23" d="M46.91,58.16l.26.82L46,58.86Z"/><path class="cls-14" d="M23,77.5h.23l-.29.72Z"/><path class="cls-8" d="M44.2,91.28a.29.29,0,0,1,.16.07c0,.34.07.69.11,1l.32,0,.3-1,.67-.27c.49.68.76.43.93-.22l1.45-1.65.17-.21.45-.44.45,0c.21.44.42.87.64,1.35l-1.14.86.72,1c-.67,1.21-1.37,2.45-2.06,3.7h-.43l-.72.67-.71-.45c-.09-.3-.19-.59-.29-.89l-.28,0-.1.83h0l-1,.43C42.64,94.77,42,94.72,39.49,96a6.05,6.05,0,0,1,.68-1.68c.78-.85.51-1.4-.31-1.94a2.58,2.58,0,0,1-.35-.46l2.56-.62Z"/><path class="cls-12" d="M36.57,75.9a8.67,8.67,0,0,1,7.22-6.55c.49,1.21.38,1.43-.89,1.68a7,7,0,0,0-4.55,3.39A8.15,8.15,0,0,1,36.57,75.9Z"/><path class="cls-21" d="M44.2,91.28l-2.13,0a2.3,2.3,0,0,0-2.2-1.15c-.63,0-1.35-.9-1.06-1.43.53-.94.06-1.5-.6-2.09l.44-.89c.13.07.35.1.39.21C40.09,88.39,42.65,89.35,44.2,91.28Z"/><path class="cls-2" d="M38.4,92.44a5.27,5.27,0,0,1-2.57-3.18,1.79,1.79,0,0,0,2,.73C38,90.87,38.21,91.66,38.4,92.44Z"/><path class="cls-2" d="M37,93l1.43-.56c1,.69-.39,1-.27,1.47a3.3,3.3,0,0,1-.9-.31C37.11,93.52,37.09,93.22,37,93Z"/><path class="cls-12" d="M45.75,69.23c.78-.34.66.25.7.67l-.84.28Z"/><path class="cls-21" d="M38.12,84.66c.06.15.12.31.17.47C38.23,85,38.17,84.81,38.12,84.66Z"/><path class="cls-2" d="M30.33,89.05l2-.72.41,2-.91,1Z"/><path class="cls-2" d="M32.68,90.37l.6,1.21C32.34,91.54,32.69,90.87,32.68,90.37Z"/><path class="cls-2" d="M34,92.07l1,.11Z"/><path class="cls-1" d="M24.11,90.18l.24-.47.34.39Z"/><path class="cls-21" d="M24.12,88.34v-.48l.35.19Z"/><path class="cls-2" d="M29.85,88.87l.22.16Z"/><path class="cls-11" d="M70.35,45.89l2.6-.83c-.14,1.27-.26,1.38-2.1,1.76Z"/><path class="cls-11" d="M77.77,43.16l2.06-1.39a11.73,11.73,0,0,1-.74,1.51C78.64,43.93,78.18,43.54,77.77,43.16Z"/><path class="cls-3" d="M50.59,54.47l-1.14.93c0-.29-.05-.77.06-.81A3.48,3.48,0,0,1,50.59,54.47Z"/><path class="cls-7" d="M78.72,30.8l-.18.21-3,.53-.14.48.85.25c-.49.29-1,.34-1,.44-.13,1.26-1.27,1.12-2,1.53s-1.06.72-.37,1.4l-.79.87-.92-1.2c-.62,2.13-1,2.44-2.3,2.06-.6.62-1.16,1.2-1.76,1.8-.43-.93-.72-1.57-1-2.21l1.36-.73.86.4c.09-.45.18-.9.28-1.35l1.37-1.1.74.1v-.73c2.09-2.06,4.13-4.17,6.28-6.14a33.72,33.72,0,0,0,5-6.48c.84-1.24,1.54-2.54,1-4.17a2.73,2.73,0,0,1,.25-1.55c.88-2.5,1.8-5,2.71-7.48l.4.63.52-1.27c.82.92-.16,2.68,1.83,2.91a21.58,21.58,0,0,1,0-2.28A10.83,10.83,0,0,1,89.19,6l2.41,1.3a7.92,7.92,0,0,0-.77,1.61A1.65,1.65,0,0,0,91,10.17,1,1,0,0,0,92.47,10c0-.08.19-.09.61-.26l-.89,2.79-1.08-.66L90.63,11a6.12,6.12,0,0,0-.37.89,3.1,3.1,0,0,1-1.78,2.6,2.34,2.34,0,0,0-1,1.33c-.6,1.73-1,3.54-1.67,5.23a39.11,39.11,0,0,1-2.3,4.14l-1-.44.3,1.16-.21.22c-.83-.05-1,.51-1.15,1.18h0a1.81,1.81,0,0,0-1.87,1.2c-.1.19-.16.5-.3.55C78.36,29.39,78.43,30.05,78.72,30.8ZM67,36.87c-.1.21-.22.35-.19.43s.2.18.31.27c.08-.11.22-.22.21-.31S67.19,37.06,67,36.87ZM74.93,31c0-.06,0-.16-.08-.18s-.13,0-.2.06,0,.17.09.19S74.86,31.07,74.93,31Z"/><path class="cls-7" d="M86.62,5.4c.4,0,.92-.1,1.15.1s.2.75.28,1.14l-.36.14-1.11-1Z"/><path class="cls-7" d="M85.85,7V7Z"/><path class="cls-2" d="M83,39.71l.11-.22c1.56-.11,3.11-.12,3.59-2.16.14-.62.86-1.09,1.25-1.67a17.84,17.84,0,0,0,.94-1.72,19.47,19.47,0,0,1,1-2c.54-.8.49-1-.56-1.21.08-.3.16-.61.25-.91l1.39.43c.29-1.3.5-2.35.77-3.39.14-.52.49-1,.58-1.52.27-1.5.49-3,.65-4.52a13.14,13.14,0,0,0-.12-2.07c0-.31,0-.61,0-.91s-.13-.78-.2-1.17l-.25-.91.21-.91h1.25c1.45,0,1.44,0,.76-1.24-.09-.16,0-.41,0-.62,0-.39-.06-.78-.08-1.17,0-.61,0-1.22,0-1.83a4.47,4.47,0,0,1,.41.59c.35.8.66,1.63,1,2.43.22.52.6,1-.33,1.37,1.08,1.17.73,2.53.72,3.84s0,2.61,0,4C94.79,22.69,95.13,24,95,25a2.57,2.57,0,0,1-.61,1.59c-.54.68-.51,1.82-.73,2.75-.24.38-.47.76-.71,1.13l-.82.65.38.3c0,.18-.08.52-.12.52-2,0-1.94,1.85-2.66,3-1.08,1.74-1.76,3.91-4.09,4.55-.14,0-.35.15-.36.25-.15,1.19-1.05.81-1.76.86h0C83.34,40.34,83.14,40,83,39.71Z"/><path class="cls-2" d="M83.53,40.65l-.42.46-.19-.28.62-.18Z"/><path class="cls-11" d="M92.52,14.86l-.21.91-.15-1Z"/><path class="cls-17" d="M45.3,64.15l.23-2.08a4.21,4.21,0,0,1,1.28.44,1.61,1.61,0,0,1,.5,1.05c0,.14-.49.4-.79.48A7,7,0,0,1,45.3,64.15Z"/><path class="cls-17" d="M45.74,66.24l.7-1.44.44.24-.8,1.39Z"/><path class="cls-17" d="M46.35,61.32a1.54,1.54,0,0,1-.08.19c-.06,0-.16,0-.18-.09s0-.12.07-.18Z"/><path class="cls-1" d="M44.84,95.71l.1-.83.28,0c.1.3.2.59.29.89Z"/><path class="cls-7" d="M46.22,96.17l.72-.67Z"/><path class="cls-9" d="M48.31,89l-.17.21-.76-.68Z"/><path class="cls-21" d="M47.15,44.24c0,1.38-1.09,2.14-1.95,1.47a23.94,23.94,0,0,1-2.7-2.81c-.6-.66-1.14-1.38-1.73-2C39.93,39.89,39,39,38.23,38c-.23-.28-.41-1-.25-1.14.46-.43.56-1.37,1.63-1.11,1.43.36,2,1.65,2.87,2.53a42.94,42.94,0,0,1,3.57,4A11.73,11.73,0,0,1,47.15,44.24Z"/><path class="cls-14" d="M51.86,41.33c-.29.42-.62,1.26-.89,1.24a3.25,3.25,0,0,1-2-.8c-1.82-1.89-3.52-3.91-5.27-5.88a5,5,0,0,0-.67-.63c-.87-.67-.84-1.21.11-1.73,1.85-1,2.09-1,3.36.75.22.31.5.58.74.88,1.41,1.73,2.82,3.45,4.21,5.2A4.87,4.87,0,0,1,51.86,41.33Z"/><path class="cls-21" d="M31.31,43.1c1.17,1.36,2.28,2.54,3.28,3.81a23.59,23.59,0,0,1,2.52,3.66,3.76,3.76,0,0,1,0,2.28c-.11.55-1.32.61-1.77.06-1-1.26-2-2.6-3-3.85s-2-2.35-3.1-3.43c-.61-.62-.69-1.21.09-1.67A18.64,18.64,0,0,1,31.31,43.1Z"/><path class="cls-21" d="M63.19,33.26a2.89,2.89,0,0,1-.87-.66c-1.46-2-2.88-4.12-4.32-6.18a4.4,4.4,0,0,0-.57-.72c-.51-.5-1.44-1-.69-1.8,1-1.17,1.93-1.14,2.83-.08a47.78,47.78,0,0,1,3.35,4.06,17,17,0,0,1,1.86,3.86C65.11,32.71,64.51,33.3,63.19,33.26Z"/><path class="cls-14" d="M24.89,48.89c1.77-1.53,2.61-1.52,4.13.14,1.05,1.17,1.94,2.49,2.91,3.74a3,3,0,0,0,.57.7c1,.77.76,1.92.77,2.93,0,.74-1,1-1.57.39a27.44,27.44,0,0,1-1.86-2Z"/><path class="cls-21" d="M41.05,47.27a4.93,4.93,0,0,0,0,.77c.15,1-.56,1.08-1.12.79a8.39,8.39,0,0,1-2.47-1.75,25.25,25.25,0,0,1-2-3c-.48-.71-1-1.35-1.52-2.07a1.17,1.17,0,0,1-.14-.95,1.89,1.89,0,0,1,3.23-.39c1.43,2,2.67,4,4,6.1a1.72,1.72,0,0,1,.15.53Z"/><path class="cls-12" d="M55.8,37.47c-.26.31-.47.82-.76.86a2.62,2.62,0,0,1-1.72-.22,11.69,11.69,0,0,1-1.92-1.93c-1.16-1.33-2.29-2.67-3.41-4A3.61,3.61,0,0,1,47.35,31a6.21,6.21,0,0,1,1.86-1.15,1.33,1.33,0,0,1,1.11.44c1.66,2,3.28,3.93,4.88,5.92A6.49,6.49,0,0,1,55.8,37.47Z"/><path class="cls-14" d="M53.26,26.11a5.11,5.11,0,0,1,1.31.69,20.94,20.94,0,0,1,2.23,2.75c.7,1.08,1.19,2.29,1.84,3.41a1.61,1.61,0,0,1,.1,1.63c-.33.84-.78.84-1.28.47a8.22,8.22,0,0,1-1.83-1.75c-1.29-1.73-2.5-3.53-3.71-5.32a.75.75,0,0,1,0-.7A14.77,14.77,0,0,1,53.26,26.11Z"/><path class="cls-14" d="M17.8,53.17c1.58,2,3.17,3.78,4.56,5.73a12,12,0,0,1,1.29,3.17c.08.23-.18.65-.4.86s-.51-.15-.75-.3c-2.57-1.61-3.89-4.32-5.74-6.56C15.68,54.77,16.86,54.16,17.8,53.17Z"/><path class="cls-21" d="M27.94,57.84c-.28.44-.44.95-.77,1.13s-.83-.12-1.06-.38c-1.37-1.55-2.68-3.14-4-4.72-.22-.26-.43-.54-.66-.79-.82-.92-.84-1.52-.09-2.14a1.68,1.68,0,0,1,2.43.24c1,1.37,2.12,2.7,3.06,4.13A14.6,14.6,0,0,1,27.94,57.84Z"/><path class="cls-6" d="M66,37c.29.64.58,1.28,1,2.21.6-.6,1.16-1.18,1.76-1.8,1.28.38,1.68.07,2.3-2.06l.92,1.2a21.33,21.33,0,0,1-7.34,4.41l-.06-.07a8.17,8.17,0,0,0,.94-.81c.81-.93-.11-1.74-.22-2.6Z"/><path class="cls-3" d="M65.34,37.44c.11.86,1,1.67.22,2.6a8.17,8.17,0,0,1-.94.81l-1.09-.3A3.48,3.48,0,0,1,64,39.37c.53-.55,1-1,.65-1.85Z"/><path class="cls-6" d="M68.53,35.28c-.1.45-.19.9-.28,1.35l-.86-.4Z"/><path class="cls-6" d="M70.64,33.55v.73l-.74-.1Z"/><path class="cls-2" d="M26.87,32.36c-.53-.77.07-.66.52-.67Z"/><path class="cls-2" d="M38.16,22l.51-.39Z"/><path class="cls-11" d="M89.28,30.74c1,.24,1.1.41.56,1.21a19.47,19.47,0,0,0-1,2,17.84,17.84,0,0,1-.94,1.72c-.39.58-1.11,1.05-1.25,1.67-.48,2-2,2.05-3.59,2.16,2.8-1.84,3.8-5,5.46-7.62C88.76,31.49,89,31.12,89.28,30.74Z"/><path class="cls-11" d="M92.8,18.76a13.14,13.14,0,0,1,.12,2.07c-.16,1.52-.38,3-.65,4.52-.09.52-.44,1-.58,1.52-.27,1-.48,2.09-.77,3.39l-1.39-.43c.5-1.07,1.1-2.1,1.49-3.21a24.34,24.34,0,0,0,.78-3.19C92.15,21.88,92.47,20.31,92.8,18.76Z"/><path class="cls-6" d="M72.81,35.64c-.69-.68-.23-1.07.37-1.4s1.88-.27,2-1.53c0-.1.54-.15,1-.44L75.37,32l.14-.48,3-.53c-1.4,1.32-2.77,2.66-4.21,3.93A6,6,0,0,1,72.81,35.64Z"/><path class="cls-17" d="M42.53,55.16a4.73,4.73,0,0,1,.53-1.3,18.13,18.13,0,0,1,2-2.06,3.29,3.29,0,0,1,1.09-.41c0,.38,0,.77,0,1.15Z"/><path class="cls-6" d="M78.72,30.8c-.29-.75-.36-1.41.62-1.72.14,0,.2-.36.3-.55a1.81,1.81,0,0,1,1.87-1.2c-.62.85-1.25,1.69-1.87,2.53l-.29-.3.08.52Z"/><path class="cls-16" d="M51.56,49c0-1.24.09-1.3,1.65-1.13Z"/><path class="cls-6" d="M81.5,27.34c.11-.67.32-1.23,1.15-1.18C82.27,26.55,81.88,26.94,81.5,27.34Z"/><path class="cls-6" d="M82.86,25.94l-.3-1.16,1,.44Z"/><path class="cls-11" d="M92.56,16.68c.07.39.13.78.2,1.17C92.69,17.46,92.63,17.07,92.56,16.68Z"/><path class="cls-7" d="M79.43,30.08l-.08-.52.29.3Z"/><path class="cls-16" d="M54,47.06l.48-.65Z"/><path class="cls-16" d="M49.73,50.16l.48-.47Z"/><path class="cls-21" d="M45.09,91.38l-.3,1-.32,0c0-.34-.07-.69-.11-1Z"/><path class="cls-21" d="M46.69,90.89c-.17.65-.44.9-.93.22Z"/><path class="cls-6" d="M67,36.87c.17.19.32.28.33.39s-.13.2-.21.31c-.11-.09-.26-.16-.31-.27S66.92,37.08,67,36.87Z"/><path class="cls-6" d="M74.93,31c-.07,0-.15.09-.19.07s-.06-.12-.09-.19.15-.08.2-.06S74.9,31,74.93,31Z"/></g></svg>