<svg xmlns="http://www.w3.org/2000/svg" viewBox="0 0 100 100"><defs><style>.cls-1{fill:#69adaf;}.cls-2{fill:#86bcbe;}.cls-3{fill:#72b2b3;}.cls-4{fill:#7ab6b7;}.cls-5{fill:#78b5b6;}.cls-6{fill:#66abad;}.cls-7{fill:#a1cbcd;}.cls-8{fill:#6caeb0;}.cls-9{fill:#93c4c5;}.cls-10{fill:#96c5c7;}.cls-11{fill:#9dc9cb;}.cls-12{fill:#99c7c8;}.cls-13{fill:#8fc2c3;}.cls-14{fill:#b0d3d5;}.cls-15{fill:#a6ced0;}.cls-16{fill:#5ca5a8;}.cls-17{fill:#a4cdcf;}.cls-18{fill:#aad0d2;}.cls-19{fill:#82babc;}.cls-20{fill:#8cc0c1;}</style></defs><g id="Ebene_2" data-name="Ebene 2"><path class="cls-1" d="M48.47,67.38l.16-.37a2.8,2.8,0,0,0,1-1.84,10.91,10.91,0,0,1,1.28-2.76l.92-1.7.74.08-.1-1.12c.17-.31.33-.62.49-.93,2.08-.09,3.22-1.16,3.08-2.9l.21-.6V54l-1-3.6,1.21-1.74,1.48.87c.12,1.19.86,1.52,1.91,1.39l.25.47v.48c0,.15-.1.3-.14.45-.13.42-.26.84-.38,1.26l1.22-.26,1,.24a3.53,3.53,0,0,0,.54,1.08c.85.81.83,1.47-.11,2.16a4.6,4.6,0,0,0-.64.68l-.54.63-1.15-.33a13.17,13.17,0,0,1-2,2.2c-.82.56-1.11,1-.15,2.1l-1.2-.56A3.13,3.13,0,0,0,54.24,64c-.43,1.43-.78,2.9-1.12,4.36-.37,1.62-.7,3.26-1,4.89.21,1.42.43,2.85.65,4.28l.45,2.62-.86.55-.44,0c-.08-.09-.15-.23-.24-.24a2.57,2.57,0,0,1-2.45-2.57A15.7,15.7,0,0,0,48,74.66c0-.24,0-.47,0-.71-.05-1.28-.11-2.57-.17-3.85.15-.72.29-1.44.43-2.16Z"/><path class="cls-2" d="M36.86,17.88c.74-.15,1.47-.36,2.22-.45,1.52-.18,4.43,1.76,5.15,3.11a18.62,18.62,0,0,0,2,2.32,16.63,16.63,0,0,1,1.59,2.4,15.57,15.57,0,0,1,1,2.49,7.4,7.4,0,0,1,.39,4.55c-.44,1.47-.93,2.93-1.4,4.39a6.68,6.68,0,0,1-.09-1.09c0-.69.14-1.38.21-2.07l.06,0,.17-2.67-.47-.28a2.77,2.77,0,0,1-3.16,2.54c-.16-1.57-.25-3.15-.51-4.7-.3-1.78-1-3.34-2.85-4-1.5-.53-3-1.12-4.47-1.68.23,0,.5-.18.67-.1a1.76,1.76,0,0,0,2.25-.5,8.18,8.18,0,0,0,.78-2.29Z"/><path class="cls-3" d="M76.45,49h.24l.92.33.93.1h.55l.64-.09,1.22.11h.94l1,.48L83,50c.06.1.11.28.18.3a4.65,4.65,0,0,1,3.35,2c.15.24.52.34.79.49.5.26,1,.5,1.74.87l.86-.38c.85.87,1.65,1.78,2.54,2.59a11.71,11.71,0,0,0,1.62,1,1.52,1.52,0,0,1,.77,2,1.89,1.89,0,0,1-2.23,1.17l-.23,1.17c-.42-.11-1-.08-1.16-.33a3.16,3.16,0,0,0-3.73-1.44,2.79,2.79,0,0,1-.93-.13V56.4a24.56,24.56,0,0,0-2.7-2.32A9,9,0,0,0,81,52.83a23,23,0,0,0-3.34-.29l.39-2C77.51,50.09,76.25,50.24,76.45,49Z"/><path class="cls-4" d="M61.59,57.44a4.6,4.6,0,0,1,.64-.68c.94-.69,1-1.35.11-2.16a3.53,3.53,0,0,1-.54-1.08l3.54,1c.22.39.42.79.67,1.16,1.06,1.65,3.19,2.37,3.79,4.44l1,3.29-.1.36.35-.11h.71v2.15l-1.13.35a3.57,3.57,0,0,0-.66-1.2,1.52,1.52,0,0,0-1.27-.37c-.33.17-.44.8-.65,1.23.85.38.52,1.18.67,1.83a2.37,2.37,0,0,0,.79,1c1,.91,2.07-.07,3.11,0,.26,1,.51,1.93.77,2.9a2.4,2.4,0,0,0-.63.27,3.51,3.51,0,0,0-.49.7,4.72,4.72,0,0,0,.84.36c.17,0,.37-.08.56-.14a.37.37,0,0,1,0,.18l-1.48.79-.28-.37-.08.08.37.29c-.14.3-.25.61-.41.9s-.49.81-.74,1.22l.25.25h-.68l-.75-2.36c.76,0,1.5,0,1.49-1L69.8,72c-1.4-.62-2-2-2.8-3.15-.2-.55-.37-1.15-1-.31l-.77.79-.39.49a.45.45,0,0,1-.08.22c0-.35-.23-.82-.08-1,.86-1,1.81-2,2.88-3.19l.08-1.36a12.46,12.46,0,0,0-3.91-6.07A7.66,7.66,0,0,0,61.59,57.44Z"/><path class="cls-3" d="M44.54,33.1a2.77,2.77,0,0,0,3.16-2.54l.47.28L48,33.51l-.06,0c-.07.69-.17,1.38-.21,2.07a6.68,6.68,0,0,0,.09,1.09c-.26,2.06-1.54,3.58-2.67,5.16A7.89,7.89,0,0,1,43.87,43a17.65,17.65,0,0,0-2.06.09,3.38,3.38,0,0,0-1,.57,3.93,3.93,0,0,1-1.41.82A13.34,13.34,0,0,1,37,44.41H33.88l.53-3.16,1.65.3c.17-.71.3-1.24.42-1.77l.37,0c.61,0,1.34.38,1.53-.63a.21.21,0,0,1,.14-.07l2.25.39L41.93,37a.3.3,0,0,1,.15-.07c.47,0,1.27.1,1.35-.08.57-1.4,1.66-1.44,2.85-1.32a.35.35,0,0,0,.23-.07c.28-.26.54-.53.81-.8-.37-.07-.86-.33-1.1-.18a1.21,1.21,0,0,1-1.85-.38Z"/><path class="cls-5" d="M56.52,61.48l1.2.56c-1-1.09-.67-1.54.15-2.1a13.17,13.17,0,0,0,2-2.2l1.15.33a5.52,5.52,0,0,0-.54,1.16,16.32,16.32,0,0,0,0,8.27,16.89,16.89,0,0,0,.82,1.91c.44,1.32,1.19,2.45,1.08,4a3.16,3.16,0,0,1-1.07,2.64l0-.66c.06-.38.11-.75.19-1.26l-1.17.28L59,74.06c-.61-1.26-1.32-2.39-3-2.47l.87-.94c.13-.35.42-.75.34-1A19.6,19.6,0,0,1,56.52,61.48Z"/><path class="cls-6" d="M65.34,54.48l-3.54-1-1-.24v-.73a2.54,2.54,0,0,0,.76-.28c.59-.48,1.49-.43,1.88-1.4.17-.44,1.35-.37,1.17-1.39l4.17-.35c.41.93,1.09.41,1.69.32l.42.85.34-.6,0-.06.72,0,.18.37.31-.35.74-.4.89-.3v2.22A1.61,1.61,0,0,0,75.25,49l0-.25,1.18.26c-.2,1.28,1.06,1.13,1.57,1.62-.14.69-.26,1.33-.39,2H76.22l-.72-.47c-.66.12-1.24.33-1.17,1.2a12.17,12.17,0,0,0-2.28.85c-.8.49-1.17.31-1.73-.37a1.84,1.84,0,0,0-1.6-.53c-.43.14-1.52.06-1.2,1.17Z"/><path class="cls-7" d="M23.18,35.78a6,6,0,0,1-1.05-4.49,21.91,21.91,0,0,0,.38-3.09c-.28-3.5,1.67-5.62,4.22-7.42.1.5.17,1,.29,1.5.18.69.28,1.45,1.37,1.06.24-.08.66.37,1,.58-.34.43-.69.85-1,1.3-1.41,2-1.05,4.41-1.34,6.67-.57,0-1.27-.12-1.13.87a1.62,1.62,0,0,1-1.5,2l-.48-.89h-.33c-.08.4-.15.8-.24,1.2C23.32,35.3,23.24,35.54,23.18,35.78Z"/><path class="cls-8" d="M29.39,23.92c-.34-.21-.76-.66-1-.58C27.3,23.73,27.2,23,27,22.28c-.12-.49-.19-1-.29-1.5l.25-.22.77-.64A7.6,7.6,0,0,1,34.37,18a10,10,0,0,0,2.49-.13l3.55,1.92a8.18,8.18,0,0,1-.78,2.29,1.76,1.76,0,0,1-2.25.5c-.17-.08-.44.06-.67.1l-1.16-.07-.73-.09a18.65,18.65,0,0,1-1.93.46C31.68,23.16,30.81,24.64,29.39,23.92Zm7.74-2.5-.09.2c.07,0,.15.1.19.08s.06-.13.09-.19Z"/><path class="cls-9" d="M11.59,5.92l2.74.82a1.4,1.4,0,0,0,.56.11c2.61-.21,7.05,2.21,8.2,4.59A10.48,10.48,0,0,1,23.87,14a1.1,1.1,0,0,1-.46.94c-.44.2-1.14.42-1.47.21-2.74-1.75-5.43-3.57-8.12-5.41A8.88,8.88,0,0,1,11.88,8.1a6,6,0,0,1-.62-1.81Z"/><path class="cls-10" d="M36.48,39.76l-.42,1.77-1.65-.3c-.17,1-.35,2.08-.53,3.16a3.48,3.48,0,0,0-1.34-.12c-.9.28-1.46.09-1.74-.85l.24-.48,1,1.42.47-1.9c-.64.14-1.41-.75-2,.24h-.71l-1.68.49a.44.44,0,0,1-.2-.08c0-.14,0-.28,0-.42V42L27.44,41l-1.15.48-.22-.25-.34-.5c-.13-.22-.25-.45-.38-.68-.08-.89-.15-1.78-.23-2.67v-.48l1.18-.73c1,0,1.24-.54.94-1.44l.48-1a24.73,24.73,0,0,0,.85,2.42c.57,1.21,1.32,2.51,2.66,2.75C33,39.3,34.61,40.45,36.48,39.76Z"/><path class="cls-11" d="M70.62,76.07h.68l-.25-.25c.25-.41.51-.81.74-1.22s.27-.6.41-.9h0l1.48-.79A39.67,39.67,0,0,1,75,77.13c.51,2.5.84,5,1.24,7.57.07.18.13.35.19.53s0,.32,0,.48l-2.1-.84-1.47,1.58L72.75,85c.2-.3.41-.59.62-.88l-.92-.59Z"/><path class="cls-12" d="M49,12.38c0-2.23,1.32-3.2,2.68-4,1.6-.95,3.29-1.74,4.91-2.66.73-.42,1.36-1,2.1-1.45.38-.2,1.16-.31,1.31-.11.36.48.8,1.35.6,1.72a6.37,6.37,0,0,1-2.09,2.41c-1.71,1-3.64,1.61-5.38,2.56a18.45,18.45,0,0,0-2.39,2.07c-.33.27-1,.64-1.14.52A2.84,2.84,0,0,1,49,12.38Z"/><path class="cls-9" d="M55.33,25.52c-1.27-1.82-.87-3.38,1.26-4a22.55,22.55,0,0,1,5.84-1,10.21,10.21,0,0,1,2.45.26,2.29,2.29,0,0,1,1.34,2.7,1,1,0,0,1-.71.51c-1.67.18-3.34.34-5,.45A11.11,11.11,0,0,0,55.33,25.52Z"/><path class="cls-12" d="M53.27,38.38a21.24,21.24,0,0,1,3.13,1.56c1.42,1,2.71,2.25,4,3.41.87.75.14,1.51-.17,2.14-.11.22-1,.25-1.43.06Q55.61,44,52.49,42.23a2.16,2.16,0,0,1-.76-2.66C51.85,39.12,52.63,38.85,53.27,38.38Z"/><path class="cls-9" d="M71.72,65.77V63.62a3.81,3.81,0,0,1,3.82-2.53,11.06,11.06,0,0,1,.18,1.52A1.31,1.31,0,0,0,77.17,64,2.69,2.69,0,0,0,79,63.07,2.48,2.48,0,0,0,79.05,60l0-.28.69,0,.2,1.74c.73-.31,1.49-.94,1.45.4l-.53.26c-.65.32-.29.53.08.73l.48,2.4c-.49.08-1,.21-1.48.24-1.38.1-2,.85-1.79,2.27,0,0-.25.14-.38.21a1.28,1.28,0,0,1-1.34-1.46c0-.79-.29-1.33-1.06-1.48a1.44,1.44,0,0,0-1.77.8c-.33.72-.72,1.41-1.09,2.11-.13-.29-.29-.58-.4-.88S71.86,66.21,71.72,65.77Z"/><path class="cls-13" d="M34.23,0a1.4,1.4,0,0,1,1.55,1.51,6.55,6.55,0,0,0,.63,2c1,2.26.5,4.63.44,6.93,0,.55-1,1.09-1.57,1.57a1.52,1.52,0,0,1-.76-.66c-.66-2.12-1.47-4.21-1.08-6.5C33.71,3.28,34,1.67,34.23,0Z"/><path class="cls-9" d="M12.13,34.11l.94-.28h.7l1.41.49-1.85,1.22c.19.51,1.4,1.13.46,2.14l-.72.25a1.48,1.48,0,0,0-2.25-.5c0,.55,1.4-.24.83.89C9.87,39,8.1,39.75,6.3,40.4a3.88,3.88,0,0,1-1.35,0c.1-.39.18-.79.31-1.18a5.21,5.21,0,0,1,2.09-3.09c.51-.33.89-1,1.64-1.1.4.08.8.12,1.19.23C11.82,35.68,12.07,35.55,12.13,34.11Z"/><path class="cls-14" d="M72.87,86.45l1.47-1.58,2.1.84-.54,1-1-.16c.23.77.4,1.39.62,2,0,.07.31.05.47.06.12,1.31.23,2.61.35,3.92l-.85,1.22.69.43.24,1.44H74.83l0-.3-1.4,1A29.3,29.3,0,0,1,73,93.05C72.88,90.85,72.9,88.65,72.87,86.45Z"/><path class="cls-10" d="M61.31,76.1a3.16,3.16,0,0,0,1.07-2.64c.11-1.6-.64-2.73-1.08-4,.33-.41.68-.8,1-1.24a7.42,7.42,0,0,1,5.39-3.66l-.08,1.36c-1.07,1.17-2,2.15-2.88,3.19-.15.19,0,.66.08,1-.09,1.08-.17,2.16-.29,3.24-.09.85-.23,1.7-.35,2.54a.43.43,0,0,1-.09.22A4,4,0,0,1,61.31,76.1Z"/><path class="cls-13" d="M43,63.89c-.33-.83-.73-1.63-1-2.47-.56-1.82-1.1-3.65-1.57-5.49-.27-1.08-.38-2.21-.56-3.31a.94.94,0,0,1,1.05-1.22,1.68,1.68,0,0,1,1.25.82c.41,1.23.6,2.53.89,3.8s.62,2.29.83,3.46a5.88,5.88,0,0,1-.44,4.34Z"/><path class="cls-10" d="M19.68,60.45c.36-1.1.63-2,.93-2.84.62-1.74,1.27-3.47,1.9-5.2.27-.74.51-1.5.8-2.23a1.32,1.32,0,0,1,2-.83,1.71,1.71,0,0,1,.94,2.35c-1,1.73-2.12,3.39-3,5.17A6.73,6.73,0,0,1,19.68,60.45Z"/><path class="cls-9" d="M56.83,70.65l-.87.94c1.7.08,2.41,1.21,3,2.47a40.84,40.84,0,0,0-4.49,1.66c-.71.34-1.18,1.19-1.76,1.81-.22-1.43-.44-2.86-.65-4.28.22-.14.44-.29.67-.41C54.11,72.1,55.47,71.38,56.83,70.65Z"/><path class="cls-13" d="M76.22,52.55h1.41a21.71,21.71,0,0,1,3.34.28,9,9,0,0,1,2.94,1.25,24.56,24.56,0,0,1,2.7,2.32v2.92l-.07,0h-.08l-1.13-1-.84,1.87-.41.06-.55.35-.39.13c-.55-.19-.82-.37-.08-.76a10.31,10.31,0,0,0,1.3-1l-.26-.51L82.36,59l-.48-.75,2.69-2.24c-1.42-1.34-2.7-2.75-4.83-2.77-.85,0-1.71-.17-2.56-.17-.28,0-.55.27-.83.42Z"/><path class="cls-15" d="M30.8,43.42c.28.94.84,1.13,1.74.85a3.48,3.48,0,0,1,1.34.12h2.36l.3.43.42-.42a13.34,13.34,0,0,0,2.44.08,3.93,3.93,0,0,0,1.41-.82,3.38,3.38,0,0,1,1-.57A17.65,17.65,0,0,1,43.87,43a9.11,9.11,0,0,1-2.13,1.55A30,30,0,0,1,37,45.75a6.67,6.67,0,0,1-2.2-.22c-1.11-.2-2.21-.52-3.32-.7a4.91,4.91,0,0,1-3.27-1.63l1.68-.49L30,44.08Z"/><path class="cls-16" d="M71.72,65.77c.14.44.26.89.41,1.32s.27.59.4.88,0,.44,0,.67c-1-.07-2.09.91-3.11,0a2.37,2.37,0,0,1-.79-1c-.15-.65.18-1.45-.67-1.83.21-.43.32-1.06.65-1.23a1.52,1.52,0,0,1,1.27.37,3.57,3.57,0,0,1,.66,1.2Z"/><path class="cls-15" d="M27.73,33.82l-.48,1-1.44.2.5,1.24-1.18.73-.55-1.63c-.33.47-.81.84-.81,1.21,0,.81.68.94,1.35.9.08.89.15,1.78.23,2.67-1.53-1-1.88-2.65-2.17-4.31.06-.24.14-.48.19-.72.09-.4.16-.8.24-1.2h.33l.48.89a1.62,1.62,0,0,0,1.5-2c-.14-1,.56-.84,1.13-.87C27.28,32.53,27.5,33.17,27.73,33.82Z"/><path class="cls-13" d="M73.41,96.27l1.4-1,0,.3h1.62c0,.17,0,.34-.07.5s-.1.32-.16.47c.19,1,.47,1.84-1,2.08-.54.08-1,.9-1.44,1.39l-.35-.21Z"/><path class="cls-10" d="M64.65,49.48c.18,1-1,1-1.17,1.39-.39,1-1.29.92-1.88,1.4a2.54,2.54,0,0,1-.76.28l-.7-.72v-.48l-.25-.47c-1,.13-1.79-.2-1.91-1.39.08,0,.18,0,.23,0,1.91,1.55,3.82.77,5.75,0A2.24,2.24,0,0,1,64.65,49.48Z"/><path class="cls-7" d="M48,74.66a15.7,15.7,0,0,1,1.17,3.28,2.57,2.57,0,0,0,2.45,2.57c.09,0,.16.15.24.24a9.43,9.43,0,0,1-.25,1c-.26.72-1.14,1-1.59.49s-1.21-1.45-1.13-2.09c.23-1.85-.72-3.39-.92-5.1A2.17,2.17,0,0,1,48,74.66Z"/><path class="cls-14" d="M77.79,68c.13-.07.38-.16.38-.21-.19-1.42.41-2.17,1.79-2.27.49,0,1-.16,1.48-.24h0l.23.26c.1,1.69-.35,2.15-1.84,2.06-.32,0-.65.33-1,.4A5.05,5.05,0,0,1,77.79,68Z"/><path class="cls-17" d="M82.36,59l1.74-.56.26.51a10.31,10.31,0,0,1-1.3,1c-.74.39-.47.57.08.76l-1.73,1.13c0-1.34-.72-.71-1.45-.4l-.2-1.74.45-.27c0,1.19.89.63,1.26.72Z"/><path class="cls-17" d="M90,53.25l-.86.38c-.74-.37-1.24-.61-1.74-.87-.27-.15-.64-.25-.79-.49a4.65,4.65,0,0,0-3.35-2c-.07,0-.12-.2-.18-.3.24,0,.5-.11.7,0,1.75.7,3.51,1.39,5.22,2.18C89.38,52.33,89.64,52.87,90,53.25Z"/><path class="cls-18" d="M13.79,37.68c.94-1-.27-1.63-.46-2.14l1.85-1.22c1.36,1.24,1.25,2.22-.32,2.89Z"/><path class="cls-11" d="M56,55.84c.14,1.74-1,2.81-3.08,2.9Z"/><path class="cls-18" d="M12.13,34.11c-.06,1.44-.31,1.57-2,1.1C9.79,35.1,9.39,35.06,9,35Z"/><path class="cls-3" d="M75.25,49a1.61,1.61,0,0,1-1.17,2.26V49l.66-.09Z"/><path class="cls-7" d="M47.86,70.1c.06,1.28.12,2.57.17,3.85C47,72.71,47.51,71.4,47.86,70.1Z"/><path class="cls-7" d="M50.91,62.41a10.91,10.91,0,0,0-1.28,2.76,2.8,2.8,0,0,1-1,1.84A8,8,0,0,1,50.91,62.41Z"/><path class="cls-11" d="M69.8,72l1.56.63c0,1-.73,1.06-1.49,1C69.85,73.15,69.83,72.59,69.8,72Z"/><path class="cls-15" d="M26.29,41.52,27.44,41,28,42c-.75.25-.37.49,0,.72,0,.14,0,.28,0,.42Z"/><path class="cls-17" d="M84.49,60.22l.84-1.87,1.13,1Z"/><path class="cls-18" d="M11.65,38.32c.57-1.13-.81-.34-.83-.89a1.48,1.48,0,0,1,2.25.5Z"/><path class="cls-11" d="M73.63,72.73c-.19.06-.39.18-.56.14a4.72,4.72,0,0,1-.84-.36,3.51,3.51,0,0,1,.49-.7,2.4,2.4,0,0,1,.63-.27C73.44,71.94,73.53,72.34,73.63,72.73Z"/><path class="cls-10" d="M76,88.55c-.16,0-.45,0-.47-.06-.22-.6-.39-1.22-.62-2l1,.16Z"/><path class="cls-17" d="M70.51,49.45c-.6.09-1.28.61-1.69-.32.87-.1,1.79-.51,2.42.51l0,.06Z"/><path class="cls-14" d="M72.45,83.54l.92.59c-.21.29-.42.58-.62.88Z"/><path class="cls-13" d="M76.21,94.12l-.69-.43.85-1.22C76.32,93,76.26,93.57,76.21,94.12Z"/><path class="cls-10" d="M60.3,74.46l1.17-.28c-.08.51-.13.88-.19,1.26C61,75.11,60.63,74.79,60.3,74.46Z"/><path class="cls-11" d="M52.47,59.67l.1,1.12-.74-.08Z"/><path class="cls-11" d="M56.25,54v0Z"/><path class="cls-17" d="M81,49.42l-1.22-.11Z"/><path class="cls-17" d="M77.61,49.3,76.69,49Z"/><path class="cls-10" d="M66,68.57c.61-.84.78-.24,1,.31Z"/><path class="cls-17" d="M82.86,49.9l-1-.48Z"/><path class="cls-17" d="M73.19,49.29l-.74.4-.33-.07Z"/><path class="cls-7" d="M52.32,80.7l.86-.55Z"/><path class="cls-7" d="M27.75,19.92l-.77.64Z"/><path class="cls-18" d="M13.77,33.83h0Z"/><path class="cls-17" d="M81,62.88c-.37-.2-.73-.41-.08-.73C80.91,62.39,80.93,62.64,81,62.88Z"/><path class="cls-14" d="M76.22,96.53c.06-.15.11-.31.16-.47C76.33,96.22,76.27,96.38,76.22,96.53Z"/><path class="cls-17" d="M75.25,49l-.51-.05.53-.2Z"/><path class="cls-17" d="M79.09,49.4h0Z"/><path class="cls-7" d="M48.47,67.38l-.18.56Z"/><path class="cls-17" d="M83.53,60.63l.55-.35Z"/><path class="cls-10" d="M72.12,49.62l.33.07c-.11.11-.21.23-.31.35L72,49.67A.3.3,0,0,1,72.12,49.62Z"/><path class="cls-10" d="M64.86,69.85l.39-.49Z"/><path class="cls-14" d="M76.43,85.23c-.06-.18-.12-.35-.19-.53C76.31,84.87,76.37,85.05,76.43,85.23Z"/><path class="cls-15" d="M25.73,40.77l.34.5Z"/><path class="cls-9" d="M81.65,65.53l-.23-.26Z"/><path class="cls-4" d="M60.14,51.83l.7.72v.73l-1.22.26c.12-.42.25-.84.38-1.26C60,52.13,60.09,52,60.14,51.83Z"/><path class="cls-4" d="M59.89,50.88l.25.47Z"/><path class="cls-11" d="M72.2,73.7l-.37-.29.08-.08.28.37Z"/><path class="cls-9" d="M70.76,63.37l.25.25-.35.11Z"/><path class="cls-2" d="M42.08,36.9c.77-.94,1.53-1.89,2.29-2.83a1.21,1.21,0,0,0,1.85.38c.24-.15.73.11,1.1.18-.27.27-.53.54-.81.8a.35.35,0,0,1-.23.07c-1.19-.12-2.28-.08-2.85,1.32C43.35,37,42.55,36.88,42.08,36.9Z"/><path class="cls-10" d="M38.52,39,41.93,37l-1.16,2.46Z"/><path class="cls-10" d="M36.85,39.74l1.53-.63C38.19,40.12,37.46,39.78,36.85,39.74Z"/><path class="cls-10" d="M37,44.41l-.42.42-.3-.43Z"/><path class="cls-10" d="M35.06,44.39h0Z"/><path class="cls-19" d="M75.54,59.29c-.69-2.63-4.19-5-6.82-4.72a4.57,4.57,0,0,1-1.2-.17c-.32-1.11.77-1,1.2-1.17a1.84,1.84,0,0,1,1.6.53c.56.68.93.86,1.73.37a12.17,12.17,0,0,1,2.28-.85c1.21.42,1.13-.45,1.17-1.2l.72.47c0,.33.09.65.13,1a7.63,7.63,0,0,1,2.72,6.2l0,.28c-.33.25-.65.52-1,.75s-.53.38-.75.34a.81.81,0,0,1-.45-.64C77,59.4,76.33,59.27,75.54,59.29Zm.36-5V53.9c-.25,0-.5,0-.74,0a3.25,3.25,0,0,0,0,.41Z"/><path class="cls-13" d="M75.5,52.08c0,.75,0,1.62-1.17,1.2C74.26,52.41,74.84,52.2,75.5,52.08Z"/><path class="cls-10" d="M70.51,49.45l.75.25-.33.6Z"/><path class="cls-2" d="M35.55,22.63l-.73-.09Z"/><path class="cls-2" d="M37.13,21.42l.19.09c0,.06,0,.17-.09.19s-.12-.05-.19-.08Z"/><path class="cls-15" d="M30.57,42.7c.54-1,1.31-.1,2-.24l-.47,1.9-1-1.42Z"/><path class="cls-7" d="M25.12,37.42c-.67,0-1.35-.09-1.35-.9,0-.37.48-.74.81-1.21l.55,1.63Z"/><path class="cls-7" d="M26.31,36.21,25.81,35l1.44-.2C27.55,35.67,27.35,36.23,26.31,36.21Z"/><path class="cls-13" d="M30.57,42.7l.47.24-.24.48-.8.66-.14-1.37Z"/><path class="cls-7" d="M28,42.7c-.37-.23-.75-.47,0-.72Z"/><path class="cls-1" d="M75.54,59.29c.79,0,1.42.11,1.31,1.17a.81.81,0,0,0,.45.64c.22,0,.52-.18.75-.34s.67-.5,1-.75A2.48,2.48,0,0,1,79,63.07a2.69,2.69,0,0,1-1.82.91,1.31,1.31,0,0,1-1.45-1.37,11.06,11.06,0,0,0-.18-1.52Z"/><path class="cls-20" d="M80.21,59.48l1.67-1.19.48.75-.89,1.16C81.1,60.11,80.25,60.67,80.21,59.48Z"/><path class="cls-13" d="M75.9,54.27l-.75,0a3.25,3.25,0,0,1,0-.41c.24,0,.49,0,.74,0Z"/></g></svg>