<svg xmlns="http://www.w3.org/2000/svg" viewBox="0 0 100 100"><defs><style>.cls-1{fill:#936260;}.cls-2{fill:#c2a7a6;}.cls-3{fill:#a07674;}.cls-4{fill:#a7807f;}.cls-5{fill:#bea19f;}.cls-6{fill:#bc9d9c;}.cls-7{fill:#ab8584;}.cls-8{fill:#b89896;}.cls-9{fill:#a47a79;}.cls-10{fill:#ba9b9a;}.cls-11{fill:#b49290;}.cls-12{fill:#c9b1b0;}.cls-13{fill:#c6adab;}.cls-14{fill:#f3eded;}.cls-15{fill:#976867;}.cls-16{fill:#a98281;}.cls-17{fill:#ccb5b4;}.cls-18{fill:#b18e8c;}</style></defs><g id="Ebene_17" data-name="Ebene 17"><path class="cls-1" d="M25.69,96l-.13-.49-.79-1a15.7,15.7,0,0,1-1.47-2.27c-1-2.3-1.84-4.72-3-7-1-2-2-3.92-2.17-6.19,1,.1,1.43-.5,1-1.27-.77-1.4-.06-2.11,1.24-2.85-1.86-.87-1.29-2.24-1.09-3.55a4.53,4.53,0,0,0,0-1.6c-.25-1.07-.29-2,.84-2.61a1.73,1.73,0,0,0,.59-1.11c.21-1.29.35-2.6.51-3.9l.5,0A13.66,13.66,0,0,1,22,64c-.05,1.16.64,1.65,1.58,1.91,1.66.46,2.13-.58,2.2-2l1.11-.17c.5-.1,1-.22,1.49-.33L28.28,65a.57.57,0,0,0,.24.21c1.37.5,2.7.94,1.73,2.91-.26.5.05,1.54.82,1s2-.93,1.73-2.31a1.12,1.12,0,0,1,.35-.7c1.13-1.24,1.47.32,2.36.86.06-.67.11-1.14.15-1.61a2.29,2.29,0,0,1,1.84-2.25c.5-.09,1.13.63,1.71,1a5.41,5.41,0,0,0,.71.28c-.39-2.16,1.16-2.09,2.41-2.38l.3.3-.92,3.09c1.82-.42,3.43-1.17,4.43.81.1.2.52.23.79.34a10.88,10.88,0,0,1,1.91.71c2,1.23,2.9,1.23,4.77-.12.28-.2.58-.37.91-.58,1.08,1,2.1,2,3.19,3,.16.13.66-.15,1-.25l.32-.6.89-.91c1.31-.1,1.16.74.92,1.64,1.41.27,2.46.79,2.17,2.73l2.52-1.47a7.91,7.91,0,0,0,0,2.52c.25.64,1,1.09,1.77,1.9.13-1.15.2-1.73.27-2.33a7.2,7.2,0,0,0,1.63.41c1.39,0,1.56.27.95,1.72L69,73.83A10.2,10.2,0,0,0,68.3,75,6.84,6.84,0,0,0,68,76.21a5.14,5.14,0,0,0,1.4.08c1-.25,2.07-.63,3.19-1l-.1-1.52c2.87.94,2-2.19,3.35-3.05,1.13,1.14,2,2.76,3.88,1.36,0,0,.1,0,.15,0,2,0,3-1.24,2.45-3.13,0-.17.05-.34.08-.52l.55-.64c.36-.17.72-.48,1.07-.47a1.23,1.23,0,0,1,.93.58,6.15,6.15,0,0,1,.39,1.78c0,.45.16,1.12-.08,1.34a3.18,3.18,0,0,0-.79,3.45,9.28,9.28,0,0,0-.31,2.12c.19,2.39.48,4.77.74,7.15l-.45,1c-.1,0-.24,0-.28.09l-3.57,6.07a9.67,9.67,0,0,0-1.23,2.21c-.43,1.73-1,3.17-3.17,2.93a.6.6,0,0,0-.43.11c-2.13,1.68-4.65,0-6.93.81a19.27,19.27,0,0,1-4.4.49l-2.11.88H60.24a.24.24,0,0,0,0-.23l-.63-.26L59,98c-.52,0-1.15-1-1.54.17a.39.39,0,0,0,0,.26l-1.25.1c-.35-.31-.67-.77-1.07-.88a8.75,8.75,0,0,0-1.92-.08l-.6,0-1.21.1h-.92L46,97.8l-.6,0-.91.11c-.13-.08-.28-.24-.39-.22-2.48.57-5.22-.45-7.53,1.21a1.13,1.13,0,0,1-.72.16,27,27,0,0,1-3.72-.65c-1.63-.49-3.2-1.18-4.79-1.79ZM79.34,73.43c.72,1,1.31,1.95,2,2.78a1.05,1.05,0,0,0,1,.17,1.07,1.07,0,0,0,.44-.94A3.25,3.25,0,0,0,79.34,73.43Z"/><path class="cls-2" d="M18.7,64.79c.74-6.17-.83-12.24-.78-18.35,0-5.64-.47-11.4,1.65-16.88.63-1.65.81-3.47,1.35-5.15a7.27,7.27,0,0,1,1.33-1.81l4-.44c-.1-.86-.2-1.68-.29-2.51,1.48-.11,3-.25,4.44-.33,2-.11,4.12-.34,6.16-.25,5.62.26,11.24,1,16.87.17,1-.15,2-.48,3-.53,3.32-.17,6.64-.25,10-.36.52,1.16.52,1.16,1.36.76l-1.13-1.93-.23.6-4,0c-3.3,0-6.61-.07-9.92,0-5.25.11-10.5.43-15.75.4-1.78,0-3.87.61-5.38-1.17a15.45,15.45,0,0,1,1.27-1c.76-.5,1.54-1.29,2.36-1.36,3-.26,6-.28,9-.39,2.67-.1,5.34-.26,8-.27,3.53,0,7.05.11,10.58.15,3,0,5.9.12,8.84,0,2-.09,3.95-.55,5.93-.84.3,1.05.59,2.1.89,3.15-3,.38-6.09.45-9,1.45l0,.45h1.42a3.2,3.2,0,0,0,.46.88,5.68,5.68,0,0,0,1,.71c-.45.24-.91.69-1.36.67-.74,0-1.06.14-1,.89h0l-2.7.21.25,1.53a23,23,0,0,1-3.95.84c-5.41.2-10.83.36-16.24.36-3.4,0-6.8-.33-10.2-.46-4-.15-7.95-.24-11.93-.38-.87,0-1.07.33-1.09,1.18a24,24,0,0,1-.45,5.09c-1.11,4.51-2,9-1.43,13.7.4,3.33.52,6.69.77,10-.08.51-.13,1-.25,1.53a8.89,8.89,0,0,1-.75,2.72c-.69,1.12-2.09,1.92-1,3.55.14.2-.06.65-.15,1-.24.86-.51,1.71-.8,2.71ZM68.13,20.56l0-.43-1,.19.06.36c.32,0,.63-.08.77-.46.26-.06.4,0,.43-.1a1.8,1.8,0,0,0,.1-.4C68.34,19.85,68.2,20,68.13,20.56Z"/><path class="cls-3" d="M18.7,64.79l1,.19c.29-1,.56-1.85.8-2.71.09-.33.29-.78.15-1-1.09-1.63.31-2.43,1-3.55A8.89,8.89,0,0,0,22.42,55c.12-.5.17-1,.25-1.53.28-.59.89-1.28.76-1.77-.32-1.18.37-1.67,1.05-2.25.33-.29.68-.56,1-.84a11.55,11.55,0,0,1,6.77-2.44,54.25,54.25,0,0,1,6.72.36c1.25,2.31,2.24,2.4,3.94.36l.91.13,3.45,3.63,1.41-2.86.63.24.3.53.3-.39.6.2c-.13,1,.57.92,1.21.91l.69.85c1.69-.66,3.08.69,4.68.66l-.16.66-3.84-.41L52.65,53l-1.22-.32a7.09,7.09,0,0,1-1.49.68,19,19,0,0,1-2.26.2c-.1-2.1-2.8-1.47-3.09-3.62l-.82,3.75c1.27.46.63,1.45.17,2.22-.16.28-1,.17-1.48.23l-.07-.44.79-1.18-.28-.41-1.61,1,.06,0L40,55.72l1.42,1.47a1.89,1.89,0,0,0,.2,1,5.61,5.61,0,0,1,.75,3.89c-1.25.29-2.8.22-2.41,2.38a5.41,5.41,0,0,1-.71-.28c-.58-.34-1.21-1.06-1.71-1a2.29,2.29,0,0,0-1.84,2.25c0,.47-.09.94-.15,1.61-.89-.54-1.23-2.1-2.36-.86a1.12,1.12,0,0,0-.35.7c.22,1.38-1,1.82-1.73,2.31s-1.08-.53-.82-1c1-2-.36-2.41-1.73-2.91a.57.57,0,0,1-.24-.21l.1-1.57c-.5.11-1,.23-1.49.33L25.78,64c-.07,1.39-.54,2.43-2.2,2C22.64,65.68,22,65.19,22,64a13.66,13.66,0,0,0-.21-1.89l-.5,0c-.16,1.3-.3,2.61-.51,3.9a1.73,1.73,0,0,1-.59,1.11c-1.13.65-1.09,1.54-.84,2.61a4.53,4.53,0,0,1,0,1.6c-.2,1.31-.77,2.68,1.09,3.55-1.3.74-2,1.45-1.24,2.85.42.77,0,1.37-1,1.27a15.35,15.35,0,0,1-.55-3.5C17.87,72,18.32,68.37,18.7,64.79Zm19.62-2.74c.26-.1.46-.11.51-.21.55-1,1.12-2,1.57-3.06a1.11,1.11,0,0,0-.25-1.05,1.66,1.66,0,0,0-1.26-.09c-.21.08-.34.62-.35,1s.25.5.42.81l-1,.36Zm2.35-11.27c-.09.41-.2.61-.16.78.12.56.22,1.53.46,1.57a6.82,6.82,0,0,0,2.11-.28,18,18,0,0,0-1.21-1.41A6,6,0,0,0,40.67,50.78Z"/><path class="cls-4" d="M84.93,83.76c-.26-2.38-.55-4.76-.74-7.15a9.28,9.28,0,0,1,.31-2.12c.77-.92,2.35-2.15,2.14-2.69-.7-1.79-.29-2.94.83-3.69-.26-.86-.76-1.61-.59-2.11a4.58,4.58,0,0,0-1-5.22l.92-.53a9.44,9.44,0,0,0-1.4-1.42c-.31-.21-1.11-.26-1.19-.11a5.91,5.91,0,0,0-.8,2.15,30.93,30.93,0,0,0,0,3.52c.25.18,1.13.62-.31,1-1.59-1.46-1.74-3.64-2.22-5.47a19,19,0,0,0-1.94-5.43,4.85,4.85,0,0,1,.82.25c.68.37,1.41,1.19,2,1.09,1.42-.23,1.34.58,1.42,1.45a4,4,0,0,0,.26.81l.29-.1-.33-5c-.51-3.36-1.1-6.71-1.49-10.09-.61-5.23-1-10.49-1.64-15.72a35.16,35.16,0,0,0-1.13-4.55,1.1,1.1,0,0,0-.06-.26,24.26,24.26,0,0,1,.43-3c.07-.26,1-.57,1-.51.78,1.12,1.93.58,2.92.72A11.82,11.82,0,0,1,85.84,25c-.23.29-.71.66-.65.86.78,2.56-.59,5.39,1,7.84.08.12,0,.38-.07.57-.28,1.25-.2,2.39,1.19,3.11L86.2,39.14l1.57,1.92c-.67.77-1.56,1.47-.13,2.39.34.22.37,1,.45,1.54.13.94.2,1.89.3,2.84a8.19,8.19,0,0,0-.14,1.9c0,1.43-.36,3,.12,4.27a16.86,16.86,0,0,1,.71,7.21,11,11,0,0,0,.23,2c0,.29-.07.58-.11.87s-.13.63-.19.95c-.71,3.89-1.35,7.8-2.16,11.66C86.35,79.11,85.58,81.42,84.93,83.76Z"/><path class="cls-5" d="M38.09,1.09l.9.07.61.52.91.3.72.17-.11-1.07c2.56-1.29,5.11,0,7.66,0L57.7,1a5.71,5.71,0,0,1,.71.08c.49.35,1.09,1.09,1.46,1,1.44-.39,1.68.27,1.6,1.43l-.33.59-.4.15.39.16-.22,1.34,2.35-.13-1.1,1L64.1,7.79c.15-.44.42-.81.33-1C63.78,5.08,64.74,4.93,66,5c.31,1.71,1.29.43,1.7.41l1.64,1.11.6,3.69c-.44,0-.89.07-1.32.14L64.52,11,65.69,10,63.54,8.52,56.3,10.14l-.06-.4-1.16,1.51L53.23,8.39l-.64,3c1.33-.49,1.33-.49,1.58.27l-4,.06c-.44-1.09-.94-1-1.49-.08l-.89-.07c-.32-.87-.62-1.75-1-2.61a2.57,2.57,0,0,0-.55-.65L45.36,8a3.89,3.89,0,0,0-.53-.88,16.72,16.72,0,0,0-1.31-1l1.82.06c.42,1.11,1.24.19,1.85.36l-.56,1.31.34.4c.79-1.41,1.65-2.65,3.59-1.55l-.12-.5-3.78-2-.08,1.16L43,5.36,41,6a3.71,3.71,0,0,0,.17-1.36,10.87,10.87,0,0,0-1-2.15c-.07-.14-.62-.19-.65-.14-.22.46-.37.95-.54,1.42l-.91-.07ZM55.16,6.15c.44,1.31,1.22,1.72,2.38,1.07a7.38,7.38,0,0,0,2.37-2c.29-.4,0-1.32-.24-1.94,0-.12-.9,0-1.37.07A12,12,0,0,0,57,3.71c-.16,1.87,1.35.67,2,1.26C58.12,6.71,56.38,5.45,55.16,6.15Z"/><path class="cls-6" d="M45.36,8l.92.31c-.56.62-2.41.21-1.55,2l-1.88.18.4.57-7.89.56L34.77,10,32.29,11.3l1.27.71-2.11.16c.16-.31.48-.65.42-.9a8.61,8.61,0,0,0-.7-1.63,6.39,6.39,0,0,0-1,1.14,5.91,5.91,0,0,0-.35,1.42l-3.59.31L25,9.88l-.6,3-.93,3a3,3,0,0,0-3.68.26L20,11.37A11.92,11.92,0,0,0,22,12.49c.32.12,1.06-.08,1.16-.32a15.54,15.54,0,0,0,.64-2.55c.73.05,1.51-.24,1.28-1.52L26.26,8c.17.49.23,1.27.54,1.39s1-.22,1.51-.4,1.09-.67,1.37-.52c1.64.9,1.66-.21,1.75-1.29l5.67-.42c-.17-.52-.36-.75-.55-.75-2.44,0-4.88,0-7.32,0H26c0-.78.53-1.71-.65-2.2a2,2,0,0,0-2.68.52c-.05.06-.27,0-.21,0l-.82-1.79C24,.12,27.17,0,30.15,0c2.65,0,5.3.7,7.94,1.09V3.72L39,3.8a5.17,5.17,0,0,1,1.07.28c-.08,1-.25,2-.42,3.05l3-.39C43.46,7.29,44,8.56,45.36,8Z"/><path class="cls-6" d="M19.88,21.4a12.45,12.45,0,0,1-7.74-2.14,3.89,3.89,0,0,1-1.28-2.16,23.62,23.62,0,0,1-.61-3.67,2.37,2.37,0,0,1,.14-1.33c1.91-3.53,3.85-7.07,8-8.39a9.91,9.91,0,0,1,2.39-.17c-.48.55-1.44,1.23-1.34,1.64.46,1.81-.89,1.59-1.67,1.75.51,1.21,1,2.36,1.48,3.5l-5.89,5.26c1,.53,1.57,1.08,2.18,1.11a29.16,29.16,0,0,0,3.72-.24c.06,1,.09,2,.2,3C19.56,20.19,19.75,20.79,19.88,21.4Z"/><path class="cls-5" d="M83.39,19.58c-1-.14-2.14.4-2.92-.72,0-.06-1,.25-1,.51a24.26,24.26,0,0,0-.43,3c-1.85-.84-1.53-2.48-1.47-4l1.79-.11.26-.5-1.46-1.34c-.3-1.06-.59-2.11-.89-3.16,1.57-.86,1.9-1.81,1.25-3.55-.15-.42-.25-.85-.37-1.28.31-.33.83-.62.9-1A13.37,13.37,0,0,0,79,5h0l1.27.27c2.48,2,3.09,4.66,1.62,7.44-.45.85-.48,1.37.32,2a7.77,7.77,0,0,1,1.49,1.86A2.24,2.24,0,0,1,83.39,19.58Zm-3.73-13L79.2,7l.58.48.43-.43Z"/><path class="cls-5" d="M89.31,63.25a11,11,0,0,1-.23-2A16.86,16.86,0,0,0,88.37,54c-.48-1.26-.11-2.84-.12-4.27a8.19,8.19,0,0,1,.14-1.9c-.1-.95-.17-1.9-.3-2.84-.08-.54-.11-1.32-.45-1.54-1.43-.92-.54-1.62.13-2.39L86.2,39.14l1.11-1.74c-1.39-.72-1.47-1.86-1.19-3.11,0-.19.15-.45.07-.57-1.59-2.45-.22-5.28-1-7.84-.06-.2.42-.57.65-.86A102.47,102.47,0,0,1,88.62,35.5a105.22,105.22,0,0,1,.71,11c.17,2.85.45,5.71.45,8.56S89.48,60.51,89.31,63.25Z"/><path class="cls-7" d="M19.28,10.43c-.49-1.14-1-2.29-1.48-3.5.78-.16,2.13.06,1.67-1.75-.1-.41.86-1.09,1.34-1.64l.82-1c.26.56.52,1.12.82,1.79-.06,0,.16.05.21,0a2,2,0,0,1,2.68-.52C26.52,4.27,26,5.2,26,6L25,8.1c.23,1.28-.55,1.57-1.28,1.52a15.54,15.54,0,0,1-.64,2.55c-.1.24-.84.44-1.16.32A11.92,11.92,0,0,1,20,11.37Z"/><path class="cls-8" d="M64.47,97.49a19.27,19.27,0,0,0,4.4-.49c2.28-.79,4.8.87,6.93-.81a.6.6,0,0,1,.43-.11c2.2.24,2.74-1.2,3.17-2.93a9.67,9.67,0,0,1,1.23-2.21l3.57-6.07c0-.06.18-.06.28-.09L82.1,90.87c-.62,1.11-1.24,2.22-1.85,3.33a4.54,4.54,0,0,0-.93,1.11c-.95,2.62-3,3.44-5.53,3.43-.59,0-1.18.14-1.78.13-1.17,0-2.35-.05-3.52-.12-1.34-.08-2.68-.21-4-.32Z"/><path class="cls-9" d="M19.88,21.4c-.13-.61-.32-1.21-.39-1.83-.11-1-.14-2-.2-3l.54-.36a3,3,0,0,1,3.68-.26l2.41,3.71.29,2.51-4,.44C22.06,21,20.84,21.47,19.88,21.4Z"/><path class="cls-10" d="M45.37,97.82l.6,0c.1.42.2.83.31,1.25-1.89.26-3.76.68-5.65.76a42.64,42.64,0,0,1-9-.1c-2.26-.4-4.68-1.36-6-3.72l1.62.65c1.59.61,3.16,1.3,4.79,1.79a27,27,0,0,0,3.72.65,1.13,1.13,0,0,0,.72-.16c2.31-1.66,5.05-.64,7.53-1.21.11,0,.26.14.39.22l.56.71Z"/><path class="cls-11" d="M69.23,6.35a9.63,9.63,0,0,1-1.54-.93c-.41,0-1.39,1.3-1.7-.41l.62-.6,1.81-.61,2.83,1L72.11,3l-1.55-.11.59-.56,1.8,0c-.18.58-.36,1.17-.62,2,1.35-.65,1.29.19,1.28,1a8.75,8.75,0,0,1-.74,4.07c0,.08-.1.16-.23.36l-2.71.43c-.2-1.23-.4-2.46-.7-3.87a1.53,1.53,0,0,1,.24.33L70.22,6l-.37-.36A1.65,1.65,0,0,0,69.23,6.35Z"/><path class="cls-12" d="M73.61,5.36c0-.78.07-1.62-1.28-1,.26-.87.44-1.46.62-2,2.71.34,5.39.74,7.36,2.93L79,5l-.13-.07L79,5a13.37,13.37,0,0,1,0,2.37c-.07.37-.59.66-.9,1h0l-.51-.91A4.36,4.36,0,0,0,73.61,5.36Z"/><path class="cls-13" d="M66.61,4.41,66,5c-1.25-.08-2.21.07-1.56,1.74.09.23-.18.6-.33,1L62.16,6.67l1.1-1,.23-.13c-.48-.68-.87-1.28-1.32-1.82-.13-.15-.46-.11-.7-.16.08-1.16-.16-1.82-1.6-1.43-.37.1-1-.64-1.46-1,2.12-.82,4.06.19,6.07.58l-.5,1,1.09.26.15,1.2C65.8,4,66.65,2.92,66.61,4.41Z"/><path class="cls-8" d="M46.28,99.05c-.11-.42-.21-.83-.31-1.25l4.56-.19c.32.73.62.71.92,0l1.21-.1v1.19L51,98.8a15.16,15.16,0,0,1-2.64-.45c-.85-.31-1.2,0-1.47.71Z"/><path class="cls-6" d="M66.61,4.41c0-1.49-.81-.45-1.39-.32-.06-.48-.11-.84-.15-1.2s0-.71,0-1.06l.6.12.65.84L66.9,2l.59.06c.07.34.15.68.22,1l.34,0,.38-1,2.72.14-.59.56-2.14.93Z"/><path class="cls-14" d="M80.25,94.2c.61-1.11,1.23-2.22,1.85-3.33l1.11,1.36c-1.57,1.7.72,1.9,1,3.18A10.15,10.15,0,0,1,83,94.65C82.12,94,81.31,93.45,80.25,94.2Z"/><path class="cls-10" d="M46.88,99.06c.27-.71.62-1,1.47-.71A15.16,15.16,0,0,0,51,98.8Z"/><path class="cls-8" d="M53.26,97.54a8.75,8.75,0,0,1,1.92.08c.4.11.72.57,1.07.88l-2.69.09Z"/><path class="cls-10" d="M64.47,97.49v.94l-2.12-.06Z"/><path class="cls-12" d="M66.9,2l-.56.77L65.69,2Z"/><path class="cls-12" d="M65.09,1.83c0,.35,0,.7,0,1.06L64,2.63l.5-1Z"/><path class="cls-10" d="M53.26,97.54l.3,1-.9.1V97.5Z"/><path class="cls-12" d="M68.43,2.17l-.38,1-.34,0c-.07-.34-.15-.68-.22-1Z"/><path class="cls-8" d="M57.48,98.14C57.87,97,58.5,98,59,98v.49h-.91Z"/><path class="cls-10" d="M59,98.46V98l.62-.09.63.26a.24.24,0,0,1,0,.23Z"/><path class="cls-13" d="M41.12,1.08l.11,1.07L40.51,2V1.14Z"/><path class="cls-6" d="M40.5,1.14V2l-.91-.3,0-.55Z"/><path class="cls-10" d="M24.77,94.48l.79,1Z"/><path class="cls-5" d="M89,65.07c.06-.32.13-.63.19-.95C89.14,64.44,89.07,64.75,89,65.07Z"/><path class="cls-13" d="M39.62,1.13l0,.55L39,1.16Z"/><path class="cls-10" d="M57.48,98.14l.63.31-.61,0A.39.39,0,0,1,57.48,98.14Z"/><path class="cls-10" d="M83.31,53l.33,5-.29.1a4,4,0,0,1-.26-.81c-.08-.87,0-1.68-1.42-1.45-.58.1-1.31-.72-2-1.09a4.85,4.85,0,0,0-.82-.25,19,19,0,0,1,1.94,5.43c.48,1.83.63,4,2.22,5.47l0,.29c-1,.76-.84,1.74-.56,2.76,0,.18-.05.35-.08.53-1-.54-2.52-.89-2.76-1.65-.46-1.47-1.37-1.32-2.37-1.41L74.81,65c-.2-.18-.37-.49-.6-.53-.8-.17-1.62-.24-2.44-.35h0c.4-1.89-.09-4,1.47-5.51L75,60.85l.39-.14V57.15l-2.69.17c-.06-.35-.18-1.1-.31-1.93l-1,.41-2.13-5.19c-2-.35-2-.35-2.18.58,3,.17,1.79,2.73,2.66,4.47-.67,0-1.38.28-1.6.06a5.28,5.28,0,0,1-.65-1.8l-1.6-.3-.09.25,1.36.88,0,.46L63.3,56l-.4,1.81,1.81-.7v3.64l-.44.14L63.48,60l-3.25,2-1.51,0c0-.29,0-.58,0-.88.36-.17,1-.37,1-.5-.18-1.72,1.33-1.41,2-1.75l1.31-4.55-.2-.32-2.1,1.57c-1.14-1.46,1-2.86.2-4.2,1.6,0,3.06,0,4.52,0,.17,0,.47-.52.45-.77s-.4-.64-.61-.63a5.7,5.7,0,0,0-1.31.31l-2.59-.65-.9,0a6.22,6.22,0,0,0-1.09-.78,3.42,3.42,0,0,0-1-.13c2.35-1.37,5-1.38,7.57-1.46l.08,1.06,2,.33c2,.33,4.06,1.05,6.12.1l1,.87c-1.77,0-2,1.4-2.46,2.8l2.5.83L76,51.68l2.41,1.63.34-.32-.62-1.86,1.49-.24-.47,1.28c.66-.46,2,.84,2-.85Z"/><path class="cls-15" d="M77.22,65.92c1,.09,1.91-.06,2.37,1.41.24.76,1.8,1.11,2.76,1.65.52,1.88-.42,3.09-2.45,3.12-.05,0-.12,0-.15,0-1.85,1.4-2.75-.22-3.88-1.36-1.37.86-.48,4-3.35,3.05l.1,1.52c-1.12.35-2.14.73-3.19,1a5.14,5.14,0,0,1-1.4-.08A6.84,6.84,0,0,1,68.3,75,10.2,10.2,0,0,1,69,73.83l1.23,1.1c.61-1.45.44-1.71-.95-1.72a7.2,7.2,0,0,1-1.63-.41c-.07.6-.14,1.18-.27,2.33-.79-.81-1.52-1.26-1.77-1.9a7.91,7.91,0,0,1,0-2.52L63,72.18c.29-1.94-.76-2.46-2.17-2.73.24-.9.39-1.74-.92-1.64L63,66.9c-.09-.32-.22-.76-.34-1.21.79-.06,1.3-1.61,2.3-.48.56.63,1,1.35,1.56,2.08a1.42,1.42,0,0,1,.29-.53c.68-.55,1.4-1.06,2.11-1.59.26.41.69.8.77,1.25A18,18,0,0,1,69.81,69c0,.83-.09,1.71,1,1.8.51-1,.88-2,1.42-2.91.82-1.32,1.13-1.28,2,0,.57.82,1.91,1,2.25.3A17.72,17.72,0,0,0,77.22,65.92Z"/><path class="cls-16" d="M42.33,62.05a5.61,5.61,0,0,0-.75-3.89,1.89,1.89,0,0,1-.2-1L40,55.72l1.39-.65-.06,0,1.61-1,.28.41-.79,1.18.07.44c.52-.06,1.32,0,1.48-.23.46-.77,1.1-1.76-.17-2.22l.82-3.75c.29,2.15,3,1.52,3.09,3.62a19,19,0,0,0,2.26-.2,7.09,7.09,0,0,0,1.49-.68c.52.94,1,1.87,1.58,2.81l.24-.51,1.52-.47v.61c0,.29-.17.81-.08.86,1.14.56,2.34,1,3.49,1.59.29.14.48.5.72.75-.33.21-.65.56-1,.6a8.84,8.84,0,0,1-1.74-.17l.13,2.42-.09,1.8c-1.55-1.42-2.87-1.79-4.21-.32-.21.23-.72.18-1.17.28C50.36,61,49,62,48,62l-.12-1a10,10,0,0,1-2.85.51,2.76,2.76,0,0,0-2.4.81Z"/><path class="cls-3" d="M42.63,62.35a2.76,2.76,0,0,1,2.4-.81A10,10,0,0,0,47.88,61L48,62c1,0,2.36-1,2.82.89.45-.1,1-.05,1.17-.28,1.34-1.47,2.66-1.1,4.21.32l.09-1.8,1.5-.28a3.18,3.18,0,0,0-.15,1,4.34,4.34,0,0,0,.44,1.05l.64-.86,1.51,0c-.09,1.15.66,1.25,1.52,1.21-.2.85-.41,1.71-.65,2.75l1.57-.32L63,66.9l-3.08.91-.89.91c-.11.2-.22.4-.32.6-.35.1-.85.38-1,.25-1.09-.93-2.11-1.94-3.19-3-.33.21-.63.38-.91.58-1.87,1.35-2.74,1.35-4.77.12a10.88,10.88,0,0,0-1.91-.71c-.27-.11-.69-.14-.79-.34-1-2-2.61-1.23-4.43-.81Z"/><path class="cls-15" d="M83,65.69l0-.29c1.44-.39.56-.83.31-1a30.93,30.93,0,0,1,0-3.52,5.91,5.91,0,0,1,.8-2.15c.08-.15.88-.1,1.19.11a9.44,9.44,0,0,1,1.4,1.42l-.92.53a4.58,4.58,0,0,1,1,5.22c-.17.5.33,1.25.59,2.11-1.12.75-1.53,1.9-.83,3.69.21.54-1.37,1.77-2.14,2.69A3.18,3.18,0,0,1,85.29,71c.24-.22.13-.89.08-1.34A6.15,6.15,0,0,0,85,67.92a1.23,1.23,0,0,0-.93-.58c-.35,0-.71.3-1.07.47C83,67.1,83,66.39,83,65.69Z"/><path class="cls-15" d="M79.34,73.43a3.25,3.25,0,0,1,3.44,2,1.07,1.07,0,0,1-.44.94,1.05,1.05,0,0,1-1-.17C80.65,75.38,80.06,74.46,79.34,73.43Z"/><path class="cls-4" d="M83,65.69v2.12l-.55.64C82.15,67.43,82,66.45,83,65.69Z"/><path class="cls-8" d="M45.37,97.82l-.35.82-.56-.71Z"/><path class="cls-10" d="M51.45,97.6c-.3.72-.6.74-.92,0Z"/><path class="cls-15" d="M58.72,69.32c.1-.2.21-.4.32-.6C58.93,68.92,58.82,69.12,58.72,69.32Z"/><path class="cls-8" d="M60.27,98.14l-.63-.26Z"/><path class="cls-17" d="M79.05,22.59l-11.86.54c-.08-.47-.16-.95-.25-1.53l2.7-.21.11,1,.45-.24-.57-.75c0-.75.28-.91,1-.89.45,0,.91-.43,1.36-.67a5.68,5.68,0,0,1-1-.71,3.63,3.63,0,0,1-.47-.87,37,37,0,0,1,4-.44,16.39,16.39,0,0,1,2.91.49c-.06,1.54-.38,3.18,1.47,4A1.1,1.1,0,0,1,79.05,22.59Z"/><path class="cls-14" d="M77.52,18.31a16.39,16.39,0,0,0-2.91-.49,37,37,0,0,0-4,.44H69.17l0-.45c2.9-1,6-1.07,9-1.45l1.46,1.35-.26.5Z"/><path class="cls-17" d="M66.29,18.35v-.57l.23-.6,1.13,1.93C66.81,19.51,66.81,19.51,66.29,18.35Z"/><path class="cls-17" d="M68.13,20.56l-.95.12-.06-.36,1-.19Z"/><path class="cls-17" d="M68,20.22l.53-.5a1.8,1.8,0,0,1-.1.4C68.35,20.17,68.21,20.16,68,20.22Z"/><path class="cls-16" d="M60.53,49.6l.9,0c-.27.41-.45,1-.83,1.18A2.29,2.29,0,0,0,59,52.94l-3.93.93L52.65,53l.46-1.89,3.84.4c0,.26.1.51.13.7Z"/><path class="cls-12" d="M60.53,49.6l-3.45,2.56c0-.19-.08-.44-.13-.7s.11-.43.16-.65c-1.6,0-3-1.32-4.68-.65l-.69-.86c-.64,0-1.34.09-1.21-.91,2.61.61,5.21,1.25,7.88.3a3.42,3.42,0,0,1,1,.13A6.22,6.22,0,0,1,60.53,49.6Z"/><path class="cls-7" d="M43.84,47l4.86.77-1.41,2.86Z"/><path class="cls-16" d="M38.32,62.05,38,59.77l1-.36c-.17-.31-.42-.56-.42-.81s.14-.88.35-1a1.66,1.66,0,0,1,1.26.09,1.11,1.11,0,0,1,.25,1.05c-.45,1-1,2-1.57,3.06C38.78,61.94,38.58,62,38.32,62.05Z"/><path class="cls-7" d="M39,46.55l3.94.36C41.23,49,40.24,48.86,39,46.55Z"/><path class="cls-16" d="M40.67,50.78a6,6,0,0,1,1.2.66,18,18,0,0,1,1.21,1.41,6.82,6.82,0,0,1-2.11.28c-.24,0-.34-1-.46-1.57C40.47,51.39,40.58,51.19,40.67,50.78Z"/><path class="cls-18" d="M52.65,53l2.43.92-.31.59-1.52.47-.24.51c-.53-.94-1.06-1.87-1.58-2.81Z"/><path class="cls-16" d="M51.74,49.3l.69.86Z"/><path class="cls-7" d="M49.33,48.05l.6.14-.3.39Z"/><path class="cls-12" d="M64.52,11l-10.35.75c-.25-.76-.25-.76-1.58-.27l.64-3,1.85,2.86,1.16-1.51.06.4,7.24-1.62L65.69,10Z"/><path class="cls-13" d="M45.36,8c-1.38.52-1.9-.75-2.7-1.3l-3,.39c.17-1.09.34-2.07.42-3A5.17,5.17,0,0,0,39,3.8a14.48,14.48,0,0,1,.54-1.43c0-.05.58,0,.65.14a10.87,10.87,0,0,1,1,2.15A3.71,3.71,0,0,1,41,6l2-.67c.17.26.34.51.52.76a16.72,16.72,0,0,1,1.31,1A3.89,3.89,0,0,1,45.36,8Z"/><path class="cls-13" d="M55.16,6.15c1.22-.7,3,.56,3.8-1.18-.63-.59-2.14.61-2-1.26a12,12,0,0,1,1.32-.39c.47-.08,1.33-.19,1.37-.07.22.62.53,1.54.24,1.94a7.38,7.38,0,0,1-2.37,2C56.38,7.87,55.6,7.46,55.16,6.15Z"/><path class="cls-13" d="M47.81,11.61l-4.56-.49-.4-.57,1.88-.18c-.86-1.81,1-1.4,1.55-2a2.57,2.57,0,0,1,.55.65C47.19,9.86,47.49,10.74,47.81,11.61Z"/><path class="cls-13" d="M46.58,5.32l.08-1.16,3.78,2,.12.5c-1.94-1.1-2.8.14-3.59,1.55l-.34-.4.56-1.31,0-.42.8-.27-.36-.43Z"/><path class="cls-14" d="M46.58,5.32l1,.09.36.43-.8.27-1.82.06-1.82-.06c-.18-.25-.35-.5-.52-.76Z"/><path class="cls-17" d="M61.47,3.51c.24.05.57,0,.7.16.45.54.84,1.14,1.32,1.82l-.23.13-2.35.13c.08-.44.15-.89.22-1.34V4.1Z"/><path class="cls-13" d="M50.19,11.76l-1.49-.08C49.25,10.75,49.75,10.67,50.19,11.76Z"/><path class="cls-6" d="M45.34,6.17l1.82-.06,0,.42C46.58,6.36,45.76,7.28,45.34,6.17Z"/><path class="cls-13" d="M61.14,4.1v.31l-.39-.16Z"/><path class="cls-14" d="M25,8.1,26,6h3.24c2.44,0,4.88,0,7.32,0,.19,0,.38.23.55.75l-5.67.42L26.26,8Z"/><path class="cls-13" d="M26.26,8l5.17-.82c-.09,1.08-.11,2.19-1.75,1.29-.28-.15-.9.35-1.37.52s-1.11.55-1.51.4S26.43,8.51,26.26,8Z"/><path class="cls-12" d="M31.45,12.17l-1.58,0a5.91,5.91,0,0,1,.35-1.42,6.39,6.39,0,0,1,1-1.14,8.61,8.61,0,0,1,.7,1.63C31.93,11.52,31.61,11.86,31.45,12.17Z"/><path class="cls-12" d="M35.36,11.68l-1.8.33-1.27-.71L34.77,10Z"/><path class="cls-13" d="M26.28,12.51l-1.84.4.6-3Z"/><path class="cls-12" d="M79.66,6.56l.55.51-.43.43L79.2,7Z"/><path class="cls-2" d="M68.42,3.8l2.14-.93L72.11,3l-.86,1.81Z"/><path class="cls-5" d="M69.13,6.16l.72-.57.37.36-.75.73Z"/><path class="cls-5" d="M78.12,8.37l-.51-.91Z"/><path class="cls-5" d="M79,5l-.13-.07L79,5Z"/><path class="cls-18" d="M61.75,63.26c-.86,0-1.61-.06-1.52-1.21l3.25-2,.79.87.44-.14V57.11l-1.81.7L63.3,56l3.85-.79,0-.46-1.36-.88.09-.25,1.6.3a5.28,5.28,0,0,0,.65,1.8c.22.22.93,0,1.6-.06-.87-1.74.29-4.3-2.66-4.47.16-.93.16-.93,2.18-.58L71.4,55.8l1-.41c.13.83.25,1.58.31,1.93l2.69-.17v3.56l-.39.14-1.8-2.21c-1.56,1.48-1.07,3.62-1.47,5.51l-2.66-.74c-1.15.25-1.14.23-2.89-.31a3.7,3.7,0,0,0-1.15,0c-.44,0-1,.23-1.29,0C63,62.5,62.4,62.92,61.75,63.26Z"/><path class="cls-9" d="M61.75,63.26c.65-.34,1.25-.76,2-.13.26.21.85,0,1.29,0a3.7,3.7,0,0,1,1.15,0c1.75.54,1.74.56,2.89.31l2.66.74h0c.64,1.58,1.69,1.74,3,.88l2.41.88a17.72,17.72,0,0,1-.71,2.28c-.34.73-1.68.52-2.25-.3-.9-1.32-1.21-1.36-2,0-.54.88-.91,1.86-1.42,2.91-1.09-.09-1-1-1-1.8a18,18,0,0,0-.11-2.55c-.08-.45-.51-.84-.77-1.25-.71.53-1.43,1-2.11,1.59a1.42,1.42,0,0,0-.29.53c-.54-.73-1-1.45-1.56-2.08-1-1.13-1.51.42-2.3.48L61.1,66C61.34,65,61.55,64.11,61.75,63.26Z"/><path class="cls-18" d="M59,52.94A2.29,2.29,0,0,1,60.6,50.8c.38-.17.56-.77.83-1.18l2.59.65A5.7,5.7,0,0,1,65.33,50c.21,0,.59.39.61.63s-.28.76-.45.77c-1.46.06-2.92,0-4.52,0,.81,1.34-1.34,2.74-.2,4.2L62.87,54l.2.32-1.31,4.55c-.68.34-2.19,0-2,1.75,0,.13-.66.33-1,.5l-.94-.3-1.5.28-.13-2.42a8.84,8.84,0,0,0,1.74.17c.35,0,.67-.39,1-.6-.24-.25-.43-.61-.72-.75-1.15-.55-2.35-1-3.49-1.59-.09,0,.05-.57.08-.86h4.11a3.13,3.13,0,0,0,.5-1C59.42,53.7,59.15,53.31,59,52.94Z"/><path class="cls-12" d="M66,47.23c1.28-.12,2.56-.26,3.85-.37a5.17,5.17,0,0,1,4.35,1.86c-2.06,1-4.09.23-6.12-.1l-2-.33Z"/><path class="cls-13" d="M75.18,49.59l2.95,1.54L78.75,53l-.34.32L76,51.68l-.78,1.54-2.5-.83C73.16,51,73.41,49.63,75.18,49.59Z"/><path class="cls-18" d="M74.81,65c-1.35.86-2.4.7-3-.88.82.11,1.64.18,2.44.35C74.44,64.55,74.61,64.86,74.81,65Z"/><path class="cls-12" d="M79.62,50.89l1.55.43c0,1.69-1.36.39-2,.85Z"/><path class="cls-16" d="M57.79,60.84l.94.3c0,.3,0,.59,0,.88l-.64.86a4.34,4.34,0,0,1-.44-1.05A3.18,3.18,0,0,1,57.79,60.84Z"/><path class="cls-8" d="M59,52.94c.14.37.41.76.37,1.11a3.13,3.13,0,0,1-.5,1H54.77v-.61l.31-.59Z"/><path class="cls-2" d="M69.63,21.4l.57.75-.45.24-.11-1Z"/></g></svg>