<svg xmlns="http://www.w3.org/2000/svg" viewBox="0 0 100 100"><defs><style>.cls-1{fill:#66abad;}.cls-2{fill:#a4cdcf;}.cls-3{fill:#72b2b3;}.cls-4{fill:#6fb0b2;}.cls-5{fill:#80b9ba;}.cls-6{fill:#99c7c8;}.cls-7{fill:#a6ced0;}.cls-8{fill:#93c4c5;}.cls-9{fill:#aad0d2;}.cls-10{fill:#88bebf;}.cls-11{fill:#8fc2c3;}.cls-12{fill:#a1cbcd;}.cls-13{fill:#82babc;}.cls-14{fill:#75b3b5;}.cls-15{fill:#78b5b6;}.cls-16{fill:#8cc0c1;}.cls-17{fill:#b0d3d5;}.cls-18{fill:#9dc9cb;}.cls-19{fill:#86bcbe;}.cls-20{fill:#5ea7a9;}</style></defs><g id="Ebene_2" data-name="Ebene 2"><path class="cls-1" d="M65.11,17.33l-.43-.3-.57-.36c-.69-.17-1.38-.37-2.08-.52-.4-.08-.81,0-1.2-.11s-1-.31-1.58-.48a2.63,2.63,0,0,0-2.83-.64,5.78,5.78,0,0,1-1.34.27,11.94,11.94,0,0,0-7.23,5.91Q45.44,24.24,43,27.38c-1,1.28-2,2.58-2.92,3.87A4.74,4.74,0,0,1,39,31.12c-1-.35-1.58.15-2.18.86L38.27,33l-.76.84-1.95.25-2.47-1.66c-.16,1.41-.28,2.53-.41,3.65l.41-.2,1.83,1.35h0a5.46,5.46,0,0,0-.87-.27,3.16,3.16,0,0,0-.68,0,1.76,1.76,0,0,0,.19.6,2,2,0,0,0,.58.36c-.12.15-.25.3-.38.44a5.36,5.36,0,0,0-1.3-1.1,3.23,3.23,0,0,0-1.61,0,.83.83,0,0,0-.35.72c.23.81.57,1.59.87,2.38l-.19.22-.86-.2-.13,1.41-.28.43c-.18-.07-.41-.09-.53-.22-.57-.63-1.11-1.29-1.65-1.95a.4.4,0,0,1,.39-.61,4.8,4.8,0,0,1,.79.37,6.42,6.42,0,0,1,1.62-4.31,2.93,2.93,0,0,0,.37-.94,15.19,15.19,0,0,1,1.47-2.24,53.51,53.51,0,0,0,6.25-7.81,20,20,0,0,1,1.85-2.17c1.61-1.88,3.21-3.77,4.84-5.64.83-.95,1.7-1.86,2.56-2.8l.25-.2,1.8-1.05a4.06,4.06,0,0,0,1,.57c.35.07,1,0,1.07-.16.24-.82.81-.85,1.46-.86.45,0,1.09.13,1.32-.12,1-1.11,1.4-.09,1.92.73.41-.39.87-.64,1-1,.28-.67.73-.63,1.1-.32a2.15,2.15,0,0,0,2.07.27.76.76,0,0,1,.19.12l1,.57,3.65,1.87c.23.45.77,1,.65,1.32A7.19,7.19,0,0,1,65.11,17.33Z"/><path class="cls-2" d="M65.11,17.33a7.19,7.19,0,0,0,1.33-1.67c.12-.29-.42-.87-.65-1.32,2.41-.15,4.48.94,6.43,2.12A47.67,47.67,0,0,1,76.77,20c1.12.87,2.2,1.8,3.38,2.55a20.18,20.18,0,0,0,2.12.68c1.71.86,3.37,1.82,5,2.71s3.09,1.61,4.64,2.42l2.45,1.33.48.37.46.32a3.42,3.42,0,0,0,1.05,2.91,4.88,4.88,0,0,1,.62.85v2l-1.2,1.43c-1.75-1.22-3.46-2.5-5.26-3.65C89,32.84,87.25,32,85.62,31c-2.19-1.31-4.39-2.6-6.51-4-2.6-1.74-5.12-3.61-7.67-5.43a3.55,3.55,0,0,1-.76-.74,7.9,7.9,0,0,0-5.19-3.12C65.35,17.7,65.24,17.46,65.11,17.33Z"/><path class="cls-3" d="M30.9,34.61a2.93,2.93,0,0,1-.37.94,6.42,6.42,0,0,0-1.62,4.31,4.8,4.8,0,0,0-.79-.37.4.4,0,0,0-.39.61c.54.66,1.08,1.32,1.65,1.95.12.13.35.15.53.22-.82,1.18-1.61,2.37-2.46,3.52s-1.55,2-2.33,2.94c-1.14,1.08-2.6,2-3.36,3.28a9.72,9.72,0,0,1-3.12,3.43c-.89,1.64-1.28,3.08-2.2,3.92C14.4,61.23,13.8,64,12.11,66c-.48.59-1,1.16-1.44,1.78-.77,1.11-1.43,2.29-2.23,3.37a56.55,56.55,0,0,1-3.58,4.56,40.41,40.41,0,0,1-3.28,3L.89,77.08l.21-.73.21-.3a.37.37,0,0,1,.1-.17l1.27-3L3.19,72c.57-.35,1.49-.6,1.63-1.07.38-1.34,1.55-1.8,2.32-2.68.18-.2.47-.35.54-.58a7.55,7.55,0,0,1,2.33-4,7.85,7.85,0,0,0,1.69-2.05c1.28-2,2.44-4.13,3.76-6.13a39.13,39.13,0,0,1,2.85-3.7c.49-.59,1.23-1,1.67-1.59.3-.42.12-1.21.43-1.6a1.57,1.57,0,0,0,.31-1.72c1.54-1.75,3.13-3.45,4.6-5.25S28,38,29.38,36.25C29.84,35.67,30.39,35.15,30.9,34.61Z"/><path class="cls-4" d="M24,80.1c.55-.62,1.1-1.25,1.66-1.87l1.19.28c-.26-1,0-1.42.88-1.76a2.65,2.65,0,0,0,1.79-2l.68-.54c.52,0,1,0,.94-.73.69-.64,1.38-1.28,2-1.93s1.3-1.27,2-1.91a3.87,3.87,0,0,0,1.09-.27c.79-.44,1.52-1,2.32-1.42s1.29-.75.83-1.69h0l1.09.75c.4-.6.66-1.46,1.19-1.7,1.16-.52,1-1.29.78-2.19l.23-.22c.32-.11.76-.12.95-.35.69-.79,1.3-1.65,1.94-2.49l1.4,1.19c-2,1.23-2.3,2.05-1.53,3.61l.84-1.43.47-.49a6.37,6.37,0,0,0,.87-1.38c.35-1.11.93-1.12,1.73-.54l-.47,1-.22.71-.26.72h0l-.71.7-.47.26-.66.3.42.43c-.09.39.72,1-.23,1.2l-1.16-.57-.19.29.66.76-.7.49-.73,1.19L43.35,70l-3.2,2.32c-.52-.23-1.31-.81-1.52-.65A16.66,16.66,0,0,0,36.54,74h0l-.24.22-3.8,3.61c-.52,0-1,0-1.56.11a.75.75,0,0,0-.48.39c-.29.69-.53,1.41-.78,2.11a4.22,4.22,0,0,1-.61.71c-1.53,1.14-2.33,2.86-3.38,4.38l-.67.57-.77.67c-.49-1.29-.82-1.32-1.78-.16l.37,1.07-.24.45L22.17,88l-.68-1.17c.23-.57.49-1.16.71-1.77C22.8,83.38,23.38,81.74,24,80.1Z"/><path class="cls-5" d="M55.18,56a.42.42,0,0,1-.18-.11,1.7,1.7,0,0,0-2.14-.61c.3-.54.93-1.15.84-1.6-.24-1.13.52-1.84.79-2.73l2.38-.13.75.29c-.15.3-.3.61-.57,1.19l1.74.3.43.75.7.72.5.68c.28,1.28.44,2.62,1.86,3.22.14.06.21.3.29.48.36.75.87,1.07,1.67.62l.19.26L65.86,61a13,13,0,0,0,5.57,5c2.69,1.16,4.81,3.15,7.4,4.42,2,1,2.39,2.23,1.75,4.34-.24.8-.61,1.11-1.45.53-1.88-1.29-3.79-2.52-5.73-3.72A32.47,32.47,0,0,1,70,69.72c-1.53-1.2-2.89-2.64-4.3-4-.83-.78-1.63-1.59-2.45-2.39l-1.95-1.6-.45-.47c.11-1.07-.7-1.35-1.41-1.71l-.23-.24-1.44-1.19-.42-.32C57.27,56.22,56.58,55.64,55.18,56Z"/><path class="cls-1" d="M54.49,50.92c-.27.89-1,1.6-.79,2.73.09.45-.54,1.06-.84,1.6h0l-.45.49-2.16,4-.46.49-.25.71H49.3c-.8-.58-1.38-.57-1.73.54a6.37,6.37,0,0,1-.87,1.38l-.47.49-.84,1.43c-.77-1.56-.42-2.38,1.53-3.61L45.52,60l.23-1,.19-.25,1.06.6.2-.13-.74-.93v-.49a55.51,55.51,0,0,0,2.81-5.48,20.73,20.73,0,0,0,1.68-9.63A9.85,9.85,0,0,1,51,41.32c.05-.09.11-.18.17-.27l.48-.14c.13.29.22.79.4.83.86.18,1.74.22,2.61.32l0,.69s-.07.06-.06.08a.61.61,0,0,0,.07.17c.7,1,1.16,2,.39,3.24a5.63,5.63,0,0,0-.35,2c-.06.1-.11.2-.16.3l0,1.8C54.54,50.54,54.52,50.73,54.49,50.92Z"/><path class="cls-6" d="M.89,77.08l.69,1.63a40.41,40.41,0,0,0,3.28-3,56.55,56.55,0,0,0,3.58-4.56c.8-1.08,1.46-2.26,2.23-3.37.44-.62,1-1.19,1.44-1.78,1.69-2,2.29-4.79,4.33-6.66.92-.84,1.31-2.28,2.2-3.92A9.72,9.72,0,0,0,21.76,52c.76-1.31,2.22-2.2,3.36-3.28a40,40,0,0,1-2,3.85c-1.55,2.39-3.2,4.7-4.85,7-1.84,2.57-3.73,5.1-5.57,7.67-1.15,1.61-2.24,3.25-3.36,4.89C8,74.08,6.74,76,5.4,77.91a14.15,14.15,0,0,1-2.13,2.64,2.29,2.29,0,0,1-2,.37c-1.34-.63-1.5-1.35-1-2.7A12.38,12.38,0,0,1,.89,77.08Zm1.37,2.31c.06,0,.15,0,.17-.09s0-.12-.06-.18l-.22.11Z"/><path class="cls-6" d="M20.72,46.84a1.57,1.57,0,0,1-.31,1.72c-.31.39-.13,1.18-.43,1.6-.44.61-1.18,1-1.67,1.59a39.13,39.13,0,0,0-2.85,3.7c-1.32,2-2.48,4.11-3.76,6.13A7.85,7.85,0,0,1,10,63.63a7.55,7.55,0,0,0-2.33,4c-.07.23-.36.38-.54.58-.77.88-1.94,1.34-2.32,2.68-.14.47-1.06.72-1.63,1.07,1.49-3.8,4-7,6.2-10.34q2.54-3.9,5.21-7.68c1.47-2.07,3-4.07,4.6-6.06A7.42,7.42,0,0,1,20.72,46.84Z"/><path class="cls-7" d="M50.24,59.79l2.16-4,.45-.49h0a1.7,1.7,0,0,1,2.14.61c-.25.14-.65.23-.73.44-1.11,3.05-3.15,5.49-5.1,8-1.37,1.75-2.92,3.36-4.44,5a5.39,5.39,0,0,1-1.38.76l1.23-1.58c.24-.4.48-.8.73-1.19l.7-.49.69-.48c.95-.23.14-.81.23-1.2l.24-.73.47-.26.71-.7h0l.26-.72c.07-.24.15-.47.22-.71.24-.32.47-.64.7-1s.17-.48.25-.71S50.09,60,50.24,59.79Z"/><path class="cls-8" d="M24,80.1c-.58,1.64-1.16,3.28-1.76,4.91-.22.61-.48,1.2-.71,1.77L22.17,88c-.11,0-.28.07-.31.14-.34.85-.79,1.17-1.69.66a1.79,1.79,0,0,1-1-2.36c.83-2.27,2.54-4,4-5.82A2.52,2.52,0,0,1,24,80.1Z"/><path class="cls-9" d="M57.85,25a4.09,4.09,0,0,1-6.12,0c-.31-.38-.25-1.1-.37-1.74,1.11-.27,2-.77,3.12-.29.63.26,1.56-.26,2.36-.43.21.81.32,1.52-.63,2-.35.18-.51.76-.76,1.16a3.63,3.63,0,0,0,1.15-.45A8.4,8.4,0,0,1,57.85,25Z"/><path class="cls-5" d="M57.85,25a8.4,8.4,0,0,0-1.25.27,3.63,3.63,0,0,1-1.15.45c.25-.4.41-1,.76-1.16.95-.5.84-1.21.63-2a20.26,20.26,0,0,1,2.28-2.26c.24-.17,1.12.18,1.41.53s.6,1.34.39,1.56A35.15,35.15,0,0,1,57.85,25Z"/><path class="cls-10" d="M30.88,49.66c0-1.39.55-1.92,2.17-1.94a2.41,2.41,0,0,1,2.22,1.69c.07,1-1.71,2.67-2.73,2.64C31.72,52,30.91,50.86,30.88,49.66Z"/><path class="cls-11" d="M95.82,37.51,97,36.08v-2h.7l.48.25,1.79,0c0,.3,0,.6,0,.9s0,.35,0,.53c-.14.33-.28.67-.43,1s-.43.61-.41.9c0,1.19-.84,1.28-1.5,1.09A7,7,0,0,1,95.82,37.51Z"/><path class="cls-12" d="M47.85,21.1a11.94,11.94,0,0,1,7.23-5.91,5.78,5.78,0,0,0,1.34-.27,2.63,2.63,0,0,1,2.83.64l-4.38.57c-1.69.22-2.65,1.51-3.81,2.57A36.21,36.21,0,0,1,47.85,21.1Z"/><path class="cls-13" d="M42.45,34.55c0-1.63.78-2.52,1.75-2.52.7,0,2.25,1.37,2,1.84a22.26,22.26,0,0,1-2,2.52Z"/><path class="cls-3" d="M34.92,37.27l-1.83-1.35-.41.2c.13-1.12.25-2.24.41-3.65l2.47,1.66,1.95-.25Z"/><path class="cls-14" d="M44.14,44.93a2.45,2.45,0,0,1,1.82,2c0,.58-1.12,1.95-1.57,2-.83,0-1.83-1.23-1.82-2.28S43.05,44.94,44.14,44.93Z"/><path class="cls-15" d="M24.74,66.81a1.92,1.92,0,0,1-2.06,1.81c-.37,0-1.47-1.53-1.47-2.06S22.41,64.75,23,65,24.18,66.2,24.74,66.81Z"/><path class="cls-14" d="M42.24,59.47l-2,2.39c-.59-.7-1.5-1.33-1.68-2.13s.79-1.5,1.64-1.42C40.79,58.37,41.37,59,42.24,59.47Z"/><path class="cls-16" d="M60.9,11.78a2.15,2.15,0,0,1-2.07-.27c-.37-.31-.82-.35-1.1.32-.17.39-.63.64-1,1-.52-.82-.87-1.84-1.92-.73-.23.25-.87.12-1.32.12-.65,0-1.22,0-1.46.86,0,.16-.72.23-1.07.16a4.06,4.06,0,0,1-1-.57,25,25,0,0,1,2.59-.82A33.58,33.58,0,0,1,57.74,11,11.48,11.48,0,0,1,60.9,11.78Z"/><path class="cls-17" d="M97.72,34.12H97a4.88,4.88,0,0,0-.62-.85,3.42,3.42,0,0,1-1.05-2.91l1.24.85-.4.31.62-.09c1.27.76,2.58,1.46,3.18,3H98.2Z"/><path class="cls-3" d="M31.37,40.41c-.3-.79-.64-1.57-.87-2.38a.83.83,0,0,1,.35-.72,3.23,3.23,0,0,1,1.61,0,5.36,5.36,0,0,1,1.3,1.1Z"/><path class="cls-16" d="M54.67,42.06c-.87-.1-1.75-.14-2.61-.32-.18,0-.27-.54-.4-.83l.87-1.27C53.47,40.28,54.66,40.59,54.67,42.06Z"/><path class="cls-6" d="M64.24,59c-.8.45-1.31.13-1.67-.62-.08-.18-.15-.42-.29-.48-1.42-.6-1.58-1.94-1.86-3.22Z"/><path class="cls-6" d="M42.4,63.09c.22.9.38,1.67-.78,2.19-.53.24-.79,1.1-1.19,1.7l-1.09-.75Z"/><path class="cls-6" d="M39.34,66.24c.46.94-.1,1.31-.83,1.69s-1.53,1-2.32,1.42a3.87,3.87,0,0,1-1.09.27,13.51,13.51,0,0,1,1.66-1.86A22.1,22.1,0,0,1,39.34,66.24Z"/><path class="cls-14" d="M19.94,75.69c-.25.3-.53.88-.75.86-.71-.06-1.33-.34-1.3-1.31,0-.67.19-1.12.87-1.1C19.63,74.16,19.84,74.77,19.94,75.69Z"/><path class="cls-12" d="M36.54,74a16.66,16.66,0,0,1,2.09-2.26c.21-.16,1,.42,1.52.65Z"/><path class="cls-8" d="M29.48,74.73a2.65,2.65,0,0,1-1.79,2c-.9.34-1.14.77-.88,1.76l-1.19-.28A7.87,7.87,0,0,1,29.48,74.73Z"/><path class="cls-3" d="M38.27,33,36.79,32c.6-.71,1.19-1.21,2.18-.86a4.74,4.74,0,0,0,1.14.13Z"/><path class="cls-18" d="M29.68,80.39c.25-.7.49-1.42.78-2.11a.75.75,0,0,1,.48-.39c.52-.08,1-.08,1.56-.11Z"/><path class="cls-12" d="M45.75,59.06l-.23,1c-.64.84-1.25,1.7-1.94,2.49-.19.23-.63.24-.95.35Z"/><path class="cls-7" d="M55.18,56c1.4-.33,2.09.25,2.18,1.84Z"/><path class="cls-19" d="M22.84,87.63l-.37-1.07c1-1.16,1.29-1.13,1.78.16l-.09,0-.71.16.35.31-.25.47Z"/><path class="cls-7" d="M61.31,61.74l1.95,1.6Z"/><path class="cls-6" d="M58.79,52.57l-1.74-.3c.27-.58.42-.89.57-1.19Z"/><path class="cls-3" d="M34.14,38a2,2,0,0,1-.58-.36,1.76,1.76,0,0,1-.19-.6,3.16,3.16,0,0,1,.68,0,5.46,5.46,0,0,1,.87.27Z"/><path class="cls-7" d="M59.45,59.56c.71.36,1.52.64,1.41,1.71Z"/><path class="cls-6" d="M54.49,50.92c0-.19,0-.38.07-.56l2.31.43Z"/><path class="cls-6" d="M65.86,61,64.43,59.3Z"/><path class="cls-3" d="M30.19,41.84l.13-1.41.86.2Z"/><path class="cls-7" d="M57.78,58.13l1.44,1.19Z"/><path class="cls-4" d="M46.46,58.35l.74.93-.2.13-1.06-.6A.5.5,0,0,1,46,58.6Z"/><path class="cls-16" d="M62.14,12.47l-1-.57Z"/><path class="cls-8" d="M31.1,73.46c.09.78-.42.75-.94.73Z"/><path class="cls-8" d="M22.84,87.63h.71l-.95.45Z"/><path class="cls-6" d="M59.92,54l-.7-.72Z"/><path class="cls-2" d="M96.81,31.43l-.62.09.4-.31Z"/><path class="cls-4" d="M23.8,87.16l-.35-.31.71-.16Z"/><path class="cls-12" d="M46.46,58.35,46,58.6l.46-.74Z"/><path class="cls-19" d="M25,86.05l.67-.57Z"/><path class="cls-2" d="M64.11,16.67l.57.36Z"/><path class="cls-17" d="M94.89,30l-.48-.37Z"/><path class="cls-17" d="M100,35.82c0-.18,0-.35,0-.53C100,35.47,100,35.64,100,35.82Z"/><path class="cls-12" d="M36.3,74.17l.24-.22Z"/><path class="cls-6" d="M54.53,48.56c0-.1.1-.2.16-.3C54.63,48.36,54.58,48.46,54.53,48.56Z"/><path class="cls-16" d="M48.12,13.75l-.25.2Z"/><path class="cls-16" d="M54.65,43a.61.61,0,0,1-.07-.17s0,0,.06-.08A2.18,2.18,0,0,1,54.65,43Z"/><path class="cls-16" d="M51.18,41.05c-.06.09-.12.18-.17.27Z"/><path class="cls-5" d="M46.7,66.28l-.69.48L45.35,66l.19-.29Z"/><path class="cls-5" d="M45.31,67.25c-.25.39-.49.79-.73,1.19C44.82,68,45.06,67.64,45.31,67.25Z"/><path class="cls-5" d="M49.53,61c-.23.33-.46.65-.7,1,.16-.32.32-.65.47-1Z"/><path class="cls-5" d="M48.35,63.39l-.71.7Z"/><path class="cls-5" d="M47.17,64.35l-.24.73-.42-.43Z"/><path class="cls-5" d="M48.61,62.67l-.26.72Z"/><path class="cls-20" d="M46.23,63.4l.47-.49Z"/><path class="cls-5" d="M50.24,59.79c-.15.16-.31.32-.46.49C49.93,60.11,50.09,60,50.24,59.79Z"/><path class="cls-5" d="M52.85,55.25l-.45.49Z"/><path class="cls-2" d="M97.72,34.12l.48.25Z"/></g></svg>