<svg xmlns="http://www.w3.org/2000/svg" viewBox="0 0 100 100"><defs><style>.cls-1{fill:#a4cdcf;}.cls-2{fill:#93c4c5;}.cls-3{fill:#69adaf;}.cls-4{fill:#86bcbe;}.cls-5{fill:#9dc9cb;}.cls-6{fill:#aad0d2;}.cls-7{fill:#99c7c8;}.cls-8{fill:#a6ced0;}.cls-9{fill:#8fc2c3;}.cls-10{fill:#88bebf;}.cls-11{fill:#6fb0b2;}.cls-12{fill:#96c5c7;}.cls-13{fill:#80b9ba;}.cls-14{fill:#72b2b3;}.cls-15{fill:#b0d3d5;}.cls-16{fill:#75b3b5;}.cls-17{fill:#8cc0c1;}.cls-18{fill:#d4e7e8;}.cls-19{fill:#78b5b6;}</style></defs><g id="Ebene_2" data-name="Ebene 2"><path class="cls-1" d="M54.91,27.4c-.15-.7-.29-1.4-.46-2.1a10.25,10.25,0,0,1,.33-5.93c.86-2.43,1.86-4.82,2.66-7.27A13.78,13.78,0,0,0,58.56,7,24.65,24.65,0,0,1,59,2.15C59.21.41,59.87-.09,61.49,0A5.21,5.21,0,0,1,63,.23c.78.3,1.58.6,1.77,1.66a6,6,0,0,0,.76,1.58c.11.22.34.4.38.61.37,2.17.71,4.33,1,6.5a2.65,2.65,0,0,1,.06.84C66.72,13.7,66.4,16,66,18.25a10.73,10.73,0,0,1-.9,2.07c-.19.44-.36.89-.54,1.33-.12-.89-.25-1.79-.39-2.75l-.76.22a15.21,15.21,0,0,0,.71-3.46c-.06-2.7-.32-5.41-.6-8.1a10,10,0,0,0-2-5.16,6.2,6.2,0,0,0-.35,1c-.29,2.19-.6,4.38-.83,6.58a23.72,23.72,0,0,1-1.14,5.76c-.89,2.47-2,4.94-1.8,7.68,0,.89.17,1.79.26,2.68l-1.15-.6c-.58.58-1.78.59-1.43,1.84Z"/><path class="cls-2" d="M64.69,74c-.2,1.2-.41,2.4-.61,3.6l-.57.53-1.93-1.3L61.3,77l.44,1.16c-.4.28-.77.57-1.15-.11-.1-.17-.41-.2-.6-.33a7.5,7.5,0,0,1-.66-.49l.21-.23.38-.46h0l.56-.11-.27-.48c.1-.33.18-.66.29-1,.33-1.05.08-1.76-.74-2.12a3.33,3.33,0,0,0-3.29-.16,4,4,0,0,1-1.16.07l-1.48,0c-.4-.29-.47-.55,0-.9.7-.52,1.37-1.09,2-1.66a1.15,1.15,0,0,0,.28-.43,3.92,3.92,0,0,0-1.26-3.61,3.85,3.85,0,0,0-3.38-.21c-.91.54-1.8,1.12-2.73,1.64a3.69,3.69,0,0,1-.86.23,10.3,10.3,0,0,0-.82-1.2,1.66,1.66,0,0,1,.35-2.71,2.25,2.25,0,0,0,1.12-2.61c-.18-.68-.36-1.36-.5-2a1.19,1.19,0,0,0-1.74-1c-.69.21-1.37.47-2,.71-.15-1.07-.3-2.14-.44-3.21.08-.11.14-.27.24-.32a6.59,6.59,0,0,1,7.68,2.48,28.43,28.43,0,0,1,1.65,4.3c.82.15,1.86.36,2.91.5.19,0,.41-.27.63-.41l.47-.07-.6-.33-1-5.12c.2.53.39,1.07.51,1.37.54.21.93.4,1.34.52a3.61,3.61,0,0,0,.74,0l.69,5.55c-1.15.29-.94-1.27-2-1.4a9.74,9.74,0,0,0,.13,2.32c.41,1.35,1,2.64,1.52,4-.7.51-.93,1.53-.38,1.91a4.72,4.72,0,0,0,3.3.85s0,.1-.06.16l.52.21.08-.25c-.17,0-.35-.09-.54-.12,0-.24.07-.5.11-.8,1.89,1.15,1.89,1.15-.16,2.76l2.09-.26ZM63,77.05l.3.2a4.53,4.53,0,0,0,.58-1,2.55,2.55,0,0,0,0-1.1,5,5,0,0,0-.32-.89,15.32,15.32,0,0,0-1.78,1c-.18.13-.17.59-.15.9,0,.07.42.15.64.14a5.47,5.47,0,0,0,.9-.16Z"/><path class="cls-3" d="M66.05,26.2a21.57,21.57,0,0,1,2.25.67c.2.08.32.48.39.76.44,2,.9,4,1.28,6,.14.74.06,1.52.16,2.27.31,2.29.64,4.57,1,6.86.2,1.32.45,2.63.68,3.94,0,.19.1.37.16.56.24,1.26.48,2.52.73,3.78-.47.73-.68,1.75-1.85,1.71q-.74-2.38-1.49-4.79c-.53,1.24-.85,1.23-1.82,0l.68-1.52-1.31,0c-.07-.71-.15-1.42-.22-2.12l-.12-.45-.11-1.68.75-.72-.89-.15a10.13,10.13,0,0,0,.09-1.46c-.1-2-.24-4.07-.38-6.11,0-.8-.15-1.6-.23-2.4.25-.55.21-1-.43-1.25h0c.38-.73,1-1.43-.29-2-.52-.22-.3-.65.14-.95A7,7,0,0,0,66.05,26.2Z"/><path class="cls-4" d="M43.27,86.71c-.29-.31-.58-.63-.88-.94.11-.35.21-.7.31-1L42.12,84l.26-.25c.36.25.71.52,1.07.76a6.82,6.82,0,0,0,.77.37,2.75,2.75,0,0,0,0-1c-.07-.21-.4-.52-.57-.49a3.61,3.61,0,0,1-2.73-.55c.48-1.32,1.39-2.52,1-4.06v0c.74.1,1.55.58,2.14-.38,0-.07.48,0,.65.13.87.64,1.7,1.23,1.61,2.6s-.27,2.85.9,4a5.6,5.6,0,0,1,1,1.13,1.5,1.5,0,0,0,2.26.53,16.23,16.23,0,0,1,1.76-1.11c1.59-.82,1.92-.76,3.31.48a6.76,6.76,0,0,0-1.93,3.94H51.57l-.82.18-.57.09-.48.11a2.85,2.85,0,0,1-3.33-.68l-.53-.68.73-.25c-.18-.45-.28-1.13-.53-1.2-.89-.23-1.59-.52-1.46-1.68Z"/><path class="cls-4" d="M64.14,69.12l-.38,0c-.5-.53-.84-.33-1.1.24l-.42,0-.42.2,0,.29h-.29c-.39.06-.77,1-1.19,0,1.24-.22.17-1.61,1.09-2.06,1.13.56,1.47-.66,2.27-1.07-1-1.3-1.71.83-2.5-.09a8.78,8.78,0,0,0-1.12-1.08c-.25-.22-.47-.47-.71-.7a7.24,7.24,0,0,0,.81,0,15,15,0,0,1,3-.39c.87.06,1.1-.16.94-.93-.41-2.07-.85-4.14-1.28-6.22l0-.23v-.1c.68-1.08,1.25-.06,1.86.11A10.83,10.83,0,0,1,65,58.94c0,1.63-.12,3.26-.17,4.9,0,.15.13.31.2.46-.21.76-.29,1.6.54,1.9a1.85,1.85,0,0,0,1.66-.39,11,11,0,0,0,1.34-2.54c.27-.59.51-1,1.23-.52a7.64,7.64,0,0,0,1.17.56,5.56,5.56,0,0,0,2.43-3.8c.3.64.35,1.47,1.22,1.7a8.22,8.22,0,0,1-3.09,4.57l-.32-.64L71,66l-.74.36-.71.56-.77.28-1.22-.16.11,1-.82.28-.44.1L64.55,69Z"/><path class="cls-5" d="M40.44,51.5c-.32-1-.55-2.14-1-3.15-1-2.53-.8-5.25-1.34-7.83a30.3,30.3,0,0,1-.27-5.85c0-.51.45-1,.69-1.55.1,0,.28.07.28.1,0,1.25.45,1.16,1.16.39.16-.17.53-.14.75-.19-.1.51-.17.86-.23,1.22a13.81,13.81,0,0,0,.18,1.44c.11.57.34,1.13.42,1.7a42.23,42.23,0,0,1,.37,6.27c0,2.31.69,4.64,1.09,7l-1.16.82C41.06,51,40.92,50.92,40.44,51.5Z"/><path class="cls-5" d="M53.7,90.17a6.81,6.81,0,0,1,1.92-3.94c.49.15,1.06.55,1.46.42,1.63-.54,3.52-2.3,3.25-4.58l.66-.14c-1.09-1.18.32-1.55.65-2.25-.89-.55-2.94.7-3.15,1.82a.34.34,0,0,0,0,.1c-2,.19-3-1.18-4.16-2.79a7.07,7.07,0,0,1,1.51-.21,3.09,3.09,0,0,0,3.09-1.1,1.58,1.58,0,0,1,.41-.31,7.5,7.5,0,0,0,.66.49c.19.13.5.16.6.33.38.68.75.39,1.15.11L61.3,77l.28-.14,1.93,1.3.57-.53a8.9,8.9,0,0,1-1,2.11,1.89,1.89,0,0,0-.48,1.88,3.91,3.91,0,0,1-.21,2.08A12.63,12.63,0,0,1,61,86.55c-.8,1.18-2.16,1.44-3.46,1.64a2.78,2.78,0,0,0-1.8.86A7,7,0,0,1,53.7,90.17Z"/><path class="cls-6" d="M40.51,34.64l.23-1.22c-.22,0-.59,0-.75.19-.71.77-1.12.86-1.16-.39,0,0-.18-.07-.28-.1A5.39,5.39,0,0,1,42.08,32a13.45,13.45,0,0,0,5.32-.75c1.76-.72,3.66-1.12,5.49-1.71.81-.26,1.6-.61,2.4-.93.23.93.46,1.85.7,2.78-1.55.58-3.09,1.2-4.66,1.73-.74.25-1.55.28-2.32.47-1,.24-1.94.51-2.89.82-1.59.54-3.43-.66-4.76.82Z"/><path class="cls-7" d="M29.18,81A20,20,0,0,1,29,76.38c.5-2.59.84-5.33,2.82-7.35a9.38,9.38,0,0,1,1.48-1c.27.26.56.51.81.78.91,1,1.39.91,2.63.49s.6-1.27.82-1.93a5.63,5.63,0,0,1,1.27,1.48c.09.26-.55.93-1,1.21a6.38,6.38,0,0,1-1.61.46c-2.12.62-3.22,2.3-4.16,4.15-.07-.12-.13-.24-.2-.35l-.42-.64c-.14.2-.3.4-.43.61s-.4.71-.72,1.3l1.54.78.44,3.19c-.37,0-.9-.07-1.07.14-1.1,1.35.67,1.21,1,1.95a2.07,2.07,0,0,1-1.25.14A18.62,18.62,0,0,1,29.18,81Z"/><path class="cls-2" d="M40.44,51.5c.48-.58.62-.52,1,.33L42.57,51c.29.86.59,1.72.87,2.59.2.66.37,1.33-.62,1.53a2.46,2.46,0,0,0,0,.56c-.45.4-.91.78-1.34,1.2-.77.73-.74.83.22,1.15a1.78,1.78,0,0,1,.47.32l1,.85,0,.09.42.41a14.69,14.69,0,0,1-2.11,2,2.62,2.62,0,0,1-1.83.26c-.32-.06-.73-.71-.75-1.11a4.69,4.69,0,0,1,.36-2,11.83,11.83,0,0,1,1.18-1.77l-1.63-.78-.12-.78-1.35.57-.62-.64-.66-2.39.65-.19c.17,1.18.84,1.18,2,.48l-.67.94c0,.11,0,.15.06.17.87,1,1.09-.24,1.59-.5l.41.48,1,.4.52.42.17-.1Z"/><path class="cls-8" d="M29.18,81a18.62,18.62,0,0,0,1.87.74,2.07,2.07,0,0,0,1.25-.14c-.38-.74-2.15-.6-1-1.95.17-.21.7-.1,1.07-.14a1.69,1.69,0,0,1,.2.46,4,4,0,0,0,3.22,3.5c.74.15,1.49.23,2.24.34a4.12,4.12,0,0,0,.08.94c.24.83-.09,1-.78.73-.5-.17-1-.37-1.64-.63.38.81.7,1.47,1,2.14.41-.27.7-.63,1-.63.89,0,1.79.13,2.68.21a13.35,13.35,0,0,1-3.35.7,7.24,7.24,0,0,1-5.38-2.11A8,8,0,0,1,29.18,81Z"/><path class="cls-8" d="M32.91,66.57a12.55,12.55,0,0,1-1.14-1,13.56,13.56,0,0,1-.93-1.42c-.26,1-.46,1.72-.61,2.42a3.15,3.15,0,0,1-2.89,2.54c-.11,0-.23,0-.31,0a13.43,13.43,0,0,1-3.16-1.82,3.28,3.28,0,0,1-.78-3.44c.15-.44.27-.88.41-1.33,0,.8.89,1.63-.29,2.28l1.23.56a3.45,3.45,0,0,0,.41.59c.92.92,1.48.85,2.15-.26.24-.41.5-.81.75-1.21.7-.72,1.9-.94,2.08-2.17l.84,1,.32-.38L32.2,64.2l-.15.85c.3,0,.61,0,.9-.09.6-.12.84.15.84.73h-.21l-.63.62Z"/><path class="cls-9" d="M33.79,65.69c0-.58-.24-.85-.84-.73-.29.05-.6.06-.9.09l.15-.85L31,62.91c-1-2.49,0-4.67,1.06-6.83a3.64,3.64,0,0,1,1.43,1.67s-.07.19-.11.28l-1,.28.33.57c.06,1.41,1.11,1,1.9,1.06A17.5,17.5,0,0,0,35,63a32.53,32.53,0,0,0,1.44,3.65l-1.66.3.14-.42Z"/><path class="cls-1" d="M63.58,93.9a2.66,2.66,0,0,1-1.08,3.42c-1.25.87-2.48,1.77-3.77,2.58a1.2,1.2,0,0,1-1.15-.1c-1.24-1.38-.82-5.08.65-6.3l1.26,1.16c0-1.36.8-1.38,1.55-1.54l.38,1-.77,1.37.17.2L62,95l-.34,1.28,1.07.28c0-.36,0-.72,0-1.07,0-.55.08-1.1.12-1.65l.36,0v.84l.18,0Z"/><path class="cls-4" d="M61.42,94.16l-.38-1c-.75.16-1.57.18-1.55,1.54L58.23,93.5a2.42,2.42,0,0,0-.11-1.86,1.72,1.72,0,0,1,1.06-2.58,4.7,4.7,0,0,1,2.09-.39c1.54.24,1.78.6,2,2.3.13,1,.21,2,.31,2.93-.07.28-.14.56-.2.84l-.18,0v-.84l-.36,0c0,.55-.09,1.1-.12,1.65,0,.35,0,.71,0,1.07l-1.07-.28L62,95C62.09,94.52,62.08,94.1,61.42,94.16Z"/><path class="cls-10" d="M56,31.4c-.24-.93-.47-1.85-.7-2.78a.44.44,0,0,1,.06-.16c.35,0,.93-.56,1,.36a6.07,6.07,0,0,0,.16.83,2.64,2.64,0,0,0,.87-.38,2.84,2.84,0,0,1,3.09-.85c1.12.38,1.19.26,1.1-1l.44-.2L62.5,27a4.87,4.87,0,0,0-.29-.6c-.58-.86-.49-1.31.42-1.72a7,7,0,0,1,.89-.26l-.23.64-.51.19.38.26-.42,1.11,3.31-.42a7,7,0,0,1-.85.87c-.44.3-.66.73-.14.95,1.3.54.67,1.24.29,2a4.63,4.63,0,0,0-3.5.19c-1.19.54-2.42,1.35-3.73.23-.46.35-1.61-.53-1.49.86Z"/><path class="cls-11" d="M63.52,24.42a7,7,0,0,0-.89.26c-.91.41-1,.86-.42,1.72a4.87,4.87,0,0,1,.29.6l-.52.19-.44.2c.09,1.29,0,1.41-1.1,1a2.84,2.84,0,0,0-3.09.85,2.64,2.64,0,0,1-.87.38,6.07,6.07,0,0,1-.16-.83c0-.92-.62-.32-1-.36,0-.13-.05-.26-.08-.39.59-.85,1.58-.6,2.38-.88h0l.17.33.25-.33.25-.31a1.74,1.74,0,0,0,1.6-.91c1-2,2.09-4,3.15-6l.31-.39v-.42l.76-.22c.14,1,.27,1.86.39,2.75-.21.57-.43,1.13-.64,1.7l-.24.62Z"/><path class="cls-4" d="M29.83,62.24c-.18,1.23-1.38,1.45-2.08,2.17.1-.39.19-.77.32-1.27a15.32,15.32,0,0,0-2.55,0c-1.17.2-1,1.28-1.08,2.12l-1.23-.56c1.18-.65.33-1.48.29-2.28,0-1.48.72-2.43,2.05-2.44a11.29,11.29,0,0,1,2.35.43l.46.34.37.33.63.54Z"/><path class="cls-12" d="M40.33,86.57c-.89-.08-1.79-.21-2.68-.21-.29,0-.58.36-1,.63-.32-.67-.64-1.33-1-2.14.66.26,1.14.46,1.64.63.69.25,1,.1.78-.73a4.12,4.12,0,0,1-.08-.94l2.94-.89a3.61,3.61,0,0,0,2.73.55c.17,0,.5.28.57.49a2.75,2.75,0,0,1,0,1,6.82,6.82,0,0,1-.77-.37c-.36-.24-.71-.51-1.07-.76l-.26.25.58.72c-.1.32-.2.67-.31,1Z"/><path class="cls-8" d="M33.37,58c0-.09.14-.23.11-.28a3.64,3.64,0,0,0-1.43-1.67c.31-1.53,1.57-2,2.75-2.56a11,11,0,0,1,1.26-.44l.66,2.39L35.18,56l1.1,1c-.21.65-.27,1.42-1.18,1.51-.11-.48,1.2-.83.08-1.42l-1.45,1.56.23.28,1.12-.41,0,.07v.53l-.4.71a.26.26,0,0,1,0,.15c-.79-.07-1.84.35-1.9-1.06C33.4,58.94,33.38,58.49,33.37,58Zm.91-.63c0-1.67-.08-1.79-1.19-1.49Z"/><path class="cls-5" d="M60.36,70c.42,1,.8,0,1.19,0h.29a14,14,0,0,1,2.7,2c.36.41.12,1.38.15,2.1l-1-.45-2.09.26c2.05-1.61,2.05-1.61.16-2.76l-.11.81a4.78,4.78,0,0,1-3.3-.86c-.55-.38-.32-1.4.38-1.91Z"/><path class="cls-5" d="M74.59,61.21c-.87-.23-.92-1.06-1.22-1.7l-.21-.63c1.21-.29.08-.87.15-1.31a.5.5,0,0,1,0-.12l1.08-.91h0L76,56.13c1.36,1,1.41,1.5.28,2.86C75.7,59.71,75.16,60.47,74.59,61.21Z"/><path class="cls-13" d="M33.79,65.69l1.08.87-.14.42,1.66-.3,1.2.64c-.22.66.38,1.52-.82,1.93s-1.72.51-2.63-.49c-.25-.27-.54-.52-.81-.78a.51.51,0,0,1,.09-.16l.34-.29-.36-.37-.49-.59,0-.25.63-.62Z"/><path class="cls-6" d="M70.84,52.72c1.17,0,1.38-1,1.85-1.71a11.54,11.54,0,0,1,1.71,5.53h0l-1.3.21-1.23-1.27c.6-.52.87-1,0-1.57A5.7,5.7,0,0,1,70.84,52.72Z"/><path class="cls-14" d="M40.35,97a6.59,6.59,0,0,1-.11-2.43c.15-.43,1.06-.81,1.64-.83s1.14,1.16.78,2c-.21.46-.36,1.13-1.19.88C41.22,96.52,40.86,96.8,40.35,97Z"/><path class="cls-15" d="M43.27,86.71l1.31-.66c-.13,1.16.57,1.45,1.46,1.68.25.07.35.75.53,1.2l-.73.25.53.68c-.23-.06-.54,0-.67-.2C44.87,88.69,44.08,87.7,43.27,86.71Z"/><path class="cls-10" d="M57.65,27.19c-.8.28-1.79,0-2.38.88l-.36-.67.2,0c-.35-1.25.85-1.26,1.43-1.84l1.15.6c0,.19,0,.37,0,.56Z"/><path class="cls-15" d="M39.65,54c-.5.26-.72,1.45-1.59.5,0,0,0-.06-.06-.17l.67-.94c-1.12.7-1.79.7-2-.48h.64l.24.37.17-.33Z"/><path class="cls-5" d="M51.57,90.16H53.7l-2.12.19A1.34,1.34,0,0,0,51.57,90.16Z"/><path class="cls-5" d="M67.7,68l-.11-1,1.22.16Z"/><path class="cls-5" d="M62.66,69.4c.26-.57.6-.77,1.1-.24Z"/><path class="cls-15" d="M41,54.86l-1-.4Z"/><path class="cls-5" d="M71,66l.15-.87.32.64Z"/><path class="cls-5" d="M69.58,66.93l.71-.56Z"/><path class="cls-8" d="M29.36,61.65l-.63-.54Z"/><path class="cls-15" d="M51.57,90.16a1.34,1.34,0,0,1,0,.2l-.83,0Z"/><path class="cls-10" d="M63.66,24l.24-.62Z"/><path class="cls-7" d="M33.4,67.16l.36.37-.34.29C33.41,67.6,33.4,67.38,33.4,67.16Z"/><path class="cls-11" d="M63.16,25.51l-.38-.26.51-.19Z"/><path class="cls-6" d="M72,47.23c-.06-.19-.11-.37-.16-.56C71.85,46.86,71.9,47,72,47.23Z"/><path class="cls-15" d="M49.7,90.54l.48-.11Z"/><path class="cls-2" d="M37.76,52.93l-.17.33-.24-.37Z"/><path class="cls-5" d="M64.14,69.12l.41-.09Z"/><path class="cls-8" d="M28.36,60.78l-.46-.34Z"/><path class="cls-5" d="M61.82,69.65l.42-.2Z"/><path class="cls-5" d="M66.44,68.39l.44-.1Z"/><path class="cls-16" d="M52,49.71a8.51,8.51,0,0,1,1.61-.6,1.11,1.11,0,0,0,1-1.06c0-.16,0-.31,0-.47-.18-.63-.35-1.26-.53-1.9l-1.34-.52c.25-.94.47-1.81.7-2.67h0c.67-.19.56-.5.13-.86,0-.35-.06-.69-.08-1,.18-.07.51-.13.52-.21.1-1.07,1-.94,1.65-1.17.06.4.08.8.17,1.19a2.16,2.16,0,0,0,.59,1.15V36.34l.39-.23c.54.63,1,1.35,2,.67.14-.09.4,0,.6,0l.36,3.75h.38a20.79,20.79,0,0,1,.67-3,2.14,2.14,0,0,1,1.22-1.16c.25-.07.85.56,1.07,1A7.55,7.55,0,0,1,63.51,39c.2.7-.13,1.58.78,2,.15.08.08.7,0,1A17.49,17.49,0,0,0,64,44.74c.06,2.51.25,5,.39,7.54l.08.56.78-.18.43,0c-.15,1.08-.31,2.15-.46,3.23l-.48,1.33c-.61-.17-1.18-1.19-1.86-.11l-1.41-.74c.13-.6.27-1.19.37-1.79,0-.1-.12-.23-.19-.34-.14-1-.25-2.09-.43-3.12,0-.22-.37-.38-.56-.56-.14.24-.39.48-.41.74a9.92,9.92,0,0,0,0,2.11c.05.34.4.64.62,1-.59.64-.32,1.38-.22,2.09l-.67.78-.64.43-.6-.5c-.28-.54-.47-.28-.64.08.1.49.21,1,.31,1.47a3.61,3.61,0,0,1-.74,0c-.41-.12-.8-.31-1.34-.52-.12-.3-.31-.84-.51-1.37l-.09-.62c.69-.41,1.39-.81,2.06-1.25.11-.08.07-.39.1-.59a2.88,2.88,0,0,0,.52-.21c-.13-.73-.31-1.45-.48-2.18l-.31,0-.22.54a8.34,8.34,0,0,1-.56.92c-.41.5-.37,1.46-1.34,1.41-.41-2-.41-2-2.44-1.64l-.41,0C52,52.13,52.39,50.85,52,49.71Zm8.31-5.87a5.26,5.26,0,0,0,.16,3.86C61.09,46.39,60.57,45.12,60.3,43.84Zm-3.47.92-.42,0c.06,1,.1,1.92.21,2.87,0,.21.25.4.39.59.13-.21.41-.45.38-.64C57.24,46.61,57,45.69,56.83,44.76Zm6.61,6.56-.3-.07-.36,1,1,.34C63.63,52,63.53,51.64,63.44,51.32Z"/><path class="cls-11" d="M59.08,64.21c.1.24.21.49.31.74s.46.48.71.7a8.78,8.78,0,0,1,1.12,1.08c.79.92,1.54-1.21,2.5.09-.8.41-1.14,1.63-2.27,1.07-.92.45.15,1.84-1.09,2.06l-1.65-.87c-.52-1.31-1.11-2.6-1.52-4a9.74,9.74,0,0,1-.13-2.32C58.14,62.94,57.93,64.5,59.08,64.21Z"/><path class="cls-3" d="M42.79,55.69l1.05,0c.14,1.07.29,2.14.44,3.21l-.69.79-.42-.41,0-.09-1-.85a1.78,1.78,0,0,0-.47-.32c-1-.32-1-.42-.22-1.15C41.88,56.47,42.34,56.09,42.79,55.69Z"/><path class="cls-6" d="M59.76,72.81c-1.23.51-2.44,1.07-3.69,1.52s-1.39.45-2-.89a5.68,5.68,0,0,1-.22-.7l1.48,0a4,4,0,0,0,1.16-.07A3.33,3.33,0,0,1,59.76,72.81Z"/><path class="cls-5" d="M63,77.05l.16-.94a5.47,5.47,0,0,1-.9.16c-.22,0-.63-.07-.64-.14,0-.31,0-.77.15-.9a15.32,15.32,0,0,1,1.78-1,5,5,0,0,1,.32.89,2.55,2.55,0,0,1,0,1.1,4.53,4.53,0,0,1-.58,1Z"/><path class="cls-5" d="M59.92,76.5c.1-.2.2-.39.29-.59l.27.48Z"/><path class="cls-11" d="M57,62.26l-.13-.4.6.33Z"/><path class="cls-5" d="M61.64,71.83l.53.13-.08.25L61.57,72Z"/><path class="cls-5" d="M59.54,77l.38-.46Z"/><path class="cls-17" d="M65.18,55.84c.15-1.08.31-2.15.46-3.23,1.11-.34,2.21-.66,3.3-1,.12,0,.28-.31.24-.4-.28-.68-.46-1.76-1-1.94-1.13-.41-1-1.24-1.17-2.06L67,46.78c0-.15-.07-.31-.1-.46l1.31,0-.68,1.52c1,1.27,1.29,1.28,1.82,0q.75,2.4,1.49,4.79a5.7,5.7,0,0,0,1,1.19c.89.58.62,1.05,0,1.57-.21.46-.42.92-.67,1.45H70c-.41-.71,0-1,.59-1.27.46.07.79,0,.71-.6l.39-.37c-.12-.09-.24-.24-.37-.26a4.39,4.39,0,0,0-.81,0L70,53.18c-.48.67-.74,1.43-1.23,1.65A26.27,26.27,0,0,1,65.18,55.84Z"/><path class="cls-17" d="M66.45,42.07c0-.29-.09-.58-.14-.87l.89.15Z"/><path class="cls-10" d="M65.79,31.23c-.14-.41-.29-.83-.43-1.25C66,30.22,66,30.68,65.79,31.23Z"/><path class="cls-17" d="M66.68,44.2l-.12-.45Z"/><path class="cls-3" d="M65,64.3l1-.56c.76,0,1.1-.31,1-1.08l.39-.27c.92.45,1.8-.31,1.92-1.65.22-.81.48-1.62.64-2.44a5.73,5.73,0,0,0,0-1.37h1.26c.25-.53.46-1,.67-1.45l1.23,1.27.22.7a.5.5,0,0,0,0,.12l-.15,1.31.21.63a5.56,5.56,0,0,1-2.43,3.8,7.64,7.64,0,0,1-1.17-.56c-.72-.48-1-.07-1.23.52a11,11,0,0,1-1.34,2.54,1.85,1.85,0,0,1-1.66.39C64.71,65.9,64.79,65.06,65,64.3Z"/><path class="cls-16" d="M62.87,57.39a2,2,0,0,0,0-.23A2,2,0,0,1,62.87,57.39Z"/><path class="cls-15" d="M60.33,82.07l-1.85-.47a.34.34,0,0,1,0-.1c.21-1.12,2.26-2.37,3.15-1.82-.33.7-1.74,1.07-.65,2.25Z"/><path class="cls-8" d="M32.11,74.62V75l-.61.37.4.48c0,.15,0,.29,0,.43l-1.54-.78c.32-.59.51-1,.72-1.3s.29-.41.43-.61l.42.64C32,74.38,32,74.5,32.11,74.62Z"/><path class="cls-9" d="M36.9,56.43l-.62.53-1.1-1,1.54-.48.62.64Z"/><path class="cls-6" d="M36.9,56.43l.44-.32,1.35-.57.12.78Z"/><path class="cls-9" d="M33.58,65.7l-.63.62Z"/><path class="cls-6" d="M33.37,58c0,.46,0,.91-.63.85l-.33-.57Z"/><path class="cls-18" d="M61.42,94.16c.66-.06.67.36.58.84l-1.18.73-.17-.2Z"/><path class="cls-6" d="M58.12,30.41l-1.49.86C56.51,29.88,57.66,30.76,58.12,30.41Z"/><path class="cls-1" d="M57.71,26.68l.61.2-.25.31h-.42Z"/><path class="cls-1" d="M63.07,19.93l.31-.39Z"/><path class="cls-10" d="M57.65,27.19h.42l-.25.33Z"/><path class="cls-9" d="M35.08,58.48,34,58.89l-.23-.28,1.45-1.56c1.12.59-.19.94-.08,1.42Z"/><path class="cls-9" d="M34.28,57.4l-1.19-1.49C34.2,55.61,34.3,55.73,34.28,57.4Z"/><path class="cls-6" d="M35.29,59.11l-.64.68.4-.71Z"/><path class="cls-9" d="M35.29,59.11l-.24,0v-.53Z"/><path class="cls-4" d="M73.16,58.88l.15-1.31C73.24,58,74.37,58.59,73.16,58.88Z"/><path class="cls-19" d="M50.79,80.43a3.59,3.59,0,0,0,.9.18c1,0,1.37.44,1.65,1.43a1.27,1.27,0,0,1-.76,1.75c-.74.32-1.5,1.31-2.36.12S49.6,81.64,50.79,80.43Z"/><path class="cls-16" d="M50.71,72.07c-.6-.45-1.45-.76-1.66-1.32a4,4,0,0,1,0-2.48c.26-.86,1.55-.9,2.13-.17,1,1.23,1.2,2.05.67,2.7C51.53,71.2,51.17,71.56,50.71,72.07Z"/><path class="cls-13" d="M38.6,76.41c-.75.6-1.19,1-1.69,1.33a2.72,2.72,0,0,1-1,.35,1,1,0,0,1-.72-.12,1,1,0,0,1-.28-.73c.1-.81,1.4-2,2.19-1.84C37.5,75.47,37.89,75.92,38.6,76.41Z"/><path class="cls-7" d="M31.9,75.89l-.4-.48.61-.37Z"/><path class="cls-4" d="M42,78.86l-.28-.06.27.08Z"/><path class="cls-2" d="M53.46,42.49c-.23.86-.45,1.73-.7,2.67l1.34.52L51,46.09c-.1,0-.27,0-.3.06a2,2,0,0,1-2.22,1.06,20,20,0,0,0-2.31.13c-.16,0-.39-.28-.48-.48a2.41,2.41,0,0,1,1.51-2.64c1.19-.18,2.38-.4,3.56-.64.17,0,.3-.28.47-.35C52,43,52.72,42.73,53.46,42.49Z"/><path class="cls-17" d="M52,49.71c.4,1.14,0,2.42.64,3.51-.7.17-1.42.28-2.1.51-1.17.39-1.61-.51-1.88-1.26a1.78,1.78,0,0,1,.51-1.6A16,16,0,0,1,52,49.71Z"/><path class="cls-5" d="M59.45,36.78c-.2,0-.46-.09-.6,0-1,.68-1.49,0-2-.67h0l.8-.37-.08-.23h-.68l-.05-.06c.33-.48.57-1.14,1-1.4S59.44,35.2,59.52,36A3.88,3.88,0,0,1,59.45,36.78Z"/><path class="cls-7" d="M55.67,39.22c-.66.23-1.55.1-1.65,1.17,0,.08-.34.14-.52.21-.43-2.38-.43-2.38-.07-3.33C55.36,37.6,55.36,37.6,55.67,39.22Z"/><path class="cls-16" d="M49.93,38.53c1.12,0,1.76.28,1.72,1.1a2.14,2.14,0,0,1-.72,1.47c-.25.19-1.31-.17-1.31-.29A12.75,12.75,0,0,1,49.93,38.53Z"/><path class="cls-4" d="M44.23,38.51c-.31-.18-.7-.29-.85-.54s0-.63.2-.84c.87-1.06,1.6-1.6,2.35-.25.27.48.32.82-.37,1A6.49,6.49,0,0,0,44.23,38.51Z"/><path class="cls-12" d="M55.48,54.81c1,0,.93-.91,1.34-1.41a8.34,8.34,0,0,0,.56-.92c.16.6.33,1.2.49,1.8,0,.2,0,.51-.1.59-.67.44-1.37.84-2.06,1.25C55.63,55.68,55.55,55.24,55.48,54.81Z"/><path class="cls-17" d="M65.21,52.66l-.78.18-.08-.56Z"/><path class="cls-7" d="M53.58,41.63c.43.36.54.67-.13.86C53.49,42.2,53.54,41.91,53.58,41.63Z"/><path class="cls-5" d="M56.82,36.11l-.39.23c.13-.29.25-.59.37-.88l.05.06c0,.2,0,.4,0,.6Z"/><path class="cls-3" d="M67,46.78l.06.41Z"/><path class="cls-2" d="M54.63,47.58c0,.16,0,.31,0,.47C54.64,47.89,54.64,47.74,54.63,47.58Z"/><path class="cls-18" d="M60.3,43.84c.27,1.28.79,2.55.16,3.86A5.26,5.26,0,0,1,60.3,43.84Z"/><path class="cls-18" d="M56.83,44.76c.19.93.41,1.85.56,2.79,0,.19-.25.43-.38.64-.14-.19-.37-.38-.39-.59-.11-1-.15-1.91-.21-2.87Z"/><path class="cls-12" d="M60.85,54.31l.76-.12c.07.11.21.24.19.34-.1.6-.24,1.19-.37,1.79l-.8.08C60.53,55.69,60.26,55,60.85,54.31Z"/><path class="cls-12" d="M60,57.18v2.09h-.52l-.12-1.67Z"/><path class="cls-4" d="M63.44,51.32c.09.32.19.65.36,1.23l-1-.34.36-1Z"/><path class="cls-12" d="M58.72,57.11l-.64.08C58.25,56.83,58.44,56.57,58.72,57.11Z"/><path class="cls-6" d="M70.48,55.08c0-.23,0-.46,0-.68a4.39,4.39,0,0,1,.81,0c.13,0,.25.17.37.26l-.39.37Z"/><path class="cls-3" d="M70.48,55.08l.77,0c.08.58-.25.67-.71.6Z"/><path class="cls-1" d="M69.34,60.74c-.12,1.34-1,2.1-1.92,1.65Z"/><path class="cls-1" d="M67,62.66c.07.77-.27,1.13-1,1.08Z"/><path class="cls-16" d="M56.81,36.12c0-.2,0-.4,0-.6h.68l.08.23Z"/></g></svg>