<svg xmlns="http://www.w3.org/2000/svg" viewBox="0 0 100 100"><defs><style>.cls-1{fill:#8fc2c3;}.cls-2{fill:#8bbfc1;}.cls-3{fill:#62a9ab;}.cls-4{fill:#5ba5a8;}.cls-5{fill:#91c2c4;}.cls-6{fill:#66abad;}.cls-7{fill:#8ec1c2;}.cls-8{fill:#85bbbd;}.cls-9{fill:#97c6c7;}.cls-10{fill:#7eb8b9;}.cls-11{fill:#78b5b6;}.cls-12{fill:#71b1b3;}.cls-13{fill:#a3cdce;}.cls-14{fill:#a8cfd1;}.cls-15{fill:#73b2b4;}.cls-16{fill:#b1d4d5;}.cls-17{fill:#eff6f7;}.cls-18{fill:#e4f0f1;}.cls-19{fill:#e9f3f3;}.cls-20{fill:#51a0a2;}.cls-21{fill:#88bdbf;}.cls-22{fill:#93c4c5;}.cls-23{fill:#6caeb0;}</style></defs><g id="Ebene_5" data-name="Ebene 5"><path class="cls-1" d="M85.32,28.78l1.21-.11.7-.27,3.4.13.43.15a3.69,3.69,0,0,1,3.07,1.91c.12.14.24.29.37.43a5.06,5.06,0,0,1,1.65,2.84l.34.9a1.9,1.9,0,0,1-.09,1.67,24.11,24.11,0,0,0-.87,2.93l-.41.42c-.92,1.44-2.57,1.88-3.84,2.83-.69.52-1.48.91-2.12,1.48-.23.2-.14.76-.19,1.15-.7,0-.84.28-.57.87L88,46.7l-.61.63a12,12,0,0,1-5.13,3.41l-.59.34c-1.38.75-2.76,1.31-4.23.17-.15-.12-.45,0-.68,0l-1.35-2.59a1,1,0,0,1,0-.3c-.1-1.06-.76-1.08-1.37-.92L73.49,49l-2-.41h0L71.32,48l-.24.06.06.52L70,47.32l-.33-2.53c-1.13.14-2,.31-2.9.33-.71,0-1.43-.21-2.15-.2s-.62.52-.27.83a1.3,1.3,0,0,1,.32,1.57c-.23.67-.54,1.31-.75,2-.48,1.59-1.11,3-3,3.18-.82.09-1.63.29-2.46.32a7.74,7.74,0,0,1-2.2-.18,6.89,6.89,0,0,1-3.48-2.7c-1-1.24-1.69-1.24-2.5.14a3.3,3.3,0,0,1-.5.63c-1.31,1.37-3.82,1-5.34.27A6.71,6.71,0,0,1,40.59,46c-.16-.78-.58-1.11-1.25-.72a2.21,2.21,0,0,0-.77,1.11A30.55,30.55,0,0,1,37.18,50a15.42,15.42,0,0,1-2.34,2.9A12.75,12.75,0,0,1,32.3,55.1a20.93,20.93,0,0,1-3.64,1.54,13.9,13.9,0,0,1-2.88.82,3.68,3.68,0,0,1-1.66-.4c-.83-.3-1.64-.66-2.46-1a2.82,2.82,0,0,0,.18-.45c.14-.77.89-1.49.21-2.33a13,13,0,0,0,2.42.93,5.48,5.48,0,0,0,2.61-.05c1.81-.61,3.52-1.5,5.31-2.17a4.93,4.93,0,0,0,3.31-3,4.58,4.58,0,0,1,.29-1c1.1-1.85.7-3.28-1.21-4.27s-2.21-1.92-1.42-4.16l2.15,1.26c.85.51,1.66,1.1,2.55,1.54a2.39,2.39,0,0,0,2.59-.31c1-.77,2-1.56,3-2.39,1.69-1.45,1.71-4.35.89-5.9a4.63,4.63,0,0,0-3.38-2.48c-1.27-.2-2.55-.25-3.82-.36a6.29,6.29,0,0,1,1.22-1.79c.9-.66.66-1.18.06-1.78a3.7,3.7,0,0,0,.82-3.91c-.33-1.05,0-1.74.87-1.89.22.59.71,1.22.62,1.76a22.89,22.89,0,0,1-1,3.47c-.1.33-.24.65-.34.92,2,.86,4.33.18,5.82,2.23l1.14-2.06-.3,2.38-.86.15c0,1.1,0,2.1,0,3.1,0,.75,1,2,1.63,1.84,1.39-.39,1.81.64,2.4,1.46l-2.49-1.24a9,9,0,0,1,0,2.09,13.94,13.94,0,0,1-3.41,5.43c-.3.35-.85.65-.89,1s.34.91.54,1.37c.1.21.22.42.32.63.92,2,2.34,2.27,3.85.73s1.87-1.62,3.85-.85c.19.07.44,0,.6.09.62.37,1.61.15,1.84,1.17,0,.18.35.29.52.46A6.48,6.48,0,0,0,56,48.7,2.89,2.89,0,0,0,59.64,48a4.41,4.41,0,0,0,1-2.9l3.18-.22a2.75,2.75,0,0,1-.24-.41c-.55-1.38-.79-1.55-2.29-1.4-.68.06-.71-.33-.69-.81L61,42l-.07-.07-.25.32c-1-.07-.75.73-.85,1.28a7.86,7.86,0,0,1-2.87-5.83c0-.47-.08-.64-.54-.51a3,3,0,0,1,.58-.44c.72-.31,1.46-.47,1.54-1.53A1.3,1.3,0,0,1,59.91,34c-.24.68-.44,1.37-.72,2-.83,2-.72,2.85.78,4.35,1,1,2.11,1.9,3.82,1.64,1.25-.19,2.6.16,3.45-1.16,0,0,.14,0,.18-.09a19.79,19.79,0,0,0,1.5-1.68c.42-.57.66-1.27,1.09-1.83.56-.73.88-.64,1.32.18a11.9,11.9,0,0,0,1.39,2.27,1.36,1.36,0,0,1,.39,1.32,14,14,0,0,0-.2,3.23,2.6,2.6,0,0,0,.85,1.62,44.64,44.64,0,0,0,3.75,2.6,1.73,1.73,0,0,0,1,.16c2.67-.33,4.43-2,5.91-4.06a1.56,1.56,0,0,0-.18-2.35c-.49-.54-1-1.12-1.44-1.71a2.25,2.25,0,0,1,2.57-.35,2,2,0,0,0,2.31-.27,5.2,5.2,0,0,1,1.14-.66c2.08-.78,2.93-2.46,3.37-4.46a1.86,1.86,0,0,0-1.55-2.49c-.46-.11-.93-.2-1.39-.27a8,8,0,0,0-5,.53,1.63,1.63,0,0,1-.64.08,5.22,5.22,0,0,1,1.53-2.93C85.4,29.55,85.29,29.11,85.32,28.78Z"/><path class="cls-2" d="M58.81,7c.65,0,1.31-.06,1.73.65.08.13.42.11.63.17l.15.58a12.33,12.33,0,0,0,.4,1.59c0,.12.45.15.68.13.77-.05,1.53-.15,2.29-.23,0,.35-.08.7-.11.91a9.45,9.45,0,0,1,2.62.05c1.14.37,1.6.37,2.21-.62L72.07,12c-.12.19-.26.37-.36.57-.2.45-.36.91.23,1.18s.71-.07.81-.53c0-.08.2-.13.31-.19a3.82,3.82,0,0,1,0,4.28c-.13.19-.23.4-.34.6l-.18,0-1.21.26c-.84-.33-2-.75-2.11-2.21.54-2,.53-2.07-.63-2.54a6.6,6.6,0,0,0-7.28,1c-.75.64-1.09.39-1.57-.08a1.67,1.67,0,0,1,0-2.42c.54-.66.43-1.36-.26-1.67a2.44,2.44,0,0,0-3,1.6l1.93-.15c.27,2.3.16,2.43-1.94,2.77a3.38,3.38,0,0,0-.82.38l-1.74.8c-.11-.66-.22-1.14-.27-1.63a1.67,1.67,0,0,0-2.24-1.51c-.76.26-1.53.51-2.27.82a3.87,3.87,0,0,0-2.4,4.27,13.65,13.65,0,0,0,2.78,6.1L47,26.1c-2.4-1.67-2.94-4.42-4-6.89a2.25,2.25,0,0,1,.88.09,1.2,1.2,0,0,0,1.83-.76A5.65,5.65,0,0,0,44.59,16c-.2-.29-.89-.26-1.4-.39,0,.23,0,.56-.16.66-.88.65-.54,1.35-.21,2.11a2.32,2.32,0,0,1,.07.8c-1.23-.17-2.46-.68-3.68,0a6,6,0,0,1-1-.64,3.69,3.69,0,0,1-.7-1,6.71,6.71,0,0,1-.31-1c1.17-1.27,2.7-1.17,4.22-1.07a5.14,5.14,0,0,1,.86.21l.27-.58c-.12-2.39,1.37-3.82,3.07-5.11.12-.09.46-.12.52-.05.67.92,1.33.42,2,0a2.38,2.38,0,0,1,.47-.17L49,9.56l2-.08,1.66.21.4.07.59-.19c.14-.2.27-.41.4-.61l.21-.41C55.17,7,56.69,7,58.18,6.92Zm11.64,6.45.12.23.53-.22-.18-.3Z"/><path class="cls-3" d="M40.63,98.14a21.79,21.79,0,0,1-7.49-2.07l-1.9-.36-.59-.26c-.17-.13-.32-.33-.51-.37-.73-.17-1.24-.48-1-1.31-1.22-.43-2.26-1.28-3.59-.79l-1.43-1.17-.6-.66C20.93,89,19.81,86,18.57,83.07c-.4-.94-.84-1.87-1.2-2.83A6.58,6.58,0,0,1,17.14,79c-.12-.48-.23-1-.35-1.44-.39-1.33-.79-2.67-1.16-4a2.72,2.72,0,0,1,0-.7l-.06-4.06c.63-.87.86-2.06,2-2.45l1.07,1.08c-1.12.93-.62,2.39-.17,3.64A3.9,3.9,0,0,1,19,73.45h-.2l-.73.08-.06.22.58.31c.18.36.37.72.53,1.08a5,5,0,0,1,.56,1.37,4.87,4.87,0,0,1-.21,1.38,1.69,1.69,0,0,0,.37.22c1,.25,1.28.7,1.14,1.82A2.07,2.07,0,0,0,22.06,82a2,2,0,0,0,.38,2c.17.2.16.56.24.84s.18.75.4.84a3.58,3.58,0,0,1,1.74,2.11,3.4,3.4,0,0,0,.95,1l1.43-.72h0c-.06.35-.27,1-.17,1,.92.53,1.89,1,2.84,1.43l.35.24c0,.44,0,.92.63.35,1.13.1,2.27.18,3.39.31a14.19,14.19,0,0,1,2.36.4,19.32,19.32,0,0,1,2.17.88c1.55.65,3,1.87,4.69,1.06l1.61.88-.15-1.2c.37.27.75.54,1.1.83s.76.67,1.13,1a3.84,3.84,0,0,1,.14.88c-.09.86-.22,1.73-.34,2.59l-1,.09-1.63-.28h-.38l-.85,0-1,.14-.4.09C41.3,98.64,41.53,97.55,40.63,98.14Z"/><path class="cls-4" d="M73.49,49,74,47.39c.61-.16,1.27-.14,1.37.92a1,1,0,0,0,0,.3l1.35,2.59.06,1.54c0,1.22.15,2.44.15,3.66,0,2.15-.08,4.29-.13,6.43l.15.62v1.84l-.13.62v1.43c-.23,2.81-.44,5.63-.71,8.44-.14,1.5-.37,3-.55,4.48,0,.44,0,.88-.06,1.31l-.1.24c0,.28,0,.55,0,.83l-.3,2c-.06.25-.11.5-.17.76l-.29.46c0,.13,0,.26,0,.38l-.27.83c-.08.34-.15.68-.23,1l-1.61,1.22c-1.12-.22-1.36-.62-1-1.65a2.16,2.16,0,0,0,.08-.67V83.36l-.48-.12L71.47,82l.2-.82v-.44l-.18-.31-.25.33-.4.2-.19-.2a.34.34,0,0,1,0-.2l0-.64-.09-1.4.08-1.07c.15-2.22.28-4.45.46-6.67a58.44,58.44,0,0,1,.78-7.51A43.31,43.31,0,0,0,73,55.22C73,53.13,73.3,51.05,73.49,49Z"/><path class="cls-5" d="M71.05,83.24l.48.12V87a2.16,2.16,0,0,1-.08.67c-.34,1-.1,1.43,1,1.65l-.06.38-.35.65-.73.83c-.31.53-.62,1-.92,1.58l-.38.45c-.62.61-1.23,1.22-1.84,1.84-1-.43-1-1.27-.83-2.37-.69.63-1.18,1.06-1.65,1.52a.59.59,0,0,0-.06.46c.27.93-.25,1.21-.93,1.27l-.41,1.36h0l-.43.36-.2.24-.19.18c-1.21,1.13-2.61,1.14-4.19,1a19.1,19.1,0,0,0-4,.61,11.57,11.57,0,0,1-2.47.25c-1.77-.14-3.52-.42-5.27-.65A2.42,2.42,0,0,1,47,99.1c0-.1-.05-.21-.08-.31.12-.86.25-1.73.34-2.59a3.84,3.84,0,0,0-.14-.88c.5,0,1,0,1.5.06l3.91.28a10.13,10.13,0,0,0,2.66.21A18.42,18.42,0,0,0,62,93.49a34.45,34.45,0,0,0,4.2-2.74A19.13,19.13,0,0,0,71.05,83.24ZM63.77,96.66a.24.24,0,0,0,0,.08s0,0,.07,0a.29.29,0,0,0,0-.09S63.8,96.67,63.77,96.66Z"/><path class="cls-4" d="M85.32,28.78c0,.33.08.77-.1,1a5.22,5.22,0,0,0-1.53,2.93l-1.11.06c-.35,0-.82.06-1-.14a15.2,15.2,0,0,1-1.4-1.68l.13-.53v-.79c.51.18,1,.15,1.06-.47a31.72,31.72,0,0,0-.17-3.22c0-.51-.54-1,.12-1.54.36-.3.26-.72-.44-.83-1.06-.18-2.36,0-2.74-1.34l-1.87-.08-.5,1.13c-1.21.27-2.41.55-3.63.81-.42.09-.84.14-1.26.21l-.42.14-1.82-.08-1.25-.58A14.79,14.79,0,0,0,69,22.44c.4-.42.56-1.11,1-1.42a2,2,0,0,0,1-1.25c.13-.5.44-.85,1-.34.15.13.56,0,.86-.07L74.3,19l.41-.2.24-.52,1-.28c.41.2.88.62,1.23.54,1.46-.32,2.39.66,3.51,1.21.73.36,1.13,1.52,2,1l1.17.68,1,1.62s-.06,0-.06.06a1.66,1.66,0,0,0,.06.16l.18,2.86a2.09,2.09,0,0,0,.18,2.46Z"/><path class="cls-4" d="M37.17,16.52a6.71,6.71,0,0,0,.31,1,3.69,3.69,0,0,0,.7,1,6,6,0,0,0,1,.64l-.08.59-.6.81.22.19,1-.15.55,1c-.88.15-1.2.84-.87,1.89a3.7,3.7,0,0,1-.82,3.91c.6.6.84,1.12-.06,1.78A6.29,6.29,0,0,0,37.36,31l-2.51,2.25c-.87.53-1.93.85-2.18,2l-.39-.21.08-1.16-.92.1L31.6,32A14.31,14.31,0,0,0,35,25.77c.16-.68.17-1.18-.52-1.51l-.23-.18v0l.23-.45.39-.36-.79-.45-.2-.41c.32-.43.27-.64-.29-.85a1.33,1.33,0,0,1-.22-2.25c.4-.26.92-.35,1.32-.62a7.8,7.8,0,0,0,1-1l1-1.21Z"/><path class="cls-6" d="M15.53,68.76l.06,4.06c-.15-.75-.31-1.49-.43-2.24-.16-1.13-.34-2.25-.42-3.39a15.29,15.29,0,0,1,.12-2.08,19.17,19.17,0,0,1-4.38-.54A27.82,27.82,0,0,1,6,62.05a5.63,5.63,0,0,1-2.08-3c-.5-1.16-1.43-2.21-1.62-3.39a6.73,6.73,0,0,1,.86-5.08c.21-.12.5-.19.63-.38.39-.6.73-1.24,1.09-1.87,0,.11.07.22.11.33-.13.7.18,1,.85.83l.72.32.16.8,1.13-.48,1.05,1.76c-.77.63-1.4,1-2.22.42-.1-.08-.54.07-.64.23a2.15,2.15,0,0,0,1,3.14l.17,1,.25.46,3.21,2.1L9.85,60.7c.6.73.58.72.1,1.75a1.17,1.17,0,0,0,.06.84,5.45,5.45,0,0,0,.58.89c.77,0,1.52-.06,2.26,0s1.35.37,2,.37.59.2.48.72A4.92,4.92,0,0,0,15.53,68.76ZM5,53.33,4.63,53c-.24.24-.62.45-.69.73s.22.6.35.9Z"/><path class="cls-7" d="M4.85,48.36c-.35.63-.69,1.27-1.08,1.87-.13.19-.42.26-.63.38L2.06,47.13c0-.41,0-.82,0-1.23a8.91,8.91,0,0,0,.14-3c-.83-2.77.54-4.36,2.62-5.74a9.12,9.12,0,0,1,6.22-1.9c.62.07,1.24.24,1.86.36-.26.41-.54.82-.79,1.24a5.45,5.45,0,0,0-.38.71c.65.4.3,1,.33,1.51C6.55,39.05,4.6,44.3,4.85,48.36Z"/><path class="cls-6" d="M35.74,17.74a7.8,7.8,0,0,1-1,1c-.4.27-.92.36-1.32.62a1.33,1.33,0,0,0,.22,2.25c.56.21.61.42.29.85l-3.19-1.38-.08,1.17-1.19-.13c-.53-.85-.12-1.29.8-1.56-.29-.17-.6-.34-.72-.25q-1.93,1.42-3.8,2.93c-.15.12-.13.43-.18.66-1.35,1.56-2.27,3.28-1.85,5.26a25.12,25.12,0,0,1-2.41-.82c-.21-.08-.28-.5-.41-.77l.29-.18-.32-.23L20.61,27c-.27-1.08-.72-2.18.22-3.19.05-.05,0-.19,0-.3l.22-.82.58-.42.58-.64h0l.44-.81c.08-.12.16-.23.23-.35l.8-.24c.25,0,.55.2.72.11a19.65,19.65,0,0,0,1.85-1.15,2.09,2.09,0,0,1,2.71.08,5.1,5.1,0,0,0,.83.43l-.37-1.56a8.87,8.87,0,0,0,2.3-.8,1.49,1.49,0,0,1,2.19.13C34.44,17.89,35,18.26,35.74,17.74Z"/><path class="cls-7" d="M20.85,23.47c0,.11,0,.25,0,.3-.94,1-.49,2.11-.22,3.19-1.31-.13-2.57-.77-3.92.15s-2.56,2.06-2.23,4c.24,1.39.43,2.78.65,4.17-.8.1-1.66.42-1.33-1.07a4,4,0,0,0-.57-2c-.1-.24-.46-.37-.71-.55v-1c0-.21.08-.42.11-.63-.16-2.94,1.88-4.28,4-5.53.32-.19.62-.41.92-.62l.43-.36,1.82-.09Z"/><path class="cls-8" d="M94.33,54.77a5.17,5.17,0,0,1-1-.44c-.41-.28-1-.6-1.07-1a3.46,3.46,0,0,1,0-2.14A6.61,6.61,0,0,1,94,49.06a2.4,2.4,0,0,1,3.39.5l.51.7a2.89,2.89,0,0,1,0,3.2,5,5,0,0,1-1.37,1c-.07-.32-.15-.64-.17-.73L94.7,54Z"/><path class="cls-8" d="M88.33,66.73a11.87,11.87,0,0,1-2.72-1.47c-.81-.76-.34-3.09.61-3.73a1.29,1.29,0,0,1,1.79,0,7.57,7.57,0,0,0,2.36,1,1.9,1.9,0,0,1,1.47,1.61c.12.83-.42,1.23-1.06,1.53S89.23,66.34,88.33,66.73Z"/><path class="cls-9" d="M19.4,10.84a3.64,3.64,0,0,1,1.24,5.76c-.3.37-.49.81-.77,1.19a3.1,3.1,0,0,1-3.19,1,2.59,2.59,0,0,1-2.19-2.48c.62-.41,1.13-1.12,2-.85l0,.4-.35.26.44.14a1.17,1.17,0,0,0,1.78.2,3.2,3.2,0,0,0,1.25-1.66c.16-.7-1-1.74-1.73-1.86a3.11,3.11,0,0,1,0-.61c.08-.44.19-.89.3-1.33L19,12.29Z"/><path class="cls-8" d="M33.27,12.49c-.7-.48-1.26-1-1-2a.44.44,0,0,0,0-.3c-.84-1.14,0-1.81.81-2.24a5.06,5.06,0,0,1,2.84-.83c1.7.29,2.11,2.84.84,4.19a4.53,4.53,0,0,1-3,1.18Z"/><path class="cls-10" d="M7.69,6.84C6.68,6,7,4.62,7.07,3.32a.59.59,0,0,1,.14-.27c.8-1,3.47-.93,4.25.05.09.1.17.29.26.29,1.15.06,1.09,1,.9,1.61a4,4,0,0,1-1.2,1.94c-.37.3-1.17.09-1.78.07S8.54,6.92,7.69,6.84Z"/><path class="cls-2" d="M35.74,17.74c-.72.52-1.3.15-1.82-.32a1.49,1.49,0,0,0-2.19-.13,8.87,8.87,0,0,1-2.3.8l.37,1.56a5.1,5.1,0,0,1-.83-.43,2.09,2.09,0,0,0-2.71-.08,19.65,19.65,0,0,1-1.85,1.15c-.17.09-.47-.07-.72-.11l.17-.62a17.14,17.14,0,0,1,3.2-2.38,49.91,49.91,0,0,1,5.6-1.76l1.26,0,1.58.53.45.34.8.27C36.42,16.94,36.08,17.34,35.74,17.74Z"/><path class="cls-11" d="M16.53,15.49c-.91-.27-1.42.44-2,.85h0l-.35-.64a4.7,4.7,0,0,1,.51-5.09l.07-.07a5.15,5.15,0,0,1,4.56.14.74.74,0,0,1,.12.17L19,12.29,18.28,11c-.11.44-.22.89-.3,1.33A3.11,3.11,0,0,0,18,13c-1-.31-1.43.17-1.46,1.12C16.49,14.56,16.52,15,16.53,15.49Z"/><path class="cls-10" d="M12.67,72.22a2.92,2.92,0,0,1-1.62,2.22c.06-.68.11-1.37.16-2,.5-.57.52-1-.21-1.46s-1.22-.26-2,1l1.4.69-.06.67a3.67,3.67,0,0,0-1.25-.07c-.81.29-1.11-.16-1.56-.69a4.28,4.28,0,0,0-1.42-.76c0-.21,0-.42.08-.62l1.52-.59L7,69.35a1.63,1.63,0,0,1,2.52-1l1.34.66.62.33.6.25c-.1.46-1.07.79-.24,1.35.25.16.68,0,1,0v.37C12.27,71.58,12.07,71.83,12.67,72.22Z"/><path class="cls-12" d="M12.5,31.62c.25.18.61.31.71.55a4,4,0,0,1,.57,2c-.33,1.49.53,1.17,1.33,1.07.26.93.55,1.86.78,2.8.34,1.4-.45,2.08-1.9,2a3.25,3.25,0,0,1-1.92-1c0-.51.32-1.11-.33-1.51a5.45,5.45,0,0,1,.38-.71c.25-.42.53-.83.79-1.24a.25.25,0,0,0,0-.12l.23-.22Z"/><path class="cls-13" d="M11.21,72.39c-.05.68-.1,1.37-.16,2-.13,0-.3,0-.39,0-1.64,1.21-2.89.22-4.11-.73a1.41,1.41,0,0,1-.42-1.94,4.28,4.28,0,0,1,1.42.76c.45.53.75,1,1.56.69a3.67,3.67,0,0,1,1.25.07l.06-.67Z"/><path class="cls-2" d="M83.88,21.42l-1.17-.68c-.9.49-1.3-.67-2-1-1.12-.55-2.05-1.53-3.51-1.21-.35.08-.82-.34-1.23-.54,2.62-.68,6,0,7.38,2.5Z"/><path class="cls-11" d="M83.32,72.23c1.17,0,1.6.58,1.56,1.85,0,.49-1.07,1.25-1.84,1.19-1.43-.12-.67-1.35-.83-2A.86.86,0,0,1,83.32,72.23Z"/><path class="cls-14" d="M64.31,97.33,64.72,96c.68-.06,1.2-.34.93-1.27a.59.59,0,0,1,.06-.46c.47-.46,1-.89,1.65-1.52-.2,1.1-.12,1.94.83,2.37A7.1,7.1,0,0,1,64.31,97.33Z"/><path class="cls-12" d="M81.86,12c0,.93-.55,1.83-1.1,1.64s-1.57-.19-1.73-1.13c-.1-.63,1-1.87,1.68-1.86C81.61,10.62,81.84,11.21,81.86,12Z"/><path class="cls-15" d="M84.59,1.54c-1.48,1.39-2.29,1.57-3.12.67-.64-.68.1-1.28.38-1.63C82.63-.37,83-.22,84.59,1.54Z"/><path class="cls-14" d="M69.41,10.19c-.61,1-1.07,1-2.21.62a9.45,9.45,0,0,0-2.62-.05c0-.21.07-.56.11-.91Z"/><path class="cls-9" d="M25.55,93c1.33-.49,2.37.36,3.59.79-.24.83.27,1.14,1,1.31.19,0,.34.24.51.37-1.29-.24-2.61-.33-3.61-1.39A8.46,8.46,0,0,0,25.55,93Z"/><path class="cls-15" d="M84.27,89c.13-.72.27-1.45.4-2.18L85,86.6c.38.33,1,.65,1.07,1a3.9,3.9,0,0,1-.6,1.9c-.07.14-.78-.07-1.19-.13Z"/><path class="cls-16" d="M94.33,54.77,94.7,54l1.68-.31c0,.09.1.41.17.73A1.53,1.53,0,0,1,94.33,54.77Z"/><path class="cls-14" d="M73.06,13.05c-.11.06-.3.11-.31.19-.1.46-.27.78-.81.53s-.43-.73-.23-1.18c.1-.2.24-.38.36-.57Z"/><path class="cls-17" d="M72.41,89.74l.06-.38,1.61-1.22c.62.43.6.76-.14,1C73.43,89.34,72.92,89.55,72.41,89.74Z"/><path class="cls-13" d="M7,69.35l.78,1.26-1.52.59-.09,0v-.43Z"/><path class="cls-14" d="M12.82,71c-.35,0-.78.12-1,0-.83-.56.14-.89.24-1.35C12.79,69.82,13,70.33,12.82,71Z"/><path class="cls-2" d="M74.3,19l-1.42.4,0-.44a1.34,1.34,0,0,1,0-.2l2.07-.48c-.07.17-.15.35-.23.52Z"/><path class="cls-1" d="M85.23,28.58a2.09,2.09,0,0,1-.18-2.46.19.19,0,0,1,.12,0l.15.64Z"/><path class="cls-17" d="M16.79,77.52c.12.48.23,1,.35,1.44l-1-.45Z"/><path class="cls-18" d="M40.63,98.14c.9-.59.67.5,1,.7C40.53,99.78,41,98.31,40.63,98.14Z"/><path class="cls-18" d="M75.06,84.69l.3-2Z"/><path class="cls-18" d="M31.24,95.71l1.9.36C32.51,96,31.75,96.48,31.24,95.71Z"/><path class="cls-19" d="M52.69,9.69,51,9.48C51.67,8.88,52.26,8.69,52.69,9.69Z"/><path class="cls-17" d="M81.64,51.08l.59-.34.21.94-.3.18Z"/><path class="cls-17" d="M20.85,23.47l-1-.1,1.26-.72C21,22.92,20.92,23.2,20.85,23.47Z"/><path class="cls-18" d="M33.92,15.39l-1.26,0C33.06,14.89,33.49,14.93,33.92,15.39Z"/><path class="cls-18" d="M88.4,46.11c-.27-.59-.13-.91.57-.87Z"/><path class="cls-17" d="M2.07,45.9c0,.41,0,.82,0,1.23C1.43,46.71,1.42,46.3,2.07,45.9Z"/><path class="cls-18" d="M23.86,19.56l-.17.62-.8.24Z"/><path class="cls-19" d="M71.33,91.22l.73-.83Z"/><path class="cls-19" d="M72.87,18.72a1.34,1.34,0,0,0,0,.2c-1,0-.27-.64-.37-1l.18,0Z"/><path class="cls-18" d="M47,98.79c0,.1.06.21.08.31l-1.11-.22Z"/><path class="cls-14" d="M12.67,72.22c-.6-.39-.4-.64.15-.83Z"/><path class="cls-18" d="M42.06,98.75l1-.14Z"/><path class="cls-18" d="M74.31,87.12l.27-.83C75,86.75,75,86.84,74.31,87.12Z"/><path class="cls-2" d="M22.66,20.77l-.44.81Z"/><path class="cls-19" d="M96.49,34.76l-.34-.9Z"/><path class="cls-19" d="M97.93,50.26l-.51-.7Z"/><path class="cls-18" d="M87.36,47.33,88,46.7Z"/><path class="cls-17" d="M76.83,65.91l.13-.62Z"/><path class="cls-18" d="M42.52,15.08l-.27.58Z"/><path class="cls-17" d="M61.32,8.36l-.15-.58.45.25Z"/><path class="cls-9" d="M14.14,15.69l.35.64Z"/><path class="cls-19" d="M12.61,30c0,.21-.07.42-.11.63C12.54,30.39,12.58,30.18,12.61,30Z"/><path class="cls-17" d="M58.81,7l-.63,0Z"/><path class="cls-19" d="M23.52,91.15l.6.66Z"/><path class="cls-18" d="M87.23,28.4l-.7.27Z"/><path class="cls-17" d="M77,63.45l-.15-.62Z"/><path class="cls-2" d="M22.23,21.59l-.58.64Z"/><path class="cls-18" d="M85.32,26.72l-.15-.64Z"/><path class="cls-14" d="M11.43,69.38l-.62-.33Z"/><path class="cls-17" d="M18,23.46l-.43.36Z"/><path class="cls-19" d="M53.68,9.57l-.59.19Z"/><path class="cls-18" d="M33.27,12.49h0Z"/><path class="cls-18" d="M91.06,28.68l-.43-.15Z"/><path class="cls-19" d="M94.5,31c-.13-.14-.25-.29-.37-.43C94.25,30.73,94.37,30.88,94.5,31Z"/><path class="cls-19" d="M49,9.56l-.41.22Z"/><path class="cls-17" d="M95.12,39.78l.41-.42Z"/><path class="cls-17" d="M76.83,67.34v-.43l.26.21Z"/><path class="cls-17" d="M6.12,70.79v.43L5.82,71Z"/><path class="cls-19" d="M54.29,8.55,54.08,9Z"/><path class="cls-18" d="M43.91,98.59h0Z"/><path class="cls-14" d="M63.88,97.69l.43-.36Z"/><path class="cls-18" d="M36,16.26l-.45-.34Z"/><path class="cls-18" d="M74.6,85.91l.29-.46Z"/><path class="cls-17" d="M84.27,89l0,.41L84,89.14Z"/><path class="cls-19" d="M70,93.25l.38-.45Z"/><path class="cls-18" d="M75.41,81.81l.1-.24Z"/><path class="cls-18" d="M13.13,35.3l-.23.22Z"/><path class="cls-14" d="M63.49,98.11l.19-.18Z"/><path class="cls-1" d="M84.87,23.26a1.66,1.66,0,0,1-.06-.16s0,0,.06-.06Z"/><path class="cls-6" d="M56.37,37.17c-.16.19-.3.53-.49.56-1.52.23-3,1.29-4.59.14a16.73,16.73,0,0,0-1.87-1c-.59-.82-1-1.85-2.4-1.46-.64.18-1.65-1.09-1.63-1.84,0-1,0-2,0-3.1l.86-.15c.09-.78.2-1.58.3-2.38l.16-.21.6-.22L47,27.07a.13.13,0,0,1,.09-.13l1.4.75a8.26,8.26,0,0,0,2.29-1.32c.57-.59.91-.73,1.52-.26-.4.58-.81,1.16-1.2,1.74a3.43,3.43,0,0,0,.1,4.47c1.07,1.46,1.76,1.54,3.21.38l1.1-.9,1,.86L58,31.51l-.07,1.42c.93-.65,1.82-1.06,2-2.2,0-.13.26-.24.4-.36h0c-.1.73-.21,1.45-.28,2.18,0,.16.14.33.22.49-.09.33-.18.67-.28,1a1.3,1.3,0,0,0-1.42,1.16c-.08,1.06-.82,1.22-1.54,1.53A3,3,0,0,0,56.37,37.17Z"/><path class="cls-6" d="M19.82,52l2.23,1.26c.68.84-.07,1.56-.21,2.33a2.82,2.82,0,0,1-.18.45l-.55.09c-.93-.14-1.63-.09-1.77,1.15a13.41,13.41,0,0,1-.74,2.52l.2,1.59-2.46-1.72L14,61.38l-.72-1.18c1.39.24,1.92-.87,2.56-1.71a5.18,5.18,0,0,0-.36-6.65,2.28,2.28,0,0,1-.76-2.23,16.64,16.64,0,0,0,0-3.31,2.33,2.33,0,0,1,1.43-2.09l1,1.9c.38,1.38.47,2.81.81,4.21S19.19,51.5,19.82,52Z"/><path class="cls-8" d="M71.44,48.55c.08.63.13,1.27.24,1.9.22,1.29-.78,1.94-1.42,2.77-.37.49-2.06.75-2.46.31-1-1.08-1.93-2.23-1.59-3.87.23-1.13.43-2.35,1.9-2.5a10.41,10.41,0,0,1,1.91.16l1.12,1.24h.3Zm-2.51,2.64.31.05c.11-.32.36-.68.3-1s-.49-.35-.76-.52l-.18.18Z"/><path class="cls-6" d="M60.67,45.07c-.3-.52-.6-1-.89-1.56.1-.55-.18-1.35.85-1.28h0c0,.48,0,.87.69.81,1.5-.15,1.74,0,2.29,1.4a2.75,2.75,0,0,0,.24.41Z"/><path class="cls-6" d="M60.63,42.23l.25-.32L61,42l-.32.25Z"/><path class="cls-11" d="M67.13,19.11A.23.23,0,0,1,67.2,19c.4,0,.81,0,1.21-.06s.68-.09,1-.15l.88-.19-2-1.11L69.17,16c.13,1.45,1.27,1.87,2.11,2.2L72.49,18c.1.33-.67,1,.37,1,0,.14,0,.29,0,.44-.3,0-.71.2-.86.07-.61-.51-.92-.16-1,.34A2,2,0,0,1,70,21c-.45.31-.61,1-1,1.42a14.79,14.79,0,0,1-1.62,1.3l1.25.58a2,2,0,0,1-2.3-.39,15,15,0,0,1-1.4-2.51c.78-.39.09-.64-.1-.93l.72-.42c0,.47.11.85.66.71a2.19,2.19,0,0,0,1.17-.57C67.5,20,67.22,19.49,67.13,19.11Z"/><path class="cls-20" d="M47.08,26.94,47,26.1l2.41-2.4a6.45,6.45,0,0,1,2.48-.16c1.51.54,1.57,1.39.41,2.57-.61-.47-.95-.33-1.52.26a8.26,8.26,0,0,1-2.29,1.32Z"/><path class="cls-6" d="M43,19.21a.26.26,0,0,1-.13-.08,2.32,2.32,0,0,0-.07-.8c-.33-.76-.67-1.46.21-2.11.14-.1.11-.43.16-.66.51.13,1.2.1,1.4.39a5.65,5.65,0,0,1,1.14,2.59,1.2,1.2,0,0,1-1.83.76A2.25,2.25,0,0,0,43,19.21Z"/><path class="cls-14" d="M70.45,13.41l.47-.29.18.3-.53.22Z"/><path class="cls-20" d="M13.29,60.2,14,61.38l2.33-1.69,2.46,1.72V62l.08,1.64L19,64l0,.39a1.05,1.05,0,0,1,.05.19.32.32,0,0,1,0,.09,3.77,3.77,0,0,0-.83.56,7.12,7.12,0,0,0-.68,1.09c-1.18.39-1.41,1.58-2,2.45a4.92,4.92,0,0,1-.18-3.48c.11-.52.2-.71-.48-.72s-1.34-.3-2-.37-1.49,0-2.26,0a5.45,5.45,0,0,1-.58-.89,1.17,1.17,0,0,1-.06-.84c.48-1,.5-1-.1-1.75l.79-1.46,1.62.77.62.18Z"/><path class="cls-15" d="M20.54,72c.44,2,.86,4,1.33,6,.21.88.51,1.73.78,2.59l-.74.1L22.06,82A2.07,2.07,0,0,1,21,79.93c.14-1.12-.17-1.57-1.14-1.82a1.69,1.69,0,0,1-.37-.22,4.87,4.87,0,0,0,.21-1.38,5,5,0,0,0-.56-1.37c-.16-.36-.35-.72-.53-1.08l.21-.61H19L19.82,72Z"/><path class="cls-21" d="M22.06,82l-.15-1.33.74-.1c1.05,1.9,2.08,3.81,3.17,5.69a18.27,18.27,0,0,0,1.38,1.83l-1.43.72a3.4,3.4,0,0,1-.95-1,3.58,3.58,0,0,0-1.74-2.11c-.22-.09-.27-.55-.4-.84.28-.45,1.31-.72.45-1.44-.44-.36-.92-.57-.74-1.26A2,2,0,0,0,22.06,82Z"/><path class="cls-6" d="M19.82,72,19,73.45A3.9,3.9,0,0,0,18.47,71c-.45-1.25-.95-2.71.17-3.64l-1.07-1.08a7.12,7.12,0,0,1,.68-1.09,3.77,3.77,0,0,1,.83-.56c.12.2.24.41.37.61a2.84,2.84,0,0,0-.4,1.06c0,.21.48.4.73.6l.39,2c-.63,0-.57.39-.53.81s.14.65,0,.83C19.21,71.17,19.5,71.58,19.82,72Z"/><path class="cls-5" d="M38.77,92.74l6.15.74c0,.29.07.58.15,1.2l-1.61-.88C41.74,94.61,40.32,93.39,38.77,92.74Z"/><path class="cls-21" d="M27.2,88.11l2.67,2.45c-.95-.46-1.92-.9-2.84-1.43C26.93,89.07,27.14,88.46,27.2,88.11Z"/><path class="cls-15" d="M22.06,82a2,2,0,0,1,.33.16c-.18.69.3.9.74,1.26.86.72-.17,1-.45,1.44-.08-.28-.07-.64-.24-.84A2,2,0,0,1,22.06,82Z"/><path class="cls-6" d="M18.8,73.45l-.21.61L18,73.75l.06-.22Z"/><path class="cls-21" d="M30.22,90.8l.63.35C30.26,91.72,30.25,91.24,30.22,90.8Z"/><path class="cls-5" d="M71.47,82l.2-.82Z"/><path class="cls-5" d="M70.64,80.59c0-.21,0-.43,0-.64C70.61,80.16,70.62,80.38,70.64,80.59Z"/><path class="cls-5" d="M70.5,78.55c0-.36.06-.71.08-1.07C70.55,77.84,70.53,78.19,70.5,78.55Z"/><path class="cls-5" d="M71.67,80.77l-.43,0,.25-.33Z"/><path class="cls-5" d="M70.84,81l-.19-.2Z"/><path class="cls-14" d="M63.77,96.66s.07,0,.07,0a.29.29,0,0,1,0,.09s-.07,0-.07,0A.24.24,0,0,1,63.77,96.66Z"/><path class="cls-11" d="M80.27,29.59c0-.27,0-.55,0-.81a3.65,3.65,0,0,0-2.56-4.17,10.38,10.38,0,0,1-2-1.37l.5-1.13,1.87.08c.38,1.3,1.68,1.16,2.74,1.34.7.11.8.53.44.83-.66.55-.16,1-.12,1.54a31.72,31.72,0,0,1,.17,3.22C81.31,29.74,80.78,29.77,80.27,29.59Z"/><path class="cls-8" d="M82.58,32.73c-1.06,1-2.14.92-2.76-.32-.18-.36.21-1,.34-1.5a15.2,15.2,0,0,0,1.4,1.68C81.76,32.79,82.23,32.7,82.58,32.73Z"/><path class="cls-11" d="M70.84,24.26l-.42.14Z"/><path class="cls-11" d="M74.3,19l.41-.2Z"/><path class="cls-11" d="M80.29,30.38c0-.13,0-.26,0-.39Z"/><path class="cls-2" d="M32.28,35.06c-.74.06-1.47.17-2.2.17-.9,0-.81-.64-.46-1.1a29.06,29.06,0,0,1,2-2.18c-.05.66-.1,1.32-.16,2.05l.92-.1Z"/><path class="cls-21" d="M34.27,24.1l-3.64-1.88.08-1.17,3.19,1.38.2.41.4.81Z"/><path class="cls-21" d="M34.85,33.23c0,1.73-.83,2.55-2.18,2C32.92,34.08,34,33.76,34.85,33.23Z"/><path class="cls-2" d="M39.13,19.76l.65.85-1,.15-.22-.19Z"/><path class="cls-6" d="M34.5,23.65l-.4-.81.79.45Z"/><path class="cls-6" d="M34.51,24.26l-.23-.18Z"/><path class="cls-10" d="M6.54,49.84a20.08,20.08,0,0,1,2.79.61,1.21,1.21,0,0,1,.16,2.12,3.36,3.36,0,0,1-.49.35,3.32,3.32,0,0,0-2,2.79,2.15,2.15,0,0,1-1-3.14c.1-.16.54-.31.64-.23.82.61,1.45.21,2.22-.42L7.83,50.16l-1.13.48Z"/><path class="cls-10" d="M5,53.33l-.73,1.26c-.13-.3-.4-.64-.35-.9s.45-.49.69-.73Z"/><path class="cls-7" d="M5,48.69l.85.83C5.15,49.64,4.84,49.39,5,48.69Z"/><path class="cls-10" d="M7.18,56.68c.09.15.17.3.25.46C7.35,57,7.27,56.83,7.18,56.68Z"/><path class="cls-22" d="M29.44,22.09l-3.9,1.78c.05-.23,0-.54.18-.66q1.86-1.5,3.8-2.93c.12-.09.43.08.72.25C29.32,20.8,28.91,21.24,29.44,22.09Z"/><path class="cls-7" d="M20.87,27.54l0-.41.32.23Z"/><path class="cls-11" d="M16.58,15.89l.09.4-.44-.14Z"/><path class="cls-17" d="M11.21,72.39l-.79.28L9,72c.76-1.31,1.19-1.5,2-1S11.71,71.82,11.21,72.39Z"/><path class="cls-1" d="M56.08,80.28a3.2,3.2,0,0,1-.83,3.79A39.56,39.56,0,0,1,51.46,87c-.51.34-1.29.26-1.92.46A10,10,0,0,1,43.1,87a3.68,3.68,0,0,1-1.5-1.17c-.79-1-1.49-2-2.21-3a.83.83,0,0,1-.14-.57c.07-.52,1.92-1.14,2.34-.8a2,2,0,0,1,.44.42c.86,1.51,2.62,1.38,3.9,2.13.16.1.45,0,.68-.07a16.43,16.43,0,0,1,2.46-.48A5.42,5.42,0,0,0,53,81.88,4.79,4.79,0,0,1,56.08,80.28Z"/><path class="cls-1" d="M30.92,67.61c-.13,0-.3-.07-.39,0-1.46.85-2.59-.16-3.8-.66-.63-.26-1.26-.5-1.87-.79s-1.38-.63-1.08-1.55a1.88,1.88,0,0,1,2.36-.8,2.65,2.65,0,0,0,2.85.07.75.75,0,0,1,.37-.09c2.28.37,4.45-.3,6.66-.66,1.07-.18,1.65-1,2.39-1.61a9.85,9.85,0,0,1,.93-.78c.23-.14.66-.3.77-.2a1.28,1.28,0,0,1,.5.93,6.32,6.32,0,0,1-.7,2.19,7.41,7.41,0,0,1-6,3.67c-1,.07-2,.24-3,.37Z"/><path class="cls-7" d="M60.28,65.91c-1.15-.29-2.36-.35-3.3-1.29S55,63,54.14,62.06c-.27-.28-.23-.86-.34-1.31.6.1,1-.78,1.74-.24A14.14,14.14,0,0,0,58.14,62a3.71,3.71,0,0,0,1.68.26c1-.07,1.92-.36,2.89-.43,2-.14,3.62-1.27,5.4-2,.49-.2,1.39-.42,1.58-.19a2.1,2.1,0,0,1-.09,2.91,14.41,14.41,0,0,1-7.7,3.13C61.37,65.73,60.84,65.83,60.28,65.91Z"/><path class="cls-5" d="M18.8,62v-.61l-.2-1.59a13.41,13.41,0,0,0,.74-2.52c.14-1.24.84-1.29,1.77-1.15-.23,1.38-.42,2.77-.71,4.14A9.83,9.83,0,0,1,19.65,62Z"/><path class="cls-3" d="M19.82,72c-.32-.44-.61-.85-.17-1.42.13-.18,0-.55,0-.83s-.1-.84.53-.81l.3,1.74c0,.09.05.19.08.28,0,.35,0,.69,0,1Z"/><path class="cls-3" d="M19.78,66.93c-.25-.2-.71-.39-.73-.6a2.84,2.84,0,0,1,.4-1.06l.19.32.11.29Z"/><path class="cls-6" d="M18.8,62h.85c-.26.54-.51,1.09-.77,1.63C18.85,63.12,18.83,62.57,18.8,62Z"/><path class="cls-15" d="M20.55,71c0-.09-.05-.19-.08-.28C20.5,70.79,20.52,70.89,20.55,71Z"/><path class="cls-6" d="M19.75,65.88l-.11-.29Z"/><path class="cls-6" d="M19.06,64.38,19,64Z"/><path class="cls-2" d="M19.82,52c-.63-.52-1.54-.39-1.85-1.7s-.43-2.83-.81-4.21a10.9,10.9,0,0,1,1.06,1.61C18.8,49.13,19.29,50.59,19.82,52Z"/><path class="cls-12" d="M29.5,24.92c2.06,1.31,2.1,1.85.24,2.95C28.37,26.41,28.35,26.16,29.5,24.92Z"/><path class="cls-23" d="M20.6,46.78l1.75.2a2.39,2.39,0,0,1,.17.89,4.34,4.34,0,0,1-.43,1c-.3-.18-.7-.3-.87-.56A8,8,0,0,1,20.6,46.78Z"/><path class="cls-6" d="M12.88,60.19,12.26,60Z"/><path class="cls-13" d="M51.44,15.58c.42-.47.74-.33,1.28,0A3.25,3.25,0,0,1,54.53,19a2,2,0,0,1-2.07,2c-.82,0-1.16-.42-1.41-1.06l1.43-2.51Z"/><path class="cls-2" d="M60.25,30.37c-.14.12-.39.23-.4.36-.14,1.14-1,1.55-2,2.2L58,31.51,56.5,32.66l-1-.86a15.25,15.25,0,0,1,1.82-2.5c.4-.37,1.21-.36,1.84-.43s.9.32,1,.91A3.16,3.16,0,0,0,60.25,30.37Z"/><path class="cls-11" d="M51.44,15.58l1,1.86L51.05,20a1.61,1.61,0,0,1-1.64-1.48,3.89,3.89,0,0,1,.9-2.09C50.54,16,51.05,15.84,51.44,15.58Z"/><path class="cls-23" d="M77.61,42.14c0-1.18.4-1.76,1.2-1.74a2.09,2.09,0,0,1,1.85,1.71c0,.74-1.23,1.25-2.16,1.33C77.75,43.5,77.61,43.26,77.61,42.14Z"/><path class="cls-2" d="M68.34,17.46l2,1.11-.88.19c-.33.06-.67.12-1,.15s-.81,0-1.21.06Z"/><path class="cls-2" d="M67.13,19.11c.09.38.37.9.22,1.1a2.19,2.19,0,0,1-1.17.57c-.55.14-.69-.24-.66-.71Z"/><path class="cls-1" d="M60.19,33c-.08-.16-.23-.33-.22-.49.07-.73.18-1.45.28-2.18A8.24,8.24,0,0,1,61,32.16C61,32.4,60.46,32.74,60.19,33Z"/><path class="cls-2" d="M64.8,20.49c.19.29.88.54.1.93C64.86,21.11,64.83,20.8,64.8,20.49Z"/><path class="cls-2" d="M46.71,27.72l.29-.65c.1.15.21.29.31.43Z"/><path class="cls-18" d="M68.93,51.19l-.33-1.26.18-.18c.27.17.72.3.76.52s-.19.65-.3,1Z"/></g></svg>