<svg xmlns="http://www.w3.org/2000/svg" viewBox="0 0 100 100"><defs><style>.cls-1{fill:#6caeb0;}.cls-2{fill:#7ab6b7;}.cls-3{fill:#5ca5a8;}.cls-4{fill:#72b2b3;}.cls-5{fill:#66abad;}.cls-6{fill:#8cc0c1;}.cls-7{fill:#8fc2c3;}.cls-8{fill:#75b3b5;}.cls-9{fill:#99c7c8;}.cls-10{fill:#a1cbcd;}.cls-11{fill:#88bebf;}.cls-12{fill:#93c4c5;}.cls-13{fill:#96c5c7;}.cls-14{fill:#9dc9cb;}.cls-15{fill:#6fb0b2;}.cls-16{fill:#82babc;}.cls-17{fill:#aad0d2;}.cls-18{fill:#a6ced0;}.cls-19{fill:#b0d3d5;}.cls-20{fill:#a4cdcf;}</style></defs><g id="Ebene_2" data-name="Ebene 2"><path class="cls-1" d="M30.58,43.64a2.12,2.12,0,0,0-.89.09c-1.18.72-2-.19-2.45-.87a47.37,47.37,0,0,0-6.13-7.13c-1.19-1.13-2.12-2.55-3.2-3.8-1.66-1.91-3.36-3.78-5-5.68-.67-.77-1.23-1.63-1.92-2.37C9.7,22.54,8.34,21.31,7.09,20c-.75-.81-1.28-1.81-2-2.59-1.14-1.17-2.42-2.19-3.59-3.32A5.66,5.66,0,0,1,.07,12.3a1.7,1.7,0,0,1,.32-1.54,2,2,0,0,1,1.73-.37,23,23,0,0,1,7.07,5.07c.72.73,1.57,1.31,2.31,2,2.19,2.08,4.71,3.77,6.56,6.25,1.63,2.18,3.51,4.14,5.26,6.23a3.12,3.12,0,0,1,.62,1.2c.63,2.48,2.41,4,4.25,5.52a9.76,9.76,0,0,1,.91,1c.88,1,1.79,1.9,2.65,2.88s.67,1.18-.25,1.89A6.54,6.54,0,0,0,30.58,43.64Z"/><path class="cls-2" d="M40.78,17.65a.31.31,0,0,1-.07-.18L38.25,14.2c-2.07-2.11-4.18-4.18-6.19-6.34a31.15,31.15,0,0,1-2.28-3c.17-1.53.34-1.66,2.13-1.71l.64.75c.27.44.56.88.81,1.34a1.82,1.82,0,0,0,2,1.18,3.32,3.32,0,0,1,1.05.13c.06.7-.06,1.46.17,1.6a6.4,6.4,0,0,1,2.61,2.47c.16.29.69.37.83.65.63,1.23.74,1.29,1.86.67l.69.69v.46c-.78,0-1,.59-.72,1a16.63,16.63,0,0,0,1.85,2.19l1.56,1.41,1.16,2c.91.64,1.13,2,2.36,2.31a3.91,3.91,0,0,1,1,.68l-.22.7.52.67a4.9,4.9,0,0,1,.32-.65c.06-.1.19-.16.29-.24l.22.26.43.66.48.48c-.15.53-.24,1.06.41,1.29s1.24.36,1.87.53l1.56,1.26.94.59a.32.32,0,0,1,.08.14l-.06.53.44.24.66.25.4.41.31-.39v-.05l1.33.31.48.63c.15.74.55.86,1.14.46l.48,0,.86.31.69.24,3.15.79.48.13,3.19.39,1.4.09h.86l.27.31.21-.26,3.33-.16.52-.36a.39.39,0,0,1,.2-.08l1-.45c.34,1.05,0,2.26.66,3.25-.14.22-.37.65-.42.63-1-.43-1.59.07-2.15.78l-1,0-1.77,0-1,0-2.66-1,.36-.88-2.56,1.16-.8-.2-.46-.17-2-1-1.06-1.15a6.65,6.65,0,0,1-1.26.13,14.17,14.17,0,0,1-1.55-.31l-.44,0c-.11-.29-.15-.73-.35-.82-1.07-.51-2.22-1.35-3.27-1.25s-1.68-.53-2.44-1c-1.13-.75-2.34-1.39-3.52-2.08l-.7-.65-.89-1-.41-.3c-.17-.21-.34-.41-.5-.62s-.15-.15-.22-.22c0-.68-.2-1.12-.94-1.15a.49.49,0,0,1-.17-.06,3.2,3.2,0,0,0-2.1-2.24c-.21-.24-.43-.47-.65-.7.06-.28.11-.55.17-.89L43,20.2l-1.82-2.07Z"/><path class="cls-3" d="M58.82,78.52c0-.37,0-.75,0-1.13l.06-.93,0-.68,0-.49,0-.66a14.1,14.1,0,0,0,.43-1.54c.05-.28-.2-.65-.1-.89.43-1,.61-1.86-.34-2.41.54-.89,1.05-1.69,1.53-2.51.16-.29.23-.63.39-.91a1.38,1.38,0,0,1,.54-.62c.15-.06.44.17.64.31l1.73,1.18a7.62,7.62,0,0,1,.27,1.31c.06,1.81.17,3.63.07,5.43-.07,1.34-.53,2.66-.65,4a17.88,17.88,0,0,0,.12,2.92,9.18,9.18,0,0,1,.11,1.47,7,7,0,0,0,1.28,4.54,4.27,4.27,0,0,0,1.93,1.49c1.71.7,2.81,2.18,4.28,3.17.22.14.24.58.35.88l.47.88.27-.06.17-.79.45-.08,2.92,2.43,1.13-1,.41,1.31-1,.21c-.45.08-1.16,0-1.31.28a11.05,11.05,0,0,0-.77,2.25l-1.34,0c-.17-.39-.34-.78-.53-1.2l.91-.32,0-.31a19.77,19.77,0,0,0-2.68-.66,1.18,1.18,0,0,1-1.18-1,2.66,2.66,0,0,0-.94-1.07,4.46,4.46,0,0,0-1-.39,16,16,0,0,0-2.06-.77c-.65-.15-1,.22-.87.94.05.29.12.59.18.89l-.5,0-.45-.46c-.11-.18-.22-.37-.34-.55l-.8-.83c0-.1-.11-.19-.17-.29a39,39,0,0,1-2.21-5.06,66,66,0,0,1-1.25-6.59C58.83,79.67,58.83,79.1,58.82,78.52Z"/><path class="cls-4" d="M80.07,38.47c.39.15.84.49,1.16.4,1.8-.53,3.52.41,5.29.25a1.83,1.83,0,0,1,1.68.63,10.82,10.82,0,0,0,2.31,1.31c1,.58,1.95,1.2,2.91,1.83a1.16,1.16,0,0,1,.37.54c.52,1.51,1.07,3,1.5,4.54a2.91,2.91,0,0,1-.16,1.53c-.16.5-.47.52-1,.35a6.34,6.34,0,0,1-3.88-3.52,5.24,5.24,0,0,0-2.84-2,20.47,20.47,0,0,0-4.63-.78A6,6,0,0,0,80.9,44c-.26-.66-.56-.65-.91-.07l-1.36.3.55-1.29c-1.19-.71-1.77-.43-1.84,1.07a4.36,4.36,0,0,1-1.4-.27,3.52,3.52,0,0,0-3-.26,1.76,1.76,0,0,0-1.52,1.68v.24l-.63,0-.52-.07a7.57,7.57,0,0,0-.89-1,3.23,3.23,0,0,0-1.41-.81c-.41,0-.86.39-1.35.65l-.4-.92-1.31.42a1.2,1.2,0,0,0-.13-.43c-.57-.7-1-1.36.2-1.86.13-.06.17-.32.26-.49a9.06,9.06,0,0,1,2.49,0,3.51,3.51,0,0,0,3.91-1l2-.38c.56,0,.71,1.32,1.62.45.37-.35,1.11-.29,1.69-.42l-.07-.41c.88.38,1.63.37,2.09-.6l.64-.08Z"/><path class="cls-5" d="M78.63,35c-.68-1-.32-2.2-.66-3.25a1.64,1.64,0,0,0,0-.23l.85-.73.51,0,.84,1.38.33-.06.41-2.24-1.37.7,0-.69.51-.68.39-.49a.36.36,0,0,1,.08-.2c.4-.8,2.15-.42,1.61-2L83.36,26l-.92-1.5c0-.35,0-.7-.07-1.05.63,0,1-.16,1-1-.07-1.49,0-3,0-4.48a14.15,14.15,0,0,0,.17-2,2.71,2.71,0,0,1,1.1-2.47c.49.53,1.41,1.16,1.32,1.47-.41,1.31.44,2.3.61,3.43s1.37,1.91.19,3a26.25,26.25,0,0,1-2,7.94c-.18.44-.2,1.19-.49,1.31-.82.35-.56.84-.42,1.37l-.19.24L82.26,31l-.35.35,1.28,1.5a1.9,1.9,0,0,1-1.51,1.35c-.31,0-.58.44-.86.68l-.37,0H78.63Z"/><path class="cls-6" d="M83.86,32c-.14-.53-.4-1,.42-1.37.29-.12.31-.87.49-1.31a26.25,26.25,0,0,0,2-7.94c1.18-1.09,0-2-.19-3s-1-2.12-.61-3.43c.09-.31-.83-.94-1.32-1.47a2.71,2.71,0,0,0-1.1,2.47,14.15,14.15,0,0,1-.17,2c0,1.5-.12,3,0,4.48,0,.85-.37,1-1,1a36.18,36.18,0,0,1,.46-8.94A19.88,19.88,0,0,0,82.75,11c-.13-2-.35-4.09-.43-6.14,0-.5.38-1,.58-1.54L83.17,5l0,.1,0-.1,1.55-.08-.65-2c.66,1,1.31,2,2,3l-.12.45v.44L84.55,9.34l1.59.49a15.15,15.15,0,0,0,.93,3.82c1.59,2.93.76,5.84.29,8.79a32.48,32.48,0,0,1-.62,3.68,14.23,14.23,0,0,1-1.15,2.44C85,29.7,84.44,30.84,83.86,32Z"/><path class="cls-4" d="M41,82c0-.24,0-.48,0-.72s0-.6,0-.91,0-.77,0-1.15l0-.93-.48-6.63c-.21-.78-.43-1.57-.65-2.36,0-.27-.05-.54-.07-.81-.18-1.2-.37-2.39-.55-3.58,0-.38,0-.76-.08-1.13a1.59,1.59,0,0,1,2-.56c.18,1.28.18,1.28,1,1.47l.48,4.09c0,1.1-.31,2.27.77,3.08,0,.6.07,1.2.11,1.8v2.69l-1,.31.74.55V84l-2.15-.9L41,82.68C41,82.45,41,82.23,41,82Z"/><path class="cls-7" d="M32.33,44l1.53-.73a1.92,1.92,0,0,1,.54.11c.28.15.53.34.8.51l.34-1.13a2.8,2.8,0,0,1,3.57,1c.43.52,1,.89,1.44,1.43.79,1.07.4,2.19-.83,2.35-.34,0-.75-.38-1.11-.61s-.72-.69-1-.62c-1.1.31-2.16.77-3.23,1.18a12.87,12.87,0,0,0-2.33.22c-.12,0,0,1,0,1.56A21.48,21.48,0,0,1,31,51.15a19.92,19.92,0,0,1-1.53,1.66l-.51-.19v-4l.06-.92c0-.15,0-.3.07-.44,1.57.26,2.27-.51,1.92-2.12l.4-.28c.55.75.93.27,1.34-.11Z"/><path class="cls-1" d="M74.08,97.87a11.05,11.05,0,0,1,.77-2.25c.15-.26.86-.2,1.31-.28l1-.21-.41-1.31-1.13,1L72.74,92.4a31.78,31.78,0,0,0,3.7-1.56,8.82,8.82,0,0,1,4.91-1.28c.23,1.09.47,2.18.7,3.28.16.46.31.92.47,1.39l-.65.41c-.64-.76-1.13-.33-1.4.29-.43,1-1,1.32-1.94,1a2.62,2.62,0,0,0-.92,0l-.36,1.46-2.93.76Z"/><path class="cls-8" d="M63.62,67.24l-1.73-1.18c-.2-.14-.49-.37-.64-.31a1.38,1.38,0,0,0-.54.62c-.16.28-.23.62-.39.91-.48.82-1,1.62-1.53,2.51,1,.55.77,1.43.34,2.41-.1.24.15.61.1.89a14.1,14.1,0,0,1-.43,1.54c-.18-2.28-.33-4.56-.55-6.84a3,3,0,0,0-.47-1.37c-1-1.51-2.15-3-3.17-4.46a11.63,11.63,0,0,1-.8-2l2.89-.41c1,1.05,1.76,1.83,2.5,2.65s1.59,1.89,2.43,2.8c.42.47.94.86,1.41,1.29l.28-.24Z"/><path class="cls-9" d="M52.5,62.08c-.73-.66-1.38-1.21-2-1.8-.9-.86-1.76-1.75-2.66-2.6a4.16,4.16,0,0,0-1.1-.78A1.66,1.66,0,0,1,46,54.13c.65-1,1.38-1.62,2.53-1.2a7.73,7.73,0,0,1,2.68,1.45,6.8,6.8,0,0,1,1.89,2.87,9.85,9.85,0,0,1-.06,3.46A5.58,5.58,0,0,1,52.5,62.08Z"/><path class="cls-10" d="M38.93,54.11Q37.28,59,35.62,63.82l-.36-.1a15.29,15.29,0,0,1-.93-6.58,14.6,14.6,0,0,1,2-5.74A5,5,0,0,1,38.15,50c.08,0,.45.39.69.61-.18,0-.49-.1-.52,0-.56,1-1.09,2-1.66,3.13Z"/><path class="cls-9" d="M50,46c2,.93,4.18,1,5.68,2.65A16.22,16.22,0,0,1,57,49.87a1,1,0,0,1-.09,1,1.18,1.18,0,0,1-1,.22c-2.09-.44-4.17-.9-6.24-1.43a2.06,2.06,0,0,0-2.16.58c-.21.21-.65.19-1,.28a3.37,3.37,0,0,1-.14-.92c.11-.65.1-1.56.51-1.87A19.71,19.71,0,0,1,50,46Z"/><path class="cls-11" d="M100,22.9c-.21,1.6-.46,3.67-.77,5.72-.06.34-.38.92-.55.91A1.93,1.93,0,0,1,97.32,29a3.07,3.07,0,0,1-.47-1.72c0-2.58.09-5.16.17-7.74a5,5,0,0,1,.27-1.13,6.25,6.25,0,0,1,1.14.34C100,19.54,99.36,21.16,100,22.9Z"/><path class="cls-12" d="M48.78,38.72c2-.51,3,1.38,2.94,2.91,0,1-.61,1.28-1.42.8-1.43-.83-1.88-.79-3.07.24A12.48,12.48,0,0,1,45.42,44a1.06,1.06,0,0,1-1-.1c-.67-.77-.6-2.8.19-3.38C45.85,39.63,47,38.31,48.78,38.72Z"/><path class="cls-13" d="M41.1,83.12l2.15.9v-6.8l-.74-.55,1-.31V73.67c.14.17.36.31.39.5a22.29,22.29,0,0,1,.66,4.61c-.14,2.81.46,5.63-.26,8.44A20.44,20.44,0,0,0,43.68,92c0,1.25-1,1.59-1.61,2.28-.09.1-.49.1-.51,0-.28-.7-.52-1.41-.77-2.13l.37.67,1.77-.13c0-1-.35-2.16.09-2.83a3.27,3.27,0,0,0,.35-2.68c-.16-.87-.45-1.72-.67-2.54-1.58-.23-1.49-.21-1.38,1.24a11.66,11.66,0,0,1-.48,2.81C40.93,86.84,41,85,41.1,83.12Z"/><path class="cls-12" d="M45.71,67.79c-.15-.4-.23-.57-.28-.75-.61-2.24-1.28-4.46-1.77-6.72-.13-.57.32-1.27.5-1.9.54.26,1.44.4,1.56.8a43.59,43.59,0,0,1,1.49,6.19A2.7,2.7,0,0,1,45.71,67.79Z"/><path class="cls-1" d="M64.56,94c-.06-.3-.13-.6-.18-.89-.13-.72.22-1.09.87-.94a16,16,0,0,1,2.06.77,4.46,4.46,0,0,1,1,.39,2.66,2.66,0,0,1,.94,1.07,1.18,1.18,0,0,0,1.18,1,19.77,19.77,0,0,1,2.68.66l0,.31-.91.32c.19.42.36.81.53,1.2l-.71.07a.87.87,0,0,1-.18-.11c-.88-.5-1.69-1.26-2.83-.76l-.35-.15c-.18-.25-.35-.71-.55-.73a3.44,3.44,0,0,1-2.29-1.44A4.39,4.39,0,0,0,64.56,94Z"/><path class="cls-14" d="M34.42,38.49V36.1a4.28,4.28,0,0,1,3.88.22c1.68.86,1.63,2.62.9,4-.09.17-.81.26-.89.14C37.38,39.13,36,38.75,34.42,38.49Z"/><path class="cls-15" d="M40.84,88.7a11.66,11.66,0,0,0,.48-2.81c-.11-1.45-.2-1.47,1.38-1.24.22.82.51,1.67.67,2.54A3.27,3.27,0,0,1,43,89.87c-.44.67-.09,1.86-.09,2.83l-1.77.13-.37-.67C40.81,91,40.82,89.85,40.84,88.7Z"/><path class="cls-14" d="M80.14,80.91c-1-.84-2.09-1.64-3.06-2.55a1.44,1.44,0,0,1-.33-1.2c0-.22.64-.39,1-.43a4,4,0,0,1,4,3,13.28,13.28,0,0,1,.33,2.3l-1.33-1.3.09-.39Z"/><path class="cls-14" d="M41.85,11.91c-1.12.62-1.23.56-1.86-.67-.14-.28-.67-.36-.83-.65a6.4,6.4,0,0,0-2.61-2.47c-.23-.14-.11-.9-.17-1.6a3.32,3.32,0,0,0-1.05-.13,1.82,1.82,0,0,1-2-1.18c-.25-.46-.54-.9-.81-1.34a4.59,4.59,0,0,1,3.62,1.76c1.82,1.82,3.59,3.69,5.37,5.56A2.37,2.37,0,0,1,41.85,11.91Z"/><path class="cls-7" d="M82.05,92.84l-.7-3.28c.8-.41,1.58-.88,2.41-1.21s1.49-.14,1.48,1l0,.51-.22.46-.22,1.41a.66.66,0,0,1-.06.2l-.85.81,0-.19Z"/><path class="cls-16" d="M41,37c.49-1.66,1-3.32,1.46-5a1.05,1.05,0,0,1,1.62-.63c.24.11.38.85.28,1.23-.24,1-.64,2-1,3-.84.09-1.72.11-1.9,1.25C41.5,37,41.19,37,41,37Z"/><path class="cls-10" d="M80.49,85.26c-.24.56-.45,1.13-.71,1.69a1.6,1.6,0,0,1-2,1c-.75-.27-1.71-.59-1.59-1.77,0-.21.13-.58.21-.58,1.34,0,2.27-1,3.41-1.51Z"/><path class="cls-4" d="M44.41,52.46a3.43,3.43,0,0,1-1.62,2.68.8.8,0,0,1-.78,0,3.4,3.4,0,0,1-.23-3.52c.36-.46.72-1,1.33-.56A9.22,9.22,0,0,1,44.41,52.46Z"/><path class="cls-11" d="M71.38,45.12a1.76,1.76,0,0,1,1.52-1.68,3.52,3.52,0,0,1,3,.26,4.36,4.36,0,0,0,1.4.27c.07-1.5.65-1.78,1.84-1.07-.19.43-.37.86-.55,1.29l-.46.47-.84,0h-2.4l-.61,0-1.27-.6Z"/><path class="cls-8" d="M40.89,47.79A14.51,14.51,0,0,1,43,46c.42-.25,1.41.93,1.19,1.69a7.41,7.41,0,0,1-1.36,2Z"/><path class="cls-15" d="M40.61,57a8.32,8.32,0,0,1,2,1.47c.62.86-.52,1.34-.79,2a.77.77,0,0,1-.72.24,1.33,1.33,0,0,1-1-1.47c.08-.67.12-1.34.18-2Z"/><path class="cls-1" d="M75,83.23c-.83.12-1.54,0-1.65-.93s.94-2.24,1.69-2.08c1,.2,1.19,1,1.17,1.92S75.91,83.55,75,83.23Z"/><path class="cls-1" d="M45.55,37.63c-.68.4-1.3.17-1.21-.51a4.34,4.34,0,0,1,1.07-1.82c.11-.16.49-.09.75-.16.94-.22,1.57.31,1.17,1.16-.3.65-1,1.1-1.58,1.63Z"/><path class="cls-17" d="M50.7,23.21c-.1.08-.23.14-.29.24a4.9,4.9,0,0,0-.32.65c-.18-.22-.35-.44-.52-.67l.22-.7a3.91,3.91,0,0,0-1-.68c-1.23-.33-1.45-1.67-2.36-2.31v-.46c.65.25,1,.14.9-.68l0,0c.11,0,.26.05.31.12Q49.18,20.94,50.7,23.21Z"/><path class="cls-14" d="M50.24,27.82c1.18.69,2.39,1.33,3.52,2.08.76.5,1.25,1.13,2.44,1s2.2.74,3.27,1.25c.2.09.24.53.35.82-2.67-.91-5.45-1.57-7.6-3.61C51.61,28.82,50.9,28.34,50.24,27.82Z"/><path class="cls-8" d="M80.49,85.26l-.73-1.2c1.28-.91.61-2.06.39-3.15l.69-.59-.09.39L82.08,82C82.42,83.53,81.45,84.39,80.49,85.26Z"/><path class="cls-14" d="M71.6,39.85a3.51,3.51,0,0,1-3.91,1,9.06,9.06,0,0,0-2.49,0,5.15,5.15,0,0,1,4-1.27C70,39.74,70.81,39.79,71.6,39.85Z"/><path class="cls-4" d="M31.43,51.84h1.73c.65,1,0,1.8-.5,2.47-.17.25-1.19.22-1.52-.05C30,53.31,31.73,52.78,31.43,51.84Z"/><path class="cls-11" d="M64.87,43.7l1.31-.42.4.92c.49-.26.94-.7,1.35-.65a3.23,3.23,0,0,1,1.41.81,7.57,7.57,0,0,1,.89,1v.22h-.68a2.66,2.66,0,0,1-.89-.38c-.89-.92-1.46-.6-1.91.74-.23-1.31-.76-1.86-1.85-1.54Z"/><path class="cls-11" d="M38.93,54.11l-2.27-.37c.57-1.09,1.1-2.12,1.66-3.13,0-.06.34,0,.52,0,.18.38.35.76.53,1.13v.72c0,.22-.06.44-.08.66s-.15.3-.22.46Z"/><path class="cls-18" d="M41,37c.17,0,.48-.06.49-.13.18-1.14,1.06-1.16,1.9-1.25-.15.57-.27,1.16-.45,1.71s-.48,1.24-.78,2A2.08,2.08,0,0,1,41,37Z"/><path class="cls-14" d="M31.91,3.12c-1.79,0-2,.18-2.13,1.71-.41-.76-.86-1.49-1.19-2.28-.06-.14.39-.72.53-.7C30.14,2.06,31.29,2,31.91,3.12Z"/><path class="cls-19" d="M78.9,38.49c-.46,1-1.21,1-2.09.6l.07.41c-.58.13-1.32.07-1.69.42-.91.87-1.06-.45-1.62-.45a6.36,6.36,0,0,1,1.62-.7C76.42,38.6,77.66,38.58,78.9,38.49Z"/><path class="cls-17" d="M45.24,17.69l-1.56-1.41c-.09-.35-.06-.79-.27-1-.54-.6-.34-1.05.1-1.54l.85,1.19-.32.68.83.17,1.31,1.45Z"/><path class="cls-17" d="M64.9,44.38c1.09-.32,1.62.23,1.85,1.54.45-1.34,1-1.66,1.91-.74a2.66,2.66,0,0,0,.89.38c-1.21-.05-2.39,1-3.59.23C65.5,45.49,65.25,44.86,64.9,44.38Z"/><path class="cls-6" d="M82.44,24.51l.92,1.5-1.23.55c.54,1.54-1.21,1.16-1.61,2Z"/><path class="cls-14" d="M77.25,97.39l.36-1.46a2.62,2.62,0,0,1,.92,0c1,.3,1.51,0,1.94-1,.27-.62.76-1.05,1.4-.29-1,.68-1.89,1.41-2.89,2A10.13,10.13,0,0,1,77.25,97.39Z"/><path class="cls-13" d="M42.1,64.7c-.83-.19-.83-.19-1-1.47a1.59,1.59,0,0,0-2,.56c.13-.5.13-1.32.4-1.42a1.72,1.72,0,0,1,1.59.24A8.08,8.08,0,0,1,42.1,64.7Z"/><path class="cls-14" d="M67.43,35.71,70,34.55l-.36.88,2.66,1a2.71,2.71,0,0,1-1,.3c-1.18-.18-2.35-.44-3.53-.69C67.64,36,67.54,35.81,67.43,35.71Z"/><path class="cls-14" d="M64.56,94a4.39,4.39,0,0,1,1.27.73,3.44,3.44,0,0,0,2.29,1.44c.2,0,.37.48.55.73A8.55,8.55,0,0,1,64.06,94Z"/><path class="cls-17" d="M31,45.09c.35,1.61-.35,2.38-1.92,2.12C28.77,45.65,30.09,45.58,31,45.09Z"/><path class="cls-17" d="M86.14,9.83l-1.59-.49L85.9,6.83Z"/><path class="cls-14" d="M78.63,35h.68l.74.52c-.11.15-.2.39-.34.43-1.07.28-2.14.54-3.22.77-.12,0-.28-.19-.43-.3.56-.71,1.18-1.21,2.15-.78C78.26,35.63,78.49,35.2,78.63,35Z"/><path class="cls-19" d="M32.1,49.24c0-.54-.13-1.52,0-1.56a12.87,12.87,0,0,1,2.33-.22Z"/><path class="cls-20" d="M43.51,13.71c-.44.49-.64.94-.1,1.54.21.24.18.68.27,1a16.63,16.63,0,0,1-1.85-2.19c-.27-.44-.06-1.07.72-1l.69.22Z"/><path class="cls-14" d="M82.05,92.84l1.78-.32,0,.19.85-.81a3.08,3.08,0,0,1-2.19,2.33C82.36,93.76,82.21,93.3,82.05,92.84Z"/><path class="cls-17" d="M83.17,5,82.9,3.31l1.17-.41.65,2L83.17,5Z"/><path class="cls-14" d="M60.26,33.05a14.17,14.17,0,0,0,1.55.31,6.65,6.65,0,0,0,1.26-.13l1.06,1.15a26.48,26.48,0,0,1-2.85-.49C60.89,33.79,60.6,33.34,60.26,33.05Z"/><path class="cls-20" d="M45.24,17.69l.94-.49h0l.44.47a.44.44,0,0,1,0,.2c0,.16,0,.32,0,.49l-.23.92v.46Z"/><path class="cls-17" d="M54.11,26.43c-.63-.17-1.26-.32-1.87-.53s-.56-.76-.41-1.29Z"/><path class="cls-17" d="M71.38,45.12l1.67-1,1.27.6-2.94.69Z"/><path class="cls-14" d="M38.25,14.2l2.46,3.27Z"/><path class="cls-13" d="M39.19,64.92c.18,1.19.37,2.38.55,3.58C39.55,67.31,39.37,66.11,39.19,64.92Z"/><path class="cls-2" d="M83.19,32.89l-1.28-1.5.35-.35,1.41,1.18Z"/><path class="cls-14" d="M69,97.05c1.14-.5,2,.26,2.83.76Z"/><path class="cls-13" d="M43.35,71.87c-1.08-.81-.79-2-.77-3.08C42.84,69.82,43.09,70.85,43.35,71.87Z"/><path class="cls-17" d="M35.54,42.71l-.34,1.13c-.27-.17-.52-.36-.8-.51a1.92,1.92,0,0,0-.54-.11Z"/><path class="cls-14" d="M44.31,21.62a3.2,3.2,0,0,1,2.1,2.24Z"/><path class="cls-17" d="M32.33,44l.37.75c-.41.38-.79.86-1.34.11Z"/><path class="cls-17" d="M60.24,30.35l-.48-.63,2.1,1.07-.48,0Z"/><path class="cls-17" d="M74.93,44.7h2.4A1.91,1.91,0,0,1,74.93,44.7Z"/><path class="cls-14" d="M72,97.92l.71-.07,1.34,0,.24.28Z"/><path class="cls-17" d="M56.63,29l.06-.53,1.74,1v.05l-.71,0-.66-.25Z"/><path class="cls-13" d="M39.81,69.31c.22.79.44,1.58.65,2.36C40.25,70.89,40,70.1,39.81,69.31Z"/><path class="cls-17" d="M78.17,44.66l.46-.47,1.36-.3a.81.81,0,0,1,0,.22Z"/><path class="cls-20" d="M44.87,15.75,44,15.58l.32-.68Z"/><path class="cls-14" d="M73.33,36.4l1.77,0Z"/><path class="cls-1" d="M72.29,92.48l-.17.79-.27.06-.47-.88Z"/><path class="cls-14" d="M46.58,23.92c.74,0,1,.47.94,1.15C47.21,24.68,46.9,24.3,46.58,23.92Z"/><path class="cls-14" d="M84.77,91.7,85,90.29Z"/><path class="cls-17" d="M71.63,32.74l-1.4-.09Z"/><path class="cls-11" d="M80,44.11a.81.81,0,0,0,0-.22c.35-.58.65-.59.91.07Z"/><path class="cls-14" d="M43,20.2l.83-.17c-.06.34-.11.61-.17.89Z"/><path class="cls-8" d="M58.82,78.52c0,.58,0,1.15,0,1.73C58.83,79.67,58.83,79.1,58.82,78.52Z"/><path class="cls-14" d="M48.65,26.21l.89,1Z"/><path class="cls-2" d="M80.05,35.49,79.31,35h1.14l-.23.46A.49.49,0,0,1,80.05,35.49Z"/><path class="cls-6" d="M79.54,29.89c0,.23,0,.46,0,.69l-.21.22-.51,0Z"/><path class="cls-17" d="M56.61,28.28l-.94-.59Z"/><path class="cls-13" d="M41,80.38c0,.31,0,.61,0,.91C41,81,41,80.69,41,80.38Z"/><path class="cls-13" d="M40.94,78.3l0,.93Z"/><path class="cls-6" d="M78,31.5a1.64,1.64,0,0,1,0,.23l-1,.45Z"/><path class="cls-17" d="M29,47.65l-.06.92Z"/><path class="cls-8" d="M58.89,76.46l-.06.93Z"/><path class="cls-17" d="M46.63,18.36c0-.17,0-.33,0-.49l.68.7,0,0Z"/><path class="cls-17" d="M43.24,13.28l-.69-.22c0-.16,0-.31,0-.46Z"/><path class="cls-13" d="M41,82c0,.22,0,.44,0,.67C41,82.45,41,82.23,41,82Z"/><path class="cls-10" d="M39.38,52.5v-.72C39.92,52,39.92,52.26,39.38,52.5Z"/><path class="cls-17" d="M63.41,31.34l-.69-.24Z"/><path class="cls-14" d="M80.22,35.43l.23-.46.37,0Z"/><path class="cls-17" d="M51.35,24.13l-.43-.66Z"/><path class="cls-14" d="M47.74,25.29c.16.21.33.41.5.62C48.07,25.7,47.9,25.5,47.74,25.29Z"/><path class="cls-17" d="M85.91,6.39,86,5.94Z"/><path class="cls-6" d="M73,32.78l-.21.26-.27-.31Z"/><path class="cls-14" d="M63.27,93c.12.18.23.37.34.55C63.5,93.39,63.39,93.2,63.27,93Z"/><path class="cls-6" d="M76.82,32.26l-.52.36Z"/><path class="cls-17" d="M46.62,17.67l-.44-.47Z"/><path class="cls-14" d="M40.78,17.65l.4.48Z"/><path class="cls-14" d="M66.17,35.34l.46.17Z"/><path class="cls-10" d="M39.08,53.62c.07-.16.15-.31.22-.46C39.23,53.31,39.15,53.46,39.08,53.62Z"/><path class="cls-17" d="M67,32.26l-.48-.13Z"/><path class="cls-19" d="M80.07,38.47l-.53-.06Z"/><path class="cls-14" d="M85.21,89.83l0-.51a3.83,3.83,0,0,0,.29.28Z"/><path class="cls-8" d="M58.83,75.29l0,.49Z"/><path class="cls-17" d="M70.23,45.56v-.22l.52.07Z"/><path class="cls-6" d="M80.44,28.72l-.39.49Z"/><path class="cls-14" d="M62.3,91.9c.06.1.12.19.17.29C62.42,92.09,62.36,92,62.3,91.9Z"/><path class="cls-13" d="M60.24,30.35l1.14.46C60.79,31.21,60.39,31.09,60.24,30.35Z"/><path class="cls-18" d="M49.79,22.73l-.22.7Z"/><path class="cls-13" d="M57.73,29.44l.71,0-.31.39Z"/><path class="cls-13" d="M56.63,29l.44.24Z"/><path class="cls-2" d="M79.31,30.8l.21-.22,1.37-.7-.41,2.24-.33.06Z"/><path class="cls-17" d="M83.17,5l0,.1,0-.1Z"/><path class="cls-18" d="M46.63,18.36l.67.24c.14.82-.25.93-.9.68Z"/></g></svg>