<svg xmlns="http://www.w3.org/2000/svg" viewBox="0 0 100 100"><defs><style>.cls-1{fill:#52a1a3;}.cls-2{fill:#67abad;}.cls-3{fill:#6dafb1;}.cls-4{fill:#8ec1c2;}.cls-5{fill:#9cc9ca;}.cls-6{fill:#7db7b9;}.cls-7{fill:#70b0b2;}.cls-8{fill:#62a9ab;}.cls-9{fill:#99c7c8;}.cls-10{fill:#93c4c5;}.cls-11{fill:#96c5c7;}.cls-12{fill:#eef6f6;}.cls-13{fill:#e1eeef;}.cls-14{fill:#e9f3f3;}.cls-15{fill:#f1f8f8;}.cls-16{fill:#91c2c4;}.cls-17{fill:#89bebf;}.cls-18{fill:#a5cdcf;}.cls-19{fill:#83bbbc;}.cls-20{fill:#a9cfd1;}</style></defs><g id="Ebene_3" data-name="Ebene 3"><path class="cls-1" d="M26.94,34.88l2.11-3.19,1.56-.53.92.75-.68,1.52a2.29,2.29,0,0,0-.29,1,4.61,4.61,0,0,0,.75,4.14.39.39,0,0,1,.08.14l-.06.77v.45l.45.47-1.39.45a16.83,16.83,0,0,1,1.06,2.07c.08.21-.18.68-.42.85s-.64.11-1.22.19c1.11,1.43-.92,3,.37,4.17l-.24,1.44v.68c-.11.68-.25,1.37.68,1.62L31.56,53c-.83,1.21.54,1.72.88,2.71a10.72,10.72,0,0,1-1.81,0,2.89,2.89,0,0,0-.91.31l-.47,1.14.24,1.38v.91c-.66.77.29,1.05.54,1.47a3.73,3.73,0,0,0,1.49,1.38c.55.25,1.39,1.7,1,2.22a1.41,1.41,0,0,1-.65.35c-.2.06-.44,0-.63.07-.85.29-1.24,0-1.19-.91,0-.19,0-.38,0-.67a4.22,4.22,0,0,1-1.18.64c-.57.09-1.13,0-1.35.76-.05.14-.54.14-.83.2a12.59,12.59,0,0,0,.21-2c-.19-3.08-.44-6.15-.66-9.22a7.53,7.53,0,0,1-.2-1.32c.06-2.11.16-4.22.22-6.33.09-2.88.14-5.75.21-8.62C26.63,36.56,26.79,35.72,26.94,34.88Zm3.44,18-.33.25c.05.08.13.23.16.22a.49.49,0,0,0,.3-.2S30.43,53,30.38,52.93Z"/><path class="cls-2" d="M62.9,28.36c.59.21,1.2.39,1.79.62.93.35,1.86.74,2.78,1.11l1.43,1.34a9,9,0,0,1,4.21,5.88c.14.54-.41,1.27-.68,1.9a8.7,8.7,0,0,1-.53.94,3.32,3.32,0,0,1-3.16,1c-.26-.06-.66.52-1,.81l-1.61.26L64.56,42c0-1.08-.07-2.11,1.08-2.88A7.85,7.85,0,0,0,67,37.57c1.51-1.21,1.54-1.68.22-3.13-.2-.22-.34-.57-.58-.68-.65-.3-1.34-.49-2-.73-.12.41-.25.82-.39,1.22,0,0-.1.08-.32.25-.51-1.4-1.11-2.79-3.13-2.32a27,27,0,0,1,0,2.85c0,.34-.45.64-.7.95-.3-.25-.77-.44-.88-.76a16.53,16.53,0,0,1-.45-2.33,9.79,9.79,0,0,0-.4-2.34c-.35-.77-3-1.26-3.88-.88L52,29.83l.44-1.14.11-.22v-.24l1.38-2.54,2.47.51c1.17.3,2.35.56,3.5.92,1,.31,1.88.74,2.82,1.11Z"/><path class="cls-3" d="M63.11,96.77l-1.61.93-1.13.46a1.48,1.48,0,0,0,0,.21l-.9,0-1.7-.22a1.54,1.54,0,0,0-1.78.86l-.44.07-.48.15-.2.11-.7-.06c-.3-.06-.64-.26-.87-.16-.55.23-1.47-.56-1.69.57l-.67.13-2.49-1.49-1.93.73-3.33-1.29c-.1,0-.24-.14-.31-.11-1.67.83-2.89-.43-4.28-.89a2.63,2.63,0,0,0-.57,0l-1.17-.65h0c-.21-.31-.42-.63-.64-.94s-.34-.44-.51-.66c0-.25.24-.62.14-.73-.48-.52-1-1-1.61-1.51L33.9,93.7l-1.2-.81-.93-.9,1.2-.33,1.82-1.29,1.92,0,.41.2,0,.54c-.65.05-1.32.08-1,1.11l1-.21.69.24,1.61,1.14v.46L39,94l.36.28a1.62,1.62,0,0,0,2.55-.77c.59.27,1.2.5,1.76.82a15.22,15.22,0,0,0,1.57,1,19.41,19.41,0,0,0,2.81.86,11.62,11.62,0,0,0,3.1.55A24.84,24.84,0,0,0,55,96c1.5.14,3,1.43,4.47-.18l1,.64c.37-.57,1.45-.59,1.28-1.68l-2.22.82c0-.23,0-.6.16-.67.69-.35,1.42-.63,2.14-.93l2.09,2.1Z"/><path class="cls-4" d="M67.74,42c.34-.29.74-.87,1-.81a3.32,3.32,0,0,0,3.16-1c0,.53,0,1.06,0,1.59,0,1.24,0,2.47,0,3.7a36.44,36.44,0,0,1-1.11,7,40.26,40.26,0,0,0-1,7.61c0,1.14,0,2.35.07,3.53-1.29.18-.26.75-.19,1.16l0,.46-.09.21c-.52,0-.86-1-1.52-.26,0,0-.27-.06-.29-.13-.34-1-1.17-.73-1.89-.74.07-.63.14-1.26.22-1.89l.57.43a14.3,14.3,0,0,0,.85-1.86,2.65,2.65,0,0,0-.68-2.65l-.45-.46v-.45l.35-.28-.33-.19c0-.23,0-.45,0-.67a2.76,2.76,0,0,0,1.9-2.6c-.09-.87-.64-1.91.77-2.45.31-.11.33-1,.44-1.54,0-.07-.27-.28-.3-.26-.29.21-.56.46-.89.74l-.61-1.48c0-.49.06-1,.13-1.46.18-1.46.39-2.91.58-4.37C68.51,42.28,68.39,41.89,67.74,42Z"/><path class="cls-5" d="M31.77,92l.93.89a5,5,0,0,0,.3,1c.25.43.57.83.86,1.24,0,.05,0,.1,0,.16l-1.31-.12-1-.72-1.13-1.1-.71-.73a11.47,11.47,0,0,1-1.07-1.14A13.68,13.68,0,0,1,26,84.7c-.14-1.67-.54-3.33-.61-5-.05-1.25.36-2.52.37-3.78,0-2.66,0-5.33-.2-8A57.82,57.82,0,0,1,26,58.44c0-.71-.17-1.44-.14-2.15.05-.88.23-1.74.36-2.61.22,3.07.47,6.14.66,9.22a12.59,12.59,0,0,1-.21,2c-.07.17-.22.34-.21.5.16,1.76.33,3.52.5,5.27a10.76,10.76,0,0,0,.23,2.07c.25.79.58,1.48-.09,2.22-.13.14-.07.49,0,.73a10,10,0,0,1,.28,1.51,21.05,21.05,0,0,0-.16,2.48c.3,2.35.72,4.68,1.09,7l.69,1.6v.44l.23.47,1.14.93C30.85,90.77,31.31,91.38,31.77,92Z"/><path class="cls-5" d="M65.86,64.24c.72,0,1.55-.26,1.89.74,0,.07.26.15.29.13.66-.73,1,.26,1.52.26-.17,1.63-.34,3.25-.49,4.88-.07.74-.1,1.49-.15,2.24-.06.23-.11.47-.17.7s-.06.75-.1,1.13-.09.93-.14,1.39c-.27,1.16-.58,2.32-.81,3.48A14.89,14.89,0,0,0,67.58,81l.06.48-.12.45-.27.23c-.37-.22-.74-.43-1.1-.66l-1.8-1.18,0-.92.13-.46q.46-5.37.95-10.72C65.58,66.86,65.73,65.55,65.86,64.24Z"/><path class="cls-6" d="M62.43,16.71c-.83-.77-1.11-.4-1.13.53-.25.37-.5.74-.74,1.11-.55.92-1.09,1.84-1.63,2.76l-1.07.44c.25-.63.45-1.11.68-1.66l-1.12-.61c.29-.54.55-1.1.89-1.61.55-.84,1.08-1.6.37-2.68-.27-.4-.08-1.09-.1-1.65L60,11.67l.67.7c.87-.64,1.31-1.25.06-1.93l1.69-2.2-1.79.26.21-1.11h0l1.44.09-.11-.23,1.64-.79c-.38.59,0,.89.46,1.15l-.68.23c-.94-.1-.94-.08-.7,1.38a8.44,8.44,0,0,0,1.36,2c.34.28,1.13,0,1.71,0l.13.45c-.22.31-.45.61-.67.91.13.28.18.66.39.81A6.07,6.07,0,0,0,67.1,14l-1.83-.13c-.69-.43-.73-.41-1.18.83-.37.37-.48.7.16.89l1.42.4.93.31a1.12,1.12,0,0,1,.52,1.6c-1.5.3-2.63-.41-3.76-1.13Zm-3.75,2.41c0-.07,0-.15-.08-.18s-.11,0-.17,0l.09.22Z"/><path class="cls-7" d="M64.29,7.6c-.46-.26-.84-.56-.46-1.15-.08-.55-.16-1.1-.25-1.7l1.18-.27c-.22-.75-.43-1.45-.63-2.14l.42-.87a5.4,5.4,0,0,0,1.74.06,5.5,5.5,0,0,0,1.45-1c1.19.6,2.61.86,3.23,2.26-.18.67-1.45,1-.45,2l-1,.59.21.4h1.91l.52,1.36c-.7.55-.11,1.07,0,1.61a6.71,6.71,0,0,1-1.33.5,7.32,7.32,0,0,1-1.47-.1c-.15-1.26-1.27-1.31-2.18-1.73l-.68,1.1,1.12-.39c.27,1.08-.26,2.2-.81,1.89-.8-.44-1.29-.4-1.7.6V8C65.12,7.26,64.73,7.39,64.29,7.6Z"/><path class="cls-8" d="M46.09,25.19c1.53-.42,2.94.12,4.35.57.67.76,1,1.46-.26,2-.1.05-.13.26-.2.4l-2.51.06V26.9l-.3-.12-.65,1.59-.22.09-2.57.26-.4-.1h-.5l-1,.5-2.25.76h0a4.57,4.57,0,0,0-.24-1.19,1,1,0,0,0-.71-.41.76.76,0,0,0-.56.43,3.64,3.64,0,0,0,0,1.06l-1.84-.55-.34-2.35,0-.09,2-.33,4.49-1.08.92-.17,1,0Z"/><path class="cls-8" d="M63.84,96.14,61.75,94c0-.18,0-.36,0-.54l1-1c.29-.73.86-1.48.82-2.19a24.4,24.4,0,0,1,.74-5.4l.49-2.06a1.29,1.29,0,0,1,0-.19.86.86,0,0,0,.17,0l.71.23v.68l.63,1.73,1-.15c0,.31.06.62.1.94-.19.09-.52.15-.55.28-.13.71-.18,1.44-.3,2.16a5.28,5.28,0,0,1-.34.91,6.66,6.66,0,0,1-1-.51c-.16-.11-.22-.35-.36-.62-.58.5-1,.86,0,1.23a1.43,1.43,0,0,1,.48.36c-.63,1,1,2.49-.68,3.32a1,1,0,0,0-.29.91c.59.78-.18,1.4-.15,2.09Z"/><path class="cls-7" d="M35.94,26.87l.34,2.35,1.84.55a3.64,3.64,0,0,1,0-1.06.76.76,0,0,1,.56-.43,1,1,0,0,1,.71.41,4.57,4.57,0,0,1,.24,1.19l-1.19.41c-.66.27-1.48.95-1.91-.05a.92.92,0,0,0-1.41-.53c-.25.11-.19.86-.27,1.32-.87,1-.38,2.08-.38,3.14v2.08c-2-.43-1.73-1.76-1.73-3a7.09,7.09,0,0,0,.11-1.45c0-.16-.43-.4-.65-.39s-.42.29-.63.45l-.92-.75-1.56.53,2.12-2c1.24-1.16,2.39-2.46,4.21-2.71Z"/><path class="cls-4" d="M64.29,7.6c.44-.21.83-.34.83.38v2.64c.41-1,.9-1,1.7-.6.55.31,1.08-.81.81-1.89l-1.12.39.68-1.1c.91.42,2,.47,2.18,1.73a3.25,3.25,0,0,0,.45.87,14.76,14.76,0,0,0,1.31,1c-.54,1.09-2.13,1.17-3.35.07-.73-.65-1.28-.76-1.8.17-.58,0-1.37.25-1.71,0a8.44,8.44,0,0,1-1.36-2c.24-.46.47-.92.7-1.38Z"/><path class="cls-5" d="M57.42,19.28l1.12.61c-.23.55-.43,1-.68,1.66l1.07-.44c-.51,1-1,2.05-1.55,3.08l-1,2-2.47-.51a1.62,1.62,0,0,0,0-.22c.47-1,.88-2,1.41-2.89C56,21.45,56.71,20.38,57.42,19.28Z"/><path class="cls-3" d="M64.28,96.14c0-.69.74-1.31.15-2.09a1,1,0,0,1,.29-.91c1.67-.83,0-2.31.68-3.32a1.43,1.43,0,0,0-.48-.36c-1-.37-.56-.73,0-1.23.14.27.2.51.36.62a6.66,6.66,0,0,0,1,.51,5.28,5.28,0,0,0,.34-.91c.12-.72.17-1.45.3-2.16,0-.13.36-.19.55-.28.11.38.21.76.32,1.15A11.55,11.55,0,0,0,67,92.65c-.52,1.07-1.05,2.14-1.57,3.2l-.72.47-.43.24Z"/><path class="cls-9" d="M60.85,7.39,60.64,8.5l1.79-.26-1.69,2.2c1.25.68.81,1.29-.06,1.93l-.67-.7-1.43,1.67C58.37,11,59.63,9.2,60.85,7.39Z"/><path class="cls-4" d="M71.42,5.77H69.71l-.21-.4,1-.59c-1-1,.27-1.33.45-2a22.28,22.28,0,0,1,2.66,1.38,4,4,0,0,1,1,1.41s-.26.25-.4.39l-.89-.28-.73-.4-1.65-.73-.15.24Z"/><path class="cls-9" d="M64.13,2.34c.2.69.41,1.39.63,2.14l-1.18.27c.09.6.17,1.15.25,1.7l-1.64.79.11.23-1.44-.09Z"/><path class="cls-10" d="M53.91,25.47a1.62,1.62,0,0,1,0,.22l-1.38,2.54L50,28.14c.07-.14.1-.35.2-.4,1.23-.52.93-1.22.26-2Z"/><path class="cls-11" d="M67.34,85.07l-1,.15-.63-1.73.92-.58-.12-.24-.8.14L65,82.58l-.67-1.15c0-.38,0-.76,0-1.15l1.8,1.18c.36.23.73.44,1.1.66l.09.23Z"/><path class="cls-11" d="M67,92.65a11.55,11.55,0,0,1,.75-5.49c.38.54,1.14,1.16,1.06,1.62a20.94,20.94,0,0,1-1.3,3.68C67.47,92.57,67.19,92.59,67,92.65Z"/><path class="cls-4" d="M65.44,12.64c.22-.3.45-.6.67-.91l3.48,1.35-.11.48h-2Z"/><path class="cls-11" d="M46.51,99.1l1.93-.73,2.49,1.49A6.44,6.44,0,0,1,46.51,99.1Z"/><path class="cls-10" d="M67.74.52a5.5,5.5,0,0,1-1.45,1,5.4,5.4,0,0,1-1.74-.06L65,.69l1-.59C66.56.1,67.29-.31,67.74.52Z"/><path class="cls-10" d="M56,99.05a1.54,1.54,0,0,1,1.78-.86l1.7.22a1.23,1.23,0,0,1,0,.19l-.45.48a12.79,12.79,0,0,1-1.82.3A4.17,4.17,0,0,1,56,99.05Z"/><path class="cls-5" d="M35.7,94.51c.17.22.35.43.51.66s.43.63.64.94l-2.52-.71v-.23C34.49,94.34,35,94.16,35.7,94.51Z"/><path class="cls-12" d="M65.44,12.64l2.08.92L67.1,14a6.07,6.07,0,0,1-1.27-.57C65.62,13.3,65.57,12.92,65.44,12.64Z"/><path class="cls-10" d="M51.6,99.73c.22-1.13,1.14-.34,1.69-.57.23-.1.57.1.87.16l-.25.44H52.77Z"/><path class="cls-13" d="M26.94,34.88c-.15.84-.31,1.68-.46,2.53A2.3,2.3,0,0,1,26.94,34.88Z"/><path class="cls-13" d="M46.09,25.19l-1.85,0C44.85,24.66,45.47,24.5,46.09,25.19Z"/><path class="cls-12" d="M37.88,26.45l-2,.33Z"/><path class="cls-12" d="M64.09,14.72c.45-1.24.49-1.26,1.18-.83Z"/><path class="cls-5" d="M69.61,64.7c-.07-.41-1.1-1,.19-1.16,0,.38,0,.76,0,1.15Z"/><path class="cls-14" d="M68.51,75.71c0-.46.1-.93.14-1.39C68.61,74.78,68.56,75.25,68.51,75.71Z"/><path class="cls-5" d="M36.85,96.11l1.17.65Z"/><path class="cls-13" d="M43.29,25.2l-.92.17Z"/><path class="cls-14" d="M64.28,96.14v.42l-1.18.21.73-.63Z"/><path class="cls-10" d="M60.37,98.16l1.13-.46-.42.52Z"/><path class="cls-13" d="M53.91,99.76l.25-.44.7.06Z"/><path class="cls-13" d="M52.77,99.78h0Z"/><path class="cls-14" d="M68.75,73.19c.06-.23.11-.47.17-.7C68.86,72.72,68.81,73,68.75,73.19Z"/><path class="cls-14" d="M60.37,98.16l.71.06-.72.15A1.48,1.48,0,0,1,60.37,98.16Z"/><path class="cls-14" d="M64.72,96.32l.72-.47Z"/><path class="cls-10" d="M55.06,99.27l.48-.15Z"/><path class="cls-14" d="M59,99.08l.45-.48Z"/><path class="cls-14" d="M34.33,95.17v.23l-.46-.14c0-.06,0-.11,0-.16Z"/><path class="cls-12" d="M69.61,64.7h.21c-.06.15-.12.31-.17.47C69.63,65,69.62,64.85,69.61,64.7Z"/><path class="cls-12" d="M67.64,81.44,67.58,81Z"/><path class="cls-12" d="M67.34,82.35l-.09-.23.27-.23Z"/><path class="cls-15" d="M62.9,28.36l-.19-.13A.36.36,0,0,1,62.9,28.36Z"/><path class="cls-4" d="M29.25,57.12,29.72,56c.3.12.62.22.92.36.78.37,1.53.81,2.33,1.12.3.11.93.06,1-.11a4.16,4.16,0,0,0,.44-1.69,5.74,5.74,0,0,0-.37-1.48l.06,0a23,23,0,0,0,2.78,1.36c2.42.84,4.86,1.6,7.32,2.32A32.67,32.67,0,0,0,49,59c3.54.46,6.87-.88,10.28-1.46a26.94,26.94,0,0,1,3.12-.18l.21.48A7.37,7.37,0,0,1,60.92,59a32.47,32.47,0,0,1-4.49,1.32,35.42,35.42,0,0,1-6.74,1,48,48,0,0,1-8.44-.87,42.86,42.86,0,0,1-5.65-1.76c-.45-.15-.89-.33-1.52-.56,0,1,0,1.86,0,2.68,0,1.37-.14,2.76,1.81,2.9.1,0,.2.12.29.18,3.9,2.67,8.39,3.48,13,3.74,3,.18,6.09-.15,9.27-.26A1.6,1.6,0,0,1,57.08,69c-2.16.6-4.36,1.07-6.55,1.58a1.85,1.85,0,0,1-.57,0L48,70.37c-2.29-.26-4.66.16-6.88-.73-1.59-.64-3.18-1.31-4.79-1.9a15.57,15.57,0,0,0-2-.44c.15,2.46.29,4.63.42,6.79h-.23a33.49,33.49,0,0,1-5.26-5.87L30.69,67a3.47,3.47,0,0,1-.66-.24c-.34-.24-.65-.52-1-.79.41-.16.85-.51,1.23-.46,1,.13,1.89.45,2.84.67a9.39,9.39,0,0,0,1.08.12c.36-1.47.32-2.64-1-3.53a10.26,10.26,0,0,1-1.44-1.5c-.24-.53-.48-1.07-.75-1.58,0-.07-.27,0-.41,0l-1.13-.23c0-.3,0-.6,0-.91.9-.29,1.28-.8.84-1.73Z"/><path class="cls-2" d="M29.5,59.41l1.13.23c.32.59-.07,1.67,1.16,1.61a10.26,10.26,0,0,0,1.44,1.5c1.3.89,1.34,2.06,1,3.53a9.39,9.39,0,0,1-1.08-.12c-1-.22-1.88-.54-2.84-.67-.38,0-.82.3-1.23.46.32.27.63.55,1,.79a3.47,3.47,0,0,0,.66.24l-1.4,1.24a33.49,33.49,0,0,0,5.26,5.87c-.29.69.36,1.86-1,2-1.26-.6-1-3-3.06-2.53-.39-.76-.79-1.45-1.88-1.17.14,1.23.27,2.41.42,3.73-.57.46-.88,1,.41,1.26.2,0,.39.42.45.67,0,.09-.37.25-.52.42s-.79.69-.76,1c.08.8.52,1.56.6,2.36.17,1.62.19,3.26.27,4.9l-1.17,0c-.37-2.34-.79-4.67-1.09-7a21.05,21.05,0,0,1,.16-2.48,10,10,0,0,0-.28-1.51c0-.24-.1-.59,0-.73.67-.74.34-1.43.09-2.22A10.76,10.76,0,0,1,27,70.69c-.17-1.75-.34-3.51-.5-5.27,0-.16.14-.33.21-.5.29-.06.78-.06.83-.2.22-.73.78-.67,1.35-.76a4.22,4.22,0,0,0,1.18-.64c0,.29,0,.48,0,.67,0,.91.34,1.2,1.19.91.19-.07.43,0,.63-.07a1.41,1.41,0,0,0,.65-.35c.39-.52-.45-2-1-2.22A3.73,3.73,0,0,1,30,60.88C29.79,60.46,28.84,60.18,29.5,59.41Z"/><path class="cls-4" d="M31.39,38.7l3.39.83.09.84H33l.11,1.3v.56l-.31.31.35-.1a4.42,4.42,0,0,1,.61,1.31c.21,2.13.34,4.27.49,6.41a5.17,5.17,0,0,1,0,.68c-.06,1.1-.11,2.19-.16,3.29l-.06,0L31.56,53l-.93-1.14.62-1.62H30c0-.23,0-.45,0-.68l1.19-.3c-.12-1.19-.22-2.2-.32-3.22l.31.1,1.05-.83-.74-.88c.32-.28,1-.74,1-.86a2.55,2.55,0,0,1,.12-2.27L32.25,41l-.47-.65-.45-.47v-.45Z"/><path class="cls-3" d="M32.51,41.3a2.55,2.55,0,0,0-.12,2.27c0,.12-.64.58-1,.86l.74.88-1.05.83-.31-.1c.1,1,.2,2,.32,3.22l-1.19.3c.07-.43.14-.86.24-1.44-1.29-1.19.74-2.74-.37-4.17.58-.08,1,0,1.22-.19s.5-.64.42-.85a16.83,16.83,0,0,0-1.06-2.07l1.39-.45c.16.21.31.43.47.65S32.42,41.21,32.51,41.3Z"/><path class="cls-3" d="M31.56,53l2.49,1.18a5.74,5.74,0,0,1,.37,1.48A4.16,4.16,0,0,1,34,57.35c-.08.17-.71.22-1,.11-.8-.31-1.55-.75-2.33-1.12-.3-.14-.62-.24-.92-.36a2.89,2.89,0,0,1,.91-.31,10.72,10.72,0,0,0,1.81,0C32.1,54.72,30.73,54.21,31.56,53Z"/><path class="cls-4" d="M32.7,33.3c-.4.3-1.06.55-1.14.92a2.44,2.44,0,0,0,.24,1.87c.84,1.08.92,1-.49,1.48v1a4.61,4.61,0,0,1-.75-4.14,2.29,2.29,0,0,1,.29-1l.68-1.52c.21-.16.42-.44.63-.45s.64.23.65.39A7.09,7.09,0,0,1,32.7,33.3Z"/><path class="cls-3" d="M29.25,57.12l1.08-.35c.44.93.06,1.44-.84,1.73Z"/><path class="cls-3" d="M30,50.24h1.3l-.62,1.62C29.7,51.61,29.84,50.92,30,50.24Z"/><path class="cls-3" d="M30.38,52.93c.05.1.16.23.13.27a.49.49,0,0,1-.3.2s-.11-.14-.16-.22Z"/><path class="cls-16" d="M31.33,39.47v0Z"/><path class="cls-16" d="M66.13,42.21c-2.07,1-4.3.88-6.51.95-2,.05-4,.22-6,.15a42.11,42.11,0,0,0-7,.76,5.78,5.78,0,0,1-3.44-.36,6.28,6.28,0,0,0-2.47-.37c-1.45-.06-2.92.13-4.33-.07a9.34,9.34,0,0,1-2.56-1.21c-.24-.12-.47-.26-.7-.39,0-.37-.07-.73-.11-1.3h1.83l-.09-.84c2.48.14,4.95.37,7.43.42a38.85,38.85,0,0,0,5.7-.33c.38,0,.72-1,.94-1.58,1-2.63,1.87-5.27,2.81-7.91,0-.12.22-.2.33-.3l2.47-.16-.6,2c-.22.45-.43.9-.65,1.34C52.38,35,51,36.84,51,39.24c5.42-.33,10.86.36,16-1.67a7.85,7.85,0,0,1-1.37,1.59c-1.15.77-1.13,1.8-1.08,2.88Z"/><path class="cls-10" d="M52.43,28.69l.11-.22Z"/><path class="cls-17" d="M36.63,90.14a.46.46,0,0,1,.08.19l-1.92,0c-.58-.84-1.13-1.7-1.74-2.51-.45-.6-.95-1-1.68-.24-.24.24-.79.16-1.19.23l-.47-.24-.23-.91c-.08-1.64-.1-3.28-.27-4.9-.08-.8-.52-1.56-.6-2.36,0-.3.47-.67.76-1s.54-.33.52-.42c-.06-.25-.25-.63-.45-.67-1.29-.27-1-.8-.41-1.26-.15-1.32-.28-2.5-.42-3.73,1.09-.28,1.49.41,1.88,1.17,2.08-.43,1.8,1.93,3.06,2.53,1.36-.12.71-1.29,1-2h.23c2.57,1.17,5.13,2.43,8,2.51s5.52,0,8.4,0A2.44,2.44,0,0,1,49.47,78c-1.13.17-2.23.5-3.35.72a7.55,7.55,0,0,1-1.7.17A25.09,25.09,0,0,1,35.54,77a2.7,2.7,0,0,0-.56-.14l-1.24-.19a11.71,11.71,0,0,0,.13,1.55c.27,1.1.37,2.1-.9,2.7-.12.06-.13.78,0,.84,1.28.67.94,1.33,0,1.94.31.51.75.93.8,1.39a4.75,4.75,0,0,1-.49,1.63l1.1-.09,1.22,3.32Zm-4-5.79-.36-.11-.2.93.28.06Zm2.55-8.19,0-.09s-.06.05-.06.08,0,.06,0,.09Z"/><path class="cls-6" d="M30.18,87.85c.4-.07.95,0,1.19-.23.73-.73,1.23-.36,1.68.24.61.81,1.16,1.67,1.74,2.51L33,91.66l-1.2.33-1.39-1.83c.68-.23.55-.62.28-1.11A8.83,8.83,0,0,1,30.18,87.85Z"/><path class="cls-4" d="M55,96c.72-.3,1.42-.64,2.15-.91,1.52-.56,3.05-1.09,4.58-1.63,0,.18,0,.36,0,.54-.72.3-1.45.58-2.14.93-.13.07-.11.44-.16.67,0,.08,0,.15,0,.22C58,97.47,56.47,96.18,55,96Z"/><path class="cls-6" d="M34.33,95.17l-.47-.07c-.29-.41-.61-.81-.86-1.24a5,5,0,0,1-.3-1l1.2.81.33-1.43c.58.53,1.13,1,1.61,1.51.1.11-.09.48-.14.73C35,94.16,34.49,94.34,34.33,95.17Z"/><path class="cls-17" d="M39.86,92.63l2.08.87a1.62,1.62,0,0,1-2.55.77v-.92Z"/><path class="cls-8" d="M59.44,95.86c0-.07,0-.14,0-.22l2.22-.82c.17,1.09-.91,1.11-1.28,1.68Z"/><path class="cls-17" d="M37.12,90.53c.49.54,1,1.08,1.46,1.61l-.8.07L37.09,92v-.9Z"/><path class="cls-6" d="M37.78,92.21l.8-.07,1.28.49c-.15.24-.31.48-.47.72Z"/><path class="cls-6" d="M37.09,91.07V92l-1,.21C35.77,91.15,36.44,91.12,37.09,91.07Z"/><path class="cls-6" d="M39.39,93.81v.46L39,94Z"/><path class="cls-18" d="M67.36,50.72c.12-.69.24-1.39.37-2.09.21.51.41,1,.61,1.48.33-.28.6-.53.89-.74,0,0,.32.19.3.26-.11.54-.13,1.43-.44,1.54-1.41.54-.86,1.58-.77,2.45a2.76,2.76,0,0,1-1.9,2.6l.9-4.6C68,51.35,68,51.05,67.36,50.72Z"/><path class="cls-5" d="M66.08,62.35c0-.13,0-.26,0-.4.92-.58,1-.9.18-1.43,0-.76,0-1.51,0-2.27l.5,0a2.65,2.65,0,0,1,.68,2.65,14.3,14.3,0,0,1-.85,1.86Z"/><path class="cls-18" d="M66.38,57.36c0-.16,0-.32,0-.47l.33.19Z"/><path class="cls-18" d="M66.82,58.27l-.5,0c0-.15,0-.29.05-.44Z"/><path class="cls-2" d="M30.18,87.85a8.83,8.83,0,0,0,.48,1.2c.27.49.4.88-.28,1.11l-1.14-.93c-.08-.15-.16-.31-.23-.47s0-.29,0-.44c.24-.23.47-.47.71-.71Z"/><path class="cls-6" d="M29.71,87.61c-.24.24-.47.48-.71.71l-.69-1.6,1.17,0Z"/><path class="cls-6" d="M29,88.76c.07.16.15.32.23.47C29.16,89.08,29.08,88.92,29,88.76Z"/><path class="cls-11" d="M64.38,79.36c0-.16.08-.31.13-.46C64.46,79.05,64.42,79.2,64.38,79.36Z"/><path class="cls-7" d="M63.61,7.83c-.23.46-.46.92-.7,1.38C62.67,7.75,62.67,7.73,63.61,7.83Z"/><path class="cls-5" d="M58.68,19.12l-.16.08L58.43,19c.06,0,.13-.06.17,0S58.65,19.05,58.68,19.12Z"/><path class="cls-17" d="M46.3,28.46c0,1.55.1,3.11,0,4.66-.11,1.29-.27,2.68-1.81,3.28-1.1-.77-.64-1.95-.71-2.95-.11-1.57,0-3.15,0-4.73Z"/><path class="cls-4" d="M41.83,29.12c.66,2.53.16,4.79-1.54,5.91a10.47,10.47,0,0,1-.64-2c-.11-1.05,0-2.12-.07-3.18Z"/><path class="cls-17" d="M47.47,28.2l-.95.17.65-1.59.3.12Z"/><path class="cls-4" d="M43.33,28.62h0Z"/><path class="cls-17" d="M63.32,86.39c.11-.5.23-1,.34-1.51l.62,0a24.4,24.4,0,0,0-.74,5.4c0,.71-.53,1.46-.82,2.19-.2-.76-.59-.27-.95-.16-1.18.4-2.35.81-3.55,1.13-.31.09-.7-.13-1.11-.23A6.06,6.06,0,0,1,60,89.82a7,7,0,0,0,2.71-2.65Z"/><path class="cls-5" d="M64.28,84.86l-.62,0c.22-1.15.43-2.3.65-3.45.22.39.45.77.67,1.15a.86.86,0,0,1-.17,0c0,.06,0,.13,0,.19Z"/><path class="cls-5" d="M65.69,82.81l.8-.14.12.24-.92.58Z"/><path class="cls-11" d="M64.77,82.8c0-.06,0-.13,0-.19A1.29,1.29,0,0,0,64.77,82.8Z"/><path class="cls-19" d="M38.4,30.29c-.14,1.33-.21,2.68-.46,4-.07.33-.74.55-1.14.82-.25-.42-.7-.83-.71-1.25a25.46,25.46,0,0,1,.27-3.14L34.81,31c.08-.46,0-1.21.27-1.32a.92.92,0,0,1,1.41.53C36.92,31.24,37.74,30.56,38.4,30.29Z"/><path class="cls-3" d="M31.79,61.25c-1.23.06-.84-1-1.16-1.61.14,0,.38,0,.41,0C31.31,60.18,31.55,60.72,31.79,61.25Z"/><path class="cls-3" d="M33.14,42.23a.39.39,0,0,1,0,.21l-.35.1Z"/><path class="cls-1" d="M32.51,41.3c-.09-.09-.18-.17-.26-.26C32.33,41.13,32.42,41.21,32.51,41.3Z"/><path class="cls-20" d="M36.63,90.14l-1-.23-1.22-3.32-1.1.09a4.75,4.75,0,0,0,.49-1.63c-.05-.46-.49-.88-.8-1.39.93-.61,1.27-1.27,0-1.94-.13-.06-.12-.78,0-.84,1.27-.6,1.17-1.6.9-2.7a11.71,11.71,0,0,1-.13-1.55l1.24.19c0,2.42-.15,4.86.07,7.27a28.12,28.12,0,0,0,1.29,4.75C36.46,89.27,36.54,89.71,36.63,90.14Z"/><path class="cls-4" d="M66.27,60.52c.78.53.74.85-.18,1.43Z"/><path class="cls-4" d="M67.36,50.72c.65.33.6.63,0,.9C67.33,51.32,67.34,51,67.36,50.72Z"/><path class="cls-5" d="M63.32,86.39l-.61.78Z"/><path class="cls-13" d="M53.86,31.69l.67.23-.6,1.42L53.21,33C53.43,32.59,53.64,32.14,53.86,31.69Z"/><path class="cls-20" d="M32.64,84.35l-.28.88-.28-.06.2-.93Z"/><path class="cls-20" d="M35.19,76.16l-.07.08s0-.06,0-.09,0-.05.06-.08Z"/></g></svg>